# Tiled2Unity generated file. Do not modify by hand.
# Wavefront file for 'JuegoTipoPokemon_mesh_0003.obj'

# Vertices (Count = 136)
v 0 -1 0
v -1 -1 0
v -1 0 0
v 0 0 0
v -1 -1 0
v -2 -1 0
v -2 0 0
v -1 0 0
v -7 -1 0
v -8 -1 0
v -8 0 0
v -7 0 0
v -8 -1 0
v -9 -1 0
v -9 0 0
v -8 0 0
v -9 -1 0
v -10 -1 0
v -10 0 0
v -9 0 0
v 0 -2 0
v -1 -2 0
v -1 -1 0
v 0 -1 0
v -2 -2 0
v -3 -2 0
v -3 -1 0
v -2 -1 0
v -5 -2 0
v -6 -2 0
v -6 -1 0
v -5 -1 0
v -8 -2 0
v -9 -2 0
v -9 -1 0
v -8 -1 0
v -9 -2 0
v -10 -2 0
v -10 -1 0
v -9 -1 0
v 0 -3 0
v -1 -3 0
v -1 -2 0
v 0 -2 0
v -2 -3 0
v -3 -3 0
v -3 -2 0
v -2 -2 0
v -7 -3 0
v -8 -3 0
v -8 -2 0
v -7 -2 0
v -8 -3 0
v -9 -3 0
v -9 -2 0
v -8 -2 0
v -9 -3 0
v -10 -3 0
v -10 -2 0
v -9 -2 0
v -5 -5 0
v -6 -5 0
v -6 -4 0
v -5 -4 0
v -7 -5 0
v -8 -5 0
v -8 -4 0
v -7 -4 0
v -1 -6 0
v -2 -6 0
v -2 -5 0
v -1 -5 0
v -5 -6 0
v -6 -6 0
v -6 -5 0
v -5 -5 0
v -6 -6 0
v -7 -6 0
v -7 -5 0
v -6 -5 0
v 0 -7 0
v -1 -7 0
v -1 -6 0
v 0 -6 0
v -4 -7 0
v -5 -7 0
v -5 -6 0
v -4 -6 0
v 0 -8 0
v -1 -8 0
v -1 -7 0
v 0 -7 0
v -1 -8 0
v -2 -8 0
v -2 -7 0
v -1 -7 0
v -2 -8 0
v -3 -8 0
v -3 -7 0
v -2 -7 0
v -7 -8 0
v -8 -8 0
v -8 -7 0
v -7 -7 0
v -9 -8 0
v -10 -8 0
v -10 -7 0
v -9 -7 0
v 0 -9 0
v -1 -9 0
v -1 -8 0
v 0 -8 0
v -1 -9 0
v -2 -9 0
v -2 -8 0
v -1 -8 0
v -7 -9 0
v -8 -9 0
v -8 -8 0
v -7 -8 0
v -9 -9 0
v -10 -9 0
v -10 -8 0
v -9 -8 0
v 0 -10 0
v -1 -10 0
v -1 -9 0
v 0 -9 0
v -1 -10 0
v -2 -10 0
v -2 -9 0
v -1 -9 0
v -8 -10 0
v -9 -10 0
v -9 -9 0
v -8 -9 0

# Texture cooridinates (Count = 50)
vt 0.125 0.2222222
vt 0.15 0.2222222
vt 0.15 0.25
vt 0.125 0.25
vt 0 0.75
vt 0.025 0.75
vt 0.025 0.7777778
vt 0 0.7777778
vt 0.25 0.8333333
vt 0.275 0.8333333
vt 0.275 0.8611111
vt 0.25 0.8611111
vt 0.2 0.1111111
vt 0.225 0.1111111
vt 0.225 0.1388889
vt 0.2 0.1388889
vt 0.25 0.1111111
vt 0.25 0.1388889
vt 0.125 0.1944444
vt 0.15 0.1944444
vt 0.175 0.8333333
vt 0.2 0.8333333
vt 0.2 0.8611111
vt 0.175 0.8611111
vt 0.075 0.6666666
vt 0.1 0.6666666
vt 0.1 0.6944444
vt 0.075 0.6944444
vt 0.2 0.08333331
vt 0.225 0.08333331
vt 0.25 0.08333331
vt 0.225 0.8333333
vt 0.225 0.8611111
vt 0.2 0.05555558
vt 0.225 0.05555558
vt 0.25 0.05555558
vt 0.05 0.6388889
vt 0.075 0.6388889
vt 0.05 0.6666666
vt 0.025 0.9722222
vt 0.05 0.9722222
vt 0.05 1
vt 0.025 1
vt 0.15 0.8333333
vt 0.15 0.8611111
vt 0.05 0.5833334
vt 0.075 0.5833334
vt 0.075 0.6111111
vt 0.05 0.6111111
vt 0.1 0.6388889

# Normal
vn 0 0 -1

# Mesh description
g JuegoTipoPokemon_mesh_0003

# Faces
f 1/1/1 2/2/1 3/3/1 4/4/1
f 5/5/1 6/6/1 7/7/1 8/8/1
f 9/9/1 10/10/1 11/11/1 12/12/1
f 13/13/1 14/14/1 15/15/1 16/16/1
f 17/14/1 18/17/1 19/18/1 20/15/1
f 21/19/1 22/20/1 23/2/1 24/1/1
f 25/21/1 26/22/1 27/23/1 28/24/1
f 29/25/1 30/26/1 31/27/1 32/28/1
f 33/29/1 34/30/1 35/14/1 36/13/1
f 37/30/1 38/31/1 39/17/1 40/14/1
f 41/22/1 42/32/1 43/33/1 44/23/1
f 45/25/1 46/26/1 47/27/1 48/28/1
f 49/25/1 50/26/1 51/27/1 52/28/1
f 53/34/1 54/35/1 55/30/1 56/29/1
f 57/35/1 58/36/1 59/31/1 60/30/1
f 61/37/1 62/38/1 63/25/1 64/39/1
f 65/37/1 66/38/1 67/25/1 68/39/1
f 69/25/1 70/26/1 71/27/1 72/28/1
f 73/40/1 74/41/1 75/42/1 76/43/1
f 77/9/1 78/10/1 79/11/1 80/12/1
f 81/1/1 82/2/1 83/3/1 84/4/1
f 85/37/1 86/38/1 87/25/1 88/39/1
f 89/19/1 90/20/1 91/2/1 92/1/1
f 93/25/1 94/26/1 95/27/1 96/28/1
f 97/37/1 98/38/1 99/25/1 100/39/1
f 101/44/1 102/21/1 103/24/1 104/45/1
f 105/44/1 106/21/1 107/24/1 108/45/1
f 109/46/1 110/47/1 111/48/1 112/49/1
f 113/46/1 114/47/1 115/48/1 116/49/1
f 117/38/1 118/50/1 119/26/1 120/25/1
f 121/22/1 122/32/1 123/33/1 124/23/1
f 125/46/1 126/47/1 127/48/1 128/49/1
f 129/46/1 130/47/1 131/48/1 132/49/1
f 133/9/1 134/10/1 135/11/1 136/12/1

