# Tiled2Unity generated file. Do not modify by hand.
# Wavefront file for 'JuegoTipoPokemon_mesh_0001.obj'

# Vertices (Count = 400)
v 0 -1 0
v -1 -1 0
v -1 0 0
v 0 0 0
v -1 -1 0
v -2 -1 0
v -2 0 0
v -1 0 0
v -2 -1 0
v -3 -1 0
v -3 0 0
v -2 0 0
v -3 -1 0
v -4 -1 0
v -4 0 0
v -3 0 0
v -4 -1 0
v -5 -1 0
v -5 0 0
v -4 0 0
v -5 -1 0
v -6 -1 0
v -6 0 0
v -5 0 0
v -6 -1 0
v -7 -1 0
v -7 0 0
v -6 0 0
v -7 -1 0
v -8 -1 0
v -8 0 0
v -7 0 0
v -8 -1 0
v -9 -1 0
v -9 0 0
v -8 0 0
v -9 -1 0
v -10 -1 0
v -10 0 0
v -9 0 0
v 0 -2 0
v -1 -2 0
v -1 -1 0
v 0 -1 0
v -1 -2 0
v -2 -2 0
v -2 -1 0
v -1 -1 0
v -2 -2 0
v -3 -2 0
v -3 -1 0
v -2 -1 0
v -3 -2 0
v -4 -2 0
v -4 -1 0
v -3 -1 0
v -4 -2 0
v -5 -2 0
v -5 -1 0
v -4 -1 0
v -5 -2 0
v -6 -2 0
v -6 -1 0
v -5 -1 0
v -6 -2 0
v -7 -2 0
v -7 -1 0
v -6 -1 0
v -7 -2 0
v -8 -2 0
v -8 -1 0
v -7 -1 0
v -8 -2 0
v -9 -2 0
v -9 -1 0
v -8 -1 0
v -9 -2 0
v -10 -2 0
v -10 -1 0
v -9 -1 0
v 0 -3 0
v -1 -3 0
v -1 -2 0
v 0 -2 0
v -1 -3 0
v -2 -3 0
v -2 -2 0
v -1 -2 0
v -2 -3 0
v -3 -3 0
v -3 -2 0
v -2 -2 0
v -3 -3 0
v -4 -3 0
v -4 -2 0
v -3 -2 0
v -4 -3 0
v -5 -3 0
v -5 -2 0
v -4 -2 0
v -5 -3 0
v -6 -3 0
v -6 -2 0
v -5 -2 0
v -6 -3 0
v -7 -3 0
v -7 -2 0
v -6 -2 0
v -7 -3 0
v -8 -3 0
v -8 -2 0
v -7 -2 0
v -8 -3 0
v -9 -3 0
v -9 -2 0
v -8 -2 0
v -9 -3 0
v -10 -3 0
v -10 -2 0
v -9 -2 0
v 0 -4 0
v -1 -4 0
v -1 -3 0
v 0 -3 0
v -1 -4 0
v -2 -4 0
v -2 -3 0
v -1 -3 0
v -2 -4 0
v -3 -4 0
v -3 -3 0
v -2 -3 0
v -3 -4 0
v -4 -4 0
v -4 -3 0
v -3 -3 0
v -4 -4 0
v -5 -4 0
v -5 -3 0
v -4 -3 0
v -5 -4 0
v -6 -4 0
v -6 -3 0
v -5 -3 0
v -6 -4 0
v -7 -4 0
v -7 -3 0
v -6 -3 0
v -7 -4 0
v -8 -4 0
v -8 -3 0
v -7 -3 0
v -8 -4 0
v -9 -4 0
v -9 -3 0
v -8 -3 0
v -9 -4 0
v -10 -4 0
v -10 -3 0
v -9 -3 0
v 0 -5 0
v -1 -5 0
v -1 -4 0
v 0 -4 0
v -1 -5 0
v -2 -5 0
v -2 -4 0
v -1 -4 0
v -2 -5 0
v -3 -5 0
v -3 -4 0
v -2 -4 0
v -3 -5 0
v -4 -5 0
v -4 -4 0
v -3 -4 0
v -4 -5 0
v -5 -5 0
v -5 -4 0
v -4 -4 0
v -5 -5 0
v -6 -5 0
v -6 -4 0
v -5 -4 0
v -6 -5 0
v -7 -5 0
v -7 -4 0
v -6 -4 0
v -7 -5 0
v -8 -5 0
v -8 -4 0
v -7 -4 0
v -8 -5 0
v -9 -5 0
v -9 -4 0
v -8 -4 0
v -9 -5 0
v -10 -5 0
v -10 -4 0
v -9 -4 0
v 0 -6 0
v -1 -6 0
v -1 -5 0
v 0 -5 0
v -1 -6 0
v -2 -6 0
v -2 -5 0
v -1 -5 0
v -2 -6 0
v -3 -6 0
v -3 -5 0
v -2 -5 0
v -3 -6 0
v -4 -6 0
v -4 -5 0
v -3 -5 0
v -4 -6 0
v -5 -6 0
v -5 -5 0
v -4 -5 0
v -5 -6 0
v -6 -6 0
v -6 -5 0
v -5 -5 0
v -6 -6 0
v -7 -6 0
v -7 -5 0
v -6 -5 0
v -7 -6 0
v -8 -6 0
v -8 -5 0
v -7 -5 0
v -8 -6 0
v -9 -6 0
v -9 -5 0
v -8 -5 0
v -9 -6 0
v -10 -6 0
v -10 -5 0
v -9 -5 0
v 0 -7 0
v -1 -7 0
v -1 -6 0
v 0 -6 0
v -1 -7 0
v -2 -7 0
v -2 -6 0
v -1 -6 0
v -2 -7 0
v -3 -7 0
v -3 -6 0
v -2 -6 0
v -3 -7 0
v -4 -7 0
v -4 -6 0
v -3 -6 0
v -4 -7 0
v -5 -7 0
v -5 -6 0
v -4 -6 0
v -5 -7 0
v -6 -7 0
v -6 -6 0
v -5 -6 0
v -6 -7 0
v -7 -7 0
v -7 -6 0
v -6 -6 0
v -7 -7 0
v -8 -7 0
v -8 -6 0
v -7 -6 0
v -8 -7 0
v -9 -7 0
v -9 -6 0
v -8 -6 0
v -9 -7 0
v -10 -7 0
v -10 -6 0
v -9 -6 0
v 0 -8 0
v -1 -8 0
v -1 -7 0
v 0 -7 0
v -1 -8 0
v -2 -8 0
v -2 -7 0
v -1 -7 0
v -2 -8 0
v -3 -8 0
v -3 -7 0
v -2 -7 0
v -3 -8 0
v -4 -8 0
v -4 -7 0
v -3 -7 0
v -4 -8 0
v -5 -8 0
v -5 -7 0
v -4 -7 0
v -5 -8 0
v -6 -8 0
v -6 -7 0
v -5 -7 0
v -6 -8 0
v -7 -8 0
v -7 -7 0
v -6 -7 0
v -7 -8 0
v -8 -8 0
v -8 -7 0
v -7 -7 0
v -8 -8 0
v -9 -8 0
v -9 -7 0
v -8 -7 0
v -9 -8 0
v -10 -8 0
v -10 -7 0
v -9 -7 0
v 0 -9 0
v -1 -9 0
v -1 -8 0
v 0 -8 0
v -1 -9 0
v -2 -9 0
v -2 -8 0
v -1 -8 0
v -2 -9 0
v -3 -9 0
v -3 -8 0
v -2 -8 0
v -3 -9 0
v -4 -9 0
v -4 -8 0
v -3 -8 0
v -4 -9 0
v -5 -9 0
v -5 -8 0
v -4 -8 0
v -5 -9 0
v -6 -9 0
v -6 -8 0
v -5 -8 0
v -6 -9 0
v -7 -9 0
v -7 -8 0
v -6 -8 0
v -7 -9 0
v -8 -9 0
v -8 -8 0
v -7 -8 0
v -8 -9 0
v -9 -9 0
v -9 -8 0
v -8 -8 0
v -9 -9 0
v -10 -9 0
v -10 -8 0
v -9 -8 0
v 0 -10 0
v -1 -10 0
v -1 -9 0
v 0 -9 0
v -1 -10 0
v -2 -10 0
v -2 -9 0
v -1 -9 0
v -2 -10 0
v -3 -10 0
v -3 -9 0
v -2 -9 0
v -3 -10 0
v -4 -10 0
v -4 -9 0
v -3 -9 0
v -4 -10 0
v -5 -10 0
v -5 -9 0
v -4 -9 0
v -5 -10 0
v -6 -10 0
v -6 -9 0
v -5 -9 0
v -6 -10 0
v -7 -10 0
v -7 -9 0
v -6 -9 0
v -7 -10 0
v -8 -10 0
v -8 -9 0
v -7 -9 0
v -8 -10 0
v -9 -10 0
v -9 -9 0
v -8 -9 0
v -9 -10 0
v -10 -10 0
v -10 -9 0
v -9 -9 0

# Texture cooridinates (Count = 60)
vt 0.05 0.8055556
vt 0.075 0.8055556
vt 0.075 0.8333333
vt 0.05 0.8333333
vt 0.1 0.8055556
vt 0.1 0.8333333
vt 0.125 0.8055556
vt 0.125 0.8333333
vt 0 0.1666667
vt 0.025 0.1666667
vt 0.025 0.1944444
vt 0 0.1944444
vt 0.05 0.1666667
vt 0.05 0.1944444
vt 0.075 0.1666667
vt 0.075 0.1944444
vt 0.175 0.7222222
vt 0.2 0.7222222
vt 0.2 0.75
vt 0.175 0.75
vt 0.225 0.7222222
vt 0.225 0.75
vt 0.05 0.7777778
vt 0.075 0.7777778
vt 0.1 0.7777778
vt 0.125 0.7777778
vt 0 0.1388889
vt 0.025 0.1388889
vt 0.05 0.1388889
vt 0.075 0.1388889
vt 0.05 0.75
vt 0.075 0.75
vt 0.1 0.75
vt 0.125 0.75
vt 0 0.1111111
vt 0.025 0.1111111
vt 0.05 0.1111111
vt 0.325 0.1944444
vt 0.35 0.1944444
vt 0.35 0.2222222
vt 0.325 0.2222222
vt 0 0.7222222
vt 0.025 0.7222222
vt 0.025 0.75
vt 0 0.75
vt 0.05 0.7222222
vt 0.075 0.1111111
vt 0.275 0.1944444
vt 0.3 0.1944444
vt 0.3 0.2222222
vt 0.275 0.2222222
vt 0.025 0
vt 0.05 0
vt 0.05 0.02777779
vt 0.025 0.02777779
vt 0 0.6944444
vt 0.025 0.6944444
vt 0.05 0.6944444
vt 0.05 0.08333331
vt 0.075 0.08333331

# Normal
vn 0 0 -1

# Mesh description
g JuegoTipoPokemon_mesh_0001

# Faces
f 1/1/1 2/2/1 3/3/1 4/4/1
f 5/2/1 6/5/1 7/6/1 8/3/1
f 9/5/1 10/7/1 11/8/1 12/6/1
f 13/9/1 14/10/1 15/11/1 16/12/1
f 17/10/1 18/13/1 19/14/1 20/11/1
f 21/13/1 22/15/1 23/16/1 24/14/1
f 25/17/1 26/18/1 27/19/1 28/20/1
f 29/18/1 30/21/1 31/22/1 32/19/1
f 33/17/1 34/18/1 35/19/1 36/20/1
f 37/18/1 38/21/1 39/22/1 40/19/1
f 41/23/1 42/24/1 43/2/1 44/1/1
f 45/24/1 46/25/1 47/5/1 48/2/1
f 49/25/1 50/26/1 51/7/1 52/5/1
f 53/27/1 54/28/1 55/10/1 56/9/1
f 57/28/1 58/29/1 59/13/1 60/10/1
f 61/29/1 62/30/1 63/15/1 64/13/1
f 65/18/1 66/21/1 67/22/1 68/19/1
f 69/9/1 70/10/1 71/11/1 72/12/1
f 73/10/1 74/13/1 75/14/1 76/11/1
f 77/13/1 78/15/1 79/16/1 80/14/1
f 81/31/1 82/32/1 83/24/1 84/23/1
f 85/32/1 86/33/1 87/25/1 88/24/1
f 89/33/1 90/34/1 91/26/1 92/25/1
f 93/35/1 94/36/1 95/28/1 96/27/1
f 97/36/1 98/37/1 99/29/1 100/28/1
f 101/38/1 102/39/1 103/40/1 104/41/1
f 105/17/1 106/18/1 107/19/1 108/20/1
f 109/27/1 110/28/1 111/10/1 112/9/1
f 113/28/1 114/29/1 115/13/1 116/10/1
f 117/29/1 118/30/1 119/15/1 120/13/1
f 121/42/1 122/43/1 123/44/1 124/45/1
f 125/43/1 126/46/1 127/31/1 128/44/1
f 129/18/1 130/21/1 131/22/1 132/19/1
f 133/17/1 134/18/1 135/19/1 136/20/1
f 137/18/1 138/21/1 139/22/1 140/19/1
f 141/17/1 142/18/1 143/19/1 144/20/1
f 145/17/1 146/18/1 147/19/1 148/20/1
f 149/35/1 150/36/1 151/28/1 152/27/1
f 153/36/1 154/37/1 155/29/1 156/28/1
f 157/37/1 158/47/1 159/30/1 160/29/1
f 161/48/1 162/49/1 163/50/1 164/51/1
f 165/49/1 166/38/1 167/41/1 168/50/1
f 169/18/1 170/21/1 171/22/1 172/19/1
f 173/17/1 174/18/1 175/19/1 176/20/1
f 177/52/1 178/53/1 179/54/1 180/55/1
f 181/42/1 182/43/1 183/44/1 184/45/1
f 185/43/1 186/46/1 187/31/1 188/44/1
f 189/17/1 190/18/1 191/19/1 192/20/1
f 193/18/1 194/21/1 195/22/1 196/19/1
f 197/18/1 198/21/1 199/22/1 200/19/1
f 201/17/1 202/18/1 203/19/1 204/20/1
f 205/18/1 206/21/1 207/22/1 208/19/1
f 209/18/1 210/21/1 211/22/1 212/19/1
f 213/17/1 214/18/1 215/19/1 216/20/1
f 217/17/1 218/18/1 219/19/1 220/20/1
f 221/56/1 222/57/1 223/43/1 224/42/1
f 225/57/1 226/58/1 227/46/1 228/43/1
f 229/18/1 230/21/1 231/22/1 232/19/1
f 233/59/1 234/60/1 235/47/1 236/37/1
f 237/17/1 238/18/1 239/19/1 240/20/1
f 241/10/1 242/13/1 243/14/1 244/11/1
f 245/13/1 246/15/1 247/16/1 248/14/1
f 249/17/1 250/18/1 251/19/1 252/20/1
f 253/17/1 254/18/1 255/19/1 256/20/1
f 257/18/1 258/21/1 259/22/1 260/19/1
f 261/17/1 262/18/1 263/19/1 264/20/1
f 265/18/1 266/21/1 267/22/1 268/19/1
f 269/42/1 270/43/1 271/44/1 272/45/1
f 273/43/1 274/46/1 275/31/1 276/44/1
f 277/17/1 278/18/1 279/19/1 280/20/1
f 281/28/1 282/29/1 283/13/1 284/10/1
f 285/29/1 286/30/1 287/15/1 288/13/1
f 289/42/1 290/43/1 291/44/1 292/45/1
f 293/43/1 294/46/1 295/31/1 296/44/1
f 297/9/1 298/10/1 299/11/1 300/12/1
f 301/10/1 302/13/1 303/14/1 304/11/1
f 305/13/1 306/15/1 307/16/1 308/14/1
f 309/1/1 310/2/1 311/3/1 312/4/1
f 313/2/1 314/5/1 315/6/1 316/3/1
f 317/5/1 318/7/1 319/8/1 320/6/1
f 321/36/1 322/37/1 323/29/1 324/28/1
f 325/37/1 326/47/1 327/30/1 328/29/1
f 329/56/1 330/57/1 331/43/1 332/42/1
f 333/57/1 334/58/1 335/46/1 336/43/1
f 337/27/1 338/28/1 339/10/1 340/9/1
f 341/28/1 342/29/1 343/13/1 344/10/1
f 345/29/1 346/30/1 347/15/1 348/13/1
f 349/23/1 350/24/1 351/2/1 352/1/1
f 353/24/1 354/25/1 355/5/1 356/2/1
f 357/25/1 358/26/1 359/7/1 360/5/1
f 361/18/1 362/21/1 363/22/1 364/19/1
f 365/17/1 366/18/1 367/19/1 368/20/1
f 369/17/1 370/18/1 371/19/1 372/20/1
f 373/18/1 374/21/1 375/22/1 376/19/1
f 377/35/1 378/36/1 379/28/1 380/27/1
f 381/36/1 382/37/1 383/29/1 384/28/1
f 385/37/1 386/47/1 387/30/1 388/29/1
f 389/31/1 390/32/1 391/24/1 392/23/1
f 393/32/1 394/33/1 395/25/1 396/24/1
f 397/33/1 398/34/1 399/26/1 400/25/1

