# Tiled2Unity generated file. Do not modify by hand.
# Wavefront file for 'JuegoPelea_mesh_0002.obj'

# Vertices (Count = 16)
v 0 -24 0
v -1 -24 0
v -1 -23 0
v 0 -23 0
v -1 -24 0
v -2 -24 0
v -2 -23 0
v -1 -23 0
v -2 -24 0
v -3 -24 0
v -3 -23 0
v -2 -23 0
v -3 -24 0
v -4 -24 0
v -4 -23 0
v -3 -23 0

# Texture cooridinates (Count = 4)
vt 0.5 0.875
vt 0.5625 0.875
vt 0.5625 0.9375
vt 0.5 0.9375

# Normal
vn 0 0 -1

# Mesh description
g JuegoPelea_mesh_0002

# Faces
f 1/1/1 2/2/1 3/3/1 4/4/1
f 5/1/1 6/2/1 7/3/1 8/4/1
f 9/1/1 10/2/1 11/3/1 12/4/1
f 13/1/1 14/2/1 15/3/1 16/4/1

