# Tiled2Unity generated file. Do not modify by hand.
# Wavefront file for 'ScenarioPlataforma_mesh_0007.obj'

# Vertices (Count = 136)
v -184 -79 0
v -185 -79 0
v -185 -78 0
v -184 -78 0
v -193 -79 0
v -194 -79 0
v -194 -78 0
v -193 -78 0
v -153 -94 0
v -154 -94 0
v -154 -93 0
v -153 -93 0
v -167 -100 0
v -168 -100 0
v -168 -99 0
v -167 -99 0
v -168 -100 0
v -169 -100 0
v -169 -99 0
v -168 -99 0
v -169 -100 0
v -170 -100 0
v -170 -99 0
v -169 -99 0
v -170 -100 0
v -171 -100 0
v -171 -99 0
v -170 -99 0
v -171 -100 0
v -172 -100 0
v -172 -99 0
v -171 -99 0
v -172 -100 0
v -173 -100 0
v -173 -99 0
v -172 -99 0
v -173 -100 0
v -174 -100 0
v -174 -99 0
v -173 -99 0
v -174 -100 0
v -175 -100 0
v -175 -99 0
v -174 -99 0
v -175 -100 0
v -176 -100 0
v -176 -99 0
v -175 -99 0
v -176 -100 0
v -177 -100 0
v -177 -99 0
v -176 -99 0
v -177 -100 0
v -178 -100 0
v -178 -99 0
v -177 -99 0
v -178 -100 0
v -179 -100 0
v -179 -99 0
v -178 -99 0
v -167 -101 0
v -168 -101 0
v -168 -100 0
v -167 -100 0
v -168 -101 0
v -169 -101 0
v -169 -100 0
v -168 -100 0
v -169 -101 0
v -170 -101 0
v -170 -100 0
v -169 -100 0
v -170 -101 0
v -171 -101 0
v -171 -100 0
v -170 -100 0
v -171 -101 0
v -172 -101 0
v -172 -100 0
v -171 -100 0
v -172 -101 0
v -173 -101 0
v -173 -100 0
v -172 -100 0
v -173 -101 0
v -174 -101 0
v -174 -100 0
v -173 -100 0
v -174 -101 0
v -175 -101 0
v -175 -100 0
v -174 -100 0
v -175 -101 0
v -176 -101 0
v -176 -100 0
v -175 -100 0
v -176 -101 0
v -177 -101 0
v -177 -100 0
v -176 -100 0
v -177 -101 0
v -178 -101 0
v -178 -100 0
v -177 -100 0
v -178 -101 0
v -179 -101 0
v -179 -100 0
v -178 -100 0
v -93 -114 0
v -94 -114 0
v -94 -113 0
v -93 -113 0
v -85 -116 0
v -86 -116 0
v -86 -115 0
v -85 -115 0
v -85 -120 0
v -86 -120 0
v -86 -119 0
v -85 -119 0
v -93 -127 0
v -94 -127 0
v -94 -126 0
v -93 -126 0
v -85 -129 0
v -86 -129 0
v -86 -128 0
v -85 -128 0
v -93 -130 0
v -94 -130 0
v -94 -129 0
v -93 -129 0
v -79 -132 0
v -80 -132 0
v -80 -131 0
v -79 -131 0

# Texture cooridinates (Count = 21)
vt 0.6190476 0.75
vt 0.6428571 0.75
vt 0.6428571 0.8125
vt 0.6190476 0.8125
vt 0.9285714 0.4375
vt 0.952381 0.4375
vt 0.952381 0.5
vt 0.9285714 0.5
vt 0.9761904 0.4375
vt 0.9761904 0.5
vt 0.9285714 0.375
vt 0.952381 0.375
vt 0.9761904 0.375
vt 0.5238096 0.8125
vt 0.5238096 0.75
vt 0.547619 0.75
vt 0.547619 0.8125
vt 0.4761905 0.625
vt 0.5 0.625
vt 0.5 0.6875
vt 0.4761905 0.6875

# Normal
vn 0 0 -1

# Mesh description
g ScenarioPlataforma_mesh_0007

# Faces
f 1/1/1 2/2/1 3/3/1 4/4/1
f 5/1/1 6/2/1 7/3/1 8/4/1
f 9/1/1 10/2/1 11/3/1 12/4/1
f 13/5/1 14/6/1 15/7/1 16/8/1
f 17/6/1 18/9/1 19/10/1 20/7/1
f 21/5/1 22/6/1 23/7/1 24/8/1
f 25/6/1 26/9/1 27/10/1 28/7/1
f 29/5/1 30/6/1 31/7/1 32/8/1
f 33/6/1 34/9/1 35/10/1 36/7/1
f 37/5/1 38/6/1 39/7/1 40/8/1
f 41/6/1 42/9/1 43/10/1 44/7/1
f 45/5/1 46/6/1 47/7/1 48/8/1
f 49/6/1 50/9/1 51/10/1 52/7/1
f 53/5/1 54/6/1 55/7/1 56/8/1
f 57/6/1 58/9/1 59/10/1 60/7/1
f 61/11/1 62/12/1 63/6/1 64/5/1
f 65/12/1 66/13/1 67/9/1 68/6/1
f 69/11/1 70/12/1 71/6/1 72/5/1
f 73/12/1 74/13/1 75/9/1 76/6/1
f 77/11/1 78/12/1 79/6/1 80/5/1
f 81/12/1 82/13/1 83/9/1 84/6/1
f 85/11/1 86/12/1 87/6/1 88/5/1
f 89/12/1 90/13/1 91/9/1 92/6/1
f 93/11/1 94/12/1 95/6/1 96/5/1
f 97/12/1 98/13/1 99/9/1 100/6/1
f 101/11/1 102/12/1 103/6/1 104/5/1
f 105/12/1 106/13/1 107/9/1 108/6/1
f 109/14/1 110/15/1 111/16/1 112/17/1
f 113/16/1 114/17/1 115/14/1 116/15/1
f 117/18/1 118/19/1 119/20/1 120/21/1
f 121/14/1 122/15/1 123/16/1 124/17/1
f 125/16/1 126/17/1 127/14/1 128/15/1
f 129/1/1 130/2/1 131/3/1 132/4/1
f 133/1/1 134/2/1 135/3/1 136/4/1

