# Tiled2Unity generated file. Do not modify by hand.
# Wavefront file for 'ScenarioPlataforma_mesh_0004.obj'

# Vertices (Count = 388)
v -176 -79 0
v -177 -79 0
v -177 -78 0
v -176 -78 0
v -154 -80 0
v -155 -80 0
v -155 -79 0
v -154 -79 0
v -155 -80 0
v -156 -80 0
v -156 -79 0
v -155 -79 0
v -159 -80 0
v -160 -80 0
v -160 -79 0
v -159 -79 0
v -160 -80 0
v -161 -80 0
v -161 -79 0
v -160 -79 0
v -163 -80 0
v -164 -80 0
v -164 -79 0
v -163 -79 0
v -164 -80 0
v -165 -80 0
v -165 -79 0
v -164 -79 0
v -174 -80 0
v -175 -80 0
v -175 -79 0
v -174 -79 0
v -180 -80 0
v -181 -80 0
v -181 -79 0
v -180 -79 0
v -188 -80 0
v -189 -80 0
v -189 -79 0
v -188 -79 0
v -189 -80 0
v -190 -80 0
v -190 -79 0
v -189 -79 0
v -196 -80 0
v -197 -80 0
v -197 -79 0
v -196 -79 0
v -154 -81 0
v -155 -81 0
v -155 -80 0
v -154 -80 0
v -155 -81 0
v -156 -81 0
v -156 -80 0
v -155 -80 0
v -190 -99 0
v -191 -99 0
v -191 -98 0
v -190 -98 0
v -97 -100 0
v -98 -100 0
v -98 -99 0
v -97 -99 0
v -98 -100 0
v -99 -100 0
v -99 -99 0
v -98 -99 0
v -117 -100 0
v -118 -100 0
v -118 -99 0
v -117 -99 0
v -118 -100 0
v -119 -100 0
v -119 -99 0
v -118 -99 0
v -126 -100 0
v -127 -100 0
v -127 -99 0
v -126 -99 0
v -136 -100 0
v -137 -100 0
v -137 -99 0
v -136 -99 0
v -137 -100 0
v -138 -100 0
v -138 -99 0
v -137 -99 0
v -144 -100 0
v -145 -100 0
v -145 -99 0
v -144 -99 0
v -149 -100 0
v -150 -100 0
v -150 -99 0
v -149 -99 0
v -150 -100 0
v -151 -100 0
v -151 -99 0
v -150 -99 0
v -189 -100 0
v -190 -100 0
v -190 -99 0
v -189 -99 0
v -96 -107 0
v -97 -107 0
v -97 -106 0
v -96 -106 0
v -101 -107 0
v -102 -107 0
v -102 -106 0
v -101 -106 0
v -104 -107 0
v -105 -107 0
v -105 -106 0
v -104 -106 0
v -107 -107 0
v -108 -107 0
v -108 -106 0
v -107 -106 0
v -134 -108 0
v -135 -108 0
v -135 -107 0
v -134 -107 0
v -136 -108 0
v -137 -108 0
v -137 -107 0
v -136 -107 0
v -139 -108 0
v -140 -108 0
v -140 -107 0
v -139 -107 0
v -141 -108 0
v -142 -108 0
v -142 -107 0
v -141 -107 0
v -142 -108 0
v -143 -108 0
v -143 -107 0
v -142 -107 0
v -143 -108 0
v -144 -108 0
v -144 -107 0
v -143 -107 0
v -144 -108 0
v -145 -108 0
v -145 -107 0
v -144 -107 0
v -145 -108 0
v -146 -108 0
v -146 -107 0
v -145 -107 0
v -147 -108 0
v -148 -108 0
v -148 -107 0
v -147 -107 0
v -150 -108 0
v -151 -108 0
v -151 -107 0
v -150 -107 0
v -151 -110 0
v -152 -110 0
v -152 -109 0
v -151 -109 0
v -189 -110 0
v -190 -110 0
v -190 -109 0
v -189 -109 0
v -92 -111 0
v -93 -111 0
v -93 -110 0
v -92 -110 0
v -189 -111 0
v -190 -111 0
v -190 -110 0
v -189 -110 0
v -189 -112 0
v -190 -112 0
v -190 -111 0
v -189 -111 0
v -86 -114 0
v -87 -114 0
v -87 -113 0
v -86 -113 0
v -151 -116 0
v -152 -116 0
v -152 -115 0
v -151 -115 0
v -110 -118 0
v -111 -118 0
v -111 -117 0
v -110 -117 0
v -115 -118 0
v -116 -118 0
v -116 -117 0
v -115 -117 0
v -118 -118 0
v -119 -118 0
v -119 -117 0
v -118 -117 0
v -119 -118 0
v -120 -118 0
v -120 -117 0
v -119 -117 0
v -120 -118 0
v -121 -118 0
v -121 -117 0
v -120 -117 0
v -129 -118 0
v -130 -118 0
v -130 -117 0
v -129 -117 0
v -131 -118 0
v -132 -118 0
v -132 -117 0
v -131 -117 0
v -85 -119 0
v -86 -119 0
v -86 -118 0
v -85 -118 0
v -92 -121 0
v -93 -121 0
v -93 -120 0
v -92 -120 0
v -189 -121 0
v -190 -121 0
v -190 -120 0
v -189 -120 0
v -86 -123 0
v -87 -123 0
v -87 -122 0
v -86 -122 0
v -57 -126 0
v -58 -126 0
v -58 -125 0
v -57 -125 0
v -58 -126 0
v -59 -126 0
v -59 -125 0
v -58 -125 0
v -151 -126 0
v -152 -126 0
v -152 -125 0
v -151 -125 0
v -57 -127 0
v -58 -127 0
v -58 -126 0
v -57 -126 0
v -58 -127 0
v -59 -127 0
v -59 -126 0
v -58 -126 0
v -189 -129 0
v -190 -129 0
v -190 -128 0
v -189 -128 0
v -79 -132 0
v -80 -132 0
v -80 -131 0
v -79 -131 0
v -76 -133 0
v -77 -133 0
v -77 -132 0
v -76 -132 0
v -77 -133 0
v -78 -133 0
v -78 -132 0
v -77 -132 0
v -76 -134 0
v -77 -134 0
v -77 -133 0
v -76 -133 0
v -77 -134 0
v -78 -134 0
v -78 -133 0
v -77 -133 0
v -160 -135 0
v -161 -135 0
v -161 -134 0
v -160 -134 0
v -163 -135 0
v -164 -135 0
v -164 -134 0
v -163 -134 0
v -164 -135 0
v -165 -135 0
v -165 -134 0
v -164 -134 0
v -165 -135 0
v -166 -135 0
v -166 -134 0
v -165 -134 0
v -166 -135 0
v -167 -135 0
v -167 -134 0
v -166 -134 0
v -170 -135 0
v -171 -135 0
v -171 -134 0
v -170 -134 0
v -171 -135 0
v -172 -135 0
v -172 -134 0
v -171 -134 0
v -179 -135 0
v -180 -135 0
v -180 -134 0
v -179 -134 0
v -180 -135 0
v -181 -135 0
v -181 -134 0
v -180 -134 0
v -182 -135 0
v -183 -135 0
v -183 -134 0
v -182 -134 0
v -183 -135 0
v -184 -135 0
v -184 -134 0
v -183 -134 0
v -184 -135 0
v -185 -135 0
v -185 -134 0
v -184 -134 0
v -186 -135 0
v -187 -135 0
v -187 -134 0
v -186 -134 0
v -42 -136 0
v -43 -136 0
v -43 -135 0
v -42 -135 0
v -44 -136 0
v -45 -136 0
v -45 -135 0
v -44 -135 0
v -45 -136 0
v -46 -136 0
v -46 -135 0
v -45 -135 0
v -46 -136 0
v -47 -136 0
v -47 -135 0
v -46 -135 0
v -47 -136 0
v -48 -136 0
v -48 -135 0
v -47 -135 0
v -59 -136 0
v -60 -136 0
v -60 -135 0
v -59 -135 0
v -64 -136 0
v -65 -136 0
v -65 -135 0
v -64 -135 0
v -74 -136 0
v -75 -136 0
v -75 -135 0
v -74 -135 0
v -84 -136 0
v -85 -136 0
v -85 -135 0
v -84 -135 0
v -90 -136 0
v -91 -136 0
v -91 -135 0
v -90 -135 0
v -14 -139 0
v -15 -139 0
v -15 -138 0
v -14 -138 0
v -26 -139 0
v -27 -139 0
v -27 -138 0
v -26 -138 0
v -28 -139 0
v -29 -139 0
v -29 -138 0
v -28 -138 0
v -29 -139 0
v -30 -139 0
v -30 -138 0
v -29 -138 0
v -33 -139 0
v -34 -139 0
v -34 -138 0
v -33 -138 0

# Texture cooridinates (Count = 48)
vt 0.6190476 0.75
vt 0.6428571 0.75
vt 0.6428571 0.8125
vt 0.6190476 0.8125
vt 0.7619048 0.8125
vt 0.7857143 0.8125
vt 0.7857143 0.875
vt 0.7619048 0.875
vt 0.8095238 0.8125
vt 0.8095238 0.875
vt 0.5238096 0.5
vt 0.547619 0.5
vt 0.547619 0.5625
vt 0.5238096 0.5625
vt 0.5714286 0.5
vt 0.5714286 0.5625
vt 0.8333333 0.8125
vt 0.8571429 0.8125
vt 0.8571429 0.875
vt 0.8333333 0.875
vt 0.7619048 0.75
vt 0.7857143 0.75
vt 0.8095238 0.75
vt 0.4761905 0.875
vt 0.4761905 0.8125
vt 0.5 0.8125
vt 0.5 0.875
vt 0.5714286 0.8125
vt 0.5952381 0.8125
vt 0.5952381 0.875
vt 0.5714286 0.875
vt 0.5238096 0.8125
vt 0.547619 0.8125
vt 0.547619 0.875
vt 0.5238096 0.875
vt 0.0952381 0.1875
vt 0.1190476 0.1875
vt 0.1190476 0.25
vt 0.0952381 0.25
vt 0.1428571 0.1875
vt 0.1428571 0.25
vt 0.4761905 0.625
vt 0.5 0.625
vt 0.5 0.6875
vt 0.4761905 0.6875
vt 0.5238096 0.4375
vt 0.547619 0.4375
vt 0.5714286 0.4375

# Normal
vn 0 0 -1

# Mesh description
g ScenarioPlataforma_mesh_0004

# Faces
f 1/1/1 2/2/1 3/3/1 4/4/1
f 5/5/1 6/6/1 7/7/1 8/8/1
f 9/6/1 10/9/1 11/10/1 12/7/1
f 13/11/1 14/12/1 15/13/1 16/14/1
f 17/12/1 18/15/1 19/16/1 20/13/1
f 21/17/1 22/18/1 23/19/1 24/20/1
f 25/17/1 26/18/1 27/19/1 28/20/1
f 29/17/1 30/18/1 31/19/1 32/20/1
f 33/17/1 34/18/1 35/19/1 36/20/1
f 37/11/1 38/12/1 39/13/1 40/14/1
f 41/12/1 42/15/1 43/16/1 44/13/1
f 45/17/1 46/18/1 47/19/1 48/20/1
f 49/21/1 50/22/1 51/6/1 52/5/1
f 53/22/1 54/23/1 55/9/1 56/6/1
f 57/24/1 58/25/1 59/26/1 60/27/1
f 61/11/1 62/12/1 63/13/1 64/14/1
f 65/12/1 66/15/1 67/16/1 68/13/1
f 69/11/1 70/12/1 71/13/1 72/14/1
f 73/12/1 74/15/1 75/16/1 76/13/1
f 77/17/1 78/18/1 79/19/1 80/20/1
f 81/11/1 82/12/1 83/13/1 84/14/1
f 85/12/1 86/15/1 87/16/1 88/13/1
f 89/17/1 90/18/1 91/19/1 92/20/1
f 93/11/1 94/12/1 95/13/1 96/14/1
f 97/12/1 98/15/1 99/16/1 100/13/1
f 101/24/1 102/25/1 103/26/1 104/27/1
f 105/28/1 106/29/1 107/30/1 108/31/1
f 109/25/1 110/26/1 111/27/1 112/24/1
f 113/32/1 114/33/1 115/34/1 116/35/1
f 117/25/1 118/26/1 119/27/1 120/24/1
f 121/28/1 122/29/1 123/30/1 124/31/1
f 125/36/1 126/37/1 127/38/1 128/39/1
f 129/36/1 130/37/1 131/38/1 132/39/1
f 133/37/1 134/40/1 135/41/1 136/38/1
f 137/28/1 138/29/1 139/30/1 140/31/1
f 141/37/1 142/40/1 143/41/1 144/38/1
f 145/37/1 146/40/1 147/41/1 148/38/1
f 149/37/1 150/40/1 151/41/1 152/38/1
f 153/28/1 154/29/1 155/30/1 156/31/1
f 157/36/1 158/37/1 159/38/1 160/39/1
f 161/26/1 162/27/1 163/24/1 164/25/1
f 165/24/1 166/25/1 167/26/1 168/27/1
f 169/24/1 170/25/1 171/26/1 172/27/1
f 173/24/1 174/25/1 175/26/1 176/27/1
f 177/24/1 178/25/1 179/26/1 180/27/1
f 181/26/1 182/27/1 183/24/1 184/25/1
f 185/26/1 186/27/1 187/24/1 188/25/1
f 189/25/1 190/26/1 191/27/1 192/24/1
f 193/32/1 194/33/1 195/34/1 196/35/1
f 197/25/1 198/26/1 199/27/1 200/24/1
f 201/25/1 202/26/1 203/27/1 204/24/1
f 205/25/1 206/26/1 207/27/1 208/24/1
f 209/28/1 210/29/1 211/30/1 212/31/1
f 213/25/1 214/26/1 215/27/1 216/24/1
f 217/42/1 218/43/1 219/44/1 220/45/1
f 221/24/1 222/25/1 223/26/1 224/27/1
f 225/24/1 226/25/1 227/26/1 228/27/1
f 229/26/1 230/27/1 231/24/1 232/25/1
f 233/11/1 234/12/1 235/13/1 236/14/1
f 237/12/1 238/15/1 239/16/1 240/13/1
f 241/26/1 242/27/1 243/24/1 244/25/1
f 245/46/1 246/47/1 247/12/1 248/11/1
f 249/47/1 250/48/1 251/15/1 252/12/1
f 253/24/1 254/25/1 255/26/1 256/27/1
f 257/1/1 258/2/1 259/3/1 260/4/1
f 261/11/1 262/12/1 263/13/1 264/14/1
f 265/12/1 266/15/1 267/16/1 268/13/1
f 269/46/1 270/47/1 271/12/1 272/11/1
f 273/47/1 274/48/1 275/15/1 276/12/1
f 277/36/1 278/37/1 279/38/1 280/39/1
f 281/37/1 282/40/1 283/41/1 284/38/1
f 285/37/1 286/40/1 287/41/1 288/38/1
f 289/28/1 290/29/1 291/30/1 292/31/1
f 293/37/1 294/40/1 295/41/1 296/38/1
f 297/37/1 298/40/1 299/41/1 300/38/1
f 301/32/1 302/33/1 303/34/1 304/35/1
f 305/36/1 306/37/1 307/38/1 308/39/1
f 309/37/1 310/40/1 311/41/1 312/38/1
f 313/32/1 314/33/1 315/34/1 316/35/1
f 317/37/1 318/40/1 319/41/1 320/38/1
f 321/37/1 322/40/1 323/41/1 324/38/1
f 325/36/1 326/37/1 327/38/1 328/39/1
f 329/36/1 330/37/1 331/38/1 332/39/1
f 333/37/1 334/40/1 335/41/1 336/38/1
f 337/37/1 338/40/1 339/41/1 340/38/1
f 341/37/1 342/40/1 343/41/1 344/38/1
f 345/37/1 346/40/1 347/41/1 348/38/1
f 349/32/1 350/33/1 351/34/1 352/35/1
f 353/28/1 354/29/1 355/30/1 356/31/1
f 357/25/1 358/26/1 359/27/1 360/24/1
f 361/25/1 362/26/1 363/27/1 364/24/1
f 365/28/1 366/29/1 367/30/1 368/31/1
f 369/36/1 370/37/1 371/38/1 372/39/1
f 373/37/1 374/40/1 375/41/1 376/38/1
f 377/32/1 378/33/1 379/34/1 380/35/1
f 381/37/1 382/40/1 383/41/1 384/38/1
f 385/37/1 386/40/1 387/41/1 388/38/1

