# Tiled2Unity generated file. Do not modify by hand.
# Wavefront file for '2ScenarioPlataforma_mesh_0326.obj'

# Vertices (Count = 12)
v -32 -48 0
v -48 -48 0
v -48 -32 0
v -32 -32 0
v -64 -48 0
v -80 -48 0
v -80 -32 0
v -64 -32 0
v -32 -64 0
v -48 -64 0
v -48 -48 0
v -32 -48 0

# Texture cooridinates (Count = 8)
vt 0.4042553 0.6875
vt 0.4148936 0.6875
vt 0.4148936 0.75
vt 0.4042553 0.75
vt 0.3723404 0.6875
vt 0.3829787 0.6875
vt 0.3829787 0.75
vt 0.3723404 0.75

# Normal
vn 0 0 -1

# Mesh description
g 2ScenarioPlataforma_mesh_0326

# Faces
f 1/1/1 2/2/1 3/3/1 4/4/1
f 5/5/1 6/6/1 7/7/1 8/8/1
f 9/1/1 10/2/1 11/3/1 12/4/1

