# Tiled2Unity generated file. Do not modify by hand.
# Wavefront file for '2ScenarioPlataforma_mesh_0594.obj'

# Vertices (Count = 140)
v -192 -32 0
v -208 -32 0
v -208 -16 0
v -192 -16 0
v -208 -32 0
v -224 -32 0
v -224 -16 0
v -208 -16 0
v -224 -32 0
v -240 -32 0
v -240 -16 0
v -224 -16 0
v -240 -32 0
v -256 -32 0
v -256 -16 0
v -240 -16 0
v -16 -48 0
v -32 -48 0
v -32 -32 0
v -16 -32 0
v -32 -48 0
v -48 -48 0
v -48 -32 0
v -32 -32 0
v -48 -48 0
v -64 -48 0
v -64 -32 0
v -48 -32 0
v -64 -48 0
v -80 -48 0
v -80 -32 0
v -64 -32 0
v -112 -64 0
v -128 -64 0
v -128 -48 0
v -112 -48 0
v -176 -64 0
v -192 -64 0
v -192 -48 0
v -176 -48 0
v -112 -80 0
v -128 -80 0
v -128 -64 0
v -112 -64 0
v -176 -80 0
v -192 -80 0
v -192 -64 0
v -176 -64 0
v -112 -96 0
v -128 -96 0
v -128 -80 0
v -112 -80 0
v -176 -96 0
v -192 -96 0
v -192 -80 0
v -176 -80 0
v -112 -112 0
v -128 -112 0
v -128 -96 0
v -112 -96 0
v -176 -112 0
v -192 -112 0
v -192 -96 0
v -176 -96 0
v -112 -128 0
v -128 -128 0
v -128 -112 0
v -112 -112 0
v -176 -128 0
v -192 -128 0
v -192 -112 0
v -176 -112 0
v -112 -144 0
v -128 -144 0
v -128 -128 0
v -112 -128 0
v -176 -144 0
v -192 -144 0
v -192 -128 0
v -176 -128 0
v -112 -160 0
v -128 -160 0
v -128 -144 0
v -112 -144 0
v -176 -160 0
v -192 -160 0
v -192 -144 0
v -176 -144 0
v -112 -176 0
v -128 -176 0
v -128 -160 0
v -112 -160 0
v -176 -176 0
v -192 -176 0
v -192 -160 0
v -176 -160 0
v -112 -192 0
v -128 -192 0
v -128 -176 0
v -112 -176 0
v -176 -192 0
v -192 -192 0
v -192 -176 0
v -176 -176 0
v -112 -208 0
v -128 -208 0
v -128 -192 0
v -112 -192 0
v -176 -208 0
v -192 -208 0
v -192 -192 0
v -176 -192 0
v -112 -224 0
v -128 -224 0
v -128 -208 0
v -112 -208 0
v -192 -224 0
v -208 -224 0
v -208 -208 0
v -192 -208 0
v -112 -240 0
v -128 -240 0
v -128 -224 0
v -112 -224 0
v -192 -240 0
v -208 -240 0
v -208 -224 0
v -192 -224 0
v -112 -256 0
v -128 -256 0
v -128 -240 0
v -112 -240 0
v -192 -256 0
v -208 -256 0
v -208 -240 0
v -192 -240 0
v -208 -256 0
v -224 -256 0
v -224 -240 0
v -208 -240 0

# Texture cooridinates (Count = 26)
vt 0.4761905 0.8125
vt 0.5 0.8125
vt 0.5 0.875
vt 0.4761905 0.875
vt 0.5714286 0.8125
vt 0.5952381 0.8125
vt 0.5952381 0.875
vt 0.5714286 0.875
vt 0.0952381 0.1875
vt 0.1190476 0.1875
vt 0.1190476 0.25
vt 0.0952381 0.25
vt 0.5238096 0.25
vt 0.547619 0.25
vt 0.547619 0.3125
vt 0.5238096 0.3125
vt 0.4761905 0.25
vt 0.5 0.25
vt 0.5 0.3125
vt 0.4761905 0.3125
vt 0.1428571 0.1875
vt 0.1428571 0.25
vt 0.5238096 0.875
vt 0.5238096 0.8125
vt 0.547619 0.8125
vt 0.547619 0.875

# Normal
vn 0 0 -1

# Mesh description
g 2ScenarioPlataforma_mesh_0594

# Faces
f 1/1/1 2/2/1 3/3/1 4/4/1
f 5/5/1 6/6/1 7/7/1 8/8/1
f 9/9/1 10/10/1 11/11/1 12/12/1
f 13/13/1 14/14/1 15/15/1 16/16/1
f 17/17/1 18/18/1 19/19/1 20/20/1
f 21/10/1 22/21/1 23/22/1 24/11/1
f 25/5/1 26/6/1 27/7/1 28/8/1
f 29/10/1 30/21/1 31/22/1 32/11/1
f 33/14/1 34/15/1 35/16/1 36/13/1
f 37/20/1 38/17/1 39/18/1 40/19/1
f 41/18/1 42/19/1 43/20/1 44/17/1
f 45/20/1 46/17/1 47/18/1 48/19/1
f 49/18/1 50/19/1 51/20/1 52/17/1
f 53/11/1 54/10/1 55/21/1 56/22/1
f 57/14/1 58/15/1 59/16/1 60/13/1
f 61/23/1 62/24/1 63/25/1 64/26/1
f 65/14/1 66/15/1 67/16/1 68/13/1
f 69/16/1 70/13/1 71/14/1 72/15/1
f 73/14/1 74/15/1 75/16/1 76/13/1
f 77/4/1 78/1/1 79/2/1 80/3/1
f 81/25/1 82/26/1 83/23/1 84/24/1
f 85/12/1 86/9/1 87/10/1 88/11/1
f 89/6/1 90/7/1 91/8/1 92/5/1
f 93/16/1 94/13/1 95/14/1 96/15/1
f 97/25/1 98/26/1 99/23/1 100/24/1
f 101/11/1 102/10/1 103/21/1 104/22/1
f 105/14/1 106/15/1 107/16/1 108/13/1
f 109/16/1 110/13/1 111/14/1 112/15/1
f 113/14/1 114/15/1 115/16/1 116/13/1
f 117/4/1 118/1/1 119/2/1 120/3/1
f 121/25/1 122/26/1 123/23/1 124/24/1
f 125/20/1 126/17/1 127/18/1 128/19/1
f 129/18/1 130/19/1 131/20/1 132/17/1
f 133/8/1 134/5/1 135/6/1 136/7/1
f 137/4/1 138/1/1 139/2/1 140/3/1

