# Tiled2Unity generated file. Do not modify by hand.
# Wavefront file for '2ScenarioPlataforma_mesh_0335.obj'

# Vertices (Count = 1024)
v 0 -16 0
v -16 -16 0
v -16 0 0
v 0 0 0
v -16 -16 0
v -32 -16 0
v -32 0 0
v -16 0 0
v -32 -16 0
v -48 -16 0
v -48 0 0
v -32 0 0
v -48 -16 0
v -64 -16 0
v -64 0 0
v -48 0 0
v -64 -16 0
v -80 -16 0
v -80 0 0
v -64 0 0
v -80 -16 0
v -96 -16 0
v -96 0 0
v -80 0 0
v -96 -16 0
v -112 -16 0
v -112 0 0
v -96 0 0
v -112 -16 0
v -128 -16 0
v -128 0 0
v -112 0 0
v -128 -16 0
v -144 -16 0
v -144 0 0
v -128 0 0
v -144 -16 0
v -160 -16 0
v -160 0 0
v -144 0 0
v -160 -16 0
v -176 -16 0
v -176 0 0
v -160 0 0
v -176 -16 0
v -192 -16 0
v -192 0 0
v -176 0 0
v -192 -16 0
v -208 -16 0
v -208 0 0
v -192 0 0
v -208 -16 0
v -224 -16 0
v -224 0 0
v -208 0 0
v -224 -16 0
v -240 -16 0
v -240 0 0
v -224 0 0
v -240 -16 0
v -256 -16 0
v -256 0 0
v -240 0 0
v 0 -32 0
v -16 -32 0
v -16 -16 0
v 0 -16 0
v -16 -32 0
v -32 -32 0
v -32 -16 0
v -16 -16 0
v -32 -32 0
v -48 -32 0
v -48 -16 0
v -32 -16 0
v -48 -32 0
v -64 -32 0
v -64 -16 0
v -48 -16 0
v -64 -32 0
v -80 -32 0
v -80 -16 0
v -64 -16 0
v -80 -32 0
v -96 -32 0
v -96 -16 0
v -80 -16 0
v -96 -32 0
v -112 -32 0
v -112 -16 0
v -96 -16 0
v -112 -32 0
v -128 -32 0
v -128 -16 0
v -112 -16 0
v -128 -32 0
v -144 -32 0
v -144 -16 0
v -128 -16 0
v -144 -32 0
v -160 -32 0
v -160 -16 0
v -144 -16 0
v -160 -32 0
v -176 -32 0
v -176 -16 0
v -160 -16 0
v -176 -32 0
v -192 -32 0
v -192 -16 0
v -176 -16 0
v -192 -32 0
v -208 -32 0
v -208 -16 0
v -192 -16 0
v -208 -32 0
v -224 -32 0
v -224 -16 0
v -208 -16 0
v -224 -32 0
v -240 -32 0
v -240 -16 0
v -224 -16 0
v -240 -32 0
v -256 -32 0
v -256 -16 0
v -240 -16 0
v 0 -48 0
v -16 -48 0
v -16 -32 0
v 0 -32 0
v -16 -48 0
v -32 -48 0
v -32 -32 0
v -16 -32 0
v -32 -48 0
v -48 -48 0
v -48 -32 0
v -32 -32 0
v -48 -48 0
v -64 -48 0
v -64 -32 0
v -48 -32 0
v -64 -48 0
v -80 -48 0
v -80 -32 0
v -64 -32 0
v -80 -48 0
v -96 -48 0
v -96 -32 0
v -80 -32 0
v -96 -48 0
v -112 -48 0
v -112 -32 0
v -96 -32 0
v -112 -48 0
v -128 -48 0
v -128 -32 0
v -112 -32 0
v -128 -48 0
v -144 -48 0
v -144 -32 0
v -128 -32 0
v -144 -48 0
v -160 -48 0
v -160 -32 0
v -144 -32 0
v -160 -48 0
v -176 -48 0
v -176 -32 0
v -160 -32 0
v -176 -48 0
v -192 -48 0
v -192 -32 0
v -176 -32 0
v -192 -48 0
v -208 -48 0
v -208 -32 0
v -192 -32 0
v -208 -48 0
v -224 -48 0
v -224 -32 0
v -208 -32 0
v -224 -48 0
v -240 -48 0
v -240 -32 0
v -224 -32 0
v -240 -48 0
v -256 -48 0
v -256 -32 0
v -240 -32 0
v 0 -64 0
v -16 -64 0
v -16 -48 0
v 0 -48 0
v -16 -64 0
v -32 -64 0
v -32 -48 0
v -16 -48 0
v -32 -64 0
v -48 -64 0
v -48 -48 0
v -32 -48 0
v -48 -64 0
v -64 -64 0
v -64 -48 0
v -48 -48 0
v -64 -64 0
v -80 -64 0
v -80 -48 0
v -64 -48 0
v -80 -64 0
v -96 -64 0
v -96 -48 0
v -80 -48 0
v -96 -64 0
v -112 -64 0
v -112 -48 0
v -96 -48 0
v -112 -64 0
v -128 -64 0
v -128 -48 0
v -112 -48 0
v -128 -64 0
v -144 -64 0
v -144 -48 0
v -128 -48 0
v -144 -64 0
v -160 -64 0
v -160 -48 0
v -144 -48 0
v -160 -64 0
v -176 -64 0
v -176 -48 0
v -160 -48 0
v -176 -64 0
v -192 -64 0
v -192 -48 0
v -176 -48 0
v -192 -64 0
v -208 -64 0
v -208 -48 0
v -192 -48 0
v -208 -64 0
v -224 -64 0
v -224 -48 0
v -208 -48 0
v -224 -64 0
v -240 -64 0
v -240 -48 0
v -224 -48 0
v -240 -64 0
v -256 -64 0
v -256 -48 0
v -240 -48 0
v 0 -80 0
v -16 -80 0
v -16 -64 0
v 0 -64 0
v -16 -80 0
v -32 -80 0
v -32 -64 0
v -16 -64 0
v -32 -80 0
v -48 -80 0
v -48 -64 0
v -32 -64 0
v -48 -80 0
v -64 -80 0
v -64 -64 0
v -48 -64 0
v -64 -80 0
v -80 -80 0
v -80 -64 0
v -64 -64 0
v -80 -80 0
v -96 -80 0
v -96 -64 0
v -80 -64 0
v -96 -80 0
v -112 -80 0
v -112 -64 0
v -96 -64 0
v -112 -80 0
v -128 -80 0
v -128 -64 0
v -112 -64 0
v -128 -80 0
v -144 -80 0
v -144 -64 0
v -128 -64 0
v -144 -80 0
v -160 -80 0
v -160 -64 0
v -144 -64 0
v -160 -80 0
v -176 -80 0
v -176 -64 0
v -160 -64 0
v -176 -80 0
v -192 -80 0
v -192 -64 0
v -176 -64 0
v -192 -80 0
v -208 -80 0
v -208 -64 0
v -192 -64 0
v -208 -80 0
v -224 -80 0
v -224 -64 0
v -208 -64 0
v -224 -80 0
v -240 -80 0
v -240 -64 0
v -224 -64 0
v -240 -80 0
v -256 -80 0
v -256 -64 0
v -240 -64 0
v 0 -96 0
v -16 -96 0
v -16 -80 0
v 0 -80 0
v -16 -96 0
v -32 -96 0
v -32 -80 0
v -16 -80 0
v -32 -96 0
v -48 -96 0
v -48 -80 0
v -32 -80 0
v -48 -96 0
v -64 -96 0
v -64 -80 0
v -48 -80 0
v -64 -96 0
v -80 -96 0
v -80 -80 0
v -64 -80 0
v -80 -96 0
v -96 -96 0
v -96 -80 0
v -80 -80 0
v -96 -96 0
v -112 -96 0
v -112 -80 0
v -96 -80 0
v -112 -96 0
v -128 -96 0
v -128 -80 0
v -112 -80 0
v -128 -96 0
v -144 -96 0
v -144 -80 0
v -128 -80 0
v -144 -96 0
v -160 -96 0
v -160 -80 0
v -144 -80 0
v -160 -96 0
v -176 -96 0
v -176 -80 0
v -160 -80 0
v -176 -96 0
v -192 -96 0
v -192 -80 0
v -176 -80 0
v -192 -96 0
v -208 -96 0
v -208 -80 0
v -192 -80 0
v -208 -96 0
v -224 -96 0
v -224 -80 0
v -208 -80 0
v -224 -96 0
v -240 -96 0
v -240 -80 0
v -224 -80 0
v -240 -96 0
v -256 -96 0
v -256 -80 0
v -240 -80 0
v 0 -112 0
v -16 -112 0
v -16 -96 0
v 0 -96 0
v -16 -112 0
v -32 -112 0
v -32 -96 0
v -16 -96 0
v -32 -112 0
v -48 -112 0
v -48 -96 0
v -32 -96 0
v -48 -112 0
v -64 -112 0
v -64 -96 0
v -48 -96 0
v -64 -112 0
v -80 -112 0
v -80 -96 0
v -64 -96 0
v -80 -112 0
v -96 -112 0
v -96 -96 0
v -80 -96 0
v -96 -112 0
v -112 -112 0
v -112 -96 0
v -96 -96 0
v -112 -112 0
v -128 -112 0
v -128 -96 0
v -112 -96 0
v -128 -112 0
v -144 -112 0
v -144 -96 0
v -128 -96 0
v -144 -112 0
v -160 -112 0
v -160 -96 0
v -144 -96 0
v -160 -112 0
v -176 -112 0
v -176 -96 0
v -160 -96 0
v -176 -112 0
v -192 -112 0
v -192 -96 0
v -176 -96 0
v -192 -112 0
v -208 -112 0
v -208 -96 0
v -192 -96 0
v -208 -112 0
v -224 -112 0
v -224 -96 0
v -208 -96 0
v -224 -112 0
v -240 -112 0
v -240 -96 0
v -224 -96 0
v -240 -112 0
v -256 -112 0
v -256 -96 0
v -240 -96 0
v 0 -128 0
v -16 -128 0
v -16 -112 0
v 0 -112 0
v -16 -128 0
v -32 -128 0
v -32 -112 0
v -16 -112 0
v -32 -128 0
v -48 -128 0
v -48 -112 0
v -32 -112 0
v -48 -128 0
v -64 -128 0
v -64 -112 0
v -48 -112 0
v -64 -128 0
v -80 -128 0
v -80 -112 0
v -64 -112 0
v -80 -128 0
v -96 -128 0
v -96 -112 0
v -80 -112 0
v -96 -128 0
v -112 -128 0
v -112 -112 0
v -96 -112 0
v -112 -128 0
v -128 -128 0
v -128 -112 0
v -112 -112 0
v -128 -128 0
v -144 -128 0
v -144 -112 0
v -128 -112 0
v -144 -128 0
v -160 -128 0
v -160 -112 0
v -144 -112 0
v -160 -128 0
v -176 -128 0
v -176 -112 0
v -160 -112 0
v -176 -128 0
v -192 -128 0
v -192 -112 0
v -176 -112 0
v -192 -128 0
v -208 -128 0
v -208 -112 0
v -192 -112 0
v -208 -128 0
v -224 -128 0
v -224 -112 0
v -208 -112 0
v -224 -128 0
v -240 -128 0
v -240 -112 0
v -224 -112 0
v -240 -128 0
v -256 -128 0
v -256 -112 0
v -240 -112 0
v 0 -144 0
v -16 -144 0
v -16 -128 0
v 0 -128 0
v -16 -144 0
v -32 -144 0
v -32 -128 0
v -16 -128 0
v -32 -144 0
v -48 -144 0
v -48 -128 0
v -32 -128 0
v -48 -144 0
v -64 -144 0
v -64 -128 0
v -48 -128 0
v -64 -144 0
v -80 -144 0
v -80 -128 0
v -64 -128 0
v -80 -144 0
v -96 -144 0
v -96 -128 0
v -80 -128 0
v -96 -144 0
v -112 -144 0
v -112 -128 0
v -96 -128 0
v -112 -144 0
v -128 -144 0
v -128 -128 0
v -112 -128 0
v -128 -144 0
v -144 -144 0
v -144 -128 0
v -128 -128 0
v -144 -144 0
v -160 -144 0
v -160 -128 0
v -144 -128 0
v -160 -144 0
v -176 -144 0
v -176 -128 0
v -160 -128 0
v -176 -144 0
v -192 -144 0
v -192 -128 0
v -176 -128 0
v -192 -144 0
v -208 -144 0
v -208 -128 0
v -192 -128 0
v -208 -144 0
v -224 -144 0
v -224 -128 0
v -208 -128 0
v -224 -144 0
v -240 -144 0
v -240 -128 0
v -224 -128 0
v -240 -144 0
v -256 -144 0
v -256 -128 0
v -240 -128 0
v 0 -160 0
v -16 -160 0
v -16 -144 0
v 0 -144 0
v -16 -160 0
v -32 -160 0
v -32 -144 0
v -16 -144 0
v -32 -160 0
v -48 -160 0
v -48 -144 0
v -32 -144 0
v -48 -160 0
v -64 -160 0
v -64 -144 0
v -48 -144 0
v -64 -160 0
v -80 -160 0
v -80 -144 0
v -64 -144 0
v -80 -160 0
v -96 -160 0
v -96 -144 0
v -80 -144 0
v -96 -160 0
v -112 -160 0
v -112 -144 0
v -96 -144 0
v -112 -160 0
v -128 -160 0
v -128 -144 0
v -112 -144 0
v -128 -160 0
v -144 -160 0
v -144 -144 0
v -128 -144 0
v -144 -160 0
v -160 -160 0
v -160 -144 0
v -144 -144 0
v -160 -160 0
v -176 -160 0
v -176 -144 0
v -160 -144 0
v -176 -160 0
v -192 -160 0
v -192 -144 0
v -176 -144 0
v -192 -160 0
v -208 -160 0
v -208 -144 0
v -192 -144 0
v -208 -160 0
v -224 -160 0
v -224 -144 0
v -208 -144 0
v -224 -160 0
v -240 -160 0
v -240 -144 0
v -224 -144 0
v -240 -160 0
v -256 -160 0
v -256 -144 0
v -240 -144 0
v 0 -176 0
v -16 -176 0
v -16 -160 0
v 0 -160 0
v -16 -176 0
v -32 -176 0
v -32 -160 0
v -16 -160 0
v -32 -176 0
v -48 -176 0
v -48 -160 0
v -32 -160 0
v -48 -176 0
v -64 -176 0
v -64 -160 0
v -48 -160 0
v -64 -176 0
v -80 -176 0
v -80 -160 0
v -64 -160 0
v -80 -176 0
v -96 -176 0
v -96 -160 0
v -80 -160 0
v -96 -176 0
v -112 -176 0
v -112 -160 0
v -96 -160 0
v -112 -176 0
v -128 -176 0
v -128 -160 0
v -112 -160 0
v -128 -176 0
v -144 -176 0
v -144 -160 0
v -128 -160 0
v -144 -176 0
v -160 -176 0
v -160 -160 0
v -144 -160 0
v -160 -176 0
v -176 -176 0
v -176 -160 0
v -160 -160 0
v -176 -176 0
v -192 -176 0
v -192 -160 0
v -176 -160 0
v -192 -176 0
v -208 -176 0
v -208 -160 0
v -192 -160 0
v -208 -176 0
v -224 -176 0
v -224 -160 0
v -208 -160 0
v -224 -176 0
v -240 -176 0
v -240 -160 0
v -224 -160 0
v -240 -176 0
v -256 -176 0
v -256 -160 0
v -240 -160 0
v 0 -192 0
v -16 -192 0
v -16 -176 0
v 0 -176 0
v -16 -192 0
v -32 -192 0
v -32 -176 0
v -16 -176 0
v -32 -192 0
v -48 -192 0
v -48 -176 0
v -32 -176 0
v -48 -192 0
v -64 -192 0
v -64 -176 0
v -48 -176 0
v -64 -192 0
v -80 -192 0
v -80 -176 0
v -64 -176 0
v -80 -192 0
v -96 -192 0
v -96 -176 0
v -80 -176 0
v -96 -192 0
v -112 -192 0
v -112 -176 0
v -96 -176 0
v -112 -192 0
v -128 -192 0
v -128 -176 0
v -112 -176 0
v -128 -192 0
v -144 -192 0
v -144 -176 0
v -128 -176 0
v -144 -192 0
v -160 -192 0
v -160 -176 0
v -144 -176 0
v -160 -192 0
v -176 -192 0
v -176 -176 0
v -160 -176 0
v -176 -192 0
v -192 -192 0
v -192 -176 0
v -176 -176 0
v -192 -192 0
v -208 -192 0
v -208 -176 0
v -192 -176 0
v -208 -192 0
v -224 -192 0
v -224 -176 0
v -208 -176 0
v -224 -192 0
v -240 -192 0
v -240 -176 0
v -224 -176 0
v -240 -192 0
v -256 -192 0
v -256 -176 0
v -240 -176 0
v 0 -208 0
v -16 -208 0
v -16 -192 0
v 0 -192 0
v -16 -208 0
v -32 -208 0
v -32 -192 0
v -16 -192 0
v -32 -208 0
v -48 -208 0
v -48 -192 0
v -32 -192 0
v -48 -208 0
v -64 -208 0
v -64 -192 0
v -48 -192 0
v -64 -208 0
v -80 -208 0
v -80 -192 0
v -64 -192 0
v -80 -208 0
v -96 -208 0
v -96 -192 0
v -80 -192 0
v -96 -208 0
v -112 -208 0
v -112 -192 0
v -96 -192 0
v -112 -208 0
v -128 -208 0
v -128 -192 0
v -112 -192 0
v -128 -208 0
v -144 -208 0
v -144 -192 0
v -128 -192 0
v -144 -208 0
v -160 -208 0
v -160 -192 0
v -144 -192 0
v -160 -208 0
v -176 -208 0
v -176 -192 0
v -160 -192 0
v -176 -208 0
v -192 -208 0
v -192 -192 0
v -176 -192 0
v -192 -208 0
v -208 -208 0
v -208 -192 0
v -192 -192 0
v -208 -208 0
v -224 -208 0
v -224 -192 0
v -208 -192 0
v -224 -208 0
v -240 -208 0
v -240 -192 0
v -224 -192 0
v -240 -208 0
v -256 -208 0
v -256 -192 0
v -240 -192 0
v 0 -224 0
v -16 -224 0
v -16 -208 0
v 0 -208 0
v -16 -224 0
v -32 -224 0
v -32 -208 0
v -16 -208 0
v -32 -224 0
v -48 -224 0
v -48 -208 0
v -32 -208 0
v -48 -224 0
v -64 -224 0
v -64 -208 0
v -48 -208 0
v -64 -224 0
v -80 -224 0
v -80 -208 0
v -64 -208 0
v -80 -224 0
v -96 -224 0
v -96 -208 0
v -80 -208 0
v -96 -224 0
v -112 -224 0
v -112 -208 0
v -96 -208 0
v -112 -224 0
v -128 -224 0
v -128 -208 0
v -112 -208 0
v -128 -224 0
v -144 -224 0
v -144 -208 0
v -128 -208 0
v -144 -224 0
v -160 -224 0
v -160 -208 0
v -144 -208 0
v -160 -224 0
v -176 -224 0
v -176 -208 0
v -160 -208 0
v -176 -224 0
v -192 -224 0
v -192 -208 0
v -176 -208 0
v -192 -224 0
v -208 -224 0
v -208 -208 0
v -192 -208 0
v -208 -224 0
v -224 -224 0
v -224 -208 0
v -208 -208 0
v -224 -224 0
v -240 -224 0
v -240 -208 0
v -224 -208 0
v -240 -224 0
v -256 -224 0
v -256 -208 0
v -240 -208 0
v 0 -240 0
v -16 -240 0
v -16 -224 0
v 0 -224 0
v -16 -240 0
v -32 -240 0
v -32 -224 0
v -16 -224 0
v -32 -240 0
v -48 -240 0
v -48 -224 0
v -32 -224 0
v -48 -240 0
v -64 -240 0
v -64 -224 0
v -48 -224 0
v -64 -240 0
v -80 -240 0
v -80 -224 0
v -64 -224 0
v -80 -240 0
v -96 -240 0
v -96 -224 0
v -80 -224 0
v -96 -240 0
v -112 -240 0
v -112 -224 0
v -96 -224 0
v -112 -240 0
v -128 -240 0
v -128 -224 0
v -112 -224 0
v -128 -240 0
v -144 -240 0
v -144 -224 0
v -128 -224 0
v -144 -240 0
v -160 -240 0
v -160 -224 0
v -144 -224 0
v -160 -240 0
v -176 -240 0
v -176 -224 0
v -160 -224 0
v -176 -240 0
v -192 -240 0
v -192 -224 0
v -176 -224 0
v -192 -240 0
v -208 -240 0
v -208 -224 0
v -192 -224 0
v -208 -240 0
v -224 -240 0
v -224 -224 0
v -208 -224 0
v -224 -240 0
v -240 -240 0
v -240 -224 0
v -224 -224 0
v -240 -240 0
v -256 -240 0
v -256 -224 0
v -240 -224 0
v 0 -256 0
v -16 -256 0
v -16 -240 0
v 0 -240 0
v -16 -256 0
v -32 -256 0
v -32 -240 0
v -16 -240 0
v -32 -256 0
v -48 -256 0
v -48 -240 0
v -32 -240 0
v -48 -256 0
v -64 -256 0
v -64 -240 0
v -48 -240 0
v -64 -256 0
v -80 -256 0
v -80 -240 0
v -64 -240 0
v -80 -256 0
v -96 -256 0
v -96 -240 0
v -80 -240 0
v -96 -256 0
v -112 -256 0
v -112 -240 0
v -96 -240 0
v -112 -256 0
v -128 -256 0
v -128 -240 0
v -112 -240 0
v -128 -256 0
v -144 -256 0
v -144 -240 0
v -128 -240 0
v -144 -256 0
v -160 -256 0
v -160 -240 0
v -144 -240 0
v -160 -256 0
v -176 -256 0
v -176 -240 0
v -160 -240 0
v -176 -256 0
v -192 -256 0
v -192 -240 0
v -176 -240 0
v -192 -256 0
v -208 -256 0
v -208 -240 0
v -192 -240 0
v -208 -256 0
v -224 -256 0
v -224 -240 0
v -208 -240 0
v -224 -256 0
v -240 -256 0
v -240 -240 0
v -224 -240 0
v -240 -256 0
v -256 -256 0
v -256 -240 0
v -240 -240 0

# Texture cooridinates (Count = 42)
vt 0.1489362 0.9375
vt 0.1382979 0.9375
vt 0.1382979 0.875
vt 0.1489362 0.875
vt 0.1276596 0.9375
vt 0.1276596 0.875
vt 0.1170213 0.9375
vt 0.1170213 0.875
vt 0.106383 0.9375
vt 0.106383 0.875
vt 0.09574468 0.9375
vt 0.09574468 0.875
vt 0.1489362 0.375
vt 0.1595745 0.375
vt 0.1595745 0.4375
vt 0.1489362 0.4375
vt 0.1489362 0.3125
vt 0.1595745 0.3125
vt 0.1702128 0.3125
vt 0.1702128 0.375
vt 0.08510638 0.9375
vt 0.08510638 0.875
vt 0.1489362 1
vt 0.1382979 1
vt 0.1276596 1
vt 0.1170213 1
vt 0.106383 1
vt 0.09574468 1
vt 0.08510638 1
vt 0.07446808 0.9375
vt 0.06382979 0.9375
vt 0.06382979 0.875
vt 0.07446808 0.875
vt 0.05319149 0.9375
vt 0.05319149 0.875
vt 0.04255319 0.9375
vt 0.04255319 0.875
vt 0.07446808 1
vt 0.06382979 1
vt 0.05319149 1
vt 0.04255319 1
vt 0.1702128 0.4375

# Normal
vn 0 0 -1

# Mesh description
g 2ScenarioPlataforma_mesh_0335

# Faces
f 1/1/1 2/2/1 3/3/1 4/4/1
f 5/2/1 6/5/1 7/6/1 8/3/1
f 9/5/1 10/7/1 11/8/1 12/6/1
f 13/7/1 14/9/1 15/10/1 16/8/1
f 17/9/1 18/11/1 19/12/1 20/10/1
f 21/13/1 22/14/1 23/15/1 24/16/1
f 25/13/1 26/14/1 27/15/1 28/16/1
f 29/13/1 30/14/1 31/15/1 32/16/1
f 33/17/1 34/18/1 35/14/1 36/13/1
f 37/18/1 38/19/1 39/20/1 40/14/1
f 41/1/1 42/2/1 43/3/1 44/4/1
f 45/2/1 46/5/1 47/6/1 48/3/1
f 49/5/1 50/7/1 51/8/1 52/6/1
f 53/7/1 54/9/1 55/10/1 56/8/1
f 57/9/1 58/11/1 59/12/1 60/10/1
f 61/11/1 62/21/1 63/22/1 64/12/1
f 65/23/1 66/24/1 67/2/1 68/1/1
f 69/24/1 70/25/1 71/5/1 72/2/1
f 73/13/1 74/14/1 75/15/1 76/16/1
f 77/13/1 78/14/1 79/15/1 80/16/1
f 81/13/1 82/14/1 83/15/1 84/16/1
f 85/17/1 86/18/1 87/14/1 88/13/1
f 89/17/1 90/18/1 91/14/1 92/13/1
f 93/17/1 94/18/1 95/14/1 96/13/1
f 97/17/1 98/18/1 99/14/1 100/13/1
f 101/18/1 102/19/1 103/20/1 104/14/1
f 105/23/1 106/24/1 107/2/1 108/1/1
f 109/24/1 110/25/1 111/5/1 112/2/1
f 113/25/1 114/26/1 115/7/1 116/5/1
f 117/26/1 118/27/1 119/9/1 120/7/1
f 121/27/1 122/28/1 123/11/1 124/9/1
f 125/28/1 126/29/1 127/21/1 128/11/1
f 129/1/1 130/2/1 131/3/1 132/4/1
f 133/2/1 134/5/1 135/6/1 136/3/1
f 137/17/1 138/18/1 139/14/1 140/13/1
f 141/17/1 142/18/1 143/14/1 144/13/1
f 145/17/1 146/18/1 147/14/1 148/13/1
f 149/17/1 150/18/1 151/14/1 152/13/1
f 153/18/1 154/19/1 155/20/1 156/14/1
f 157/30/1 158/31/1 159/32/1 160/33/1
f 161/31/1 162/34/1 163/35/1 164/32/1
f 165/34/1 166/36/1 167/37/1 168/35/1
f 169/1/1 170/2/1 171/3/1 172/4/1
f 173/2/1 174/5/1 175/6/1 176/3/1
f 177/5/1 178/7/1 179/8/1 180/6/1
f 181/7/1 182/9/1 183/10/1 184/8/1
f 185/9/1 186/11/1 187/12/1 188/10/1
f 189/11/1 190/21/1 191/22/1 192/12/1
f 193/23/1 194/24/1 195/2/1 196/1/1
f 197/24/1 198/25/1 199/5/1 200/2/1
f 201/17/1 202/18/1 203/14/1 204/13/1
f 205/18/1 206/19/1 207/20/1 208/14/1
f 209/27/1 210/28/1 211/11/1 212/9/1
f 213/28/1 214/29/1 215/21/1 216/11/1
f 217/29/1 218/38/1 219/30/1 220/21/1
f 221/38/1 222/39/1 223/31/1 224/30/1
f 225/39/1 226/40/1 227/34/1 228/31/1
f 229/40/1 230/41/1 231/36/1 232/34/1
f 233/23/1 234/24/1 235/2/1 236/1/1
f 237/24/1 238/25/1 239/5/1 240/2/1
f 241/25/1 242/26/1 243/7/1 244/5/1
f 245/26/1 246/27/1 247/9/1 248/7/1
f 249/27/1 250/28/1 251/11/1 252/9/1
f 253/28/1 254/29/1 255/21/1 256/11/1
f 257/1/1 258/2/1 259/3/1 260/4/1
f 261/2/1 262/5/1 263/6/1 264/3/1
f 265/17/1 266/18/1 267/14/1 268/13/1
f 269/18/1 270/19/1 271/20/1 272/14/1
f 273/9/1 274/11/1 275/12/1 276/10/1
f 277/11/1 278/21/1 279/22/1 280/12/1
f 281/21/1 282/30/1 283/33/1 284/22/1
f 285/30/1 286/31/1 287/32/1 288/33/1
f 289/31/1 290/34/1 291/35/1 292/32/1
f 293/34/1 294/36/1 295/37/1 296/35/1
f 297/1/1 298/2/1 299/3/1 300/4/1
f 301/2/1 302/5/1 303/6/1 304/3/1
f 305/5/1 306/7/1 307/8/1 308/6/1
f 309/7/1 310/9/1 311/10/1 312/8/1
f 313/9/1 314/11/1 315/12/1 316/10/1
f 317/11/1 318/21/1 319/22/1 320/12/1
f 321/23/1 322/24/1 323/2/1 324/1/1
f 325/24/1 326/25/1 327/5/1 328/2/1
f 329/17/1 330/18/1 331/14/1 332/13/1
f 333/18/1 334/19/1 335/20/1 336/14/1
f 337/27/1 338/28/1 339/11/1 340/9/1
f 341/28/1 342/29/1 343/21/1 344/11/1
f 345/29/1 346/38/1 347/30/1 348/21/1
f 349/38/1 350/39/1 351/31/1 352/30/1
f 353/39/1 354/40/1 355/34/1 356/31/1
f 357/40/1 358/41/1 359/36/1 360/34/1
f 361/23/1 362/24/1 363/2/1 364/1/1
f 365/24/1 366/25/1 367/5/1 368/2/1
f 369/25/1 370/26/1 371/7/1 372/5/1
f 373/26/1 374/27/1 375/9/1 376/7/1
f 377/27/1 378/28/1 379/11/1 380/9/1
f 381/28/1 382/29/1 383/21/1 384/11/1
f 385/1/1 386/2/1 387/3/1 388/4/1
f 389/2/1 390/5/1 391/6/1 392/3/1
f 393/5/1 394/7/1 395/8/1 396/6/1
f 397/7/1 398/9/1 399/10/1 400/8/1
f 401/9/1 402/11/1 403/12/1 404/10/1
f 405/11/1 406/21/1 407/22/1 408/12/1
f 409/21/1 410/30/1 411/33/1 412/22/1
f 413/30/1 414/31/1 415/32/1 416/33/1
f 417/31/1 418/34/1 419/35/1 420/32/1
f 421/34/1 422/36/1 423/37/1 424/35/1
f 425/1/1 426/2/1 427/3/1 428/4/1
f 429/2/1 430/5/1 431/6/1 432/3/1
f 433/5/1 434/7/1 435/8/1 436/6/1
f 437/7/1 438/9/1 439/10/1 440/8/1
f 441/9/1 442/11/1 443/12/1 444/10/1
f 445/11/1 446/21/1 447/22/1 448/12/1
f 449/23/1 450/24/1 451/2/1 452/1/1
f 453/24/1 454/25/1 455/5/1 456/2/1
f 457/25/1 458/26/1 459/7/1 460/5/1
f 461/26/1 462/27/1 463/9/1 464/7/1
f 465/27/1 466/28/1 467/11/1 468/9/1
f 469/28/1 470/29/1 471/21/1 472/11/1
f 473/29/1 474/38/1 475/30/1 476/21/1
f 477/38/1 478/39/1 479/31/1 480/30/1
f 481/39/1 482/40/1 483/34/1 484/31/1
f 485/40/1 486/41/1 487/36/1 488/34/1
f 489/23/1 490/24/1 491/2/1 492/1/1
f 493/24/1 494/25/1 495/5/1 496/2/1
f 497/25/1 498/26/1 499/7/1 500/5/1
f 501/26/1 502/27/1 503/9/1 504/7/1
f 505/27/1 506/28/1 507/11/1 508/9/1
f 509/28/1 510/29/1 511/21/1 512/11/1
f 513/1/1 514/2/1 515/3/1 516/4/1
f 517/2/1 518/5/1 519/6/1 520/3/1
f 521/5/1 522/7/1 523/8/1 524/6/1
f 525/7/1 526/9/1 527/10/1 528/8/1
f 529/9/1 530/11/1 531/12/1 532/10/1
f 533/11/1 534/21/1 535/22/1 536/12/1
f 537/21/1 538/30/1 539/33/1 540/22/1
f 541/30/1 542/31/1 543/32/1 544/33/1
f 545/31/1 546/34/1 547/35/1 548/32/1
f 549/34/1 550/36/1 551/37/1 552/35/1
f 553/1/1 554/2/1 555/3/1 556/4/1
f 557/2/1 558/5/1 559/6/1 560/3/1
f 561/5/1 562/7/1 563/8/1 564/6/1
f 565/7/1 566/9/1 567/10/1 568/8/1
f 569/9/1 570/11/1 571/12/1 572/10/1
f 573/11/1 574/21/1 575/22/1 576/12/1
f 577/23/1 578/24/1 579/2/1 580/1/1
f 581/24/1 582/25/1 583/5/1 584/2/1
f 585/25/1 586/26/1 587/7/1 588/5/1
f 589/26/1 590/27/1 591/9/1 592/7/1
f 593/27/1 594/28/1 595/11/1 596/9/1
f 597/28/1 598/29/1 599/21/1 600/11/1
f 601/29/1 602/38/1 603/30/1 604/21/1
f 605/38/1 606/39/1 607/31/1 608/30/1
f 609/39/1 610/40/1 611/34/1 612/31/1
f 613/40/1 614/41/1 615/36/1 616/34/1
f 617/23/1 618/24/1 619/2/1 620/1/1
f 621/24/1 622/25/1 623/5/1 624/2/1
f 625/25/1 626/26/1 627/7/1 628/5/1
f 629/26/1 630/27/1 631/9/1 632/7/1
f 633/27/1 634/28/1 635/11/1 636/9/1
f 637/28/1 638/29/1 639/21/1 640/11/1
f 641/1/1 642/2/1 643/3/1 644/4/1
f 645/2/1 646/5/1 647/6/1 648/3/1
f 649/5/1 650/7/1 651/8/1 652/6/1
f 653/13/1 654/14/1 655/15/1 656/16/1
f 657/13/1 658/14/1 659/15/1 660/16/1
f 661/13/1 662/14/1 663/15/1 664/16/1
f 665/13/1 666/14/1 667/15/1 668/16/1
f 669/13/1 670/14/1 671/15/1 672/16/1
f 673/13/1 674/14/1 675/15/1 676/16/1
f 677/13/1 678/14/1 679/15/1 680/16/1
f 681/13/1 682/14/1 683/15/1 684/16/1
f 685/13/1 686/14/1 687/15/1 688/16/1
f 689/13/1 690/14/1 691/15/1 692/16/1
f 693/14/1 694/20/1 695/42/1 696/15/1
f 697/9/1 698/11/1 699/12/1 700/10/1
f 701/11/1 702/21/1 703/22/1 704/12/1
f 705/23/1 706/24/1 707/2/1 708/1/1
f 709/24/1 710/25/1 711/5/1 712/2/1
f 713/25/1 714/26/1 715/7/1 716/5/1
f 717/17/1 718/18/1 719/14/1 720/13/1
f 721/17/1 722/18/1 723/14/1 724/13/1
f 725/17/1 726/18/1 727/14/1 728/13/1
f 729/17/1 730/18/1 731/14/1 732/13/1
f 733/17/1 734/18/1 735/14/1 736/13/1
f 737/17/1 738/18/1 739/14/1 740/13/1
f 741/17/1 742/18/1 743/14/1 744/13/1
f 745/17/1 746/18/1 747/14/1 748/13/1
f 749/17/1 750/18/1 751/14/1 752/13/1
f 753/17/1 754/18/1 755/14/1 756/13/1
f 757/18/1 758/19/1 759/20/1 760/14/1
f 761/27/1 762/28/1 763/11/1 764/9/1
f 765/28/1 766/29/1 767/21/1 768/11/1
f 769/1/1 770/2/1 771/3/1 772/4/1
f 773/2/1 774/5/1 775/6/1 776/3/1
f 777/5/1 778/7/1 779/8/1 780/6/1
f 781/7/1 782/9/1 783/10/1 784/8/1
f 785/9/1 786/11/1 787/12/1 788/10/1
f 789/11/1 790/21/1 791/22/1 792/12/1
f 793/21/1 794/30/1 795/33/1 796/22/1
f 797/30/1 798/31/1 799/32/1 800/33/1
f 801/31/1 802/34/1 803/35/1 804/32/1
f 805/34/1 806/36/1 807/37/1 808/35/1
f 809/1/1 810/2/1 811/3/1 812/4/1
f 813/2/1 814/5/1 815/6/1 816/3/1
f 817/5/1 818/7/1 819/8/1 820/6/1
f 821/7/1 822/9/1 823/10/1 824/8/1
f 825/9/1 826/11/1 827/12/1 828/10/1
f 829/11/1 830/21/1 831/22/1 832/12/1
f 833/23/1 834/24/1 835/2/1 836/1/1
f 837/24/1 838/25/1 839/5/1 840/2/1
f 841/25/1 842/26/1 843/7/1 844/5/1
f 845/26/1 846/27/1 847/9/1 848/7/1
f 849/27/1 850/28/1 851/11/1 852/9/1
f 853/28/1 854/29/1 855/21/1 856/11/1
f 857/29/1 858/38/1 859/30/1 860/21/1
f 861/38/1 862/39/1 863/31/1 864/30/1
f 865/39/1 866/40/1 867/34/1 868/31/1
f 869/40/1 870/41/1 871/36/1 872/34/1
f 873/23/1 874/24/1 875/2/1 876/1/1
f 877/24/1 878/25/1 879/5/1 880/2/1
f 881/25/1 882/26/1 883/7/1 884/5/1
f 885/26/1 886/27/1 887/9/1 888/7/1
f 889/27/1 890/28/1 891/11/1 892/9/1
f 893/28/1 894/29/1 895/21/1 896/11/1
f 897/1/1 898/2/1 899/3/1 900/4/1
f 901/2/1 902/5/1 903/6/1 904/3/1
f 905/5/1 906/7/1 907/8/1 908/6/1
f 909/7/1 910/9/1 911/10/1 912/8/1
f 913/9/1 914/11/1 915/12/1 916/10/1
f 917/11/1 918/21/1 919/22/1 920/12/1
f 921/21/1 922/30/1 923/33/1 924/22/1
f 925/30/1 926/31/1 927/32/1 928/33/1
f 929/31/1 930/34/1 931/35/1 932/32/1
f 933/34/1 934/36/1 935/37/1 936/35/1
f 937/1/1 938/2/1 939/3/1 940/4/1
f 941/2/1 942/5/1 943/6/1 944/3/1
f 945/5/1 946/7/1 947/8/1 948/6/1
f 949/7/1 950/9/1 951/10/1 952/8/1
f 953/9/1 954/11/1 955/12/1 956/10/1
f 957/11/1 958/21/1 959/22/1 960/12/1
f 961/23/1 962/24/1 963/2/1 964/1/1
f 965/24/1 966/25/1 967/5/1 968/2/1
f 969/25/1 970/26/1 971/7/1 972/5/1
f 973/26/1 974/27/1 975/9/1 976/7/1
f 977/27/1 978/28/1 979/11/1 980/9/1
f 981/28/1 982/29/1 983/21/1 984/11/1
f 985/29/1 986/38/1 987/30/1 988/21/1
f 989/38/1 990/39/1 991/31/1 992/30/1
f 993/39/1 994/40/1 995/34/1 996/31/1
f 997/40/1 998/41/1 999/36/1 1000/34/1
f 1001/23/1 1002/24/1 1003/2/1 1004/1/1
f 1005/24/1 1006/25/1 1007/5/1 1008/2/1
f 1009/25/1 1010/26/1 1011/7/1 1012/5/1
f 1013/26/1 1014/27/1 1015/9/1 1016/7/1
f 1017/27/1 1018/28/1 1019/11/1 1020/9/1
f 1021/28/1 1022/29/1 1023/21/1 1024/11/1

