# Tiled2Unity generated file. Do not modify by hand.
# Wavefront file for '2ScenarioPlataforma_mesh_0668.obj'

# Vertices (Count = 192)
v 0 -208 0
v -16 -208 0
v -16 -192 0
v 0 -192 0
v -16 -208 0
v -32 -208 0
v -32 -192 0
v -16 -192 0
v -32 -208 0
v -48 -208 0
v -48 -192 0
v -32 -192 0
v -48 -208 0
v -64 -208 0
v -64 -192 0
v -48 -192 0
v -64 -208 0
v -80 -208 0
v -80 -192 0
v -64 -192 0
v -80 -208 0
v -96 -208 0
v -96 -192 0
v -80 -192 0
v -96 -208 0
v -112 -208 0
v -112 -192 0
v -96 -192 0
v -112 -208 0
v -128 -208 0
v -128 -192 0
v -112 -192 0
v -128 -208 0
v -144 -208 0
v -144 -192 0
v -128 -192 0
v -144 -208 0
v -160 -208 0
v -160 -192 0
v -144 -192 0
v -160 -208 0
v -176 -208 0
v -176 -192 0
v -160 -192 0
v -176 -208 0
v -192 -208 0
v -192 -192 0
v -176 -192 0
v -192 -208 0
v -208 -208 0
v -208 -192 0
v -192 -192 0
v -208 -208 0
v -224 -208 0
v -224 -192 0
v -208 -192 0
v -224 -208 0
v -240 -208 0
v -240 -192 0
v -224 -192 0
v -240 -208 0
v -256 -208 0
v -256 -192 0
v -240 -192 0
v 0 -224 0
v -16 -224 0
v -16 -208 0
v 0 -208 0
v -16 -224 0
v -32 -224 0
v -32 -208 0
v -16 -208 0
v -32 -224 0
v -48 -224 0
v -48 -208 0
v -32 -208 0
v -48 -224 0
v -64 -224 0
v -64 -208 0
v -48 -208 0
v -64 -224 0
v -80 -224 0
v -80 -208 0
v -64 -208 0
v -80 -224 0
v -96 -224 0
v -96 -208 0
v -80 -208 0
v -96 -224 0
v -112 -224 0
v -112 -208 0
v -96 -208 0
v -112 -224 0
v -128 -224 0
v -128 -208 0
v -112 -208 0
v -128 -224 0
v -144 -224 0
v -144 -208 0
v -128 -208 0
v -144 -224 0
v -160 -224 0
v -160 -208 0
v -144 -208 0
v -160 -224 0
v -176 -224 0
v -176 -208 0
v -160 -208 0
v -176 -224 0
v -192 -224 0
v -192 -208 0
v -176 -208 0
v -192 -224 0
v -208 -224 0
v -208 -208 0
v -192 -208 0
v -208 -224 0
v -224 -224 0
v -224 -208 0
v -208 -208 0
v -224 -224 0
v -240 -224 0
v -240 -208 0
v -224 -208 0
v -240 -224 0
v -256 -224 0
v -256 -208 0
v -240 -208 0
v 0 -240 0
v -16 -240 0
v -16 -224 0
v 0 -224 0
v -16 -240 0
v -32 -240 0
v -32 -224 0
v -16 -224 0
v -32 -240 0
v -48 -240 0
v -48 -224 0
v -32 -224 0
v -48 -240 0
v -64 -240 0
v -64 -224 0
v -48 -224 0
v -64 -240 0
v -80 -240 0
v -80 -224 0
v -64 -224 0
v -80 -240 0
v -96 -240 0
v -96 -224 0
v -80 -224 0
v -96 -240 0
v -112 -240 0
v -112 -224 0
v -96 -224 0
v -112 -240 0
v -128 -240 0
v -128 -224 0
v -112 -224 0
v -128 -240 0
v -144 -240 0
v -144 -224 0
v -128 -224 0
v -144 -240 0
v -160 -240 0
v -160 -224 0
v -144 -224 0
v -160 -240 0
v -176 -240 0
v -176 -224 0
v -160 -224 0
v -176 -240 0
v -192 -240 0
v -192 -224 0
v -176 -224 0
v -192 -240 0
v -208 -240 0
v -208 -224 0
v -192 -224 0
v -208 -240 0
v -224 -240 0
v -224 -224 0
v -208 -224 0
v -224 -240 0
v -240 -240 0
v -240 -224 0
v -224 -224 0
v -240 -240 0
v -256 -240 0
v -256 -224 0
v -240 -224 0

# Texture cooridinates (Count = 32)
vt 0.1489362 0.125
vt 0.1595745 0.125
vt 0.1595745 0.1875
vt 0.1489362 0.1875
vt 0.1702128 0.125
vt 0.1702128 0.1875
vt 0.1808511 0.125
vt 0.1808511 0.1875
vt 0.1914894 0.125
vt 0.1914894 0.1875
vt 0.1170213 0.125
vt 0.1276596 0.125
vt 0.1276596 0.1875
vt 0.1170213 0.1875
vt 0.1382979 0.125
vt 0.1382979 0.1875
vt 0.1489362 0.0625
vt 0.1595745 0.0625
vt 0.1702128 0.0625
vt 0.1808511 0.0625
vt 0.1914894 0.0625
vt 0.1170213 0.0625
vt 0.1276596 0.0625
vt 0.1382979 0.0625
vt 0.1489362 0
vt 0.1595745 0
vt 0.1702128 0
vt 0.1808511 0
vt 0.1914894 0
vt 0.1170213 0
vt 0.1276596 0
vt 0.1382979 0

# Normal
vn 0 0 -1

# Mesh description
g 2ScenarioPlataforma_mesh_0668

# Faces
f 1/1/1 2/2/1 3/3/1 4/4/1
f 5/2/1 6/5/1 7/6/1 8/3/1
f 9/5/1 10/7/1 11/8/1 12/6/1
f 13/7/1 14/9/1 15/10/1 16/8/1
f 17/11/1 18/12/1 19/13/1 20/14/1
f 21/12/1 22/15/1 23/16/1 24/13/1
f 25/15/1 26/1/1 27/4/1 28/16/1
f 29/1/1 30/2/1 31/3/1 32/4/1
f 33/2/1 34/5/1 35/6/1 36/3/1
f 37/5/1 38/7/1 39/8/1 40/6/1
f 41/7/1 42/9/1 43/10/1 44/8/1
f 45/11/1 46/12/1 47/13/1 48/14/1
f 49/12/1 50/15/1 51/16/1 52/13/1
f 53/15/1 54/1/1 55/4/1 56/16/1
f 57/1/1 58/2/1 59/3/1 60/4/1
f 61/2/1 62/5/1 63/6/1 64/3/1
f 65/17/1 66/18/1 67/2/1 68/1/1
f 69/18/1 70/19/1 71/5/1 72/2/1
f 73/19/1 74/20/1 75/7/1 76/5/1
f 77/20/1 78/21/1 79/9/1 80/7/1
f 81/22/1 82/23/1 83/12/1 84/11/1
f 85/23/1 86/24/1 87/15/1 88/12/1
f 89/24/1 90/17/1 91/1/1 92/15/1
f 93/17/1 94/18/1 95/2/1 96/1/1
f 97/18/1 98/19/1 99/5/1 100/2/1
f 101/19/1 102/20/1 103/7/1 104/5/1
f 105/20/1 106/21/1 107/9/1 108/7/1
f 109/22/1 110/23/1 111/12/1 112/11/1
f 113/23/1 114/24/1 115/15/1 116/12/1
f 117/24/1 118/17/1 119/1/1 120/15/1
f 121/17/1 122/18/1 123/2/1 124/1/1
f 125/18/1 126/19/1 127/5/1 128/2/1
f 129/25/1 130/26/1 131/18/1 132/17/1
f 133/26/1 134/27/1 135/19/1 136/18/1
f 137/27/1 138/28/1 139/20/1 140/19/1
f 141/28/1 142/29/1 143/21/1 144/20/1
f 145/30/1 146/31/1 147/23/1 148/22/1
f 149/31/1 150/32/1 151/24/1 152/23/1
f 153/32/1 154/25/1 155/17/1 156/24/1
f 157/25/1 158/26/1 159/18/1 160/17/1
f 161/26/1 162/27/1 163/19/1 164/18/1
f 165/27/1 166/28/1 167/20/1 168/19/1
f 169/28/1 170/29/1 171/21/1 172/20/1
f 173/30/1 174/31/1 175/23/1 176/22/1
f 177/31/1 178/32/1 179/24/1 180/23/1
f 181/32/1 182/25/1 183/17/1 184/24/1
f 185/25/1 186/26/1 187/18/1 188/17/1
f 189/26/1 190/27/1 191/19/1 192/18/1

