# Tiled2Unity generated file. Do not modify by hand.
# Wavefront file for '2ScenarioPlataforma_mesh_0985.obj'

# Vertices (Count = 768)
v 0 -80 0
v -16 -80 0
v -16 -64 0
v 0 -64 0
v -16 -80 0
v -32 -80 0
v -32 -64 0
v -16 -64 0
v -32 -80 0
v -48 -80 0
v -48 -64 0
v -32 -64 0
v -48 -80 0
v -64 -80 0
v -64 -64 0
v -48 -64 0
v -64 -80 0
v -80 -80 0
v -80 -64 0
v -64 -64 0
v -80 -80 0
v -96 -80 0
v -96 -64 0
v -80 -64 0
v -96 -80 0
v -112 -80 0
v -112 -64 0
v -96 -64 0
v -112 -80 0
v -128 -80 0
v -128 -64 0
v -112 -64 0
v -128 -80 0
v -144 -80 0
v -144 -64 0
v -128 -64 0
v -144 -80 0
v -160 -80 0
v -160 -64 0
v -144 -64 0
v -160 -80 0
v -176 -80 0
v -176 -64 0
v -160 -64 0
v -176 -80 0
v -192 -80 0
v -192 -64 0
v -176 -64 0
v -192 -80 0
v -208 -80 0
v -208 -64 0
v -192 -64 0
v -208 -80 0
v -224 -80 0
v -224 -64 0
v -208 -64 0
v -224 -80 0
v -240 -80 0
v -240 -64 0
v -224 -64 0
v -240 -80 0
v -256 -80 0
v -256 -64 0
v -240 -64 0
v 0 -96 0
v -16 -96 0
v -16 -80 0
v 0 -80 0
v -16 -96 0
v -32 -96 0
v -32 -80 0
v -16 -80 0
v -32 -96 0
v -48 -96 0
v -48 -80 0
v -32 -80 0
v -48 -96 0
v -64 -96 0
v -64 -80 0
v -48 -80 0
v -64 -96 0
v -80 -96 0
v -80 -80 0
v -64 -80 0
v -80 -96 0
v -96 -96 0
v -96 -80 0
v -80 -80 0
v -96 -96 0
v -112 -96 0
v -112 -80 0
v -96 -80 0
v -112 -96 0
v -128 -96 0
v -128 -80 0
v -112 -80 0
v -128 -96 0
v -144 -96 0
v -144 -80 0
v -128 -80 0
v -144 -96 0
v -160 -96 0
v -160 -80 0
v -144 -80 0
v -160 -96 0
v -176 -96 0
v -176 -80 0
v -160 -80 0
v -176 -96 0
v -192 -96 0
v -192 -80 0
v -176 -80 0
v -192 -96 0
v -208 -96 0
v -208 -80 0
v -192 -80 0
v -208 -96 0
v -224 -96 0
v -224 -80 0
v -208 -80 0
v -224 -96 0
v -240 -96 0
v -240 -80 0
v -224 -80 0
v -240 -96 0
v -256 -96 0
v -256 -80 0
v -240 -80 0
v 0 -112 0
v -16 -112 0
v -16 -96 0
v 0 -96 0
v -16 -112 0
v -32 -112 0
v -32 -96 0
v -16 -96 0
v -32 -112 0
v -48 -112 0
v -48 -96 0
v -32 -96 0
v -48 -112 0
v -64 -112 0
v -64 -96 0
v -48 -96 0
v -64 -112 0
v -80 -112 0
v -80 -96 0
v -64 -96 0
v -80 -112 0
v -96 -112 0
v -96 -96 0
v -80 -96 0
v -96 -112 0
v -112 -112 0
v -112 -96 0
v -96 -96 0
v -112 -112 0
v -128 -112 0
v -128 -96 0
v -112 -96 0
v -128 -112 0
v -144 -112 0
v -144 -96 0
v -128 -96 0
v -144 -112 0
v -160 -112 0
v -160 -96 0
v -144 -96 0
v -160 -112 0
v -176 -112 0
v -176 -96 0
v -160 -96 0
v -176 -112 0
v -192 -112 0
v -192 -96 0
v -176 -96 0
v -192 -112 0
v -208 -112 0
v -208 -96 0
v -192 -96 0
v -208 -112 0
v -224 -112 0
v -224 -96 0
v -208 -96 0
v -224 -112 0
v -240 -112 0
v -240 -96 0
v -224 -96 0
v -240 -112 0
v -256 -112 0
v -256 -96 0
v -240 -96 0
v 0 -128 0
v -16 -128 0
v -16 -112 0
v 0 -112 0
v -16 -128 0
v -32 -128 0
v -32 -112 0
v -16 -112 0
v -32 -128 0
v -48 -128 0
v -48 -112 0
v -32 -112 0
v -48 -128 0
v -64 -128 0
v -64 -112 0
v -48 -112 0
v -64 -128 0
v -80 -128 0
v -80 -112 0
v -64 -112 0
v -80 -128 0
v -96 -128 0
v -96 -112 0
v -80 -112 0
v -96 -128 0
v -112 -128 0
v -112 -112 0
v -96 -112 0
v -112 -128 0
v -128 -128 0
v -128 -112 0
v -112 -112 0
v -128 -128 0
v -144 -128 0
v -144 -112 0
v -128 -112 0
v -144 -128 0
v -160 -128 0
v -160 -112 0
v -144 -112 0
v -160 -128 0
v -176 -128 0
v -176 -112 0
v -160 -112 0
v -176 -128 0
v -192 -128 0
v -192 -112 0
v -176 -112 0
v -192 -128 0
v -208 -128 0
v -208 -112 0
v -192 -112 0
v -208 -128 0
v -224 -128 0
v -224 -112 0
v -208 -112 0
v -224 -128 0
v -240 -128 0
v -240 -112 0
v -224 -112 0
v -240 -128 0
v -256 -128 0
v -256 -112 0
v -240 -112 0
v 0 -144 0
v -16 -144 0
v -16 -128 0
v 0 -128 0
v -16 -144 0
v -32 -144 0
v -32 -128 0
v -16 -128 0
v -32 -144 0
v -48 -144 0
v -48 -128 0
v -32 -128 0
v -48 -144 0
v -64 -144 0
v -64 -128 0
v -48 -128 0
v -64 -144 0
v -80 -144 0
v -80 -128 0
v -64 -128 0
v -80 -144 0
v -96 -144 0
v -96 -128 0
v -80 -128 0
v -96 -144 0
v -112 -144 0
v -112 -128 0
v -96 -128 0
v -112 -144 0
v -128 -144 0
v -128 -128 0
v -112 -128 0
v -128 -144 0
v -144 -144 0
v -144 -128 0
v -128 -128 0
v -144 -144 0
v -160 -144 0
v -160 -128 0
v -144 -128 0
v -160 -144 0
v -176 -144 0
v -176 -128 0
v -160 -128 0
v -176 -144 0
v -192 -144 0
v -192 -128 0
v -176 -128 0
v -192 -144 0
v -208 -144 0
v -208 -128 0
v -192 -128 0
v -208 -144 0
v -224 -144 0
v -224 -128 0
v -208 -128 0
v -224 -144 0
v -240 -144 0
v -240 -128 0
v -224 -128 0
v -240 -144 0
v -256 -144 0
v -256 -128 0
v -240 -128 0
v 0 -160 0
v -16 -160 0
v -16 -144 0
v 0 -144 0
v -16 -160 0
v -32 -160 0
v -32 -144 0
v -16 -144 0
v -32 -160 0
v -48 -160 0
v -48 -144 0
v -32 -144 0
v -48 -160 0
v -64 -160 0
v -64 -144 0
v -48 -144 0
v -64 -160 0
v -80 -160 0
v -80 -144 0
v -64 -144 0
v -80 -160 0
v -96 -160 0
v -96 -144 0
v -80 -144 0
v -96 -160 0
v -112 -160 0
v -112 -144 0
v -96 -144 0
v -112 -160 0
v -128 -160 0
v -128 -144 0
v -112 -144 0
v -128 -160 0
v -144 -160 0
v -144 -144 0
v -128 -144 0
v -144 -160 0
v -160 -160 0
v -160 -144 0
v -144 -144 0
v -160 -160 0
v -176 -160 0
v -176 -144 0
v -160 -144 0
v -176 -160 0
v -192 -160 0
v -192 -144 0
v -176 -144 0
v -192 -160 0
v -208 -160 0
v -208 -144 0
v -192 -144 0
v -208 -160 0
v -224 -160 0
v -224 -144 0
v -208 -144 0
v -224 -160 0
v -240 -160 0
v -240 -144 0
v -224 -144 0
v -240 -160 0
v -256 -160 0
v -256 -144 0
v -240 -144 0
v 0 -176 0
v -16 -176 0
v -16 -160 0
v 0 -160 0
v -16 -176 0
v -32 -176 0
v -32 -160 0
v -16 -160 0
v -32 -176 0
v -48 -176 0
v -48 -160 0
v -32 -160 0
v -48 -176 0
v -64 -176 0
v -64 -160 0
v -48 -160 0
v -64 -176 0
v -80 -176 0
v -80 -160 0
v -64 -160 0
v -80 -176 0
v -96 -176 0
v -96 -160 0
v -80 -160 0
v -96 -176 0
v -112 -176 0
v -112 -160 0
v -96 -160 0
v -112 -176 0
v -128 -176 0
v -128 -160 0
v -112 -160 0
v -128 -176 0
v -144 -176 0
v -144 -160 0
v -128 -160 0
v -144 -176 0
v -160 -176 0
v -160 -160 0
v -144 -160 0
v -160 -176 0
v -176 -176 0
v -176 -160 0
v -160 -160 0
v -176 -176 0
v -192 -176 0
v -192 -160 0
v -176 -160 0
v -192 -176 0
v -208 -176 0
v -208 -160 0
v -192 -160 0
v -208 -176 0
v -224 -176 0
v -224 -160 0
v -208 -160 0
v -224 -176 0
v -240 -176 0
v -240 -160 0
v -224 -160 0
v -240 -176 0
v -256 -176 0
v -256 -160 0
v -240 -160 0
v 0 -192 0
v -16 -192 0
v -16 -176 0
v 0 -176 0
v -16 -192 0
v -32 -192 0
v -32 -176 0
v -16 -176 0
v -32 -192 0
v -48 -192 0
v -48 -176 0
v -32 -176 0
v -48 -192 0
v -64 -192 0
v -64 -176 0
v -48 -176 0
v -64 -192 0
v -80 -192 0
v -80 -176 0
v -64 -176 0
v -80 -192 0
v -96 -192 0
v -96 -176 0
v -80 -176 0
v -96 -192 0
v -112 -192 0
v -112 -176 0
v -96 -176 0
v -112 -192 0
v -128 -192 0
v -128 -176 0
v -112 -176 0
v -128 -192 0
v -144 -192 0
v -144 -176 0
v -128 -176 0
v -144 -192 0
v -160 -192 0
v -160 -176 0
v -144 -176 0
v -160 -192 0
v -176 -192 0
v -176 -176 0
v -160 -176 0
v -176 -192 0
v -192 -192 0
v -192 -176 0
v -176 -176 0
v -192 -192 0
v -208 -192 0
v -208 -176 0
v -192 -176 0
v -208 -192 0
v -224 -192 0
v -224 -176 0
v -208 -176 0
v -224 -192 0
v -240 -192 0
v -240 -176 0
v -224 -176 0
v -240 -192 0
v -256 -192 0
v -256 -176 0
v -240 -176 0
v 0 -208 0
v -16 -208 0
v -16 -192 0
v 0 -192 0
v -16 -208 0
v -32 -208 0
v -32 -192 0
v -16 -192 0
v -32 -208 0
v -48 -208 0
v -48 -192 0
v -32 -192 0
v -48 -208 0
v -64 -208 0
v -64 -192 0
v -48 -192 0
v -64 -208 0
v -80 -208 0
v -80 -192 0
v -64 -192 0
v -80 -208 0
v -96 -208 0
v -96 -192 0
v -80 -192 0
v -96 -208 0
v -112 -208 0
v -112 -192 0
v -96 -192 0
v -112 -208 0
v -128 -208 0
v -128 -192 0
v -112 -192 0
v -128 -208 0
v -144 -208 0
v -144 -192 0
v -128 -192 0
v -144 -208 0
v -160 -208 0
v -160 -192 0
v -144 -192 0
v -160 -208 0
v -176 -208 0
v -176 -192 0
v -160 -192 0
v -176 -208 0
v -192 -208 0
v -192 -192 0
v -176 -192 0
v -192 -208 0
v -208 -208 0
v -208 -192 0
v -192 -192 0
v -208 -208 0
v -224 -208 0
v -224 -192 0
v -208 -192 0
v -224 -208 0
v -240 -208 0
v -240 -192 0
v -224 -192 0
v -240 -208 0
v -256 -208 0
v -256 -192 0
v -240 -192 0
v 0 -224 0
v -16 -224 0
v -16 -208 0
v 0 -208 0
v -16 -224 0
v -32 -224 0
v -32 -208 0
v -16 -208 0
v -32 -224 0
v -48 -224 0
v -48 -208 0
v -32 -208 0
v -48 -224 0
v -64 -224 0
v -64 -208 0
v -48 -208 0
v -64 -224 0
v -80 -224 0
v -80 -208 0
v -64 -208 0
v -80 -224 0
v -96 -224 0
v -96 -208 0
v -80 -208 0
v -96 -224 0
v -112 -224 0
v -112 -208 0
v -96 -208 0
v -112 -224 0
v -128 -224 0
v -128 -208 0
v -112 -208 0
v -128 -224 0
v -144 -224 0
v -144 -208 0
v -128 -208 0
v -144 -224 0
v -160 -224 0
v -160 -208 0
v -144 -208 0
v -160 -224 0
v -176 -224 0
v -176 -208 0
v -160 -208 0
v -176 -224 0
v -192 -224 0
v -192 -208 0
v -176 -208 0
v -192 -224 0
v -208 -224 0
v -208 -208 0
v -192 -208 0
v -208 -224 0
v -224 -224 0
v -224 -208 0
v -208 -208 0
v -224 -224 0
v -240 -224 0
v -240 -208 0
v -224 -208 0
v -240 -224 0
v -256 -224 0
v -256 -208 0
v -240 -208 0
v 0 -240 0
v -16 -240 0
v -16 -224 0
v 0 -224 0
v -16 -240 0
v -32 -240 0
v -32 -224 0
v -16 -224 0
v -32 -240 0
v -48 -240 0
v -48 -224 0
v -32 -224 0
v -48 -240 0
v -64 -240 0
v -64 -224 0
v -48 -224 0
v -64 -240 0
v -80 -240 0
v -80 -224 0
v -64 -224 0
v -80 -240 0
v -96 -240 0
v -96 -224 0
v -80 -224 0
v -96 -240 0
v -112 -240 0
v -112 -224 0
v -96 -224 0
v -112 -240 0
v -128 -240 0
v -128 -224 0
v -112 -224 0
v -128 -240 0
v -144 -240 0
v -144 -224 0
v -128 -224 0
v -144 -240 0
v -160 -240 0
v -160 -224 0
v -144 -224 0
v -160 -240 0
v -176 -240 0
v -176 -224 0
v -160 -224 0
v -176 -240 0
v -192 -240 0
v -192 -224 0
v -176 -224 0
v -192 -240 0
v -208 -240 0
v -208 -224 0
v -192 -224 0
v -208 -240 0
v -224 -240 0
v -224 -224 0
v -208 -224 0
v -224 -240 0
v -240 -240 0
v -240 -224 0
v -224 -224 0
v -240 -240 0
v -256 -240 0
v -256 -224 0
v -240 -224 0
v 0 -256 0
v -16 -256 0
v -16 -240 0
v 0 -240 0
v -16 -256 0
v -32 -256 0
v -32 -240 0
v -16 -240 0
v -32 -256 0
v -48 -256 0
v -48 -240 0
v -32 -240 0
v -48 -256 0
v -64 -256 0
v -64 -240 0
v -48 -240 0
v -64 -256 0
v -80 -256 0
v -80 -240 0
v -64 -240 0
v -80 -256 0
v -96 -256 0
v -96 -240 0
v -80 -240 0
v -96 -256 0
v -112 -256 0
v -112 -240 0
v -96 -240 0
v -112 -256 0
v -128 -256 0
v -128 -240 0
v -112 -240 0
v -128 -256 0
v -144 -256 0
v -144 -240 0
v -128 -240 0
v -144 -256 0
v -160 -256 0
v -160 -240 0
v -144 -240 0
v -160 -256 0
v -176 -256 0
v -176 -240 0
v -160 -240 0
v -176 -256 0
v -192 -256 0
v -192 -240 0
v -176 -240 0
v -192 -256 0
v -208 -256 0
v -208 -240 0
v -192 -240 0
v -208 -256 0
v -224 -256 0
v -224 -240 0
v -208 -240 0
v -224 -256 0
v -240 -256 0
v -240 -240 0
v -224 -240 0
v -240 -256 0
v -256 -256 0
v -256 -240 0
v -240 -240 0

# Texture cooridinates (Count = 56)
vt 0.606383 0.1875
vt 0.6170213 0.1875
vt 0.6170213 0.25
vt 0.606383 0.25
vt 0.6702127 0.1875
vt 0.680851 0.1875
vt 0.680851 0.25
vt 0.6702127 0.25
vt 0.5957447 0.1875
vt 0.5957447 0.25
vt 0.6914893 0.1875
vt 0.6914893 0.25
vt 0.393617 0.625
vt 0.4042553 0.625
vt 0.4042553 0.6875
vt 0.393617 0.6875
vt 0.4255319 0.625
vt 0.4361702 0.625
vt 0.4361702 0.6875
vt 0.4255319 0.6875
vt 0.7021276 0.1875
vt 0.7021276 0.25
vt 0.6595744 0.1875
vt 0.6595744 0.25
vt 0.4468085 0.625
vt 0.4468085 0.6875
vt 0.4148936 0.625
vt 0.4148936 0.6875
vt 0.6382979 0.1875
vt 0.6489362 0.1875
vt 0.6489362 0.25
vt 0.6382979 0.25
vt 0.5744681 0.1875
vt 0.5851064 0.1875
vt 0.5851064 0.25
vt 0.5744681 0.25
vt 0.606383 0.8125
vt 0.6170213 0.8125
vt 0.6170213 0.875
vt 0.606383 0.875
vt 0.6276596 0.8125
vt 0.6276596 0.875
vt 0.6382979 0.8125
vt 0.6382979 0.875
vt 0.606383 0.75
vt 0.6170213 0.75
vt 0.6276596 0.75
vt 0.6382979 0.75
vt 0.606383 0.6875
vt 0.6170213 0.6875
vt 0.6276596 0.6875
vt 0.6382979 0.6875
vt 0.606383 0.625
vt 0.6170213 0.625
vt 0.6276596 0.625
vt 0.6382979 0.625

# Normal
vn 0 0 -1

# Mesh description
g 2ScenarioPlataforma_mesh_0985

# Faces
f 1/1/1 2/2/1 3/3/1 4/4/1
f 5/5/1 6/6/1 7/7/1 8/8/1
f 9/1/1 10/2/1 11/3/1 12/4/1
f 13/9/1 14/1/1 15/4/1 16/10/1
f 17/6/1 18/11/1 19/12/1 20/7/1
f 21/13/1 22/14/1 23/15/1 24/16/1
f 25/17/1 26/18/1 27/19/1 28/20/1
f 29/11/1 30/21/1 31/22/1 32/12/1
f 33/23/1 34/5/1 35/8/1 36/24/1
f 37/18/1 38/25/1 39/26/1 40/19/1
f 41/13/1 42/14/1 43/15/1 44/16/1
f 45/27/1 46/17/1 47/20/1 48/28/1
f 49/29/1 50/30/1 51/31/1 52/32/1
f 53/33/1 54/34/1 55/35/1 56/36/1
f 57/29/1 58/30/1 59/31/1 60/32/1
f 61/14/1 62/27/1 63/28/1 64/15/1
f 65/37/1 66/38/1 67/39/1 68/40/1
f 69/37/1 70/38/1 71/39/1 72/40/1
f 73/37/1 74/38/1 75/39/1 76/40/1
f 77/37/1 78/38/1 79/39/1 80/40/1
f 81/37/1 82/38/1 83/39/1 84/40/1
f 85/37/1 86/38/1 87/39/1 88/40/1
f 89/37/1 90/38/1 91/39/1 92/40/1
f 93/38/1 94/41/1 95/42/1 96/39/1
f 97/41/1 98/43/1 99/44/1 100/42/1
f 101/37/1 102/38/1 103/39/1 104/40/1
f 105/37/1 106/38/1 107/39/1 108/40/1
f 109/37/1 110/38/1 111/39/1 112/40/1
f 113/37/1 114/38/1 115/39/1 116/40/1
f 117/37/1 118/38/1 119/39/1 120/40/1
f 121/37/1 122/38/1 123/39/1 124/40/1
f 125/37/1 126/38/1 127/39/1 128/40/1
f 129/45/1 130/46/1 131/38/1 132/37/1
f 133/45/1 134/46/1 135/38/1 136/37/1
f 137/45/1 138/46/1 139/38/1 140/37/1
f 141/45/1 142/46/1 143/38/1 144/37/1
f 145/45/1 146/46/1 147/38/1 148/37/1
f 149/45/1 150/46/1 151/38/1 152/37/1
f 153/45/1 154/46/1 155/38/1 156/37/1
f 157/46/1 158/47/1 159/41/1 160/38/1
f 161/47/1 162/48/1 163/43/1 164/41/1
f 165/45/1 166/46/1 167/38/1 168/37/1
f 169/45/1 170/46/1 171/38/1 172/37/1
f 173/45/1 174/46/1 175/38/1 176/37/1
f 177/45/1 178/46/1 179/38/1 180/37/1
f 181/45/1 182/46/1 183/38/1 184/37/1
f 185/45/1 186/46/1 187/38/1 188/37/1
f 189/45/1 190/46/1 191/38/1 192/37/1
f 193/49/1 194/50/1 195/46/1 196/45/1
f 197/49/1 198/50/1 199/46/1 200/45/1
f 201/49/1 202/50/1 203/46/1 204/45/1
f 205/49/1 206/50/1 207/46/1 208/45/1
f 209/49/1 210/50/1 211/46/1 212/45/1
f 213/49/1 214/50/1 215/46/1 216/45/1
f 217/49/1 218/50/1 219/46/1 220/45/1
f 221/50/1 222/51/1 223/47/1 224/46/1
f 225/51/1 226/52/1 227/48/1 228/47/1
f 229/49/1 230/50/1 231/46/1 232/45/1
f 233/49/1 234/50/1 235/46/1 236/45/1
f 237/49/1 238/50/1 239/46/1 240/45/1
f 241/49/1 242/50/1 243/46/1 244/45/1
f 245/49/1 246/50/1 247/46/1 248/45/1
f 249/49/1 250/50/1 251/46/1 252/45/1
f 253/49/1 254/50/1 255/46/1 256/45/1
f 257/53/1 258/54/1 259/50/1 260/49/1
f 261/53/1 262/54/1 263/50/1 264/49/1
f 265/53/1 266/54/1 267/50/1 268/49/1
f 269/53/1 270/54/1 271/50/1 272/49/1
f 273/53/1 274/54/1 275/50/1 276/49/1
f 277/53/1 278/54/1 279/50/1 280/49/1
f 281/53/1 282/54/1 283/50/1 284/49/1
f 285/54/1 286/55/1 287/51/1 288/50/1
f 289/55/1 290/56/1 291/52/1 292/51/1
f 293/53/1 294/54/1 295/50/1 296/49/1
f 297/53/1 298/54/1 299/50/1 300/49/1
f 301/53/1 302/54/1 303/50/1 304/49/1
f 305/53/1 306/54/1 307/50/1 308/49/1
f 309/53/1 310/54/1 311/50/1 312/49/1
f 313/53/1 314/54/1 315/50/1 316/49/1
f 317/53/1 318/54/1 319/50/1 320/49/1
f 321/41/1 322/43/1 323/44/1 324/42/1
f 325/37/1 326/38/1 327/39/1 328/40/1
f 329/38/1 330/41/1 331/42/1 332/39/1
f 333/41/1 334/43/1 335/44/1 336/42/1
f 337/37/1 338/38/1 339/39/1 340/40/1
f 341/38/1 342/41/1 343/42/1 344/39/1
f 345/41/1 346/43/1 347/44/1 348/42/1
f 349/37/1 350/38/1 351/39/1 352/40/1
f 353/38/1 354/41/1 355/42/1 356/39/1
f 357/41/1 358/43/1 359/44/1 360/42/1
f 361/37/1 362/38/1 363/39/1 364/40/1
f 365/38/1 366/41/1 367/42/1 368/39/1
f 369/41/1 370/43/1 371/44/1 372/42/1
f 373/37/1 374/38/1 375/39/1 376/40/1
f 377/38/1 378/41/1 379/42/1 380/39/1
f 381/41/1 382/43/1 383/44/1 384/42/1
f 385/47/1 386/48/1 387/43/1 388/41/1
f 389/45/1 390/46/1 391/38/1 392/37/1
f 393/46/1 394/47/1 395/41/1 396/38/1
f 397/47/1 398/48/1 399/43/1 400/41/1
f 401/45/1 402/46/1 403/38/1 404/37/1
f 405/46/1 406/47/1 407/41/1 408/38/1
f 409/47/1 410/48/1 411/43/1 412/41/1
f 413/45/1 414/46/1 415/38/1 416/37/1
f 417/46/1 418/47/1 419/41/1 420/38/1
f 421/47/1 422/48/1 423/43/1 424/41/1
f 425/45/1 426/46/1 427/38/1 428/37/1
f 429/46/1 430/47/1 431/41/1 432/38/1
f 433/47/1 434/48/1 435/43/1 436/41/1
f 437/45/1 438/46/1 439/38/1 440/37/1
f 441/46/1 442/47/1 443/41/1 444/38/1
f 445/47/1 446/48/1 447/43/1 448/41/1
f 449/51/1 450/52/1 451/48/1 452/47/1
f 453/49/1 454/50/1 455/46/1 456/45/1
f 457/50/1 458/51/1 459/47/1 460/46/1
f 461/51/1 462/52/1 463/48/1 464/47/1
f 465/49/1 466/50/1 467/46/1 468/45/1
f 469/50/1 470/51/1 471/47/1 472/46/1
f 473/51/1 474/52/1 475/48/1 476/47/1
f 477/49/1 478/50/1 479/46/1 480/45/1
f 481/50/1 482/51/1 483/47/1 484/46/1
f 485/51/1 486/52/1 487/48/1 488/47/1
f 489/49/1 490/50/1 491/46/1 492/45/1
f 493/50/1 494/51/1 495/47/1 496/46/1
f 497/51/1 498/52/1 499/48/1 500/47/1
f 501/49/1 502/50/1 503/46/1 504/45/1
f 505/50/1 506/51/1 507/47/1 508/46/1
f 509/51/1 510/52/1 511/48/1 512/47/1
f 513/55/1 514/56/1 515/52/1 516/51/1
f 517/53/1 518/54/1 519/50/1 520/49/1
f 521/54/1 522/55/1 523/51/1 524/50/1
f 525/55/1 526/56/1 527/52/1 528/51/1
f 529/53/1 530/54/1 531/50/1 532/49/1
f 533/54/1 534/55/1 535/51/1 536/50/1
f 537/55/1 538/56/1 539/52/1 540/51/1
f 541/53/1 542/54/1 543/50/1 544/49/1
f 545/54/1 546/55/1 547/51/1 548/50/1
f 549/55/1 550/56/1 551/52/1 552/51/1
f 553/53/1 554/54/1 555/50/1 556/49/1
f 557/54/1 558/55/1 559/51/1 560/50/1
f 561/55/1 562/56/1 563/52/1 564/51/1
f 565/53/1 566/54/1 567/50/1 568/49/1
f 569/54/1 570/55/1 571/51/1 572/50/1
f 573/55/1 574/56/1 575/52/1 576/51/1
f 577/41/1 578/43/1 579/44/1 580/42/1
f 581/37/1 582/38/1 583/39/1 584/40/1
f 585/38/1 586/41/1 587/42/1 588/39/1
f 589/41/1 590/43/1 591/44/1 592/42/1
f 593/37/1 594/38/1 595/39/1 596/40/1
f 597/38/1 598/41/1 599/42/1 600/39/1
f 601/41/1 602/43/1 603/44/1 604/42/1
f 605/37/1 606/38/1 607/39/1 608/40/1
f 609/38/1 610/41/1 611/42/1 612/39/1
f 613/41/1 614/43/1 615/44/1 616/42/1
f 617/37/1 618/38/1 619/39/1 620/40/1
f 621/38/1 622/41/1 623/42/1 624/39/1
f 625/41/1 626/43/1 627/44/1 628/42/1
f 629/37/1 630/38/1 631/39/1 632/40/1
f 633/38/1 634/41/1 635/42/1 636/39/1
f 637/41/1 638/43/1 639/44/1 640/42/1
f 641/47/1 642/48/1 643/43/1 644/41/1
f 645/45/1 646/46/1 647/38/1 648/37/1
f 649/46/1 650/47/1 651/41/1 652/38/1
f 653/47/1 654/48/1 655/43/1 656/41/1
f 657/45/1 658/46/1 659/38/1 660/37/1
f 661/46/1 662/47/1 663/41/1 664/38/1
f 665/47/1 666/48/1 667/43/1 668/41/1
f 669/45/1 670/46/1 671/38/1 672/37/1
f 673/46/1 674/47/1 675/41/1 676/38/1
f 677/47/1 678/48/1 679/43/1 680/41/1
f 681/45/1 682/46/1 683/38/1 684/37/1
f 685/46/1 686/47/1 687/41/1 688/38/1
f 689/47/1 690/48/1 691/43/1 692/41/1
f 693/45/1 694/46/1 695/38/1 696/37/1
f 697/46/1 698/47/1 699/41/1 700/38/1
f 701/47/1 702/48/1 703/43/1 704/41/1
f 705/37/1 706/38/1 707/39/1 708/40/1
f 709/37/1 710/38/1 711/39/1 712/40/1
f 713/37/1 714/38/1 715/39/1 716/40/1
f 717/37/1 718/38/1 719/39/1 720/40/1
f 721/37/1 722/38/1 723/39/1 724/40/1
f 725/37/1 726/38/1 727/39/1 728/40/1
f 729/37/1 730/38/1 731/39/1 732/40/1
f 733/37/1 734/38/1 735/39/1 736/40/1
f 737/37/1 738/38/1 739/39/1 740/40/1
f 741/37/1 742/38/1 743/39/1 744/40/1
f 745/37/1 746/38/1 747/39/1 748/40/1
f 749/37/1 750/38/1 751/39/1 752/40/1
f 753/37/1 754/38/1 755/39/1 756/40/1
f 757/37/1 758/38/1 759/39/1 760/40/1
f 761/37/1 762/38/1 763/39/1 764/40/1
f 765/37/1 766/38/1 767/39/1 768/40/1

