# Tiled2Unity generated file. Do not modify by hand.
# Wavefront file for '2ScenarioPlataforma_mesh_0942.obj'

# Vertices (Count = 1024)
v 0 -16 0
v -16 -16 0
v -16 0 0
v 0 0 0
v -16 -16 0
v -32 -16 0
v -32 0 0
v -16 0 0
v -32 -16 0
v -48 -16 0
v -48 0 0
v -32 0 0
v -48 -16 0
v -64 -16 0
v -64 0 0
v -48 0 0
v -64 -16 0
v -80 -16 0
v -80 0 0
v -64 0 0
v -80 -16 0
v -96 -16 0
v -96 0 0
v -80 0 0
v -96 -16 0
v -112 -16 0
v -112 0 0
v -96 0 0
v -112 -16 0
v -128 -16 0
v -128 0 0
v -112 0 0
v -128 -16 0
v -144 -16 0
v -144 0 0
v -128 0 0
v -144 -16 0
v -160 -16 0
v -160 0 0
v -144 0 0
v -160 -16 0
v -176 -16 0
v -176 0 0
v -160 0 0
v -176 -16 0
v -192 -16 0
v -192 0 0
v -176 0 0
v -192 -16 0
v -208 -16 0
v -208 0 0
v -192 0 0
v -208 -16 0
v -224 -16 0
v -224 0 0
v -208 0 0
v -224 -16 0
v -240 -16 0
v -240 0 0
v -224 0 0
v -240 -16 0
v -256 -16 0
v -256 0 0
v -240 0 0
v 0 -32 0
v -16 -32 0
v -16 -16 0
v 0 -16 0
v -16 -32 0
v -32 -32 0
v -32 -16 0
v -16 -16 0
v -32 -32 0
v -48 -32 0
v -48 -16 0
v -32 -16 0
v -48 -32 0
v -64 -32 0
v -64 -16 0
v -48 -16 0
v -64 -32 0
v -80 -32 0
v -80 -16 0
v -64 -16 0
v -80 -32 0
v -96 -32 0
v -96 -16 0
v -80 -16 0
v -96 -32 0
v -112 -32 0
v -112 -16 0
v -96 -16 0
v -112 -32 0
v -128 -32 0
v -128 -16 0
v -112 -16 0
v -128 -32 0
v -144 -32 0
v -144 -16 0
v -128 -16 0
v -144 -32 0
v -160 -32 0
v -160 -16 0
v -144 -16 0
v -160 -32 0
v -176 -32 0
v -176 -16 0
v -160 -16 0
v -176 -32 0
v -192 -32 0
v -192 -16 0
v -176 -16 0
v -192 -32 0
v -208 -32 0
v -208 -16 0
v -192 -16 0
v -208 -32 0
v -224 -32 0
v -224 -16 0
v -208 -16 0
v -224 -32 0
v -240 -32 0
v -240 -16 0
v -224 -16 0
v -240 -32 0
v -256 -32 0
v -256 -16 0
v -240 -16 0
v 0 -48 0
v -16 -48 0
v -16 -32 0
v 0 -32 0
v -16 -48 0
v -32 -48 0
v -32 -32 0
v -16 -32 0
v -32 -48 0
v -48 -48 0
v -48 -32 0
v -32 -32 0
v -48 -48 0
v -64 -48 0
v -64 -32 0
v -48 -32 0
v -64 -48 0
v -80 -48 0
v -80 -32 0
v -64 -32 0
v -80 -48 0
v -96 -48 0
v -96 -32 0
v -80 -32 0
v -96 -48 0
v -112 -48 0
v -112 -32 0
v -96 -32 0
v -112 -48 0
v -128 -48 0
v -128 -32 0
v -112 -32 0
v -128 -48 0
v -144 -48 0
v -144 -32 0
v -128 -32 0
v -144 -48 0
v -160 -48 0
v -160 -32 0
v -144 -32 0
v -160 -48 0
v -176 -48 0
v -176 -32 0
v -160 -32 0
v -176 -48 0
v -192 -48 0
v -192 -32 0
v -176 -32 0
v -192 -48 0
v -208 -48 0
v -208 -32 0
v -192 -32 0
v -208 -48 0
v -224 -48 0
v -224 -32 0
v -208 -32 0
v -224 -48 0
v -240 -48 0
v -240 -32 0
v -224 -32 0
v -240 -48 0
v -256 -48 0
v -256 -32 0
v -240 -32 0
v 0 -64 0
v -16 -64 0
v -16 -48 0
v 0 -48 0
v -16 -64 0
v -32 -64 0
v -32 -48 0
v -16 -48 0
v -32 -64 0
v -48 -64 0
v -48 -48 0
v -32 -48 0
v -48 -64 0
v -64 -64 0
v -64 -48 0
v -48 -48 0
v -64 -64 0
v -80 -64 0
v -80 -48 0
v -64 -48 0
v -80 -64 0
v -96 -64 0
v -96 -48 0
v -80 -48 0
v -96 -64 0
v -112 -64 0
v -112 -48 0
v -96 -48 0
v -112 -64 0
v -128 -64 0
v -128 -48 0
v -112 -48 0
v -128 -64 0
v -144 -64 0
v -144 -48 0
v -128 -48 0
v -144 -64 0
v -160 -64 0
v -160 -48 0
v -144 -48 0
v -160 -64 0
v -176 -64 0
v -176 -48 0
v -160 -48 0
v -176 -64 0
v -192 -64 0
v -192 -48 0
v -176 -48 0
v -192 -64 0
v -208 -64 0
v -208 -48 0
v -192 -48 0
v -208 -64 0
v -224 -64 0
v -224 -48 0
v -208 -48 0
v -224 -64 0
v -240 -64 0
v -240 -48 0
v -224 -48 0
v -240 -64 0
v -256 -64 0
v -256 -48 0
v -240 -48 0
v 0 -80 0
v -16 -80 0
v -16 -64 0
v 0 -64 0
v -16 -80 0
v -32 -80 0
v -32 -64 0
v -16 -64 0
v -32 -80 0
v -48 -80 0
v -48 -64 0
v -32 -64 0
v -48 -80 0
v -64 -80 0
v -64 -64 0
v -48 -64 0
v -64 -80 0
v -80 -80 0
v -80 -64 0
v -64 -64 0
v -80 -80 0
v -96 -80 0
v -96 -64 0
v -80 -64 0
v -96 -80 0
v -112 -80 0
v -112 -64 0
v -96 -64 0
v -112 -80 0
v -128 -80 0
v -128 -64 0
v -112 -64 0
v -128 -80 0
v -144 -80 0
v -144 -64 0
v -128 -64 0
v -144 -80 0
v -160 -80 0
v -160 -64 0
v -144 -64 0
v -160 -80 0
v -176 -80 0
v -176 -64 0
v -160 -64 0
v -176 -80 0
v -192 -80 0
v -192 -64 0
v -176 -64 0
v -192 -80 0
v -208 -80 0
v -208 -64 0
v -192 -64 0
v -208 -80 0
v -224 -80 0
v -224 -64 0
v -208 -64 0
v -224 -80 0
v -240 -80 0
v -240 -64 0
v -224 -64 0
v -240 -80 0
v -256 -80 0
v -256 -64 0
v -240 -64 0
v 0 -96 0
v -16 -96 0
v -16 -80 0
v 0 -80 0
v -16 -96 0
v -32 -96 0
v -32 -80 0
v -16 -80 0
v -32 -96 0
v -48 -96 0
v -48 -80 0
v -32 -80 0
v -48 -96 0
v -64 -96 0
v -64 -80 0
v -48 -80 0
v -64 -96 0
v -80 -96 0
v -80 -80 0
v -64 -80 0
v -80 -96 0
v -96 -96 0
v -96 -80 0
v -80 -80 0
v -96 -96 0
v -112 -96 0
v -112 -80 0
v -96 -80 0
v -112 -96 0
v -128 -96 0
v -128 -80 0
v -112 -80 0
v -128 -96 0
v -144 -96 0
v -144 -80 0
v -128 -80 0
v -144 -96 0
v -160 -96 0
v -160 -80 0
v -144 -80 0
v -160 -96 0
v -176 -96 0
v -176 -80 0
v -160 -80 0
v -176 -96 0
v -192 -96 0
v -192 -80 0
v -176 -80 0
v -192 -96 0
v -208 -96 0
v -208 -80 0
v -192 -80 0
v -208 -96 0
v -224 -96 0
v -224 -80 0
v -208 -80 0
v -224 -96 0
v -240 -96 0
v -240 -80 0
v -224 -80 0
v -240 -96 0
v -256 -96 0
v -256 -80 0
v -240 -80 0
v 0 -112 0
v -16 -112 0
v -16 -96 0
v 0 -96 0
v -16 -112 0
v -32 -112 0
v -32 -96 0
v -16 -96 0
v -32 -112 0
v -48 -112 0
v -48 -96 0
v -32 -96 0
v -48 -112 0
v -64 -112 0
v -64 -96 0
v -48 -96 0
v -64 -112 0
v -80 -112 0
v -80 -96 0
v -64 -96 0
v -80 -112 0
v -96 -112 0
v -96 -96 0
v -80 -96 0
v -96 -112 0
v -112 -112 0
v -112 -96 0
v -96 -96 0
v -112 -112 0
v -128 -112 0
v -128 -96 0
v -112 -96 0
v -128 -112 0
v -144 -112 0
v -144 -96 0
v -128 -96 0
v -144 -112 0
v -160 -112 0
v -160 -96 0
v -144 -96 0
v -160 -112 0
v -176 -112 0
v -176 -96 0
v -160 -96 0
v -176 -112 0
v -192 -112 0
v -192 -96 0
v -176 -96 0
v -192 -112 0
v -208 -112 0
v -208 -96 0
v -192 -96 0
v -208 -112 0
v -224 -112 0
v -224 -96 0
v -208 -96 0
v -224 -112 0
v -240 -112 0
v -240 -96 0
v -224 -96 0
v -240 -112 0
v -256 -112 0
v -256 -96 0
v -240 -96 0
v 0 -128 0
v -16 -128 0
v -16 -112 0
v 0 -112 0
v -16 -128 0
v -32 -128 0
v -32 -112 0
v -16 -112 0
v -32 -128 0
v -48 -128 0
v -48 -112 0
v -32 -112 0
v -48 -128 0
v -64 -128 0
v -64 -112 0
v -48 -112 0
v -64 -128 0
v -80 -128 0
v -80 -112 0
v -64 -112 0
v -80 -128 0
v -96 -128 0
v -96 -112 0
v -80 -112 0
v -96 -128 0
v -112 -128 0
v -112 -112 0
v -96 -112 0
v -112 -128 0
v -128 -128 0
v -128 -112 0
v -112 -112 0
v -128 -128 0
v -144 -128 0
v -144 -112 0
v -128 -112 0
v -144 -128 0
v -160 -128 0
v -160 -112 0
v -144 -112 0
v -160 -128 0
v -176 -128 0
v -176 -112 0
v -160 -112 0
v -176 -128 0
v -192 -128 0
v -192 -112 0
v -176 -112 0
v -192 -128 0
v -208 -128 0
v -208 -112 0
v -192 -112 0
v -208 -128 0
v -224 -128 0
v -224 -112 0
v -208 -112 0
v -224 -128 0
v -240 -128 0
v -240 -112 0
v -224 -112 0
v -240 -128 0
v -256 -128 0
v -256 -112 0
v -240 -112 0
v 0 -144 0
v -16 -144 0
v -16 -128 0
v 0 -128 0
v -16 -144 0
v -32 -144 0
v -32 -128 0
v -16 -128 0
v -32 -144 0
v -48 -144 0
v -48 -128 0
v -32 -128 0
v -48 -144 0
v -64 -144 0
v -64 -128 0
v -48 -128 0
v -64 -144 0
v -80 -144 0
v -80 -128 0
v -64 -128 0
v -80 -144 0
v -96 -144 0
v -96 -128 0
v -80 -128 0
v -96 -144 0
v -112 -144 0
v -112 -128 0
v -96 -128 0
v -112 -144 0
v -128 -144 0
v -128 -128 0
v -112 -128 0
v -128 -144 0
v -144 -144 0
v -144 -128 0
v -128 -128 0
v -144 -144 0
v -160 -144 0
v -160 -128 0
v -144 -128 0
v -160 -144 0
v -176 -144 0
v -176 -128 0
v -160 -128 0
v -176 -144 0
v -192 -144 0
v -192 -128 0
v -176 -128 0
v -192 -144 0
v -208 -144 0
v -208 -128 0
v -192 -128 0
v -208 -144 0
v -224 -144 0
v -224 -128 0
v -208 -128 0
v -224 -144 0
v -240 -144 0
v -240 -128 0
v -224 -128 0
v -240 -144 0
v -256 -144 0
v -256 -128 0
v -240 -128 0
v 0 -160 0
v -16 -160 0
v -16 -144 0
v 0 -144 0
v -16 -160 0
v -32 -160 0
v -32 -144 0
v -16 -144 0
v -32 -160 0
v -48 -160 0
v -48 -144 0
v -32 -144 0
v -48 -160 0
v -64 -160 0
v -64 -144 0
v -48 -144 0
v -64 -160 0
v -80 -160 0
v -80 -144 0
v -64 -144 0
v -80 -160 0
v -96 -160 0
v -96 -144 0
v -80 -144 0
v -96 -160 0
v -112 -160 0
v -112 -144 0
v -96 -144 0
v -112 -160 0
v -128 -160 0
v -128 -144 0
v -112 -144 0
v -128 -160 0
v -144 -160 0
v -144 -144 0
v -128 -144 0
v -144 -160 0
v -160 -160 0
v -160 -144 0
v -144 -144 0
v -160 -160 0
v -176 -160 0
v -176 -144 0
v -160 -144 0
v -176 -160 0
v -192 -160 0
v -192 -144 0
v -176 -144 0
v -192 -160 0
v -208 -160 0
v -208 -144 0
v -192 -144 0
v -208 -160 0
v -224 -160 0
v -224 -144 0
v -208 -144 0
v -224 -160 0
v -240 -160 0
v -240 -144 0
v -224 -144 0
v -240 -160 0
v -256 -160 0
v -256 -144 0
v -240 -144 0
v 0 -176 0
v -16 -176 0
v -16 -160 0
v 0 -160 0
v -16 -176 0
v -32 -176 0
v -32 -160 0
v -16 -160 0
v -32 -176 0
v -48 -176 0
v -48 -160 0
v -32 -160 0
v -48 -176 0
v -64 -176 0
v -64 -160 0
v -48 -160 0
v -64 -176 0
v -80 -176 0
v -80 -160 0
v -64 -160 0
v -80 -176 0
v -96 -176 0
v -96 -160 0
v -80 -160 0
v -96 -176 0
v -112 -176 0
v -112 -160 0
v -96 -160 0
v -112 -176 0
v -128 -176 0
v -128 -160 0
v -112 -160 0
v -128 -176 0
v -144 -176 0
v -144 -160 0
v -128 -160 0
v -144 -176 0
v -160 -176 0
v -160 -160 0
v -144 -160 0
v -160 -176 0
v -176 -176 0
v -176 -160 0
v -160 -160 0
v -176 -176 0
v -192 -176 0
v -192 -160 0
v -176 -160 0
v -192 -176 0
v -208 -176 0
v -208 -160 0
v -192 -160 0
v -208 -176 0
v -224 -176 0
v -224 -160 0
v -208 -160 0
v -224 -176 0
v -240 -176 0
v -240 -160 0
v -224 -160 0
v -240 -176 0
v -256 -176 0
v -256 -160 0
v -240 -160 0
v 0 -192 0
v -16 -192 0
v -16 -176 0
v 0 -176 0
v -16 -192 0
v -32 -192 0
v -32 -176 0
v -16 -176 0
v -32 -192 0
v -48 -192 0
v -48 -176 0
v -32 -176 0
v -48 -192 0
v -64 -192 0
v -64 -176 0
v -48 -176 0
v -64 -192 0
v -80 -192 0
v -80 -176 0
v -64 -176 0
v -80 -192 0
v -96 -192 0
v -96 -176 0
v -80 -176 0
v -96 -192 0
v -112 -192 0
v -112 -176 0
v -96 -176 0
v -112 -192 0
v -128 -192 0
v -128 -176 0
v -112 -176 0
v -128 -192 0
v -144 -192 0
v -144 -176 0
v -128 -176 0
v -144 -192 0
v -160 -192 0
v -160 -176 0
v -144 -176 0
v -160 -192 0
v -176 -192 0
v -176 -176 0
v -160 -176 0
v -176 -192 0
v -192 -192 0
v -192 -176 0
v -176 -176 0
v -192 -192 0
v -208 -192 0
v -208 -176 0
v -192 -176 0
v -208 -192 0
v -224 -192 0
v -224 -176 0
v -208 -176 0
v -224 -192 0
v -240 -192 0
v -240 -176 0
v -224 -176 0
v -240 -192 0
v -256 -192 0
v -256 -176 0
v -240 -176 0
v 0 -208 0
v -16 -208 0
v -16 -192 0
v 0 -192 0
v -16 -208 0
v -32 -208 0
v -32 -192 0
v -16 -192 0
v -32 -208 0
v -48 -208 0
v -48 -192 0
v -32 -192 0
v -48 -208 0
v -64 -208 0
v -64 -192 0
v -48 -192 0
v -64 -208 0
v -80 -208 0
v -80 -192 0
v -64 -192 0
v -80 -208 0
v -96 -208 0
v -96 -192 0
v -80 -192 0
v -96 -208 0
v -112 -208 0
v -112 -192 0
v -96 -192 0
v -112 -208 0
v -128 -208 0
v -128 -192 0
v -112 -192 0
v -128 -208 0
v -144 -208 0
v -144 -192 0
v -128 -192 0
v -144 -208 0
v -160 -208 0
v -160 -192 0
v -144 -192 0
v -160 -208 0
v -176 -208 0
v -176 -192 0
v -160 -192 0
v -176 -208 0
v -192 -208 0
v -192 -192 0
v -176 -192 0
v -192 -208 0
v -208 -208 0
v -208 -192 0
v -192 -192 0
v -208 -208 0
v -224 -208 0
v -224 -192 0
v -208 -192 0
v -224 -208 0
v -240 -208 0
v -240 -192 0
v -224 -192 0
v -240 -208 0
v -256 -208 0
v -256 -192 0
v -240 -192 0
v 0 -224 0
v -16 -224 0
v -16 -208 0
v 0 -208 0
v -16 -224 0
v -32 -224 0
v -32 -208 0
v -16 -208 0
v -32 -224 0
v -48 -224 0
v -48 -208 0
v -32 -208 0
v -48 -224 0
v -64 -224 0
v -64 -208 0
v -48 -208 0
v -64 -224 0
v -80 -224 0
v -80 -208 0
v -64 -208 0
v -80 -224 0
v -96 -224 0
v -96 -208 0
v -80 -208 0
v -96 -224 0
v -112 -224 0
v -112 -208 0
v -96 -208 0
v -112 -224 0
v -128 -224 0
v -128 -208 0
v -112 -208 0
v -128 -224 0
v -144 -224 0
v -144 -208 0
v -128 -208 0
v -144 -224 0
v -160 -224 0
v -160 -208 0
v -144 -208 0
v -160 -224 0
v -176 -224 0
v -176 -208 0
v -160 -208 0
v -176 -224 0
v -192 -224 0
v -192 -208 0
v -176 -208 0
v -192 -224 0
v -208 -224 0
v -208 -208 0
v -192 -208 0
v -208 -224 0
v -224 -224 0
v -224 -208 0
v -208 -208 0
v -224 -224 0
v -240 -224 0
v -240 -208 0
v -224 -208 0
v -240 -224 0
v -256 -224 0
v -256 -208 0
v -240 -208 0
v 0 -240 0
v -16 -240 0
v -16 -224 0
v 0 -224 0
v -16 -240 0
v -32 -240 0
v -32 -224 0
v -16 -224 0
v -32 -240 0
v -48 -240 0
v -48 -224 0
v -32 -224 0
v -48 -240 0
v -64 -240 0
v -64 -224 0
v -48 -224 0
v -64 -240 0
v -80 -240 0
v -80 -224 0
v -64 -224 0
v -80 -240 0
v -96 -240 0
v -96 -224 0
v -80 -224 0
v -96 -240 0
v -112 -240 0
v -112 -224 0
v -96 -224 0
v -112 -240 0
v -128 -240 0
v -128 -224 0
v -112 -224 0
v -128 -240 0
v -144 -240 0
v -144 -224 0
v -128 -224 0
v -144 -240 0
v -160 -240 0
v -160 -224 0
v -144 -224 0
v -160 -240 0
v -176 -240 0
v -176 -224 0
v -160 -224 0
v -176 -240 0
v -192 -240 0
v -192 -224 0
v -176 -224 0
v -192 -240 0
v -208 -240 0
v -208 -224 0
v -192 -224 0
v -208 -240 0
v -224 -240 0
v -224 -224 0
v -208 -224 0
v -224 -240 0
v -240 -240 0
v -240 -224 0
v -224 -224 0
v -240 -240 0
v -256 -240 0
v -256 -224 0
v -240 -224 0
v 0 -256 0
v -16 -256 0
v -16 -240 0
v 0 -240 0
v -16 -256 0
v -32 -256 0
v -32 -240 0
v -16 -240 0
v -32 -256 0
v -48 -256 0
v -48 -240 0
v -32 -240 0
v -48 -256 0
v -64 -256 0
v -64 -240 0
v -48 -240 0
v -64 -256 0
v -80 -256 0
v -80 -240 0
v -64 -240 0
v -80 -256 0
v -96 -256 0
v -96 -240 0
v -80 -240 0
v -96 -256 0
v -112 -256 0
v -112 -240 0
v -96 -240 0
v -112 -256 0
v -128 -256 0
v -128 -240 0
v -112 -240 0
v -128 -256 0
v -144 -256 0
v -144 -240 0
v -128 -240 0
v -144 -256 0
v -160 -256 0
v -160 -240 0
v -144 -240 0
v -160 -256 0
v -176 -256 0
v -176 -240 0
v -160 -240 0
v -176 -256 0
v -192 -256 0
v -192 -240 0
v -176 -240 0
v -192 -256 0
v -208 -256 0
v -208 -240 0
v -192 -240 0
v -208 -256 0
v -224 -256 0
v -224 -240 0
v -208 -240 0
v -224 -256 0
v -240 -256 0
v -240 -240 0
v -224 -240 0
v -240 -256 0
v -256 -256 0
v -256 -240 0
v -240 -240 0

# Texture cooridinates (Count = 50)
vt 0.6276596 0.625
vt 0.6382979 0.625
vt 0.6382979 0.6875
vt 0.6276596 0.6875
vt 0.606383 0.625
vt 0.6170213 0.625
vt 0.6170213 0.6875
vt 0.606383 0.6875
vt 0.606383 0.8125
vt 0.6170213 0.8125
vt 0.6170213 0.875
vt 0.606383 0.875
vt 0.6276596 0.8125
vt 0.6276596 0.875
vt 0.6382979 0.8125
vt 0.6382979 0.875
vt 0.3297872 0.125
vt 0.3297872 0.1875
vt 0.3191489 0.1875
vt 0.3191489 0.125
vt 0.3085106 0.1875
vt 0.3085106 0.125
vt 0.6276596 0.75
vt 0.6382979 0.75
vt 0.606383 0.75
vt 0.6170213 0.75
vt 0.3829787 0.625
vt 0.3829787 0.6875
vt 0.3723404 0.6875
vt 0.3723404 0.625
vt 0.3404255 0.125
vt 0.3404255 0.1875
vt 0.3510638 0.125
vt 0.3510638 0.1875
vt 0.4148936 0.625
vt 0.4148936 0.6875
vt 0.4042553 0.6875
vt 0.4042553 0.625
vt 0.2978723 0.1875
vt 0.2978723 0.125
vt 0.393617 0.125
vt 0.393617 0.1875
vt 0.3829787 0.1875
vt 0.3829787 0.125
vt 0.3723404 0.1875
vt 0.3723404 0.125
vt 0.3617021 0.125
vt 0.3617021 0.1875
vt 0.393617 0.625
vt 0.393617 0.6875

# Normal
vn 0 0 -1

# Mesh description
g 2ScenarioPlataforma_mesh_0942

# Faces
f 1/1/1 2/2/1 3/3/1 4/4/1
f 5/5/1 6/6/1 7/7/1 8/8/1
f 9/6/1 10/1/1 11/4/1 12/7/1
f 13/1/1 14/2/1 15/3/1 16/4/1
f 17/5/1 18/6/1 19/7/1 20/8/1
f 21/6/1 22/1/1 23/4/1 24/7/1
f 25/1/1 26/2/1 27/3/1 28/4/1
f 29/5/1 30/6/1 31/7/1 32/8/1
f 33/6/1 34/1/1 35/4/1 36/7/1
f 37/1/1 38/2/1 39/3/1 40/4/1
f 41/5/1 42/6/1 43/7/1 44/8/1
f 45/6/1 46/1/1 47/4/1 48/7/1
f 49/9/1 50/10/1 51/11/1 52/12/1
f 53/10/1 54/13/1 55/14/1 56/11/1
f 57/13/1 58/15/1 59/16/1 60/14/1
f 61/17/1 62/18/1 63/19/1 64/20/1
f 65/13/1 66/15/1 67/16/1 68/14/1
f 69/9/1 70/10/1 71/11/1 72/12/1
f 73/10/1 74/13/1 75/14/1 76/11/1
f 77/13/1 78/15/1 79/16/1 80/14/1
f 81/9/1 82/10/1 83/11/1 84/12/1
f 85/10/1 86/13/1 87/14/1 88/11/1
f 89/13/1 90/15/1 91/16/1 92/14/1
f 93/9/1 94/10/1 95/11/1 96/12/1
f 97/10/1 98/13/1 99/14/1 100/11/1
f 101/13/1 102/15/1 103/16/1 104/14/1
f 105/9/1 106/10/1 107/11/1 108/12/1
f 109/10/1 110/13/1 111/14/1 112/11/1
f 113/9/1 114/10/1 115/11/1 116/12/1
f 117/10/1 118/13/1 119/14/1 120/11/1
f 121/13/1 122/15/1 123/16/1 124/14/1
f 125/20/1 126/19/1 127/21/1 128/22/1
f 129/23/1 130/24/1 131/15/1 132/13/1
f 133/25/1 134/26/1 135/10/1 136/9/1
f 137/26/1 138/23/1 139/13/1 140/10/1
f 141/23/1 142/24/1 143/15/1 144/13/1
f 145/25/1 146/26/1 147/10/1 148/9/1
f 149/26/1 150/23/1 151/13/1 152/10/1
f 153/23/1 154/24/1 155/15/1 156/13/1
f 157/25/1 158/26/1 159/10/1 160/9/1
f 161/26/1 162/23/1 163/13/1 164/10/1
f 165/23/1 166/24/1 167/15/1 168/13/1
f 169/25/1 170/26/1 171/10/1 172/9/1
f 173/26/1 174/23/1 175/13/1 176/10/1
f 177/9/1 178/10/1 179/11/1 180/12/1
f 181/10/1 182/13/1 183/14/1 184/11/1
f 185/13/1 186/15/1 187/16/1 188/14/1
f 189/27/1 190/28/1 191/29/1 192/30/1
f 193/4/1 194/3/1 195/24/1 196/23/1
f 197/8/1 198/7/1 199/26/1 200/25/1
f 201/7/1 202/4/1 203/23/1 204/26/1
f 205/4/1 206/3/1 207/24/1 208/23/1
f 209/8/1 210/7/1 211/26/1 212/25/1
f 213/7/1 214/4/1 215/23/1 216/26/1
f 217/4/1 218/3/1 219/24/1 220/23/1
f 221/8/1 222/7/1 223/26/1 224/25/1
f 225/7/1 226/4/1 227/23/1 228/26/1
f 229/4/1 230/3/1 231/24/1 232/23/1
f 233/8/1 234/7/1 235/26/1 236/25/1
f 237/7/1 238/4/1 239/23/1 240/26/1
f 241/9/1 242/10/1 243/11/1 244/12/1
f 245/10/1 246/13/1 247/14/1 248/11/1
f 249/13/1 250/15/1 251/16/1 252/14/1
f 253/31/1 254/32/1 255/18/1 256/17/1
f 257/1/1 258/2/1 259/3/1 260/4/1
f 261/5/1 262/6/1 263/7/1 264/8/1
f 265/6/1 266/1/1 267/4/1 268/7/1
f 269/1/1 270/2/1 271/3/1 272/4/1
f 273/5/1 274/6/1 275/7/1 276/8/1
f 277/6/1 278/1/1 279/4/1 280/7/1
f 281/1/1 282/2/1 283/3/1 284/4/1
f 285/5/1 286/6/1 287/7/1 288/8/1
f 289/6/1 290/1/1 291/4/1 292/7/1
f 293/1/1 294/2/1 295/3/1 296/4/1
f 297/5/1 298/6/1 299/7/1 300/8/1
f 301/6/1 302/1/1 303/4/1 304/7/1
f 305/9/1 306/10/1 307/11/1 308/12/1
f 309/10/1 310/13/1 311/14/1 312/11/1
f 313/13/1 314/15/1 315/16/1 316/14/1
f 317/33/1 318/34/1 319/32/1 320/31/1
f 321/13/1 322/15/1 323/16/1 324/14/1
f 325/9/1 326/10/1 327/11/1 328/12/1
f 329/10/1 330/13/1 331/14/1 332/11/1
f 333/13/1 334/15/1 335/16/1 336/14/1
f 337/9/1 338/10/1 339/11/1 340/12/1
f 341/10/1 342/13/1 343/14/1 344/11/1
f 345/13/1 346/15/1 347/16/1 348/14/1
f 349/9/1 350/10/1 351/11/1 352/12/1
f 353/10/1 354/13/1 355/14/1 356/11/1
f 357/13/1 358/15/1 359/16/1 360/14/1
f 361/9/1 362/10/1 363/11/1 364/12/1
f 365/10/1 366/13/1 367/14/1 368/11/1
f 369/9/1 370/10/1 371/11/1 372/12/1
f 373/10/1 374/13/1 375/14/1 376/11/1
f 377/13/1 378/15/1 379/16/1 380/14/1
f 381/35/1 382/36/1 383/37/1 384/38/1
f 385/23/1 386/24/1 387/15/1 388/13/1
f 389/25/1 390/26/1 391/10/1 392/9/1
f 393/26/1 394/23/1 395/13/1 396/10/1
f 397/23/1 398/24/1 399/15/1 400/13/1
f 401/25/1 402/26/1 403/10/1 404/9/1
f 405/26/1 406/23/1 407/13/1 408/10/1
f 409/23/1 410/24/1 411/15/1 412/13/1
f 413/25/1 414/26/1 415/10/1 416/9/1
f 417/26/1 418/23/1 419/13/1 420/10/1
f 421/23/1 422/24/1 423/15/1 424/13/1
f 425/25/1 426/26/1 427/10/1 428/9/1
f 429/26/1 430/23/1 431/13/1 432/10/1
f 433/9/1 434/10/1 435/11/1 436/12/1
f 437/10/1 438/13/1 439/14/1 440/11/1
f 441/13/1 442/15/1 443/16/1 444/14/1
f 445/22/1 446/21/1 447/39/1 448/40/1
f 449/4/1 450/3/1 451/24/1 452/23/1
f 453/8/1 454/7/1 455/26/1 456/25/1
f 457/7/1 458/4/1 459/23/1 460/26/1
f 461/4/1 462/3/1 463/24/1 464/23/1
f 465/8/1 466/7/1 467/26/1 468/25/1
f 469/7/1 470/4/1 471/23/1 472/26/1
f 473/4/1 474/3/1 475/24/1 476/23/1
f 477/8/1 478/7/1 479/26/1 480/25/1
f 481/7/1 482/4/1 483/23/1 484/26/1
f 485/4/1 486/3/1 487/24/1 488/23/1
f 489/8/1 490/7/1 491/26/1 492/25/1
f 493/7/1 494/4/1 495/23/1 496/26/1
f 497/9/1 498/10/1 499/11/1 500/12/1
f 501/10/1 502/13/1 503/14/1 504/11/1
f 505/13/1 506/15/1 507/16/1 508/14/1
f 509/17/1 510/18/1 511/19/1 512/20/1
f 513/1/1 514/2/1 515/3/1 516/4/1
f 517/5/1 518/6/1 519/7/1 520/8/1
f 521/6/1 522/1/1 523/4/1 524/7/1
f 525/1/1 526/2/1 527/3/1 528/4/1
f 529/5/1 530/6/1 531/7/1 532/8/1
f 533/6/1 534/1/1 535/4/1 536/7/1
f 537/1/1 538/2/1 539/3/1 540/4/1
f 541/5/1 542/6/1 543/7/1 544/8/1
f 545/6/1 546/1/1 547/4/1 548/7/1
f 549/1/1 550/2/1 551/3/1 552/4/1
f 553/5/1 554/6/1 555/7/1 556/8/1
f 557/9/1 558/10/1 559/11/1 560/12/1
f 561/10/1 562/13/1 563/14/1 564/11/1
f 565/13/1 566/15/1 567/16/1 568/14/1
f 569/13/1 570/15/1 571/16/1 572/14/1
f 573/41/1 574/42/1 575/43/1 576/44/1
f 577/13/1 578/15/1 579/16/1 580/14/1
f 581/9/1 582/10/1 583/11/1 584/12/1
f 585/10/1 586/13/1 587/14/1 588/11/1
f 589/13/1 590/15/1 591/16/1 592/14/1
f 593/9/1 594/10/1 595/11/1 596/12/1
f 597/10/1 598/13/1 599/14/1 600/11/1
f 601/13/1 602/15/1 603/16/1 604/14/1
f 605/9/1 606/10/1 607/11/1 608/12/1
f 609/10/1 610/13/1 611/14/1 612/11/1
f 613/13/1 614/15/1 615/16/1 616/14/1
f 617/9/1 618/10/1 619/11/1 620/12/1
f 621/9/1 622/10/1 623/11/1 624/12/1
f 625/10/1 626/13/1 627/14/1 628/11/1
f 629/13/1 630/15/1 631/16/1 632/14/1
f 633/23/1 634/24/1 635/15/1 636/13/1
f 637/44/1 638/43/1 639/45/1 640/46/1
f 641/23/1 642/24/1 643/15/1 644/13/1
f 645/25/1 646/26/1 647/10/1 648/9/1
f 649/26/1 650/23/1 651/13/1 652/10/1
f 653/23/1 654/24/1 655/15/1 656/13/1
f 657/25/1 658/26/1 659/10/1 660/9/1
f 661/26/1 662/23/1 663/13/1 664/10/1
f 665/23/1 666/24/1 667/15/1 668/13/1
f 669/25/1 670/26/1 671/10/1 672/9/1
f 673/26/1 674/23/1 675/13/1 676/10/1
f 677/23/1 678/24/1 679/15/1 680/13/1
f 681/25/1 682/26/1 683/10/1 684/9/1
f 685/9/1 686/10/1 687/11/1 688/12/1
f 689/10/1 690/13/1 691/14/1 692/11/1
f 693/13/1 694/15/1 695/16/1 696/14/1
f 697/4/1 698/3/1 699/24/1 700/23/1
f 701/47/1 702/48/1 703/34/1 704/33/1
f 705/4/1 706/3/1 707/24/1 708/23/1
f 709/8/1 710/7/1 711/26/1 712/25/1
f 713/7/1 714/4/1 715/23/1 716/26/1
f 717/4/1 718/3/1 719/24/1 720/23/1
f 721/8/1 722/7/1 723/26/1 724/25/1
f 725/7/1 726/4/1 727/23/1 728/26/1
f 729/4/1 730/3/1 731/24/1 732/23/1
f 733/8/1 734/7/1 735/26/1 736/25/1
f 737/7/1 738/4/1 739/23/1 740/26/1
f 741/4/1 742/3/1 743/24/1 744/23/1
f 745/8/1 746/7/1 747/26/1 748/25/1
f 749/9/1 750/10/1 751/11/1 752/12/1
f 753/10/1 754/13/1 755/14/1 756/11/1
f 757/13/1 758/15/1 759/16/1 760/14/1
f 761/1/1 762/2/1 763/3/1 764/4/1
f 765/49/1 766/50/1 767/28/1 768/27/1
f 769/1/1 770/2/1 771/3/1 772/4/1
f 773/5/1 774/6/1 775/7/1 776/8/1
f 777/6/1 778/1/1 779/4/1 780/7/1
f 781/1/1 782/2/1 783/3/1 784/4/1
f 785/5/1 786/6/1 787/7/1 788/8/1
f 789/6/1 790/1/1 791/4/1 792/7/1
f 793/1/1 794/2/1 795/3/1 796/4/1
f 797/5/1 798/6/1 799/7/1 800/8/1
f 801/6/1 802/1/1 803/4/1 804/7/1
f 805/1/1 806/2/1 807/3/1 808/4/1
f 809/5/1 810/6/1 811/7/1 812/8/1
f 813/9/1 814/10/1 815/11/1 816/12/1
f 817/9/1 818/10/1 819/11/1 820/12/1
f 821/10/1 822/13/1 823/14/1 824/11/1
f 825/13/1 826/15/1 827/16/1 828/14/1
f 829/17/1 830/18/1 831/19/1 832/20/1
f 833/13/1 834/15/1 835/16/1 836/14/1
f 837/9/1 838/10/1 839/11/1 840/12/1
f 841/10/1 842/13/1 843/14/1 844/11/1
f 845/13/1 846/15/1 847/16/1 848/14/1
f 849/9/1 850/10/1 851/11/1 852/12/1
f 853/10/1 854/13/1 855/14/1 856/11/1
f 857/13/1 858/15/1 859/16/1 860/14/1
f 861/9/1 862/10/1 863/11/1 864/12/1
f 865/10/1 866/13/1 867/14/1 868/11/1
f 869/13/1 870/15/1 871/16/1 872/14/1
f 873/9/1 874/10/1 875/11/1 876/12/1
f 877/9/1 878/10/1 879/11/1 880/12/1
f 881/25/1 882/26/1 883/10/1 884/9/1
f 885/26/1 886/23/1 887/13/1 888/10/1
f 889/23/1 890/24/1 891/15/1 892/13/1
f 893/35/1 894/36/1 895/37/1 896/38/1
f 897/23/1 898/24/1 899/15/1 900/13/1
f 901/25/1 902/26/1 903/10/1 904/9/1
f 905/26/1 906/23/1 907/13/1 908/10/1
f 909/23/1 910/24/1 911/15/1 912/13/1
f 913/25/1 914/26/1 915/10/1 916/9/1
f 917/26/1 918/23/1 919/13/1 920/10/1
f 921/23/1 922/24/1 923/15/1 924/13/1
f 925/25/1 926/26/1 927/10/1 928/9/1
f 929/26/1 930/23/1 931/13/1 932/10/1
f 933/23/1 934/24/1 935/15/1 936/13/1
f 937/25/1 938/26/1 939/10/1 940/9/1
f 941/25/1 942/26/1 943/10/1 944/9/1
f 945/8/1 946/7/1 947/26/1 948/25/1
f 949/7/1 950/4/1 951/23/1 952/26/1
f 953/4/1 954/3/1 955/24/1 956/23/1
f 957/31/1 958/32/1 959/18/1 960/17/1
f 961/4/1 962/3/1 963/24/1 964/23/1
f 965/8/1 966/7/1 967/26/1 968/25/1
f 969/7/1 970/4/1 971/23/1 972/26/1
f 973/4/1 974/3/1 975/24/1 976/23/1
f 977/8/1 978/7/1 979/26/1 980/25/1
f 981/7/1 982/4/1 983/23/1 984/26/1
f 985/4/1 986/3/1 987/24/1 988/23/1
f 989/8/1 990/7/1 991/26/1 992/25/1
f 993/7/1 994/4/1 995/23/1 996/26/1
f 997/4/1 998/3/1 999/24/1 1000/23/1
f 1001/8/1 1002/7/1 1003/26/1 1004/25/1
f 1005/8/1 1006/7/1 1007/26/1 1008/25/1
f 1009/5/1 1010/6/1 1011/7/1 1012/8/1
f 1013/6/1 1014/1/1 1015/4/1 1016/7/1
f 1017/9/1 1018/10/1 1019/11/1 1020/12/1
f 1021/9/1 1022/10/1 1023/11/1 1024/12/1

