# Tiled2Unity generated file. Do not modify by hand.
# Wavefront file for '2ScenarioPlataforma_mesh_0987.obj'

# Vertices (Count = 788)
v -160 -48 0
v -176 -48 0
v -176 -32 0
v -160 -32 0
v -112 -64 0
v -128 -64 0
v -128 -48 0
v -112 -48 0
v -128 -64 0
v -144 -64 0
v -144 -48 0
v -128 -48 0
v -144 -64 0
v -160 -64 0
v -160 -48 0
v -144 -48 0
v -160 -64 0
v -176 -64 0
v -176 -48 0
v -160 -48 0
v -192 -64 0
v -208 -64 0
v -208 -48 0
v -192 -48 0
v -208 -64 0
v -224 -64 0
v -224 -48 0
v -208 -48 0
v -224 -64 0
v -240 -64 0
v -240 -48 0
v -224 -48 0
v -240 -64 0
v -256 -64 0
v -256 -48 0
v -240 -48 0
v 0 -80 0
v -16 -80 0
v -16 -64 0
v 0 -64 0
v -16 -80 0
v -32 -80 0
v -32 -64 0
v -16 -64 0
v -32 -80 0
v -48 -80 0
v -48 -64 0
v -32 -64 0
v -48 -80 0
v -64 -80 0
v -64 -64 0
v -48 -64 0
v -64 -80 0
v -80 -80 0
v -80 -64 0
v -64 -64 0
v -80 -80 0
v -96 -80 0
v -96 -64 0
v -80 -64 0
v -96 -80 0
v -112 -80 0
v -112 -64 0
v -96 -64 0
v -160 -80 0
v -176 -80 0
v -176 -64 0
v -160 -64 0
v -176 -80 0
v -192 -80 0
v -192 -64 0
v -176 -64 0
v -192 -80 0
v -208 -80 0
v -208 -64 0
v -192 -64 0
v -208 -80 0
v -224 -80 0
v -224 -64 0
v -208 -64 0
v -224 -80 0
v -240 -80 0
v -240 -64 0
v -224 -64 0
v -240 -80 0
v -256 -80 0
v -256 -64 0
v -240 -64 0
v 0 -96 0
v -16 -96 0
v -16 -80 0
v 0 -80 0
v -16 -96 0
v -32 -96 0
v -32 -80 0
v -16 -80 0
v -32 -96 0
v -48 -96 0
v -48 -80 0
v -32 -80 0
v -64 -96 0
v -80 -96 0
v -80 -80 0
v -64 -80 0
v -80 -96 0
v -96 -96 0
v -96 -80 0
v -80 -80 0
v -96 -96 0
v -112 -96 0
v -112 -80 0
v -96 -80 0
v -112 -96 0
v -128 -96 0
v -128 -80 0
v -112 -80 0
v -128 -96 0
v -144 -96 0
v -144 -80 0
v -128 -80 0
v -144 -96 0
v -160 -96 0
v -160 -80 0
v -144 -80 0
v -160 -96 0
v -176 -96 0
v -176 -80 0
v -160 -80 0
v -176 -96 0
v -192 -96 0
v -192 -80 0
v -176 -80 0
v -192 -96 0
v -208 -96 0
v -208 -80 0
v -192 -80 0
v -208 -96 0
v -224 -96 0
v -224 -80 0
v -208 -80 0
v -224 -96 0
v -240 -96 0
v -240 -80 0
v -224 -80 0
v -240 -96 0
v -256 -96 0
v -256 -80 0
v -240 -80 0
v 0 -112 0
v -16 -112 0
v -16 -96 0
v 0 -96 0
v -16 -112 0
v -32 -112 0
v -32 -96 0
v -16 -96 0
v -32 -112 0
v -48 -112 0
v -48 -96 0
v -32 -96 0
v -48 -112 0
v -64 -112 0
v -64 -96 0
v -48 -96 0
v -64 -112 0
v -80 -112 0
v -80 -96 0
v -64 -96 0
v -80 -112 0
v -96 -112 0
v -96 -96 0
v -80 -96 0
v -96 -112 0
v -112 -112 0
v -112 -96 0
v -96 -96 0
v -112 -112 0
v -128 -112 0
v -128 -96 0
v -112 -96 0
v -128 -112 0
v -144 -112 0
v -144 -96 0
v -128 -96 0
v -144 -112 0
v -160 -112 0
v -160 -96 0
v -144 -96 0
v -160 -112 0
v -176 -112 0
v -176 -96 0
v -160 -96 0
v -176 -112 0
v -192 -112 0
v -192 -96 0
v -176 -96 0
v -192 -112 0
v -208 -112 0
v -208 -96 0
v -192 -96 0
v -208 -112 0
v -224 -112 0
v -224 -96 0
v -208 -96 0
v -224 -112 0
v -240 -112 0
v -240 -96 0
v -224 -96 0
v -240 -112 0
v -256 -112 0
v -256 -96 0
v -240 -96 0
v 0 -128 0
v -16 -128 0
v -16 -112 0
v 0 -112 0
v -16 -128 0
v -32 -128 0
v -32 -112 0
v -16 -112 0
v -32 -128 0
v -48 -128 0
v -48 -112 0
v -32 -112 0
v -48 -128 0
v -64 -128 0
v -64 -112 0
v -48 -112 0
v -64 -128 0
v -80 -128 0
v -80 -112 0
v -64 -112 0
v -80 -128 0
v -96 -128 0
v -96 -112 0
v -80 -112 0
v -96 -128 0
v -112 -128 0
v -112 -112 0
v -96 -112 0
v -112 -128 0
v -128 -128 0
v -128 -112 0
v -112 -112 0
v -128 -128 0
v -144 -128 0
v -144 -112 0
v -128 -112 0
v -144 -128 0
v -160 -128 0
v -160 -112 0
v -144 -112 0
v -160 -128 0
v -176 -128 0
v -176 -112 0
v -160 -112 0
v -176 -128 0
v -192 -128 0
v -192 -112 0
v -176 -112 0
v -192 -128 0
v -208 -128 0
v -208 -112 0
v -192 -112 0
v -208 -128 0
v -224 -128 0
v -224 -112 0
v -208 -112 0
v -224 -128 0
v -240 -128 0
v -240 -112 0
v -224 -112 0
v -240 -128 0
v -256 -128 0
v -256 -112 0
v -240 -112 0
v 0 -144 0
v -16 -144 0
v -16 -128 0
v 0 -128 0
v -16 -144 0
v -32 -144 0
v -32 -128 0
v -16 -128 0
v -32 -144 0
v -48 -144 0
v -48 -128 0
v -32 -128 0
v -48 -144 0
v -64 -144 0
v -64 -128 0
v -48 -128 0
v -64 -144 0
v -80 -144 0
v -80 -128 0
v -64 -128 0
v -80 -144 0
v -96 -144 0
v -96 -128 0
v -80 -128 0
v -96 -144 0
v -112 -144 0
v -112 -128 0
v -96 -128 0
v -112 -144 0
v -128 -144 0
v -128 -128 0
v -112 -128 0
v -128 -144 0
v -144 -144 0
v -144 -128 0
v -128 -128 0
v -144 -144 0
v -160 -144 0
v -160 -128 0
v -144 -128 0
v -160 -144 0
v -176 -144 0
v -176 -128 0
v -160 -128 0
v -176 -144 0
v -192 -144 0
v -192 -128 0
v -176 -128 0
v -192 -144 0
v -208 -144 0
v -208 -128 0
v -192 -128 0
v -208 -144 0
v -224 -144 0
v -224 -128 0
v -208 -128 0
v -224 -144 0
v -240 -144 0
v -240 -128 0
v -224 -128 0
v -240 -144 0
v -256 -144 0
v -256 -128 0
v -240 -128 0
v 0 -160 0
v -16 -160 0
v -16 -144 0
v 0 -144 0
v -16 -160 0
v -32 -160 0
v -32 -144 0
v -16 -144 0
v -32 -160 0
v -48 -160 0
v -48 -144 0
v -32 -144 0
v -48 -160 0
v -64 -160 0
v -64 -144 0
v -48 -144 0
v -64 -160 0
v -80 -160 0
v -80 -144 0
v -64 -144 0
v -80 -160 0
v -96 -160 0
v -96 -144 0
v -80 -144 0
v -96 -160 0
v -112 -160 0
v -112 -144 0
v -96 -144 0
v -112 -160 0
v -128 -160 0
v -128 -144 0
v -112 -144 0
v -128 -160 0
v -144 -160 0
v -144 -144 0
v -128 -144 0
v -144 -160 0
v -160 -160 0
v -160 -144 0
v -144 -144 0
v -160 -160 0
v -176 -160 0
v -176 -144 0
v -160 -144 0
v -176 -160 0
v -192 -160 0
v -192 -144 0
v -176 -144 0
v -192 -160 0
v -208 -160 0
v -208 -144 0
v -192 -144 0
v -208 -160 0
v -224 -160 0
v -224 -144 0
v -208 -144 0
v -224 -160 0
v -240 -160 0
v -240 -144 0
v -224 -144 0
v -240 -160 0
v -256 -160 0
v -256 -144 0
v -240 -144 0
v 0 -176 0
v -16 -176 0
v -16 -160 0
v 0 -160 0
v -16 -176 0
v -32 -176 0
v -32 -160 0
v -16 -160 0
v -32 -176 0
v -48 -176 0
v -48 -160 0
v -32 -160 0
v -48 -176 0
v -64 -176 0
v -64 -160 0
v -48 -160 0
v -64 -176 0
v -80 -176 0
v -80 -160 0
v -64 -160 0
v -80 -176 0
v -96 -176 0
v -96 -160 0
v -80 -160 0
v -96 -176 0
v -112 -176 0
v -112 -160 0
v -96 -160 0
v -112 -176 0
v -128 -176 0
v -128 -160 0
v -112 -160 0
v -128 -176 0
v -144 -176 0
v -144 -160 0
v -128 -160 0
v -144 -176 0
v -160 -176 0
v -160 -160 0
v -144 -160 0
v -160 -176 0
v -176 -176 0
v -176 -160 0
v -160 -160 0
v -176 -176 0
v -192 -176 0
v -192 -160 0
v -176 -160 0
v -192 -176 0
v -208 -176 0
v -208 -160 0
v -192 -160 0
v -208 -176 0
v -224 -176 0
v -224 -160 0
v -208 -160 0
v -224 -176 0
v -240 -176 0
v -240 -160 0
v -224 -160 0
v -240 -176 0
v -256 -176 0
v -256 -160 0
v -240 -160 0
v 0 -192 0
v -16 -192 0
v -16 -176 0
v 0 -176 0
v -16 -192 0
v -32 -192 0
v -32 -176 0
v -16 -176 0
v -32 -192 0
v -48 -192 0
v -48 -176 0
v -32 -176 0
v -48 -192 0
v -64 -192 0
v -64 -176 0
v -48 -176 0
v -64 -192 0
v -80 -192 0
v -80 -176 0
v -64 -176 0
v -80 -192 0
v -96 -192 0
v -96 -176 0
v -80 -176 0
v -96 -192 0
v -112 -192 0
v -112 -176 0
v -96 -176 0
v -112 -192 0
v -128 -192 0
v -128 -176 0
v -112 -176 0
v -128 -192 0
v -144 -192 0
v -144 -176 0
v -128 -176 0
v -144 -192 0
v -160 -192 0
v -160 -176 0
v -144 -176 0
v -160 -192 0
v -176 -192 0
v -176 -176 0
v -160 -176 0
v -176 -192 0
v -192 -192 0
v -192 -176 0
v -176 -176 0
v -192 -192 0
v -208 -192 0
v -208 -176 0
v -192 -176 0
v -208 -192 0
v -224 -192 0
v -224 -176 0
v -208 -176 0
v -224 -192 0
v -240 -192 0
v -240 -176 0
v -224 -176 0
v -240 -192 0
v -256 -192 0
v -256 -176 0
v -240 -176 0
v 0 -208 0
v -16 -208 0
v -16 -192 0
v 0 -192 0
v -16 -208 0
v -32 -208 0
v -32 -192 0
v -16 -192 0
v -32 -208 0
v -48 -208 0
v -48 -192 0
v -32 -192 0
v -48 -208 0
v -64 -208 0
v -64 -192 0
v -48 -192 0
v -64 -208 0
v -80 -208 0
v -80 -192 0
v -64 -192 0
v -80 -208 0
v -96 -208 0
v -96 -192 0
v -80 -192 0
v -96 -208 0
v -112 -208 0
v -112 -192 0
v -96 -192 0
v -112 -208 0
v -128 -208 0
v -128 -192 0
v -112 -192 0
v -128 -208 0
v -144 -208 0
v -144 -192 0
v -128 -192 0
v -144 -208 0
v -160 -208 0
v -160 -192 0
v -144 -192 0
v -160 -208 0
v -176 -208 0
v -176 -192 0
v -160 -192 0
v -176 -208 0
v -192 -208 0
v -192 -192 0
v -176 -192 0
v -192 -208 0
v -208 -208 0
v -208 -192 0
v -192 -192 0
v -208 -208 0
v -224 -208 0
v -224 -192 0
v -208 -192 0
v -224 -208 0
v -240 -208 0
v -240 -192 0
v -224 -192 0
v -240 -208 0
v -256 -208 0
v -256 -192 0
v -240 -192 0
v 0 -224 0
v -16 -224 0
v -16 -208 0
v 0 -208 0
v -16 -224 0
v -32 -224 0
v -32 -208 0
v -16 -208 0
v -32 -224 0
v -48 -224 0
v -48 -208 0
v -32 -208 0
v -48 -224 0
v -64 -224 0
v -64 -208 0
v -48 -208 0
v -64 -224 0
v -80 -224 0
v -80 -208 0
v -64 -208 0
v -80 -224 0
v -96 -224 0
v -96 -208 0
v -80 -208 0
v -96 -224 0
v -112 -224 0
v -112 -208 0
v -96 -208 0
v -112 -224 0
v -128 -224 0
v -128 -208 0
v -112 -208 0
v -128 -224 0
v -144 -224 0
v -144 -208 0
v -128 -208 0
v -144 -224 0
v -160 -224 0
v -160 -208 0
v -144 -208 0
v -160 -224 0
v -176 -224 0
v -176 -208 0
v -160 -208 0
v -176 -224 0
v -192 -224 0
v -192 -208 0
v -176 -208 0
v -192 -224 0
v -208 -224 0
v -208 -208 0
v -192 -208 0
v -208 -224 0
v -224 -224 0
v -224 -208 0
v -208 -208 0
v -224 -224 0
v -240 -224 0
v -240 -208 0
v -224 -208 0
v -240 -224 0
v -256 -224 0
v -256 -208 0
v -240 -208 0
v 0 -240 0
v -16 -240 0
v -16 -224 0
v 0 -224 0
v -16 -240 0
v -32 -240 0
v -32 -224 0
v -16 -224 0
v -32 -240 0
v -48 -240 0
v -48 -224 0
v -32 -224 0
v -48 -240 0
v -64 -240 0
v -64 -224 0
v -48 -224 0
v -64 -240 0
v -80 -240 0
v -80 -224 0
v -64 -224 0
v -80 -240 0
v -96 -240 0
v -96 -224 0
v -80 -224 0
v -96 -240 0
v -112 -240 0
v -112 -224 0
v -96 -224 0
v -112 -240 0
v -128 -240 0
v -128 -224 0
v -112 -224 0
v -128 -240 0
v -144 -240 0
v -144 -224 0
v -128 -224 0
v -144 -240 0
v -160 -240 0
v -160 -224 0
v -144 -224 0
v -160 -240 0
v -176 -240 0
v -176 -224 0
v -160 -224 0
v -176 -240 0
v -192 -240 0
v -192 -224 0
v -176 -224 0
v -192 -240 0
v -208 -240 0
v -208 -224 0
v -192 -224 0
v -208 -240 0
v -224 -240 0
v -224 -224 0
v -208 -224 0
v -224 -240 0
v -240 -240 0
v -240 -224 0
v -224 -224 0
v -240 -240 0
v -256 -240 0
v -256 -224 0
v -240 -224 0
v 0 -256 0
v -16 -256 0
v -16 -240 0
v 0 -240 0
v -16 -256 0
v -32 -256 0
v -32 -240 0
v -16 -240 0
v -32 -256 0
v -48 -256 0
v -48 -240 0
v -32 -240 0
v -48 -256 0
v -64 -256 0
v -64 -240 0
v -48 -240 0
v -64 -256 0
v -80 -256 0
v -80 -240 0
v -64 -240 0
v -80 -256 0
v -96 -256 0
v -96 -240 0
v -80 -240 0
v -96 -256 0
v -112 -256 0
v -112 -240 0
v -96 -240 0
v -112 -256 0
v -128 -256 0
v -128 -240 0
v -112 -240 0
v -128 -256 0
v -144 -256 0
v -144 -240 0
v -128 -240 0
v -144 -256 0
v -160 -256 0
v -160 -240 0
v -144 -240 0
v -160 -256 0
v -176 -256 0
v -176 -240 0
v -160 -240 0
v -176 -256 0
v -192 -256 0
v -192 -240 0
v -176 -240 0
v -192 -256 0
v -208 -256 0
v -208 -240 0
v -192 -240 0
v -208 -256 0
v -224 -256 0
v -224 -240 0
v -208 -240 0
v -224 -256 0
v -240 -256 0
v -240 -240 0
v -224 -240 0
v -240 -256 0
v -256 -256 0
v -256 -240 0
v -240 -240 0

# Texture cooridinates (Count = 56)
vt 0.4468085 0.625
vt 0.4468085 0.6875
vt 0.4361702 0.6875
vt 0.4361702 0.625
vt 0.5744681 0.1875
vt 0.5851064 0.1875
vt 0.5851064 0.25
vt 0.5744681 0.25
vt 0.3829787 0.625
vt 0.3829787 0.6875
vt 0.3723404 0.6875
vt 0.3723404 0.625
vt 0.6702127 0.1875
vt 0.6702127 0.25
vt 0.6595744 0.25
vt 0.6595744 0.1875
vt 0.4255319 0.6875
vt 0.4255319 0.625
vt 0.5425532 0.1875
vt 0.5531915 0.1875
vt 0.5531915 0.25
vt 0.5425532 0.25
vt 0.5638298 0.1875
vt 0.5638298 0.25
vt 0.5957447 0.1875
vt 0.5957447 0.25
vt 0.7021276 0.1875
vt 0.7127659 0.1875
vt 0.7127659 0.25
vt 0.7021276 0.25
vt 0.4042553 0.625
vt 0.4042553 0.6875
vt 0.393617 0.6875
vt 0.393617 0.625
vt 0.606383 0.1875
vt 0.606383 0.25
vt 0.606383 0.8125
vt 0.6170213 0.8125
vt 0.6170213 0.875
vt 0.606383 0.875
vt 0.6276596 0.8125
vt 0.6276596 0.875
vt 0.6382979 0.8125
vt 0.6382979 0.875
vt 0.606383 0.75
vt 0.6170213 0.75
vt 0.606383 0.6875
vt 0.6170213 0.6875
vt 0.606383 0.625
vt 0.6170213 0.625
vt 0.6276596 0.625
vt 0.6276596 0.6875
vt 0.6382979 0.625
vt 0.6382979 0.6875
vt 0.6276596 0.75
vt 0.6382979 0.75

# Normal
vn 0 0 -1

# Mesh description
g 2ScenarioPlataforma_mesh_0987

# Faces
f 1/1/1 2/2/1 3/3/1 4/4/1
f 5/4/1 6/1/1 7/2/1 8/3/1
f 9/5/1 10/6/1 11/7/1 12/8/1
f 13/4/1 14/1/1 15/2/1 16/3/1
f 17/9/1 18/10/1 19/11/1 20/12/1
f 21/13/1 22/14/1 23/15/1 24/16/1
f 25/4/1 26/3/1 27/17/1 28/18/1
f 29/9/1 30/10/1 31/11/1 32/12/1
f 33/6/1 34/7/1 35/8/1 36/5/1
f 37/19/1 38/20/1 39/21/1 40/22/1
f 41/20/1 42/23/1 43/24/1 44/21/1
f 45/18/1 46/4/1 47/3/1 48/17/1
f 49/16/1 50/13/1 51/14/1 52/15/1
f 53/6/1 54/25/1 55/26/1 56/7/1
f 57/27/1 58/28/1 59/29/1 60/30/1
f 61/16/1 62/13/1 63/14/1 64/15/1
f 65/5/1 66/8/1 67/24/1 68/23/1
f 69/31/1 70/32/1 71/33/1 72/34/1
f 73/35/1 74/36/1 75/26/1 76/25/1
f 77/37/1 78/38/1 79/39/1 80/40/1
f 81/37/1 82/38/1 83/39/1 84/40/1
f 85/37/1 86/38/1 87/39/1 88/40/1
f 89/37/1 90/38/1 91/39/1 92/40/1
f 93/38/1 94/41/1 95/42/1 96/39/1
f 97/41/1 98/43/1 99/44/1 100/42/1
f 101/37/1 102/38/1 103/39/1 104/40/1
f 105/37/1 106/38/1 107/39/1 108/40/1
f 109/37/1 110/38/1 111/39/1 112/40/1
f 113/37/1 114/38/1 115/39/1 116/40/1
f 117/37/1 118/38/1 119/39/1 120/40/1
f 121/37/1 122/38/1 123/39/1 124/40/1
f 125/37/1 126/38/1 127/39/1 128/40/1
f 129/37/1 130/38/1 131/39/1 132/40/1
f 133/37/1 134/38/1 135/39/1 136/40/1
f 137/45/1 138/46/1 139/38/1 140/37/1
f 141/45/1 142/46/1 143/38/1 144/37/1
f 145/45/1 146/46/1 147/38/1 148/37/1
f 149/37/1 150/38/1 151/39/1 152/40/1
f 153/37/1 154/38/1 155/39/1 156/40/1
f 157/37/1 158/38/1 159/39/1 160/40/1
f 161/37/1 162/38/1 163/39/1 164/40/1
f 165/45/1 166/46/1 167/38/1 168/37/1
f 169/45/1 170/46/1 171/38/1 172/37/1
f 173/45/1 174/46/1 175/38/1 176/37/1
f 177/45/1 178/46/1 179/38/1 180/37/1
f 181/45/1 182/46/1 183/38/1 184/37/1
f 185/45/1 186/46/1 187/38/1 188/37/1
f 189/45/1 190/46/1 191/38/1 192/37/1
f 193/45/1 194/46/1 195/38/1 196/37/1
f 197/45/1 198/46/1 199/38/1 200/37/1
f 201/47/1 202/48/1 203/46/1 204/45/1
f 205/47/1 206/48/1 207/46/1 208/45/1
f 209/47/1 210/48/1 211/46/1 212/45/1
f 213/45/1 214/46/1 215/38/1 216/37/1
f 217/45/1 218/46/1 219/38/1 220/37/1
f 221/45/1 222/46/1 223/38/1 224/37/1
f 225/45/1 226/46/1 227/38/1 228/37/1
f 229/47/1 230/48/1 231/46/1 232/45/1
f 233/47/1 234/48/1 235/46/1 236/45/1
f 237/47/1 238/48/1 239/46/1 240/45/1
f 241/47/1 242/48/1 243/46/1 244/45/1
f 245/47/1 246/48/1 247/46/1 248/45/1
f 249/47/1 250/48/1 251/46/1 252/45/1
f 253/47/1 254/48/1 255/46/1 256/45/1
f 257/47/1 258/48/1 259/46/1 260/45/1
f 261/47/1 262/48/1 263/46/1 264/45/1
f 265/49/1 266/50/1 267/48/1 268/47/1
f 269/49/1 270/50/1 271/48/1 272/47/1
f 273/49/1 274/50/1 275/48/1 276/47/1
f 277/47/1 278/48/1 279/46/1 280/45/1
f 281/47/1 282/48/1 283/46/1 284/45/1
f 285/47/1 286/48/1 287/46/1 288/45/1
f 289/47/1 290/48/1 291/46/1 292/45/1
f 293/49/1 294/50/1 295/48/1 296/47/1
f 297/49/1 298/50/1 299/48/1 300/47/1
f 301/49/1 302/50/1 303/48/1 304/47/1
f 305/49/1 306/50/1 307/48/1 308/47/1
f 309/49/1 310/50/1 311/48/1 312/47/1
f 313/49/1 314/50/1 315/48/1 316/47/1
f 317/49/1 318/50/1 319/48/1 320/47/1
f 321/49/1 322/50/1 323/48/1 324/47/1
f 325/49/1 326/50/1 327/48/1 328/47/1
f 329/49/1 330/50/1 331/48/1 332/47/1
f 333/49/1 334/50/1 335/48/1 336/47/1
f 337/50/1 338/51/1 339/52/1 340/48/1
f 341/49/1 342/50/1 343/48/1 344/47/1
f 345/49/1 346/50/1 347/48/1 348/47/1
f 349/49/1 350/50/1 351/48/1 352/47/1
f 353/49/1 354/50/1 355/48/1 356/47/1
f 357/50/1 358/51/1 359/52/1 360/48/1
f 361/51/1 362/53/1 363/54/1 364/52/1
f 365/38/1 366/41/1 367/42/1 368/39/1
f 369/41/1 370/43/1 371/44/1 372/42/1
f 373/37/1 374/38/1 375/39/1 376/40/1
f 377/38/1 378/41/1 379/42/1 380/39/1
f 381/41/1 382/43/1 383/44/1 384/42/1
f 385/37/1 386/38/1 387/39/1 388/40/1
f 389/38/1 390/41/1 391/42/1 392/39/1
f 393/41/1 394/43/1 395/44/1 396/42/1
f 397/37/1 398/38/1 399/39/1 400/40/1
f 401/38/1 402/41/1 403/42/1 404/39/1
f 405/46/1 406/55/1 407/41/1 408/38/1
f 409/55/1 410/56/1 411/43/1 412/41/1
f 413/45/1 414/46/1 415/38/1 416/37/1
f 417/46/1 418/55/1 419/41/1 420/38/1
f 421/55/1 422/56/1 423/43/1 424/41/1
f 425/45/1 426/46/1 427/38/1 428/37/1
f 429/46/1 430/55/1 431/41/1 432/38/1
f 433/55/1 434/56/1 435/43/1 436/41/1
f 437/45/1 438/46/1 439/38/1 440/37/1
f 441/46/1 442/55/1 443/41/1 444/38/1
f 445/55/1 446/56/1 447/43/1 448/41/1
f 449/45/1 450/46/1 451/38/1 452/37/1
f 453/46/1 454/55/1 455/41/1 456/38/1
f 457/55/1 458/56/1 459/43/1 460/41/1
f 461/45/1 462/46/1 463/38/1 464/37/1
f 465/46/1 466/55/1 467/41/1 468/38/1
f 469/48/1 470/52/1 471/55/1 472/46/1
f 473/52/1 474/54/1 475/56/1 476/55/1
f 477/47/1 478/48/1 479/46/1 480/45/1
f 481/48/1 482/52/1 483/55/1 484/46/1
f 485/52/1 486/54/1 487/56/1 488/55/1
f 489/47/1 490/48/1 491/46/1 492/45/1
f 493/48/1 494/52/1 495/55/1 496/46/1
f 497/52/1 498/54/1 499/56/1 500/55/1
f 501/47/1 502/48/1 503/46/1 504/45/1
f 505/48/1 506/52/1 507/55/1 508/46/1
f 509/52/1 510/54/1 511/56/1 512/55/1
f 513/47/1 514/48/1 515/46/1 516/45/1
f 517/48/1 518/52/1 519/55/1 520/46/1
f 521/52/1 522/54/1 523/56/1 524/55/1
f 525/47/1 526/48/1 527/46/1 528/45/1
f 529/48/1 530/52/1 531/55/1 532/46/1
f 533/50/1 534/51/1 535/52/1 536/48/1
f 537/51/1 538/53/1 539/54/1 540/52/1
f 541/49/1 542/50/1 543/48/1 544/47/1
f 545/50/1 546/51/1 547/52/1 548/48/1
f 549/51/1 550/53/1 551/54/1 552/52/1
f 553/49/1 554/50/1 555/48/1 556/47/1
f 557/50/1 558/51/1 559/52/1 560/48/1
f 561/51/1 562/53/1 563/54/1 564/52/1
f 565/49/1 566/50/1 567/48/1 568/47/1
f 569/50/1 570/51/1 571/52/1 572/48/1
f 573/51/1 574/53/1 575/54/1 576/52/1
f 577/49/1 578/50/1 579/48/1 580/47/1
f 581/50/1 582/51/1 583/52/1 584/48/1
f 585/51/1 586/53/1 587/54/1 588/52/1
f 589/49/1 590/50/1 591/48/1 592/47/1
f 593/50/1 594/51/1 595/52/1 596/48/1
f 597/38/1 598/41/1 599/42/1 600/39/1
f 601/41/1 602/43/1 603/44/1 604/42/1
f 605/37/1 606/38/1 607/39/1 608/40/1
f 609/38/1 610/41/1 611/42/1 612/39/1
f 613/41/1 614/43/1 615/44/1 616/42/1
f 617/37/1 618/38/1 619/39/1 620/40/1
f 621/38/1 622/41/1 623/42/1 624/39/1
f 625/41/1 626/43/1 627/44/1 628/42/1
f 629/37/1 630/38/1 631/39/1 632/40/1
f 633/38/1 634/41/1 635/42/1 636/39/1
f 637/41/1 638/43/1 639/44/1 640/42/1
f 641/37/1 642/38/1 643/39/1 644/40/1
f 645/38/1 646/41/1 647/42/1 648/39/1
f 649/41/1 650/43/1 651/44/1 652/42/1
f 653/37/1 654/38/1 655/39/1 656/40/1
f 657/38/1 658/41/1 659/42/1 660/39/1
f 661/46/1 662/55/1 663/41/1 664/38/1
f 665/55/1 666/56/1 667/43/1 668/41/1
f 669/45/1 670/46/1 671/38/1 672/37/1
f 673/46/1 674/55/1 675/41/1 676/38/1
f 677/55/1 678/56/1 679/43/1 680/41/1
f 681/45/1 682/46/1 683/38/1 684/37/1
f 685/46/1 686/55/1 687/41/1 688/38/1
f 689/55/1 690/56/1 691/43/1 692/41/1
f 693/45/1 694/46/1 695/38/1 696/37/1
f 697/46/1 698/55/1 699/41/1 700/38/1
f 701/55/1 702/56/1 703/43/1 704/41/1
f 705/45/1 706/46/1 707/38/1 708/37/1
f 709/46/1 710/55/1 711/41/1 712/38/1
f 713/55/1 714/56/1 715/43/1 716/41/1
f 717/45/1 718/46/1 719/38/1 720/37/1
f 721/46/1 722/55/1 723/41/1 724/38/1
f 725/37/1 726/38/1 727/39/1 728/40/1
f 729/37/1 730/38/1 731/39/1 732/40/1
f 733/37/1 734/38/1 735/39/1 736/40/1
f 737/37/1 738/38/1 739/39/1 740/40/1
f 741/37/1 742/38/1 743/39/1 744/40/1
f 745/37/1 746/38/1 747/39/1 748/40/1
f 749/37/1 750/38/1 751/39/1 752/40/1
f 753/37/1 754/38/1 755/39/1 756/40/1
f 757/37/1 758/38/1 759/39/1 760/40/1
f 761/37/1 762/38/1 763/39/1 764/40/1
f 765/37/1 766/38/1 767/39/1 768/40/1
f 769/37/1 770/38/1 771/39/1 772/40/1
f 773/37/1 774/38/1 775/39/1 776/40/1
f 777/37/1 778/38/1 779/39/1 780/40/1
f 781/37/1 782/38/1 783/39/1 784/40/1
f 785/37/1 786/38/1 787/39/1 788/40/1

