# Tiled2Unity generated file. Do not modify by hand.
# Wavefront file for '2ScenarioPlataforma_mesh_0334.obj'

# Vertices (Count = 32)
v -32 -48 0
v -48 -48 0
v -48 -32 0
v -32 -32 0
v -96 -48 0
v -112 -48 0
v -112 -32 0
v -96 -32 0
v -128 -48 0
v -144 -48 0
v -144 -32 0
v -128 -32 0
v -192 -48 0
v -208 -48 0
v -208 -32 0
v -192 -32 0
v -32 -64 0
v -48 -64 0
v -48 -48 0
v -32 -48 0
v -48 -64 0
v -64 -64 0
v -64 -48 0
v -48 -48 0
v -64 -64 0
v -80 -64 0
v -80 -48 0
v -64 -48 0
v -80 -64 0
v -96 -64 0
v -96 -48 0
v -80 -48 0

# Texture cooridinates (Count = 22)
vt 0.4255319 0.6875
vt 0.4361702 0.6875
vt 0.4361702 0.75
vt 0.4255319 0.75
vt 0.4468085 0.6875
vt 0.4574468 0.6875
vt 0.4574468 0.75
vt 0.4468085 0.75
vt 0.4148936 0.4375
vt 0.4255319 0.4375
vt 0.4255319 0.5
vt 0.4148936 0.5
vt 0.3191489 0
vt 0.3297872 0
vt 0.3297872 0.0625
vt 0.3191489 0.0625
vt 0.3404255 0
vt 0.3404255 0.0625
vt 0.3510638 0
vt 0.3510638 0.0625
vt 0.3617021 0
vt 0.3617021 0.0625

# Normal
vn 0 0 -1

# Mesh description
g 2ScenarioPlataforma_mesh_0334

# Faces
f 1/1/1 2/2/1 3/3/1 4/4/1
f 5/5/1 6/6/1 7/7/1 8/8/1
f 9/5/1 10/6/1 11/7/1 12/8/1
f 13/9/1 14/10/1 15/11/1 16/12/1
f 17/13/1 18/14/1 19/15/1 20/16/1
f 21/14/1 22/17/1 23/18/1 24/15/1
f 25/17/1 26/19/1 27/20/1 28/18/1
f 29/19/1 30/21/1 31/22/1 32/20/1

