# Tiled2Unity generated file. Do not modify by hand.
# Wavefront file for '2ScenarioPlataforma_mesh_0004.obj'

# Vertices (Count = 548)
v -1936 -1184 0
v -1952 -1184 0
v -1952 -1168 0
v -1936 -1168 0
v -2048 -1184 0
v -2064 -1184 0
v -2064 -1168 0
v -2048 -1168 0
v -2096 -1184 0
v -2112 -1184 0
v -2112 -1168 0
v -2096 -1168 0
v -2256 -1184 0
v -2272 -1184 0
v -2272 -1168 0
v -2256 -1168 0
v -2288 -1184 0
v -2304 -1184 0
v -2304 -1168 0
v -2288 -1168 0
v -2304 -1184 0
v -2320 -1184 0
v -2320 -1168 0
v -2304 -1168 0
v -2320 -1184 0
v -2336 -1184 0
v -2336 -1168 0
v -2320 -1168 0
v -2352 -1184 0
v -2368 -1184 0
v -2368 -1168 0
v -2352 -1168 0
v -2464 -1184 0
v -2480 -1184 0
v -2480 -1168 0
v -2464 -1168 0
v -2528 -1184 0
v -2544 -1184 0
v -2544 -1168 0
v -2528 -1168 0
v -2592 -1184 0
v -2608 -1184 0
v -2608 -1168 0
v -2592 -1168 0
v -2688 -1184 0
v -2704 -1184 0
v -2704 -1168 0
v -2688 -1168 0
v -2704 -1184 0
v -2720 -1184 0
v -2720 -1168 0
v -2704 -1168 0
v -2720 -1184 0
v -2736 -1184 0
v -2736 -1168 0
v -2720 -1168 0
v -1936 -1200 0
v -1952 -1200 0
v -1952 -1184 0
v -1936 -1184 0
v -1984 -1200 0
v -2000 -1200 0
v -2000 -1184 0
v -1984 -1184 0
v -2048 -1200 0
v -2064 -1200 0
v -2064 -1184 0
v -2048 -1184 0
v -2128 -1200 0
v -2144 -1200 0
v -2144 -1184 0
v -2128 -1184 0
v -2192 -1200 0
v -2208 -1200 0
v -2208 -1184 0
v -2192 -1184 0
v -2208 -1200 0
v -2224 -1200 0
v -2224 -1184 0
v -2208 -1184 0
v -2256 -1200 0
v -2272 -1200 0
v -2272 -1184 0
v -2256 -1184 0
v -2288 -1200 0
v -2304 -1200 0
v -2304 -1184 0
v -2288 -1184 0
v -2304 -1200 0
v -2320 -1200 0
v -2320 -1184 0
v -2304 -1184 0
v -2320 -1200 0
v -2336 -1200 0
v -2336 -1184 0
v -2320 -1184 0
v -2336 -1200 0
v -2352 -1200 0
v -2352 -1184 0
v -2336 -1184 0
v -2352 -1200 0
v -2368 -1200 0
v -2368 -1184 0
v -2352 -1184 0
v -2400 -1200 0
v -2416 -1200 0
v -2416 -1184 0
v -2400 -1184 0
v -2416 -1200 0
v -2432 -1200 0
v -2432 -1184 0
v -2416 -1184 0
v -2432 -1200 0
v -2448 -1200 0
v -2448 -1184 0
v -2432 -1184 0
v -2464 -1200 0
v -2480 -1200 0
v -2480 -1184 0
v -2464 -1184 0
v -2528 -1200 0
v -2544 -1200 0
v -2544 -1184 0
v -2528 -1184 0
v -2592 -1200 0
v -2608 -1200 0
v -2608 -1184 0
v -2592 -1184 0
v -2688 -1200 0
v -2704 -1200 0
v -2704 -1184 0
v -2688 -1184 0
v -2704 -1200 0
v -2720 -1200 0
v -2720 -1184 0
v -2704 -1184 0
v -2720 -1200 0
v -2736 -1200 0
v -2736 -1184 0
v -2720 -1184 0
v -2736 -1200 0
v -2752 -1200 0
v -2752 -1184 0
v -2736 -1184 0
v -2752 -1200 0
v -2768 -1200 0
v -2768 -1184 0
v -2752 -1184 0
v -2048 -1360 0
v -2064 -1360 0
v -2064 -1344 0
v -2048 -1344 0
v -2064 -1360 0
v -2080 -1360 0
v -2080 -1344 0
v -2064 -1344 0
v -2080 -1360 0
v -2096 -1360 0
v -2096 -1344 0
v -2080 -1344 0
v -2096 -1360 0
v -2112 -1360 0
v -2112 -1344 0
v -2096 -1344 0
v -2128 -1360 0
v -2144 -1360 0
v -2144 -1344 0
v -2128 -1344 0
v -2192 -1360 0
v -2208 -1360 0
v -2208 -1344 0
v -2192 -1344 0
v -2208 -1360 0
v -2224 -1360 0
v -2224 -1344 0
v -2208 -1344 0
v -2224 -1360 0
v -2240 -1360 0
v -2240 -1344 0
v -2224 -1344 0
v -2240 -1360 0
v -2256 -1360 0
v -2256 -1344 0
v -2240 -1344 0
v -2256 -1360 0
v -2272 -1360 0
v -2272 -1344 0
v -2256 -1344 0
v -2272 -1360 0
v -2288 -1360 0
v -2288 -1344 0
v -2272 -1344 0
v -2288 -1360 0
v -2304 -1360 0
v -2304 -1344 0
v -2288 -1344 0
v -2304 -1360 0
v -2320 -1360 0
v -2320 -1344 0
v -2304 -1344 0
v -2320 -1360 0
v -2336 -1360 0
v -2336 -1344 0
v -2320 -1344 0
v -2368 -1360 0
v -2384 -1360 0
v -2384 -1344 0
v -2368 -1344 0
v -2384 -1360 0
v -2400 -1360 0
v -2400 -1344 0
v -2384 -1344 0
v -2464 -1360 0
v -2480 -1360 0
v -2480 -1344 0
v -2464 -1344 0
v -2512 -1360 0
v -2528 -1360 0
v -2528 -1344 0
v -2512 -1344 0
v -2544 -1360 0
v -2560 -1360 0
v -2560 -1344 0
v -2544 -1344 0
v -2560 -1360 0
v -2576 -1360 0
v -2576 -1344 0
v -2560 -1344 0
v -2576 -1360 0
v -2592 -1360 0
v -2592 -1344 0
v -2576 -1344 0
v -2592 -1360 0
v -2608 -1360 0
v -2608 -1344 0
v -2592 -1344 0
v -2608 -1360 0
v -2624 -1360 0
v -2624 -1344 0
v -2608 -1344 0
v -2624 -1360 0
v -2640 -1360 0
v -2640 -1344 0
v -2624 -1344 0
v -2800 -1776 0
v -2816 -1776 0
v -2816 -1760 0
v -2800 -1760 0
v -2864 -1776 0
v -2880 -1776 0
v -2880 -1760 0
v -2864 -1760 0
v -2928 -1776 0
v -2944 -1776 0
v -2944 -1760 0
v -2928 -1760 0
v -224 -1904 0
v -240 -1904 0
v -240 -1888 0
v -224 -1888 0
v -336 -1904 0
v -352 -1904 0
v -352 -1888 0
v -336 -1888 0
v -1536 -1904 0
v -1552 -1904 0
v -1552 -1888 0
v -1536 -1888 0
v -1552 -1904 0
v -1568 -1904 0
v -1568 -1888 0
v -1552 -1888 0
v -1648 -1904 0
v -1664 -1904 0
v -1664 -1888 0
v -1648 -1888 0
v -192 -1920 0
v -208 -1920 0
v -208 -1904 0
v -192 -1904 0
v -208 -1920 0
v -224 -1920 0
v -224 -1904 0
v -208 -1904 0
v -304 -1920 0
v -320 -1920 0
v -320 -1904 0
v -304 -1904 0
v -320 -1920 0
v -336 -1920 0
v -336 -1904 0
v -320 -1904 0
v -336 -1920 0
v -352 -1920 0
v -352 -1904 0
v -336 -1904 0
v -544 -1920 0
v -560 -1920 0
v -560 -1904 0
v -544 -1904 0
v -560 -1920 0
v -576 -1920 0
v -576 -1904 0
v -560 -1904 0
v -592 -1920 0
v -608 -1920 0
v -608 -1904 0
v -592 -1904 0
v -784 -1920 0
v -800 -1920 0
v -800 -1904 0
v -784 -1904 0
v -800 -1920 0
v -816 -1920 0
v -816 -1904 0
v -800 -1904 0
v -816 -1920 0
v -832 -1920 0
v -832 -1904 0
v -816 -1904 0
v -832 -1920 0
v -848 -1920 0
v -848 -1904 0
v -832 -1904 0
v -848 -1920 0
v -864 -1920 0
v -864 -1904 0
v -848 -1904 0
v -944 -1920 0
v -960 -1920 0
v -960 -1904 0
v -944 -1904 0
v -960 -1920 0
v -976 -1920 0
v -976 -1904 0
v -960 -1904 0
v -1024 -1920 0
v -1040 -1920 0
v -1040 -1904 0
v -1024 -1904 0
v -1040 -1920 0
v -1056 -1920 0
v -1056 -1904 0
v -1040 -1904 0
v -1184 -1920 0
v -1200 -1920 0
v -1200 -1904 0
v -1184 -1904 0
v -1200 -1920 0
v -1216 -1920 0
v -1216 -1904 0
v -1200 -1904 0
v -1232 -1920 0
v -1248 -1920 0
v -1248 -1904 0
v -1232 -1904 0
v -1392 -1920 0
v -1408 -1920 0
v -1408 -1904 0
v -1392 -1904 0
v -1440 -1920 0
v -1456 -1920 0
v -1456 -1904 0
v -1440 -1904 0
v -1472 -1920 0
v -1488 -1920 0
v -1488 -1904 0
v -1472 -1904 0
v -1504 -1920 0
v -1520 -1920 0
v -1520 -1904 0
v -1504 -1904 0
v -1536 -1920 0
v -1552 -1920 0
v -1552 -1904 0
v -1536 -1904 0
v -1552 -1920 0
v -1568 -1920 0
v -1568 -1904 0
v -1552 -1904 0
v -1600 -1920 0
v -1616 -1920 0
v -1616 -1904 0
v -1600 -1904 0
v -1616 -1920 0
v -1632 -1920 0
v -1632 -1904 0
v -1616 -1904 0
v -1632 -1920 0
v -1648 -1920 0
v -1648 -1904 0
v -1632 -1904 0
v -1648 -1920 0
v -1664 -1920 0
v -1664 -1904 0
v -1648 -1904 0
v -1760 -1920 0
v -1776 -1920 0
v -1776 -1904 0
v -1760 -1904 0
v -1808 -1920 0
v -1824 -1920 0
v -1824 -1904 0
v -1808 -1904 0
v -1824 -1920 0
v -1840 -1920 0
v -1840 -1904 0
v -1824 -1904 0
v -1840 -1920 0
v -1856 -1920 0
v -1856 -1904 0
v -1840 -1904 0
v -1856 -1920 0
v -1872 -1920 0
v -1872 -1904 0
v -1856 -1904 0
v -1872 -1920 0
v -1888 -1920 0
v -1888 -1904 0
v -1872 -1904 0
v -208 -2096 0
v -224 -2096 0
v -224 -2080 0
v -208 -2080 0
v -224 -2096 0
v -240 -2096 0
v -240 -2080 0
v -224 -2080 0
v -256 -2096 0
v -272 -2096 0
v -272 -2080 0
v -256 -2080 0
v -272 -2096 0
v -288 -2096 0
v -288 -2080 0
v -272 -2080 0
v -336 -2096 0
v -352 -2096 0
v -352 -2080 0
v -336 -2080 0
v -352 -2096 0
v -368 -2096 0
v -368 -2080 0
v -352 -2080 0
v -368 -2096 0
v -384 -2096 0
v -384 -2080 0
v -368 -2080 0
v -384 -2096 0
v -400 -2096 0
v -400 -2080 0
v -384 -2080 0
v -400 -2096 0
v -416 -2096 0
v -416 -2080 0
v -400 -2080 0
v -416 -2096 0
v -432 -2096 0
v -432 -2080 0
v -416 -2080 0
v -432 -2096 0
v -448 -2096 0
v -448 -2080 0
v -432 -2080 0
v -464 -2096 0
v -480 -2096 0
v -480 -2080 0
v -464 -2080 0
v -480 -2096 0
v -496 -2096 0
v -496 -2080 0
v -480 -2080 0
v -560 -2096 0
v -576 -2096 0
v -576 -2080 0
v -560 -2080 0
v -576 -2096 0
v -592 -2096 0
v -592 -2080 0
v -576 -2080 0
v -592 -2096 0
v -608 -2096 0
v -608 -2080 0
v -592 -2080 0
v -624 -2096 0
v -640 -2096 0
v -640 -2080 0
v -624 -2080 0
v -656 -2096 0
v -672 -2096 0
v -672 -2080 0
v -656 -2080 0
v -672 -2096 0
v -688 -2096 0
v -688 -2080 0
v -672 -2080 0
v -688 -2096 0
v -704 -2096 0
v -704 -2080 0
v -688 -2080 0
v -704 -2096 0
v -720 -2096 0
v -720 -2080 0
v -704 -2080 0
v -736 -2096 0
v -752 -2096 0
v -752 -2080 0
v -736 -2080 0
v -1424 -2096 0
v -1440 -2096 0
v -1440 -2080 0
v -1424 -2080 0
v -1440 -2096 0
v -1456 -2096 0
v -1456 -2080 0
v -1440 -2080 0
v -1456 -2096 0
v -1472 -2096 0
v -1472 -2080 0
v -1456 -2080 0
v -1472 -2096 0
v -1488 -2096 0
v -1488 -2080 0
v -1472 -2080 0
v -1776 -2096 0
v -1792 -2096 0
v -1792 -2080 0
v -1776 -2080 0
v -1808 -2096 0
v -1824 -2096 0
v -1824 -2080 0
v -1808 -2080 0
v -1856 -2096 0
v -1872 -2096 0
v -1872 -2080 0
v -1856 -2080 0
v -1904 -2096 0
v -1920 -2096 0
v -1920 -2080 0
v -1904 -2080 0
v -1968 -2096 0
v -1984 -2096 0
v -1984 -2080 0
v -1968 -2080 0
v -224 -2112 0
v -240 -2112 0
v -240 -2096 0
v -224 -2096 0

# Texture cooridinates (Count = 48)
vt 0.8333333 0.875
vt 0.8571429 0.875
vt 0.8571429 0.9375
vt 0.8333333 0.9375
vt 0.4761905 0.625
vt 0.5 0.625
vt 0.5 0.6875
vt 0.4761905 0.6875
vt 0.5238096 0.5625
vt 0.547619 0.5625
vt 0.547619 0.625
vt 0.5238096 0.625
vt 0.5714286 0.5625
vt 0.5714286 0.625
vt 0.5952381 0.5625
vt 0.5952381 0.625
vt 0.8333333 0.8125
vt 0.8571429 0.8125
vt 0.5 0.3125
vt 0.4761905 0.3125
vt 0.4761905 0.25
vt 0.5 0.25
vt 0.1428571 0.25
vt 0.1190476 0.25
vt 0.1190476 0.1875
vt 0.1428571 0.1875
vt 0.5238096 0.5
vt 0.547619 0.5
vt 0.5714286 0.5
vt 0.5952381 0.5
vt 0.5238096 0.8125
vt 0.547619 0.8125
vt 0.547619 0.875
vt 0.5238096 0.875
vt 0.5714286 0.8125
vt 0.5952381 0.8125
vt 0.5952381 0.875
vt 0.5714286 0.875
vt 0.4761905 0.8125
vt 0.5 0.8125
vt 0.5 0.875
vt 0.4761905 0.875
vt 0.5238096 0.25
vt 0.547619 0.25
vt 0.547619 0.3125
vt 0.5238096 0.3125
vt 0.0952381 0.1875
vt 0.0952381 0.25

# Normal
vn 0 0 -1

# Mesh description
g 2ScenarioPlataforma_mesh_0004

# Faces
f 1/1/1 2/2/1 3/3/1 4/4/1
f 5/1/1 6/2/1 7/3/1 8/4/1
f 9/5/1 10/6/1 11/7/1 12/8/1
f 13/1/1 14/2/1 15/3/1 16/4/1
f 17/9/1 18/10/1 19/11/1 20/12/1
f 21/10/1 22/13/1 23/14/1 24/11/1
f 25/13/1 26/15/1 27/16/1 28/14/1
f 29/1/1 30/2/1 31/3/1 32/4/1
f 33/1/1 34/2/1 35/3/1 36/4/1
f 37/1/1 38/2/1 39/3/1 40/4/1
f 41/1/1 42/2/1 43/3/1 44/4/1
f 45/9/1 46/10/1 47/11/1 48/12/1
f 49/10/1 50/13/1 51/14/1 52/11/1
f 53/13/1 54/15/1 55/16/1 56/14/1
f 57/17/1 58/18/1 59/2/1 60/1/1
f 61/19/1 62/20/1 63/21/1 64/22/1
f 65/17/1 66/18/1 67/2/1 68/1/1
f 69/19/1 70/20/1 71/21/1 72/22/1
f 73/23/1 74/24/1 75/25/1 76/26/1
f 77/23/1 78/24/1 79/25/1 80/26/1
f 81/17/1 82/18/1 83/2/1 84/1/1
f 85/27/1 86/28/1 87/10/1 88/9/1
f 89/28/1 90/29/1 91/13/1 92/10/1
f 93/29/1 94/30/1 95/15/1 96/13/1
f 97/23/1 98/24/1 99/25/1 100/26/1
f 101/17/1 102/18/1 103/2/1 104/1/1
f 105/23/1 106/24/1 107/25/1 108/26/1
f 109/23/1 110/24/1 111/25/1 112/26/1
f 113/23/1 114/24/1 115/25/1 116/26/1
f 117/17/1 118/18/1 119/2/1 120/1/1
f 121/17/1 122/18/1 123/2/1 124/1/1
f 125/17/1 126/18/1 127/2/1 128/1/1
f 129/27/1 130/28/1 131/10/1 132/9/1
f 133/28/1 134/29/1 135/13/1 136/10/1
f 137/29/1 138/30/1 139/15/1 140/13/1
f 141/23/1 142/24/1 143/25/1 144/26/1
f 145/23/1 146/24/1 147/25/1 148/26/1
f 149/25/1 150/26/1 151/23/1 152/24/1
f 153/25/1 154/26/1 155/23/1 156/24/1
f 157/31/1 158/32/1 159/33/1 160/34/1
f 161/25/1 162/26/1 163/23/1 164/24/1
f 165/35/1 166/36/1 167/37/1 168/38/1
f 169/21/1 170/22/1 171/19/1 172/20/1
f 173/31/1 174/32/1 175/33/1 176/34/1
f 177/25/1 178/26/1 179/23/1 180/24/1
f 181/25/1 182/26/1 183/23/1 184/24/1
f 185/25/1 186/26/1 187/23/1 188/24/1
f 189/25/1 190/26/1 191/23/1 192/24/1
f 193/31/1 194/32/1 195/33/1 196/34/1
f 197/25/1 198/26/1 199/23/1 200/24/1
f 201/25/1 202/26/1 203/23/1 204/24/1
f 205/35/1 206/36/1 207/37/1 208/38/1
f 209/35/1 210/36/1 211/37/1 212/38/1
f 213/31/1 214/32/1 215/33/1 216/34/1
f 217/35/1 218/36/1 219/37/1 220/38/1
f 221/25/1 222/26/1 223/23/1 224/24/1
f 225/31/1 226/32/1 227/33/1 228/34/1
f 229/25/1 230/26/1 231/23/1 232/24/1
f 233/25/1 234/26/1 235/23/1 236/24/1
f 237/21/1 238/22/1 239/19/1 240/20/1
f 241/21/1 242/22/1 243/19/1 244/20/1
f 245/19/1 246/20/1 247/21/1 248/22/1
f 249/19/1 250/20/1 251/21/1 252/22/1
f 253/19/1 254/20/1 255/21/1 256/22/1
f 257/5/1 258/6/1 259/7/1 260/8/1
f 261/23/1 262/24/1 263/25/1 264/26/1
f 265/9/1 266/10/1 267/11/1 268/12/1
f 269/10/1 270/13/1 271/14/1 272/11/1
f 273/19/1 274/20/1 275/21/1 276/22/1
f 277/23/1 278/24/1 279/25/1 280/26/1
f 281/23/1 282/24/1 283/25/1 284/26/1
f 285/23/1 286/24/1 287/25/1 288/26/1
f 289/23/1 290/24/1 291/25/1 292/26/1
f 293/23/1 294/24/1 295/25/1 296/26/1
f 297/23/1 298/24/1 299/25/1 300/26/1
f 301/23/1 302/24/1 303/25/1 304/26/1
f 305/23/1 306/24/1 307/25/1 308/26/1
f 309/23/1 310/24/1 311/25/1 312/26/1
f 313/23/1 314/24/1 315/25/1 316/26/1
f 317/23/1 318/24/1 319/25/1 320/26/1
f 321/23/1 322/24/1 323/25/1 324/26/1
f 325/23/1 326/24/1 327/25/1 328/26/1
f 329/23/1 330/24/1 331/25/1 332/26/1
f 333/23/1 334/24/1 335/25/1 336/26/1
f 337/23/1 338/24/1 339/25/1 340/26/1
f 341/23/1 342/24/1 343/25/1 344/26/1
f 345/23/1 346/24/1 347/25/1 348/26/1
f 349/23/1 350/24/1 351/25/1 352/26/1
f 353/19/1 354/20/1 355/21/1 356/22/1
f 357/19/1 358/20/1 359/21/1 360/22/1
f 361/23/1 362/24/1 363/25/1 364/26/1
f 365/19/1 366/20/1 367/21/1 368/22/1
f 369/19/1 370/20/1 371/21/1 372/22/1
f 373/27/1 374/28/1 375/10/1 376/9/1
f 377/28/1 378/29/1 379/13/1 380/10/1
f 381/23/1 382/24/1 383/25/1 384/26/1
f 385/23/1 386/24/1 387/25/1 388/26/1
f 389/23/1 390/24/1 391/25/1 392/26/1
f 393/23/1 394/24/1 395/25/1 396/26/1
f 397/23/1 398/24/1 399/25/1 400/26/1
f 401/23/1 402/24/1 403/25/1 404/26/1
f 405/23/1 406/24/1 407/25/1 408/26/1
f 409/23/1 410/24/1 411/25/1 412/26/1
f 413/23/1 414/24/1 415/25/1 416/26/1
f 417/23/1 418/24/1 419/25/1 420/26/1
f 421/31/1 422/32/1 423/33/1 424/34/1
f 425/25/1 426/26/1 427/23/1 428/24/1
f 429/25/1 430/26/1 431/23/1 432/24/1
f 433/25/1 434/26/1 435/23/1 436/24/1
f 437/25/1 438/26/1 439/23/1 440/24/1
f 441/25/1 442/26/1 443/23/1 444/24/1
f 445/25/1 446/26/1 447/23/1 448/24/1
f 449/25/1 450/26/1 451/23/1 452/24/1
f 453/25/1 454/26/1 455/23/1 456/24/1
f 457/35/1 458/36/1 459/37/1 460/38/1
f 461/35/1 462/36/1 463/37/1 464/38/1
f 465/39/1 466/40/1 467/41/1 468/42/1
f 469/39/1 470/40/1 471/41/1 472/42/1
f 473/39/1 474/40/1 475/41/1 476/42/1
f 477/39/1 478/40/1 479/41/1 480/42/1
f 481/39/1 482/40/1 483/41/1 484/42/1
f 485/43/1 486/44/1 487/45/1 488/46/1
f 489/25/1 490/26/1 491/23/1 492/24/1
f 493/25/1 494/26/1 495/23/1 496/24/1
f 497/25/1 498/26/1 499/23/1 500/24/1
f 501/25/1 502/26/1 503/23/1 504/24/1
f 505/43/1 506/44/1 507/45/1 508/46/1
f 509/25/1 510/26/1 511/23/1 512/24/1
f 513/25/1 514/26/1 515/23/1 516/24/1
f 517/25/1 518/26/1 519/23/1 520/24/1
f 521/25/1 522/26/1 523/23/1 524/24/1
f 525/47/1 526/25/1 527/24/1 528/48/1
f 529/25/1 530/26/1 531/23/1 532/24/1
f 533/25/1 534/26/1 535/23/1 536/24/1
f 537/47/1 538/25/1 539/24/1 540/48/1
f 541/47/1 542/25/1 543/24/1 544/48/1
f 545/25/1 546/26/1 547/23/1 548/24/1

