# Tiled2Unity generated file. Do not modify by hand.
# Wavefront file for '2ScenarioPlataforma_mesh_0496.obj'

# Vertices (Count = 56)
v 0 -160 0
v -16 -160 0
v -16 -144 0
v 0 -144 0
v -16 -160 0
v -32 -160 0
v -32 -144 0
v -16 -144 0
v -48 -160 0
v -64 -160 0
v -64 -144 0
v -48 -144 0
v -160 -160 0
v -176 -160 0
v -176 -144 0
v -160 -144 0
v -224 -160 0
v -240 -160 0
v -240 -144 0
v -224 -144 0
v 0 -176 0
v -16 -176 0
v -16 -160 0
v 0 -160 0
v -16 -176 0
v -32 -176 0
v -32 -160 0
v -16 -160 0
v -32 -176 0
v -48 -176 0
v -48 -160 0
v -32 -160 0
v -48 -176 0
v -64 -176 0
v -64 -160 0
v -48 -160 0
v -96 -176 0
v -112 -176 0
v -112 -160 0
v -96 -160 0
v -112 -176 0
v -128 -176 0
v -128 -160 0
v -112 -160 0
v -128 -176 0
v -144 -176 0
v -144 -160 0
v -128 -160 0
v -160 -176 0
v -176 -176 0
v -176 -160 0
v -160 -160 0
v -224 -176 0
v -240 -176 0
v -240 -160 0
v -224 -160 0

# Texture cooridinates (Count = 19)
vt 0.547619 0.5625
vt 0.5714286 0.5625
vt 0.5714286 0.625
vt 0.547619 0.625
vt 0.5952381 0.5625
vt 0.5952381 0.625
vt 0.8333333 0.875
vt 0.8571429 0.875
vt 0.8571429 0.9375
vt 0.8333333 0.9375
vt 0.547619 0.5
vt 0.5714286 0.5
vt 0.5952381 0.5
vt 0.1428571 0.25
vt 0.1190476 0.25
vt 0.1190476 0.1875
vt 0.1428571 0.1875
vt 0.8333333 0.8125
vt 0.8571429 0.8125

# Normal
vn 0 0 -1

# Mesh description
g 2ScenarioPlataforma_mesh_0496

# Faces
f 1/1/1 2/2/1 3/3/1 4/4/1
f 5/2/1 6/5/1 7/6/1 8/3/1
f 9/7/1 10/8/1 11/9/1 12/10/1
f 13/7/1 14/8/1 15/9/1 16/10/1
f 17/7/1 18/8/1 19/9/1 20/10/1
f 21/11/1 22/12/1 23/2/1 24/1/1
f 25/12/1 26/13/1 27/5/1 28/2/1
f 29/14/1 30/15/1 31/16/1 32/17/1
f 33/18/1 34/19/1 35/8/1 36/7/1
f 37/14/1 38/15/1 39/16/1 40/17/1
f 41/14/1 42/15/1 43/16/1 44/17/1
f 45/14/1 46/15/1 47/16/1 48/17/1
f 49/18/1 50/19/1 51/8/1 52/7/1
f 53/18/1 54/19/1 55/8/1 56/7/1

