# Tiled2Unity generated file. Do not modify by hand.
# Wavefront file for '2ScenarioPlataforma_mesh_0471.obj'

# Vertices (Count = 660)
v -96 -16 0
v -112 -16 0
v -112 0 0
v -96 0 0
v -112 -16 0
v -128 -16 0
v -128 0 0
v -112 0 0
v -128 -16 0
v -144 -16 0
v -144 0 0
v -128 0 0
v -144 -16 0
v -160 -16 0
v -160 0 0
v -144 0 0
v -160 -16 0
v -176 -16 0
v -176 0 0
v -160 0 0
v -176 -16 0
v -192 -16 0
v -192 0 0
v -176 0 0
v -192 -16 0
v -208 -16 0
v -208 0 0
v -192 0 0
v -208 -16 0
v -224 -16 0
v -224 0 0
v -208 0 0
v -224 -16 0
v -240 -16 0
v -240 0 0
v -224 0 0
v -240 -16 0
v -256 -16 0
v -256 0 0
v -240 0 0
v -96 -32 0
v -112 -32 0
v -112 -16 0
v -96 -16 0
v -112 -32 0
v -128 -32 0
v -128 -16 0
v -112 -16 0
v -128 -32 0
v -144 -32 0
v -144 -16 0
v -128 -16 0
v -144 -32 0
v -160 -32 0
v -160 -16 0
v -144 -16 0
v -160 -32 0
v -176 -32 0
v -176 -16 0
v -160 -16 0
v -176 -32 0
v -192 -32 0
v -192 -16 0
v -176 -16 0
v -192 -32 0
v -208 -32 0
v -208 -16 0
v -192 -16 0
v -208 -32 0
v -224 -32 0
v -224 -16 0
v -208 -16 0
v -224 -32 0
v -240 -32 0
v -240 -16 0
v -224 -16 0
v -240 -32 0
v -256 -32 0
v -256 -16 0
v -240 -16 0
v -96 -48 0
v -112 -48 0
v -112 -32 0
v -96 -32 0
v -112 -48 0
v -128 -48 0
v -128 -32 0
v -112 -32 0
v -128 -48 0
v -144 -48 0
v -144 -32 0
v -128 -32 0
v -144 -48 0
v -160 -48 0
v -160 -32 0
v -144 -32 0
v -160 -48 0
v -176 -48 0
v -176 -32 0
v -160 -32 0
v -176 -48 0
v -192 -48 0
v -192 -32 0
v -176 -32 0
v -192 -48 0
v -208 -48 0
v -208 -32 0
v -192 -32 0
v -208 -48 0
v -224 -48 0
v -224 -32 0
v -208 -32 0
v -224 -48 0
v -240 -48 0
v -240 -32 0
v -224 -32 0
v -240 -48 0
v -256 -48 0
v -256 -32 0
v -240 -32 0
v -96 -64 0
v -112 -64 0
v -112 -48 0
v -96 -48 0
v -112 -64 0
v -128 -64 0
v -128 -48 0
v -112 -48 0
v -128 -64 0
v -144 -64 0
v -144 -48 0
v -128 -48 0
v -144 -64 0
v -160 -64 0
v -160 -48 0
v -144 -48 0
v -160 -64 0
v -176 -64 0
v -176 -48 0
v -160 -48 0
v -176 -64 0
v -192 -64 0
v -192 -48 0
v -176 -48 0
v -192 -64 0
v -208 -64 0
v -208 -48 0
v -192 -48 0
v -208 -64 0
v -224 -64 0
v -224 -48 0
v -208 -48 0
v -224 -64 0
v -240 -64 0
v -240 -48 0
v -224 -48 0
v -240 -64 0
v -256 -64 0
v -256 -48 0
v -240 -48 0
v -96 -80 0
v -112 -80 0
v -112 -64 0
v -96 -64 0
v -112 -80 0
v -128 -80 0
v -128 -64 0
v -112 -64 0
v -128 -80 0
v -144 -80 0
v -144 -64 0
v -128 -64 0
v -144 -80 0
v -160 -80 0
v -160 -64 0
v -144 -64 0
v -160 -80 0
v -176 -80 0
v -176 -64 0
v -160 -64 0
v -176 -80 0
v -192 -80 0
v -192 -64 0
v -176 -64 0
v -192 -80 0
v -208 -80 0
v -208 -64 0
v -192 -64 0
v -208 -80 0
v -224 -80 0
v -224 -64 0
v -208 -64 0
v -224 -80 0
v -240 -80 0
v -240 -64 0
v -224 -64 0
v -240 -80 0
v -256 -80 0
v -256 -64 0
v -240 -64 0
v -96 -96 0
v -112 -96 0
v -112 -80 0
v -96 -80 0
v -112 -96 0
v -128 -96 0
v -128 -80 0
v -112 -80 0
v -128 -96 0
v -144 -96 0
v -144 -80 0
v -128 -80 0
v -144 -96 0
v -160 -96 0
v -160 -80 0
v -144 -80 0
v -160 -96 0
v -176 -96 0
v -176 -80 0
v -160 -80 0
v -176 -96 0
v -192 -96 0
v -192 -80 0
v -176 -80 0
v -192 -96 0
v -208 -96 0
v -208 -80 0
v -192 -80 0
v -208 -96 0
v -224 -96 0
v -224 -80 0
v -208 -80 0
v -224 -96 0
v -240 -96 0
v -240 -80 0
v -224 -80 0
v -240 -96 0
v -256 -96 0
v -256 -80 0
v -240 -80 0
v -96 -112 0
v -112 -112 0
v -112 -96 0
v -96 -96 0
v -112 -112 0
v -128 -112 0
v -128 -96 0
v -112 -96 0
v -128 -112 0
v -144 -112 0
v -144 -96 0
v -128 -96 0
v -144 -112 0
v -160 -112 0
v -160 -96 0
v -144 -96 0
v -160 -112 0
v -176 -112 0
v -176 -96 0
v -160 -96 0
v -176 -112 0
v -192 -112 0
v -192 -96 0
v -176 -96 0
v -192 -112 0
v -208 -112 0
v -208 -96 0
v -192 -96 0
v -208 -112 0
v -224 -112 0
v -224 -96 0
v -208 -96 0
v -224 -112 0
v -240 -112 0
v -240 -96 0
v -224 -96 0
v -240 -112 0
v -256 -112 0
v -256 -96 0
v -240 -96 0
v -96 -128 0
v -112 -128 0
v -112 -112 0
v -96 -112 0
v -112 -128 0
v -128 -128 0
v -128 -112 0
v -112 -112 0
v -128 -128 0
v -144 -128 0
v -144 -112 0
v -128 -112 0
v -144 -128 0
v -160 -128 0
v -160 -112 0
v -144 -112 0
v -160 -128 0
v -176 -128 0
v -176 -112 0
v -160 -112 0
v -176 -128 0
v -192 -128 0
v -192 -112 0
v -176 -112 0
v -192 -128 0
v -208 -128 0
v -208 -112 0
v -192 -112 0
v -208 -128 0
v -224 -128 0
v -224 -112 0
v -208 -112 0
v -224 -128 0
v -240 -128 0
v -240 -112 0
v -224 -112 0
v -240 -128 0
v -256 -128 0
v -256 -112 0
v -240 -112 0
v -96 -144 0
v -112 -144 0
v -112 -128 0
v -96 -128 0
v -112 -144 0
v -128 -144 0
v -128 -128 0
v -112 -128 0
v -128 -144 0
v -144 -144 0
v -144 -128 0
v -128 -128 0
v -144 -144 0
v -160 -144 0
v -160 -128 0
v -144 -128 0
v -160 -144 0
v -176 -144 0
v -176 -128 0
v -160 -128 0
v -176 -144 0
v -192 -144 0
v -192 -128 0
v -176 -128 0
v -192 -144 0
v -208 -144 0
v -208 -128 0
v -192 -128 0
v -208 -144 0
v -224 -144 0
v -224 -128 0
v -208 -128 0
v -224 -144 0
v -240 -144 0
v -240 -128 0
v -224 -128 0
v -240 -144 0
v -256 -144 0
v -256 -128 0
v -240 -128 0
v -96 -160 0
v -112 -160 0
v -112 -144 0
v -96 -144 0
v -112 -160 0
v -128 -160 0
v -128 -144 0
v -112 -144 0
v -128 -160 0
v -144 -160 0
v -144 -144 0
v -128 -144 0
v -144 -160 0
v -160 -160 0
v -160 -144 0
v -144 -144 0
v -160 -160 0
v -176 -160 0
v -176 -144 0
v -160 -144 0
v -176 -160 0
v -192 -160 0
v -192 -144 0
v -176 -144 0
v -192 -160 0
v -208 -160 0
v -208 -144 0
v -192 -144 0
v -208 -160 0
v -224 -160 0
v -224 -144 0
v -208 -144 0
v -224 -160 0
v -240 -160 0
v -240 -144 0
v -224 -144 0
v -240 -160 0
v -256 -160 0
v -256 -144 0
v -240 -144 0
v -96 -176 0
v -112 -176 0
v -112 -160 0
v -96 -160 0
v -112 -176 0
v -128 -176 0
v -128 -160 0
v -112 -160 0
v -128 -176 0
v -144 -176 0
v -144 -160 0
v -128 -160 0
v -144 -176 0
v -160 -176 0
v -160 -160 0
v -144 -160 0
v -160 -176 0
v -176 -176 0
v -176 -160 0
v -160 -160 0
v -176 -176 0
v -192 -176 0
v -192 -160 0
v -176 -160 0
v -192 -176 0
v -208 -176 0
v -208 -160 0
v -192 -160 0
v -208 -176 0
v -224 -176 0
v -224 -160 0
v -208 -160 0
v -224 -176 0
v -240 -176 0
v -240 -160 0
v -224 -160 0
v -240 -176 0
v -256 -176 0
v -256 -160 0
v -240 -160 0
v -96 -192 0
v -112 -192 0
v -112 -176 0
v -96 -176 0
v -112 -192 0
v -128 -192 0
v -128 -176 0
v -112 -176 0
v -128 -192 0
v -144 -192 0
v -144 -176 0
v -128 -176 0
v -144 -192 0
v -160 -192 0
v -160 -176 0
v -144 -176 0
v -160 -192 0
v -176 -192 0
v -176 -176 0
v -160 -176 0
v -176 -192 0
v -192 -192 0
v -192 -176 0
v -176 -176 0
v -192 -192 0
v -208 -192 0
v -208 -176 0
v -192 -176 0
v -208 -192 0
v -224 -192 0
v -224 -176 0
v -208 -176 0
v -224 -192 0
v -240 -192 0
v -240 -176 0
v -224 -176 0
v -240 -192 0
v -256 -192 0
v -256 -176 0
v -240 -176 0
v -96 -208 0
v -112 -208 0
v -112 -192 0
v -96 -192 0
v -112 -208 0
v -128 -208 0
v -128 -192 0
v -112 -192 0
v -128 -208 0
v -144 -208 0
v -144 -192 0
v -128 -192 0
v -144 -208 0
v -160 -208 0
v -160 -192 0
v -144 -192 0
v -160 -208 0
v -176 -208 0
v -176 -192 0
v -160 -192 0
v -176 -208 0
v -192 -208 0
v -192 -192 0
v -176 -192 0
v -192 -208 0
v -208 -208 0
v -208 -192 0
v -192 -192 0
v -208 -208 0
v -224 -208 0
v -224 -192 0
v -208 -192 0
v -224 -208 0
v -240 -208 0
v -240 -192 0
v -224 -192 0
v -240 -208 0
v -256 -208 0
v -256 -192 0
v -240 -192 0
v -96 -224 0
v -112 -224 0
v -112 -208 0
v -96 -208 0
v -112 -224 0
v -128 -224 0
v -128 -208 0
v -112 -208 0
v -128 -224 0
v -144 -224 0
v -144 -208 0
v -128 -208 0
v -144 -224 0
v -160 -224 0
v -160 -208 0
v -144 -208 0
v -160 -224 0
v -176 -224 0
v -176 -208 0
v -160 -208 0
v -176 -224 0
v -192 -224 0
v -192 -208 0
v -176 -208 0
v -192 -224 0
v -208 -224 0
v -208 -208 0
v -192 -208 0
v -208 -224 0
v -224 -224 0
v -224 -208 0
v -208 -208 0
v -224 -224 0
v -240 -224 0
v -240 -208 0
v -224 -208 0
v -240 -224 0
v -256 -224 0
v -256 -208 0
v -240 -208 0
v -96 -240 0
v -112 -240 0
v -112 -224 0
v -96 -224 0
v -112 -240 0
v -128 -240 0
v -128 -224 0
v -112 -224 0
v -128 -240 0
v -144 -240 0
v -144 -224 0
v -128 -224 0
v -144 -240 0
v -160 -240 0
v -160 -224 0
v -144 -224 0
v -160 -240 0
v -176 -240 0
v -176 -224 0
v -160 -224 0
v -176 -240 0
v -192 -240 0
v -192 -224 0
v -176 -224 0
v -192 -240 0
v -208 -240 0
v -208 -224 0
v -192 -224 0
v -208 -240 0
v -224 -240 0
v -224 -224 0
v -208 -224 0
v -224 -240 0
v -240 -240 0
v -240 -224 0
v -224 -224 0
v -240 -240 0
v -256 -240 0
v -256 -224 0
v -240 -224 0
v -16 -256 0
v -32 -256 0
v -32 -240 0
v -16 -240 0
v -32 -256 0
v -48 -256 0
v -48 -240 0
v -32 -240 0
v -48 -256 0
v -64 -256 0
v -64 -240 0
v -48 -240 0
v -64 -256 0
v -80 -256 0
v -80 -240 0
v -64 -240 0
v -80 -256 0
v -96 -256 0
v -96 -240 0
v -80 -240 0
v -96 -256 0
v -112 -256 0
v -112 -240 0
v -96 -240 0
v -112 -256 0
v -128 -256 0
v -128 -240 0
v -112 -240 0
v -128 -256 0
v -144 -256 0
v -144 -240 0
v -128 -240 0
v -144 -256 0
v -160 -256 0
v -160 -240 0
v -144 -240 0
v -160 -256 0
v -176 -256 0
v -176 -240 0
v -160 -240 0
v -176 -256 0
v -192 -256 0
v -192 -240 0
v -176 -240 0
v -192 -256 0
v -208 -256 0
v -208 -240 0
v -192 -240 0
v -208 -256 0
v -224 -256 0
v -224 -240 0
v -208 -240 0
v -224 -256 0
v -240 -256 0
v -240 -240 0
v -224 -240 0
v -240 -256 0
v -256 -256 0
v -256 -240 0
v -240 -240 0

# Texture cooridinates (Count = 30)
vt 0.3723404 0.6875
vt 0.3723404 0.625
vt 0.3829787 0.625
vt 0.3829787 0.6875
vt 0.2978723 0.0625
vt 0.3085106 0.0625
vt 0.3085106 0.125
vt 0.2978723 0.125
vt 0.6702127 0.0625
vt 0.680851 0.0625
vt 0.680851 0.125
vt 0.6702127 0.125
vt 0.4148936 0.6875
vt 0.4148936 0.625
vt 0.4255319 0.625
vt 0.4255319 0.6875
vt 0.4042553 0.6875
vt 0.4042553 0.625
vt 0.393617 0.6875
vt 0.393617 0.625
vt 0.4361702 0.625
vt 0.4361702 0.6875
vt 0.4468085 0.625
vt 0.4468085 0.6875
vt 0.4574468 0.625
vt 0.4574468 0.6875
vt 0.4680851 0.625
vt 0.4680851 0.6875
vt 0.4787234 0.625
vt 0.4787234 0.6875

# Normal
vn 0 0 -1

# Mesh description
g 2ScenarioPlataforma_mesh_0471

# Faces
f 1/1/1 2/2/1 3/3/1 4/4/1
f 5/5/1 6/6/1 7/7/1 8/8/1
f 9/9/1 10/10/1 11/11/1 12/12/1
f 13/9/1 14/10/1 15/11/1 16/12/1
f 17/9/1 18/10/1 19/11/1 20/12/1
f 21/9/1 22/10/1 23/11/1 24/12/1
f 25/9/1 26/10/1 27/11/1 28/12/1
f 29/9/1 30/10/1 31/11/1 32/12/1
f 33/9/1 34/10/1 35/11/1 36/12/1
f 37/9/1 38/10/1 39/11/1 40/12/1
f 41/13/1 42/14/1 43/15/1 44/16/1
f 45/5/1 46/6/1 47/7/1 48/8/1
f 49/9/1 50/10/1 51/11/1 52/12/1
f 53/9/1 54/10/1 55/11/1 56/12/1
f 57/9/1 58/10/1 59/11/1 60/12/1
f 61/9/1 62/10/1 63/11/1 64/12/1
f 65/9/1 66/10/1 67/11/1 68/12/1
f 69/9/1 70/10/1 71/11/1 72/12/1
f 73/9/1 74/10/1 75/11/1 76/12/1
f 77/9/1 78/10/1 79/11/1 80/12/1
f 81/17/1 82/18/1 83/14/1 84/13/1
f 85/5/1 86/6/1 87/7/1 88/8/1
f 89/9/1 90/10/1 91/11/1 92/12/1
f 93/9/1 94/10/1 95/11/1 96/12/1
f 97/9/1 98/10/1 99/11/1 100/12/1
f 101/9/1 102/10/1 103/11/1 104/12/1
f 105/9/1 106/10/1 107/11/1 108/12/1
f 109/9/1 110/10/1 111/11/1 112/12/1
f 113/9/1 114/10/1 115/11/1 116/12/1
f 117/9/1 118/10/1 119/11/1 120/12/1
f 121/19/1 122/20/1 123/18/1 124/17/1
f 125/5/1 126/6/1 127/7/1 128/8/1
f 129/9/1 130/10/1 131/11/1 132/12/1
f 133/9/1 134/10/1 135/11/1 136/12/1
f 137/9/1 138/10/1 139/11/1 140/12/1
f 141/9/1 142/10/1 143/11/1 144/12/1
f 145/9/1 146/10/1 147/11/1 148/12/1
f 149/9/1 150/10/1 151/11/1 152/12/1
f 153/9/1 154/10/1 155/11/1 156/12/1
f 157/9/1 158/10/1 159/11/1 160/12/1
f 161/4/1 162/3/1 163/20/1 164/19/1
f 165/5/1 166/6/1 167/7/1 168/8/1
f 169/9/1 170/10/1 171/11/1 172/12/1
f 173/9/1 174/10/1 175/11/1 176/12/1
f 177/9/1 178/10/1 179/11/1 180/12/1
f 181/9/1 182/10/1 183/11/1 184/12/1
f 185/9/1 186/10/1 187/11/1 188/12/1
f 189/9/1 190/10/1 191/11/1 192/12/1
f 193/9/1 194/10/1 195/11/1 196/12/1
f 197/9/1 198/10/1 199/11/1 200/12/1
f 201/1/1 202/2/1 203/3/1 204/4/1
f 205/5/1 206/6/1 207/7/1 208/8/1
f 209/9/1 210/10/1 211/11/1 212/12/1
f 213/9/1 214/10/1 215/11/1 216/12/1
f 217/9/1 218/10/1 219/11/1 220/12/1
f 221/9/1 222/10/1 223/11/1 224/12/1
f 225/9/1 226/10/1 227/11/1 228/12/1
f 229/9/1 230/10/1 231/11/1 232/12/1
f 233/9/1 234/10/1 235/11/1 236/12/1
f 237/9/1 238/10/1 239/11/1 240/12/1
f 241/17/1 242/18/1 243/14/1 244/13/1
f 245/5/1 246/6/1 247/7/1 248/8/1
f 249/9/1 250/10/1 251/11/1 252/12/1
f 253/9/1 254/10/1 255/11/1 256/12/1
f 257/9/1 258/10/1 259/11/1 260/12/1
f 261/9/1 262/10/1 263/11/1 264/12/1
f 265/9/1 266/10/1 267/11/1 268/12/1
f 269/9/1 270/10/1 271/11/1 272/12/1
f 273/9/1 274/10/1 275/11/1 276/12/1
f 277/9/1 278/10/1 279/11/1 280/12/1
f 281/19/1 282/20/1 283/18/1 284/17/1
f 285/5/1 286/6/1 287/7/1 288/8/1
f 289/9/1 290/10/1 291/11/1 292/12/1
f 293/9/1 294/10/1 295/11/1 296/12/1
f 297/9/1 298/10/1 299/11/1 300/12/1
f 301/9/1 302/10/1 303/11/1 304/12/1
f 305/9/1 306/10/1 307/11/1 308/12/1
f 309/9/1 310/10/1 311/11/1 312/12/1
f 313/9/1 314/10/1 315/11/1 316/12/1
f 317/9/1 318/10/1 319/11/1 320/12/1
f 321/4/1 322/3/1 323/20/1 324/19/1
f 325/5/1 326/6/1 327/7/1 328/8/1
f 329/9/1 330/10/1 331/11/1 332/12/1
f 333/9/1 334/10/1 335/11/1 336/12/1
f 337/9/1 338/10/1 339/11/1 340/12/1
f 341/9/1 342/10/1 343/11/1 344/12/1
f 345/9/1 346/10/1 347/11/1 348/12/1
f 349/9/1 350/10/1 351/11/1 352/12/1
f 353/9/1 354/10/1 355/11/1 356/12/1
f 357/9/1 358/10/1 359/11/1 360/12/1
f 361/1/1 362/2/1 363/3/1 364/4/1
f 365/5/1 366/6/1 367/7/1 368/8/1
f 369/9/1 370/10/1 371/11/1 372/12/1
f 373/9/1 374/10/1 375/11/1 376/12/1
f 377/9/1 378/10/1 379/11/1 380/12/1
f 381/9/1 382/10/1 383/11/1 384/12/1
f 385/9/1 386/10/1 387/11/1 388/12/1
f 389/9/1 390/10/1 391/11/1 392/12/1
f 393/9/1 394/10/1 395/11/1 396/12/1
f 397/9/1 398/10/1 399/11/1 400/12/1
f 401/16/1 402/15/1 403/21/1 404/22/1
f 405/5/1 406/6/1 407/7/1 408/8/1
f 409/9/1 410/10/1 411/11/1 412/12/1
f 413/9/1 414/10/1 415/11/1 416/12/1
f 417/9/1 418/10/1 419/11/1 420/12/1
f 421/9/1 422/10/1 423/11/1 424/12/1
f 425/9/1 426/10/1 427/11/1 428/12/1
f 429/9/1 430/10/1 431/11/1 432/12/1
f 433/9/1 434/10/1 435/11/1 436/12/1
f 437/9/1 438/10/1 439/11/1 440/12/1
f 441/13/1 442/14/1 443/15/1 444/16/1
f 445/5/1 446/6/1 447/7/1 448/8/1
f 449/9/1 450/10/1 451/11/1 452/12/1
f 453/9/1 454/10/1 455/11/1 456/12/1
f 457/9/1 458/10/1 459/11/1 460/12/1
f 461/9/1 462/10/1 463/11/1 464/12/1
f 465/9/1 466/10/1 467/11/1 468/12/1
f 469/9/1 470/10/1 471/11/1 472/12/1
f 473/9/1 474/10/1 475/11/1 476/12/1
f 477/9/1 478/10/1 479/11/1 480/12/1
f 481/17/1 482/18/1 483/14/1 484/13/1
f 485/5/1 486/6/1 487/7/1 488/8/1
f 489/9/1 490/10/1 491/11/1 492/12/1
f 493/9/1 494/10/1 495/11/1 496/12/1
f 497/9/1 498/10/1 499/11/1 500/12/1
f 501/9/1 502/10/1 503/11/1 504/12/1
f 505/9/1 506/10/1 507/11/1 508/12/1
f 509/9/1 510/10/1 511/11/1 512/12/1
f 513/9/1 514/10/1 515/11/1 516/12/1
f 517/9/1 518/10/1 519/11/1 520/12/1
f 521/19/1 522/20/1 523/18/1 524/17/1
f 525/5/1 526/6/1 527/7/1 528/8/1
f 529/9/1 530/10/1 531/11/1 532/12/1
f 533/9/1 534/10/1 535/11/1 536/12/1
f 537/9/1 538/10/1 539/11/1 540/12/1
f 541/9/1 542/10/1 543/11/1 544/12/1
f 545/9/1 546/10/1 547/11/1 548/12/1
f 549/9/1 550/10/1 551/11/1 552/12/1
f 553/9/1 554/10/1 555/11/1 556/12/1
f 557/9/1 558/10/1 559/11/1 560/12/1
f 561/4/1 562/3/1 563/20/1 564/19/1
f 565/5/1 566/6/1 567/7/1 568/8/1
f 569/9/1 570/10/1 571/11/1 572/12/1
f 573/9/1 574/10/1 575/11/1 576/12/1
f 577/9/1 578/10/1 579/11/1 580/12/1
f 581/9/1 582/10/1 583/11/1 584/12/1
f 585/9/1 586/10/1 587/11/1 588/12/1
f 589/9/1 590/10/1 591/11/1 592/12/1
f 593/9/1 594/10/1 595/11/1 596/12/1
f 597/9/1 598/10/1 599/11/1 600/12/1
f 601/15/1 602/21/1 603/22/1 604/16/1
f 605/21/1 606/23/1 607/24/1 608/22/1
f 609/23/1 610/25/1 611/26/1 612/24/1
f 613/25/1 614/27/1 615/28/1 616/26/1
f 617/27/1 618/29/1 619/30/1 620/28/1
f 621/1/1 622/2/1 623/3/1 624/4/1
f 625/5/1 626/6/1 627/7/1 628/8/1
f 629/9/1 630/10/1 631/11/1 632/12/1
f 633/9/1 634/10/1 635/11/1 636/12/1
f 637/9/1 638/10/1 639/11/1 640/12/1
f 641/9/1 642/10/1 643/11/1 644/12/1
f 645/9/1 646/10/1 647/11/1 648/12/1
f 649/9/1 650/10/1 651/11/1 652/12/1
f 653/9/1 654/10/1 655/11/1 656/12/1
f 657/9/1 658/10/1 659/11/1 660/12/1

