# Tiled2Unity generated file. Do not modify by hand.
# Wavefront file for '2ScenarioPlataforma_mesh_0918.obj'

# Vertices (Count = 512)
v 0 -144 0
v -16 -144 0
v -16 -128 0
v 0 -128 0
v -16 -144 0
v -32 -144 0
v -32 -128 0
v -16 -128 0
v -32 -144 0
v -48 -144 0
v -48 -128 0
v -32 -128 0
v -48 -144 0
v -64 -144 0
v -64 -128 0
v -48 -128 0
v -64 -144 0
v -80 -144 0
v -80 -128 0
v -64 -128 0
v -80 -144 0
v -96 -144 0
v -96 -128 0
v -80 -128 0
v -96 -144 0
v -112 -144 0
v -112 -128 0
v -96 -128 0
v -112 -144 0
v -128 -144 0
v -128 -128 0
v -112 -128 0
v -128 -144 0
v -144 -144 0
v -144 -128 0
v -128 -128 0
v -144 -144 0
v -160 -144 0
v -160 -128 0
v -144 -128 0
v -160 -144 0
v -176 -144 0
v -176 -128 0
v -160 -128 0
v -176 -144 0
v -192 -144 0
v -192 -128 0
v -176 -128 0
v -192 -144 0
v -208 -144 0
v -208 -128 0
v -192 -128 0
v -208 -144 0
v -224 -144 0
v -224 -128 0
v -208 -128 0
v -224 -144 0
v -240 -144 0
v -240 -128 0
v -224 -128 0
v -240 -144 0
v -256 -144 0
v -256 -128 0
v -240 -128 0
v 0 -160 0
v -16 -160 0
v -16 -144 0
v 0 -144 0
v -16 -160 0
v -32 -160 0
v -32 -144 0
v -16 -144 0
v -32 -160 0
v -48 -160 0
v -48 -144 0
v -32 -144 0
v -48 -160 0
v -64 -160 0
v -64 -144 0
v -48 -144 0
v -64 -160 0
v -80 -160 0
v -80 -144 0
v -64 -144 0
v -80 -160 0
v -96 -160 0
v -96 -144 0
v -80 -144 0
v -96 -160 0
v -112 -160 0
v -112 -144 0
v -96 -144 0
v -112 -160 0
v -128 -160 0
v -128 -144 0
v -112 -144 0
v -128 -160 0
v -144 -160 0
v -144 -144 0
v -128 -144 0
v -144 -160 0
v -160 -160 0
v -160 -144 0
v -144 -144 0
v -160 -160 0
v -176 -160 0
v -176 -144 0
v -160 -144 0
v -176 -160 0
v -192 -160 0
v -192 -144 0
v -176 -144 0
v -192 -160 0
v -208 -160 0
v -208 -144 0
v -192 -144 0
v -208 -160 0
v -224 -160 0
v -224 -144 0
v -208 -144 0
v -224 -160 0
v -240 -160 0
v -240 -144 0
v -224 -144 0
v -240 -160 0
v -256 -160 0
v -256 -144 0
v -240 -144 0
v 0 -176 0
v -16 -176 0
v -16 -160 0
v 0 -160 0
v -16 -176 0
v -32 -176 0
v -32 -160 0
v -16 -160 0
v -32 -176 0
v -48 -176 0
v -48 -160 0
v -32 -160 0
v -48 -176 0
v -64 -176 0
v -64 -160 0
v -48 -160 0
v -64 -176 0
v -80 -176 0
v -80 -160 0
v -64 -160 0
v -80 -176 0
v -96 -176 0
v -96 -160 0
v -80 -160 0
v -96 -176 0
v -112 -176 0
v -112 -160 0
v -96 -160 0
v -112 -176 0
v -128 -176 0
v -128 -160 0
v -112 -160 0
v -128 -176 0
v -144 -176 0
v -144 -160 0
v -128 -160 0
v -144 -176 0
v -160 -176 0
v -160 -160 0
v -144 -160 0
v -160 -176 0
v -176 -176 0
v -176 -160 0
v -160 -160 0
v -176 -176 0
v -192 -176 0
v -192 -160 0
v -176 -160 0
v -192 -176 0
v -208 -176 0
v -208 -160 0
v -192 -160 0
v -208 -176 0
v -224 -176 0
v -224 -160 0
v -208 -160 0
v -224 -176 0
v -240 -176 0
v -240 -160 0
v -224 -160 0
v -240 -176 0
v -256 -176 0
v -256 -160 0
v -240 -160 0
v 0 -192 0
v -16 -192 0
v -16 -176 0
v 0 -176 0
v -16 -192 0
v -32 -192 0
v -32 -176 0
v -16 -176 0
v -32 -192 0
v -48 -192 0
v -48 -176 0
v -32 -176 0
v -48 -192 0
v -64 -192 0
v -64 -176 0
v -48 -176 0
v -64 -192 0
v -80 -192 0
v -80 -176 0
v -64 -176 0
v -80 -192 0
v -96 -192 0
v -96 -176 0
v -80 -176 0
v -96 -192 0
v -112 -192 0
v -112 -176 0
v -96 -176 0
v -112 -192 0
v -128 -192 0
v -128 -176 0
v -112 -176 0
v -128 -192 0
v -144 -192 0
v -144 -176 0
v -128 -176 0
v -144 -192 0
v -160 -192 0
v -160 -176 0
v -144 -176 0
v -160 -192 0
v -176 -192 0
v -176 -176 0
v -160 -176 0
v -176 -192 0
v -192 -192 0
v -192 -176 0
v -176 -176 0
v -192 -192 0
v -208 -192 0
v -208 -176 0
v -192 -176 0
v -208 -192 0
v -224 -192 0
v -224 -176 0
v -208 -176 0
v -224 -192 0
v -240 -192 0
v -240 -176 0
v -224 -176 0
v -240 -192 0
v -256 -192 0
v -256 -176 0
v -240 -176 0
v 0 -208 0
v -16 -208 0
v -16 -192 0
v 0 -192 0
v -16 -208 0
v -32 -208 0
v -32 -192 0
v -16 -192 0
v -32 -208 0
v -48 -208 0
v -48 -192 0
v -32 -192 0
v -48 -208 0
v -64 -208 0
v -64 -192 0
v -48 -192 0
v -64 -208 0
v -80 -208 0
v -80 -192 0
v -64 -192 0
v -80 -208 0
v -96 -208 0
v -96 -192 0
v -80 -192 0
v -96 -208 0
v -112 -208 0
v -112 -192 0
v -96 -192 0
v -112 -208 0
v -128 -208 0
v -128 -192 0
v -112 -192 0
v -128 -208 0
v -144 -208 0
v -144 -192 0
v -128 -192 0
v -144 -208 0
v -160 -208 0
v -160 -192 0
v -144 -192 0
v -160 -208 0
v -176 -208 0
v -176 -192 0
v -160 -192 0
v -176 -208 0
v -192 -208 0
v -192 -192 0
v -176 -192 0
v -192 -208 0
v -208 -208 0
v -208 -192 0
v -192 -192 0
v -208 -208 0
v -224 -208 0
v -224 -192 0
v -208 -192 0
v -224 -208 0
v -240 -208 0
v -240 -192 0
v -224 -192 0
v -240 -208 0
v -256 -208 0
v -256 -192 0
v -240 -192 0
v 0 -224 0
v -16 -224 0
v -16 -208 0
v 0 -208 0
v -16 -224 0
v -32 -224 0
v -32 -208 0
v -16 -208 0
v -32 -224 0
v -48 -224 0
v -48 -208 0
v -32 -208 0
v -48 -224 0
v -64 -224 0
v -64 -208 0
v -48 -208 0
v -64 -224 0
v -80 -224 0
v -80 -208 0
v -64 -208 0
v -80 -224 0
v -96 -224 0
v -96 -208 0
v -80 -208 0
v -96 -224 0
v -112 -224 0
v -112 -208 0
v -96 -208 0
v -112 -224 0
v -128 -224 0
v -128 -208 0
v -112 -208 0
v -128 -224 0
v -144 -224 0
v -144 -208 0
v -128 -208 0
v -144 -224 0
v -160 -224 0
v -160 -208 0
v -144 -208 0
v -160 -224 0
v -176 -224 0
v -176 -208 0
v -160 -208 0
v -176 -224 0
v -192 -224 0
v -192 -208 0
v -176 -208 0
v -192 -224 0
v -208 -224 0
v -208 -208 0
v -192 -208 0
v -208 -224 0
v -224 -224 0
v -224 -208 0
v -208 -208 0
v -224 -224 0
v -240 -224 0
v -240 -208 0
v -224 -208 0
v -240 -224 0
v -256 -224 0
v -256 -208 0
v -240 -208 0
v 0 -240 0
v -16 -240 0
v -16 -224 0
v 0 -224 0
v -16 -240 0
v -32 -240 0
v -32 -224 0
v -16 -224 0
v -32 -240 0
v -48 -240 0
v -48 -224 0
v -32 -224 0
v -48 -240 0
v -64 -240 0
v -64 -224 0
v -48 -224 0
v -64 -240 0
v -80 -240 0
v -80 -224 0
v -64 -224 0
v -80 -240 0
v -96 -240 0
v -96 -224 0
v -80 -224 0
v -96 -240 0
v -112 -240 0
v -112 -224 0
v -96 -224 0
v -112 -240 0
v -128 -240 0
v -128 -224 0
v -112 -224 0
v -128 -240 0
v -144 -240 0
v -144 -224 0
v -128 -224 0
v -144 -240 0
v -160 -240 0
v -160 -224 0
v -144 -224 0
v -160 -240 0
v -176 -240 0
v -176 -224 0
v -160 -224 0
v -176 -240 0
v -192 -240 0
v -192 -224 0
v -176 -224 0
v -192 -240 0
v -208 -240 0
v -208 -224 0
v -192 -224 0
v -208 -240 0
v -224 -240 0
v -224 -224 0
v -208 -224 0
v -224 -240 0
v -240 -240 0
v -240 -224 0
v -224 -224 0
v -240 -240 0
v -256 -240 0
v -256 -224 0
v -240 -224 0
v 0 -256 0
v -16 -256 0
v -16 -240 0
v 0 -240 0
v -16 -256 0
v -32 -256 0
v -32 -240 0
v -16 -240 0
v -32 -256 0
v -48 -256 0
v -48 -240 0
v -32 -240 0
v -48 -256 0
v -64 -256 0
v -64 -240 0
v -48 -240 0
v -64 -256 0
v -80 -256 0
v -80 -240 0
v -64 -240 0
v -80 -256 0
v -96 -256 0
v -96 -240 0
v -80 -240 0
v -96 -256 0
v -112 -256 0
v -112 -240 0
v -96 -240 0
v -112 -256 0
v -128 -256 0
v -128 -240 0
v -112 -240 0
v -128 -256 0
v -144 -256 0
v -144 -240 0
v -128 -240 0
v -144 -256 0
v -160 -256 0
v -160 -240 0
v -144 -240 0
v -160 -256 0
v -176 -256 0
v -176 -240 0
v -160 -240 0
v -176 -256 0
v -192 -256 0
v -192 -240 0
v -176 -240 0
v -192 -256 0
v -208 -256 0
v -208 -240 0
v -192 -240 0
v -208 -256 0
v -224 -256 0
v -224 -240 0
v -208 -240 0
v -224 -256 0
v -240 -256 0
v -240 -240 0
v -224 -240 0
v -240 -256 0
v -256 -256 0
v -256 -240 0
v -240 -240 0

# Texture cooridinates (Count = 54)
vt 0.3723404 0.625
vt 0.3829787 0.625
vt 0.3829787 0.6875
vt 0.3723404 0.6875
vt 0.3829787 0.125
vt 0.393617 0.125
vt 0.393617 0.1875
vt 0.3829787 0.1875
vt 0.3617021 0.125
vt 0.3723404 0.125
vt 0.3723404 0.1875
vt 0.3617021 0.1875
vt 0.3191489 0.125
vt 0.3297872 0.125
vt 0.3297872 0.1875
vt 0.3191489 0.1875
vt 0.3510638 0.125
vt 0.3510638 0.1875
vt 0.393617 0.625
vt 0.4042553 0.625
vt 0.4042553 0.6875
vt 0.393617 0.6875
vt 0.4361702 0.625
vt 0.4468085 0.625
vt 0.4468085 0.6875
vt 0.4361702 0.6875
vt 0.4148936 0.625
vt 0.4255319 0.625
vt 0.4255319 0.6875
vt 0.4148936 0.6875
vt 0.606383 0.8125
vt 0.6170213 0.8125
vt 0.6170213 0.875
vt 0.606383 0.875
vt 0.6276596 0.8125
vt 0.6276596 0.875
vt 0.6382979 0.8125
vt 0.6382979 0.875
vt 0.606383 0.75
vt 0.6170213 0.75
vt 0.6276596 0.75
vt 0.6382979 0.75
vt 0.3404255 0.1875
vt 0.3404255 0.125
vt 0.606383 0.6875
vt 0.6170213 0.6875
vt 0.6276596 0.6875
vt 0.6382979 0.6875
vt 0.3085106 0.1875
vt 0.3085106 0.125
vt 0.606383 0.625
vt 0.6170213 0.625
vt 0.6276596 0.625
vt 0.6382979 0.625

# Normal
vn 0 0 -1

# Mesh description
g 2ScenarioPlataforma_mesh_0918

# Faces
f 1/1/1 2/2/1 3/3/1 4/4/1
f 5/5/1 6/6/1 7/7/1 8/8/1
f 9/9/1 10/10/1 11/11/1 12/12/1
f 13/13/1 14/14/1 15/15/1 16/16/1
f 17/9/1 18/10/1 19/11/1 20/12/1
f 21/17/1 22/9/1 23/12/1 24/18/1
f 25/19/1 26/20/1 27/21/1 28/22/1
f 29/13/1 30/14/1 31/15/1 32/16/1
f 33/5/1 34/6/1 35/7/1 36/8/1
f 37/9/1 38/10/1 39/11/1 40/12/1
f 41/23/1 42/24/1 43/25/1 44/26/1
f 45/10/1 46/5/1 47/8/1 48/11/1
f 49/2/1 50/19/1 51/22/1 52/3/1
f 53/27/1 54/28/1 55/29/1 56/30/1
f 57/9/1 58/10/1 59/11/1 60/12/1
f 61/10/1 62/5/1 63/8/1 64/11/1
f 65/31/1 66/32/1 67/33/1 68/34/1
f 69/31/1 70/32/1 71/33/1 72/34/1
f 73/32/1 74/35/1 75/36/1 76/33/1
f 77/35/1 78/37/1 79/38/1 80/36/1
f 81/31/1 82/32/1 83/33/1 84/34/1
f 85/31/1 86/32/1 87/33/1 88/34/1
f 89/31/1 90/32/1 91/33/1 92/34/1
f 93/31/1 94/32/1 95/33/1 96/34/1
f 97/31/1 98/32/1 99/33/1 100/34/1
f 101/31/1 102/32/1 103/33/1 104/34/1
f 105/31/1 106/32/1 107/33/1 108/34/1
f 109/31/1 110/32/1 111/33/1 112/34/1
f 113/31/1 114/32/1 115/33/1 116/34/1
f 117/32/1 118/35/1 119/36/1 120/33/1
f 121/35/1 122/37/1 123/38/1 124/36/1
f 125/10/1 126/11/1 127/12/1 128/9/1
f 129/39/1 130/40/1 131/32/1 132/31/1
f 133/31/1 134/32/1 135/33/1 136/34/1
f 137/31/1 138/32/1 139/33/1 140/34/1
f 141/31/1 142/32/1 143/33/1 144/34/1
f 145/39/1 146/40/1 147/32/1 148/31/1
f 149/39/1 150/40/1 151/32/1 152/31/1
f 153/39/1 154/40/1 155/32/1 156/31/1
f 157/39/1 158/40/1 159/32/1 160/31/1
f 161/39/1 162/40/1 163/32/1 164/31/1
f 165/39/1 166/40/1 167/32/1 168/31/1
f 169/39/1 170/40/1 171/32/1 172/31/1
f 173/39/1 174/40/1 175/32/1 176/31/1
f 177/39/1 178/40/1 179/32/1 180/31/1
f 181/40/1 182/41/1 183/35/1 184/32/1
f 185/41/1 186/42/1 187/37/1 188/35/1
f 189/17/1 190/18/1 191/43/1 192/44/1
f 193/45/1 194/46/1 195/40/1 196/39/1
f 197/39/1 198/40/1 199/32/1 200/31/1
f 201/39/1 202/40/1 203/32/1 204/31/1
f 205/39/1 206/40/1 207/32/1 208/31/1
f 209/45/1 210/46/1 211/40/1 212/39/1
f 213/45/1 214/46/1 215/40/1 216/39/1
f 217/45/1 218/46/1 219/40/1 220/39/1
f 221/45/1 222/46/1 223/40/1 224/39/1
f 225/45/1 226/46/1 227/40/1 228/39/1
f 229/45/1 230/46/1 231/40/1 232/39/1
f 233/45/1 234/46/1 235/40/1 236/39/1
f 237/45/1 238/46/1 239/40/1 240/39/1
f 241/45/1 242/46/1 243/40/1 244/39/1
f 245/46/1 246/47/1 247/41/1 248/40/1
f 249/47/1 250/48/1 251/42/1 252/41/1
f 253/13/1 254/16/1 255/49/1 256/50/1
f 257/51/1 258/52/1 259/46/1 260/45/1
f 261/45/1 262/46/1 263/40/1 264/39/1
f 265/45/1 266/46/1 267/40/1 268/39/1
f 269/45/1 270/46/1 271/40/1 272/39/1
f 273/51/1 274/52/1 275/46/1 276/45/1
f 277/51/1 278/52/1 279/46/1 280/45/1
f 281/51/1 282/52/1 283/46/1 284/45/1
f 285/51/1 286/52/1 287/46/1 288/45/1
f 289/51/1 290/52/1 291/46/1 292/45/1
f 293/51/1 294/52/1 295/46/1 296/45/1
f 297/51/1 298/52/1 299/46/1 300/45/1
f 301/51/1 302/52/1 303/46/1 304/45/1
f 305/31/1 306/32/1 307/33/1 308/34/1
f 309/32/1 310/35/1 311/36/1 312/33/1
f 313/35/1 314/37/1 315/38/1 316/36/1
f 317/2/1 318/3/1 319/4/1 320/1/1
f 321/51/1 322/52/1 323/46/1 324/45/1
f 325/51/1 326/52/1 327/46/1 328/45/1
f 329/51/1 330/52/1 331/46/1 332/45/1
f 333/51/1 334/52/1 335/46/1 336/45/1
f 337/51/1 338/52/1 339/46/1 340/45/1
f 341/51/1 342/52/1 343/46/1 344/45/1
f 345/51/1 346/52/1 347/46/1 348/45/1
f 349/52/1 350/53/1 351/47/1 352/46/1
f 353/53/1 354/54/1 355/48/1 356/47/1
f 357/53/1 358/54/1 359/48/1 360/47/1
f 361/53/1 362/54/1 363/48/1 364/47/1
f 365/53/1 366/54/1 367/48/1 368/47/1
f 369/31/1 370/32/1 371/33/1 372/34/1
f 373/32/1 374/35/1 375/36/1 376/33/1
f 377/35/1 378/37/1 379/38/1 380/36/1
f 381/10/1 382/11/1 383/12/1 384/9/1
f 385/41/1 386/42/1 387/37/1 388/35/1
f 389/39/1 390/40/1 391/32/1 392/31/1
f 393/40/1 394/41/1 395/35/1 396/32/1
f 397/41/1 398/42/1 399/37/1 400/35/1
f 401/39/1 402/40/1 403/32/1 404/31/1
f 405/40/1 406/41/1 407/35/1 408/32/1
f 409/41/1 410/42/1 411/37/1 412/35/1
f 413/39/1 414/40/1 415/32/1 416/31/1
f 417/40/1 418/41/1 419/35/1 420/32/1
f 421/41/1 422/42/1 423/37/1 424/35/1
f 425/39/1 426/40/1 427/32/1 428/31/1
f 429/40/1 430/41/1 431/35/1 432/32/1
f 433/31/1 434/32/1 435/33/1 436/34/1
f 437/32/1 438/35/1 439/36/1 440/33/1
f 441/35/1 442/37/1 443/38/1 444/36/1
f 445/44/1 446/43/1 447/15/1 448/14/1
f 449/47/1 450/48/1 451/42/1 452/41/1
f 453/45/1 454/46/1 455/40/1 456/39/1
f 457/46/1 458/47/1 459/41/1 460/40/1
f 461/47/1 462/48/1 463/42/1 464/41/1
f 465/45/1 466/46/1 467/40/1 468/39/1
f 469/46/1 470/47/1 471/41/1 472/40/1
f 473/47/1 474/48/1 475/42/1 476/41/1
f 477/45/1 478/46/1 479/40/1 480/39/1
f 481/46/1 482/47/1 483/41/1 484/40/1
f 485/47/1 486/48/1 487/42/1 488/41/1
f 489/45/1 490/46/1 491/40/1 492/39/1
f 493/46/1 494/47/1 495/41/1 496/40/1
f 497/31/1 498/32/1 499/33/1 500/34/1
f 501/32/1 502/35/1 503/36/1 504/33/1
f 505/35/1 506/37/1 507/38/1 508/36/1
f 509/27/1 510/30/1 511/21/1 512/20/1

