# Tiled2Unity generated file. Do not modify by hand.
# Wavefront file for '2ScenarioPlataforma_mesh_0920.obj'

# Vertices (Count = 8)
v -224 -16 0
v -240 -16 0
v -240 0 0
v -224 0 0
v -240 -16 0
v -256 -16 0
v -256 0 0
v -240 0 0

# Texture cooridinates (Count = 8)
vt 0.393617 0.1875
vt 0.3829787 0.1875
vt 0.3829787 0.125
vt 0.393617 0.125
vt 0.3404255 0.1875
vt 0.3297872 0.1875
vt 0.3297872 0.125
vt 0.3404255 0.125

# Normal
vn 0 0 -1

# Mesh description
g 2ScenarioPlataforma_mesh_0920

# Faces
f 1/1/1 2/2/1 3/3/1 4/4/1
f 5/5/1 6/6/1 7/7/1 8/8/1

