# Tiled2Unity generated file. Do not modify by hand.
# Wavefront file for '2ScenarioPlataforma_mesh_0953.obj'

# Vertices (Count = 396)
v 0 -16 0
v -16 -16 0
v -16 0 0
v 0 0 0
v 0 -32 0
v -16 -32 0
v -16 -16 0
v 0 -16 0
v 0 -48 0
v -16 -48 0
v -16 -32 0
v 0 -32 0
v 0 -64 0
v -16 -64 0
v -16 -48 0
v 0 -48 0
v -96 -64 0
v -112 -64 0
v -112 -48 0
v -96 -48 0
v -112 -64 0
v -128 -64 0
v -128 -48 0
v -112 -48 0
v -128 -64 0
v -144 -64 0
v -144 -48 0
v -128 -48 0
v -144 -64 0
v -160 -64 0
v -160 -48 0
v -144 -48 0
v -160 -64 0
v -176 -64 0
v -176 -48 0
v -160 -48 0
v -176 -64 0
v -192 -64 0
v -192 -48 0
v -176 -48 0
v -192 -64 0
v -208 -64 0
v -208 -48 0
v -192 -48 0
v -208 -64 0
v -224 -64 0
v -224 -48 0
v -208 -48 0
v -224 -64 0
v -240 -64 0
v -240 -48 0
v -224 -48 0
v -240 -64 0
v -256 -64 0
v -256 -48 0
v -240 -48 0
v -208 -80 0
v -224 -80 0
v -224 -64 0
v -208 -64 0
v -224 -80 0
v -240 -80 0
v -240 -64 0
v -224 -64 0
v -240 -80 0
v -256 -80 0
v -256 -64 0
v -240 -64 0
v -208 -96 0
v -224 -96 0
v -224 -80 0
v -208 -80 0
v -224 -96 0
v -240 -96 0
v -240 -80 0
v -224 -80 0
v -240 -96 0
v -256 -96 0
v -256 -80 0
v -240 -80 0
v -208 -112 0
v -224 -112 0
v -224 -96 0
v -208 -96 0
v -224 -112 0
v -240 -112 0
v -240 -96 0
v -224 -96 0
v -240 -112 0
v -256 -112 0
v -256 -96 0
v -240 -96 0
v -208 -128 0
v -224 -128 0
v -224 -112 0
v -208 -112 0
v -224 -128 0
v -240 -128 0
v -240 -112 0
v -224 -112 0
v -240 -128 0
v -256 -128 0
v -256 -112 0
v -240 -112 0
v -208 -144 0
v -224 -144 0
v -224 -128 0
v -208 -128 0
v -224 -144 0
v -240 -144 0
v -240 -128 0
v -224 -128 0
v -240 -144 0
v -256 -144 0
v -256 -128 0
v -240 -128 0
v -224 -160 0
v -240 -160 0
v -240 -144 0
v -224 -144 0
v -240 -160 0
v -256 -160 0
v -256 -144 0
v -240 -144 0
v -224 -176 0
v -240 -176 0
v -240 -160 0
v -224 -160 0
v -240 -176 0
v -256 -176 0
v -256 -160 0
v -240 -160 0
v -224 -192 0
v -240 -192 0
v -240 -176 0
v -224 -176 0
v -240 -192 0
v -256 -192 0
v -256 -176 0
v -240 -176 0
v 0 -208 0
v -16 -208 0
v -16 -192 0
v 0 -192 0
v -16 -208 0
v -32 -208 0
v -32 -192 0
v -16 -192 0
v -32 -208 0
v -48 -208 0
v -48 -192 0
v -32 -192 0
v -48 -208 0
v -64 -208 0
v -64 -192 0
v -48 -192 0
v -64 -208 0
v -80 -208 0
v -80 -192 0
v -64 -192 0
v -80 -208 0
v -96 -208 0
v -96 -192 0
v -80 -192 0
v -96 -208 0
v -112 -208 0
v -112 -192 0
v -96 -192 0
v -112 -208 0
v -128 -208 0
v -128 -192 0
v -112 -192 0
v -128 -208 0
v -144 -208 0
v -144 -192 0
v -128 -192 0
v -144 -208 0
v -160 -208 0
v -160 -192 0
v -144 -192 0
v -160 -208 0
v -176 -208 0
v -176 -192 0
v -160 -192 0
v -176 -208 0
v -192 -208 0
v -192 -192 0
v -176 -192 0
v -192 -208 0
v -208 -208 0
v -208 -192 0
v -192 -192 0
v -208 -208 0
v -224 -208 0
v -224 -192 0
v -208 -192 0
v -224 -208 0
v -240 -208 0
v -240 -192 0
v -224 -192 0
v -240 -208 0
v -256 -208 0
v -256 -192 0
v -240 -192 0
v 0 -224 0
v -16 -224 0
v -16 -208 0
v 0 -208 0
v -16 -224 0
v -32 -224 0
v -32 -208 0
v -16 -208 0
v -32 -224 0
v -48 -224 0
v -48 -208 0
v -32 -208 0
v -48 -224 0
v -64 -224 0
v -64 -208 0
v -48 -208 0
v -64 -224 0
v -80 -224 0
v -80 -208 0
v -64 -208 0
v -80 -224 0
v -96 -224 0
v -96 -208 0
v -80 -208 0
v -96 -224 0
v -112 -224 0
v -112 -208 0
v -96 -208 0
v -112 -224 0
v -128 -224 0
v -128 -208 0
v -112 -208 0
v -128 -224 0
v -144 -224 0
v -144 -208 0
v -128 -208 0
v -144 -224 0
v -160 -224 0
v -160 -208 0
v -144 -208 0
v -160 -224 0
v -176 -224 0
v -176 -208 0
v -160 -208 0
v -176 -224 0
v -192 -224 0
v -192 -208 0
v -176 -208 0
v -192 -224 0
v -208 -224 0
v -208 -208 0
v -192 -208 0
v -208 -224 0
v -224 -224 0
v -224 -208 0
v -208 -208 0
v -224 -224 0
v -240 -224 0
v -240 -208 0
v -224 -208 0
v -240 -224 0
v -256 -224 0
v -256 -208 0
v -240 -208 0
v 0 -240 0
v -16 -240 0
v -16 -224 0
v 0 -224 0
v -16 -240 0
v -32 -240 0
v -32 -224 0
v -16 -224 0
v -32 -240 0
v -48 -240 0
v -48 -224 0
v -32 -224 0
v -48 -240 0
v -64 -240 0
v -64 -224 0
v -48 -224 0
v -64 -240 0
v -80 -240 0
v -80 -224 0
v -64 -224 0
v -80 -240 0
v -96 -240 0
v -96 -224 0
v -80 -224 0
v -96 -240 0
v -112 -240 0
v -112 -224 0
v -96 -224 0
v -112 -240 0
v -128 -240 0
v -128 -224 0
v -112 -224 0
v -128 -240 0
v -144 -240 0
v -144 -224 0
v -128 -224 0
v -144 -240 0
v -160 -240 0
v -160 -224 0
v -144 -224 0
v -160 -240 0
v -176 -240 0
v -176 -224 0
v -160 -224 0
v -176 -240 0
v -192 -240 0
v -192 -224 0
v -176 -224 0
v -192 -240 0
v -208 -240 0
v -208 -224 0
v -192 -224 0
v -208 -240 0
v -224 -240 0
v -224 -224 0
v -208 -224 0
v -224 -240 0
v -240 -240 0
v -240 -224 0
v -224 -224 0
v -240 -240 0
v -256 -240 0
v -256 -224 0
v -240 -224 0
v 0 -256 0
v -16 -256 0
v -16 -240 0
v 0 -240 0
v -16 -256 0
v -32 -256 0
v -32 -240 0
v -16 -240 0
v -32 -256 0
v -48 -256 0
v -48 -240 0
v -32 -240 0
v -48 -256 0
v -64 -256 0
v -64 -240 0
v -48 -240 0
v -64 -256 0
v -80 -256 0
v -80 -240 0
v -64 -240 0
v -80 -256 0
v -96 -256 0
v -96 -240 0
v -80 -240 0
v -96 -256 0
v -112 -256 0
v -112 -240 0
v -96 -240 0
v -112 -256 0
v -128 -256 0
v -128 -240 0
v -112 -240 0
v -128 -256 0
v -144 -256 0
v -144 -240 0
v -128 -240 0
v -144 -256 0
v -160 -256 0
v -160 -240 0
v -144 -240 0
v -160 -256 0
v -176 -256 0
v -176 -240 0
v -160 -240 0
v -176 -256 0
v -192 -256 0
v -192 -240 0
v -176 -240 0
v -192 -256 0
v -208 -256 0
v -208 -240 0
v -192 -240 0
v -208 -256 0
v -224 -256 0
v -224 -240 0
v -208 -240 0
v -224 -256 0
v -240 -256 0
v -240 -240 0
v -224 -240 0
v -240 -256 0
v -256 -256 0
v -256 -240 0
v -240 -240 0

# Texture cooridinates (Count = 82)
vt 0.1276596 0.25
vt 0.1382979 0.25
vt 0.1382979 0.3125
vt 0.1276596 0.3125
vt 0.2659574 0.25
vt 0.2765957 0.25
vt 0.2765957 0.3125
vt 0.2659574 0.3125
vt 0.6170213 0.1875
vt 0.6276596 0.1875
vt 0.6276596 0.25
vt 0.6170213 0.25
vt 0.6382979 0.1875
vt 0.6489362 0.1875
vt 0.6489362 0.25
vt 0.6382979 0.25
vt 0.606383 0.1875
vt 0.606383 0.25
vt 0.5957447 0.1875
vt 0.5957447 0.25
vt 0.6702127 0.1875
vt 0.680851 0.1875
vt 0.680851 0.25
vt 0.6702127 0.25
vt 0.4042553 0.625
vt 0.4148936 0.625
vt 0.4148936 0.6875
vt 0.4042553 0.6875
vt 0.5531915 0.1875
vt 0.5638298 0.1875
vt 0.5638298 0.25
vt 0.5531915 0.25
vt 0.606383 0.8125
vt 0.6170213 0.8125
vt 0.6170213 0.875
vt 0.606383 0.875
vt 0.393617 0.6875
vt 0.393617 0.625
vt 0.606383 0.75
vt 0.6170213 0.75
vt 0.606383 0.6875
vt 0.6170213 0.6875
vt 0.606383 0.625
vt 0.6170213 0.625
vt 0.5744681 0.25
vt 0.5744681 0.1875
vt 0.5851064 0.1875
vt 0.5851064 0.25
vt 0.4255319 0.6875
vt 0.4255319 0.625
vt 0.4361702 0.625
vt 0.4361702 0.6875
vt 0.3829787 0.6875
vt 0.3829787 0.625
vt 0.3723404 0.6875
vt 0.3723404 0.625
vt 0.6595744 0.25
vt 0.6595744 0.1875
vt 0.2446809 0.125
vt 0.2553191 0.125
vt 0.2553191 0.1875
vt 0.2446809 0.1875
vt 0.212766 0.125
vt 0.2234043 0.125
vt 0.2234043 0.1875
vt 0.212766 0.1875
vt 0.2340426 0.125
vt 0.2340426 0.1875
vt 0.2446809 0.0625
vt 0.2553191 0.0625
vt 0.212766 0.0625
vt 0.2234043 0.0625
vt 0.2340426 0.0625
vt 0.2446809 0
vt 0.2553191 0
vt 0.212766 0
vt 0.2234043 0
vt 0.2340426 0
vt 0.6276596 0.8125
vt 0.6276596 0.875
vt 0.6382979 0.8125
vt 0.6382979 0.875

# Normal
vn 0 0 -1

# Mesh description
g 2ScenarioPlataforma_mesh_0953

# Faces
f 1/1/1 2/2/1 3/3/1 4/4/1
f 5/5/1 6/6/1 7/7/1 8/8/1
f 9/5/1 10/6/1 11/7/1 12/8/1
f 13/1/1 14/2/1 15/3/1 16/4/1
f 17/9/1 18/10/1 19/11/1 20/12/1
f 21/13/1 22/14/1 23/15/1 24/16/1
f 25/17/1 26/9/1 27/12/1 28/18/1
f 29/9/1 30/10/1 31/11/1 32/12/1
f 33/19/1 34/17/1 35/18/1 36/20/1
f 37/21/1 38/22/1 39/23/1 40/24/1
f 41/21/1 42/22/1 43/23/1 44/24/1
f 45/25/1 46/26/1 47/27/1 48/28/1
f 49/17/1 50/9/1 51/12/1 52/18/1
f 53/29/1 54/30/1 55/31/1 56/32/1
f 57/18/1 58/17/1 59/9/1 60/12/1
f 61/33/1 62/34/1 63/35/1 64/36/1
f 65/33/1 66/34/1 67/35/1 68/36/1
f 69/37/1 70/38/1 71/25/1 72/28/1
f 73/39/1 74/40/1 75/34/1 76/33/1
f 77/39/1 78/40/1 79/34/1 80/33/1
f 81/28/1 82/25/1 83/26/1 84/27/1
f 85/41/1 86/42/1 87/40/1 88/39/1
f 89/41/1 90/42/1 91/40/1 92/39/1
f 93/20/1 94/19/1 95/17/1 96/18/1
f 97/43/1 98/44/1 99/42/1 100/41/1
f 101/43/1 102/44/1 103/42/1 104/41/1
f 105/45/1 106/46/1 107/47/1 108/48/1
f 109/28/1 110/25/1 111/26/1 112/27/1
f 113/18/1 114/17/1 115/9/1 116/12/1
f 117/49/1 118/50/1 119/51/1 120/52/1
f 121/53/1 122/54/1 123/38/1 124/37/1
f 125/55/1 126/56/1 127/54/1 128/53/1
f 129/57/1 130/58/1 131/21/1 132/24/1
f 133/12/1 134/9/1 135/10/1 136/11/1
f 137/49/1 138/50/1 139/51/1 140/52/1
f 141/59/1 142/60/1 143/61/1 144/62/1
f 145/63/1 146/64/1 147/65/1 148/66/1
f 149/64/1 150/67/1 151/68/1 152/65/1
f 153/67/1 154/59/1 155/62/1 156/68/1
f 157/59/1 158/60/1 159/61/1 160/62/1
f 161/59/1 162/60/1 163/61/1 164/62/1
f 165/63/1 166/64/1 167/65/1 168/66/1
f 169/64/1 170/67/1 171/68/1 172/65/1
f 173/63/1 174/64/1 175/65/1 176/66/1
f 177/64/1 178/67/1 179/68/1 180/65/1
f 181/63/1 182/64/1 183/65/1 184/66/1
f 185/64/1 186/67/1 187/68/1 188/65/1
f 189/67/1 190/59/1 191/62/1 192/68/1
f 193/63/1 194/64/1 195/65/1 196/66/1
f 197/64/1 198/67/1 199/68/1 200/65/1
f 201/63/1 202/64/1 203/65/1 204/66/1
f 205/69/1 206/70/1 207/60/1 208/59/1
f 209/71/1 210/72/1 211/64/1 212/63/1
f 213/72/1 214/73/1 215/67/1 216/64/1
f 217/73/1 218/69/1 219/59/1 220/67/1
f 221/69/1 222/70/1 223/60/1 224/59/1
f 225/69/1 226/70/1 227/60/1 228/59/1
f 229/71/1 230/72/1 231/64/1 232/63/1
f 233/72/1 234/73/1 235/67/1 236/64/1
f 237/71/1 238/72/1 239/64/1 240/63/1
f 241/72/1 242/73/1 243/67/1 244/64/1
f 245/71/1 246/72/1 247/64/1 248/63/1
f 249/72/1 250/73/1 251/67/1 252/64/1
f 253/73/1 254/69/1 255/59/1 256/67/1
f 257/71/1 258/72/1 259/64/1 260/63/1
f 261/72/1 262/73/1 263/67/1 264/64/1
f 265/71/1 266/72/1 267/64/1 268/63/1
f 269/74/1 270/75/1 271/70/1 272/69/1
f 273/76/1 274/77/1 275/72/1 276/71/1
f 277/77/1 278/78/1 279/73/1 280/72/1
f 281/78/1 282/74/1 283/69/1 284/73/1
f 285/74/1 286/75/1 287/70/1 288/69/1
f 289/74/1 290/75/1 291/70/1 292/69/1
f 293/76/1 294/77/1 295/72/1 296/71/1
f 297/77/1 298/78/1 299/73/1 300/72/1
f 301/76/1 302/77/1 303/72/1 304/71/1
f 305/77/1 306/78/1 307/73/1 308/72/1
f 309/76/1 310/77/1 311/72/1 312/71/1
f 313/77/1 314/78/1 315/73/1 316/72/1
f 317/78/1 318/74/1 319/69/1 320/73/1
f 321/76/1 322/77/1 323/72/1 324/71/1
f 325/77/1 326/78/1 327/73/1 328/72/1
f 329/76/1 330/77/1 331/72/1 332/71/1
f 333/33/1 334/34/1 335/35/1 336/36/1
f 337/33/1 338/34/1 339/35/1 340/36/1
f 341/33/1 342/34/1 343/35/1 344/36/1
f 345/33/1 346/34/1 347/35/1 348/36/1
f 349/33/1 350/34/1 351/35/1 352/36/1
f 353/33/1 354/34/1 355/35/1 356/36/1
f 357/33/1 358/34/1 359/35/1 360/36/1
f 361/33/1 362/34/1 363/35/1 364/36/1
f 365/33/1 366/34/1 367/35/1 368/36/1
f 369/33/1 370/34/1 371/35/1 372/36/1
f 373/33/1 374/34/1 375/35/1 376/36/1
f 377/33/1 378/34/1 379/35/1 380/36/1
f 381/33/1 382/34/1 383/35/1 384/36/1
f 385/33/1 386/34/1 387/35/1 388/36/1
f 389/34/1 390/79/1 391/80/1 392/35/1
f 393/79/1 394/81/1 395/82/1 396/80/1

