# Tiled2Unity generated file. Do not modify by hand.
# Wavefront file for '2ScenarioPlataforma_mesh_0008.obj'

# Vertices (Count = 332)
v -2048 -1184 0
v -2064 -1184 0
v -2064 -1168 0
v -2048 -1168 0
v -2064 -1184 0
v -2080 -1184 0
v -2080 -1168 0
v -2064 -1168 0
v -2080 -1184 0
v -2096 -1184 0
v -2096 -1168 0
v -2080 -1168 0
v -2096 -1184 0
v -2112 -1184 0
v -2112 -1168 0
v -2096 -1168 0
v -2320 -1376 0
v -2336 -1376 0
v -2336 -1360 0
v -2320 -1360 0
v -2336 -1376 0
v -2352 -1376 0
v -2352 -1360 0
v -2336 -1360 0
v -2352 -1376 0
v -2368 -1376 0
v -2368 -1360 0
v -2352 -1360 0
v -2368 -1376 0
v -2384 -1376 0
v -2384 -1360 0
v -2368 -1360 0
v -2496 -1376 0
v -2512 -1376 0
v -2512 -1360 0
v -2496 -1360 0
v -2512 -1376 0
v -2528 -1376 0
v -2528 -1360 0
v -2512 -1360 0
v -2528 -1376 0
v -2544 -1376 0
v -2544 -1360 0
v -2528 -1360 0
v -2544 -1376 0
v -2560 -1376 0
v -2560 -1360 0
v -2544 -1360 0
v -2768 -1376 0
v -2784 -1376 0
v -2784 -1360 0
v -2768 -1360 0
v -2640 -1392 0
v -2656 -1392 0
v -2656 -1376 0
v -2640 -1376 0
v -2768 -1392 0
v -2784 -1392 0
v -2784 -1376 0
v -2768 -1376 0
v -2640 -1408 0
v -2656 -1408 0
v -2656 -1392 0
v -2640 -1392 0
v -2768 -1408 0
v -2784 -1408 0
v -2784 -1392 0
v -2768 -1392 0
v -2640 -1424 0
v -2656 -1424 0
v -2656 -1408 0
v -2640 -1408 0
v -2768 -1424 0
v -2784 -1424 0
v -2784 -1408 0
v -2768 -1408 0
v -2640 -1440 0
v -2656 -1440 0
v -2656 -1424 0
v -2640 -1424 0
v -2768 -1440 0
v -2784 -1440 0
v -2784 -1424 0
v -2768 -1424 0
v -2640 -1456 0
v -2656 -1456 0
v -2656 -1440 0
v -2640 -1440 0
v -2768 -1456 0
v -2784 -1456 0
v -2784 -1440 0
v -2768 -1440 0
v -2640 -1504 0
v -2656 -1504 0
v -2656 -1488 0
v -2640 -1488 0
v -2768 -1504 0
v -2784 -1504 0
v -2784 -1488 0
v -2768 -1488 0
v -2640 -1520 0
v -2656 -1520 0
v -2656 -1504 0
v -2640 -1504 0
v -2768 -1520 0
v -2784 -1520 0
v -2784 -1504 0
v -2768 -1504 0
v -2640 -1536 0
v -2656 -1536 0
v -2656 -1520 0
v -2640 -1520 0
v -2768 -1536 0
v -2784 -1536 0
v -2784 -1520 0
v -2768 -1520 0
v -2640 -1552 0
v -2656 -1552 0
v -2656 -1536 0
v -2640 -1536 0
v -2768 -1552 0
v -2784 -1552 0
v -2784 -1536 0
v -2768 -1536 0
v -2768 -1568 0
v -2784 -1568 0
v -2784 -1552 0
v -2768 -1552 0
v -2640 -1600 0
v -2656 -1600 0
v -2656 -1584 0
v -2640 -1584 0
v -2640 -1616 0
v -2656 -1616 0
v -2656 -1600 0
v -2640 -1600 0
v -2768 -1616 0
v -2784 -1616 0
v -2784 -1600 0
v -2768 -1600 0
v -2640 -1632 0
v -2656 -1632 0
v -2656 -1616 0
v -2640 -1616 0
v -2768 -1632 0
v -2784 -1632 0
v -2784 -1616 0
v -2768 -1616 0
v -2640 -1648 0
v -2656 -1648 0
v -2656 -1632 0
v -2640 -1632 0
v -2768 -1648 0
v -2784 -1648 0
v -2784 -1632 0
v -2768 -1632 0
v -2640 -1664 0
v -2656 -1664 0
v -2656 -1648 0
v -2640 -1648 0
v -2768 -1664 0
v -2784 -1664 0
v -2784 -1648 0
v -2768 -1648 0
v -2768 -1680 0
v -2784 -1680 0
v -2784 -1664 0
v -2768 -1664 0
v -2768 -1696 0
v -2784 -1696 0
v -2784 -1680 0
v -2768 -1680 0
v -2640 -1712 0
v -2656 -1712 0
v -2656 -1696 0
v -2640 -1696 0
v -2768 -1712 0
v -2784 -1712 0
v -2784 -1696 0
v -2768 -1696 0
v -2640 -1728 0
v -2656 -1728 0
v -2656 -1712 0
v -2640 -1712 0
v -2768 -1728 0
v -2784 -1728 0
v -2784 -1712 0
v -2768 -1712 0
v -2640 -1744 0
v -2656 -1744 0
v -2656 -1728 0
v -2640 -1728 0
v -2768 -1744 0
v -2784 -1744 0
v -2784 -1728 0
v -2768 -1728 0
v -2640 -1760 0
v -2656 -1760 0
v -2656 -1744 0
v -2640 -1744 0
v -2640 -1776 0
v -2656 -1776 0
v -2656 -1760 0
v -2640 -1760 0
v -2640 -1792 0
v -2656 -1792 0
v -2656 -1776 0
v -2640 -1776 0
v -2640 -1808 0
v -2656 -1808 0
v -2656 -1792 0
v -2640 -1792 0
v -2640 -1824 0
v -2656 -1824 0
v -2656 -1808 0
v -2640 -1808 0
v -2640 -1840 0
v -2656 -1840 0
v -2656 -1824 0
v -2640 -1824 0
v -2640 -1856 0
v -2656 -1856 0
v -2656 -1840 0
v -2640 -1840 0
v -2640 -1872 0
v -2656 -1872 0
v -2656 -1856 0
v -2640 -1856 0
v -2640 -1888 0
v -2656 -1888 0
v -2656 -1872 0
v -2640 -1872 0
v -144 -1904 0
v -160 -1904 0
v -160 -1888 0
v -144 -1888 0
v -208 -1904 0
v -224 -1904 0
v -224 -1888 0
v -208 -1888 0
v -272 -1904 0
v -288 -1904 0
v -288 -1888 0
v -272 -1888 0
v -288 -1904 0
v -304 -1904 0
v -304 -1888 0
v -288 -1888 0
v -320 -1904 0
v -336 -1904 0
v -336 -1888 0
v -320 -1888 0
v -432 -1904 0
v -448 -1904 0
v -448 -1888 0
v -432 -1888 0
v -480 -1904 0
v -496 -1904 0
v -496 -1888 0
v -480 -1888 0
v -576 -1904 0
v -592 -1904 0
v -592 -1888 0
v -576 -1888 0
v -688 -1904 0
v -704 -1904 0
v -704 -1888 0
v -688 -1888 0
v -2640 -1904 0
v -2656 -1904 0
v -2656 -1888 0
v -2640 -1888 0
v -144 -1968 0
v -160 -1968 0
v -160 -1952 0
v -144 -1952 0
v -144 -2000 0
v -160 -2000 0
v -160 -1984 0
v -144 -1984 0
v -144 -2016 0
v -160 -2016 0
v -160 -2000 0
v -144 -2000 0
v -144 -2032 0
v -160 -2032 0
v -160 -2016 0
v -144 -2016 0
v -144 -2112 0
v -160 -2112 0
v -160 -2096 0
v -144 -2096 0
v -288 -2112 0
v -304 -2112 0
v -304 -2096 0
v -288 -2096 0
v -336 -2112 0
v -352 -2112 0
v -352 -2096 0
v -336 -2096 0
v -352 -2112 0
v -368 -2112 0
v -368 -2096 0
v -352 -2096 0
v -416 -2112 0
v -432 -2112 0
v -432 -2096 0
v -416 -2096 0
v -464 -2112 0
v -480 -2112 0
v -480 -2096 0
v -464 -2096 0
v -544 -2112 0
v -560 -2112 0
v -560 -2096 0
v -544 -2096 0
v -560 -2112 0
v -576 -2112 0
v -576 -2096 0
v -560 -2096 0
v -576 -2112 0
v -592 -2112 0
v -592 -2096 0
v -576 -2096 0
v -656 -2112 0
v -672 -2112 0
v -672 -2096 0
v -656 -2096 0
v -672 -2112 0
v -688 -2112 0
v -688 -2096 0
v -672 -2096 0

# Texture cooridinates (Count = 33)
vt 0.9047619 0.1875
vt 0.8809524 0.1875
vt 0.8809524 0.125
vt 0.9047619 0.125
vt 0.8571429 0.1875
vt 0.8571429 0.125
vt 0.8333333 0.1875
vt 0.8333333 0.125
vt 0.8095238 0.1875
vt 0.8095238 0.125
vt 0.7857143 0.875
vt 0.7857143 0.9375
vt 0.7619048 0.9375
vt 0.7619048 0.875
vt 0.8095238 0.875
vt 0.8095238 0.9375
vt 0.04761905 0.6875
vt 0.07142857 0.6875
vt 0.07142857 0.75
vt 0.04761905 0.75
vt 0.1428571 0.5625
vt 0.1428571 0.625
vt 0.1190476 0.625
vt 0.1190476 0.5625
vt 0.1190476 0.75
vt 0.0952381 0.75
vt 0.0952381 0.6875
vt 0.1190476 0.6875
vt 0.4761905 0.625
vt 0.5 0.625
vt 0.5 0.6875
vt 0.4761905 0.6875
vt 0.1428571 0.6875

# Normal
vn 0 0 -1

# Mesh description
g 2ScenarioPlataforma_mesh_0008

# Faces
f 1/1/1 2/2/1 3/3/1 4/4/1
f 5/2/1 6/5/1 7/6/1 8/3/1
f 9/5/1 10/7/1 11/8/1 12/6/1
f 13/7/1 14/9/1 15/10/1 16/8/1
f 17/10/1 18/8/1 19/7/1 20/9/1
f 21/8/1 22/6/1 23/5/1 24/7/1
f 25/6/1 26/3/1 27/2/1 28/5/1
f 29/3/1 30/4/1 31/1/1 32/2/1
f 33/10/1 34/8/1 35/7/1 36/9/1
f 37/8/1 38/6/1 39/5/1 40/7/1
f 41/6/1 42/3/1 43/2/1 44/5/1
f 45/3/1 46/4/1 47/1/1 48/2/1
f 49/11/1 50/12/1 51/13/1 52/14/1
f 53/12/1 54/11/1 55/15/1 56/16/1
f 57/11/1 58/12/1 59/13/1 60/14/1
f 61/13/1 62/14/1 63/11/1 64/12/1
f 65/11/1 66/12/1 67/13/1 68/14/1
f 69/13/1 70/14/1 71/11/1 72/12/1
f 73/11/1 74/12/1 75/13/1 76/14/1
f 77/13/1 78/14/1 79/11/1 80/12/1
f 81/11/1 82/12/1 83/13/1 84/14/1
f 85/13/1 86/14/1 87/11/1 88/12/1
f 89/11/1 90/12/1 91/13/1 92/14/1
f 93/13/1 94/14/1 95/11/1 96/12/1
f 97/11/1 98/12/1 99/13/1 100/14/1
f 101/13/1 102/14/1 103/11/1 104/12/1
f 105/11/1 106/12/1 107/13/1 108/14/1
f 109/13/1 110/14/1 111/11/1 112/12/1
f 113/11/1 114/12/1 115/13/1 116/14/1
f 117/13/1 118/14/1 119/11/1 120/12/1
f 121/11/1 122/12/1 123/13/1 124/14/1
f 125/11/1 126/12/1 127/13/1 128/14/1
f 129/13/1 130/14/1 131/11/1 132/12/1
f 133/13/1 134/14/1 135/11/1 136/12/1
f 137/11/1 138/12/1 139/13/1 140/14/1
f 141/13/1 142/14/1 143/11/1 144/12/1
f 145/11/1 146/12/1 147/13/1 148/14/1
f 149/13/1 150/14/1 151/11/1 152/12/1
f 153/11/1 154/12/1 155/13/1 156/14/1
f 157/13/1 158/14/1 159/11/1 160/12/1
f 161/11/1 162/12/1 163/13/1 164/14/1
f 165/11/1 166/12/1 167/13/1 168/14/1
f 169/11/1 170/12/1 171/13/1 172/14/1
f 173/13/1 174/14/1 175/11/1 176/12/1
f 177/15/1 178/16/1 179/12/1 180/11/1
f 181/13/1 182/14/1 183/11/1 184/12/1
f 185/11/1 186/12/1 187/13/1 188/14/1
f 189/13/1 190/14/1 191/11/1 192/12/1
f 193/11/1 194/12/1 195/13/1 196/14/1
f 197/13/1 198/14/1 199/11/1 200/12/1
f 201/13/1 202/14/1 203/11/1 204/12/1
f 205/13/1 206/14/1 207/11/1 208/12/1
f 209/13/1 210/14/1 211/11/1 212/12/1
f 213/13/1 214/14/1 215/11/1 216/12/1
f 217/13/1 218/14/1 219/11/1 220/12/1
f 221/12/1 222/11/1 223/15/1 224/16/1
f 225/12/1 226/11/1 227/15/1 228/16/1
f 229/12/1 230/11/1 231/15/1 232/16/1
f 233/17/1 234/18/1 235/19/1 236/20/1
f 237/21/1 238/22/1 239/23/1 240/24/1
f 241/25/1 242/26/1 243/27/1 244/28/1
f 245/26/1 246/19/1 247/18/1 248/27/1
f 249/21/1 250/22/1 251/23/1 252/24/1
f 253/21/1 254/22/1 255/23/1 256/24/1
f 257/29/1 258/30/1 259/31/1 260/32/1
f 261/21/1 262/22/1 263/23/1 264/24/1
f 265/21/1 266/22/1 267/23/1 268/24/1
f 269/13/1 270/14/1 271/11/1 272/12/1
f 273/21/1 274/22/1 275/23/1 276/24/1
f 277/23/1 278/24/1 279/21/1 280/22/1
f 281/29/1 282/30/1 283/31/1 284/32/1
f 285/24/1 286/21/1 287/22/1 288/23/1
f 289/17/1 290/18/1 291/19/1 292/20/1
f 293/29/1 294/30/1 295/31/1 296/32/1
f 297/18/1 298/27/1 299/26/1 300/19/1
f 301/27/1 302/28/1 303/25/1 304/26/1
f 305/29/1 306/30/1 307/31/1 308/32/1
f 309/23/1 310/24/1 311/21/1 312/22/1
f 313/29/1 314/30/1 315/31/1 316/32/1
f 317/18/1 318/27/1 319/26/1 320/19/1
f 321/27/1 322/28/1 323/25/1 324/26/1
f 325/21/1 326/22/1 327/23/1 328/24/1
f 329/22/1 330/33/1 331/28/1 332/23/1

