# Tiled2Unity generated file. Do not modify by hand.
# Wavefront file for '2ScenarioPlataforma_mesh_0379.obj'

# Vertices (Count = 1024)
v 0 -16 0
v -16 -16 0
v -16 0 0
v 0 0 0
v -16 -16 0
v -32 -16 0
v -32 0 0
v -16 0 0
v -32 -16 0
v -48 -16 0
v -48 0 0
v -32 0 0
v -48 -16 0
v -64 -16 0
v -64 0 0
v -48 0 0
v -64 -16 0
v -80 -16 0
v -80 0 0
v -64 0 0
v -80 -16 0
v -96 -16 0
v -96 0 0
v -80 0 0
v -96 -16 0
v -112 -16 0
v -112 0 0
v -96 0 0
v -112 -16 0
v -128 -16 0
v -128 0 0
v -112 0 0
v -128 -16 0
v -144 -16 0
v -144 0 0
v -128 0 0
v -144 -16 0
v -160 -16 0
v -160 0 0
v -144 0 0
v -160 -16 0
v -176 -16 0
v -176 0 0
v -160 0 0
v -176 -16 0
v -192 -16 0
v -192 0 0
v -176 0 0
v -192 -16 0
v -208 -16 0
v -208 0 0
v -192 0 0
v -208 -16 0
v -224 -16 0
v -224 0 0
v -208 0 0
v -224 -16 0
v -240 -16 0
v -240 0 0
v -224 0 0
v -240 -16 0
v -256 -16 0
v -256 0 0
v -240 0 0
v 0 -32 0
v -16 -32 0
v -16 -16 0
v 0 -16 0
v -16 -32 0
v -32 -32 0
v -32 -16 0
v -16 -16 0
v -32 -32 0
v -48 -32 0
v -48 -16 0
v -32 -16 0
v -48 -32 0
v -64 -32 0
v -64 -16 0
v -48 -16 0
v -64 -32 0
v -80 -32 0
v -80 -16 0
v -64 -16 0
v -80 -32 0
v -96 -32 0
v -96 -16 0
v -80 -16 0
v -96 -32 0
v -112 -32 0
v -112 -16 0
v -96 -16 0
v -112 -32 0
v -128 -32 0
v -128 -16 0
v -112 -16 0
v -128 -32 0
v -144 -32 0
v -144 -16 0
v -128 -16 0
v -144 -32 0
v -160 -32 0
v -160 -16 0
v -144 -16 0
v -160 -32 0
v -176 -32 0
v -176 -16 0
v -160 -16 0
v -176 -32 0
v -192 -32 0
v -192 -16 0
v -176 -16 0
v -192 -32 0
v -208 -32 0
v -208 -16 0
v -192 -16 0
v -208 -32 0
v -224 -32 0
v -224 -16 0
v -208 -16 0
v -224 -32 0
v -240 -32 0
v -240 -16 0
v -224 -16 0
v -240 -32 0
v -256 -32 0
v -256 -16 0
v -240 -16 0
v 0 -48 0
v -16 -48 0
v -16 -32 0
v 0 -32 0
v -16 -48 0
v -32 -48 0
v -32 -32 0
v -16 -32 0
v -32 -48 0
v -48 -48 0
v -48 -32 0
v -32 -32 0
v -48 -48 0
v -64 -48 0
v -64 -32 0
v -48 -32 0
v -64 -48 0
v -80 -48 0
v -80 -32 0
v -64 -32 0
v -80 -48 0
v -96 -48 0
v -96 -32 0
v -80 -32 0
v -96 -48 0
v -112 -48 0
v -112 -32 0
v -96 -32 0
v -112 -48 0
v -128 -48 0
v -128 -32 0
v -112 -32 0
v -128 -48 0
v -144 -48 0
v -144 -32 0
v -128 -32 0
v -144 -48 0
v -160 -48 0
v -160 -32 0
v -144 -32 0
v -160 -48 0
v -176 -48 0
v -176 -32 0
v -160 -32 0
v -176 -48 0
v -192 -48 0
v -192 -32 0
v -176 -32 0
v -192 -48 0
v -208 -48 0
v -208 -32 0
v -192 -32 0
v -208 -48 0
v -224 -48 0
v -224 -32 0
v -208 -32 0
v -224 -48 0
v -240 -48 0
v -240 -32 0
v -224 -32 0
v -240 -48 0
v -256 -48 0
v -256 -32 0
v -240 -32 0
v 0 -64 0
v -16 -64 0
v -16 -48 0
v 0 -48 0
v -16 -64 0
v -32 -64 0
v -32 -48 0
v -16 -48 0
v -32 -64 0
v -48 -64 0
v -48 -48 0
v -32 -48 0
v -48 -64 0
v -64 -64 0
v -64 -48 0
v -48 -48 0
v -64 -64 0
v -80 -64 0
v -80 -48 0
v -64 -48 0
v -80 -64 0
v -96 -64 0
v -96 -48 0
v -80 -48 0
v -96 -64 0
v -112 -64 0
v -112 -48 0
v -96 -48 0
v -112 -64 0
v -128 -64 0
v -128 -48 0
v -112 -48 0
v -128 -64 0
v -144 -64 0
v -144 -48 0
v -128 -48 0
v -144 -64 0
v -160 -64 0
v -160 -48 0
v -144 -48 0
v -160 -64 0
v -176 -64 0
v -176 -48 0
v -160 -48 0
v -176 -64 0
v -192 -64 0
v -192 -48 0
v -176 -48 0
v -192 -64 0
v -208 -64 0
v -208 -48 0
v -192 -48 0
v -208 -64 0
v -224 -64 0
v -224 -48 0
v -208 -48 0
v -224 -64 0
v -240 -64 0
v -240 -48 0
v -224 -48 0
v -240 -64 0
v -256 -64 0
v -256 -48 0
v -240 -48 0
v 0 -80 0
v -16 -80 0
v -16 -64 0
v 0 -64 0
v -16 -80 0
v -32 -80 0
v -32 -64 0
v -16 -64 0
v -32 -80 0
v -48 -80 0
v -48 -64 0
v -32 -64 0
v -48 -80 0
v -64 -80 0
v -64 -64 0
v -48 -64 0
v -64 -80 0
v -80 -80 0
v -80 -64 0
v -64 -64 0
v -80 -80 0
v -96 -80 0
v -96 -64 0
v -80 -64 0
v -96 -80 0
v -112 -80 0
v -112 -64 0
v -96 -64 0
v -112 -80 0
v -128 -80 0
v -128 -64 0
v -112 -64 0
v -128 -80 0
v -144 -80 0
v -144 -64 0
v -128 -64 0
v -144 -80 0
v -160 -80 0
v -160 -64 0
v -144 -64 0
v -160 -80 0
v -176 -80 0
v -176 -64 0
v -160 -64 0
v -176 -80 0
v -192 -80 0
v -192 -64 0
v -176 -64 0
v -192 -80 0
v -208 -80 0
v -208 -64 0
v -192 -64 0
v -208 -80 0
v -224 -80 0
v -224 -64 0
v -208 -64 0
v -224 -80 0
v -240 -80 0
v -240 -64 0
v -224 -64 0
v -240 -80 0
v -256 -80 0
v -256 -64 0
v -240 -64 0
v 0 -96 0
v -16 -96 0
v -16 -80 0
v 0 -80 0
v -16 -96 0
v -32 -96 0
v -32 -80 0
v -16 -80 0
v -32 -96 0
v -48 -96 0
v -48 -80 0
v -32 -80 0
v -48 -96 0
v -64 -96 0
v -64 -80 0
v -48 -80 0
v -64 -96 0
v -80 -96 0
v -80 -80 0
v -64 -80 0
v -80 -96 0
v -96 -96 0
v -96 -80 0
v -80 -80 0
v -96 -96 0
v -112 -96 0
v -112 -80 0
v -96 -80 0
v -112 -96 0
v -128 -96 0
v -128 -80 0
v -112 -80 0
v -128 -96 0
v -144 -96 0
v -144 -80 0
v -128 -80 0
v -144 -96 0
v -160 -96 0
v -160 -80 0
v -144 -80 0
v -160 -96 0
v -176 -96 0
v -176 -80 0
v -160 -80 0
v -176 -96 0
v -192 -96 0
v -192 -80 0
v -176 -80 0
v -192 -96 0
v -208 -96 0
v -208 -80 0
v -192 -80 0
v -208 -96 0
v -224 -96 0
v -224 -80 0
v -208 -80 0
v -224 -96 0
v -240 -96 0
v -240 -80 0
v -224 -80 0
v -240 -96 0
v -256 -96 0
v -256 -80 0
v -240 -80 0
v 0 -112 0
v -16 -112 0
v -16 -96 0
v 0 -96 0
v -16 -112 0
v -32 -112 0
v -32 -96 0
v -16 -96 0
v -32 -112 0
v -48 -112 0
v -48 -96 0
v -32 -96 0
v -48 -112 0
v -64 -112 0
v -64 -96 0
v -48 -96 0
v -64 -112 0
v -80 -112 0
v -80 -96 0
v -64 -96 0
v -80 -112 0
v -96 -112 0
v -96 -96 0
v -80 -96 0
v -96 -112 0
v -112 -112 0
v -112 -96 0
v -96 -96 0
v -112 -112 0
v -128 -112 0
v -128 -96 0
v -112 -96 0
v -128 -112 0
v -144 -112 0
v -144 -96 0
v -128 -96 0
v -144 -112 0
v -160 -112 0
v -160 -96 0
v -144 -96 0
v -160 -112 0
v -176 -112 0
v -176 -96 0
v -160 -96 0
v -176 -112 0
v -192 -112 0
v -192 -96 0
v -176 -96 0
v -192 -112 0
v -208 -112 0
v -208 -96 0
v -192 -96 0
v -208 -112 0
v -224 -112 0
v -224 -96 0
v -208 -96 0
v -224 -112 0
v -240 -112 0
v -240 -96 0
v -224 -96 0
v -240 -112 0
v -256 -112 0
v -256 -96 0
v -240 -96 0
v 0 -128 0
v -16 -128 0
v -16 -112 0
v 0 -112 0
v -16 -128 0
v -32 -128 0
v -32 -112 0
v -16 -112 0
v -32 -128 0
v -48 -128 0
v -48 -112 0
v -32 -112 0
v -48 -128 0
v -64 -128 0
v -64 -112 0
v -48 -112 0
v -64 -128 0
v -80 -128 0
v -80 -112 0
v -64 -112 0
v -80 -128 0
v -96 -128 0
v -96 -112 0
v -80 -112 0
v -96 -128 0
v -112 -128 0
v -112 -112 0
v -96 -112 0
v -112 -128 0
v -128 -128 0
v -128 -112 0
v -112 -112 0
v -128 -128 0
v -144 -128 0
v -144 -112 0
v -128 -112 0
v -144 -128 0
v -160 -128 0
v -160 -112 0
v -144 -112 0
v -160 -128 0
v -176 -128 0
v -176 -112 0
v -160 -112 0
v -176 -128 0
v -192 -128 0
v -192 -112 0
v -176 -112 0
v -192 -128 0
v -208 -128 0
v -208 -112 0
v -192 -112 0
v -208 -128 0
v -224 -128 0
v -224 -112 0
v -208 -112 0
v -224 -128 0
v -240 -128 0
v -240 -112 0
v -224 -112 0
v -240 -128 0
v -256 -128 0
v -256 -112 0
v -240 -112 0
v 0 -144 0
v -16 -144 0
v -16 -128 0
v 0 -128 0
v -16 -144 0
v -32 -144 0
v -32 -128 0
v -16 -128 0
v -32 -144 0
v -48 -144 0
v -48 -128 0
v -32 -128 0
v -48 -144 0
v -64 -144 0
v -64 -128 0
v -48 -128 0
v -64 -144 0
v -80 -144 0
v -80 -128 0
v -64 -128 0
v -80 -144 0
v -96 -144 0
v -96 -128 0
v -80 -128 0
v -96 -144 0
v -112 -144 0
v -112 -128 0
v -96 -128 0
v -112 -144 0
v -128 -144 0
v -128 -128 0
v -112 -128 0
v -128 -144 0
v -144 -144 0
v -144 -128 0
v -128 -128 0
v -144 -144 0
v -160 -144 0
v -160 -128 0
v -144 -128 0
v -160 -144 0
v -176 -144 0
v -176 -128 0
v -160 -128 0
v -176 -144 0
v -192 -144 0
v -192 -128 0
v -176 -128 0
v -192 -144 0
v -208 -144 0
v -208 -128 0
v -192 -128 0
v -208 -144 0
v -224 -144 0
v -224 -128 0
v -208 -128 0
v -224 -144 0
v -240 -144 0
v -240 -128 0
v -224 -128 0
v -240 -144 0
v -256 -144 0
v -256 -128 0
v -240 -128 0
v 0 -160 0
v -16 -160 0
v -16 -144 0
v 0 -144 0
v -16 -160 0
v -32 -160 0
v -32 -144 0
v -16 -144 0
v -32 -160 0
v -48 -160 0
v -48 -144 0
v -32 -144 0
v -48 -160 0
v -64 -160 0
v -64 -144 0
v -48 -144 0
v -64 -160 0
v -80 -160 0
v -80 -144 0
v -64 -144 0
v -80 -160 0
v -96 -160 0
v -96 -144 0
v -80 -144 0
v -96 -160 0
v -112 -160 0
v -112 -144 0
v -96 -144 0
v -112 -160 0
v -128 -160 0
v -128 -144 0
v -112 -144 0
v -128 -160 0
v -144 -160 0
v -144 -144 0
v -128 -144 0
v -144 -160 0
v -160 -160 0
v -160 -144 0
v -144 -144 0
v -160 -160 0
v -176 -160 0
v -176 -144 0
v -160 -144 0
v -176 -160 0
v -192 -160 0
v -192 -144 0
v -176 -144 0
v -192 -160 0
v -208 -160 0
v -208 -144 0
v -192 -144 0
v -208 -160 0
v -224 -160 0
v -224 -144 0
v -208 -144 0
v -224 -160 0
v -240 -160 0
v -240 -144 0
v -224 -144 0
v -240 -160 0
v -256 -160 0
v -256 -144 0
v -240 -144 0
v 0 -176 0
v -16 -176 0
v -16 -160 0
v 0 -160 0
v -16 -176 0
v -32 -176 0
v -32 -160 0
v -16 -160 0
v -32 -176 0
v -48 -176 0
v -48 -160 0
v -32 -160 0
v -48 -176 0
v -64 -176 0
v -64 -160 0
v -48 -160 0
v -64 -176 0
v -80 -176 0
v -80 -160 0
v -64 -160 0
v -80 -176 0
v -96 -176 0
v -96 -160 0
v -80 -160 0
v -96 -176 0
v -112 -176 0
v -112 -160 0
v -96 -160 0
v -112 -176 0
v -128 -176 0
v -128 -160 0
v -112 -160 0
v -128 -176 0
v -144 -176 0
v -144 -160 0
v -128 -160 0
v -144 -176 0
v -160 -176 0
v -160 -160 0
v -144 -160 0
v -160 -176 0
v -176 -176 0
v -176 -160 0
v -160 -160 0
v -176 -176 0
v -192 -176 0
v -192 -160 0
v -176 -160 0
v -192 -176 0
v -208 -176 0
v -208 -160 0
v -192 -160 0
v -208 -176 0
v -224 -176 0
v -224 -160 0
v -208 -160 0
v -224 -176 0
v -240 -176 0
v -240 -160 0
v -224 -160 0
v -240 -176 0
v -256 -176 0
v -256 -160 0
v -240 -160 0
v 0 -192 0
v -16 -192 0
v -16 -176 0
v 0 -176 0
v -16 -192 0
v -32 -192 0
v -32 -176 0
v -16 -176 0
v -32 -192 0
v -48 -192 0
v -48 -176 0
v -32 -176 0
v -48 -192 0
v -64 -192 0
v -64 -176 0
v -48 -176 0
v -64 -192 0
v -80 -192 0
v -80 -176 0
v -64 -176 0
v -80 -192 0
v -96 -192 0
v -96 -176 0
v -80 -176 0
v -96 -192 0
v -112 -192 0
v -112 -176 0
v -96 -176 0
v -112 -192 0
v -128 -192 0
v -128 -176 0
v -112 -176 0
v -128 -192 0
v -144 -192 0
v -144 -176 0
v -128 -176 0
v -144 -192 0
v -160 -192 0
v -160 -176 0
v -144 -176 0
v -160 -192 0
v -176 -192 0
v -176 -176 0
v -160 -176 0
v -176 -192 0
v -192 -192 0
v -192 -176 0
v -176 -176 0
v -192 -192 0
v -208 -192 0
v -208 -176 0
v -192 -176 0
v -208 -192 0
v -224 -192 0
v -224 -176 0
v -208 -176 0
v -224 -192 0
v -240 -192 0
v -240 -176 0
v -224 -176 0
v -240 -192 0
v -256 -192 0
v -256 -176 0
v -240 -176 0
v 0 -208 0
v -16 -208 0
v -16 -192 0
v 0 -192 0
v -16 -208 0
v -32 -208 0
v -32 -192 0
v -16 -192 0
v -32 -208 0
v -48 -208 0
v -48 -192 0
v -32 -192 0
v -48 -208 0
v -64 -208 0
v -64 -192 0
v -48 -192 0
v -64 -208 0
v -80 -208 0
v -80 -192 0
v -64 -192 0
v -80 -208 0
v -96 -208 0
v -96 -192 0
v -80 -192 0
v -96 -208 0
v -112 -208 0
v -112 -192 0
v -96 -192 0
v -112 -208 0
v -128 -208 0
v -128 -192 0
v -112 -192 0
v -128 -208 0
v -144 -208 0
v -144 -192 0
v -128 -192 0
v -144 -208 0
v -160 -208 0
v -160 -192 0
v -144 -192 0
v -160 -208 0
v -176 -208 0
v -176 -192 0
v -160 -192 0
v -176 -208 0
v -192 -208 0
v -192 -192 0
v -176 -192 0
v -192 -208 0
v -208 -208 0
v -208 -192 0
v -192 -192 0
v -208 -208 0
v -224 -208 0
v -224 -192 0
v -208 -192 0
v -224 -208 0
v -240 -208 0
v -240 -192 0
v -224 -192 0
v -240 -208 0
v -256 -208 0
v -256 -192 0
v -240 -192 0
v 0 -224 0
v -16 -224 0
v -16 -208 0
v 0 -208 0
v -16 -224 0
v -32 -224 0
v -32 -208 0
v -16 -208 0
v -32 -224 0
v -48 -224 0
v -48 -208 0
v -32 -208 0
v -48 -224 0
v -64 -224 0
v -64 -208 0
v -48 -208 0
v -64 -224 0
v -80 -224 0
v -80 -208 0
v -64 -208 0
v -80 -224 0
v -96 -224 0
v -96 -208 0
v -80 -208 0
v -96 -224 0
v -112 -224 0
v -112 -208 0
v -96 -208 0
v -112 -224 0
v -128 -224 0
v -128 -208 0
v -112 -208 0
v -128 -224 0
v -144 -224 0
v -144 -208 0
v -128 -208 0
v -144 -224 0
v -160 -224 0
v -160 -208 0
v -144 -208 0
v -160 -224 0
v -176 -224 0
v -176 -208 0
v -160 -208 0
v -176 -224 0
v -192 -224 0
v -192 -208 0
v -176 -208 0
v -192 -224 0
v -208 -224 0
v -208 -208 0
v -192 -208 0
v -208 -224 0
v -224 -224 0
v -224 -208 0
v -208 -208 0
v -224 -224 0
v -240 -224 0
v -240 -208 0
v -224 -208 0
v -240 -224 0
v -256 -224 0
v -256 -208 0
v -240 -208 0
v 0 -240 0
v -16 -240 0
v -16 -224 0
v 0 -224 0
v -16 -240 0
v -32 -240 0
v -32 -224 0
v -16 -224 0
v -32 -240 0
v -48 -240 0
v -48 -224 0
v -32 -224 0
v -48 -240 0
v -64 -240 0
v -64 -224 0
v -48 -224 0
v -64 -240 0
v -80 -240 0
v -80 -224 0
v -64 -224 0
v -80 -240 0
v -96 -240 0
v -96 -224 0
v -80 -224 0
v -96 -240 0
v -112 -240 0
v -112 -224 0
v -96 -224 0
v -112 -240 0
v -128 -240 0
v -128 -224 0
v -112 -224 0
v -128 -240 0
v -144 -240 0
v -144 -224 0
v -128 -224 0
v -144 -240 0
v -160 -240 0
v -160 -224 0
v -144 -224 0
v -160 -240 0
v -176 -240 0
v -176 -224 0
v -160 -224 0
v -176 -240 0
v -192 -240 0
v -192 -224 0
v -176 -224 0
v -192 -240 0
v -208 -240 0
v -208 -224 0
v -192 -224 0
v -208 -240 0
v -224 -240 0
v -224 -224 0
v -208 -224 0
v -224 -240 0
v -240 -240 0
v -240 -224 0
v -224 -224 0
v -240 -240 0
v -256 -240 0
v -256 -224 0
v -240 -224 0
v 0 -256 0
v -16 -256 0
v -16 -240 0
v 0 -240 0
v -16 -256 0
v -32 -256 0
v -32 -240 0
v -16 -240 0
v -32 -256 0
v -48 -256 0
v -48 -240 0
v -32 -240 0
v -48 -256 0
v -64 -256 0
v -64 -240 0
v -48 -240 0
v -64 -256 0
v -80 -256 0
v -80 -240 0
v -64 -240 0
v -80 -256 0
v -96 -256 0
v -96 -240 0
v -80 -240 0
v -96 -256 0
v -112 -256 0
v -112 -240 0
v -96 -240 0
v -112 -256 0
v -128 -256 0
v -128 -240 0
v -112 -240 0
v -128 -256 0
v -144 -256 0
v -144 -240 0
v -128 -240 0
v -144 -256 0
v -160 -256 0
v -160 -240 0
v -144 -240 0
v -160 -256 0
v -176 -256 0
v -176 -240 0
v -160 -240 0
v -176 -256 0
v -192 -256 0
v -192 -240 0
v -176 -240 0
v -192 -256 0
v -208 -256 0
v -208 -240 0
v -192 -240 0
v -208 -256 0
v -224 -256 0
v -224 -240 0
v -208 -240 0
v -224 -256 0
v -240 -256 0
v -240 -240 0
v -224 -240 0
v -240 -256 0
v -256 -256 0
v -256 -240 0
v -240 -240 0

# Texture cooridinates (Count = 30)
vt 0.08510638 0.9375
vt 0.07446808 0.9375
vt 0.07446808 0.875
vt 0.08510638 0.875
vt 0.06382979 0.9375
vt 0.06382979 0.875
vt 0.1489362 0.9375
vt 0.1382979 0.9375
vt 0.1382979 0.875
vt 0.1489362 0.875
vt 0.1276596 0.9375
vt 0.1276596 0.875
vt 0.1170213 0.9375
vt 0.1170213 0.875
vt 0.106383 0.9375
vt 0.106383 0.875
vt 0.09574468 0.9375
vt 0.09574468 0.875
vt 0.05319149 0.9375
vt 0.05319149 0.875
vt 0.04255319 0.9375
vt 0.04255319 0.875
vt 0.08510638 1
vt 0.07446808 1
vt 0.05319149 1
vt 0.04255319 1
vt 0.06382979 1
vt 0.1489362 1
vt 0.1382979 1
vt 0.1276596 1

# Normal
vn 0 0 -1

# Mesh description
g 2ScenarioPlataforma_mesh_0379

# Faces
f 1/1/1 2/2/1 3/3/1 4/4/1
f 5/2/1 6/5/1 7/6/1 8/3/1
f 9/7/1 10/8/1 11/9/1 12/10/1
f 13/8/1 14/11/1 15/12/1 16/9/1
f 17/11/1 18/13/1 19/14/1 20/12/1
f 21/13/1 22/15/1 23/16/1 24/14/1
f 25/15/1 26/17/1 27/18/1 28/16/1
f 29/17/1 30/1/1 31/4/1 32/18/1
f 33/1/1 34/2/1 35/3/1 36/4/1
f 37/2/1 38/5/1 39/6/1 40/3/1
f 41/5/1 42/19/1 43/20/1 44/6/1
f 45/19/1 46/21/1 47/22/1 48/20/1
f 49/5/1 50/19/1 51/20/1 52/6/1
f 53/19/1 54/21/1 55/22/1 56/20/1
f 57/7/1 58/8/1 59/9/1 60/10/1
f 61/8/1 62/11/1 63/12/1 64/9/1
f 65/23/1 66/24/1 67/2/1 68/1/1
f 69/7/1 70/8/1 71/9/1 72/10/1
f 73/8/1 74/11/1 75/12/1 76/9/1
f 77/11/1 78/13/1 79/14/1 80/12/1
f 81/13/1 82/15/1 83/16/1 84/14/1
f 85/15/1 86/17/1 87/18/1 88/16/1
f 89/17/1 90/1/1 91/4/1 92/18/1
f 93/1/1 94/2/1 95/3/1 96/4/1
f 97/2/1 98/5/1 99/6/1 100/3/1
f 101/5/1 102/19/1 103/20/1 104/6/1
f 105/19/1 106/21/1 107/22/1 108/20/1
f 109/25/1 110/26/1 111/21/1 112/19/1
f 113/27/1 114/25/1 115/19/1 116/5/1
f 117/25/1 118/26/1 119/21/1 120/19/1
f 121/28/1 122/29/1 123/8/1 124/7/1
f 125/29/1 126/30/1 127/11/1 128/8/1
f 129/1/1 130/2/1 131/3/1 132/4/1
f 133/7/1 134/8/1 135/9/1 136/10/1
f 137/8/1 138/11/1 139/12/1 140/9/1
f 141/11/1 142/13/1 143/14/1 144/12/1
f 145/13/1 146/15/1 147/16/1 148/14/1
f 149/15/1 150/17/1 151/18/1 152/16/1
f 153/17/1 154/1/1 155/4/1 156/18/1
f 157/1/1 158/2/1 159/3/1 160/4/1
f 161/2/1 162/5/1 163/6/1 164/3/1
f 165/5/1 166/19/1 167/20/1 168/6/1
f 169/19/1 170/21/1 171/22/1 172/20/1
f 173/2/1 174/5/1 175/6/1 176/3/1
f 177/5/1 178/19/1 179/20/1 180/6/1
f 181/19/1 182/21/1 183/22/1 184/20/1
f 185/7/1 186/8/1 187/9/1 188/10/1
f 189/8/1 190/11/1 191/12/1 192/9/1
f 193/23/1 194/24/1 195/2/1 196/1/1
f 197/7/1 198/8/1 199/9/1 200/10/1
f 201/8/1 202/11/1 203/12/1 204/9/1
f 205/11/1 206/13/1 207/14/1 208/12/1
f 209/13/1 210/15/1 211/16/1 212/14/1
f 213/15/1 214/17/1 215/18/1 216/16/1
f 217/17/1 218/1/1 219/4/1 220/18/1
f 221/1/1 222/2/1 223/3/1 224/4/1
f 225/2/1 226/5/1 227/6/1 228/3/1
f 229/5/1 230/19/1 231/20/1 232/6/1
f 233/19/1 234/21/1 235/22/1 236/20/1
f 237/24/1 238/27/1 239/5/1 240/2/1
f 241/27/1 242/25/1 243/19/1 244/5/1
f 245/25/1 246/26/1 247/21/1 248/19/1
f 249/28/1 250/29/1 251/8/1 252/7/1
f 253/29/1 254/30/1 255/11/1 256/8/1
f 257/1/1 258/2/1 259/3/1 260/4/1
f 261/7/1 262/8/1 263/9/1 264/10/1
f 265/8/1 266/11/1 267/12/1 268/9/1
f 269/11/1 270/13/1 271/14/1 272/12/1
f 273/13/1 274/15/1 275/16/1 276/14/1
f 277/15/1 278/17/1 279/18/1 280/16/1
f 281/17/1 282/1/1 283/4/1 284/18/1
f 285/1/1 286/2/1 287/3/1 288/4/1
f 289/2/1 290/5/1 291/6/1 292/3/1
f 293/5/1 294/19/1 295/20/1 296/6/1
f 297/19/1 298/21/1 299/22/1 300/20/1
f 301/2/1 302/5/1 303/6/1 304/3/1
f 305/5/1 306/19/1 307/20/1 308/6/1
f 309/19/1 310/21/1 311/22/1 312/20/1
f 313/7/1 314/8/1 315/9/1 316/10/1
f 317/8/1 318/11/1 319/12/1 320/9/1
f 321/23/1 322/24/1 323/2/1 324/1/1
f 325/7/1 326/8/1 327/9/1 328/10/1
f 329/8/1 330/11/1 331/12/1 332/9/1
f 333/11/1 334/13/1 335/14/1 336/12/1
f 337/13/1 338/15/1 339/16/1 340/14/1
f 341/15/1 342/17/1 343/18/1 344/16/1
f 345/17/1 346/1/1 347/4/1 348/18/1
f 349/1/1 350/2/1 351/3/1 352/4/1
f 353/2/1 354/5/1 355/6/1 356/3/1
f 357/5/1 358/19/1 359/20/1 360/6/1
f 361/19/1 362/21/1 363/22/1 364/20/1
f 365/24/1 366/27/1 367/5/1 368/2/1
f 369/27/1 370/25/1 371/19/1 372/5/1
f 373/25/1 374/26/1 375/21/1 376/19/1
f 377/28/1 378/29/1 379/8/1 380/7/1
f 381/29/1 382/30/1 383/11/1 384/8/1
f 385/1/1 386/2/1 387/3/1 388/4/1
f 389/7/1 390/8/1 391/9/1 392/10/1
f 393/8/1 394/11/1 395/12/1 396/9/1
f 397/11/1 398/13/1 399/14/1 400/12/1
f 401/13/1 402/15/1 403/16/1 404/14/1
f 405/15/1 406/17/1 407/18/1 408/16/1
f 409/17/1 410/1/1 411/4/1 412/18/1
f 413/1/1 414/2/1 415/3/1 416/4/1
f 417/2/1 418/5/1 419/6/1 420/3/1
f 421/5/1 422/19/1 423/20/1 424/6/1
f 425/19/1 426/21/1 427/22/1 428/20/1
f 429/2/1 430/5/1 431/6/1 432/3/1
f 433/5/1 434/19/1 435/20/1 436/6/1
f 437/19/1 438/21/1 439/22/1 440/20/1
f 441/7/1 442/8/1 443/9/1 444/10/1
f 445/8/1 446/11/1 447/12/1 448/9/1
f 449/23/1 450/24/1 451/2/1 452/1/1
f 453/7/1 454/8/1 455/9/1 456/10/1
f 457/8/1 458/11/1 459/12/1 460/9/1
f 461/11/1 462/13/1 463/14/1 464/12/1
f 465/13/1 466/15/1 467/16/1 468/14/1
f 469/15/1 470/17/1 471/18/1 472/16/1
f 473/17/1 474/1/1 475/4/1 476/18/1
f 477/1/1 478/2/1 479/3/1 480/4/1
f 481/2/1 482/5/1 483/6/1 484/3/1
f 485/5/1 486/19/1 487/20/1 488/6/1
f 489/19/1 490/21/1 491/22/1 492/20/1
f 493/24/1 494/27/1 495/5/1 496/2/1
f 497/27/1 498/25/1 499/19/1 500/5/1
f 501/25/1 502/26/1 503/21/1 504/19/1
f 505/28/1 506/29/1 507/8/1 508/7/1
f 509/29/1 510/30/1 511/11/1 512/8/1
f 513/1/1 514/2/1 515/3/1 516/4/1
f 517/7/1 518/8/1 519/9/1 520/10/1
f 521/8/1 522/11/1 523/12/1 524/9/1
f 525/11/1 526/13/1 527/14/1 528/12/1
f 529/13/1 530/15/1 531/16/1 532/14/1
f 533/15/1 534/17/1 535/18/1 536/16/1
f 537/17/1 538/1/1 539/4/1 540/18/1
f 541/1/1 542/2/1 543/3/1 544/4/1
f 545/2/1 546/5/1 547/6/1 548/3/1
f 549/5/1 550/19/1 551/20/1 552/6/1
f 553/19/1 554/21/1 555/22/1 556/20/1
f 557/2/1 558/5/1 559/6/1 560/3/1
f 561/5/1 562/19/1 563/20/1 564/6/1
f 565/19/1 566/21/1 567/22/1 568/20/1
f 569/7/1 570/8/1 571/9/1 572/10/1
f 573/8/1 574/11/1 575/12/1 576/9/1
f 577/23/1 578/24/1 579/2/1 580/1/1
f 581/7/1 582/8/1 583/9/1 584/10/1
f 585/8/1 586/11/1 587/12/1 588/9/1
f 589/11/1 590/13/1 591/14/1 592/12/1
f 593/13/1 594/15/1 595/16/1 596/14/1
f 597/15/1 598/17/1 599/18/1 600/16/1
f 601/17/1 602/1/1 603/4/1 604/18/1
f 605/1/1 606/2/1 607/3/1 608/4/1
f 609/2/1 610/5/1 611/6/1 612/3/1
f 613/5/1 614/19/1 615/20/1 616/6/1
f 617/19/1 618/21/1 619/22/1 620/20/1
f 621/24/1 622/27/1 623/5/1 624/2/1
f 625/27/1 626/25/1 627/19/1 628/5/1
f 629/25/1 630/26/1 631/21/1 632/19/1
f 633/28/1 634/29/1 635/8/1 636/7/1
f 637/29/1 638/30/1 639/11/1 640/8/1
f 641/1/1 642/2/1 643/3/1 644/4/1
f 645/7/1 646/8/1 647/9/1 648/10/1
f 649/8/1 650/11/1 651/12/1 652/9/1
f 653/11/1 654/13/1 655/14/1 656/12/1
f 657/13/1 658/15/1 659/16/1 660/14/1
f 661/15/1 662/17/1 663/18/1 664/16/1
f 665/17/1 666/1/1 667/4/1 668/18/1
f 669/1/1 670/2/1 671/3/1 672/4/1
f 673/2/1 674/5/1 675/6/1 676/3/1
f 677/5/1 678/19/1 679/20/1 680/6/1
f 681/19/1 682/21/1 683/22/1 684/20/1
f 685/2/1 686/5/1 687/6/1 688/3/1
f 689/5/1 690/19/1 691/20/1 692/6/1
f 693/19/1 694/21/1 695/22/1 696/20/1
f 697/7/1 698/8/1 699/9/1 700/10/1
f 701/8/1 702/11/1 703/12/1 704/9/1
f 705/23/1 706/24/1 707/2/1 708/1/1
f 709/7/1 710/8/1 711/9/1 712/10/1
f 713/8/1 714/11/1 715/12/1 716/9/1
f 717/11/1 718/13/1 719/14/1 720/12/1
f 721/13/1 722/15/1 723/16/1 724/14/1
f 725/15/1 726/17/1 727/18/1 728/16/1
f 729/17/1 730/1/1 731/4/1 732/18/1
f 733/1/1 734/2/1 735/3/1 736/4/1
f 737/2/1 738/5/1 739/6/1 740/3/1
f 741/5/1 742/19/1 743/20/1 744/6/1
f 745/19/1 746/21/1 747/22/1 748/20/1
f 749/24/1 750/27/1 751/5/1 752/2/1
f 753/27/1 754/25/1 755/19/1 756/5/1
f 757/25/1 758/26/1 759/21/1 760/19/1
f 761/28/1 762/29/1 763/8/1 764/7/1
f 765/29/1 766/30/1 767/11/1 768/8/1
f 769/1/1 770/2/1 771/3/1 772/4/1
f 773/7/1 774/8/1 775/9/1 776/10/1
f 777/8/1 778/11/1 779/12/1 780/9/1
f 781/11/1 782/13/1 783/14/1 784/12/1
f 785/13/1 786/15/1 787/16/1 788/14/1
f 789/15/1 790/17/1 791/18/1 792/16/1
f 793/17/1 794/1/1 795/4/1 796/18/1
f 797/1/1 798/2/1 799/3/1 800/4/1
f 801/2/1 802/5/1 803/6/1 804/3/1
f 805/5/1 806/19/1 807/20/1 808/6/1
f 809/19/1 810/21/1 811/22/1 812/20/1
f 813/2/1 814/5/1 815/6/1 816/3/1
f 817/5/1 818/19/1 819/20/1 820/6/1
f 821/19/1 822/21/1 823/22/1 824/20/1
f 825/7/1 826/8/1 827/9/1 828/10/1
f 829/8/1 830/11/1 831/12/1 832/9/1
f 833/23/1 834/24/1 835/2/1 836/1/1
f 837/7/1 838/8/1 839/9/1 840/10/1
f 841/8/1 842/11/1 843/12/1 844/9/1
f 845/11/1 846/13/1 847/14/1 848/12/1
f 849/13/1 850/15/1 851/16/1 852/14/1
f 853/15/1 854/17/1 855/18/1 856/16/1
f 857/17/1 858/1/1 859/4/1 860/18/1
f 861/1/1 862/2/1 863/3/1 864/4/1
f 865/2/1 866/5/1 867/6/1 868/3/1
f 869/5/1 870/19/1 871/20/1 872/6/1
f 873/19/1 874/21/1 875/22/1 876/20/1
f 877/24/1 878/27/1 879/5/1 880/2/1
f 881/27/1 882/25/1 883/19/1 884/5/1
f 885/25/1 886/26/1 887/21/1 888/19/1
f 889/28/1 890/29/1 891/8/1 892/7/1
f 893/29/1 894/30/1 895/11/1 896/8/1
f 897/1/1 898/2/1 899/3/1 900/4/1
f 901/7/1 902/8/1 903/9/1 904/10/1
f 905/8/1 906/11/1 907/12/1 908/9/1
f 909/11/1 910/13/1 911/14/1 912/12/1
f 913/13/1 914/15/1 915/16/1 916/14/1
f 917/15/1 918/17/1 919/18/1 920/16/1
f 921/17/1 922/1/1 923/4/1 924/18/1
f 925/1/1 926/2/1 927/3/1 928/4/1
f 929/2/1 930/5/1 931/6/1 932/3/1
f 933/5/1 934/19/1 935/20/1 936/6/1
f 937/19/1 938/21/1 939/22/1 940/20/1
f 941/2/1 942/5/1 943/6/1 944/3/1
f 945/5/1 946/19/1 947/20/1 948/6/1
f 949/19/1 950/21/1 951/22/1 952/20/1
f 953/7/1 954/8/1 955/9/1 956/10/1
f 957/8/1 958/11/1 959/12/1 960/9/1
f 961/23/1 962/24/1 963/2/1 964/1/1
f 965/7/1 966/8/1 967/9/1 968/10/1
f 969/8/1 970/11/1 971/12/1 972/9/1
f 973/11/1 974/13/1 975/14/1 976/12/1
f 977/13/1 978/15/1 979/16/1 980/14/1
f 981/15/1 982/17/1 983/18/1 984/16/1
f 985/17/1 986/1/1 987/4/1 988/18/1
f 989/1/1 990/2/1 991/3/1 992/4/1
f 993/2/1 994/5/1 995/6/1 996/3/1
f 997/5/1 998/19/1 999/20/1 1000/6/1
f 1001/19/1 1002/21/1 1003/22/1 1004/20/1
f 1005/24/1 1006/27/1 1007/5/1 1008/2/1
f 1009/27/1 1010/25/1 1011/19/1 1012/5/1
f 1013/25/1 1014/26/1 1015/21/1 1016/19/1
f 1017/28/1 1018/29/1 1019/8/1 1020/7/1
f 1021/29/1 1022/30/1 1023/11/1 1024/8/1

