# Tiled2Unity generated file. Do not modify by hand.
# Wavefront file for '2ScenarioPlataforma_mesh_0762.obj'

# Vertices (Count = 60)
v 0 -256 0
v -16 -256 0
v -16 -240 0
v 0 -240 0
v -32 -256 0
v -48 -256 0
v -48 -240 0
v -32 -240 0
v -48 -256 0
v -64 -256 0
v -64 -240 0
v -48 -240 0
v -64 -256 0
v -80 -256 0
v -80 -240 0
v -64 -240 0
v -80 -256 0
v -96 -256 0
v -96 -240 0
v -80 -240 0
v -96 -256 0
v -112 -256 0
v -112 -240 0
v -96 -240 0
v -112 -256 0
v -128 -256 0
v -128 -240 0
v -112 -240 0
v -128 -256 0
v -144 -256 0
v -144 -240 0
v -128 -240 0
v -144 -256 0
v -160 -256 0
v -160 -240 0
v -144 -240 0
v -160 -256 0
v -176 -256 0
v -176 -240 0
v -160 -240 0
v -176 -256 0
v -192 -256 0
v -192 -240 0
v -176 -240 0
v -192 -256 0
v -208 -256 0
v -208 -240 0
v -192 -240 0
v -208 -256 0
v -224 -256 0
v -224 -240 0
v -208 -240 0
v -224 -256 0
v -240 -256 0
v -240 -240 0
v -224 -240 0
v -240 -256 0
v -256 -256 0
v -256 -240 0
v -240 -240 0

# Texture cooridinates (Count = 28)
vt 0.4574468 0.625
vt 0.4680851 0.625
vt 0.4680851 0.6875
vt 0.4574468 0.6875
vt 0.3723404 0.625
vt 0.3829787 0.625
vt 0.3829787 0.6875
vt 0.3723404 0.6875
vt 0.393617 0.625
vt 0.393617 0.6875
vt 0.4042553 0.625
vt 0.4042553 0.6875
vt 0.4148936 0.625
vt 0.4148936 0.6875
vt 0.4255319 0.625
vt 0.4255319 0.6875
vt 0.4361702 0.625
vt 0.4361702 0.6875
vt 0.4468085 0.625
vt 0.4468085 0.6875
vt 0.4787234 0.625
vt 0.4787234 0.6875
vt 0.4148936 0.375
vt 0.4255319 0.375
vt 0.4255319 0.4375
vt 0.4148936 0.4375
vt 0.4361702 0.375
vt 0.4361702 0.4375

# Normal
vn 0 0 -1

# Mesh description
g 2ScenarioPlataforma_mesh_0762

# Faces
f 1/1/1 2/2/1 3/3/1 4/4/1
f 5/5/1 6/6/1 7/7/1 8/8/1
f 9/6/1 10/9/1 11/10/1 12/7/1
f 13/9/1 14/11/1 15/12/1 16/10/1
f 17/11/1 18/13/1 19/14/1 20/12/1
f 21/13/1 22/15/1 23/16/1 24/14/1
f 25/15/1 26/17/1 27/18/1 28/16/1
f 29/17/1 30/19/1 31/20/1 32/18/1
f 33/19/1 34/1/1 35/4/1 36/20/1
f 37/1/1 38/2/1 39/3/1 40/4/1
f 41/2/1 42/21/1 43/22/1 44/3/1
f 45/5/1 46/6/1 47/7/1 48/8/1
f 49/23/1 50/24/1 51/25/1 52/26/1
f 53/24/1 54/27/1 55/28/1 56/25/1
f 57/11/1 58/13/1 59/14/1 60/12/1

