# Tiled2Unity generated file. Do not modify by hand.
# Wavefront file for '2ScenarioPlataforma_mesh_0903.obj'

# Vertices (Count = 560)
v 0 -16 0
v -16 -16 0
v -16 0 0
v 0 0 0
v -16 -16 0
v -32 -16 0
v -32 0 0
v -16 0 0
v -32 -16 0
v -48 -16 0
v -48 0 0
v -32 0 0
v -48 -16 0
v -64 -16 0
v -64 0 0
v -48 0 0
v -64 -16 0
v -80 -16 0
v -80 0 0
v -64 0 0
v -80 -16 0
v -96 -16 0
v -96 0 0
v -80 0 0
v 0 -32 0
v -16 -32 0
v -16 -16 0
v 0 -16 0
v -16 -32 0
v -32 -32 0
v -32 -16 0
v -16 -16 0
v -32 -32 0
v -48 -32 0
v -48 -16 0
v -32 -16 0
v -48 -32 0
v -64 -32 0
v -64 -16 0
v -48 -16 0
v -64 -32 0
v -80 -32 0
v -80 -16 0
v -64 -16 0
v -80 -32 0
v -96 -32 0
v -96 -16 0
v -80 -16 0
v 0 -48 0
v -16 -48 0
v -16 -32 0
v 0 -32 0
v -16 -48 0
v -32 -48 0
v -32 -32 0
v -16 -32 0
v -32 -48 0
v -48 -48 0
v -48 -32 0
v -32 -32 0
v -48 -48 0
v -64 -48 0
v -64 -32 0
v -48 -32 0
v -64 -48 0
v -80 -48 0
v -80 -32 0
v -64 -32 0
v -80 -48 0
v -96 -48 0
v -96 -32 0
v -80 -32 0
v 0 -64 0
v -16 -64 0
v -16 -48 0
v 0 -48 0
v -16 -64 0
v -32 -64 0
v -32 -48 0
v -16 -48 0
v -32 -64 0
v -48 -64 0
v -48 -48 0
v -32 -48 0
v -48 -64 0
v -64 -64 0
v -64 -48 0
v -48 -48 0
v -64 -64 0
v -80 -64 0
v -80 -48 0
v -64 -48 0
v -80 -64 0
v -96 -64 0
v -96 -48 0
v -80 -48 0
v 0 -80 0
v -16 -80 0
v -16 -64 0
v 0 -64 0
v -16 -80 0
v -32 -80 0
v -32 -64 0
v -16 -64 0
v -32 -80 0
v -48 -80 0
v -48 -64 0
v -32 -64 0
v -48 -80 0
v -64 -80 0
v -64 -64 0
v -48 -64 0
v -64 -80 0
v -80 -80 0
v -80 -64 0
v -64 -64 0
v -80 -80 0
v -96 -80 0
v -96 -64 0
v -80 -64 0
v 0 -96 0
v -16 -96 0
v -16 -80 0
v 0 -80 0
v -16 -96 0
v -32 -96 0
v -32 -80 0
v -16 -80 0
v -32 -96 0
v -48 -96 0
v -48 -80 0
v -32 -80 0
v -48 -96 0
v -64 -96 0
v -64 -80 0
v -48 -80 0
v -64 -96 0
v -80 -96 0
v -80 -80 0
v -64 -80 0
v -80 -96 0
v -96 -96 0
v -96 -80 0
v -80 -80 0
v -192 -96 0
v -208 -96 0
v -208 -80 0
v -192 -80 0
v -208 -96 0
v -224 -96 0
v -224 -80 0
v -208 -80 0
v -224 -96 0
v -240 -96 0
v -240 -80 0
v -224 -80 0
v -240 -96 0
v -256 -96 0
v -256 -80 0
v -240 -80 0
v 0 -112 0
v -16 -112 0
v -16 -96 0
v 0 -96 0
v -16 -112 0
v -32 -112 0
v -32 -96 0
v -16 -96 0
v -32 -112 0
v -48 -112 0
v -48 -96 0
v -32 -96 0
v -48 -112 0
v -64 -112 0
v -64 -96 0
v -48 -96 0
v -64 -112 0
v -80 -112 0
v -80 -96 0
v -64 -96 0
v -80 -112 0
v -96 -112 0
v -96 -96 0
v -80 -96 0
v -192 -112 0
v -208 -112 0
v -208 -96 0
v -192 -96 0
v -208 -112 0
v -224 -112 0
v -224 -96 0
v -208 -96 0
v -224 -112 0
v -240 -112 0
v -240 -96 0
v -224 -96 0
v -240 -112 0
v -256 -112 0
v -256 -96 0
v -240 -96 0
v 0 -128 0
v -16 -128 0
v -16 -112 0
v 0 -112 0
v -16 -128 0
v -32 -128 0
v -32 -112 0
v -16 -112 0
v -32 -128 0
v -48 -128 0
v -48 -112 0
v -32 -112 0
v -48 -128 0
v -64 -128 0
v -64 -112 0
v -48 -112 0
v -64 -128 0
v -80 -128 0
v -80 -112 0
v -64 -112 0
v -80 -128 0
v -96 -128 0
v -96 -112 0
v -80 -112 0
v -192 -128 0
v -208 -128 0
v -208 -112 0
v -192 -112 0
v -208 -128 0
v -224 -128 0
v -224 -112 0
v -208 -112 0
v -224 -128 0
v -240 -128 0
v -240 -112 0
v -224 -112 0
v -240 -128 0
v -256 -128 0
v -256 -112 0
v -240 -112 0
v 0 -144 0
v -16 -144 0
v -16 -128 0
v 0 -128 0
v -16 -144 0
v -32 -144 0
v -32 -128 0
v -16 -128 0
v -32 -144 0
v -48 -144 0
v -48 -128 0
v -32 -128 0
v -48 -144 0
v -64 -144 0
v -64 -128 0
v -48 -128 0
v -64 -144 0
v -80 -144 0
v -80 -128 0
v -64 -128 0
v -80 -144 0
v -96 -144 0
v -96 -128 0
v -80 -128 0
v -192 -144 0
v -208 -144 0
v -208 -128 0
v -192 -128 0
v -208 -144 0
v -224 -144 0
v -224 -128 0
v -208 -128 0
v -224 -144 0
v -240 -144 0
v -240 -128 0
v -224 -128 0
v -240 -144 0
v -256 -144 0
v -256 -128 0
v -240 -128 0
v 0 -160 0
v -16 -160 0
v -16 -144 0
v 0 -144 0
v -16 -160 0
v -32 -160 0
v -32 -144 0
v -16 -144 0
v -32 -160 0
v -48 -160 0
v -48 -144 0
v -32 -144 0
v -48 -160 0
v -64 -160 0
v -64 -144 0
v -48 -144 0
v -64 -160 0
v -80 -160 0
v -80 -144 0
v -64 -144 0
v -80 -160 0
v -96 -160 0
v -96 -144 0
v -80 -144 0
v -192 -160 0
v -208 -160 0
v -208 -144 0
v -192 -144 0
v -208 -160 0
v -224 -160 0
v -224 -144 0
v -208 -144 0
v -224 -160 0
v -240 -160 0
v -240 -144 0
v -224 -144 0
v -240 -160 0
v -256 -160 0
v -256 -144 0
v -240 -144 0
v 0 -176 0
v -16 -176 0
v -16 -160 0
v 0 -160 0
v -16 -176 0
v -32 -176 0
v -32 -160 0
v -16 -160 0
v -32 -176 0
v -48 -176 0
v -48 -160 0
v -32 -160 0
v -48 -176 0
v -64 -176 0
v -64 -160 0
v -48 -160 0
v -64 -176 0
v -80 -176 0
v -80 -160 0
v -64 -160 0
v -80 -176 0
v -96 -176 0
v -96 -160 0
v -80 -160 0
v -192 -176 0
v -208 -176 0
v -208 -160 0
v -192 -160 0
v -208 -176 0
v -224 -176 0
v -224 -160 0
v -208 -160 0
v -224 -176 0
v -240 -176 0
v -240 -160 0
v -224 -160 0
v -240 -176 0
v -256 -176 0
v -256 -160 0
v -240 -160 0
v 0 -192 0
v -16 -192 0
v -16 -176 0
v 0 -176 0
v -16 -192 0
v -32 -192 0
v -32 -176 0
v -16 -176 0
v -32 -192 0
v -48 -192 0
v -48 -176 0
v -32 -176 0
v -48 -192 0
v -64 -192 0
v -64 -176 0
v -48 -176 0
v -64 -192 0
v -80 -192 0
v -80 -176 0
v -64 -176 0
v -80 -192 0
v -96 -192 0
v -96 -176 0
v -80 -176 0
v -192 -192 0
v -208 -192 0
v -208 -176 0
v -192 -176 0
v -208 -192 0
v -224 -192 0
v -224 -176 0
v -208 -176 0
v -224 -192 0
v -240 -192 0
v -240 -176 0
v -224 -176 0
v -240 -192 0
v -256 -192 0
v -256 -176 0
v -240 -176 0
v 0 -208 0
v -16 -208 0
v -16 -192 0
v 0 -192 0
v -16 -208 0
v -32 -208 0
v -32 -192 0
v -16 -192 0
v -32 -208 0
v -48 -208 0
v -48 -192 0
v -32 -192 0
v -48 -208 0
v -64 -208 0
v -64 -192 0
v -48 -192 0
v -64 -208 0
v -80 -208 0
v -80 -192 0
v -64 -192 0
v -80 -208 0
v -96 -208 0
v -96 -192 0
v -80 -192 0
v -192 -208 0
v -208 -208 0
v -208 -192 0
v -192 -192 0
v -208 -208 0
v -224 -208 0
v -224 -192 0
v -208 -192 0
v -224 -208 0
v -240 -208 0
v -240 -192 0
v -224 -192 0
v -240 -208 0
v -256 -208 0
v -256 -192 0
v -240 -192 0
v 0 -224 0
v -16 -224 0
v -16 -208 0
v 0 -208 0
v -16 -224 0
v -32 -224 0
v -32 -208 0
v -16 -208 0
v -32 -224 0
v -48 -224 0
v -48 -208 0
v -32 -208 0
v -48 -224 0
v -64 -224 0
v -64 -208 0
v -48 -208 0
v -64 -224 0
v -80 -224 0
v -80 -208 0
v -64 -208 0
v -80 -224 0
v -96 -224 0
v -96 -208 0
v -80 -208 0
v -192 -224 0
v -208 -224 0
v -208 -208 0
v -192 -208 0
v -208 -224 0
v -224 -224 0
v -224 -208 0
v -208 -208 0
v -224 -224 0
v -240 -224 0
v -240 -208 0
v -224 -208 0
v -240 -224 0
v -256 -224 0
v -256 -208 0
v -240 -208 0
v 0 -240 0
v -16 -240 0
v -16 -224 0
v 0 -224 0
v -16 -240 0
v -32 -240 0
v -32 -224 0
v -16 -224 0
v -32 -240 0
v -48 -240 0
v -48 -224 0
v -32 -224 0
v -48 -240 0
v -64 -240 0
v -64 -224 0
v -48 -224 0
v -64 -240 0
v -80 -240 0
v -80 -224 0
v -64 -224 0
v -80 -240 0
v -96 -240 0
v -96 -224 0
v -80 -224 0
v -192 -240 0
v -208 -240 0
v -208 -224 0
v -192 -224 0
v -208 -240 0
v -224 -240 0
v -224 -224 0
v -208 -224 0
v -224 -240 0
v -240 -240 0
v -240 -224 0
v -224 -224 0
v -240 -240 0
v -256 -240 0
v -256 -224 0
v -240 -224 0
v 0 -256 0
v -16 -256 0
v -16 -240 0
v 0 -240 0
v -16 -256 0
v -32 -256 0
v -32 -240 0
v -16 -240 0
v -32 -256 0
v -48 -256 0
v -48 -240 0
v -32 -240 0
v -48 -256 0
v -64 -256 0
v -64 -240 0
v -48 -240 0
v -64 -256 0
v -80 -256 0
v -80 -240 0
v -64 -240 0
v -80 -256 0
v -96 -256 0
v -96 -240 0
v -80 -240 0
v -192 -256 0
v -208 -256 0
v -208 -240 0
v -192 -240 0
v -208 -256 0
v -224 -256 0
v -224 -240 0
v -208 -240 0
v -224 -256 0
v -240 -256 0
v -240 -240 0
v -224 -240 0
v -240 -256 0
v -256 -256 0
v -256 -240 0
v -240 -240 0

# Texture cooridinates (Count = 56)
vt 0.606383 0.625
vt 0.6170213 0.625
vt 0.6170213 0.6875
vt 0.606383 0.6875
vt 0.6276596 0.625
vt 0.6276596 0.6875
vt 0.6382979 0.625
vt 0.6382979 0.6875
vt 0.4042553 0.625
vt 0.4042553 0.6875
vt 0.393617 0.6875
vt 0.393617 0.625
vt 0.606383 0.8125
vt 0.6170213 0.8125
vt 0.6170213 0.875
vt 0.606383 0.875
vt 0.6276596 0.8125
vt 0.6276596 0.875
vt 0.6382979 0.8125
vt 0.6382979 0.875
vt 0.3829787 0.625
vt 0.3829787 0.6875
vt 0.3723404 0.6875
vt 0.3723404 0.625
vt 0.606383 0.75
vt 0.6170213 0.75
vt 0.6276596 0.75
vt 0.6382979 0.75
vt 0.4148936 0.625
vt 0.4148936 0.6875
vt 0.5531915 0.25
vt 0.5531915 0.1875
vt 0.5638298 0.1875
vt 0.5638298 0.25
vt 0.5744681 0.1875
vt 0.5744681 0.25
vt 0.4255319 0.625
vt 0.4255319 0.6875
vt 0.6595744 0.1875
vt 0.6595744 0.25
vt 0.6489362 0.25
vt 0.6489362 0.1875
vt 0.6914893 0.25
vt 0.6914893 0.1875
vt 0.7021276 0.1875
vt 0.7021276 0.25
vt 0.680851 0.25
vt 0.680851 0.1875
vt 0.5425532 0.25
vt 0.5425532 0.1875
vt 0.4468085 0.625
vt 0.4468085 0.6875
vt 0.4361702 0.6875
vt 0.4361702 0.625
vt 0.6702127 0.25
vt 0.6702127 0.1875

# Normal
vn 0 0 -1

# Mesh description
g 2ScenarioPlataforma_mesh_0903

# Faces
f 1/1/1 2/2/1 3/3/1 4/4/1
f 5/2/1 6/5/1 7/6/1 8/3/1
f 9/5/1 10/7/1 11/8/1 12/6/1
f 13/1/1 14/2/1 15/3/1 16/4/1
f 17/2/1 18/5/1 19/6/1 20/3/1
f 21/9/1 22/10/1 23/11/1 24/12/1
f 25/13/1 26/14/1 27/15/1 28/16/1
f 29/14/1 30/17/1 31/18/1 32/15/1
f 33/17/1 34/19/1 35/20/1 36/18/1
f 37/13/1 38/14/1 39/15/1 40/16/1
f 41/14/1 42/17/1 43/18/1 44/15/1
f 45/21/1 46/22/1 47/23/1 48/24/1
f 49/25/1 50/26/1 51/14/1 52/13/1
f 53/26/1 54/27/1 55/17/1 56/14/1
f 57/27/1 58/28/1 59/19/1 60/17/1
f 61/25/1 62/26/1 63/14/1 64/13/1
f 65/26/1 66/27/1 67/17/1 68/14/1
f 69/29/1 70/30/1 71/10/1 72/9/1
f 73/4/1 74/3/1 75/26/1 76/25/1
f 77/3/1 78/6/1 79/27/1 80/26/1
f 81/6/1 82/8/1 83/28/1 84/27/1
f 85/4/1 86/3/1 87/26/1 88/25/1
f 89/3/1 90/6/1 91/27/1 92/26/1
f 93/9/1 94/10/1 95/11/1 96/12/1
f 97/1/1 98/2/1 99/3/1 100/4/1
f 101/2/1 102/5/1 103/6/1 104/3/1
f 105/5/1 106/7/1 107/8/1 108/6/1
f 109/1/1 110/2/1 111/3/1 112/4/1
f 113/2/1 114/5/1 115/6/1 116/3/1
f 117/9/1 118/10/1 119/11/1 120/12/1
f 121/13/1 122/14/1 123/15/1 124/16/1
f 125/14/1 126/17/1 127/18/1 128/15/1
f 129/17/1 130/19/1 131/20/1 132/18/1
f 133/13/1 134/14/1 135/15/1 136/16/1
f 137/14/1 138/17/1 139/18/1 140/15/1
f 141/9/1 142/10/1 143/11/1 144/12/1
f 145/31/1 146/32/1 147/33/1 148/34/1
f 149/33/1 150/35/1 151/36/1 152/34/1
f 153/33/1 154/35/1 155/36/1 156/34/1
f 157/29/1 158/37/1 159/38/1 160/30/1
f 161/25/1 162/26/1 163/14/1 164/13/1
f 165/26/1 166/27/1 167/17/1 168/14/1
f 169/27/1 170/28/1 171/19/1 172/17/1
f 173/25/1 174/26/1 175/14/1 176/13/1
f 177/26/1 178/27/1 179/17/1 180/14/1
f 181/39/1 182/40/1 183/41/1 184/42/1
f 185/43/1 186/44/1 187/45/1 188/46/1
f 189/26/1 190/27/1 191/17/1 192/14/1
f 193/27/1 194/28/1 195/19/1 196/17/1
f 197/25/1 198/26/1 199/14/1 200/13/1
f 201/4/1 202/3/1 203/26/1 204/25/1
f 205/3/1 206/6/1 207/27/1 208/26/1
f 209/6/1 210/8/1 211/28/1 212/27/1
f 213/4/1 214/3/1 215/26/1 216/25/1
f 217/3/1 218/6/1 219/27/1 220/26/1
f 221/44/1 222/43/1 223/47/1 224/48/1
f 225/49/1 226/50/1 227/32/1 228/31/1
f 229/3/1 230/6/1 231/27/1 232/26/1
f 233/6/1 234/8/1 235/28/1 236/27/1
f 237/4/1 238/3/1 239/26/1 240/25/1
f 241/1/1 242/2/1 243/3/1 244/4/1
f 245/2/1 246/5/1 247/6/1 248/3/1
f 249/5/1 250/7/1 251/8/1 252/6/1
f 253/1/1 254/2/1 255/3/1 256/4/1
f 257/2/1 258/5/1 259/6/1 260/3/1
f 261/39/1 262/40/1 263/41/1 264/42/1
f 265/47/1 266/48/1 267/44/1 268/43/1
f 269/2/1 270/5/1 271/6/1 272/3/1
f 273/5/1 274/7/1 275/8/1 276/6/1
f 277/1/1 278/2/1 279/3/1 280/4/1
f 281/13/1 282/14/1 283/15/1 284/16/1
f 285/14/1 286/17/1 287/18/1 288/15/1
f 289/17/1 290/19/1 291/20/1 292/18/1
f 293/13/1 294/14/1 295/15/1 296/16/1
f 297/14/1 298/17/1 299/18/1 300/15/1
f 301/9/1 302/10/1 303/11/1 304/12/1
f 305/34/1 306/33/1 307/35/1 308/36/1
f 309/14/1 310/17/1 311/18/1 312/15/1
f 313/17/1 314/19/1 315/20/1 316/18/1
f 317/13/1 318/14/1 319/15/1 320/16/1
f 321/25/1 322/26/1 323/14/1 324/13/1
f 325/26/1 326/27/1 327/17/1 328/14/1
f 329/27/1 330/28/1 331/19/1 332/17/1
f 333/25/1 334/26/1 335/14/1 336/13/1
f 337/26/1 338/27/1 339/17/1 340/14/1
f 341/45/1 342/46/1 343/43/1 344/44/1
f 345/23/1 346/24/1 347/21/1 348/22/1
f 349/26/1 350/27/1 351/17/1 352/14/1
f 353/27/1 354/28/1 355/19/1 356/17/1
f 357/25/1 358/26/1 359/14/1 360/13/1
f 361/4/1 362/3/1 363/26/1 364/25/1
f 365/3/1 366/6/1 367/27/1 368/26/1
f 369/6/1 370/8/1 371/28/1 372/27/1
f 373/4/1 374/3/1 375/26/1 376/25/1
f 377/3/1 378/6/1 379/27/1 380/26/1
f 381/33/1 382/34/1 383/31/1 384/32/1
f 385/11/1 386/12/1 387/9/1 388/10/1
f 389/3/1 390/6/1 391/27/1 392/26/1
f 393/6/1 394/8/1 395/28/1 396/27/1
f 397/4/1 398/3/1 399/26/1 400/25/1
f 401/1/1 402/2/1 403/3/1 404/4/1
f 405/2/1 406/5/1 407/6/1 408/3/1
f 409/5/1 410/7/1 411/8/1 412/6/1
f 413/1/1 414/2/1 415/3/1 416/4/1
f 417/2/1 418/5/1 419/6/1 420/3/1
f 421/51/1 422/52/1 423/53/1 424/54/1
f 425/41/1 426/42/1 427/39/1 428/40/1
f 429/2/1 430/5/1 431/6/1 432/3/1
f 433/5/1 434/7/1 435/8/1 436/6/1
f 437/1/1 438/2/1 439/3/1 440/4/1
f 441/13/1 442/14/1 443/15/1 444/16/1
f 445/14/1 446/17/1 447/18/1 448/15/1
f 449/17/1 450/19/1 451/20/1 452/18/1
f 453/13/1 454/14/1 455/15/1 456/16/1
f 457/14/1 458/17/1 459/18/1 460/15/1
f 461/29/1 462/30/1 463/10/1 464/9/1
f 465/30/1 466/29/1 467/37/1 468/38/1
f 469/14/1 470/17/1 471/18/1 472/15/1
f 473/17/1 474/19/1 475/20/1 476/18/1
f 477/13/1 478/14/1 479/15/1 480/16/1
f 481/25/1 482/26/1 483/14/1 484/13/1
f 485/26/1 486/27/1 487/17/1 488/14/1
f 489/27/1 490/28/1 491/19/1 492/17/1
f 493/25/1 494/26/1 495/14/1 496/13/1
f 497/26/1 498/27/1 499/17/1 500/14/1
f 501/48/1 502/47/1 503/55/1 504/56/1
f 505/49/1 506/50/1 507/32/1 508/31/1
f 509/26/1 510/27/1 511/17/1 512/14/1
f 513/27/1 514/28/1 515/19/1 516/17/1
f 517/25/1 518/26/1 519/14/1 520/13/1
f 521/4/1 522/3/1 523/26/1 524/25/1
f 525/3/1 526/6/1 527/27/1 528/26/1
f 529/6/1 530/8/1 531/28/1 532/27/1
f 533/4/1 534/3/1 535/26/1 536/25/1
f 537/3/1 538/6/1 539/27/1 540/26/1
f 541/45/1 542/46/1 543/43/1 544/44/1
f 545/23/1 546/24/1 547/21/1 548/22/1
f 549/3/1 550/6/1 551/27/1 552/26/1
f 553/6/1 554/8/1 555/28/1 556/27/1
f 557/4/1 558/3/1 559/26/1 560/25/1

