# Tiled2Unity generated file. Do not modify by hand.
# Wavefront file for '2ScenarioPlataforma_mesh_0913.obj'

# Vertices (Count = 568)
v -80 -16 0
v -96 -16 0
v -96 0 0
v -80 0 0
v -96 -16 0
v -112 -16 0
v -112 0 0
v -96 0 0
v -80 -32 0
v -96 -32 0
v -96 -16 0
v -80 -16 0
v -96 -32 0
v -112 -32 0
v -112 -16 0
v -96 -16 0
v -80 -48 0
v -96 -48 0
v -96 -32 0
v -80 -32 0
v -96 -48 0
v -112 -48 0
v -112 -32 0
v -96 -32 0
v -80 -64 0
v -96 -64 0
v -96 -48 0
v -80 -48 0
v -96 -64 0
v -112 -64 0
v -112 -48 0
v -96 -48 0
v -80 -80 0
v -96 -80 0
v -96 -64 0
v -80 -64 0
v -96 -80 0
v -112 -80 0
v -112 -64 0
v -96 -64 0
v -80 -96 0
v -96 -96 0
v -96 -80 0
v -80 -80 0
v -96 -96 0
v -112 -96 0
v -112 -80 0
v -96 -80 0
v -80 -112 0
v -96 -112 0
v -96 -96 0
v -80 -96 0
v -96 -112 0
v -112 -112 0
v -112 -96 0
v -96 -96 0
v 0 -144 0
v -16 -144 0
v -16 -128 0
v 0 -128 0
v -16 -144 0
v -32 -144 0
v -32 -128 0
v -16 -128 0
v -32 -144 0
v -48 -144 0
v -48 -128 0
v -32 -128 0
v -48 -144 0
v -64 -144 0
v -64 -128 0
v -48 -128 0
v -64 -144 0
v -80 -144 0
v -80 -128 0
v -64 -128 0
v -80 -144 0
v -96 -144 0
v -96 -128 0
v -80 -128 0
v -96 -144 0
v -112 -144 0
v -112 -128 0
v -96 -128 0
v -112 -144 0
v -128 -144 0
v -128 -128 0
v -112 -128 0
v -128 -144 0
v -144 -144 0
v -144 -128 0
v -128 -128 0
v -144 -144 0
v -160 -144 0
v -160 -128 0
v -144 -128 0
v -160 -144 0
v -176 -144 0
v -176 -128 0
v -160 -128 0
v -176 -144 0
v -192 -144 0
v -192 -128 0
v -176 -128 0
v -192 -144 0
v -208 -144 0
v -208 -128 0
v -192 -128 0
v -208 -144 0
v -224 -144 0
v -224 -128 0
v -208 -128 0
v -224 -144 0
v -240 -144 0
v -240 -128 0
v -224 -128 0
v -240 -144 0
v -256 -144 0
v -256 -128 0
v -240 -128 0
v 0 -160 0
v -16 -160 0
v -16 -144 0
v 0 -144 0
v -16 -160 0
v -32 -160 0
v -32 -144 0
v -16 -144 0
v -32 -160 0
v -48 -160 0
v -48 -144 0
v -32 -144 0
v -48 -160 0
v -64 -160 0
v -64 -144 0
v -48 -144 0
v -64 -160 0
v -80 -160 0
v -80 -144 0
v -64 -144 0
v -80 -160 0
v -96 -160 0
v -96 -144 0
v -80 -144 0
v -96 -160 0
v -112 -160 0
v -112 -144 0
v -96 -144 0
v -112 -160 0
v -128 -160 0
v -128 -144 0
v -112 -144 0
v -128 -160 0
v -144 -160 0
v -144 -144 0
v -128 -144 0
v -144 -160 0
v -160 -160 0
v -160 -144 0
v -144 -144 0
v -160 -160 0
v -176 -160 0
v -176 -144 0
v -160 -144 0
v -176 -160 0
v -192 -160 0
v -192 -144 0
v -176 -144 0
v -192 -160 0
v -208 -160 0
v -208 -144 0
v -192 -144 0
v -208 -160 0
v -224 -160 0
v -224 -144 0
v -208 -144 0
v -224 -160 0
v -240 -160 0
v -240 -144 0
v -224 -144 0
v -240 -160 0
v -256 -160 0
v -256 -144 0
v -240 -144 0
v 0 -176 0
v -16 -176 0
v -16 -160 0
v 0 -160 0
v -16 -176 0
v -32 -176 0
v -32 -160 0
v -16 -160 0
v -32 -176 0
v -48 -176 0
v -48 -160 0
v -32 -160 0
v -48 -176 0
v -64 -176 0
v -64 -160 0
v -48 -160 0
v -64 -176 0
v -80 -176 0
v -80 -160 0
v -64 -160 0
v -80 -176 0
v -96 -176 0
v -96 -160 0
v -80 -160 0
v -96 -176 0
v -112 -176 0
v -112 -160 0
v -96 -160 0
v -112 -176 0
v -128 -176 0
v -128 -160 0
v -112 -160 0
v -128 -176 0
v -144 -176 0
v -144 -160 0
v -128 -160 0
v -144 -176 0
v -160 -176 0
v -160 -160 0
v -144 -160 0
v -160 -176 0
v -176 -176 0
v -176 -160 0
v -160 -160 0
v -176 -176 0
v -192 -176 0
v -192 -160 0
v -176 -160 0
v -192 -176 0
v -208 -176 0
v -208 -160 0
v -192 -160 0
v -208 -176 0
v -224 -176 0
v -224 -160 0
v -208 -160 0
v -224 -176 0
v -240 -176 0
v -240 -160 0
v -224 -160 0
v -240 -176 0
v -256 -176 0
v -256 -160 0
v -240 -160 0
v 0 -192 0
v -16 -192 0
v -16 -176 0
v 0 -176 0
v -16 -192 0
v -32 -192 0
v -32 -176 0
v -16 -176 0
v -32 -192 0
v -48 -192 0
v -48 -176 0
v -32 -176 0
v -48 -192 0
v -64 -192 0
v -64 -176 0
v -48 -176 0
v -64 -192 0
v -80 -192 0
v -80 -176 0
v -64 -176 0
v -80 -192 0
v -96 -192 0
v -96 -176 0
v -80 -176 0
v -96 -192 0
v -112 -192 0
v -112 -176 0
v -96 -176 0
v -112 -192 0
v -128 -192 0
v -128 -176 0
v -112 -176 0
v -128 -192 0
v -144 -192 0
v -144 -176 0
v -128 -176 0
v -144 -192 0
v -160 -192 0
v -160 -176 0
v -144 -176 0
v -160 -192 0
v -176 -192 0
v -176 -176 0
v -160 -176 0
v -176 -192 0
v -192 -192 0
v -192 -176 0
v -176 -176 0
v -192 -192 0
v -208 -192 0
v -208 -176 0
v -192 -176 0
v -208 -192 0
v -224 -192 0
v -224 -176 0
v -208 -176 0
v -224 -192 0
v -240 -192 0
v -240 -176 0
v -224 -176 0
v -240 -192 0
v -256 -192 0
v -256 -176 0
v -240 -176 0
v 0 -208 0
v -16 -208 0
v -16 -192 0
v 0 -192 0
v -16 -208 0
v -32 -208 0
v -32 -192 0
v -16 -192 0
v -32 -208 0
v -48 -208 0
v -48 -192 0
v -32 -192 0
v -48 -208 0
v -64 -208 0
v -64 -192 0
v -48 -192 0
v -64 -208 0
v -80 -208 0
v -80 -192 0
v -64 -192 0
v -80 -208 0
v -96 -208 0
v -96 -192 0
v -80 -192 0
v -96 -208 0
v -112 -208 0
v -112 -192 0
v -96 -192 0
v -112 -208 0
v -128 -208 0
v -128 -192 0
v -112 -192 0
v -128 -208 0
v -144 -208 0
v -144 -192 0
v -128 -192 0
v -144 -208 0
v -160 -208 0
v -160 -192 0
v -144 -192 0
v -160 -208 0
v -176 -208 0
v -176 -192 0
v -160 -192 0
v -176 -208 0
v -192 -208 0
v -192 -192 0
v -176 -192 0
v -192 -208 0
v -208 -208 0
v -208 -192 0
v -192 -192 0
v -208 -208 0
v -224 -208 0
v -224 -192 0
v -208 -192 0
v -224 -208 0
v -240 -208 0
v -240 -192 0
v -224 -192 0
v -240 -208 0
v -256 -208 0
v -256 -192 0
v -240 -192 0
v 0 -224 0
v -16 -224 0
v -16 -208 0
v 0 -208 0
v -16 -224 0
v -32 -224 0
v -32 -208 0
v -16 -208 0
v -32 -224 0
v -48 -224 0
v -48 -208 0
v -32 -208 0
v -48 -224 0
v -64 -224 0
v -64 -208 0
v -48 -208 0
v -64 -224 0
v -80 -224 0
v -80 -208 0
v -64 -208 0
v -80 -224 0
v -96 -224 0
v -96 -208 0
v -80 -208 0
v -96 -224 0
v -112 -224 0
v -112 -208 0
v -96 -208 0
v -112 -224 0
v -128 -224 0
v -128 -208 0
v -112 -208 0
v -128 -224 0
v -144 -224 0
v -144 -208 0
v -128 -208 0
v -144 -224 0
v -160 -224 0
v -160 -208 0
v -144 -208 0
v -160 -224 0
v -176 -224 0
v -176 -208 0
v -160 -208 0
v -176 -224 0
v -192 -224 0
v -192 -208 0
v -176 -208 0
v -192 -224 0
v -208 -224 0
v -208 -208 0
v -192 -208 0
v -208 -224 0
v -224 -224 0
v -224 -208 0
v -208 -208 0
v -224 -224 0
v -240 -224 0
v -240 -208 0
v -224 -208 0
v -240 -224 0
v -256 -224 0
v -256 -208 0
v -240 -208 0
v 0 -240 0
v -16 -240 0
v -16 -224 0
v 0 -224 0
v -16 -240 0
v -32 -240 0
v -32 -224 0
v -16 -224 0
v -32 -240 0
v -48 -240 0
v -48 -224 0
v -32 -224 0
v -48 -240 0
v -64 -240 0
v -64 -224 0
v -48 -224 0
v -64 -240 0
v -80 -240 0
v -80 -224 0
v -64 -224 0
v -80 -240 0
v -96 -240 0
v -96 -224 0
v -80 -224 0
v -96 -240 0
v -112 -240 0
v -112 -224 0
v -96 -224 0
v -112 -240 0
v -128 -240 0
v -128 -224 0
v -112 -224 0
v -128 -240 0
v -144 -240 0
v -144 -224 0
v -128 -224 0
v -144 -240 0
v -160 -240 0
v -160 -224 0
v -144 -224 0
v -160 -240 0
v -176 -240 0
v -176 -224 0
v -160 -224 0
v -176 -240 0
v -192 -240 0
v -192 -224 0
v -176 -224 0
v -192 -240 0
v -208 -240 0
v -208 -224 0
v -192 -224 0
v -208 -240 0
v -224 -240 0
v -224 -224 0
v -208 -224 0
v -224 -240 0
v -240 -240 0
v -240 -224 0
v -224 -224 0
v -240 -240 0
v -256 -240 0
v -256 -224 0
v -240 -224 0
v 0 -256 0
v -16 -256 0
v -16 -240 0
v 0 -240 0
v -16 -256 0
v -32 -256 0
v -32 -240 0
v -16 -240 0
v -32 -256 0
v -48 -256 0
v -48 -240 0
v -32 -240 0
v -48 -256 0
v -64 -256 0
v -64 -240 0
v -48 -240 0
v -64 -256 0
v -80 -256 0
v -80 -240 0
v -64 -240 0
v -80 -256 0
v -96 -256 0
v -96 -240 0
v -80 -240 0
v -96 -256 0
v -112 -256 0
v -112 -240 0
v -96 -240 0
v -112 -256 0
v -128 -256 0
v -128 -240 0
v -112 -240 0
v -128 -256 0
v -144 -256 0
v -144 -240 0
v -128 -240 0
v -144 -256 0
v -160 -256 0
v -160 -240 0
v -144 -240 0
v -160 -256 0
v -176 -256 0
v -176 -240 0
v -160 -240 0
v -176 -256 0
v -192 -256 0
v -192 -240 0
v -176 -240 0
v -192 -256 0
v -208 -256 0
v -208 -240 0
v -192 -240 0
v -208 -256 0
v -224 -256 0
v -224 -240 0
v -208 -240 0
v -224 -256 0
v -240 -256 0
v -240 -240 0
v -224 -240 0
v -240 -256 0
v -256 -256 0
v -256 -240 0
v -240 -240 0

# Texture cooridinates (Count = 69)
vt 0.5744681 0.625
vt 0.5744681 0.5625
vt 0.5851064 0.5625
vt 0.5851064 0.625
vt 0.5744681 0.5
vt 0.5851064 0.5
vt 0.5638298 0.625
vt 0.5638298 0.5625
vt 0.5638298 0.5
vt 0.5531915 0.625
vt 0.5531915 0.5625
vt 0.5531915 0.5
vt 0.5425532 0.625
vt 0.5425532 0.5625
vt 0.5425532 0.5
vt 0.5319149 0.625
vt 0.5319149 0.5625
vt 0.5319149 0.5
vt 0.5212766 0.625
vt 0.5212766 0.5625
vt 0.5212766 0.5
vt 0.3085106 0.125
vt 0.3191489 0.125
vt 0.3191489 0.1875
vt 0.3085106 0.1875
vt 0.3829787 0.125
vt 0.393617 0.125
vt 0.393617 0.1875
vt 0.3829787 0.1875
vt 0.3617021 0.125
vt 0.3723404 0.125
vt 0.3723404 0.1875
vt 0.3617021 0.1875
vt 0.3297872 0.125
vt 0.3404255 0.125
vt 0.3404255 0.1875
vt 0.3297872 0.1875
vt 0.4574468 0.625
vt 0.4680851 0.625
vt 0.4680851 0.6875
vt 0.4574468 0.6875
vt 0.4042553 0.625
vt 0.4148936 0.625
vt 0.4148936 0.6875
vt 0.4042553 0.6875
vt 0.2978723 0.125
vt 0.2978723 0.1875
vt 0.4361702 0.625
vt 0.4468085 0.625
vt 0.4468085 0.6875
vt 0.4361702 0.6875
vt 0.606383 0.8125
vt 0.6170213 0.8125
vt 0.6170213 0.875
vt 0.606383 0.875
vt 0.606383 0.75
vt 0.6170213 0.75
vt 0.606383 0.6875
vt 0.6170213 0.6875
vt 0.606383 0.625
vt 0.6170213 0.625
vt 0.6276596 0.8125
vt 0.6276596 0.875
vt 0.6382979 0.8125
vt 0.6382979 0.875
vt 0.6276596 0.75
vt 0.6382979 0.75
vt 0.6276596 0.6875
vt 0.6382979 0.6875

# Normal
vn 0 0 -1

# Mesh description
g 2ScenarioPlataforma_mesh_0913

# Faces
f 1/1/1 2/2/1 3/3/1 4/4/1
f 5/2/1 6/5/1 7/6/1 8/3/1
f 9/1/1 10/2/1 11/3/1 12/4/1
f 13/2/1 14/5/1 15/6/1 16/3/1
f 17/7/1 18/8/1 19/2/1 20/1/1
f 21/8/1 22/9/1 23/5/1 24/2/1
f 25/10/1 26/11/1 27/8/1 28/7/1
f 29/11/1 30/12/1 31/9/1 32/8/1
f 33/13/1 34/14/1 35/11/1 36/10/1
f 37/14/1 38/15/1 39/12/1 40/11/1
f 41/16/1 42/17/1 43/14/1 44/13/1
f 45/17/1 46/18/1 47/15/1 48/14/1
f 49/19/1 50/20/1 51/17/1 52/16/1
f 53/20/1 54/21/1 55/18/1 56/17/1
f 57/22/1 58/23/1 59/24/1 60/25/1
f 61/26/1 62/27/1 63/28/1 64/29/1
f 65/30/1 66/31/1 67/32/1 68/33/1
f 69/34/1 70/35/1 71/36/1 72/37/1
f 73/38/1 74/39/1 75/40/1 76/41/1
f 77/42/1 78/43/1 79/44/1 80/45/1
f 81/46/1 82/22/1 83/25/1 84/47/1
f 85/22/1 86/23/1 87/24/1 88/25/1
f 89/30/1 90/31/1 91/32/1 92/33/1
f 93/48/1 94/49/1 95/50/1 96/51/1
f 97/30/1 98/31/1 99/32/1 100/33/1
f 101/30/1 102/31/1 103/32/1 104/33/1
f 105/38/1 106/39/1 107/40/1 108/41/1
f 109/26/1 110/27/1 111/28/1 112/29/1
f 113/48/1 114/49/1 115/50/1 116/51/1
f 117/46/1 118/22/1 119/25/1 120/47/1
f 121/52/1 122/53/1 123/54/1 124/55/1
f 125/52/1 126/53/1 127/54/1 128/55/1
f 129/52/1 130/53/1 131/54/1 132/55/1
f 133/52/1 134/53/1 135/54/1 136/55/1
f 137/52/1 138/53/1 139/54/1 140/55/1
f 141/52/1 142/53/1 143/54/1 144/55/1
f 145/52/1 146/53/1 147/54/1 148/55/1
f 149/52/1 150/53/1 151/54/1 152/55/1
f 153/52/1 154/53/1 155/54/1 156/55/1
f 157/52/1 158/53/1 159/54/1 160/55/1
f 161/52/1 162/53/1 163/54/1 164/55/1
f 165/52/1 166/53/1 167/54/1 168/55/1
f 169/52/1 170/53/1 171/54/1 172/55/1
f 173/52/1 174/53/1 175/54/1 176/55/1
f 177/52/1 178/53/1 179/54/1 180/55/1
f 181/52/1 182/53/1 183/54/1 184/55/1
f 185/56/1 186/57/1 187/53/1 188/52/1
f 189/56/1 190/57/1 191/53/1 192/52/1
f 193/56/1 194/57/1 195/53/1 196/52/1
f 197/56/1 198/57/1 199/53/1 200/52/1
f 201/56/1 202/57/1 203/53/1 204/52/1
f 205/56/1 206/57/1 207/53/1 208/52/1
f 209/56/1 210/57/1 211/53/1 212/52/1
f 213/56/1 214/57/1 215/53/1 216/52/1
f 217/56/1 218/57/1 219/53/1 220/52/1
f 221/56/1 222/57/1 223/53/1 224/52/1
f 225/56/1 226/57/1 227/53/1 228/52/1
f 229/56/1 230/57/1 231/53/1 232/52/1
f 233/56/1 234/57/1 235/53/1 236/52/1
f 237/56/1 238/57/1 239/53/1 240/52/1
f 241/56/1 242/57/1 243/53/1 244/52/1
f 245/56/1 246/57/1 247/53/1 248/52/1
f 249/58/1 250/59/1 251/57/1 252/56/1
f 253/58/1 254/59/1 255/57/1 256/56/1
f 257/58/1 258/59/1 259/57/1 260/56/1
f 261/58/1 262/59/1 263/57/1 264/56/1
f 265/58/1 266/59/1 267/57/1 268/56/1
f 269/58/1 270/59/1 271/57/1 272/56/1
f 273/58/1 274/59/1 275/57/1 276/56/1
f 277/58/1 278/59/1 279/57/1 280/56/1
f 281/58/1 282/59/1 283/57/1 284/56/1
f 285/58/1 286/59/1 287/57/1 288/56/1
f 289/58/1 290/59/1 291/57/1 292/56/1
f 293/58/1 294/59/1 295/57/1 296/56/1
f 297/58/1 298/59/1 299/57/1 300/56/1
f 301/58/1 302/59/1 303/57/1 304/56/1
f 305/58/1 306/59/1 307/57/1 308/56/1
f 309/58/1 310/59/1 311/57/1 312/56/1
f 313/60/1 314/61/1 315/59/1 316/58/1
f 317/60/1 318/61/1 319/59/1 320/58/1
f 321/60/1 322/61/1 323/59/1 324/58/1
f 325/60/1 326/61/1 327/59/1 328/58/1
f 329/60/1 330/61/1 331/59/1 332/58/1
f 333/60/1 334/61/1 335/59/1 336/58/1
f 337/60/1 338/61/1 339/59/1 340/58/1
f 341/60/1 342/61/1 343/59/1 344/58/1
f 345/60/1 346/61/1 347/59/1 348/58/1
f 349/60/1 350/61/1 351/59/1 352/58/1
f 353/60/1 354/61/1 355/59/1 356/58/1
f 357/60/1 358/61/1 359/59/1 360/58/1
f 361/60/1 362/61/1 363/59/1 364/58/1
f 365/60/1 366/61/1 367/59/1 368/58/1
f 369/60/1 370/61/1 371/59/1 372/58/1
f 373/60/1 374/61/1 375/59/1 376/58/1
f 377/52/1 378/53/1 379/54/1 380/55/1
f 381/53/1 382/62/1 383/63/1 384/54/1
f 385/62/1 386/64/1 387/65/1 388/63/1
f 389/52/1 390/53/1 391/54/1 392/55/1
f 393/53/1 394/62/1 395/63/1 396/54/1
f 397/62/1 398/64/1 399/65/1 400/63/1
f 401/52/1 402/53/1 403/54/1 404/55/1
f 405/53/1 406/62/1 407/63/1 408/54/1
f 409/62/1 410/64/1 411/65/1 412/63/1
f 413/52/1 414/53/1 415/54/1 416/55/1
f 417/53/1 418/62/1 419/63/1 420/54/1
f 421/62/1 422/64/1 423/65/1 424/63/1
f 425/52/1 426/53/1 427/54/1 428/55/1
f 429/53/1 430/62/1 431/63/1 432/54/1
f 433/62/1 434/64/1 435/65/1 436/63/1
f 437/52/1 438/53/1 439/54/1 440/55/1
f 441/56/1 442/57/1 443/53/1 444/52/1
f 445/57/1 446/66/1 447/62/1 448/53/1
f 449/66/1 450/67/1 451/64/1 452/62/1
f 453/56/1 454/57/1 455/53/1 456/52/1
f 457/57/1 458/66/1 459/62/1 460/53/1
f 461/66/1 462/67/1 463/64/1 464/62/1
f 465/56/1 466/57/1 467/53/1 468/52/1
f 469/57/1 470/66/1 471/62/1 472/53/1
f 473/66/1 474/67/1 475/64/1 476/62/1
f 477/56/1 478/57/1 479/53/1 480/52/1
f 481/57/1 482/66/1 483/62/1 484/53/1
f 485/66/1 486/67/1 487/64/1 488/62/1
f 489/56/1 490/57/1 491/53/1 492/52/1
f 493/57/1 494/66/1 495/62/1 496/53/1
f 497/66/1 498/67/1 499/64/1 500/62/1
f 501/56/1 502/57/1 503/53/1 504/52/1
f 505/58/1 506/59/1 507/57/1 508/56/1
f 509/59/1 510/68/1 511/66/1 512/57/1
f 513/68/1 514/69/1 515/67/1 516/66/1
f 517/58/1 518/59/1 519/57/1 520/56/1
f 521/59/1 522/68/1 523/66/1 524/57/1
f 525/68/1 526/69/1 527/67/1 528/66/1
f 529/58/1 530/59/1 531/57/1 532/56/1
f 533/59/1 534/68/1 535/66/1 536/57/1
f 537/68/1 538/69/1 539/67/1 540/66/1
f 541/58/1 542/59/1 543/57/1 544/56/1
f 545/59/1 546/68/1 547/66/1 548/57/1
f 549/68/1 550/69/1 551/67/1 552/66/1
f 553/58/1 554/59/1 555/57/1 556/56/1
f 557/59/1 558/68/1 559/66/1 560/57/1
f 561/68/1 562/69/1 563/67/1 564/66/1
f 565/58/1 566/59/1 567/57/1 568/56/1

