# Tiled2Unity generated file. Do not modify by hand.
# Wavefront file for '2ScenarioPlataforma_mesh_0371.obj'

# Vertices (Count = 1024)
v 0 -16 0
v -16 -16 0
v -16 0 0
v 0 0 0
v -16 -16 0
v -32 -16 0
v -32 0 0
v -16 0 0
v -32 -16 0
v -48 -16 0
v -48 0 0
v -32 0 0
v -48 -16 0
v -64 -16 0
v -64 0 0
v -48 0 0
v -64 -16 0
v -80 -16 0
v -80 0 0
v -64 0 0
v -80 -16 0
v -96 -16 0
v -96 0 0
v -80 0 0
v -96 -16 0
v -112 -16 0
v -112 0 0
v -96 0 0
v -112 -16 0
v -128 -16 0
v -128 0 0
v -112 0 0
v -128 -16 0
v -144 -16 0
v -144 0 0
v -128 0 0
v -144 -16 0
v -160 -16 0
v -160 0 0
v -144 0 0
v -160 -16 0
v -176 -16 0
v -176 0 0
v -160 0 0
v -176 -16 0
v -192 -16 0
v -192 0 0
v -176 0 0
v -192 -16 0
v -208 -16 0
v -208 0 0
v -192 0 0
v -208 -16 0
v -224 -16 0
v -224 0 0
v -208 0 0
v -224 -16 0
v -240 -16 0
v -240 0 0
v -224 0 0
v -240 -16 0
v -256 -16 0
v -256 0 0
v -240 0 0
v 0 -32 0
v -16 -32 0
v -16 -16 0
v 0 -16 0
v -16 -32 0
v -32 -32 0
v -32 -16 0
v -16 -16 0
v -32 -32 0
v -48 -32 0
v -48 -16 0
v -32 -16 0
v -48 -32 0
v -64 -32 0
v -64 -16 0
v -48 -16 0
v -64 -32 0
v -80 -32 0
v -80 -16 0
v -64 -16 0
v -80 -32 0
v -96 -32 0
v -96 -16 0
v -80 -16 0
v -96 -32 0
v -112 -32 0
v -112 -16 0
v -96 -16 0
v -112 -32 0
v -128 -32 0
v -128 -16 0
v -112 -16 0
v -128 -32 0
v -144 -32 0
v -144 -16 0
v -128 -16 0
v -144 -32 0
v -160 -32 0
v -160 -16 0
v -144 -16 0
v -160 -32 0
v -176 -32 0
v -176 -16 0
v -160 -16 0
v -176 -32 0
v -192 -32 0
v -192 -16 0
v -176 -16 0
v -192 -32 0
v -208 -32 0
v -208 -16 0
v -192 -16 0
v -208 -32 0
v -224 -32 0
v -224 -16 0
v -208 -16 0
v -224 -32 0
v -240 -32 0
v -240 -16 0
v -224 -16 0
v -240 -32 0
v -256 -32 0
v -256 -16 0
v -240 -16 0
v 0 -48 0
v -16 -48 0
v -16 -32 0
v 0 -32 0
v -16 -48 0
v -32 -48 0
v -32 -32 0
v -16 -32 0
v -32 -48 0
v -48 -48 0
v -48 -32 0
v -32 -32 0
v -48 -48 0
v -64 -48 0
v -64 -32 0
v -48 -32 0
v -64 -48 0
v -80 -48 0
v -80 -32 0
v -64 -32 0
v -80 -48 0
v -96 -48 0
v -96 -32 0
v -80 -32 0
v -96 -48 0
v -112 -48 0
v -112 -32 0
v -96 -32 0
v -112 -48 0
v -128 -48 0
v -128 -32 0
v -112 -32 0
v -128 -48 0
v -144 -48 0
v -144 -32 0
v -128 -32 0
v -144 -48 0
v -160 -48 0
v -160 -32 0
v -144 -32 0
v -160 -48 0
v -176 -48 0
v -176 -32 0
v -160 -32 0
v -176 -48 0
v -192 -48 0
v -192 -32 0
v -176 -32 0
v -192 -48 0
v -208 -48 0
v -208 -32 0
v -192 -32 0
v -208 -48 0
v -224 -48 0
v -224 -32 0
v -208 -32 0
v -224 -48 0
v -240 -48 0
v -240 -32 0
v -224 -32 0
v -240 -48 0
v -256 -48 0
v -256 -32 0
v -240 -32 0
v 0 -64 0
v -16 -64 0
v -16 -48 0
v 0 -48 0
v -16 -64 0
v -32 -64 0
v -32 -48 0
v -16 -48 0
v -32 -64 0
v -48 -64 0
v -48 -48 0
v -32 -48 0
v -48 -64 0
v -64 -64 0
v -64 -48 0
v -48 -48 0
v -64 -64 0
v -80 -64 0
v -80 -48 0
v -64 -48 0
v -80 -64 0
v -96 -64 0
v -96 -48 0
v -80 -48 0
v -96 -64 0
v -112 -64 0
v -112 -48 0
v -96 -48 0
v -112 -64 0
v -128 -64 0
v -128 -48 0
v -112 -48 0
v -128 -64 0
v -144 -64 0
v -144 -48 0
v -128 -48 0
v -144 -64 0
v -160 -64 0
v -160 -48 0
v -144 -48 0
v -160 -64 0
v -176 -64 0
v -176 -48 0
v -160 -48 0
v -176 -64 0
v -192 -64 0
v -192 -48 0
v -176 -48 0
v -192 -64 0
v -208 -64 0
v -208 -48 0
v -192 -48 0
v -208 -64 0
v -224 -64 0
v -224 -48 0
v -208 -48 0
v -224 -64 0
v -240 -64 0
v -240 -48 0
v -224 -48 0
v -240 -64 0
v -256 -64 0
v -256 -48 0
v -240 -48 0
v 0 -80 0
v -16 -80 0
v -16 -64 0
v 0 -64 0
v -16 -80 0
v -32 -80 0
v -32 -64 0
v -16 -64 0
v -32 -80 0
v -48 -80 0
v -48 -64 0
v -32 -64 0
v -48 -80 0
v -64 -80 0
v -64 -64 0
v -48 -64 0
v -64 -80 0
v -80 -80 0
v -80 -64 0
v -64 -64 0
v -80 -80 0
v -96 -80 0
v -96 -64 0
v -80 -64 0
v -96 -80 0
v -112 -80 0
v -112 -64 0
v -96 -64 0
v -112 -80 0
v -128 -80 0
v -128 -64 0
v -112 -64 0
v -128 -80 0
v -144 -80 0
v -144 -64 0
v -128 -64 0
v -144 -80 0
v -160 -80 0
v -160 -64 0
v -144 -64 0
v -160 -80 0
v -176 -80 0
v -176 -64 0
v -160 -64 0
v -176 -80 0
v -192 -80 0
v -192 -64 0
v -176 -64 0
v -192 -80 0
v -208 -80 0
v -208 -64 0
v -192 -64 0
v -208 -80 0
v -224 -80 0
v -224 -64 0
v -208 -64 0
v -224 -80 0
v -240 -80 0
v -240 -64 0
v -224 -64 0
v -240 -80 0
v -256 -80 0
v -256 -64 0
v -240 -64 0
v 0 -96 0
v -16 -96 0
v -16 -80 0
v 0 -80 0
v -16 -96 0
v -32 -96 0
v -32 -80 0
v -16 -80 0
v -32 -96 0
v -48 -96 0
v -48 -80 0
v -32 -80 0
v -48 -96 0
v -64 -96 0
v -64 -80 0
v -48 -80 0
v -64 -96 0
v -80 -96 0
v -80 -80 0
v -64 -80 0
v -80 -96 0
v -96 -96 0
v -96 -80 0
v -80 -80 0
v -96 -96 0
v -112 -96 0
v -112 -80 0
v -96 -80 0
v -112 -96 0
v -128 -96 0
v -128 -80 0
v -112 -80 0
v -128 -96 0
v -144 -96 0
v -144 -80 0
v -128 -80 0
v -144 -96 0
v -160 -96 0
v -160 -80 0
v -144 -80 0
v -160 -96 0
v -176 -96 0
v -176 -80 0
v -160 -80 0
v -176 -96 0
v -192 -96 0
v -192 -80 0
v -176 -80 0
v -192 -96 0
v -208 -96 0
v -208 -80 0
v -192 -80 0
v -208 -96 0
v -224 -96 0
v -224 -80 0
v -208 -80 0
v -224 -96 0
v -240 -96 0
v -240 -80 0
v -224 -80 0
v -240 -96 0
v -256 -96 0
v -256 -80 0
v -240 -80 0
v 0 -112 0
v -16 -112 0
v -16 -96 0
v 0 -96 0
v -16 -112 0
v -32 -112 0
v -32 -96 0
v -16 -96 0
v -32 -112 0
v -48 -112 0
v -48 -96 0
v -32 -96 0
v -48 -112 0
v -64 -112 0
v -64 -96 0
v -48 -96 0
v -64 -112 0
v -80 -112 0
v -80 -96 0
v -64 -96 0
v -80 -112 0
v -96 -112 0
v -96 -96 0
v -80 -96 0
v -96 -112 0
v -112 -112 0
v -112 -96 0
v -96 -96 0
v -112 -112 0
v -128 -112 0
v -128 -96 0
v -112 -96 0
v -128 -112 0
v -144 -112 0
v -144 -96 0
v -128 -96 0
v -144 -112 0
v -160 -112 0
v -160 -96 0
v -144 -96 0
v -160 -112 0
v -176 -112 0
v -176 -96 0
v -160 -96 0
v -176 -112 0
v -192 -112 0
v -192 -96 0
v -176 -96 0
v -192 -112 0
v -208 -112 0
v -208 -96 0
v -192 -96 0
v -208 -112 0
v -224 -112 0
v -224 -96 0
v -208 -96 0
v -224 -112 0
v -240 -112 0
v -240 -96 0
v -224 -96 0
v -240 -112 0
v -256 -112 0
v -256 -96 0
v -240 -96 0
v 0 -128 0
v -16 -128 0
v -16 -112 0
v 0 -112 0
v -16 -128 0
v -32 -128 0
v -32 -112 0
v -16 -112 0
v -32 -128 0
v -48 -128 0
v -48 -112 0
v -32 -112 0
v -48 -128 0
v -64 -128 0
v -64 -112 0
v -48 -112 0
v -64 -128 0
v -80 -128 0
v -80 -112 0
v -64 -112 0
v -80 -128 0
v -96 -128 0
v -96 -112 0
v -80 -112 0
v -96 -128 0
v -112 -128 0
v -112 -112 0
v -96 -112 0
v -112 -128 0
v -128 -128 0
v -128 -112 0
v -112 -112 0
v -128 -128 0
v -144 -128 0
v -144 -112 0
v -128 -112 0
v -144 -128 0
v -160 -128 0
v -160 -112 0
v -144 -112 0
v -160 -128 0
v -176 -128 0
v -176 -112 0
v -160 -112 0
v -176 -128 0
v -192 -128 0
v -192 -112 0
v -176 -112 0
v -192 -128 0
v -208 -128 0
v -208 -112 0
v -192 -112 0
v -208 -128 0
v -224 -128 0
v -224 -112 0
v -208 -112 0
v -224 -128 0
v -240 -128 0
v -240 -112 0
v -224 -112 0
v -240 -128 0
v -256 -128 0
v -256 -112 0
v -240 -112 0
v 0 -144 0
v -16 -144 0
v -16 -128 0
v 0 -128 0
v -16 -144 0
v -32 -144 0
v -32 -128 0
v -16 -128 0
v -32 -144 0
v -48 -144 0
v -48 -128 0
v -32 -128 0
v -48 -144 0
v -64 -144 0
v -64 -128 0
v -48 -128 0
v -64 -144 0
v -80 -144 0
v -80 -128 0
v -64 -128 0
v -80 -144 0
v -96 -144 0
v -96 -128 0
v -80 -128 0
v -96 -144 0
v -112 -144 0
v -112 -128 0
v -96 -128 0
v -112 -144 0
v -128 -144 0
v -128 -128 0
v -112 -128 0
v -128 -144 0
v -144 -144 0
v -144 -128 0
v -128 -128 0
v -144 -144 0
v -160 -144 0
v -160 -128 0
v -144 -128 0
v -160 -144 0
v -176 -144 0
v -176 -128 0
v -160 -128 0
v -176 -144 0
v -192 -144 0
v -192 -128 0
v -176 -128 0
v -192 -144 0
v -208 -144 0
v -208 -128 0
v -192 -128 0
v -208 -144 0
v -224 -144 0
v -224 -128 0
v -208 -128 0
v -224 -144 0
v -240 -144 0
v -240 -128 0
v -224 -128 0
v -240 -144 0
v -256 -144 0
v -256 -128 0
v -240 -128 0
v 0 -160 0
v -16 -160 0
v -16 -144 0
v 0 -144 0
v -16 -160 0
v -32 -160 0
v -32 -144 0
v -16 -144 0
v -32 -160 0
v -48 -160 0
v -48 -144 0
v -32 -144 0
v -48 -160 0
v -64 -160 0
v -64 -144 0
v -48 -144 0
v -64 -160 0
v -80 -160 0
v -80 -144 0
v -64 -144 0
v -80 -160 0
v -96 -160 0
v -96 -144 0
v -80 -144 0
v -96 -160 0
v -112 -160 0
v -112 -144 0
v -96 -144 0
v -112 -160 0
v -128 -160 0
v -128 -144 0
v -112 -144 0
v -128 -160 0
v -144 -160 0
v -144 -144 0
v -128 -144 0
v -144 -160 0
v -160 -160 0
v -160 -144 0
v -144 -144 0
v -160 -160 0
v -176 -160 0
v -176 -144 0
v -160 -144 0
v -176 -160 0
v -192 -160 0
v -192 -144 0
v -176 -144 0
v -192 -160 0
v -208 -160 0
v -208 -144 0
v -192 -144 0
v -208 -160 0
v -224 -160 0
v -224 -144 0
v -208 -144 0
v -224 -160 0
v -240 -160 0
v -240 -144 0
v -224 -144 0
v -240 -160 0
v -256 -160 0
v -256 -144 0
v -240 -144 0
v 0 -176 0
v -16 -176 0
v -16 -160 0
v 0 -160 0
v -16 -176 0
v -32 -176 0
v -32 -160 0
v -16 -160 0
v -32 -176 0
v -48 -176 0
v -48 -160 0
v -32 -160 0
v -48 -176 0
v -64 -176 0
v -64 -160 0
v -48 -160 0
v -64 -176 0
v -80 -176 0
v -80 -160 0
v -64 -160 0
v -80 -176 0
v -96 -176 0
v -96 -160 0
v -80 -160 0
v -96 -176 0
v -112 -176 0
v -112 -160 0
v -96 -160 0
v -112 -176 0
v -128 -176 0
v -128 -160 0
v -112 -160 0
v -128 -176 0
v -144 -176 0
v -144 -160 0
v -128 -160 0
v -144 -176 0
v -160 -176 0
v -160 -160 0
v -144 -160 0
v -160 -176 0
v -176 -176 0
v -176 -160 0
v -160 -160 0
v -176 -176 0
v -192 -176 0
v -192 -160 0
v -176 -160 0
v -192 -176 0
v -208 -176 0
v -208 -160 0
v -192 -160 0
v -208 -176 0
v -224 -176 0
v -224 -160 0
v -208 -160 0
v -224 -176 0
v -240 -176 0
v -240 -160 0
v -224 -160 0
v -240 -176 0
v -256 -176 0
v -256 -160 0
v -240 -160 0
v 0 -192 0
v -16 -192 0
v -16 -176 0
v 0 -176 0
v -16 -192 0
v -32 -192 0
v -32 -176 0
v -16 -176 0
v -32 -192 0
v -48 -192 0
v -48 -176 0
v -32 -176 0
v -48 -192 0
v -64 -192 0
v -64 -176 0
v -48 -176 0
v -64 -192 0
v -80 -192 0
v -80 -176 0
v -64 -176 0
v -80 -192 0
v -96 -192 0
v -96 -176 0
v -80 -176 0
v -96 -192 0
v -112 -192 0
v -112 -176 0
v -96 -176 0
v -112 -192 0
v -128 -192 0
v -128 -176 0
v -112 -176 0
v -128 -192 0
v -144 -192 0
v -144 -176 0
v -128 -176 0
v -144 -192 0
v -160 -192 0
v -160 -176 0
v -144 -176 0
v -160 -192 0
v -176 -192 0
v -176 -176 0
v -160 -176 0
v -176 -192 0
v -192 -192 0
v -192 -176 0
v -176 -176 0
v -192 -192 0
v -208 -192 0
v -208 -176 0
v -192 -176 0
v -208 -192 0
v -224 -192 0
v -224 -176 0
v -208 -176 0
v -224 -192 0
v -240 -192 0
v -240 -176 0
v -224 -176 0
v -240 -192 0
v -256 -192 0
v -256 -176 0
v -240 -176 0
v 0 -208 0
v -16 -208 0
v -16 -192 0
v 0 -192 0
v -16 -208 0
v -32 -208 0
v -32 -192 0
v -16 -192 0
v -32 -208 0
v -48 -208 0
v -48 -192 0
v -32 -192 0
v -48 -208 0
v -64 -208 0
v -64 -192 0
v -48 -192 0
v -64 -208 0
v -80 -208 0
v -80 -192 0
v -64 -192 0
v -80 -208 0
v -96 -208 0
v -96 -192 0
v -80 -192 0
v -96 -208 0
v -112 -208 0
v -112 -192 0
v -96 -192 0
v -112 -208 0
v -128 -208 0
v -128 -192 0
v -112 -192 0
v -128 -208 0
v -144 -208 0
v -144 -192 0
v -128 -192 0
v -144 -208 0
v -160 -208 0
v -160 -192 0
v -144 -192 0
v -160 -208 0
v -176 -208 0
v -176 -192 0
v -160 -192 0
v -176 -208 0
v -192 -208 0
v -192 -192 0
v -176 -192 0
v -192 -208 0
v -208 -208 0
v -208 -192 0
v -192 -192 0
v -208 -208 0
v -224 -208 0
v -224 -192 0
v -208 -192 0
v -224 -208 0
v -240 -208 0
v -240 -192 0
v -224 -192 0
v -240 -208 0
v -256 -208 0
v -256 -192 0
v -240 -192 0
v 0 -224 0
v -16 -224 0
v -16 -208 0
v 0 -208 0
v -16 -224 0
v -32 -224 0
v -32 -208 0
v -16 -208 0
v -32 -224 0
v -48 -224 0
v -48 -208 0
v -32 -208 0
v -48 -224 0
v -64 -224 0
v -64 -208 0
v -48 -208 0
v -64 -224 0
v -80 -224 0
v -80 -208 0
v -64 -208 0
v -80 -224 0
v -96 -224 0
v -96 -208 0
v -80 -208 0
v -96 -224 0
v -112 -224 0
v -112 -208 0
v -96 -208 0
v -112 -224 0
v -128 -224 0
v -128 -208 0
v -112 -208 0
v -128 -224 0
v -144 -224 0
v -144 -208 0
v -128 -208 0
v -144 -224 0
v -160 -224 0
v -160 -208 0
v -144 -208 0
v -160 -224 0
v -176 -224 0
v -176 -208 0
v -160 -208 0
v -176 -224 0
v -192 -224 0
v -192 -208 0
v -176 -208 0
v -192 -224 0
v -208 -224 0
v -208 -208 0
v -192 -208 0
v -208 -224 0
v -224 -224 0
v -224 -208 0
v -208 -208 0
v -224 -224 0
v -240 -224 0
v -240 -208 0
v -224 -208 0
v -240 -224 0
v -256 -224 0
v -256 -208 0
v -240 -208 0
v 0 -240 0
v -16 -240 0
v -16 -224 0
v 0 -224 0
v -16 -240 0
v -32 -240 0
v -32 -224 0
v -16 -224 0
v -32 -240 0
v -48 -240 0
v -48 -224 0
v -32 -224 0
v -48 -240 0
v -64 -240 0
v -64 -224 0
v -48 -224 0
v -64 -240 0
v -80 -240 0
v -80 -224 0
v -64 -224 0
v -80 -240 0
v -96 -240 0
v -96 -224 0
v -80 -224 0
v -96 -240 0
v -112 -240 0
v -112 -224 0
v -96 -224 0
v -112 -240 0
v -128 -240 0
v -128 -224 0
v -112 -224 0
v -128 -240 0
v -144 -240 0
v -144 -224 0
v -128 -224 0
v -144 -240 0
v -160 -240 0
v -160 -224 0
v -144 -224 0
v -160 -240 0
v -176 -240 0
v -176 -224 0
v -160 -224 0
v -176 -240 0
v -192 -240 0
v -192 -224 0
v -176 -224 0
v -192 -240 0
v -208 -240 0
v -208 -224 0
v -192 -224 0
v -208 -240 0
v -224 -240 0
v -224 -224 0
v -208 -224 0
v -224 -240 0
v -240 -240 0
v -240 -224 0
v -224 -224 0
v -240 -240 0
v -256 -240 0
v -256 -224 0
v -240 -224 0
v 0 -256 0
v -16 -256 0
v -16 -240 0
v 0 -240 0
v -16 -256 0
v -32 -256 0
v -32 -240 0
v -16 -240 0
v -32 -256 0
v -48 -256 0
v -48 -240 0
v -32 -240 0
v -48 -256 0
v -64 -256 0
v -64 -240 0
v -48 -240 0
v -64 -256 0
v -80 -256 0
v -80 -240 0
v -64 -240 0
v -80 -256 0
v -96 -256 0
v -96 -240 0
v -80 -240 0
v -96 -256 0
v -112 -256 0
v -112 -240 0
v -96 -240 0
v -112 -256 0
v -128 -256 0
v -128 -240 0
v -112 -240 0
v -128 -256 0
v -144 -256 0
v -144 -240 0
v -128 -240 0
v -144 -256 0
v -160 -256 0
v -160 -240 0
v -144 -240 0
v -160 -256 0
v -176 -256 0
v -176 -240 0
v -160 -240 0
v -176 -256 0
v -192 -256 0
v -192 -240 0
v -176 -240 0
v -192 -256 0
v -208 -256 0
v -208 -240 0
v -192 -240 0
v -208 -256 0
v -224 -256 0
v -224 -240 0
v -208 -240 0
v -224 -256 0
v -240 -256 0
v -240 -240 0
v -224 -240 0
v -240 -256 0
v -256 -256 0
v -256 -240 0
v -240 -240 0

# Texture cooridinates (Count = 42)
vt 0.1489362 0.3125
vt 0.1595745 0.3125
vt 0.1595745 0.375
vt 0.1489362 0.375
vt 0.1702128 0.3125
vt 0.1702128 0.375
vt 0.106383 0.9375
vt 0.09574468 0.9375
vt 0.09574468 0.875
vt 0.106383 0.875
vt 0.08510638 0.9375
vt 0.08510638 0.875
vt 0.07446808 0.9375
vt 0.07446808 0.875
vt 0.06382979 0.9375
vt 0.06382979 0.875
vt 0.05319149 0.9375
vt 0.05319149 0.875
vt 0.04255319 0.9375
vt 0.04255319 0.875
vt 0.1595745 0.4375
vt 0.1489362 0.4375
vt 0.1702128 0.4375
vt 0.1276596 0.9375
vt 0.1170213 0.9375
vt 0.1170213 0.875
vt 0.1276596 0.875
vt 0.1276596 1
vt 0.1170213 1
vt 0.106383 1
vt 0.09574468 1
vt 0.08510638 1
vt 0.07446808 1
vt 0.06382979 1
vt 0.05319149 1
vt 0.04255319 1
vt 0.1489362 1
vt 0.1382979 1
vt 0.1382979 0.9375
vt 0.1489362 0.9375
vt 0.1382979 0.875
vt 0.1489362 0.875

# Normal
vn 0 0 -1

# Mesh description
g 2ScenarioPlataforma_mesh_0371

# Faces
f 1/1/1 2/2/1 3/3/1 4/4/1
f 5/2/1 6/5/1 7/6/1 8/3/1
f 9/7/1 10/8/1 11/9/1 12/10/1
f 13/8/1 14/11/1 15/12/1 16/9/1
f 17/11/1 18/13/1 19/14/1 20/12/1
f 21/13/1 22/15/1 23/16/1 24/14/1
f 25/15/1 26/17/1 27/18/1 28/16/1
f 29/17/1 30/19/1 31/20/1 32/18/1
f 33/4/1 34/3/1 35/21/1 36/22/1
f 37/3/1 38/6/1 39/23/1 40/21/1
f 41/24/1 42/25/1 43/26/1 44/27/1
f 45/25/1 46/7/1 47/10/1 48/26/1
f 49/7/1 50/8/1 51/9/1 52/10/1
f 53/8/1 54/11/1 55/12/1 56/9/1
f 57/11/1 58/13/1 59/14/1 60/12/1
f 61/13/1 62/15/1 63/16/1 64/14/1
f 65/28/1 66/29/1 67/25/1 68/24/1
f 69/29/1 70/30/1 71/7/1 72/25/1
f 73/30/1 74/31/1 75/8/1 76/7/1
f 77/31/1 78/32/1 79/11/1 80/8/1
f 81/32/1 82/33/1 83/13/1 84/11/1
f 85/33/1 86/34/1 87/15/1 88/13/1
f 89/34/1 90/35/1 91/17/1 92/15/1
f 93/35/1 94/36/1 95/19/1 96/17/1
f 97/4/1 98/3/1 99/21/1 100/22/1
f 101/3/1 102/6/1 103/23/1 104/21/1
f 105/28/1 106/29/1 107/25/1 108/24/1
f 109/29/1 110/30/1 111/7/1 112/25/1
f 113/30/1 114/31/1 115/8/1 116/7/1
f 117/31/1 118/32/1 119/11/1 120/8/1
f 121/32/1 122/33/1 123/13/1 124/11/1
f 125/33/1 126/34/1 127/15/1 128/13/1
f 129/24/1 130/25/1 131/26/1 132/27/1
f 133/25/1 134/7/1 135/10/1 136/26/1
f 137/7/1 138/8/1 139/9/1 140/10/1
f 141/8/1 142/11/1 143/12/1 144/9/1
f 145/11/1 146/13/1 147/14/1 148/12/1
f 149/13/1 150/15/1 151/16/1 152/14/1
f 153/15/1 154/17/1 155/18/1 156/16/1
f 157/17/1 158/19/1 159/20/1 160/18/1
f 161/1/1 162/2/1 163/3/1 164/4/1
f 165/2/1 166/5/1 167/6/1 168/3/1
f 169/24/1 170/25/1 171/26/1 172/27/1
f 173/25/1 174/7/1 175/10/1 176/26/1
f 177/7/1 178/8/1 179/9/1 180/10/1
f 181/8/1 182/11/1 183/12/1 184/9/1
f 185/11/1 186/13/1 187/14/1 188/12/1
f 189/13/1 190/15/1 191/16/1 192/14/1
f 193/28/1 194/29/1 195/25/1 196/24/1
f 197/29/1 198/30/1 199/7/1 200/25/1
f 201/30/1 202/31/1 203/8/1 204/7/1
f 205/31/1 206/32/1 207/11/1 208/8/1
f 209/32/1 210/33/1 211/13/1 212/11/1
f 213/33/1 214/34/1 215/15/1 216/13/1
f 217/34/1 218/35/1 219/17/1 220/15/1
f 221/35/1 222/36/1 223/19/1 224/17/1
f 225/37/1 226/38/1 227/39/1 228/40/1
f 229/38/1 230/28/1 231/24/1 232/39/1
f 233/28/1 234/29/1 235/25/1 236/24/1
f 237/29/1 238/30/1 239/7/1 240/25/1
f 241/30/1 242/31/1 243/8/1 244/7/1
f 245/31/1 246/32/1 247/11/1 248/8/1
f 249/32/1 250/33/1 251/13/1 252/11/1
f 253/33/1 254/34/1 255/15/1 256/13/1
f 257/24/1 258/25/1 259/26/1 260/27/1
f 261/25/1 262/7/1 263/10/1 264/26/1
f 265/7/1 266/8/1 267/9/1 268/10/1
f 269/8/1 270/11/1 271/12/1 272/9/1
f 273/11/1 274/13/1 275/14/1 276/12/1
f 277/13/1 278/15/1 279/16/1 280/14/1
f 281/15/1 282/17/1 283/18/1 284/16/1
f 285/17/1 286/19/1 287/20/1 288/18/1
f 289/40/1 290/39/1 291/41/1 292/42/1
f 293/39/1 294/24/1 295/27/1 296/41/1
f 297/24/1 298/25/1 299/26/1 300/27/1
f 301/25/1 302/7/1 303/10/1 304/26/1
f 305/7/1 306/8/1 307/9/1 308/10/1
f 309/8/1 310/11/1 311/12/1 312/9/1
f 313/11/1 314/13/1 315/14/1 316/12/1
f 317/13/1 318/15/1 319/16/1 320/14/1
f 321/28/1 322/29/1 323/25/1 324/24/1
f 325/29/1 326/30/1 327/7/1 328/25/1
f 329/30/1 330/31/1 331/8/1 332/7/1
f 333/31/1 334/32/1 335/11/1 336/8/1
f 337/32/1 338/33/1 339/13/1 340/11/1
f 341/33/1 342/34/1 343/15/1 344/13/1
f 345/34/1 346/35/1 347/17/1 348/15/1
f 349/35/1 350/36/1 351/19/1 352/17/1
f 353/37/1 354/38/1 355/39/1 356/40/1
f 357/38/1 358/28/1 359/24/1 360/39/1
f 361/28/1 362/29/1 363/25/1 364/24/1
f 365/29/1 366/30/1 367/7/1 368/25/1
f 369/30/1 370/31/1 371/8/1 372/7/1
f 373/31/1 374/32/1 375/11/1 376/8/1
f 377/32/1 378/33/1 379/13/1 380/11/1
f 381/33/1 382/34/1 383/15/1 384/13/1
f 385/24/1 386/25/1 387/26/1 388/27/1
f 389/25/1 390/7/1 391/10/1 392/26/1
f 393/7/1 394/8/1 395/9/1 396/10/1
f 397/8/1 398/11/1 399/12/1 400/9/1
f 401/11/1 402/13/1 403/14/1 404/12/1
f 405/13/1 406/15/1 407/16/1 408/14/1
f 409/15/1 410/17/1 411/18/1 412/16/1
f 413/17/1 414/19/1 415/20/1 416/18/1
f 417/40/1 418/39/1 419/41/1 420/42/1
f 421/39/1 422/24/1 423/27/1 424/41/1
f 425/24/1 426/25/1 427/26/1 428/27/1
f 429/25/1 430/7/1 431/10/1 432/26/1
f 433/7/1 434/8/1 435/9/1 436/10/1
f 437/8/1 438/11/1 439/12/1 440/9/1
f 441/11/1 442/13/1 443/14/1 444/12/1
f 445/13/1 446/15/1 447/16/1 448/14/1
f 449/28/1 450/29/1 451/25/1 452/24/1
f 453/29/1 454/30/1 455/7/1 456/25/1
f 457/30/1 458/31/1 459/8/1 460/7/1
f 461/31/1 462/32/1 463/11/1 464/8/1
f 465/32/1 466/33/1 467/13/1 468/11/1
f 469/33/1 470/34/1 471/15/1 472/13/1
f 473/34/1 474/35/1 475/17/1 476/15/1
f 477/35/1 478/36/1 479/19/1 480/17/1
f 481/37/1 482/38/1 483/39/1 484/40/1
f 485/38/1 486/28/1 487/24/1 488/39/1
f 489/28/1 490/29/1 491/25/1 492/24/1
f 493/29/1 494/30/1 495/7/1 496/25/1
f 497/30/1 498/31/1 499/8/1 500/7/1
f 501/31/1 502/32/1 503/11/1 504/8/1
f 505/32/1 506/33/1 507/13/1 508/11/1
f 509/33/1 510/34/1 511/15/1 512/13/1
f 513/24/1 514/25/1 515/26/1 516/27/1
f 517/25/1 518/7/1 519/10/1 520/26/1
f 521/7/1 522/8/1 523/9/1 524/10/1
f 525/8/1 526/11/1 527/12/1 528/9/1
f 529/11/1 530/13/1 531/14/1 532/12/1
f 533/13/1 534/15/1 535/16/1 536/14/1
f 537/15/1 538/17/1 539/18/1 540/16/1
f 541/17/1 542/19/1 543/20/1 544/18/1
f 545/40/1 546/39/1 547/41/1 548/42/1
f 549/39/1 550/24/1 551/27/1 552/41/1
f 553/24/1 554/25/1 555/26/1 556/27/1
f 557/25/1 558/7/1 559/10/1 560/26/1
f 561/7/1 562/8/1 563/9/1 564/10/1
f 565/8/1 566/11/1 567/12/1 568/9/1
f 569/11/1 570/13/1 571/14/1 572/12/1
f 573/13/1 574/15/1 575/16/1 576/14/1
f 577/28/1 578/29/1 579/25/1 580/24/1
f 581/29/1 582/30/1 583/7/1 584/25/1
f 585/30/1 586/31/1 587/8/1 588/7/1
f 589/31/1 590/32/1 591/11/1 592/8/1
f 593/32/1 594/33/1 595/13/1 596/11/1
f 597/33/1 598/34/1 599/15/1 600/13/1
f 601/34/1 602/35/1 603/17/1 604/15/1
f 605/35/1 606/36/1 607/19/1 608/17/1
f 609/37/1 610/38/1 611/39/1 612/40/1
f 613/38/1 614/28/1 615/24/1 616/39/1
f 617/28/1 618/29/1 619/25/1 620/24/1
f 621/29/1 622/30/1 623/7/1 624/25/1
f 625/30/1 626/31/1 627/8/1 628/7/1
f 629/31/1 630/32/1 631/11/1 632/8/1
f 633/32/1 634/33/1 635/13/1 636/11/1
f 637/33/1 638/34/1 639/15/1 640/13/1
f 641/24/1 642/25/1 643/26/1 644/27/1
f 645/25/1 646/7/1 647/10/1 648/26/1
f 649/7/1 650/8/1 651/9/1 652/10/1
f 653/8/1 654/11/1 655/12/1 656/9/1
f 657/11/1 658/13/1 659/14/1 660/12/1
f 661/13/1 662/15/1 663/16/1 664/14/1
f 665/15/1 666/17/1 667/18/1 668/16/1
f 669/17/1 670/19/1 671/20/1 672/18/1
f 673/40/1 674/39/1 675/41/1 676/42/1
f 677/39/1 678/24/1 679/27/1 680/41/1
f 681/24/1 682/25/1 683/26/1 684/27/1
f 685/25/1 686/7/1 687/10/1 688/26/1
f 689/7/1 690/8/1 691/9/1 692/10/1
f 693/8/1 694/11/1 695/12/1 696/9/1
f 697/11/1 698/13/1 699/14/1 700/12/1
f 701/13/1 702/15/1 703/16/1 704/14/1
f 705/28/1 706/29/1 707/25/1 708/24/1
f 709/29/1 710/30/1 711/7/1 712/25/1
f 713/30/1 714/31/1 715/8/1 716/7/1
f 717/31/1 718/32/1 719/11/1 720/8/1
f 721/32/1 722/33/1 723/13/1 724/11/1
f 725/33/1 726/34/1 727/15/1 728/13/1
f 729/34/1 730/35/1 731/17/1 732/15/1
f 733/35/1 734/36/1 735/19/1 736/17/1
f 737/37/1 738/38/1 739/39/1 740/40/1
f 741/38/1 742/28/1 743/24/1 744/39/1
f 745/28/1 746/29/1 747/25/1 748/24/1
f 749/29/1 750/30/1 751/7/1 752/25/1
f 753/30/1 754/31/1 755/8/1 756/7/1
f 757/31/1 758/32/1 759/11/1 760/8/1
f 761/32/1 762/33/1 763/13/1 764/11/1
f 765/33/1 766/34/1 767/15/1 768/13/1
f 769/24/1 770/25/1 771/26/1 772/27/1
f 773/25/1 774/7/1 775/10/1 776/26/1
f 777/7/1 778/8/1 779/9/1 780/10/1
f 781/8/1 782/11/1 783/12/1 784/9/1
f 785/11/1 786/13/1 787/14/1 788/12/1
f 789/13/1 790/15/1 791/16/1 792/14/1
f 793/15/1 794/17/1 795/18/1 796/16/1
f 797/17/1 798/19/1 799/20/1 800/18/1
f 801/40/1 802/39/1 803/41/1 804/42/1
f 805/39/1 806/24/1 807/27/1 808/41/1
f 809/24/1 810/25/1 811/26/1 812/27/1
f 813/25/1 814/7/1 815/10/1 816/26/1
f 817/7/1 818/8/1 819/9/1 820/10/1
f 821/8/1 822/11/1 823/12/1 824/9/1
f 825/11/1 826/13/1 827/14/1 828/12/1
f 829/13/1 830/15/1 831/16/1 832/14/1
f 833/28/1 834/29/1 835/25/1 836/24/1
f 837/29/1 838/30/1 839/7/1 840/25/1
f 841/30/1 842/31/1 843/8/1 844/7/1
f 845/31/1 846/32/1 847/11/1 848/8/1
f 849/32/1 850/33/1 851/13/1 852/11/1
f 853/33/1 854/34/1 855/15/1 856/13/1
f 857/34/1 858/35/1 859/17/1 860/15/1
f 861/35/1 862/36/1 863/19/1 864/17/1
f 865/37/1 866/38/1 867/39/1 868/40/1
f 869/38/1 870/28/1 871/24/1 872/39/1
f 873/28/1 874/29/1 875/25/1 876/24/1
f 877/29/1 878/30/1 879/7/1 880/25/1
f 881/30/1 882/31/1 883/8/1 884/7/1
f 885/31/1 886/32/1 887/11/1 888/8/1
f 889/32/1 890/33/1 891/13/1 892/11/1
f 893/33/1 894/34/1 895/15/1 896/13/1
f 897/24/1 898/25/1 899/26/1 900/27/1
f 901/25/1 902/7/1 903/10/1 904/26/1
f 905/7/1 906/8/1 907/9/1 908/10/1
f 909/8/1 910/11/1 911/12/1 912/9/1
f 913/11/1 914/13/1 915/14/1 916/12/1
f 917/13/1 918/15/1 919/16/1 920/14/1
f 921/15/1 922/17/1 923/18/1 924/16/1
f 925/4/1 926/3/1 927/21/1 928/22/1
f 929/3/1 930/6/1 931/23/1 932/21/1
f 933/39/1 934/24/1 935/27/1 936/41/1
f 937/24/1 938/25/1 939/26/1 940/27/1
f 941/25/1 942/7/1 943/10/1 944/26/1
f 945/7/1 946/8/1 947/9/1 948/10/1
f 949/8/1 950/11/1 951/12/1 952/9/1
f 953/11/1 954/13/1 955/14/1 956/12/1
f 957/13/1 958/15/1 959/16/1 960/14/1
f 961/28/1 962/29/1 963/25/1 964/24/1
f 965/29/1 966/30/1 967/7/1 968/25/1
f 969/30/1 970/31/1 971/8/1 972/7/1
f 973/31/1 974/32/1 975/11/1 976/8/1
f 977/32/1 978/33/1 979/13/1 980/11/1
f 981/33/1 982/34/1 983/15/1 984/13/1
f 985/4/1 986/3/1 987/21/1 988/22/1
f 989/3/1 990/6/1 991/23/1 992/21/1
f 993/3/1 994/6/1 995/23/1 996/21/1
f 997/38/1 998/28/1 999/24/1 1000/39/1
f 1001/28/1 1002/29/1 1003/25/1 1004/24/1
f 1005/29/1 1006/30/1 1007/7/1 1008/25/1
f 1009/30/1 1010/31/1 1011/8/1 1012/7/1
f 1013/31/1 1014/32/1 1015/11/1 1016/8/1
f 1017/32/1 1018/33/1 1019/13/1 1020/11/1
f 1021/33/1 1022/34/1 1023/15/1 1024/13/1

