# Tiled2Unity generated file. Do not modify by hand.
# Wavefront file for '2ScenarioPlataforma_mesh_0952.obj'

# Vertices (Count = 272)
v -128 -16 0
v -144 -16 0
v -144 0 0
v -128 0 0
v -128 -32 0
v -144 -32 0
v -144 -16 0
v -128 -16 0
v -128 -48 0
v -144 -48 0
v -144 -32 0
v -128 -32 0
v -128 -64 0
v -144 -64 0
v -144 -48 0
v -128 -48 0
v 0 -208 0
v -16 -208 0
v -16 -192 0
v 0 -192 0
v -16 -208 0
v -32 -208 0
v -32 -192 0
v -16 -192 0
v -32 -208 0
v -48 -208 0
v -48 -192 0
v -32 -192 0
v -48 -208 0
v -64 -208 0
v -64 -192 0
v -48 -192 0
v -64 -208 0
v -80 -208 0
v -80 -192 0
v -64 -192 0
v -80 -208 0
v -96 -208 0
v -96 -192 0
v -80 -192 0
v -96 -208 0
v -112 -208 0
v -112 -192 0
v -96 -192 0
v -112 -208 0
v -128 -208 0
v -128 -192 0
v -112 -192 0
v -128 -208 0
v -144 -208 0
v -144 -192 0
v -128 -192 0
v -144 -208 0
v -160 -208 0
v -160 -192 0
v -144 -192 0
v -160 -208 0
v -176 -208 0
v -176 -192 0
v -160 -192 0
v -176 -208 0
v -192 -208 0
v -192 -192 0
v -176 -192 0
v -192 -208 0
v -208 -208 0
v -208 -192 0
v -192 -192 0
v -208 -208 0
v -224 -208 0
v -224 -192 0
v -208 -192 0
v -224 -208 0
v -240 -208 0
v -240 -192 0
v -224 -192 0
v -240 -208 0
v -256 -208 0
v -256 -192 0
v -240 -192 0
v 0 -224 0
v -16 -224 0
v -16 -208 0
v 0 -208 0
v -16 -224 0
v -32 -224 0
v -32 -208 0
v -16 -208 0
v -32 -224 0
v -48 -224 0
v -48 -208 0
v -32 -208 0
v -48 -224 0
v -64 -224 0
v -64 -208 0
v -48 -208 0
v -64 -224 0
v -80 -224 0
v -80 -208 0
v -64 -208 0
v -80 -224 0
v -96 -224 0
v -96 -208 0
v -80 -208 0
v -96 -224 0
v -112 -224 0
v -112 -208 0
v -96 -208 0
v -112 -224 0
v -128 -224 0
v -128 -208 0
v -112 -208 0
v -128 -224 0
v -144 -224 0
v -144 -208 0
v -128 -208 0
v -144 -224 0
v -160 -224 0
v -160 -208 0
v -144 -208 0
v -160 -224 0
v -176 -224 0
v -176 -208 0
v -160 -208 0
v -176 -224 0
v -192 -224 0
v -192 -208 0
v -176 -208 0
v -192 -224 0
v -208 -224 0
v -208 -208 0
v -192 -208 0
v -208 -224 0
v -224 -224 0
v -224 -208 0
v -208 -208 0
v -224 -224 0
v -240 -224 0
v -240 -208 0
v -224 -208 0
v -240 -224 0
v -256 -224 0
v -256 -208 0
v -240 -208 0
v 0 -240 0
v -16 -240 0
v -16 -224 0
v 0 -224 0
v -16 -240 0
v -32 -240 0
v -32 -224 0
v -16 -224 0
v -32 -240 0
v -48 -240 0
v -48 -224 0
v -32 -224 0
v -48 -240 0
v -64 -240 0
v -64 -224 0
v -48 -224 0
v -64 -240 0
v -80 -240 0
v -80 -224 0
v -64 -224 0
v -80 -240 0
v -96 -240 0
v -96 -224 0
v -80 -224 0
v -96 -240 0
v -112 -240 0
v -112 -224 0
v -96 -224 0
v -112 -240 0
v -128 -240 0
v -128 -224 0
v -112 -224 0
v -128 -240 0
v -144 -240 0
v -144 -224 0
v -128 -224 0
v -144 -240 0
v -160 -240 0
v -160 -224 0
v -144 -224 0
v -160 -240 0
v -176 -240 0
v -176 -224 0
v -160 -224 0
v -176 -240 0
v -192 -240 0
v -192 -224 0
v -176 -224 0
v -192 -240 0
v -208 -240 0
v -208 -224 0
v -192 -224 0
v -208 -240 0
v -224 -240 0
v -224 -224 0
v -208 -224 0
v -224 -240 0
v -240 -240 0
v -240 -224 0
v -224 -224 0
v -240 -240 0
v -256 -240 0
v -256 -224 0
v -240 -224 0
v 0 -256 0
v -16 -256 0
v -16 -240 0
v 0 -240 0
v -16 -256 0
v -32 -256 0
v -32 -240 0
v -16 -240 0
v -32 -256 0
v -48 -256 0
v -48 -240 0
v -32 -240 0
v -48 -256 0
v -64 -256 0
v -64 -240 0
v -48 -240 0
v -64 -256 0
v -80 -256 0
v -80 -240 0
v -64 -240 0
v -80 -256 0
v -96 -256 0
v -96 -240 0
v -80 -240 0
v -96 -256 0
v -112 -256 0
v -112 -240 0
v -96 -240 0
v -112 -256 0
v -128 -256 0
v -128 -240 0
v -112 -240 0
v -128 -256 0
v -144 -256 0
v -144 -240 0
v -128 -240 0
v -144 -256 0
v -160 -256 0
v -160 -240 0
v -144 -240 0
v -160 -256 0
v -176 -256 0
v -176 -240 0
v -160 -240 0
v -176 -256 0
v -192 -256 0
v -192 -240 0
v -176 -240 0
v -192 -256 0
v -208 -256 0
v -208 -240 0
v -192 -240 0
v -208 -256 0
v -224 -256 0
v -224 -240 0
v -208 -240 0
v -224 -256 0
v -240 -256 0
v -240 -240 0
v -224 -240 0
v -240 -256 0
v -256 -256 0
v -256 -240 0
v -240 -240 0

# Texture cooridinates (Count = 34)
vt 0.1382979 0.25
vt 0.1489362 0.25
vt 0.1489362 0.3125
vt 0.1382979 0.3125
vt 0.2659574 0.25
vt 0.2765957 0.25
vt 0.2765957 0.3125
vt 0.2659574 0.3125
vt 0.1595745 0.25
vt 0.1595745 0.3125
vt 0.2446809 0.125
vt 0.2553191 0.125
vt 0.2553191 0.1875
vt 0.2446809 0.1875
vt 0.212766 0.125
vt 0.2234043 0.125
vt 0.2234043 0.1875
vt 0.212766 0.1875
vt 0.2340426 0.125
vt 0.2340426 0.1875
vt 0.2446809 0.0625
vt 0.2553191 0.0625
vt 0.212766 0.0625
vt 0.2234043 0.0625
vt 0.2340426 0.0625
vt 0.2446809 0
vt 0.2553191 0
vt 0.212766 0
vt 0.2234043 0
vt 0.2340426 0
vt 0.606383 0.8125
vt 0.6170213 0.8125
vt 0.6170213 0.875
vt 0.606383 0.875

# Normal
vn 0 0 -1

# Mesh description
g 2ScenarioPlataforma_mesh_0952

# Faces
f 1/1/1 2/2/1 3/3/1 4/4/1
f 5/5/1 6/6/1 7/7/1 8/8/1
f 9/2/1 10/9/1 11/10/1 12/3/1
f 13/5/1 14/6/1 15/7/1 16/8/1
f 17/11/1 18/12/1 19/13/1 20/14/1
f 21/15/1 22/16/1 23/17/1 24/18/1
f 25/16/1 26/19/1 27/20/1 28/17/1
f 29/19/1 30/11/1 31/14/1 32/20/1
f 33/11/1 34/12/1 35/13/1 36/14/1
f 37/15/1 38/16/1 39/17/1 40/18/1
f 41/16/1 42/19/1 43/20/1 44/17/1
f 45/19/1 46/11/1 47/14/1 48/20/1
f 49/11/1 50/12/1 51/13/1 52/14/1
f 53/15/1 54/16/1 55/17/1 56/18/1
f 57/16/1 58/19/1 59/20/1 60/17/1
f 61/19/1 62/11/1 63/14/1 64/20/1
f 65/11/1 66/12/1 67/13/1 68/14/1
f 69/15/1 70/16/1 71/17/1 72/18/1
f 73/16/1 74/19/1 75/20/1 76/17/1
f 77/19/1 78/11/1 79/14/1 80/20/1
f 81/21/1 82/22/1 83/12/1 84/11/1
f 85/23/1 86/24/1 87/16/1 88/15/1
f 89/24/1 90/25/1 91/19/1 92/16/1
f 93/25/1 94/21/1 95/11/1 96/19/1
f 97/21/1 98/22/1 99/12/1 100/11/1
f 101/23/1 102/24/1 103/16/1 104/15/1
f 105/24/1 106/25/1 107/19/1 108/16/1
f 109/25/1 110/21/1 111/11/1 112/19/1
f 113/21/1 114/22/1 115/12/1 116/11/1
f 117/23/1 118/24/1 119/16/1 120/15/1
f 121/24/1 122/25/1 123/19/1 124/16/1
f 125/25/1 126/21/1 127/11/1 128/19/1
f 129/21/1 130/22/1 131/12/1 132/11/1
f 133/23/1 134/24/1 135/16/1 136/15/1
f 137/24/1 138/25/1 139/19/1 140/16/1
f 141/25/1 142/21/1 143/11/1 144/19/1
f 145/26/1 146/27/1 147/22/1 148/21/1
f 149/28/1 150/29/1 151/24/1 152/23/1
f 153/29/1 154/30/1 155/25/1 156/24/1
f 157/30/1 158/26/1 159/21/1 160/25/1
f 161/26/1 162/27/1 163/22/1 164/21/1
f 165/28/1 166/29/1 167/24/1 168/23/1
f 169/29/1 170/30/1 171/25/1 172/24/1
f 173/30/1 174/26/1 175/21/1 176/25/1
f 177/26/1 178/27/1 179/22/1 180/21/1
f 181/28/1 182/29/1 183/24/1 184/23/1
f 185/29/1 186/30/1 187/25/1 188/24/1
f 189/30/1 190/26/1 191/21/1 192/25/1
f 193/26/1 194/27/1 195/22/1 196/21/1
f 197/28/1 198/29/1 199/24/1 200/23/1
f 201/29/1 202/30/1 203/25/1 204/24/1
f 205/30/1 206/26/1 207/21/1 208/25/1
f 209/31/1 210/32/1 211/33/1 212/34/1
f 213/31/1 214/32/1 215/33/1 216/34/1
f 217/31/1 218/32/1 219/33/1 220/34/1
f 221/31/1 222/32/1 223/33/1 224/34/1
f 225/31/1 226/32/1 227/33/1 228/34/1
f 229/31/1 230/32/1 231/33/1 232/34/1
f 233/31/1 234/32/1 235/33/1 236/34/1
f 237/31/1 238/32/1 239/33/1 240/34/1
f 241/31/1 242/32/1 243/33/1 244/34/1
f 245/31/1 246/32/1 247/33/1 248/34/1
f 249/31/1 250/32/1 251/33/1 252/34/1
f 253/31/1 254/32/1 255/33/1 256/34/1
f 257/31/1 258/32/1 259/33/1 260/34/1
f 261/31/1 262/32/1 263/33/1 264/34/1
f 265/31/1 266/32/1 267/33/1 268/34/1
f 269/31/1 270/32/1 271/33/1 272/34/1

