# Tiled2Unity generated file. Do not modify by hand.
# Wavefront file for '2ScenarioPlataforma_mesh_0666.obj'

# Vertices (Count = 108)
v -128 -208 0
v -144 -208 0
v -144 -192 0
v -128 -192 0
v -144 -208 0
v -160 -208 0
v -160 -192 0
v -144 -192 0
v -160 -208 0
v -176 -208 0
v -176 -192 0
v -160 -192 0
v -176 -208 0
v -192 -208 0
v -192 -192 0
v -176 -192 0
v -192 -208 0
v -208 -208 0
v -208 -192 0
v -192 -192 0
v -208 -208 0
v -224 -208 0
v -224 -192 0
v -208 -192 0
v -224 -208 0
v -240 -208 0
v -240 -192 0
v -224 -192 0
v -240 -208 0
v -256 -208 0
v -256 -192 0
v -240 -192 0
v -128 -224 0
v -144 -224 0
v -144 -208 0
v -128 -208 0
v -144 -224 0
v -160 -224 0
v -160 -208 0
v -144 -208 0
v -160 -224 0
v -176 -224 0
v -176 -208 0
v -160 -208 0
v -176 -224 0
v -192 -224 0
v -192 -208 0
v -176 -208 0
v -192 -224 0
v -208 -224 0
v -208 -208 0
v -192 -208 0
v -208 -224 0
v -224 -224 0
v -224 -208 0
v -208 -208 0
v -224 -224 0
v -240 -224 0
v -240 -208 0
v -224 -208 0
v -240 -224 0
v -256 -224 0
v -256 -208 0
v -240 -208 0
v 0 -240 0
v -16 -240 0
v -16 -224 0
v 0 -224 0
v -16 -240 0
v -32 -240 0
v -32 -224 0
v -16 -224 0
v -32 -240 0
v -48 -240 0
v -48 -224 0
v -32 -224 0
v -128 -240 0
v -144 -240 0
v -144 -224 0
v -128 -224 0
v -144 -240 0
v -160 -240 0
v -160 -224 0
v -144 -224 0
v -160 -240 0
v -176 -240 0
v -176 -224 0
v -160 -224 0
v -176 -240 0
v -192 -240 0
v -192 -224 0
v -176 -224 0
v -192 -240 0
v -208 -240 0
v -208 -224 0
v -192 -224 0
v -208 -240 0
v -224 -240 0
v -224 -224 0
v -208 -224 0
v -224 -240 0
v -240 -240 0
v -240 -224 0
v -224 -224 0
v -240 -240 0
v -256 -240 0
v -256 -224 0
v -240 -224 0

# Texture cooridinates (Count = 42)
vt 0.1170213 0.125
vt 0.1276596 0.125
vt 0.1276596 0.1875
vt 0.1170213 0.1875
vt 0.1382979 0.125
vt 0.1382979 0.1875
vt 0.1489362 0.125
vt 0.1489362 0.1875
vt 0.1595745 0.125
vt 0.1595745 0.1875
vt 0.1702128 0.125
vt 0.1702128 0.1875
vt 0.1808511 0.125
vt 0.1808511 0.1875
vt 0.1914894 0.125
vt 0.1914894 0.1875
vt 0.1170213 0.0625
vt 0.1276596 0.0625
vt 0.1382979 0.0625
vt 0.1489362 0.0625
vt 0.1595745 0.0625
vt 0.1702128 0.0625
vt 0.1808511 0.0625
vt 0.1914894 0.0625
vt 0.893617 0.3125
vt 0.9042553 0.3125
vt 0.9042553 0.375
vt 0.893617 0.375
vt 0.9148936 0.3125
vt 0.9255319 0.3125
vt 0.9255319 0.375
vt 0.9148936 0.375
vt 0.8829787 0.3125
vt 0.8829787 0.375
vt 0.1170213 0
vt 0.1276596 0
vt 0.1382979 0
vt 0.1489362 0
vt 0.1595745 0
vt 0.1702128 0
vt 0.1808511 0
vt 0.1914894 0

# Normal
vn 0 0 -1

# Mesh description
g 2ScenarioPlataforma_mesh_0666

# Faces
f 1/1/1 2/2/1 3/3/1 4/4/1
f 5/2/1 6/5/1 7/6/1 8/3/1
f 9/5/1 10/7/1 11/8/1 12/6/1
f 13/7/1 14/9/1 15/10/1 16/8/1
f 17/9/1 18/11/1 19/12/1 20/10/1
f 21/11/1 22/13/1 23/14/1 24/12/1
f 25/13/1 26/15/1 27/16/1 28/14/1
f 29/1/1 30/2/1 31/3/1 32/4/1
f 33/17/1 34/18/1 35/2/1 36/1/1
f 37/18/1 38/19/1 39/5/1 40/2/1
f 41/19/1 42/20/1 43/7/1 44/5/1
f 45/20/1 46/21/1 47/9/1 48/7/1
f 49/21/1 50/22/1 51/11/1 52/9/1
f 53/22/1 54/23/1 55/13/1 56/11/1
f 57/23/1 58/24/1 59/15/1 60/13/1
f 61/17/1 62/18/1 63/2/1 64/1/1
f 65/25/1 66/26/1 67/27/1 68/28/1
f 69/29/1 70/30/1 71/31/1 72/32/1
f 73/33/1 74/25/1 75/28/1 76/34/1
f 77/35/1 78/36/1 79/18/1 80/17/1
f 81/36/1 82/37/1 83/19/1 84/18/1
f 85/37/1 86/38/1 87/20/1 88/19/1
f 89/38/1 90/39/1 91/21/1 92/20/1
f 93/39/1 94/40/1 95/22/1 96/21/1
f 97/40/1 98/41/1 99/23/1 100/22/1
f 101/41/1 102/42/1 103/24/1 104/23/1
f 105/35/1 106/36/1 107/18/1 108/17/1

