# Tiled2Unity generated file. Do not modify by hand.
# Wavefront file for '2ScenarioPlataforma_mesh_0980.obj'

# Vertices (Count = 1024)
v 0 -16 0
v -16 -16 0
v -16 0 0
v 0 0 0
v -16 -16 0
v -32 -16 0
v -32 0 0
v -16 0 0
v -32 -16 0
v -48 -16 0
v -48 0 0
v -32 0 0
v -48 -16 0
v -64 -16 0
v -64 0 0
v -48 0 0
v -64 -16 0
v -80 -16 0
v -80 0 0
v -64 0 0
v -80 -16 0
v -96 -16 0
v -96 0 0
v -80 0 0
v -96 -16 0
v -112 -16 0
v -112 0 0
v -96 0 0
v -112 -16 0
v -128 -16 0
v -128 0 0
v -112 0 0
v -128 -16 0
v -144 -16 0
v -144 0 0
v -128 0 0
v -144 -16 0
v -160 -16 0
v -160 0 0
v -144 0 0
v -160 -16 0
v -176 -16 0
v -176 0 0
v -160 0 0
v -176 -16 0
v -192 -16 0
v -192 0 0
v -176 0 0
v -192 -16 0
v -208 -16 0
v -208 0 0
v -192 0 0
v -208 -16 0
v -224 -16 0
v -224 0 0
v -208 0 0
v -224 -16 0
v -240 -16 0
v -240 0 0
v -224 0 0
v -240 -16 0
v -256 -16 0
v -256 0 0
v -240 0 0
v 0 -32 0
v -16 -32 0
v -16 -16 0
v 0 -16 0
v -16 -32 0
v -32 -32 0
v -32 -16 0
v -16 -16 0
v -32 -32 0
v -48 -32 0
v -48 -16 0
v -32 -16 0
v -48 -32 0
v -64 -32 0
v -64 -16 0
v -48 -16 0
v -64 -32 0
v -80 -32 0
v -80 -16 0
v -64 -16 0
v -80 -32 0
v -96 -32 0
v -96 -16 0
v -80 -16 0
v -96 -32 0
v -112 -32 0
v -112 -16 0
v -96 -16 0
v -112 -32 0
v -128 -32 0
v -128 -16 0
v -112 -16 0
v -128 -32 0
v -144 -32 0
v -144 -16 0
v -128 -16 0
v -144 -32 0
v -160 -32 0
v -160 -16 0
v -144 -16 0
v -160 -32 0
v -176 -32 0
v -176 -16 0
v -160 -16 0
v -176 -32 0
v -192 -32 0
v -192 -16 0
v -176 -16 0
v -192 -32 0
v -208 -32 0
v -208 -16 0
v -192 -16 0
v -208 -32 0
v -224 -32 0
v -224 -16 0
v -208 -16 0
v -224 -32 0
v -240 -32 0
v -240 -16 0
v -224 -16 0
v -240 -32 0
v -256 -32 0
v -256 -16 0
v -240 -16 0
v 0 -48 0
v -16 -48 0
v -16 -32 0
v 0 -32 0
v -16 -48 0
v -32 -48 0
v -32 -32 0
v -16 -32 0
v -32 -48 0
v -48 -48 0
v -48 -32 0
v -32 -32 0
v -48 -48 0
v -64 -48 0
v -64 -32 0
v -48 -32 0
v -64 -48 0
v -80 -48 0
v -80 -32 0
v -64 -32 0
v -80 -48 0
v -96 -48 0
v -96 -32 0
v -80 -32 0
v -96 -48 0
v -112 -48 0
v -112 -32 0
v -96 -32 0
v -112 -48 0
v -128 -48 0
v -128 -32 0
v -112 -32 0
v -128 -48 0
v -144 -48 0
v -144 -32 0
v -128 -32 0
v -144 -48 0
v -160 -48 0
v -160 -32 0
v -144 -32 0
v -160 -48 0
v -176 -48 0
v -176 -32 0
v -160 -32 0
v -176 -48 0
v -192 -48 0
v -192 -32 0
v -176 -32 0
v -192 -48 0
v -208 -48 0
v -208 -32 0
v -192 -32 0
v -208 -48 0
v -224 -48 0
v -224 -32 0
v -208 -32 0
v -224 -48 0
v -240 -48 0
v -240 -32 0
v -224 -32 0
v -240 -48 0
v -256 -48 0
v -256 -32 0
v -240 -32 0
v 0 -64 0
v -16 -64 0
v -16 -48 0
v 0 -48 0
v -16 -64 0
v -32 -64 0
v -32 -48 0
v -16 -48 0
v -32 -64 0
v -48 -64 0
v -48 -48 0
v -32 -48 0
v -48 -64 0
v -64 -64 0
v -64 -48 0
v -48 -48 0
v -64 -64 0
v -80 -64 0
v -80 -48 0
v -64 -48 0
v -80 -64 0
v -96 -64 0
v -96 -48 0
v -80 -48 0
v -96 -64 0
v -112 -64 0
v -112 -48 0
v -96 -48 0
v -112 -64 0
v -128 -64 0
v -128 -48 0
v -112 -48 0
v -128 -64 0
v -144 -64 0
v -144 -48 0
v -128 -48 0
v -144 -64 0
v -160 -64 0
v -160 -48 0
v -144 -48 0
v -160 -64 0
v -176 -64 0
v -176 -48 0
v -160 -48 0
v -176 -64 0
v -192 -64 0
v -192 -48 0
v -176 -48 0
v -192 -64 0
v -208 -64 0
v -208 -48 0
v -192 -48 0
v -208 -64 0
v -224 -64 0
v -224 -48 0
v -208 -48 0
v -224 -64 0
v -240 -64 0
v -240 -48 0
v -224 -48 0
v -240 -64 0
v -256 -64 0
v -256 -48 0
v -240 -48 0
v 0 -80 0
v -16 -80 0
v -16 -64 0
v 0 -64 0
v -16 -80 0
v -32 -80 0
v -32 -64 0
v -16 -64 0
v -32 -80 0
v -48 -80 0
v -48 -64 0
v -32 -64 0
v -48 -80 0
v -64 -80 0
v -64 -64 0
v -48 -64 0
v -64 -80 0
v -80 -80 0
v -80 -64 0
v -64 -64 0
v -80 -80 0
v -96 -80 0
v -96 -64 0
v -80 -64 0
v -96 -80 0
v -112 -80 0
v -112 -64 0
v -96 -64 0
v -112 -80 0
v -128 -80 0
v -128 -64 0
v -112 -64 0
v -128 -80 0
v -144 -80 0
v -144 -64 0
v -128 -64 0
v -144 -80 0
v -160 -80 0
v -160 -64 0
v -144 -64 0
v -160 -80 0
v -176 -80 0
v -176 -64 0
v -160 -64 0
v -176 -80 0
v -192 -80 0
v -192 -64 0
v -176 -64 0
v -192 -80 0
v -208 -80 0
v -208 -64 0
v -192 -64 0
v -208 -80 0
v -224 -80 0
v -224 -64 0
v -208 -64 0
v -224 -80 0
v -240 -80 0
v -240 -64 0
v -224 -64 0
v -240 -80 0
v -256 -80 0
v -256 -64 0
v -240 -64 0
v 0 -96 0
v -16 -96 0
v -16 -80 0
v 0 -80 0
v -16 -96 0
v -32 -96 0
v -32 -80 0
v -16 -80 0
v -32 -96 0
v -48 -96 0
v -48 -80 0
v -32 -80 0
v -48 -96 0
v -64 -96 0
v -64 -80 0
v -48 -80 0
v -64 -96 0
v -80 -96 0
v -80 -80 0
v -64 -80 0
v -80 -96 0
v -96 -96 0
v -96 -80 0
v -80 -80 0
v -96 -96 0
v -112 -96 0
v -112 -80 0
v -96 -80 0
v -112 -96 0
v -128 -96 0
v -128 -80 0
v -112 -80 0
v -128 -96 0
v -144 -96 0
v -144 -80 0
v -128 -80 0
v -144 -96 0
v -160 -96 0
v -160 -80 0
v -144 -80 0
v -160 -96 0
v -176 -96 0
v -176 -80 0
v -160 -80 0
v -176 -96 0
v -192 -96 0
v -192 -80 0
v -176 -80 0
v -192 -96 0
v -208 -96 0
v -208 -80 0
v -192 -80 0
v -208 -96 0
v -224 -96 0
v -224 -80 0
v -208 -80 0
v -224 -96 0
v -240 -96 0
v -240 -80 0
v -224 -80 0
v -240 -96 0
v -256 -96 0
v -256 -80 0
v -240 -80 0
v 0 -112 0
v -16 -112 0
v -16 -96 0
v 0 -96 0
v -16 -112 0
v -32 -112 0
v -32 -96 0
v -16 -96 0
v -32 -112 0
v -48 -112 0
v -48 -96 0
v -32 -96 0
v -48 -112 0
v -64 -112 0
v -64 -96 0
v -48 -96 0
v -64 -112 0
v -80 -112 0
v -80 -96 0
v -64 -96 0
v -80 -112 0
v -96 -112 0
v -96 -96 0
v -80 -96 0
v -96 -112 0
v -112 -112 0
v -112 -96 0
v -96 -96 0
v -112 -112 0
v -128 -112 0
v -128 -96 0
v -112 -96 0
v -128 -112 0
v -144 -112 0
v -144 -96 0
v -128 -96 0
v -144 -112 0
v -160 -112 0
v -160 -96 0
v -144 -96 0
v -160 -112 0
v -176 -112 0
v -176 -96 0
v -160 -96 0
v -176 -112 0
v -192 -112 0
v -192 -96 0
v -176 -96 0
v -192 -112 0
v -208 -112 0
v -208 -96 0
v -192 -96 0
v -208 -112 0
v -224 -112 0
v -224 -96 0
v -208 -96 0
v -224 -112 0
v -240 -112 0
v -240 -96 0
v -224 -96 0
v -240 -112 0
v -256 -112 0
v -256 -96 0
v -240 -96 0
v 0 -128 0
v -16 -128 0
v -16 -112 0
v 0 -112 0
v -16 -128 0
v -32 -128 0
v -32 -112 0
v -16 -112 0
v -32 -128 0
v -48 -128 0
v -48 -112 0
v -32 -112 0
v -48 -128 0
v -64 -128 0
v -64 -112 0
v -48 -112 0
v -64 -128 0
v -80 -128 0
v -80 -112 0
v -64 -112 0
v -80 -128 0
v -96 -128 0
v -96 -112 0
v -80 -112 0
v -96 -128 0
v -112 -128 0
v -112 -112 0
v -96 -112 0
v -112 -128 0
v -128 -128 0
v -128 -112 0
v -112 -112 0
v -128 -128 0
v -144 -128 0
v -144 -112 0
v -128 -112 0
v -144 -128 0
v -160 -128 0
v -160 -112 0
v -144 -112 0
v -160 -128 0
v -176 -128 0
v -176 -112 0
v -160 -112 0
v -176 -128 0
v -192 -128 0
v -192 -112 0
v -176 -112 0
v -192 -128 0
v -208 -128 0
v -208 -112 0
v -192 -112 0
v -208 -128 0
v -224 -128 0
v -224 -112 0
v -208 -112 0
v -224 -128 0
v -240 -128 0
v -240 -112 0
v -224 -112 0
v -240 -128 0
v -256 -128 0
v -256 -112 0
v -240 -112 0
v 0 -144 0
v -16 -144 0
v -16 -128 0
v 0 -128 0
v -16 -144 0
v -32 -144 0
v -32 -128 0
v -16 -128 0
v -32 -144 0
v -48 -144 0
v -48 -128 0
v -32 -128 0
v -48 -144 0
v -64 -144 0
v -64 -128 0
v -48 -128 0
v -64 -144 0
v -80 -144 0
v -80 -128 0
v -64 -128 0
v -80 -144 0
v -96 -144 0
v -96 -128 0
v -80 -128 0
v -96 -144 0
v -112 -144 0
v -112 -128 0
v -96 -128 0
v -112 -144 0
v -128 -144 0
v -128 -128 0
v -112 -128 0
v -128 -144 0
v -144 -144 0
v -144 -128 0
v -128 -128 0
v -144 -144 0
v -160 -144 0
v -160 -128 0
v -144 -128 0
v -160 -144 0
v -176 -144 0
v -176 -128 0
v -160 -128 0
v -176 -144 0
v -192 -144 0
v -192 -128 0
v -176 -128 0
v -192 -144 0
v -208 -144 0
v -208 -128 0
v -192 -128 0
v -208 -144 0
v -224 -144 0
v -224 -128 0
v -208 -128 0
v -224 -144 0
v -240 -144 0
v -240 -128 0
v -224 -128 0
v -240 -144 0
v -256 -144 0
v -256 -128 0
v -240 -128 0
v 0 -160 0
v -16 -160 0
v -16 -144 0
v 0 -144 0
v -16 -160 0
v -32 -160 0
v -32 -144 0
v -16 -144 0
v -32 -160 0
v -48 -160 0
v -48 -144 0
v -32 -144 0
v -48 -160 0
v -64 -160 0
v -64 -144 0
v -48 -144 0
v -64 -160 0
v -80 -160 0
v -80 -144 0
v -64 -144 0
v -80 -160 0
v -96 -160 0
v -96 -144 0
v -80 -144 0
v -96 -160 0
v -112 -160 0
v -112 -144 0
v -96 -144 0
v -112 -160 0
v -128 -160 0
v -128 -144 0
v -112 -144 0
v -128 -160 0
v -144 -160 0
v -144 -144 0
v -128 -144 0
v -144 -160 0
v -160 -160 0
v -160 -144 0
v -144 -144 0
v -160 -160 0
v -176 -160 0
v -176 -144 0
v -160 -144 0
v -176 -160 0
v -192 -160 0
v -192 -144 0
v -176 -144 0
v -192 -160 0
v -208 -160 0
v -208 -144 0
v -192 -144 0
v -208 -160 0
v -224 -160 0
v -224 -144 0
v -208 -144 0
v -224 -160 0
v -240 -160 0
v -240 -144 0
v -224 -144 0
v -240 -160 0
v -256 -160 0
v -256 -144 0
v -240 -144 0
v 0 -176 0
v -16 -176 0
v -16 -160 0
v 0 -160 0
v -16 -176 0
v -32 -176 0
v -32 -160 0
v -16 -160 0
v -32 -176 0
v -48 -176 0
v -48 -160 0
v -32 -160 0
v -48 -176 0
v -64 -176 0
v -64 -160 0
v -48 -160 0
v -64 -176 0
v -80 -176 0
v -80 -160 0
v -64 -160 0
v -80 -176 0
v -96 -176 0
v -96 -160 0
v -80 -160 0
v -96 -176 0
v -112 -176 0
v -112 -160 0
v -96 -160 0
v -112 -176 0
v -128 -176 0
v -128 -160 0
v -112 -160 0
v -128 -176 0
v -144 -176 0
v -144 -160 0
v -128 -160 0
v -144 -176 0
v -160 -176 0
v -160 -160 0
v -144 -160 0
v -160 -176 0
v -176 -176 0
v -176 -160 0
v -160 -160 0
v -176 -176 0
v -192 -176 0
v -192 -160 0
v -176 -160 0
v -192 -176 0
v -208 -176 0
v -208 -160 0
v -192 -160 0
v -208 -176 0
v -224 -176 0
v -224 -160 0
v -208 -160 0
v -224 -176 0
v -240 -176 0
v -240 -160 0
v -224 -160 0
v -240 -176 0
v -256 -176 0
v -256 -160 0
v -240 -160 0
v 0 -192 0
v -16 -192 0
v -16 -176 0
v 0 -176 0
v -16 -192 0
v -32 -192 0
v -32 -176 0
v -16 -176 0
v -32 -192 0
v -48 -192 0
v -48 -176 0
v -32 -176 0
v -48 -192 0
v -64 -192 0
v -64 -176 0
v -48 -176 0
v -64 -192 0
v -80 -192 0
v -80 -176 0
v -64 -176 0
v -80 -192 0
v -96 -192 0
v -96 -176 0
v -80 -176 0
v -96 -192 0
v -112 -192 0
v -112 -176 0
v -96 -176 0
v -112 -192 0
v -128 -192 0
v -128 -176 0
v -112 -176 0
v -128 -192 0
v -144 -192 0
v -144 -176 0
v -128 -176 0
v -144 -192 0
v -160 -192 0
v -160 -176 0
v -144 -176 0
v -160 -192 0
v -176 -192 0
v -176 -176 0
v -160 -176 0
v -176 -192 0
v -192 -192 0
v -192 -176 0
v -176 -176 0
v -192 -192 0
v -208 -192 0
v -208 -176 0
v -192 -176 0
v -208 -192 0
v -224 -192 0
v -224 -176 0
v -208 -176 0
v -224 -192 0
v -240 -192 0
v -240 -176 0
v -224 -176 0
v -240 -192 0
v -256 -192 0
v -256 -176 0
v -240 -176 0
v 0 -208 0
v -16 -208 0
v -16 -192 0
v 0 -192 0
v -16 -208 0
v -32 -208 0
v -32 -192 0
v -16 -192 0
v -32 -208 0
v -48 -208 0
v -48 -192 0
v -32 -192 0
v -48 -208 0
v -64 -208 0
v -64 -192 0
v -48 -192 0
v -64 -208 0
v -80 -208 0
v -80 -192 0
v -64 -192 0
v -80 -208 0
v -96 -208 0
v -96 -192 0
v -80 -192 0
v -96 -208 0
v -112 -208 0
v -112 -192 0
v -96 -192 0
v -112 -208 0
v -128 -208 0
v -128 -192 0
v -112 -192 0
v -128 -208 0
v -144 -208 0
v -144 -192 0
v -128 -192 0
v -144 -208 0
v -160 -208 0
v -160 -192 0
v -144 -192 0
v -160 -208 0
v -176 -208 0
v -176 -192 0
v -160 -192 0
v -176 -208 0
v -192 -208 0
v -192 -192 0
v -176 -192 0
v -192 -208 0
v -208 -208 0
v -208 -192 0
v -192 -192 0
v -208 -208 0
v -224 -208 0
v -224 -192 0
v -208 -192 0
v -224 -208 0
v -240 -208 0
v -240 -192 0
v -224 -192 0
v -240 -208 0
v -256 -208 0
v -256 -192 0
v -240 -192 0
v 0 -224 0
v -16 -224 0
v -16 -208 0
v 0 -208 0
v -16 -224 0
v -32 -224 0
v -32 -208 0
v -16 -208 0
v -32 -224 0
v -48 -224 0
v -48 -208 0
v -32 -208 0
v -48 -224 0
v -64 -224 0
v -64 -208 0
v -48 -208 0
v -64 -224 0
v -80 -224 0
v -80 -208 0
v -64 -208 0
v -80 -224 0
v -96 -224 0
v -96 -208 0
v -80 -208 0
v -96 -224 0
v -112 -224 0
v -112 -208 0
v -96 -208 0
v -112 -224 0
v -128 -224 0
v -128 -208 0
v -112 -208 0
v -128 -224 0
v -144 -224 0
v -144 -208 0
v -128 -208 0
v -144 -224 0
v -160 -224 0
v -160 -208 0
v -144 -208 0
v -160 -224 0
v -176 -224 0
v -176 -208 0
v -160 -208 0
v -176 -224 0
v -192 -224 0
v -192 -208 0
v -176 -208 0
v -192 -224 0
v -208 -224 0
v -208 -208 0
v -192 -208 0
v -208 -224 0
v -224 -224 0
v -224 -208 0
v -208 -208 0
v -224 -224 0
v -240 -224 0
v -240 -208 0
v -224 -208 0
v -240 -224 0
v -256 -224 0
v -256 -208 0
v -240 -208 0
v 0 -240 0
v -16 -240 0
v -16 -224 0
v 0 -224 0
v -16 -240 0
v -32 -240 0
v -32 -224 0
v -16 -224 0
v -32 -240 0
v -48 -240 0
v -48 -224 0
v -32 -224 0
v -48 -240 0
v -64 -240 0
v -64 -224 0
v -48 -224 0
v -64 -240 0
v -80 -240 0
v -80 -224 0
v -64 -224 0
v -80 -240 0
v -96 -240 0
v -96 -224 0
v -80 -224 0
v -96 -240 0
v -112 -240 0
v -112 -224 0
v -96 -224 0
v -112 -240 0
v -128 -240 0
v -128 -224 0
v -112 -224 0
v -128 -240 0
v -144 -240 0
v -144 -224 0
v -128 -224 0
v -144 -240 0
v -160 -240 0
v -160 -224 0
v -144 -224 0
v -160 -240 0
v -176 -240 0
v -176 -224 0
v -160 -224 0
v -176 -240 0
v -192 -240 0
v -192 -224 0
v -176 -224 0
v -192 -240 0
v -208 -240 0
v -208 -224 0
v -192 -224 0
v -208 -240 0
v -224 -240 0
v -224 -224 0
v -208 -224 0
v -224 -240 0
v -240 -240 0
v -240 -224 0
v -224 -224 0
v -240 -240 0
v -256 -240 0
v -256 -224 0
v -240 -224 0
v 0 -256 0
v -16 -256 0
v -16 -240 0
v 0 -240 0
v -16 -256 0
v -32 -256 0
v -32 -240 0
v -16 -240 0
v -32 -256 0
v -48 -256 0
v -48 -240 0
v -32 -240 0
v -48 -256 0
v -64 -256 0
v -64 -240 0
v -48 -240 0
v -64 -256 0
v -80 -256 0
v -80 -240 0
v -64 -240 0
v -80 -256 0
v -96 -256 0
v -96 -240 0
v -80 -240 0
v -96 -256 0
v -112 -256 0
v -112 -240 0
v -96 -240 0
v -112 -256 0
v -128 -256 0
v -128 -240 0
v -112 -240 0
v -128 -256 0
v -144 -256 0
v -144 -240 0
v -128 -240 0
v -144 -256 0
v -160 -256 0
v -160 -240 0
v -144 -240 0
v -160 -256 0
v -176 -256 0
v -176 -240 0
v -160 -240 0
v -176 -256 0
v -192 -256 0
v -192 -240 0
v -176 -240 0
v -192 -256 0
v -208 -256 0
v -208 -240 0
v -192 -240 0
v -208 -256 0
v -224 -256 0
v -224 -240 0
v -208 -240 0
v -224 -256 0
v -240 -256 0
v -240 -240 0
v -224 -240 0
v -240 -256 0
v -256 -256 0
v -256 -240 0
v -240 -240 0

# Texture cooridinates (Count = 20)
vt 0.606383 0.75
vt 0.6170213 0.75
vt 0.6170213 0.8125
vt 0.606383 0.8125
vt 0.606383 0.6875
vt 0.6170213 0.6875
vt 0.606383 0.625
vt 0.6170213 0.625
vt 0.6170213 0.875
vt 0.606383 0.875
vt 0.6276596 0.8125
vt 0.6276596 0.875
vt 0.6382979 0.8125
vt 0.6382979 0.875
vt 0.6276596 0.75
vt 0.6382979 0.75
vt 0.6276596 0.6875
vt 0.6382979 0.6875
vt 0.6276596 0.625
vt 0.6382979 0.625

# Normal
vn 0 0 -1

# Mesh description
g 2ScenarioPlataforma_mesh_0980

# Faces
f 1/1/1 2/2/1 3/3/1 4/4/1
f 5/1/1 6/2/1 7/3/1 8/4/1
f 9/1/1 10/2/1 11/3/1 12/4/1
f 13/1/1 14/2/1 15/3/1 16/4/1
f 17/1/1 18/2/1 19/3/1 20/4/1
f 21/1/1 22/2/1 23/3/1 24/4/1
f 25/1/1 26/2/1 27/3/1 28/4/1
f 29/1/1 30/2/1 31/3/1 32/4/1
f 33/1/1 34/2/1 35/3/1 36/4/1
f 37/1/1 38/2/1 39/3/1 40/4/1
f 41/1/1 42/2/1 43/3/1 44/4/1
f 45/1/1 46/2/1 47/3/1 48/4/1
f 49/1/1 50/2/1 51/3/1 52/4/1
f 53/1/1 54/2/1 55/3/1 56/4/1
f 57/1/1 58/2/1 59/3/1 60/4/1
f 61/1/1 62/2/1 63/3/1 64/4/1
f 65/5/1 66/6/1 67/2/1 68/1/1
f 69/5/1 70/6/1 71/2/1 72/1/1
f 73/5/1 74/6/1 75/2/1 76/1/1
f 77/5/1 78/6/1 79/2/1 80/1/1
f 81/5/1 82/6/1 83/2/1 84/1/1
f 85/5/1 86/6/1 87/2/1 88/1/1
f 89/5/1 90/6/1 91/2/1 92/1/1
f 93/5/1 94/6/1 95/2/1 96/1/1
f 97/5/1 98/6/1 99/2/1 100/1/1
f 101/5/1 102/6/1 103/2/1 104/1/1
f 105/5/1 106/6/1 107/2/1 108/1/1
f 109/5/1 110/6/1 111/2/1 112/1/1
f 113/5/1 114/6/1 115/2/1 116/1/1
f 117/5/1 118/6/1 119/2/1 120/1/1
f 121/5/1 122/6/1 123/2/1 124/1/1
f 125/5/1 126/6/1 127/2/1 128/1/1
f 129/7/1 130/8/1 131/6/1 132/5/1
f 133/7/1 134/8/1 135/6/1 136/5/1
f 137/7/1 138/8/1 139/6/1 140/5/1
f 141/7/1 142/8/1 143/6/1 144/5/1
f 145/7/1 146/8/1 147/6/1 148/5/1
f 149/7/1 150/8/1 151/6/1 152/5/1
f 153/7/1 154/8/1 155/6/1 156/5/1
f 157/7/1 158/8/1 159/6/1 160/5/1
f 161/4/1 162/3/1 163/9/1 164/10/1
f 165/3/1 166/11/1 167/12/1 168/9/1
f 169/11/1 170/13/1 171/14/1 172/12/1
f 173/11/1 174/13/1 175/14/1 176/12/1
f 177/11/1 178/13/1 179/14/1 180/12/1
f 181/11/1 182/13/1 183/14/1 184/12/1
f 185/11/1 186/13/1 187/14/1 188/12/1
f 189/11/1 190/13/1 191/14/1 192/12/1
f 193/11/1 194/13/1 195/14/1 196/12/1
f 197/11/1 198/13/1 199/14/1 200/12/1
f 201/11/1 202/13/1 203/14/1 204/12/1
f 205/11/1 206/13/1 207/14/1 208/12/1
f 209/11/1 210/13/1 211/14/1 212/12/1
f 213/11/1 214/13/1 215/14/1 216/12/1
f 217/11/1 218/13/1 219/14/1 220/12/1
f 221/11/1 222/13/1 223/14/1 224/12/1
f 225/11/1 226/13/1 227/14/1 228/12/1
f 229/11/1 230/13/1 231/14/1 232/12/1
f 233/15/1 234/16/1 235/13/1 236/11/1
f 237/15/1 238/16/1 239/13/1 240/11/1
f 241/15/1 242/16/1 243/13/1 244/11/1
f 245/15/1 246/16/1 247/13/1 248/11/1
f 249/15/1 250/16/1 251/13/1 252/11/1
f 253/15/1 254/16/1 255/13/1 256/11/1
f 257/15/1 258/16/1 259/13/1 260/11/1
f 261/15/1 262/16/1 263/13/1 264/11/1
f 265/15/1 266/16/1 267/13/1 268/11/1
f 269/15/1 270/16/1 271/13/1 272/11/1
f 273/15/1 274/16/1 275/13/1 276/11/1
f 277/15/1 278/16/1 279/13/1 280/11/1
f 281/15/1 282/16/1 283/13/1 284/11/1
f 285/15/1 286/16/1 287/13/1 288/11/1
f 289/15/1 290/16/1 291/13/1 292/11/1
f 293/15/1 294/16/1 295/13/1 296/11/1
f 297/17/1 298/18/1 299/16/1 300/15/1
f 301/17/1 302/18/1 303/16/1 304/15/1
f 305/17/1 306/18/1 307/16/1 308/15/1
f 309/17/1 310/18/1 311/16/1 312/15/1
f 313/17/1 314/18/1 315/16/1 316/15/1
f 317/17/1 318/18/1 319/16/1 320/15/1
f 321/17/1 322/18/1 323/16/1 324/15/1
f 325/17/1 326/18/1 327/16/1 328/15/1
f 329/17/1 330/18/1 331/16/1 332/15/1
f 333/17/1 334/18/1 335/16/1 336/15/1
f 337/17/1 338/18/1 339/16/1 340/15/1
f 341/17/1 342/18/1 343/16/1 344/15/1
f 345/17/1 346/18/1 347/16/1 348/15/1
f 349/17/1 350/18/1 351/16/1 352/15/1
f 353/17/1 354/18/1 355/16/1 356/15/1
f 357/17/1 358/18/1 359/16/1 360/15/1
f 361/19/1 362/20/1 363/18/1 364/17/1
f 365/19/1 366/20/1 367/18/1 368/17/1
f 369/19/1 370/20/1 371/18/1 372/17/1
f 373/19/1 374/20/1 375/18/1 376/17/1
f 377/19/1 378/20/1 379/18/1 380/17/1
f 381/19/1 382/20/1 383/18/1 384/17/1
f 385/19/1 386/20/1 387/18/1 388/17/1
f 389/19/1 390/20/1 391/18/1 392/17/1
f 393/19/1 394/20/1 395/18/1 396/17/1
f 397/19/1 398/20/1 399/18/1 400/17/1
f 401/19/1 402/20/1 403/18/1 404/17/1
f 405/19/1 406/20/1 407/18/1 408/17/1
f 409/19/1 410/20/1 411/18/1 412/17/1
f 413/19/1 414/20/1 415/18/1 416/17/1
f 417/19/1 418/20/1 419/18/1 420/17/1
f 421/19/1 422/20/1 423/18/1 424/17/1
f 425/2/1 426/15/1 427/11/1 428/3/1
f 429/15/1 430/16/1 431/13/1 432/11/1
f 433/1/1 434/2/1 435/3/1 436/4/1
f 437/2/1 438/15/1 439/11/1 440/3/1
f 441/15/1 442/16/1 443/13/1 444/11/1
f 445/1/1 446/2/1 447/3/1 448/4/1
f 449/5/1 450/6/1 451/2/1 452/1/1
f 453/6/1 454/17/1 455/15/1 456/2/1
f 457/17/1 458/18/1 459/16/1 460/15/1
f 461/5/1 462/6/1 463/2/1 464/1/1
f 465/6/1 466/17/1 467/15/1 468/2/1
f 469/17/1 470/18/1 471/16/1 472/15/1
f 473/5/1 474/6/1 475/2/1 476/1/1
f 477/6/1 478/17/1 479/15/1 480/2/1
f 481/17/1 482/18/1 483/16/1 484/15/1
f 485/5/1 486/6/1 487/2/1 488/1/1
f 489/6/1 490/17/1 491/15/1 492/2/1
f 493/17/1 494/18/1 495/16/1 496/15/1
f 497/5/1 498/6/1 499/2/1 500/1/1
f 501/6/1 502/17/1 503/15/1 504/2/1
f 505/17/1 506/18/1 507/16/1 508/15/1
f 509/5/1 510/6/1 511/2/1 512/1/1
f 513/7/1 514/8/1 515/6/1 516/5/1
f 517/8/1 518/19/1 519/17/1 520/6/1
f 521/19/1 522/20/1 523/18/1 524/17/1
f 525/7/1 526/8/1 527/6/1 528/5/1
f 529/8/1 530/19/1 531/17/1 532/6/1
f 533/19/1 534/20/1 535/18/1 536/17/1
f 537/7/1 538/8/1 539/6/1 540/5/1
f 541/8/1 542/19/1 543/17/1 544/6/1
f 545/19/1 546/20/1 547/18/1 548/17/1
f 549/7/1 550/8/1 551/6/1 552/5/1
f 553/8/1 554/19/1 555/17/1 556/6/1
f 557/19/1 558/20/1 559/18/1 560/17/1
f 561/7/1 562/8/1 563/6/1 564/5/1
f 565/8/1 566/19/1 567/17/1 568/6/1
f 569/19/1 570/20/1 571/18/1 572/17/1
f 573/7/1 574/8/1 575/6/1 576/5/1
f 577/4/1 578/3/1 579/9/1 580/10/1
f 581/3/1 582/11/1 583/12/1 584/9/1
f 585/11/1 586/13/1 587/14/1 588/12/1
f 589/4/1 590/3/1 591/9/1 592/10/1
f 593/3/1 594/11/1 595/12/1 596/9/1
f 597/11/1 598/13/1 599/14/1 600/12/1
f 601/4/1 602/3/1 603/9/1 604/10/1
f 605/3/1 606/11/1 607/12/1 608/9/1
f 609/11/1 610/13/1 611/14/1 612/12/1
f 613/4/1 614/3/1 615/9/1 616/10/1
f 617/3/1 618/11/1 619/12/1 620/9/1
f 621/11/1 622/13/1 623/14/1 624/12/1
f 625/4/1 626/3/1 627/9/1 628/10/1
f 629/3/1 630/11/1 631/12/1 632/9/1
f 633/11/1 634/13/1 635/14/1 636/12/1
f 637/4/1 638/3/1 639/9/1 640/10/1
f 641/1/1 642/2/1 643/3/1 644/4/1
f 645/2/1 646/15/1 647/11/1 648/3/1
f 649/15/1 650/16/1 651/13/1 652/11/1
f 653/1/1 654/2/1 655/3/1 656/4/1
f 657/2/1 658/15/1 659/11/1 660/3/1
f 661/15/1 662/16/1 663/13/1 664/11/1
f 665/1/1 666/2/1 667/3/1 668/4/1
f 669/2/1 670/15/1 671/11/1 672/3/1
f 673/15/1 674/16/1 675/13/1 676/11/1
f 677/1/1 678/2/1 679/3/1 680/4/1
f 681/2/1 682/15/1 683/11/1 684/3/1
f 685/15/1 686/16/1 687/13/1 688/11/1
f 689/1/1 690/2/1 691/3/1 692/4/1
f 693/2/1 694/15/1 695/11/1 696/3/1
f 697/15/1 698/16/1 699/13/1 700/11/1
f 701/1/1 702/2/1 703/3/1 704/4/1
f 705/5/1 706/6/1 707/2/1 708/1/1
f 709/6/1 710/17/1 711/15/1 712/2/1
f 713/17/1 714/18/1 715/16/1 716/15/1
f 717/5/1 718/6/1 719/2/1 720/1/1
f 721/6/1 722/17/1 723/15/1 724/2/1
f 725/17/1 726/18/1 727/16/1 728/15/1
f 729/5/1 730/6/1 731/2/1 732/1/1
f 733/6/1 734/17/1 735/15/1 736/2/1
f 737/17/1 738/18/1 739/16/1 740/15/1
f 741/5/1 742/6/1 743/2/1 744/1/1
f 745/6/1 746/17/1 747/15/1 748/2/1
f 749/17/1 750/18/1 751/16/1 752/15/1
f 753/5/1 754/6/1 755/2/1 756/1/1
f 757/6/1 758/17/1 759/15/1 760/2/1
f 761/17/1 762/18/1 763/16/1 764/15/1
f 765/5/1 766/6/1 767/2/1 768/1/1
f 769/7/1 770/8/1 771/6/1 772/5/1
f 773/8/1 774/19/1 775/17/1 776/6/1
f 777/19/1 778/20/1 779/18/1 780/17/1
f 781/7/1 782/8/1 783/6/1 784/5/1
f 785/8/1 786/19/1 787/17/1 788/6/1
f 789/19/1 790/20/1 791/18/1 792/17/1
f 793/7/1 794/8/1 795/6/1 796/5/1
f 797/8/1 798/19/1 799/17/1 800/6/1
f 801/19/1 802/20/1 803/18/1 804/17/1
f 805/7/1 806/8/1 807/6/1 808/5/1
f 809/8/1 810/19/1 811/17/1 812/6/1
f 813/19/1 814/20/1 815/18/1 816/17/1
f 817/7/1 818/8/1 819/6/1 820/5/1
f 821/8/1 822/19/1 823/17/1 824/6/1
f 825/19/1 826/20/1 827/18/1 828/17/1
f 829/7/1 830/8/1 831/6/1 832/5/1
f 833/4/1 834/3/1 835/9/1 836/10/1
f 837/3/1 838/11/1 839/12/1 840/9/1
f 841/11/1 842/13/1 843/14/1 844/12/1
f 845/4/1 846/3/1 847/9/1 848/10/1
f 849/3/1 850/11/1 851/12/1 852/9/1
f 853/11/1 854/13/1 855/14/1 856/12/1
f 857/4/1 858/3/1 859/9/1 860/10/1
f 861/4/1 862/3/1 863/9/1 864/10/1
f 865/4/1 866/3/1 867/9/1 868/10/1
f 869/4/1 870/3/1 871/9/1 872/10/1
f 873/4/1 874/3/1 875/9/1 876/10/1
f 877/4/1 878/3/1 879/9/1 880/10/1
f 881/4/1 882/3/1 883/9/1 884/10/1
f 885/4/1 886/3/1 887/9/1 888/10/1
f 889/4/1 890/3/1 891/9/1 892/10/1
f 893/4/1 894/3/1 895/9/1 896/10/1
f 897/4/1 898/3/1 899/9/1 900/10/1
f 901/4/1 902/3/1 903/9/1 904/10/1
f 905/4/1 906/3/1 907/9/1 908/10/1
f 909/4/1 910/3/1 911/9/1 912/10/1
f 913/4/1 914/3/1 915/9/1 916/10/1
f 917/4/1 918/3/1 919/9/1 920/10/1
f 921/4/1 922/3/1 923/9/1 924/10/1
f 925/1/1 926/2/1 927/3/1 928/4/1
f 929/1/1 930/2/1 931/3/1 932/4/1
f 933/1/1 934/2/1 935/3/1 936/4/1
f 937/1/1 938/2/1 939/3/1 940/4/1
f 941/1/1 942/2/1 943/3/1 944/4/1
f 945/1/1 946/2/1 947/3/1 948/4/1
f 949/1/1 950/2/1 951/3/1 952/4/1
f 953/1/1 954/2/1 955/3/1 956/4/1
f 957/1/1 958/2/1 959/3/1 960/4/1
f 961/1/1 962/2/1 963/3/1 964/4/1
f 965/1/1 966/2/1 967/3/1 968/4/1
f 969/1/1 970/2/1 971/3/1 972/4/1
f 973/1/1 974/2/1 975/3/1 976/4/1
f 977/1/1 978/2/1 979/3/1 980/4/1
f 981/1/1 982/2/1 983/3/1 984/4/1
f 985/1/1 986/2/1 987/3/1 988/4/1
f 989/5/1 990/6/1 991/2/1 992/1/1
f 993/5/1 994/6/1 995/2/1 996/1/1
f 997/5/1 998/6/1 999/2/1 1000/1/1
f 1001/5/1 1002/6/1 1003/2/1 1004/1/1
f 1005/5/1 1006/6/1 1007/2/1 1008/1/1
f 1009/5/1 1010/6/1 1011/2/1 1012/1/1
f 1013/5/1 1014/6/1 1015/2/1 1016/1/1
f 1017/5/1 1018/6/1 1019/2/1 1020/1/1
f 1021/5/1 1022/6/1 1023/2/1 1024/1/1

