# Tiled2Unity generated file. Do not modify by hand.
# Wavefront file for '2ScenarioPlataforma_mesh_0333.obj'

# Vertices (Count = 1024)
v 0 -16 0
v -16 -16 0
v -16 0 0
v 0 0 0
v -16 -16 0
v -32 -16 0
v -32 0 0
v -16 0 0
v -32 -16 0
v -48 -16 0
v -48 0 0
v -32 0 0
v -48 -16 0
v -64 -16 0
v -64 0 0
v -48 0 0
v -64 -16 0
v -80 -16 0
v -80 0 0
v -64 0 0
v -80 -16 0
v -96 -16 0
v -96 0 0
v -80 0 0
v -96 -16 0
v -112 -16 0
v -112 0 0
v -96 0 0
v -112 -16 0
v -128 -16 0
v -128 0 0
v -112 0 0
v -128 -16 0
v -144 -16 0
v -144 0 0
v -128 0 0
v -144 -16 0
v -160 -16 0
v -160 0 0
v -144 0 0
v -160 -16 0
v -176 -16 0
v -176 0 0
v -160 0 0
v -176 -16 0
v -192 -16 0
v -192 0 0
v -176 0 0
v -192 -16 0
v -208 -16 0
v -208 0 0
v -192 0 0
v -208 -16 0
v -224 -16 0
v -224 0 0
v -208 0 0
v -224 -16 0
v -240 -16 0
v -240 0 0
v -224 0 0
v -240 -16 0
v -256 -16 0
v -256 0 0
v -240 0 0
v 0 -32 0
v -16 -32 0
v -16 -16 0
v 0 -16 0
v -16 -32 0
v -32 -32 0
v -32 -16 0
v -16 -16 0
v -32 -32 0
v -48 -32 0
v -48 -16 0
v -32 -16 0
v -48 -32 0
v -64 -32 0
v -64 -16 0
v -48 -16 0
v -64 -32 0
v -80 -32 0
v -80 -16 0
v -64 -16 0
v -80 -32 0
v -96 -32 0
v -96 -16 0
v -80 -16 0
v -96 -32 0
v -112 -32 0
v -112 -16 0
v -96 -16 0
v -112 -32 0
v -128 -32 0
v -128 -16 0
v -112 -16 0
v -128 -32 0
v -144 -32 0
v -144 -16 0
v -128 -16 0
v -144 -32 0
v -160 -32 0
v -160 -16 0
v -144 -16 0
v -160 -32 0
v -176 -32 0
v -176 -16 0
v -160 -16 0
v -176 -32 0
v -192 -32 0
v -192 -16 0
v -176 -16 0
v -192 -32 0
v -208 -32 0
v -208 -16 0
v -192 -16 0
v -208 -32 0
v -224 -32 0
v -224 -16 0
v -208 -16 0
v -224 -32 0
v -240 -32 0
v -240 -16 0
v -224 -16 0
v -240 -32 0
v -256 -32 0
v -256 -16 0
v -240 -16 0
v 0 -48 0
v -16 -48 0
v -16 -32 0
v 0 -32 0
v -16 -48 0
v -32 -48 0
v -32 -32 0
v -16 -32 0
v -32 -48 0
v -48 -48 0
v -48 -32 0
v -32 -32 0
v -48 -48 0
v -64 -48 0
v -64 -32 0
v -48 -32 0
v -64 -48 0
v -80 -48 0
v -80 -32 0
v -64 -32 0
v -80 -48 0
v -96 -48 0
v -96 -32 0
v -80 -32 0
v -96 -48 0
v -112 -48 0
v -112 -32 0
v -96 -32 0
v -112 -48 0
v -128 -48 0
v -128 -32 0
v -112 -32 0
v -128 -48 0
v -144 -48 0
v -144 -32 0
v -128 -32 0
v -144 -48 0
v -160 -48 0
v -160 -32 0
v -144 -32 0
v -160 -48 0
v -176 -48 0
v -176 -32 0
v -160 -32 0
v -176 -48 0
v -192 -48 0
v -192 -32 0
v -176 -32 0
v -192 -48 0
v -208 -48 0
v -208 -32 0
v -192 -32 0
v -208 -48 0
v -224 -48 0
v -224 -32 0
v -208 -32 0
v -224 -48 0
v -240 -48 0
v -240 -32 0
v -224 -32 0
v -240 -48 0
v -256 -48 0
v -256 -32 0
v -240 -32 0
v 0 -64 0
v -16 -64 0
v -16 -48 0
v 0 -48 0
v -16 -64 0
v -32 -64 0
v -32 -48 0
v -16 -48 0
v -32 -64 0
v -48 -64 0
v -48 -48 0
v -32 -48 0
v -48 -64 0
v -64 -64 0
v -64 -48 0
v -48 -48 0
v -64 -64 0
v -80 -64 0
v -80 -48 0
v -64 -48 0
v -80 -64 0
v -96 -64 0
v -96 -48 0
v -80 -48 0
v -96 -64 0
v -112 -64 0
v -112 -48 0
v -96 -48 0
v -112 -64 0
v -128 -64 0
v -128 -48 0
v -112 -48 0
v -128 -64 0
v -144 -64 0
v -144 -48 0
v -128 -48 0
v -144 -64 0
v -160 -64 0
v -160 -48 0
v -144 -48 0
v -160 -64 0
v -176 -64 0
v -176 -48 0
v -160 -48 0
v -176 -64 0
v -192 -64 0
v -192 -48 0
v -176 -48 0
v -192 -64 0
v -208 -64 0
v -208 -48 0
v -192 -48 0
v -208 -64 0
v -224 -64 0
v -224 -48 0
v -208 -48 0
v -224 -64 0
v -240 -64 0
v -240 -48 0
v -224 -48 0
v -240 -64 0
v -256 -64 0
v -256 -48 0
v -240 -48 0
v 0 -80 0
v -16 -80 0
v -16 -64 0
v 0 -64 0
v -16 -80 0
v -32 -80 0
v -32 -64 0
v -16 -64 0
v -32 -80 0
v -48 -80 0
v -48 -64 0
v -32 -64 0
v -48 -80 0
v -64 -80 0
v -64 -64 0
v -48 -64 0
v -64 -80 0
v -80 -80 0
v -80 -64 0
v -64 -64 0
v -80 -80 0
v -96 -80 0
v -96 -64 0
v -80 -64 0
v -96 -80 0
v -112 -80 0
v -112 -64 0
v -96 -64 0
v -112 -80 0
v -128 -80 0
v -128 -64 0
v -112 -64 0
v -128 -80 0
v -144 -80 0
v -144 -64 0
v -128 -64 0
v -144 -80 0
v -160 -80 0
v -160 -64 0
v -144 -64 0
v -160 -80 0
v -176 -80 0
v -176 -64 0
v -160 -64 0
v -176 -80 0
v -192 -80 0
v -192 -64 0
v -176 -64 0
v -192 -80 0
v -208 -80 0
v -208 -64 0
v -192 -64 0
v -208 -80 0
v -224 -80 0
v -224 -64 0
v -208 -64 0
v -224 -80 0
v -240 -80 0
v -240 -64 0
v -224 -64 0
v -240 -80 0
v -256 -80 0
v -256 -64 0
v -240 -64 0
v 0 -96 0
v -16 -96 0
v -16 -80 0
v 0 -80 0
v -16 -96 0
v -32 -96 0
v -32 -80 0
v -16 -80 0
v -32 -96 0
v -48 -96 0
v -48 -80 0
v -32 -80 0
v -48 -96 0
v -64 -96 0
v -64 -80 0
v -48 -80 0
v -64 -96 0
v -80 -96 0
v -80 -80 0
v -64 -80 0
v -80 -96 0
v -96 -96 0
v -96 -80 0
v -80 -80 0
v -96 -96 0
v -112 -96 0
v -112 -80 0
v -96 -80 0
v -112 -96 0
v -128 -96 0
v -128 -80 0
v -112 -80 0
v -128 -96 0
v -144 -96 0
v -144 -80 0
v -128 -80 0
v -144 -96 0
v -160 -96 0
v -160 -80 0
v -144 -80 0
v -160 -96 0
v -176 -96 0
v -176 -80 0
v -160 -80 0
v -176 -96 0
v -192 -96 0
v -192 -80 0
v -176 -80 0
v -192 -96 0
v -208 -96 0
v -208 -80 0
v -192 -80 0
v -208 -96 0
v -224 -96 0
v -224 -80 0
v -208 -80 0
v -224 -96 0
v -240 -96 0
v -240 -80 0
v -224 -80 0
v -240 -96 0
v -256 -96 0
v -256 -80 0
v -240 -80 0
v 0 -112 0
v -16 -112 0
v -16 -96 0
v 0 -96 0
v -16 -112 0
v -32 -112 0
v -32 -96 0
v -16 -96 0
v -32 -112 0
v -48 -112 0
v -48 -96 0
v -32 -96 0
v -48 -112 0
v -64 -112 0
v -64 -96 0
v -48 -96 0
v -64 -112 0
v -80 -112 0
v -80 -96 0
v -64 -96 0
v -80 -112 0
v -96 -112 0
v -96 -96 0
v -80 -96 0
v -96 -112 0
v -112 -112 0
v -112 -96 0
v -96 -96 0
v -112 -112 0
v -128 -112 0
v -128 -96 0
v -112 -96 0
v -128 -112 0
v -144 -112 0
v -144 -96 0
v -128 -96 0
v -144 -112 0
v -160 -112 0
v -160 -96 0
v -144 -96 0
v -160 -112 0
v -176 -112 0
v -176 -96 0
v -160 -96 0
v -176 -112 0
v -192 -112 0
v -192 -96 0
v -176 -96 0
v -192 -112 0
v -208 -112 0
v -208 -96 0
v -192 -96 0
v -208 -112 0
v -224 -112 0
v -224 -96 0
v -208 -96 0
v -224 -112 0
v -240 -112 0
v -240 -96 0
v -224 -96 0
v -240 -112 0
v -256 -112 0
v -256 -96 0
v -240 -96 0
v 0 -128 0
v -16 -128 0
v -16 -112 0
v 0 -112 0
v -16 -128 0
v -32 -128 0
v -32 -112 0
v -16 -112 0
v -32 -128 0
v -48 -128 0
v -48 -112 0
v -32 -112 0
v -48 -128 0
v -64 -128 0
v -64 -112 0
v -48 -112 0
v -64 -128 0
v -80 -128 0
v -80 -112 0
v -64 -112 0
v -80 -128 0
v -96 -128 0
v -96 -112 0
v -80 -112 0
v -96 -128 0
v -112 -128 0
v -112 -112 0
v -96 -112 0
v -112 -128 0
v -128 -128 0
v -128 -112 0
v -112 -112 0
v -128 -128 0
v -144 -128 0
v -144 -112 0
v -128 -112 0
v -144 -128 0
v -160 -128 0
v -160 -112 0
v -144 -112 0
v -160 -128 0
v -176 -128 0
v -176 -112 0
v -160 -112 0
v -176 -128 0
v -192 -128 0
v -192 -112 0
v -176 -112 0
v -192 -128 0
v -208 -128 0
v -208 -112 0
v -192 -112 0
v -208 -128 0
v -224 -128 0
v -224 -112 0
v -208 -112 0
v -224 -128 0
v -240 -128 0
v -240 -112 0
v -224 -112 0
v -240 -128 0
v -256 -128 0
v -256 -112 0
v -240 -112 0
v 0 -144 0
v -16 -144 0
v -16 -128 0
v 0 -128 0
v -16 -144 0
v -32 -144 0
v -32 -128 0
v -16 -128 0
v -32 -144 0
v -48 -144 0
v -48 -128 0
v -32 -128 0
v -48 -144 0
v -64 -144 0
v -64 -128 0
v -48 -128 0
v -64 -144 0
v -80 -144 0
v -80 -128 0
v -64 -128 0
v -80 -144 0
v -96 -144 0
v -96 -128 0
v -80 -128 0
v -96 -144 0
v -112 -144 0
v -112 -128 0
v -96 -128 0
v -112 -144 0
v -128 -144 0
v -128 -128 0
v -112 -128 0
v -128 -144 0
v -144 -144 0
v -144 -128 0
v -128 -128 0
v -144 -144 0
v -160 -144 0
v -160 -128 0
v -144 -128 0
v -160 -144 0
v -176 -144 0
v -176 -128 0
v -160 -128 0
v -176 -144 0
v -192 -144 0
v -192 -128 0
v -176 -128 0
v -192 -144 0
v -208 -144 0
v -208 -128 0
v -192 -128 0
v -208 -144 0
v -224 -144 0
v -224 -128 0
v -208 -128 0
v -224 -144 0
v -240 -144 0
v -240 -128 0
v -224 -128 0
v -240 -144 0
v -256 -144 0
v -256 -128 0
v -240 -128 0
v 0 -160 0
v -16 -160 0
v -16 -144 0
v 0 -144 0
v -16 -160 0
v -32 -160 0
v -32 -144 0
v -16 -144 0
v -32 -160 0
v -48 -160 0
v -48 -144 0
v -32 -144 0
v -48 -160 0
v -64 -160 0
v -64 -144 0
v -48 -144 0
v -64 -160 0
v -80 -160 0
v -80 -144 0
v -64 -144 0
v -80 -160 0
v -96 -160 0
v -96 -144 0
v -80 -144 0
v -96 -160 0
v -112 -160 0
v -112 -144 0
v -96 -144 0
v -112 -160 0
v -128 -160 0
v -128 -144 0
v -112 -144 0
v -128 -160 0
v -144 -160 0
v -144 -144 0
v -128 -144 0
v -144 -160 0
v -160 -160 0
v -160 -144 0
v -144 -144 0
v -160 -160 0
v -176 -160 0
v -176 -144 0
v -160 -144 0
v -176 -160 0
v -192 -160 0
v -192 -144 0
v -176 -144 0
v -192 -160 0
v -208 -160 0
v -208 -144 0
v -192 -144 0
v -208 -160 0
v -224 -160 0
v -224 -144 0
v -208 -144 0
v -224 -160 0
v -240 -160 0
v -240 -144 0
v -224 -144 0
v -240 -160 0
v -256 -160 0
v -256 -144 0
v -240 -144 0
v 0 -176 0
v -16 -176 0
v -16 -160 0
v 0 -160 0
v -16 -176 0
v -32 -176 0
v -32 -160 0
v -16 -160 0
v -32 -176 0
v -48 -176 0
v -48 -160 0
v -32 -160 0
v -48 -176 0
v -64 -176 0
v -64 -160 0
v -48 -160 0
v -64 -176 0
v -80 -176 0
v -80 -160 0
v -64 -160 0
v -80 -176 0
v -96 -176 0
v -96 -160 0
v -80 -160 0
v -96 -176 0
v -112 -176 0
v -112 -160 0
v -96 -160 0
v -112 -176 0
v -128 -176 0
v -128 -160 0
v -112 -160 0
v -128 -176 0
v -144 -176 0
v -144 -160 0
v -128 -160 0
v -144 -176 0
v -160 -176 0
v -160 -160 0
v -144 -160 0
v -160 -176 0
v -176 -176 0
v -176 -160 0
v -160 -160 0
v -176 -176 0
v -192 -176 0
v -192 -160 0
v -176 -160 0
v -192 -176 0
v -208 -176 0
v -208 -160 0
v -192 -160 0
v -208 -176 0
v -224 -176 0
v -224 -160 0
v -208 -160 0
v -224 -176 0
v -240 -176 0
v -240 -160 0
v -224 -160 0
v -240 -176 0
v -256 -176 0
v -256 -160 0
v -240 -160 0
v 0 -192 0
v -16 -192 0
v -16 -176 0
v 0 -176 0
v -16 -192 0
v -32 -192 0
v -32 -176 0
v -16 -176 0
v -32 -192 0
v -48 -192 0
v -48 -176 0
v -32 -176 0
v -48 -192 0
v -64 -192 0
v -64 -176 0
v -48 -176 0
v -64 -192 0
v -80 -192 0
v -80 -176 0
v -64 -176 0
v -80 -192 0
v -96 -192 0
v -96 -176 0
v -80 -176 0
v -96 -192 0
v -112 -192 0
v -112 -176 0
v -96 -176 0
v -112 -192 0
v -128 -192 0
v -128 -176 0
v -112 -176 0
v -128 -192 0
v -144 -192 0
v -144 -176 0
v -128 -176 0
v -144 -192 0
v -160 -192 0
v -160 -176 0
v -144 -176 0
v -160 -192 0
v -176 -192 0
v -176 -176 0
v -160 -176 0
v -176 -192 0
v -192 -192 0
v -192 -176 0
v -176 -176 0
v -192 -192 0
v -208 -192 0
v -208 -176 0
v -192 -176 0
v -208 -192 0
v -224 -192 0
v -224 -176 0
v -208 -176 0
v -224 -192 0
v -240 -192 0
v -240 -176 0
v -224 -176 0
v -240 -192 0
v -256 -192 0
v -256 -176 0
v -240 -176 0
v 0 -208 0
v -16 -208 0
v -16 -192 0
v 0 -192 0
v -16 -208 0
v -32 -208 0
v -32 -192 0
v -16 -192 0
v -32 -208 0
v -48 -208 0
v -48 -192 0
v -32 -192 0
v -48 -208 0
v -64 -208 0
v -64 -192 0
v -48 -192 0
v -64 -208 0
v -80 -208 0
v -80 -192 0
v -64 -192 0
v -80 -208 0
v -96 -208 0
v -96 -192 0
v -80 -192 0
v -96 -208 0
v -112 -208 0
v -112 -192 0
v -96 -192 0
v -112 -208 0
v -128 -208 0
v -128 -192 0
v -112 -192 0
v -128 -208 0
v -144 -208 0
v -144 -192 0
v -128 -192 0
v -144 -208 0
v -160 -208 0
v -160 -192 0
v -144 -192 0
v -160 -208 0
v -176 -208 0
v -176 -192 0
v -160 -192 0
v -176 -208 0
v -192 -208 0
v -192 -192 0
v -176 -192 0
v -192 -208 0
v -208 -208 0
v -208 -192 0
v -192 -192 0
v -208 -208 0
v -224 -208 0
v -224 -192 0
v -208 -192 0
v -224 -208 0
v -240 -208 0
v -240 -192 0
v -224 -192 0
v -240 -208 0
v -256 -208 0
v -256 -192 0
v -240 -192 0
v 0 -224 0
v -16 -224 0
v -16 -208 0
v 0 -208 0
v -16 -224 0
v -32 -224 0
v -32 -208 0
v -16 -208 0
v -32 -224 0
v -48 -224 0
v -48 -208 0
v -32 -208 0
v -48 -224 0
v -64 -224 0
v -64 -208 0
v -48 -208 0
v -64 -224 0
v -80 -224 0
v -80 -208 0
v -64 -208 0
v -80 -224 0
v -96 -224 0
v -96 -208 0
v -80 -208 0
v -96 -224 0
v -112 -224 0
v -112 -208 0
v -96 -208 0
v -112 -224 0
v -128 -224 0
v -128 -208 0
v -112 -208 0
v -128 -224 0
v -144 -224 0
v -144 -208 0
v -128 -208 0
v -144 -224 0
v -160 -224 0
v -160 -208 0
v -144 -208 0
v -160 -224 0
v -176 -224 0
v -176 -208 0
v -160 -208 0
v -176 -224 0
v -192 -224 0
v -192 -208 0
v -176 -208 0
v -192 -224 0
v -208 -224 0
v -208 -208 0
v -192 -208 0
v -208 -224 0
v -224 -224 0
v -224 -208 0
v -208 -208 0
v -224 -224 0
v -240 -224 0
v -240 -208 0
v -224 -208 0
v -240 -224 0
v -256 -224 0
v -256 -208 0
v -240 -208 0
v 0 -240 0
v -16 -240 0
v -16 -224 0
v 0 -224 0
v -16 -240 0
v -32 -240 0
v -32 -224 0
v -16 -224 0
v -32 -240 0
v -48 -240 0
v -48 -224 0
v -32 -224 0
v -48 -240 0
v -64 -240 0
v -64 -224 0
v -48 -224 0
v -64 -240 0
v -80 -240 0
v -80 -224 0
v -64 -224 0
v -80 -240 0
v -96 -240 0
v -96 -224 0
v -80 -224 0
v -96 -240 0
v -112 -240 0
v -112 -224 0
v -96 -224 0
v -112 -240 0
v -128 -240 0
v -128 -224 0
v -112 -224 0
v -128 -240 0
v -144 -240 0
v -144 -224 0
v -128 -224 0
v -144 -240 0
v -160 -240 0
v -160 -224 0
v -144 -224 0
v -160 -240 0
v -176 -240 0
v -176 -224 0
v -160 -224 0
v -176 -240 0
v -192 -240 0
v -192 -224 0
v -176 -224 0
v -192 -240 0
v -208 -240 0
v -208 -224 0
v -192 -224 0
v -208 -240 0
v -224 -240 0
v -224 -224 0
v -208 -224 0
v -224 -240 0
v -240 -240 0
v -240 -224 0
v -224 -224 0
v -240 -240 0
v -256 -240 0
v -256 -224 0
v -240 -224 0
v 0 -256 0
v -16 -256 0
v -16 -240 0
v 0 -240 0
v -16 -256 0
v -32 -256 0
v -32 -240 0
v -16 -240 0
v -32 -256 0
v -48 -256 0
v -48 -240 0
v -32 -240 0
v -48 -256 0
v -64 -256 0
v -64 -240 0
v -48 -240 0
v -64 -256 0
v -80 -256 0
v -80 -240 0
v -64 -240 0
v -80 -256 0
v -96 -256 0
v -96 -240 0
v -80 -240 0
v -96 -256 0
v -112 -256 0
v -112 -240 0
v -96 -240 0
v -112 -256 0
v -128 -256 0
v -128 -240 0
v -112 -240 0
v -128 -256 0
v -144 -256 0
v -144 -240 0
v -128 -240 0
v -144 -256 0
v -160 -256 0
v -160 -240 0
v -144 -240 0
v -160 -256 0
v -176 -256 0
v -176 -240 0
v -160 -240 0
v -176 -256 0
v -192 -256 0
v -192 -240 0
v -176 -240 0
v -192 -256 0
v -208 -256 0
v -208 -240 0
v -192 -240 0
v -208 -256 0
v -224 -256 0
v -224 -240 0
v -208 -240 0
v -224 -256 0
v -240 -256 0
v -240 -240 0
v -224 -240 0
v -240 -256 0
v -256 -256 0
v -256 -240 0
v -240 -240 0

# Texture cooridinates (Count = 42)
vt 0.06382979 0.9375
vt 0.05319149 0.9375
vt 0.05319149 0.875
vt 0.06382979 0.875
vt 0.04255319 0.9375
vt 0.04255319 0.875
vt 0.1489362 0.9375
vt 0.1382979 0.9375
vt 0.1382979 0.875
vt 0.1489362 0.875
vt 0.1276596 0.9375
vt 0.1276596 0.875
vt 0.1170213 0.9375
vt 0.1170213 0.875
vt 0.106383 0.9375
vt 0.106383 0.875
vt 0.09574468 0.9375
vt 0.09574468 0.875
vt 0.08510638 0.9375
vt 0.08510638 0.875
vt 0.07446808 0.9375
vt 0.07446808 0.875
vt 0.1489362 0.375
vt 0.1595745 0.375
vt 0.1595745 0.4375
vt 0.1489362 0.4375
vt 0.1702128 0.375
vt 0.1702128 0.4375
vt 0.09574468 1
vt 0.08510638 1
vt 0.07446808 1
vt 0.06382979 1
vt 0.05319149 1
vt 0.04255319 1
vt 0.1489362 1
vt 0.1382979 1
vt 0.1276596 1
vt 0.1170213 1
vt 0.106383 1
vt 0.1489362 0.3125
vt 0.1595745 0.3125
vt 0.1702128 0.3125

# Normal
vn 0 0 -1

# Mesh description
g 2ScenarioPlataforma_mesh_0333

# Faces
f 1/1/1 2/2/1 3/3/1 4/4/1
f 5/2/1 6/5/1 7/6/1 8/3/1
f 9/7/1 10/8/1 11/9/1 12/10/1
f 13/8/1 14/11/1 15/12/1 16/9/1
f 17/11/1 18/13/1 19/14/1 20/12/1
f 21/13/1 22/15/1 23/16/1 24/14/1
f 25/15/1 26/17/1 27/18/1 28/16/1
f 29/17/1 30/19/1 31/20/1 32/18/1
f 33/19/1 34/21/1 35/22/1 36/20/1
f 37/21/1 38/1/1 39/4/1 40/22/1
f 41/1/1 42/2/1 43/3/1 44/4/1
f 45/2/1 46/5/1 47/6/1 48/3/1
f 49/7/1 50/8/1 51/9/1 52/10/1
f 53/8/1 54/11/1 55/12/1 56/9/1
f 57/11/1 58/13/1 59/14/1 60/12/1
f 61/13/1 62/15/1 63/16/1 64/14/1
f 65/23/1 66/24/1 67/25/1 68/26/1
f 69/23/1 70/24/1 71/25/1 72/26/1
f 73/23/1 74/24/1 75/25/1 76/26/1
f 77/23/1 78/24/1 79/25/1 80/26/1
f 81/23/1 82/24/1 83/25/1 84/26/1
f 85/23/1 86/24/1 87/25/1 88/26/1
f 89/24/1 90/27/1 91/28/1 92/25/1
f 93/29/1 94/30/1 95/19/1 96/17/1
f 97/30/1 98/31/1 99/21/1 100/19/1
f 101/31/1 102/32/1 103/1/1 104/21/1
f 105/32/1 106/33/1 107/2/1 108/1/1
f 109/33/1 110/34/1 111/5/1 112/2/1
f 113/35/1 114/36/1 115/8/1 116/7/1
f 117/36/1 118/37/1 119/11/1 120/8/1
f 121/37/1 122/38/1 123/13/1 124/11/1
f 125/38/1 126/39/1 127/15/1 128/13/1
f 129/40/1 130/41/1 131/24/1 132/23/1
f 133/40/1 134/41/1 135/24/1 136/23/1
f 137/40/1 138/41/1 139/24/1 140/23/1
f 141/40/1 142/41/1 143/24/1 144/23/1
f 145/40/1 146/41/1 147/24/1 148/23/1
f 149/40/1 150/41/1 151/24/1 152/23/1
f 153/41/1 154/42/1 155/27/1 156/24/1
f 157/17/1 158/19/1 159/20/1 160/18/1
f 161/19/1 162/21/1 163/22/1 164/20/1
f 165/21/1 166/1/1 167/4/1 168/22/1
f 169/1/1 170/2/1 171/3/1 172/4/1
f 173/2/1 174/5/1 175/6/1 176/3/1
f 177/7/1 178/8/1 179/9/1 180/10/1
f 181/8/1 182/11/1 183/12/1 184/9/1
f 185/23/1 186/24/1 187/25/1 188/26/1
f 189/24/1 190/27/1 191/28/1 192/25/1
f 193/24/1 194/27/1 195/28/1 196/25/1
f 197/33/1 198/34/1 199/5/1 200/2/1
f 201/35/1 202/36/1 203/8/1 204/7/1
f 205/36/1 206/37/1 207/11/1 208/8/1
f 209/37/1 210/38/1 211/13/1 212/11/1
f 213/38/1 214/39/1 215/15/1 216/13/1
f 217/39/1 218/29/1 219/17/1 220/15/1
f 221/29/1 222/30/1 223/19/1 224/17/1
f 225/30/1 226/31/1 227/21/1 228/19/1
f 229/31/1 230/32/1 231/1/1 232/21/1
f 233/32/1 234/33/1 235/2/1 236/1/1
f 237/23/1 238/24/1 239/25/1 240/26/1
f 241/24/1 242/27/1 243/28/1 244/25/1
f 245/24/1 246/27/1 247/28/1 248/25/1
f 249/24/1 250/27/1 251/28/1 252/25/1
f 253/24/1 254/27/1 255/28/1 256/25/1
f 257/41/1 258/42/1 259/27/1 260/24/1
f 261/2/1 262/5/1 263/6/1 264/3/1
f 265/7/1 266/8/1 267/9/1 268/10/1
f 269/8/1 270/11/1 271/12/1 272/9/1
f 273/11/1 274/13/1 275/14/1 276/12/1
f 277/13/1 278/15/1 279/16/1 280/14/1
f 281/15/1 282/17/1 283/18/1 284/16/1
f 285/17/1 286/19/1 287/20/1 288/18/1
f 289/19/1 290/21/1 291/22/1 292/20/1
f 293/21/1 294/1/1 295/4/1 296/22/1
f 297/1/1 298/2/1 299/3/1 300/4/1
f 301/40/1 302/41/1 303/24/1 304/23/1
f 305/41/1 306/42/1 307/27/1 308/24/1
f 309/41/1 310/42/1 311/27/1 312/24/1
f 313/41/1 314/42/1 315/27/1 316/24/1
f 317/41/1 318/42/1 319/27/1 320/24/1
f 321/41/1 322/42/1 323/27/1 324/24/1
f 325/24/1 326/27/1 327/28/1 328/25/1
f 329/35/1 330/36/1 331/8/1 332/7/1
f 333/36/1 334/37/1 335/11/1 336/8/1
f 337/37/1 338/38/1 339/13/1 340/11/1
f 341/38/1 342/39/1 343/15/1 344/13/1
f 345/39/1 346/29/1 347/17/1 348/15/1
f 349/29/1 350/30/1 351/19/1 352/17/1
f 353/30/1 354/31/1 355/21/1 356/19/1
f 357/31/1 358/32/1 359/1/1 360/21/1
f 361/32/1 362/33/1 363/2/1 364/1/1
f 365/33/1 366/34/1 367/5/1 368/2/1
f 369/35/1 370/36/1 371/8/1 372/7/1
f 373/36/1 374/37/1 375/11/1 376/8/1
f 377/37/1 378/38/1 379/13/1 380/11/1
f 381/38/1 382/39/1 383/15/1 384/13/1
f 385/41/1 386/42/1 387/27/1 388/24/1
f 389/41/1 390/42/1 391/27/1 392/24/1
f 393/7/1 394/8/1 395/9/1 396/10/1
f 397/8/1 398/11/1 399/12/1 400/9/1
f 401/11/1 402/13/1 403/14/1 404/12/1
f 405/13/1 406/15/1 407/16/1 408/14/1
f 409/15/1 410/17/1 411/18/1 412/16/1
f 413/17/1 414/19/1 415/20/1 416/18/1
f 417/19/1 418/21/1 419/22/1 420/20/1
f 421/21/1 422/1/1 423/4/1 424/22/1
f 425/1/1 426/2/1 427/3/1 428/4/1
f 429/2/1 430/5/1 431/6/1 432/3/1
f 433/7/1 434/8/1 435/9/1 436/10/1
f 437/8/1 438/11/1 439/12/1 440/9/1
f 441/11/1 442/13/1 443/14/1 444/12/1
f 445/13/1 446/15/1 447/16/1 448/14/1
f 449/40/1 450/41/1 451/24/1 452/23/1
f 453/41/1 454/42/1 455/27/1 456/24/1
f 457/35/1 458/36/1 459/8/1 460/7/1
f 461/36/1 462/37/1 463/11/1 464/8/1
f 465/37/1 466/38/1 467/13/1 468/11/1
f 469/38/1 470/39/1 471/15/1 472/13/1
f 473/39/1 474/29/1 475/17/1 476/15/1
f 477/29/1 478/30/1 479/19/1 480/17/1
f 481/30/1 482/31/1 483/21/1 484/19/1
f 485/31/1 486/32/1 487/1/1 488/21/1
f 489/32/1 490/33/1 491/2/1 492/1/1
f 493/33/1 494/34/1 495/5/1 496/2/1
f 497/35/1 498/36/1 499/8/1 500/7/1
f 501/36/1 502/37/1 503/11/1 504/8/1
f 505/37/1 506/38/1 507/13/1 508/11/1
f 509/38/1 510/39/1 511/15/1 512/13/1
f 513/40/1 514/41/1 515/24/1 516/23/1
f 517/41/1 518/42/1 519/27/1 520/24/1
f 521/7/1 522/8/1 523/9/1 524/10/1
f 525/8/1 526/11/1 527/12/1 528/9/1
f 529/11/1 530/13/1 531/14/1 532/12/1
f 533/13/1 534/15/1 535/16/1 536/14/1
f 537/15/1 538/17/1 539/18/1 540/16/1
f 541/17/1 542/19/1 543/20/1 544/18/1
f 545/19/1 546/21/1 547/22/1 548/20/1
f 549/21/1 550/1/1 551/4/1 552/22/1
f 553/1/1 554/2/1 555/3/1 556/4/1
f 557/2/1 558/5/1 559/6/1 560/3/1
f 561/7/1 562/8/1 563/9/1 564/10/1
f 565/8/1 566/11/1 567/12/1 568/9/1
f 569/11/1 570/13/1 571/14/1 572/12/1
f 573/13/1 574/15/1 575/16/1 576/14/1
f 577/40/1 578/41/1 579/24/1 580/23/1
f 581/41/1 582/42/1 583/27/1 584/24/1
f 585/35/1 586/36/1 587/8/1 588/7/1
f 589/36/1 590/37/1 591/11/1 592/8/1
f 593/37/1 594/38/1 595/13/1 596/11/1
f 597/38/1 598/39/1 599/15/1 600/13/1
f 601/39/1 602/29/1 603/17/1 604/15/1
f 605/29/1 606/30/1 607/19/1 608/17/1
f 609/30/1 610/31/1 611/21/1 612/19/1
f 613/31/1 614/32/1 615/1/1 616/21/1
f 617/32/1 618/33/1 619/2/1 620/1/1
f 621/33/1 622/34/1 623/5/1 624/2/1
f 625/35/1 626/36/1 627/8/1 628/7/1
f 629/36/1 630/37/1 631/11/1 632/8/1
f 633/37/1 634/38/1 635/13/1 636/11/1
f 637/38/1 638/39/1 639/15/1 640/13/1
f 641/1/1 642/2/1 643/3/1 644/4/1
f 645/2/1 646/5/1 647/6/1 648/3/1
f 649/7/1 650/8/1 651/9/1 652/10/1
f 653/8/1 654/11/1 655/12/1 656/9/1
f 657/11/1 658/13/1 659/14/1 660/12/1
f 661/13/1 662/15/1 663/16/1 664/14/1
f 665/15/1 666/17/1 667/18/1 668/16/1
f 669/17/1 670/19/1 671/20/1 672/18/1
f 673/19/1 674/21/1 675/22/1 676/20/1
f 677/21/1 678/1/1 679/4/1 680/22/1
f 681/1/1 682/2/1 683/3/1 684/4/1
f 685/2/1 686/5/1 687/6/1 688/3/1
f 689/7/1 690/8/1 691/9/1 692/10/1
f 693/8/1 694/11/1 695/12/1 696/9/1
f 697/11/1 698/13/1 699/14/1 700/12/1
f 701/13/1 702/15/1 703/16/1 704/14/1
f 705/32/1 706/33/1 707/2/1 708/1/1
f 709/33/1 710/34/1 711/5/1 712/2/1
f 713/35/1 714/36/1 715/8/1 716/7/1
f 717/36/1 718/37/1 719/11/1 720/8/1
f 721/37/1 722/38/1 723/13/1 724/11/1
f 725/38/1 726/39/1 727/15/1 728/13/1
f 729/39/1 730/29/1 731/17/1 732/15/1
f 733/29/1 734/30/1 735/19/1 736/17/1
f 737/30/1 738/31/1 739/21/1 740/19/1
f 741/31/1 742/32/1 743/1/1 744/21/1
f 745/32/1 746/33/1 747/2/1 748/1/1
f 749/33/1 750/34/1 751/5/1 752/2/1
f 753/35/1 754/36/1 755/8/1 756/7/1
f 757/36/1 758/37/1 759/11/1 760/8/1
f 761/37/1 762/38/1 763/13/1 764/11/1
f 765/38/1 766/39/1 767/15/1 768/13/1
f 769/1/1 770/2/1 771/3/1 772/4/1
f 773/2/1 774/5/1 775/6/1 776/3/1
f 777/7/1 778/8/1 779/9/1 780/10/1
f 781/8/1 782/11/1 783/12/1 784/9/1
f 785/11/1 786/13/1 787/14/1 788/12/1
f 789/13/1 790/15/1 791/16/1 792/14/1
f 793/15/1 794/17/1 795/18/1 796/16/1
f 797/17/1 798/19/1 799/20/1 800/18/1
f 801/19/1 802/21/1 803/22/1 804/20/1
f 805/21/1 806/1/1 807/4/1 808/22/1
f 809/1/1 810/2/1 811/3/1 812/4/1
f 813/2/1 814/5/1 815/6/1 816/3/1
f 817/7/1 818/8/1 819/9/1 820/10/1
f 821/8/1 822/11/1 823/12/1 824/9/1
f 825/11/1 826/13/1 827/14/1 828/12/1
f 829/13/1 830/15/1 831/16/1 832/14/1
f 833/32/1 834/33/1 835/2/1 836/1/1
f 837/33/1 838/34/1 839/5/1 840/2/1
f 841/35/1 842/36/1 843/8/1 844/7/1
f 845/36/1 846/37/1 847/11/1 848/8/1
f 849/37/1 850/38/1 851/13/1 852/11/1
f 853/38/1 854/39/1 855/15/1 856/13/1
f 857/39/1 858/29/1 859/17/1 860/15/1
f 861/29/1 862/30/1 863/19/1 864/17/1
f 865/30/1 866/31/1 867/21/1 868/19/1
f 869/31/1 870/32/1 871/1/1 872/21/1
f 873/32/1 874/33/1 875/2/1 876/1/1
f 877/33/1 878/34/1 879/5/1 880/2/1
f 881/35/1 882/36/1 883/8/1 884/7/1
f 885/36/1 886/37/1 887/11/1 888/8/1
f 889/37/1 890/38/1 891/13/1 892/11/1
f 893/38/1 894/39/1 895/15/1 896/13/1
f 897/1/1 898/2/1 899/3/1 900/4/1
f 901/2/1 902/5/1 903/6/1 904/3/1
f 905/7/1 906/8/1 907/9/1 908/10/1
f 909/8/1 910/11/1 911/12/1 912/9/1
f 913/11/1 914/13/1 915/14/1 916/12/1
f 917/13/1 918/15/1 919/16/1 920/14/1
f 921/15/1 922/17/1 923/18/1 924/16/1
f 925/17/1 926/19/1 927/20/1 928/18/1
f 929/19/1 930/21/1 931/22/1 932/20/1
f 933/21/1 934/1/1 935/4/1 936/22/1
f 937/1/1 938/2/1 939/3/1 940/4/1
f 941/2/1 942/5/1 943/6/1 944/3/1
f 945/7/1 946/8/1 947/9/1 948/10/1
f 949/8/1 950/11/1 951/12/1 952/9/1
f 953/11/1 954/13/1 955/14/1 956/12/1
f 957/13/1 958/15/1 959/16/1 960/14/1
f 961/32/1 962/33/1 963/2/1 964/1/1
f 965/33/1 966/34/1 967/5/1 968/2/1
f 969/35/1 970/36/1 971/8/1 972/7/1
f 973/36/1 974/37/1 975/11/1 976/8/1
f 977/37/1 978/38/1 979/13/1 980/11/1
f 981/38/1 982/39/1 983/15/1 984/13/1
f 985/39/1 986/29/1 987/17/1 988/15/1
f 989/29/1 990/30/1 991/19/1 992/17/1
f 993/30/1 994/31/1 995/21/1 996/19/1
f 997/31/1 998/32/1 999/1/1 1000/21/1
f 1001/32/1 1002/33/1 1003/2/1 1004/1/1
f 1005/33/1 1006/34/1 1007/5/1 1008/2/1
f 1009/35/1 1010/36/1 1011/8/1 1012/7/1
f 1013/36/1 1014/37/1 1015/11/1 1016/8/1
f 1017/37/1 1018/38/1 1019/13/1 1020/11/1
f 1021/38/1 1022/39/1 1023/15/1 1024/13/1

