# Tiled2Unity generated file. Do not modify by hand.
# Wavefront file for '2ScenarioPlataforma_mesh_0882.obj'

# Vertices (Count = 1024)
v 0 -16 0
v -16 -16 0
v -16 0 0
v 0 0 0
v -16 -16 0
v -32 -16 0
v -32 0 0
v -16 0 0
v -32 -16 0
v -48 -16 0
v -48 0 0
v -32 0 0
v -48 -16 0
v -64 -16 0
v -64 0 0
v -48 0 0
v -64 -16 0
v -80 -16 0
v -80 0 0
v -64 0 0
v -80 -16 0
v -96 -16 0
v -96 0 0
v -80 0 0
v -96 -16 0
v -112 -16 0
v -112 0 0
v -96 0 0
v -112 -16 0
v -128 -16 0
v -128 0 0
v -112 0 0
v -128 -16 0
v -144 -16 0
v -144 0 0
v -128 0 0
v -144 -16 0
v -160 -16 0
v -160 0 0
v -144 0 0
v -160 -16 0
v -176 -16 0
v -176 0 0
v -160 0 0
v -176 -16 0
v -192 -16 0
v -192 0 0
v -176 0 0
v -192 -16 0
v -208 -16 0
v -208 0 0
v -192 0 0
v -208 -16 0
v -224 -16 0
v -224 0 0
v -208 0 0
v -224 -16 0
v -240 -16 0
v -240 0 0
v -224 0 0
v -240 -16 0
v -256 -16 0
v -256 0 0
v -240 0 0
v 0 -32 0
v -16 -32 0
v -16 -16 0
v 0 -16 0
v -16 -32 0
v -32 -32 0
v -32 -16 0
v -16 -16 0
v -32 -32 0
v -48 -32 0
v -48 -16 0
v -32 -16 0
v -48 -32 0
v -64 -32 0
v -64 -16 0
v -48 -16 0
v -64 -32 0
v -80 -32 0
v -80 -16 0
v -64 -16 0
v -80 -32 0
v -96 -32 0
v -96 -16 0
v -80 -16 0
v -96 -32 0
v -112 -32 0
v -112 -16 0
v -96 -16 0
v -112 -32 0
v -128 -32 0
v -128 -16 0
v -112 -16 0
v -128 -32 0
v -144 -32 0
v -144 -16 0
v -128 -16 0
v -144 -32 0
v -160 -32 0
v -160 -16 0
v -144 -16 0
v -160 -32 0
v -176 -32 0
v -176 -16 0
v -160 -16 0
v -176 -32 0
v -192 -32 0
v -192 -16 0
v -176 -16 0
v -192 -32 0
v -208 -32 0
v -208 -16 0
v -192 -16 0
v -208 -32 0
v -224 -32 0
v -224 -16 0
v -208 -16 0
v -224 -32 0
v -240 -32 0
v -240 -16 0
v -224 -16 0
v -240 -32 0
v -256 -32 0
v -256 -16 0
v -240 -16 0
v 0 -48 0
v -16 -48 0
v -16 -32 0
v 0 -32 0
v -16 -48 0
v -32 -48 0
v -32 -32 0
v -16 -32 0
v -32 -48 0
v -48 -48 0
v -48 -32 0
v -32 -32 0
v -48 -48 0
v -64 -48 0
v -64 -32 0
v -48 -32 0
v -64 -48 0
v -80 -48 0
v -80 -32 0
v -64 -32 0
v -80 -48 0
v -96 -48 0
v -96 -32 0
v -80 -32 0
v -96 -48 0
v -112 -48 0
v -112 -32 0
v -96 -32 0
v -112 -48 0
v -128 -48 0
v -128 -32 0
v -112 -32 0
v -128 -48 0
v -144 -48 0
v -144 -32 0
v -128 -32 0
v -144 -48 0
v -160 -48 0
v -160 -32 0
v -144 -32 0
v -160 -48 0
v -176 -48 0
v -176 -32 0
v -160 -32 0
v -176 -48 0
v -192 -48 0
v -192 -32 0
v -176 -32 0
v -192 -48 0
v -208 -48 0
v -208 -32 0
v -192 -32 0
v -208 -48 0
v -224 -48 0
v -224 -32 0
v -208 -32 0
v -224 -48 0
v -240 -48 0
v -240 -32 0
v -224 -32 0
v -240 -48 0
v -256 -48 0
v -256 -32 0
v -240 -32 0
v 0 -64 0
v -16 -64 0
v -16 -48 0
v 0 -48 0
v -16 -64 0
v -32 -64 0
v -32 -48 0
v -16 -48 0
v -32 -64 0
v -48 -64 0
v -48 -48 0
v -32 -48 0
v -48 -64 0
v -64 -64 0
v -64 -48 0
v -48 -48 0
v -64 -64 0
v -80 -64 0
v -80 -48 0
v -64 -48 0
v -80 -64 0
v -96 -64 0
v -96 -48 0
v -80 -48 0
v -96 -64 0
v -112 -64 0
v -112 -48 0
v -96 -48 0
v -112 -64 0
v -128 -64 0
v -128 -48 0
v -112 -48 0
v -128 -64 0
v -144 -64 0
v -144 -48 0
v -128 -48 0
v -144 -64 0
v -160 -64 0
v -160 -48 0
v -144 -48 0
v -160 -64 0
v -176 -64 0
v -176 -48 0
v -160 -48 0
v -176 -64 0
v -192 -64 0
v -192 -48 0
v -176 -48 0
v -192 -64 0
v -208 -64 0
v -208 -48 0
v -192 -48 0
v -208 -64 0
v -224 -64 0
v -224 -48 0
v -208 -48 0
v -224 -64 0
v -240 -64 0
v -240 -48 0
v -224 -48 0
v -240 -64 0
v -256 -64 0
v -256 -48 0
v -240 -48 0
v 0 -80 0
v -16 -80 0
v -16 -64 0
v 0 -64 0
v -16 -80 0
v -32 -80 0
v -32 -64 0
v -16 -64 0
v -32 -80 0
v -48 -80 0
v -48 -64 0
v -32 -64 0
v -48 -80 0
v -64 -80 0
v -64 -64 0
v -48 -64 0
v -64 -80 0
v -80 -80 0
v -80 -64 0
v -64 -64 0
v -80 -80 0
v -96 -80 0
v -96 -64 0
v -80 -64 0
v -96 -80 0
v -112 -80 0
v -112 -64 0
v -96 -64 0
v -112 -80 0
v -128 -80 0
v -128 -64 0
v -112 -64 0
v -128 -80 0
v -144 -80 0
v -144 -64 0
v -128 -64 0
v -144 -80 0
v -160 -80 0
v -160 -64 0
v -144 -64 0
v -160 -80 0
v -176 -80 0
v -176 -64 0
v -160 -64 0
v -176 -80 0
v -192 -80 0
v -192 -64 0
v -176 -64 0
v -192 -80 0
v -208 -80 0
v -208 -64 0
v -192 -64 0
v -208 -80 0
v -224 -80 0
v -224 -64 0
v -208 -64 0
v -224 -80 0
v -240 -80 0
v -240 -64 0
v -224 -64 0
v -240 -80 0
v -256 -80 0
v -256 -64 0
v -240 -64 0
v 0 -96 0
v -16 -96 0
v -16 -80 0
v 0 -80 0
v -16 -96 0
v -32 -96 0
v -32 -80 0
v -16 -80 0
v -32 -96 0
v -48 -96 0
v -48 -80 0
v -32 -80 0
v -48 -96 0
v -64 -96 0
v -64 -80 0
v -48 -80 0
v -64 -96 0
v -80 -96 0
v -80 -80 0
v -64 -80 0
v -80 -96 0
v -96 -96 0
v -96 -80 0
v -80 -80 0
v -96 -96 0
v -112 -96 0
v -112 -80 0
v -96 -80 0
v -112 -96 0
v -128 -96 0
v -128 -80 0
v -112 -80 0
v -128 -96 0
v -144 -96 0
v -144 -80 0
v -128 -80 0
v -144 -96 0
v -160 -96 0
v -160 -80 0
v -144 -80 0
v -160 -96 0
v -176 -96 0
v -176 -80 0
v -160 -80 0
v -176 -96 0
v -192 -96 0
v -192 -80 0
v -176 -80 0
v -192 -96 0
v -208 -96 0
v -208 -80 0
v -192 -80 0
v -208 -96 0
v -224 -96 0
v -224 -80 0
v -208 -80 0
v -224 -96 0
v -240 -96 0
v -240 -80 0
v -224 -80 0
v -240 -96 0
v -256 -96 0
v -256 -80 0
v -240 -80 0
v 0 -112 0
v -16 -112 0
v -16 -96 0
v 0 -96 0
v -16 -112 0
v -32 -112 0
v -32 -96 0
v -16 -96 0
v -32 -112 0
v -48 -112 0
v -48 -96 0
v -32 -96 0
v -48 -112 0
v -64 -112 0
v -64 -96 0
v -48 -96 0
v -64 -112 0
v -80 -112 0
v -80 -96 0
v -64 -96 0
v -80 -112 0
v -96 -112 0
v -96 -96 0
v -80 -96 0
v -96 -112 0
v -112 -112 0
v -112 -96 0
v -96 -96 0
v -112 -112 0
v -128 -112 0
v -128 -96 0
v -112 -96 0
v -128 -112 0
v -144 -112 0
v -144 -96 0
v -128 -96 0
v -144 -112 0
v -160 -112 0
v -160 -96 0
v -144 -96 0
v -160 -112 0
v -176 -112 0
v -176 -96 0
v -160 -96 0
v -176 -112 0
v -192 -112 0
v -192 -96 0
v -176 -96 0
v -192 -112 0
v -208 -112 0
v -208 -96 0
v -192 -96 0
v -208 -112 0
v -224 -112 0
v -224 -96 0
v -208 -96 0
v -224 -112 0
v -240 -112 0
v -240 -96 0
v -224 -96 0
v -240 -112 0
v -256 -112 0
v -256 -96 0
v -240 -96 0
v 0 -128 0
v -16 -128 0
v -16 -112 0
v 0 -112 0
v -16 -128 0
v -32 -128 0
v -32 -112 0
v -16 -112 0
v -32 -128 0
v -48 -128 0
v -48 -112 0
v -32 -112 0
v -48 -128 0
v -64 -128 0
v -64 -112 0
v -48 -112 0
v -64 -128 0
v -80 -128 0
v -80 -112 0
v -64 -112 0
v -80 -128 0
v -96 -128 0
v -96 -112 0
v -80 -112 0
v -96 -128 0
v -112 -128 0
v -112 -112 0
v -96 -112 0
v -112 -128 0
v -128 -128 0
v -128 -112 0
v -112 -112 0
v -128 -128 0
v -144 -128 0
v -144 -112 0
v -128 -112 0
v -144 -128 0
v -160 -128 0
v -160 -112 0
v -144 -112 0
v -160 -128 0
v -176 -128 0
v -176 -112 0
v -160 -112 0
v -176 -128 0
v -192 -128 0
v -192 -112 0
v -176 -112 0
v -192 -128 0
v -208 -128 0
v -208 -112 0
v -192 -112 0
v -208 -128 0
v -224 -128 0
v -224 -112 0
v -208 -112 0
v -224 -128 0
v -240 -128 0
v -240 -112 0
v -224 -112 0
v -240 -128 0
v -256 -128 0
v -256 -112 0
v -240 -112 0
v 0 -144 0
v -16 -144 0
v -16 -128 0
v 0 -128 0
v -16 -144 0
v -32 -144 0
v -32 -128 0
v -16 -128 0
v -32 -144 0
v -48 -144 0
v -48 -128 0
v -32 -128 0
v -48 -144 0
v -64 -144 0
v -64 -128 0
v -48 -128 0
v -64 -144 0
v -80 -144 0
v -80 -128 0
v -64 -128 0
v -80 -144 0
v -96 -144 0
v -96 -128 0
v -80 -128 0
v -96 -144 0
v -112 -144 0
v -112 -128 0
v -96 -128 0
v -112 -144 0
v -128 -144 0
v -128 -128 0
v -112 -128 0
v -128 -144 0
v -144 -144 0
v -144 -128 0
v -128 -128 0
v -144 -144 0
v -160 -144 0
v -160 -128 0
v -144 -128 0
v -160 -144 0
v -176 -144 0
v -176 -128 0
v -160 -128 0
v -176 -144 0
v -192 -144 0
v -192 -128 0
v -176 -128 0
v -192 -144 0
v -208 -144 0
v -208 -128 0
v -192 -128 0
v -208 -144 0
v -224 -144 0
v -224 -128 0
v -208 -128 0
v -224 -144 0
v -240 -144 0
v -240 -128 0
v -224 -128 0
v -240 -144 0
v -256 -144 0
v -256 -128 0
v -240 -128 0
v 0 -160 0
v -16 -160 0
v -16 -144 0
v 0 -144 0
v -16 -160 0
v -32 -160 0
v -32 -144 0
v -16 -144 0
v -32 -160 0
v -48 -160 0
v -48 -144 0
v -32 -144 0
v -48 -160 0
v -64 -160 0
v -64 -144 0
v -48 -144 0
v -64 -160 0
v -80 -160 0
v -80 -144 0
v -64 -144 0
v -80 -160 0
v -96 -160 0
v -96 -144 0
v -80 -144 0
v -96 -160 0
v -112 -160 0
v -112 -144 0
v -96 -144 0
v -112 -160 0
v -128 -160 0
v -128 -144 0
v -112 -144 0
v -128 -160 0
v -144 -160 0
v -144 -144 0
v -128 -144 0
v -144 -160 0
v -160 -160 0
v -160 -144 0
v -144 -144 0
v -160 -160 0
v -176 -160 0
v -176 -144 0
v -160 -144 0
v -176 -160 0
v -192 -160 0
v -192 -144 0
v -176 -144 0
v -192 -160 0
v -208 -160 0
v -208 -144 0
v -192 -144 0
v -208 -160 0
v -224 -160 0
v -224 -144 0
v -208 -144 0
v -224 -160 0
v -240 -160 0
v -240 -144 0
v -224 -144 0
v -240 -160 0
v -256 -160 0
v -256 -144 0
v -240 -144 0
v 0 -176 0
v -16 -176 0
v -16 -160 0
v 0 -160 0
v -16 -176 0
v -32 -176 0
v -32 -160 0
v -16 -160 0
v -32 -176 0
v -48 -176 0
v -48 -160 0
v -32 -160 0
v -48 -176 0
v -64 -176 0
v -64 -160 0
v -48 -160 0
v -64 -176 0
v -80 -176 0
v -80 -160 0
v -64 -160 0
v -80 -176 0
v -96 -176 0
v -96 -160 0
v -80 -160 0
v -96 -176 0
v -112 -176 0
v -112 -160 0
v -96 -160 0
v -112 -176 0
v -128 -176 0
v -128 -160 0
v -112 -160 0
v -128 -176 0
v -144 -176 0
v -144 -160 0
v -128 -160 0
v -144 -176 0
v -160 -176 0
v -160 -160 0
v -144 -160 0
v -160 -176 0
v -176 -176 0
v -176 -160 0
v -160 -160 0
v -176 -176 0
v -192 -176 0
v -192 -160 0
v -176 -160 0
v -192 -176 0
v -208 -176 0
v -208 -160 0
v -192 -160 0
v -208 -176 0
v -224 -176 0
v -224 -160 0
v -208 -160 0
v -224 -176 0
v -240 -176 0
v -240 -160 0
v -224 -160 0
v -240 -176 0
v -256 -176 0
v -256 -160 0
v -240 -160 0
v 0 -192 0
v -16 -192 0
v -16 -176 0
v 0 -176 0
v -16 -192 0
v -32 -192 0
v -32 -176 0
v -16 -176 0
v -32 -192 0
v -48 -192 0
v -48 -176 0
v -32 -176 0
v -48 -192 0
v -64 -192 0
v -64 -176 0
v -48 -176 0
v -64 -192 0
v -80 -192 0
v -80 -176 0
v -64 -176 0
v -80 -192 0
v -96 -192 0
v -96 -176 0
v -80 -176 0
v -96 -192 0
v -112 -192 0
v -112 -176 0
v -96 -176 0
v -112 -192 0
v -128 -192 0
v -128 -176 0
v -112 -176 0
v -128 -192 0
v -144 -192 0
v -144 -176 0
v -128 -176 0
v -144 -192 0
v -160 -192 0
v -160 -176 0
v -144 -176 0
v -160 -192 0
v -176 -192 0
v -176 -176 0
v -160 -176 0
v -176 -192 0
v -192 -192 0
v -192 -176 0
v -176 -176 0
v -192 -192 0
v -208 -192 0
v -208 -176 0
v -192 -176 0
v -208 -192 0
v -224 -192 0
v -224 -176 0
v -208 -176 0
v -224 -192 0
v -240 -192 0
v -240 -176 0
v -224 -176 0
v -240 -192 0
v -256 -192 0
v -256 -176 0
v -240 -176 0
v 0 -208 0
v -16 -208 0
v -16 -192 0
v 0 -192 0
v -16 -208 0
v -32 -208 0
v -32 -192 0
v -16 -192 0
v -32 -208 0
v -48 -208 0
v -48 -192 0
v -32 -192 0
v -48 -208 0
v -64 -208 0
v -64 -192 0
v -48 -192 0
v -64 -208 0
v -80 -208 0
v -80 -192 0
v -64 -192 0
v -80 -208 0
v -96 -208 0
v -96 -192 0
v -80 -192 0
v -96 -208 0
v -112 -208 0
v -112 -192 0
v -96 -192 0
v -112 -208 0
v -128 -208 0
v -128 -192 0
v -112 -192 0
v -128 -208 0
v -144 -208 0
v -144 -192 0
v -128 -192 0
v -144 -208 0
v -160 -208 0
v -160 -192 0
v -144 -192 0
v -160 -208 0
v -176 -208 0
v -176 -192 0
v -160 -192 0
v -176 -208 0
v -192 -208 0
v -192 -192 0
v -176 -192 0
v -192 -208 0
v -208 -208 0
v -208 -192 0
v -192 -192 0
v -208 -208 0
v -224 -208 0
v -224 -192 0
v -208 -192 0
v -224 -208 0
v -240 -208 0
v -240 -192 0
v -224 -192 0
v -240 -208 0
v -256 -208 0
v -256 -192 0
v -240 -192 0
v 0 -224 0
v -16 -224 0
v -16 -208 0
v 0 -208 0
v -16 -224 0
v -32 -224 0
v -32 -208 0
v -16 -208 0
v -32 -224 0
v -48 -224 0
v -48 -208 0
v -32 -208 0
v -48 -224 0
v -64 -224 0
v -64 -208 0
v -48 -208 0
v -64 -224 0
v -80 -224 0
v -80 -208 0
v -64 -208 0
v -80 -224 0
v -96 -224 0
v -96 -208 0
v -80 -208 0
v -96 -224 0
v -112 -224 0
v -112 -208 0
v -96 -208 0
v -112 -224 0
v -128 -224 0
v -128 -208 0
v -112 -208 0
v -128 -224 0
v -144 -224 0
v -144 -208 0
v -128 -208 0
v -144 -224 0
v -160 -224 0
v -160 -208 0
v -144 -208 0
v -160 -224 0
v -176 -224 0
v -176 -208 0
v -160 -208 0
v -176 -224 0
v -192 -224 0
v -192 -208 0
v -176 -208 0
v -192 -224 0
v -208 -224 0
v -208 -208 0
v -192 -208 0
v -208 -224 0
v -224 -224 0
v -224 -208 0
v -208 -208 0
v -224 -224 0
v -240 -224 0
v -240 -208 0
v -224 -208 0
v -240 -224 0
v -256 -224 0
v -256 -208 0
v -240 -208 0
v 0 -240 0
v -16 -240 0
v -16 -224 0
v 0 -224 0
v -16 -240 0
v -32 -240 0
v -32 -224 0
v -16 -224 0
v -32 -240 0
v -48 -240 0
v -48 -224 0
v -32 -224 0
v -48 -240 0
v -64 -240 0
v -64 -224 0
v -48 -224 0
v -64 -240 0
v -80 -240 0
v -80 -224 0
v -64 -224 0
v -80 -240 0
v -96 -240 0
v -96 -224 0
v -80 -224 0
v -96 -240 0
v -112 -240 0
v -112 -224 0
v -96 -224 0
v -112 -240 0
v -128 -240 0
v -128 -224 0
v -112 -224 0
v -128 -240 0
v -144 -240 0
v -144 -224 0
v -128 -224 0
v -144 -240 0
v -160 -240 0
v -160 -224 0
v -144 -224 0
v -160 -240 0
v -176 -240 0
v -176 -224 0
v -160 -224 0
v -176 -240 0
v -192 -240 0
v -192 -224 0
v -176 -224 0
v -192 -240 0
v -208 -240 0
v -208 -224 0
v -192 -224 0
v -208 -240 0
v -224 -240 0
v -224 -224 0
v -208 -224 0
v -224 -240 0
v -240 -240 0
v -240 -224 0
v -224 -224 0
v -240 -240 0
v -256 -240 0
v -256 -224 0
v -240 -224 0
v 0 -256 0
v -16 -256 0
v -16 -240 0
v 0 -240 0
v -16 -256 0
v -32 -256 0
v -32 -240 0
v -16 -240 0
v -32 -256 0
v -48 -256 0
v -48 -240 0
v -32 -240 0
v -48 -256 0
v -64 -256 0
v -64 -240 0
v -48 -240 0
v -64 -256 0
v -80 -256 0
v -80 -240 0
v -64 -240 0
v -80 -256 0
v -96 -256 0
v -96 -240 0
v -80 -240 0
v -96 -256 0
v -112 -256 0
v -112 -240 0
v -96 -240 0
v -112 -256 0
v -128 -256 0
v -128 -240 0
v -112 -240 0
v -128 -256 0
v -144 -256 0
v -144 -240 0
v -128 -240 0
v -144 -256 0
v -160 -256 0
v -160 -240 0
v -144 -240 0
v -160 -256 0
v -176 -256 0
v -176 -240 0
v -160 -240 0
v -176 -256 0
v -192 -256 0
v -192 -240 0
v -176 -240 0
v -192 -256 0
v -208 -256 0
v -208 -240 0
v -192 -240 0
v -208 -256 0
v -224 -256 0
v -224 -240 0
v -208 -240 0
v -224 -256 0
v -240 -256 0
v -240 -240 0
v -224 -240 0
v -240 -256 0
v -256 -256 0
v -256 -240 0
v -240 -240 0

# Texture cooridinates (Count = 24)
vt 0.6702127 0.0625
vt 0.680851 0.0625
vt 0.680851 0.125
vt 0.6702127 0.125
vt 0.6276596 0.625
vt 0.6382979 0.625
vt 0.6382979 0.6875
vt 0.6276596 0.6875
vt 0.606383 0.625
vt 0.6170213 0.625
vt 0.6170213 0.6875
vt 0.606383 0.6875
vt 0.6276596 0.8125
vt 0.6382979 0.8125
vt 0.6382979 0.875
vt 0.6276596 0.875
vt 0.606383 0.8125
vt 0.6170213 0.8125
vt 0.6170213 0.875
vt 0.606383 0.875
vt 0.6276596 0.75
vt 0.6382979 0.75
vt 0.606383 0.75
vt 0.6170213 0.75

# Normal
vn 0 0 -1

# Mesh description
g 2ScenarioPlataforma_mesh_0882

# Faces
f 1/1/1 2/2/1 3/3/1 4/4/1
f 5/1/1 6/2/1 7/3/1 8/4/1
f 9/1/1 10/2/1 11/3/1 12/4/1
f 13/1/1 14/2/1 15/3/1 16/4/1
f 17/1/1 18/2/1 19/3/1 20/4/1
f 21/1/1 22/2/1 23/3/1 24/4/1
f 25/1/1 26/2/1 27/3/1 28/4/1
f 29/1/1 30/2/1 31/3/1 32/4/1
f 33/1/1 34/2/1 35/3/1 36/4/1
f 37/5/1 38/6/1 39/7/1 40/8/1
f 41/9/1 42/10/1 43/11/1 44/12/1
f 45/10/1 46/5/1 47/8/1 48/11/1
f 49/5/1 50/6/1 51/7/1 52/8/1
f 53/9/1 54/10/1 55/11/1 56/12/1
f 57/10/1 58/5/1 59/8/1 60/11/1
f 61/5/1 62/6/1 63/7/1 64/8/1
f 65/1/1 66/2/1 67/3/1 68/4/1
f 69/1/1 70/2/1 71/3/1 72/4/1
f 73/1/1 74/2/1 75/3/1 76/4/1
f 77/1/1 78/2/1 79/3/1 80/4/1
f 81/1/1 82/2/1 83/3/1 84/4/1
f 85/1/1 86/2/1 87/3/1 88/4/1
f 89/1/1 90/2/1 91/3/1 92/4/1
f 93/1/1 94/2/1 95/3/1 96/4/1
f 97/1/1 98/2/1 99/3/1 100/4/1
f 101/13/1 102/14/1 103/15/1 104/16/1
f 105/17/1 106/18/1 107/19/1 108/20/1
f 109/18/1 110/13/1 111/16/1 112/19/1
f 113/13/1 114/14/1 115/15/1 116/16/1
f 117/17/1 118/18/1 119/19/1 120/20/1
f 121/18/1 122/13/1 123/16/1 124/19/1
f 125/13/1 126/14/1 127/15/1 128/16/1
f 129/1/1 130/2/1 131/3/1 132/4/1
f 133/1/1 134/2/1 135/3/1 136/4/1
f 137/1/1 138/2/1 139/3/1 140/4/1
f 141/1/1 142/2/1 143/3/1 144/4/1
f 145/1/1 146/2/1 147/3/1 148/4/1
f 149/1/1 150/2/1 151/3/1 152/4/1
f 153/1/1 154/2/1 155/3/1 156/4/1
f 157/1/1 158/2/1 159/3/1 160/4/1
f 161/1/1 162/2/1 163/3/1 164/4/1
f 165/21/1 166/22/1 167/14/1 168/13/1
f 169/23/1 170/24/1 171/18/1 172/17/1
f 173/24/1 174/21/1 175/13/1 176/18/1
f 177/21/1 178/22/1 179/14/1 180/13/1
f 181/23/1 182/24/1 183/18/1 184/17/1
f 185/24/1 186/21/1 187/13/1 188/18/1
f 189/21/1 190/22/1 191/14/1 192/13/1
f 193/8/1 194/7/1 195/22/1 196/21/1
f 197/12/1 198/11/1 199/24/1 200/23/1
f 201/11/1 202/8/1 203/21/1 204/24/1
f 205/8/1 206/7/1 207/22/1 208/21/1
f 209/12/1 210/11/1 211/24/1 212/23/1
f 213/11/1 214/8/1 215/21/1 216/24/1
f 217/8/1 218/7/1 219/22/1 220/21/1
f 221/12/1 222/11/1 223/24/1 224/23/1
f 225/11/1 226/8/1 227/21/1 228/24/1
f 229/8/1 230/7/1 231/22/1 232/21/1
f 233/12/1 234/11/1 235/24/1 236/23/1
f 237/11/1 238/8/1 239/21/1 240/24/1
f 241/8/1 242/7/1 243/22/1 244/21/1
f 245/12/1 246/11/1 247/24/1 248/23/1
f 249/11/1 250/8/1 251/21/1 252/24/1
f 253/8/1 254/7/1 255/22/1 256/21/1
f 257/5/1 258/6/1 259/7/1 260/8/1
f 261/9/1 262/10/1 263/11/1 264/12/1
f 265/10/1 266/5/1 267/8/1 268/11/1
f 269/5/1 270/6/1 271/7/1 272/8/1
f 273/9/1 274/10/1 275/11/1 276/12/1
f 277/10/1 278/5/1 279/8/1 280/11/1
f 281/5/1 282/6/1 283/7/1 284/8/1
f 285/9/1 286/10/1 287/11/1 288/12/1
f 289/10/1 290/5/1 291/8/1 292/11/1
f 293/5/1 294/6/1 295/7/1 296/8/1
f 297/9/1 298/10/1 299/11/1 300/12/1
f 301/10/1 302/5/1 303/8/1 304/11/1
f 305/5/1 306/6/1 307/7/1 308/8/1
f 309/9/1 310/10/1 311/11/1 312/12/1
f 313/10/1 314/5/1 315/8/1 316/11/1
f 317/5/1 318/6/1 319/7/1 320/8/1
f 321/13/1 322/14/1 323/15/1 324/16/1
f 325/17/1 326/18/1 327/19/1 328/20/1
f 329/18/1 330/13/1 331/16/1 332/19/1
f 333/13/1 334/14/1 335/15/1 336/16/1
f 337/17/1 338/18/1 339/19/1 340/20/1
f 341/18/1 342/13/1 343/16/1 344/19/1
f 345/13/1 346/14/1 347/15/1 348/16/1
f 349/17/1 350/18/1 351/19/1 352/20/1
f 353/18/1 354/13/1 355/16/1 356/19/1
f 357/13/1 358/14/1 359/15/1 360/16/1
f 361/17/1 362/18/1 363/19/1 364/20/1
f 365/18/1 366/13/1 367/16/1 368/19/1
f 369/13/1 370/14/1 371/15/1 372/16/1
f 373/17/1 374/18/1 375/19/1 376/20/1
f 377/18/1 378/13/1 379/16/1 380/19/1
f 381/13/1 382/14/1 383/15/1 384/16/1
f 385/21/1 386/22/1 387/14/1 388/13/1
f 389/23/1 390/24/1 391/18/1 392/17/1
f 393/24/1 394/21/1 395/13/1 396/18/1
f 397/21/1 398/22/1 399/14/1 400/13/1
f 401/23/1 402/24/1 403/18/1 404/17/1
f 405/24/1 406/21/1 407/13/1 408/18/1
f 409/21/1 410/22/1 411/14/1 412/13/1
f 413/23/1 414/24/1 415/18/1 416/17/1
f 417/24/1 418/21/1 419/13/1 420/18/1
f 421/21/1 422/22/1 423/14/1 424/13/1
f 425/23/1 426/24/1 427/18/1 428/17/1
f 429/24/1 430/21/1 431/13/1 432/18/1
f 433/21/1 434/22/1 435/14/1 436/13/1
f 437/23/1 438/24/1 439/18/1 440/17/1
f 441/24/1 442/21/1 443/13/1 444/18/1
f 445/21/1 446/22/1 447/14/1 448/13/1
f 449/8/1 450/7/1 451/22/1 452/21/1
f 453/12/1 454/11/1 455/24/1 456/23/1
f 457/11/1 458/8/1 459/21/1 460/24/1
f 461/8/1 462/7/1 463/22/1 464/21/1
f 465/12/1 466/11/1 467/24/1 468/23/1
f 469/11/1 470/8/1 471/21/1 472/24/1
f 473/8/1 474/7/1 475/22/1 476/21/1
f 477/12/1 478/11/1 479/24/1 480/23/1
f 481/11/1 482/8/1 483/21/1 484/24/1
f 485/8/1 486/7/1 487/22/1 488/21/1
f 489/12/1 490/11/1 491/24/1 492/23/1
f 493/11/1 494/8/1 495/21/1 496/24/1
f 497/8/1 498/7/1 499/22/1 500/21/1
f 501/12/1 502/11/1 503/24/1 504/23/1
f 505/11/1 506/8/1 507/21/1 508/24/1
f 509/8/1 510/7/1 511/22/1 512/21/1
f 513/5/1 514/6/1 515/7/1 516/8/1
f 517/9/1 518/10/1 519/11/1 520/12/1
f 521/10/1 522/5/1 523/8/1 524/11/1
f 525/5/1 526/6/1 527/7/1 528/8/1
f 529/9/1 530/10/1 531/11/1 532/12/1
f 533/10/1 534/5/1 535/8/1 536/11/1
f 537/5/1 538/6/1 539/7/1 540/8/1
f 541/9/1 542/10/1 543/11/1 544/12/1
f 545/10/1 546/5/1 547/8/1 548/11/1
f 549/5/1 550/6/1 551/7/1 552/8/1
f 553/9/1 554/10/1 555/11/1 556/12/1
f 557/10/1 558/5/1 559/8/1 560/11/1
f 561/5/1 562/6/1 563/7/1 564/8/1
f 565/9/1 566/10/1 567/11/1 568/12/1
f 569/10/1 570/5/1 571/8/1 572/11/1
f 573/5/1 574/6/1 575/7/1 576/8/1
f 577/13/1 578/14/1 579/15/1 580/16/1
f 581/17/1 582/18/1 583/19/1 584/20/1
f 585/18/1 586/13/1 587/16/1 588/19/1
f 589/13/1 590/14/1 591/15/1 592/16/1
f 593/17/1 594/18/1 595/19/1 596/20/1
f 597/18/1 598/13/1 599/16/1 600/19/1
f 601/13/1 602/14/1 603/15/1 604/16/1
f 605/17/1 606/18/1 607/19/1 608/20/1
f 609/18/1 610/13/1 611/16/1 612/19/1
f 613/13/1 614/14/1 615/15/1 616/16/1
f 617/17/1 618/18/1 619/19/1 620/20/1
f 621/18/1 622/13/1 623/16/1 624/19/1
f 625/13/1 626/14/1 627/15/1 628/16/1
f 629/17/1 630/18/1 631/19/1 632/20/1
f 633/18/1 634/13/1 635/16/1 636/19/1
f 637/13/1 638/14/1 639/15/1 640/16/1
f 641/21/1 642/22/1 643/14/1 644/13/1
f 645/23/1 646/24/1 647/18/1 648/17/1
f 649/24/1 650/21/1 651/13/1 652/18/1
f 653/21/1 654/22/1 655/14/1 656/13/1
f 657/23/1 658/24/1 659/18/1 660/17/1
f 661/24/1 662/21/1 663/13/1 664/18/1
f 665/21/1 666/22/1 667/14/1 668/13/1
f 669/23/1 670/24/1 671/18/1 672/17/1
f 673/24/1 674/21/1 675/13/1 676/18/1
f 677/21/1 678/22/1 679/14/1 680/13/1
f 681/23/1 682/24/1 683/18/1 684/17/1
f 685/24/1 686/21/1 687/13/1 688/18/1
f 689/21/1 690/22/1 691/14/1 692/13/1
f 693/23/1 694/24/1 695/18/1 696/17/1
f 697/24/1 698/21/1 699/13/1 700/18/1
f 701/21/1 702/22/1 703/14/1 704/13/1
f 705/8/1 706/7/1 707/22/1 708/21/1
f 709/12/1 710/11/1 711/24/1 712/23/1
f 713/11/1 714/8/1 715/21/1 716/24/1
f 717/8/1 718/7/1 719/22/1 720/21/1
f 721/12/1 722/11/1 723/24/1 724/23/1
f 725/11/1 726/8/1 727/21/1 728/24/1
f 729/8/1 730/7/1 731/22/1 732/21/1
f 733/12/1 734/11/1 735/24/1 736/23/1
f 737/11/1 738/8/1 739/21/1 740/24/1
f 741/8/1 742/7/1 743/22/1 744/21/1
f 745/12/1 746/11/1 747/24/1 748/23/1
f 749/11/1 750/8/1 751/21/1 752/24/1
f 753/8/1 754/7/1 755/22/1 756/21/1
f 757/12/1 758/11/1 759/24/1 760/23/1
f 761/11/1 762/8/1 763/21/1 764/24/1
f 765/8/1 766/7/1 767/22/1 768/21/1
f 769/5/1 770/6/1 771/7/1 772/8/1
f 773/9/1 774/10/1 775/11/1 776/12/1
f 777/10/1 778/5/1 779/8/1 780/11/1
f 781/5/1 782/6/1 783/7/1 784/8/1
f 785/9/1 786/10/1 787/11/1 788/12/1
f 789/10/1 790/5/1 791/8/1 792/11/1
f 793/5/1 794/6/1 795/7/1 796/8/1
f 797/9/1 798/10/1 799/11/1 800/12/1
f 801/10/1 802/5/1 803/8/1 804/11/1
f 805/5/1 806/6/1 807/7/1 808/8/1
f 809/9/1 810/10/1 811/11/1 812/12/1
f 813/10/1 814/5/1 815/8/1 816/11/1
f 817/5/1 818/6/1 819/7/1 820/8/1
f 821/9/1 822/10/1 823/11/1 824/12/1
f 825/10/1 826/5/1 827/8/1 828/11/1
f 829/5/1 830/6/1 831/7/1 832/8/1
f 833/13/1 834/14/1 835/15/1 836/16/1
f 837/17/1 838/18/1 839/19/1 840/20/1
f 841/18/1 842/13/1 843/16/1 844/19/1
f 845/13/1 846/14/1 847/15/1 848/16/1
f 849/17/1 850/18/1 851/19/1 852/20/1
f 853/18/1 854/13/1 855/16/1 856/19/1
f 857/13/1 858/14/1 859/15/1 860/16/1
f 861/17/1 862/18/1 863/19/1 864/20/1
f 865/18/1 866/13/1 867/16/1 868/19/1
f 869/13/1 870/14/1 871/15/1 872/16/1
f 873/17/1 874/18/1 875/19/1 876/20/1
f 877/18/1 878/13/1 879/16/1 880/19/1
f 881/13/1 882/14/1 883/15/1 884/16/1
f 885/17/1 886/18/1 887/19/1 888/20/1
f 889/18/1 890/13/1 891/16/1 892/19/1
f 893/13/1 894/14/1 895/15/1 896/16/1
f 897/21/1 898/22/1 899/14/1 900/13/1
f 901/13/1 902/14/1 903/15/1 904/16/1
f 905/24/1 906/21/1 907/13/1 908/18/1
f 909/21/1 910/22/1 911/14/1 912/13/1
f 913/23/1 914/24/1 915/18/1 916/17/1
f 917/24/1 918/21/1 919/13/1 920/18/1
f 921/21/1 922/22/1 923/14/1 924/13/1
f 925/23/1 926/24/1 927/18/1 928/17/1
f 929/24/1 930/21/1 931/13/1 932/18/1
f 933/21/1 934/22/1 935/14/1 936/13/1
f 937/23/1 938/24/1 939/18/1 940/17/1
f 941/24/1 942/21/1 943/13/1 944/18/1
f 945/21/1 946/22/1 947/14/1 948/13/1
f 949/23/1 950/24/1 951/18/1 952/17/1
f 953/24/1 954/21/1 955/13/1 956/18/1
f 957/21/1 958/22/1 959/14/1 960/13/1
f 961/8/1 962/7/1 963/22/1 964/21/1
f 965/21/1 966/22/1 967/14/1 968/13/1
f 969/13/1 970/14/1 971/15/1 972/16/1
f 973/8/1 974/7/1 975/22/1 976/21/1
f 977/12/1 978/11/1 979/24/1 980/23/1
f 981/11/1 982/8/1 983/21/1 984/24/1
f 985/8/1 986/7/1 987/22/1 988/21/1
f 989/12/1 990/11/1 991/24/1 992/23/1
f 993/11/1 994/8/1 995/21/1 996/24/1
f 997/8/1 998/7/1 999/22/1 1000/21/1
f 1001/12/1 1002/11/1 1003/24/1 1004/23/1
f 1005/11/1 1006/8/1 1007/21/1 1008/24/1
f 1009/8/1 1010/7/1 1011/22/1 1012/21/1
f 1013/12/1 1014/11/1 1015/24/1 1016/23/1
f 1017/11/1 1018/8/1 1019/21/1 1020/24/1
f 1021/8/1 1022/7/1 1023/22/1 1024/21/1

