# Tiled2Unity generated file. Do not modify by hand.
# Wavefront file for '2ScenarioPlataforma_mesh_0495.obj'

# Vertices (Count = 160)
v -96 -192 0
v -112 -192 0
v -112 -176 0
v -96 -176 0
v -112 -192 0
v -128 -192 0
v -128 -176 0
v -112 -176 0
v -128 -192 0
v -144 -192 0
v -144 -176 0
v -128 -176 0
v -144 -192 0
v -160 -192 0
v -160 -176 0
v -144 -176 0
v -160 -192 0
v -176 -192 0
v -176 -176 0
v -160 -176 0
v -176 -192 0
v -192 -192 0
v -192 -176 0
v -176 -176 0
v -192 -192 0
v -208 -192 0
v -208 -176 0
v -192 -176 0
v -208 -192 0
v -224 -192 0
v -224 -176 0
v -208 -176 0
v -96 -208 0
v -112 -208 0
v -112 -192 0
v -96 -192 0
v -112 -208 0
v -128 -208 0
v -128 -192 0
v -112 -192 0
v -128 -208 0
v -144 -208 0
v -144 -192 0
v -128 -192 0
v -144 -208 0
v -160 -208 0
v -160 -192 0
v -144 -192 0
v -160 -208 0
v -176 -208 0
v -176 -192 0
v -160 -192 0
v -176 -208 0
v -192 -208 0
v -192 -192 0
v -176 -192 0
v -192 -208 0
v -208 -208 0
v -208 -192 0
v -192 -192 0
v -208 -208 0
v -224 -208 0
v -224 -192 0
v -208 -192 0
v -96 -224 0
v -112 -224 0
v -112 -208 0
v -96 -208 0
v -112 -224 0
v -128 -224 0
v -128 -208 0
v -112 -208 0
v -128 -224 0
v -144 -224 0
v -144 -208 0
v -128 -208 0
v -144 -224 0
v -160 -224 0
v -160 -208 0
v -144 -208 0
v -160 -224 0
v -176 -224 0
v -176 -208 0
v -160 -208 0
v -176 -224 0
v -192 -224 0
v -192 -208 0
v -176 -208 0
v -192 -224 0
v -208 -224 0
v -208 -208 0
v -192 -208 0
v -208 -224 0
v -224 -224 0
v -224 -208 0
v -208 -208 0
v -96 -240 0
v -112 -240 0
v -112 -224 0
v -96 -224 0
v -112 -240 0
v -128 -240 0
v -128 -224 0
v -112 -224 0
v -128 -240 0
v -144 -240 0
v -144 -224 0
v -128 -224 0
v -144 -240 0
v -160 -240 0
v -160 -224 0
v -144 -224 0
v -160 -240 0
v -176 -240 0
v -176 -224 0
v -160 -224 0
v -176 -240 0
v -192 -240 0
v -192 -224 0
v -176 -224 0
v -192 -240 0
v -208 -240 0
v -208 -224 0
v -192 -224 0
v -208 -240 0
v -224 -240 0
v -224 -224 0
v -208 -224 0
v -96 -256 0
v -112 -256 0
v -112 -240 0
v -96 -240 0
v -112 -256 0
v -128 -256 0
v -128 -240 0
v -112 -240 0
v -128 -256 0
v -144 -256 0
v -144 -240 0
v -128 -240 0
v -144 -256 0
v -160 -256 0
v -160 -240 0
v -144 -240 0
v -160 -256 0
v -176 -256 0
v -176 -240 0
v -160 -240 0
v -176 -256 0
v -192 -256 0
v -192 -240 0
v -176 -240 0
v -192 -256 0
v -208 -256 0
v -208 -240 0
v -192 -240 0
v -208 -256 0
v -224 -256 0
v -224 -240 0
v -208 -240 0

# Texture cooridinates (Count = 26)
vt 0.04761905 0.6875
vt 0.07142857 0.6875
vt 0.07142857 0.75
vt 0.04761905 0.75
vt 0.0952381 0.6875
vt 0.0952381 0.75
vt 0.1190476 0.6875
vt 0.1190476 0.75
vt 0.07142857 0.875
vt 0.0952381 0.875
vt 0.0952381 0.9375
vt 0.07142857 0.9375
vt 0.1190476 0.875
vt 0.1190476 0.9375
vt 0.1428571 0.6875
vt 0.1428571 0.75
vt 0.04761905 0.625
vt 0.07142857 0.625
vt 0.0952381 0.625
vt 0.07142857 0.8125
vt 0.0952381 0.8125
vt 0.1190476 0.8125
vt 0.1190476 0.625
vt 0.1428571 0.625
vt 0.04761905 0.5625
vt 0.07142857 0.5625

# Normal
vn 0 0 -1

# Mesh description
g 2ScenarioPlataforma_mesh_0495

# Faces
f 1/1/1 2/2/1 3/3/1 4/4/1
f 5/2/1 6/5/1 7/6/1 8/3/1
f 9/5/1 10/7/1 11/8/1 12/6/1
f 13/9/1 14/10/1 15/11/1 16/12/1
f 17/10/1 18/13/1 19/14/1 20/11/1
f 21/2/1 22/5/1 23/6/1 24/3/1
f 25/5/1 26/7/1 27/8/1 28/6/1
f 29/7/1 30/15/1 31/16/1 32/8/1
f 33/17/1 34/18/1 35/2/1 36/1/1
f 37/18/1 38/19/1 39/5/1 40/2/1
f 41/18/1 42/19/1 43/5/1 44/2/1
f 45/20/1 46/21/1 47/10/1 48/9/1
f 49/21/1 50/22/1 51/13/1 52/10/1
f 53/18/1 54/19/1 55/5/1 56/2/1
f 57/18/1 58/19/1 59/5/1 60/2/1
f 61/23/1 62/24/1 63/15/1 64/7/1
f 65/25/1 66/26/1 67/18/1 68/17/1
f 69/18/1 70/19/1 71/5/1 72/2/1
f 73/18/1 74/19/1 75/5/1 76/2/1
f 77/18/1 78/19/1 79/5/1 80/2/1
f 81/18/1 82/19/1 83/5/1 84/2/1
f 85/18/1 86/19/1 87/5/1 88/2/1
f 89/18/1 90/19/1 91/5/1 92/2/1
f 93/23/1 94/24/1 95/15/1 96/7/1
f 97/17/1 98/18/1 99/2/1 100/1/1
f 101/18/1 102/19/1 103/5/1 104/2/1
f 105/18/1 106/19/1 107/5/1 108/2/1
f 109/18/1 110/19/1 111/5/1 112/2/1
f 113/18/1 114/19/1 115/5/1 116/2/1
f 117/18/1 118/19/1 119/5/1 120/2/1
f 121/18/1 122/19/1 123/5/1 124/2/1
f 125/23/1 126/24/1 127/15/1 128/7/1
f 129/17/1 130/18/1 131/2/1 132/1/1
f 133/18/1 134/19/1 135/5/1 136/2/1
f 137/18/1 138/19/1 139/5/1 140/2/1
f 141/18/1 142/19/1 143/5/1 144/2/1
f 145/18/1 146/19/1 147/5/1 148/2/1
f 149/18/1 150/19/1 151/5/1 152/2/1
f 153/18/1 154/19/1 155/5/1 156/2/1
f 157/23/1 158/24/1 159/15/1 160/7/1

