# Tiled2Unity generated file. Do not modify by hand.
# Wavefront file for '2ScenarioPlataforma_mesh_0318.obj'

# Vertices (Count = 40)
v 0 -112 0
v -16 -112 0
v -16 -96 0
v 0 -96 0
v -16 -112 0
v -32 -112 0
v -32 -96 0
v -16 -96 0
v -112 -112 0
v -128 -112 0
v -128 -96 0
v -112 -96 0
v 0 -128 0
v -16 -128 0
v -16 -112 0
v 0 -112 0
v -16 -128 0
v -32 -128 0
v -32 -112 0
v -16 -112 0
v -64 -128 0
v -80 -128 0
v -80 -112 0
v -64 -112 0
v -80 -128 0
v -96 -128 0
v -96 -112 0
v -80 -112 0
v -96 -128 0
v -112 -128 0
v -112 -112 0
v -96 -112 0
v -112 -128 0
v -128 -128 0
v -128 -112 0
v -112 -112 0
v -224 -128 0
v -240 -128 0
v -240 -112 0
v -224 -112 0

# Texture cooridinates (Count = 17)
vt 0.5238096 0.5625
vt 0.547619 0.5625
vt 0.547619 0.625
vt 0.5238096 0.625
vt 0.5714286 0.5625
vt 0.5714286 0.625
vt 0.5 0.3125
vt 0.4761905 0.3125
vt 0.4761905 0.25
vt 0.5 0.25
vt 0.5238096 0.5
vt 0.547619 0.5
vt 0.5714286 0.5
vt 0.1428571 0.25
vt 0.1190476 0.25
vt 0.1190476 0.1875
vt 0.1428571 0.1875

# Normal
vn 0 0 -1

# Mesh description
g 2ScenarioPlataforma_mesh_0318

# Faces
f 1/1/1 2/2/1 3/3/1 4/4/1
f 5/2/1 6/5/1 7/6/1 8/3/1
f 9/7/1 10/8/1 11/9/1 12/10/1
f 13/11/1 14/12/1 15/2/1 16/1/1
f 17/12/1 18/13/1 19/5/1 20/2/1
f 21/14/1 22/15/1 23/16/1 24/17/1
f 25/14/1 26/15/1 27/16/1 28/17/1
f 29/14/1 30/15/1 31/16/1 32/17/1
f 33/14/1 34/15/1 35/16/1 36/17/1
f 37/14/1 38/15/1 39/16/1 40/17/1

