# Tiled2Unity generated file. Do not modify by hand.
# Wavefront file for '2ScenarioPlataforma_mesh_0344.obj'

# Vertices (Count = 44)
v -128 -16 0
v -144 -16 0
v -144 0 0
v -128 0 0
v -128 -32 0
v -144 -32 0
v -144 -16 0
v -128 -16 0
v -128 -48 0
v -144 -48 0
v -144 -32 0
v -128 -32 0
v -128 -64 0
v -144 -64 0
v -144 -48 0
v -128 -48 0
v -128 -80 0
v -144 -80 0
v -144 -64 0
v -128 -64 0
v -128 -96 0
v -144 -96 0
v -144 -80 0
v -128 -80 0
v -128 -112 0
v -144 -112 0
v -144 -96 0
v -128 -96 0
v -128 -128 0
v -144 -128 0
v -144 -112 0
v -128 -112 0
v -208 -224 0
v -224 -224 0
v -224 -208 0
v -208 -208 0
v -208 -240 0
v -224 -240 0
v -224 -224 0
v -208 -224 0
v -208 -256 0
v -224 -256 0
v -224 -240 0
v -208 -240 0

# Texture cooridinates (Count = 8)
vt 0.9255319 0.3125
vt 0.9255319 0.375
vt 0.9148936 0.375
vt 0.9148936 0.3125
vt 0.9361702 0.3125
vt 0.9361702 0.375
vt 0.9468085 0.3125
vt 0.9468085 0.375

# Normal
vn 0 0 -1

# Mesh description
g 2ScenarioPlataforma_mesh_0344

# Faces
f 1/1/1 2/2/1 3/3/1 4/4/1
f 5/5/1 6/6/1 7/2/1 8/1/1
f 9/7/1 10/8/1 11/6/1 12/5/1
f 13/1/1 14/2/1 15/3/1 16/4/1
f 17/1/1 18/2/1 19/3/1 20/4/1
f 21/1/1 22/2/1 23/3/1 24/4/1
f 25/1/1 26/2/1 27/3/1 28/4/1
f 29/1/1 30/2/1 31/3/1 32/4/1
f 33/6/1 34/5/1 35/7/1 36/8/1
f 37/2/1 38/1/1 39/5/1 40/6/1
f 41/3/1 42/4/1 43/1/1 44/2/1

