# Tiled2Unity generated file. Do not modify by hand.
# Wavefront file for '2ScenarioPlataforma_mesh_0890.obj'

# Vertices (Count = 92)
v 0 -16 0
v -16 -16 0
v -16 0 0
v 0 0 0
v -16 -16 0
v -32 -16 0
v -32 0 0
v -16 0 0
v -32 -16 0
v -48 -16 0
v -48 0 0
v -32 0 0
v -48 -16 0
v -64 -16 0
v -64 0 0
v -48 0 0
v -64 -16 0
v -80 -16 0
v -80 0 0
v -64 0 0
v -80 -16 0
v -96 -16 0
v -96 0 0
v -80 0 0
v -96 -16 0
v -112 -16 0
v -112 0 0
v -96 0 0
v -112 -16 0
v -128 -16 0
v -128 0 0
v -112 0 0
v -128 -16 0
v -144 -16 0
v -144 0 0
v -128 0 0
v -144 -16 0
v -160 -16 0
v -160 0 0
v -144 0 0
v -160 -16 0
v -176 -16 0
v -176 0 0
v -160 0 0
v -176 -16 0
v -192 -16 0
v -192 0 0
v -176 0 0
v -192 -16 0
v -208 -16 0
v -208 0 0
v -192 0 0
v -208 -16 0
v -224 -16 0
v -224 0 0
v -208 0 0
v 0 -32 0
v -16 -32 0
v -16 -16 0
v 0 -16 0
v -16 -32 0
v -32 -32 0
v -32 -16 0
v -16 -16 0
v -32 -32 0
v -48 -32 0
v -48 -16 0
v -32 -16 0
v -48 -32 0
v -64 -32 0
v -64 -16 0
v -48 -16 0
v -64 -32 0
v -80 -32 0
v -80 -16 0
v -64 -16 0
v -80 -32 0
v -96 -32 0
v -96 -16 0
v -80 -16 0
v 0 -48 0
v -16 -48 0
v -16 -32 0
v 0 -32 0
v -16 -48 0
v -32 -48 0
v -32 -32 0
v -16 -32 0
v -32 -48 0
v -48 -48 0
v -48 -32 0
v -32 -32 0

# Texture cooridinates (Count = 42)
vt 0.6170213 0.625
vt 0.6276596 0.625
vt 0.6276596 0.6875
vt 0.6170213 0.6875
vt 0.6382979 0.625
vt 0.6382979 0.6875
vt 0.606383 0.625
vt 0.606383 0.6875
vt 0.393617 0.6875
vt 0.3829787 0.6875
vt 0.3829787 0.625
vt 0.393617 0.625
vt 0.3723404 0.1875
vt 0.3617021 0.1875
vt 0.3617021 0.125
vt 0.3723404 0.125
vt 0.4042553 0.6875
vt 0.4042553 0.625
vt 0.3510638 0.1875
vt 0.3404255 0.1875
vt 0.3404255 0.125
vt 0.3510638 0.125
vt 0.3297872 0.1875
vt 0.3191489 0.1875
vt 0.3191489 0.125
vt 0.3297872 0.125
vt 0.393617 0.1875
vt 0.3829787 0.1875
vt 0.3829787 0.125
vt 0.393617 0.125
vt 0.3723404 0.6875
vt 0.3723404 0.625
vt 0.6170213 0.8125
vt 0.6276596 0.8125
vt 0.6276596 0.875
vt 0.6170213 0.875
vt 0.6382979 0.8125
vt 0.6382979 0.875
vt 0.3085106 0.1875
vt 0.2978723 0.1875
vt 0.2978723 0.125
vt 0.3085106 0.125

# Normal
vn 0 0 -1

# Mesh description
g 2ScenarioPlataforma_mesh_0890

# Faces
f 1/1/1 2/2/1 3/3/1 4/4/1
f 5/2/1 6/5/1 7/6/1 8/3/1
f 9/7/1 10/1/1 11/4/1 12/8/1
f 13/1/1 14/2/1 15/3/1 16/4/1
f 17/2/1 18/5/1 19/6/1 20/3/1
f 21/9/1 22/10/1 23/11/1 24/12/1
f 25/13/1 26/14/1 27/15/1 28/16/1
f 29/17/1 30/9/1 31/12/1 32/18/1
f 33/19/1 34/20/1 35/21/1 36/22/1
f 37/23/1 38/24/1 39/25/1 40/26/1
f 41/20/1 42/23/1 43/26/1 44/21/1
f 45/17/1 46/9/1 47/12/1 48/18/1
f 49/27/1 50/28/1 51/29/1 52/30/1
f 53/10/1 54/31/1 55/32/1 56/11/1
f 57/33/1 58/34/1 59/35/1 60/36/1
f 61/34/1 62/37/1 63/38/1 64/35/1
f 65/19/1 66/20/1 67/21/1 68/22/1
f 69/27/1 70/28/1 71/29/1 72/30/1
f 73/13/1 74/14/1 75/15/1 76/16/1
f 77/9/1 78/10/1 79/11/1 80/12/1
f 81/39/1 82/40/1 83/41/1 84/42/1
f 85/24/1 86/39/1 87/42/1 88/25/1
f 89/13/1 90/14/1 91/15/1 92/16/1

