# Tiled2Unity generated file. Do not modify by hand.
# Wavefront file for '2ScenarioPlataforma_mesh_0005.obj'

# Vertices (Count = 404)
v -272 -1904 0
v -288 -1904 0
v -288 -1888 0
v -272 -1888 0
v -288 -1904 0
v -304 -1904 0
v -304 -1888 0
v -288 -1888 0
v -464 -1904 0
v -480 -1904 0
v -480 -1888 0
v -464 -1888 0
v -480 -1904 0
v -496 -1904 0
v -496 -1888 0
v -480 -1888 0
v -688 -1904 0
v -704 -1904 0
v -704 -1888 0
v -688 -1888 0
v -704 -1904 0
v -720 -1904 0
v -720 -1888 0
v -704 -1888 0
v -1088 -1904 0
v -1104 -1904 0
v -1104 -1888 0
v -1088 -1888 0
v -1104 -1904 0
v -1120 -1904 0
v -1120 -1888 0
v -1104 -1888 0
v -1344 -1904 0
v -1360 -1904 0
v -1360 -1888 0
v -1344 -1888 0
v -1664 -1904 0
v -1680 -1904 0
v -1680 -1888 0
v -1664 -1888 0
v -1680 -1904 0
v -1696 -1904 0
v -1696 -1888 0
v -1680 -1888 0
v -272 -1920 0
v -288 -1920 0
v -288 -1904 0
v -272 -1904 0
v -288 -1920 0
v -304 -1920 0
v -304 -1904 0
v -288 -1904 0
v -352 -1920 0
v -368 -1920 0
v -368 -1904 0
v -352 -1904 0
v -464 -1920 0
v -480 -1920 0
v -480 -1904 0
v -464 -1904 0
v -480 -1920 0
v -496 -1920 0
v -496 -1904 0
v -480 -1904 0
v -688 -1920 0
v -704 -1920 0
v -704 -1904 0
v -688 -1904 0
v -704 -1920 0
v -720 -1920 0
v -720 -1904 0
v -704 -1904 0
v -752 -1920 0
v -768 -1920 0
v -768 -1904 0
v -752 -1904 0
v -896 -1920 0
v -912 -1920 0
v -912 -1904 0
v -896 -1904 0
v -1008 -1920 0
v -1024 -1920 0
v -1024 -1904 0
v -1008 -1904 0
v -1088 -1920 0
v -1104 -1920 0
v -1104 -1904 0
v -1088 -1904 0
v -1104 -1920 0
v -1120 -1920 0
v -1120 -1904 0
v -1104 -1904 0
v -1168 -1920 0
v -1184 -1920 0
v -1184 -1904 0
v -1168 -1904 0
v -1264 -1920 0
v -1280 -1920 0
v -1280 -1904 0
v -1264 -1904 0
v -1344 -1920 0
v -1360 -1920 0
v -1360 -1904 0
v -1344 -1904 0
v -1680 -1920 0
v -1696 -1920 0
v -1696 -1904 0
v -1680 -1904 0
v -1712 -1920 0
v -1728 -1920 0
v -1728 -1904 0
v -1712 -1904 0
v -1792 -1920 0
v -1808 -1920 0
v -1808 -1904 0
v -1792 -1904 0
v -1488 -2016 0
v -1504 -2016 0
v -1504 -2000 0
v -1488 -2000 0
v -1504 -2016 0
v -1520 -2016 0
v -1520 -2000 0
v -1504 -2000 0
v -1520 -2016 0
v -1536 -2016 0
v -1536 -2000 0
v -1520 -2000 0
v -1536 -2016 0
v -1552 -2016 0
v -1552 -2000 0
v -1536 -2000 0
v -1552 -2016 0
v -1568 -2016 0
v -1568 -2000 0
v -1552 -2000 0
v -1568 -2016 0
v -1584 -2016 0
v -1584 -2000 0
v -1568 -2000 0
v -1584 -2016 0
v -1600 -2016 0
v -1600 -2000 0
v -1584 -2000 0
v -1600 -2016 0
v -1616 -2016 0
v -1616 -2000 0
v -1600 -2000 0
v -1616 -2016 0
v -1632 -2016 0
v -1632 -2000 0
v -1616 -2000 0
v -1488 -2032 0
v -1504 -2032 0
v -1504 -2016 0
v -1488 -2016 0
v -1504 -2032 0
v -1520 -2032 0
v -1520 -2016 0
v -1504 -2016 0
v -1520 -2032 0
v -1536 -2032 0
v -1536 -2016 0
v -1520 -2016 0
v -1536 -2032 0
v -1552 -2032 0
v -1552 -2016 0
v -1536 -2016 0
v -1552 -2032 0
v -1568 -2032 0
v -1568 -2016 0
v -1552 -2016 0
v -1568 -2032 0
v -1584 -2032 0
v -1584 -2016 0
v -1568 -2016 0
v -1584 -2032 0
v -1600 -2032 0
v -1600 -2016 0
v -1584 -2016 0
v -1600 -2032 0
v -1616 -2032 0
v -1616 -2016 0
v -1600 -2016 0
v -1616 -2032 0
v -1632 -2032 0
v -1632 -2016 0
v -1616 -2016 0
v -1488 -2048 0
v -1504 -2048 0
v -1504 -2032 0
v -1488 -2032 0
v -1504 -2048 0
v -1520 -2048 0
v -1520 -2032 0
v -1504 -2032 0
v -1520 -2048 0
v -1536 -2048 0
v -1536 -2032 0
v -1520 -2032 0
v -1536 -2048 0
v -1552 -2048 0
v -1552 -2032 0
v -1536 -2032 0
v -1552 -2048 0
v -1568 -2048 0
v -1568 -2032 0
v -1552 -2032 0
v -1568 -2048 0
v -1584 -2048 0
v -1584 -2032 0
v -1568 -2032 0
v -1584 -2048 0
v -1600 -2048 0
v -1600 -2032 0
v -1584 -2032 0
v -1600 -2048 0
v -1616 -2048 0
v -1616 -2032 0
v -1600 -2032 0
v -1616 -2048 0
v -1632 -2048 0
v -1632 -2032 0
v -1616 -2032 0
v -1488 -2064 0
v -1504 -2064 0
v -1504 -2048 0
v -1488 -2048 0
v -1504 -2064 0
v -1520 -2064 0
v -1520 -2048 0
v -1504 -2048 0
v -1520 -2064 0
v -1536 -2064 0
v -1536 -2048 0
v -1520 -2048 0
v -1536 -2064 0
v -1552 -2064 0
v -1552 -2048 0
v -1536 -2048 0
v -1552 -2064 0
v -1568 -2064 0
v -1568 -2048 0
v -1552 -2048 0
v -1568 -2064 0
v -1584 -2064 0
v -1584 -2048 0
v -1568 -2048 0
v -1584 -2064 0
v -1600 -2064 0
v -1600 -2048 0
v -1584 -2048 0
v -1600 -2064 0
v -1616 -2064 0
v -1616 -2048 0
v -1600 -2048 0
v -1616 -2064 0
v -1632 -2064 0
v -1632 -2048 0
v -1616 -2048 0
v -160 -2080 0
v -176 -2080 0
v -176 -2064 0
v -160 -2064 0
v -240 -2080 0
v -256 -2080 0
v -256 -2064 0
v -240 -2064 0
v -1488 -2080 0
v -1504 -2080 0
v -1504 -2064 0
v -1488 -2064 0
v -1504 -2080 0
v -1520 -2080 0
v -1520 -2064 0
v -1504 -2064 0
v -1520 -2080 0
v -1536 -2080 0
v -1536 -2064 0
v -1520 -2064 0
v -1536 -2080 0
v -1552 -2080 0
v -1552 -2064 0
v -1536 -2064 0
v -1552 -2080 0
v -1568 -2080 0
v -1568 -2064 0
v -1552 -2064 0
v -1568 -2080 0
v -1584 -2080 0
v -1584 -2064 0
v -1568 -2064 0
v -1584 -2080 0
v -1600 -2080 0
v -1600 -2064 0
v -1584 -2064 0
v -1600 -2080 0
v -1616 -2080 0
v -1616 -2064 0
v -1600 -2064 0
v -1616 -2080 0
v -1632 -2080 0
v -1632 -2064 0
v -1616 -2064 0
v -160 -2096 0
v -176 -2096 0
v -176 -2080 0
v -160 -2080 0
v -240 -2096 0
v -256 -2096 0
v -256 -2080 0
v -240 -2080 0
v -288 -2096 0
v -304 -2096 0
v -304 -2080 0
v -288 -2080 0
v -320 -2096 0
v -336 -2096 0
v -336 -2080 0
v -320 -2080 0
v -544 -2096 0
v -560 -2096 0
v -560 -2080 0
v -544 -2080 0
v -1488 -2096 0
v -1504 -2096 0
v -1504 -2080 0
v -1488 -2080 0
v -1504 -2096 0
v -1520 -2096 0
v -1520 -2080 0
v -1504 -2080 0
v -1520 -2096 0
v -1536 -2096 0
v -1536 -2080 0
v -1520 -2080 0
v -1536 -2096 0
v -1552 -2096 0
v -1552 -2080 0
v -1536 -2080 0
v -1552 -2096 0
v -1568 -2096 0
v -1568 -2080 0
v -1552 -2080 0
v -1568 -2096 0
v -1584 -2096 0
v -1584 -2080 0
v -1568 -2080 0
v -1584 -2096 0
v -1600 -2096 0
v -1600 -2080 0
v -1584 -2080 0
v -1600 -2096 0
v -1616 -2096 0
v -1616 -2080 0
v -1600 -2080 0
v -1616 -2096 0
v -1632 -2096 0
v -1632 -2080 0
v -1616 -2080 0
v -1648 -2096 0
v -1664 -2096 0
v -1664 -2080 0
v -1648 -2080 0
v -1744 -2096 0
v -1760 -2096 0
v -1760 -2080 0
v -1744 -2080 0
v -1824 -2096 0
v -1840 -2096 0
v -1840 -2080 0
v -1824 -2080 0
v -1888 -2096 0
v -1904 -2096 0
v -1904 -2080 0
v -1888 -2080 0
v -1920 -2096 0
v -1936 -2096 0
v -1936 -2080 0
v -1920 -2080 0
v -1984 -2096 0
v -2000 -2096 0
v -2000 -2080 0
v -1984 -2080 0
v -288 -2112 0
v -304 -2112 0
v -304 -2096 0
v -288 -2096 0
v -1824 -2112 0
v -1840 -2112 0
v -1840 -2096 0
v -1824 -2096 0
v -1840 -2112 0
v -1856 -2112 0
v -1856 -2096 0
v -1840 -2096 0
v -1856 -2112 0
v -1872 -2112 0
v -1872 -2096 0
v -1856 -2096 0
v -1872 -2112 0
v -1888 -2112 0
v -1888 -2096 0
v -1872 -2096 0

# Texture cooridinates (Count = 123)
vt 0.4361702 0.9375
vt 0.4468085 0.9375
vt 0.4468085 1
vt 0.4361702 1
vt 0.4574468 0.9375
vt 0.4574468 1
vt 0.6595744 0.4375
vt 0.6702127 0.4375
vt 0.6702127 0.5
vt 0.6595744 0.5
vt 0.4361702 0.875
vt 0.4468085 0.875
vt 0.4574468 0.875
vt 0.606383 0.4375
vt 0.6170213 0.4375
vt 0.6170213 0.5
vt 0.606383 0.5
vt 0.287234 0.5
vt 0.2978723 0.5
vt 0.2978723 0.5625
vt 0.287234 0.5625
vt 0.3085106 0.5
vt 0.3085106 0.5625
vt 0.3191489 0.5
vt 0.3191489 0.5625
vt 0.3297872 0.5
vt 0.3297872 0.5625
vt 0.3404255 0.5
vt 0.3404255 0.5625
vt 0.3510638 0.5
vt 0.3510638 0.5625
vt 0.3617021 0.5
vt 0.3617021 0.5625
vt 0.3723404 0.5
vt 0.3723404 0.5625
vt 0.3829787 0.5
vt 0.3829787 0.5625
vt 0.287234 0.4375
vt 0.2978723 0.4375
vt 0.3085106 0.4375
vt 0.3191489 0.4375
vt 0.3297872 0.4375
vt 0.3404255 0.4375
vt 0.3510638 0.4375
vt 0.3617021 0.4375
vt 0.3723404 0.4375
vt 0.3829787 0.4375
vt 0.287234 0.375
vt 0.2978723 0.375
vt 0.3085106 0.375
vt 0.3191489 0.375
vt 0.3297872 0.375
vt 0.3404255 0.375
vt 0.3510638 0.375
vt 0.3617021 0.375
vt 0.3723404 0.375
vt 0.3829787 0.375
vt 0.287234 0.3125
vt 0.2978723 0.3125
vt 0.3085106 0.3125
vt 0.3191489 0.3125
vt 0.3297872 0.3125
vt 0.3404255 0.3125
vt 0.3510638 0.3125
vt 0.3617021 0.3125
vt 0.3723404 0.3125
vt 0.3829787 0.3125
vt 0.6489362 0.3125
vt 0.6595744 0.3125
vt 0.6595744 0.375
vt 0.6489362 0.375
vt 0.287234 0.25
vt 0.2978723 0.25
vt 0.3085106 0.25
vt 0.3191489 0.25
vt 0.3297872 0.25
vt 0.3404255 0.25
vt 0.3510638 0.25
vt 0.3617021 0.25
vt 0.3723404 0.25
vt 0.3829787 0.25
vt 0.6489362 0.25
vt 0.6595744 0.25
vt 0.4042553 0.6875
vt 0.4148936 0.6875
vt 0.4148936 0.75
vt 0.4042553 0.75
vt 0.3723404 0.6875
vt 0.3829787 0.6875
vt 0.3829787 0.75
vt 0.3723404 0.75
vt 0.287234 0.1875
vt 0.2978723 0.1875
vt 0.3085106 0.1875
vt 0.3191489 0.1875
vt 0.3297872 0.1875
vt 0.3404255 0.1875
vt 0.3510638 0.1875
vt 0.3617021 0.1875
vt 0.3723404 0.1875
vt 0.3829787 0.1875
vt 0.4148936 0.4375
vt 0.4255319 0.4375
vt 0.4255319 0.5
vt 0.4148936 0.5
vt 0.4255319 0.6875
vt 0.4361702 0.6875
vt 0.4361702 0.75
vt 0.4255319 0.75
vt 0.4468085 0.6875
vt 0.4574468 0.6875
vt 0.4574468 0.75
vt 0.4468085 0.75
vt 0.3191489 0
vt 0.3297872 0
vt 0.3297872 0.0625
vt 0.3191489 0.0625
vt 0.3404255 0
vt 0.3404255 0.0625
vt 0.3510638 0
vt 0.3510638 0.0625
vt 0.3617021 0
vt 0.3617021 0.0625

# Normal
vn 0 0 -1

# Mesh description
g 2ScenarioPlataforma_mesh_0005

# Faces
f 1/1/1 2/2/1 3/3/1 4/4/1
f 5/2/1 6/5/1 7/6/1 8/3/1
f 9/1/1 10/2/1 11/3/1 12/4/1
f 13/2/1 14/5/1 15/6/1 16/3/1
f 17/1/1 18/2/1 19/3/1 20/4/1
f 21/2/1 22/5/1 23/6/1 24/3/1
f 25/1/1 26/2/1 27/3/1 28/4/1
f 29/2/1 30/5/1 31/6/1 32/3/1
f 33/7/1 34/8/1 35/9/1 36/10/1
f 37/1/1 38/2/1 39/3/1 40/4/1
f 41/2/1 42/5/1 43/6/1 44/3/1
f 45/11/1 46/12/1 47/2/1 48/1/1
f 49/12/1 50/13/1 51/5/1 52/2/1
f 53/7/1 54/8/1 55/9/1 56/10/1
f 57/11/1 58/12/1 59/2/1 60/1/1
f 61/12/1 62/13/1 63/5/1 64/2/1
f 65/11/1 66/12/1 67/2/1 68/1/1
f 69/12/1 70/13/1 71/5/1 72/2/1
f 73/14/1 74/15/1 75/16/1 76/17/1
f 77/7/1 78/8/1 79/9/1 80/10/1
f 81/7/1 82/8/1 83/9/1 84/10/1
f 85/11/1 86/12/1 87/2/1 88/1/1
f 89/12/1 90/13/1 91/5/1 92/2/1
f 93/7/1 94/8/1 95/9/1 96/10/1
f 97/14/1 98/15/1 99/16/1 100/17/1
f 101/7/1 102/8/1 103/9/1 104/10/1
f 105/12/1 106/13/1 107/5/1 108/2/1
f 109/14/1 110/15/1 111/16/1 112/17/1
f 113/14/1 114/15/1 115/16/1 116/17/1
f 117/18/1 118/19/1 119/20/1 120/21/1
f 121/19/1 122/22/1 123/23/1 124/20/1
f 125/22/1 126/24/1 127/25/1 128/23/1
f 129/24/1 130/26/1 131/27/1 132/25/1
f 133/26/1 134/28/1 135/29/1 136/27/1
f 137/28/1 138/30/1 139/31/1 140/29/1
f 141/30/1 142/32/1 143/33/1 144/31/1
f 145/32/1 146/34/1 147/35/1 148/33/1
f 149/34/1 150/36/1 151/37/1 152/35/1
f 153/38/1 154/39/1 155/19/1 156/18/1
f 157/39/1 158/40/1 159/22/1 160/19/1
f 161/40/1 162/41/1 163/24/1 164/22/1
f 165/41/1 166/42/1 167/26/1 168/24/1
f 169/42/1 170/43/1 171/28/1 172/26/1
f 173/43/1 174/44/1 175/30/1 176/28/1
f 177/44/1 178/45/1 179/32/1 180/30/1
f 181/45/1 182/46/1 183/34/1 184/32/1
f 185/46/1 186/47/1 187/36/1 188/34/1
f 189/48/1 190/49/1 191/39/1 192/38/1
f 193/49/1 194/50/1 195/40/1 196/39/1
f 197/50/1 198/51/1 199/41/1 200/40/1
f 201/51/1 202/52/1 203/42/1 204/41/1
f 205/52/1 206/53/1 207/43/1 208/42/1
f 209/53/1 210/54/1 211/44/1 212/43/1
f 213/54/1 214/55/1 215/45/1 216/44/1
f 217/55/1 218/56/1 219/46/1 220/45/1
f 221/56/1 222/57/1 223/47/1 224/46/1
f 225/58/1 226/59/1 227/49/1 228/48/1
f 229/59/1 230/60/1 231/50/1 232/49/1
f 233/60/1 234/61/1 235/51/1 236/50/1
f 237/61/1 238/62/1 239/52/1 240/51/1
f 241/62/1 242/63/1 243/53/1 244/52/1
f 245/63/1 246/64/1 247/54/1 248/53/1
f 249/64/1 250/65/1 251/55/1 252/54/1
f 253/65/1 254/66/1 255/56/1 256/55/1
f 257/66/1 258/67/1 259/57/1 260/56/1
f 261/68/1 262/69/1 263/70/1 264/71/1
f 265/68/1 266/69/1 267/70/1 268/71/1
f 269/72/1 270/73/1 271/59/1 272/58/1
f 273/73/1 274/74/1 275/60/1 276/59/1
f 277/74/1 278/75/1 279/61/1 280/60/1
f 281/75/1 282/76/1 283/62/1 284/61/1
f 285/76/1 286/77/1 287/63/1 288/62/1
f 289/77/1 290/78/1 291/64/1 292/63/1
f 293/78/1 294/79/1 295/65/1 296/64/1
f 297/79/1 298/80/1 299/66/1 300/65/1
f 301/80/1 302/81/1 303/67/1 304/66/1
f 305/82/1 306/83/1 307/69/1 308/68/1
f 309/82/1 310/83/1 311/69/1 312/68/1
f 313/84/1 314/85/1 315/86/1 316/87/1
f 317/88/1 318/89/1 319/90/1 320/91/1
f 321/88/1 322/89/1 323/90/1 324/91/1
f 325/92/1 326/93/1 327/73/1 328/72/1
f 329/93/1 330/94/1 331/74/1 332/73/1
f 333/94/1 334/95/1 335/75/1 336/74/1
f 337/95/1 338/96/1 339/76/1 340/75/1
f 341/96/1 342/97/1 343/77/1 344/76/1
f 345/97/1 346/98/1 347/78/1 348/77/1
f 349/98/1 350/99/1 351/79/1 352/78/1
f 353/99/1 354/100/1 355/80/1 356/79/1
f 357/100/1 358/101/1 359/81/1 360/80/1
f 361/88/1 362/89/1 363/90/1 364/91/1
f 365/102/1 366/103/1 367/104/1 368/105/1
f 369/106/1 370/107/1 371/108/1 372/109/1
f 373/110/1 374/111/1 375/112/1 376/113/1
f 377/110/1 378/111/1 379/112/1 380/113/1
f 381/102/1 382/103/1 383/104/1 384/105/1
f 385/84/1 386/85/1 387/86/1 388/87/1
f 389/114/1 390/115/1 391/116/1 392/117/1
f 393/115/1 394/118/1 395/119/1 396/116/1
f 397/118/1 398/120/1 399/121/1 400/119/1
f 401/120/1 402/122/1 403/123/1 404/121/1

