# Tiled2Unity generated file. Do not modify by hand.
# Wavefront file for '2ScenarioPlataforma_mesh_0982.obj'

# Vertices (Count = 1024)
v 0 -16 0
v -16 -16 0
v -16 0 0
v 0 0 0
v -16 -16 0
v -32 -16 0
v -32 0 0
v -16 0 0
v -32 -16 0
v -48 -16 0
v -48 0 0
v -32 0 0
v -48 -16 0
v -64 -16 0
v -64 0 0
v -48 0 0
v -64 -16 0
v -80 -16 0
v -80 0 0
v -64 0 0
v -80 -16 0
v -96 -16 0
v -96 0 0
v -80 0 0
v -96 -16 0
v -112 -16 0
v -112 0 0
v -96 0 0
v -112 -16 0
v -128 -16 0
v -128 0 0
v -112 0 0
v -128 -16 0
v -144 -16 0
v -144 0 0
v -128 0 0
v -144 -16 0
v -160 -16 0
v -160 0 0
v -144 0 0
v -160 -16 0
v -176 -16 0
v -176 0 0
v -160 0 0
v -176 -16 0
v -192 -16 0
v -192 0 0
v -176 0 0
v -192 -16 0
v -208 -16 0
v -208 0 0
v -192 0 0
v -208 -16 0
v -224 -16 0
v -224 0 0
v -208 0 0
v -224 -16 0
v -240 -16 0
v -240 0 0
v -224 0 0
v -240 -16 0
v -256 -16 0
v -256 0 0
v -240 0 0
v 0 -32 0
v -16 -32 0
v -16 -16 0
v 0 -16 0
v -16 -32 0
v -32 -32 0
v -32 -16 0
v -16 -16 0
v -32 -32 0
v -48 -32 0
v -48 -16 0
v -32 -16 0
v -48 -32 0
v -64 -32 0
v -64 -16 0
v -48 -16 0
v -64 -32 0
v -80 -32 0
v -80 -16 0
v -64 -16 0
v -80 -32 0
v -96 -32 0
v -96 -16 0
v -80 -16 0
v -96 -32 0
v -112 -32 0
v -112 -16 0
v -96 -16 0
v -112 -32 0
v -128 -32 0
v -128 -16 0
v -112 -16 0
v -128 -32 0
v -144 -32 0
v -144 -16 0
v -128 -16 0
v -144 -32 0
v -160 -32 0
v -160 -16 0
v -144 -16 0
v -160 -32 0
v -176 -32 0
v -176 -16 0
v -160 -16 0
v -176 -32 0
v -192 -32 0
v -192 -16 0
v -176 -16 0
v -192 -32 0
v -208 -32 0
v -208 -16 0
v -192 -16 0
v -208 -32 0
v -224 -32 0
v -224 -16 0
v -208 -16 0
v -224 -32 0
v -240 -32 0
v -240 -16 0
v -224 -16 0
v -240 -32 0
v -256 -32 0
v -256 -16 0
v -240 -16 0
v 0 -48 0
v -16 -48 0
v -16 -32 0
v 0 -32 0
v -16 -48 0
v -32 -48 0
v -32 -32 0
v -16 -32 0
v -32 -48 0
v -48 -48 0
v -48 -32 0
v -32 -32 0
v -48 -48 0
v -64 -48 0
v -64 -32 0
v -48 -32 0
v -64 -48 0
v -80 -48 0
v -80 -32 0
v -64 -32 0
v -80 -48 0
v -96 -48 0
v -96 -32 0
v -80 -32 0
v -96 -48 0
v -112 -48 0
v -112 -32 0
v -96 -32 0
v -112 -48 0
v -128 -48 0
v -128 -32 0
v -112 -32 0
v -128 -48 0
v -144 -48 0
v -144 -32 0
v -128 -32 0
v -144 -48 0
v -160 -48 0
v -160 -32 0
v -144 -32 0
v -160 -48 0
v -176 -48 0
v -176 -32 0
v -160 -32 0
v -176 -48 0
v -192 -48 0
v -192 -32 0
v -176 -32 0
v -192 -48 0
v -208 -48 0
v -208 -32 0
v -192 -32 0
v -208 -48 0
v -224 -48 0
v -224 -32 0
v -208 -32 0
v -224 -48 0
v -240 -48 0
v -240 -32 0
v -224 -32 0
v -240 -48 0
v -256 -48 0
v -256 -32 0
v -240 -32 0
v 0 -64 0
v -16 -64 0
v -16 -48 0
v 0 -48 0
v -16 -64 0
v -32 -64 0
v -32 -48 0
v -16 -48 0
v -32 -64 0
v -48 -64 0
v -48 -48 0
v -32 -48 0
v -48 -64 0
v -64 -64 0
v -64 -48 0
v -48 -48 0
v -64 -64 0
v -80 -64 0
v -80 -48 0
v -64 -48 0
v -80 -64 0
v -96 -64 0
v -96 -48 0
v -80 -48 0
v -96 -64 0
v -112 -64 0
v -112 -48 0
v -96 -48 0
v -112 -64 0
v -128 -64 0
v -128 -48 0
v -112 -48 0
v -128 -64 0
v -144 -64 0
v -144 -48 0
v -128 -48 0
v -144 -64 0
v -160 -64 0
v -160 -48 0
v -144 -48 0
v -160 -64 0
v -176 -64 0
v -176 -48 0
v -160 -48 0
v -176 -64 0
v -192 -64 0
v -192 -48 0
v -176 -48 0
v -192 -64 0
v -208 -64 0
v -208 -48 0
v -192 -48 0
v -208 -64 0
v -224 -64 0
v -224 -48 0
v -208 -48 0
v -224 -64 0
v -240 -64 0
v -240 -48 0
v -224 -48 0
v -240 -64 0
v -256 -64 0
v -256 -48 0
v -240 -48 0
v 0 -80 0
v -16 -80 0
v -16 -64 0
v 0 -64 0
v -16 -80 0
v -32 -80 0
v -32 -64 0
v -16 -64 0
v -32 -80 0
v -48 -80 0
v -48 -64 0
v -32 -64 0
v -48 -80 0
v -64 -80 0
v -64 -64 0
v -48 -64 0
v -64 -80 0
v -80 -80 0
v -80 -64 0
v -64 -64 0
v -80 -80 0
v -96 -80 0
v -96 -64 0
v -80 -64 0
v -96 -80 0
v -112 -80 0
v -112 -64 0
v -96 -64 0
v -112 -80 0
v -128 -80 0
v -128 -64 0
v -112 -64 0
v -128 -80 0
v -144 -80 0
v -144 -64 0
v -128 -64 0
v -144 -80 0
v -160 -80 0
v -160 -64 0
v -144 -64 0
v -160 -80 0
v -176 -80 0
v -176 -64 0
v -160 -64 0
v -176 -80 0
v -192 -80 0
v -192 -64 0
v -176 -64 0
v -192 -80 0
v -208 -80 0
v -208 -64 0
v -192 -64 0
v -208 -80 0
v -224 -80 0
v -224 -64 0
v -208 -64 0
v -224 -80 0
v -240 -80 0
v -240 -64 0
v -224 -64 0
v -240 -80 0
v -256 -80 0
v -256 -64 0
v -240 -64 0
v 0 -96 0
v -16 -96 0
v -16 -80 0
v 0 -80 0
v -16 -96 0
v -32 -96 0
v -32 -80 0
v -16 -80 0
v -32 -96 0
v -48 -96 0
v -48 -80 0
v -32 -80 0
v -48 -96 0
v -64 -96 0
v -64 -80 0
v -48 -80 0
v -64 -96 0
v -80 -96 0
v -80 -80 0
v -64 -80 0
v -80 -96 0
v -96 -96 0
v -96 -80 0
v -80 -80 0
v -96 -96 0
v -112 -96 0
v -112 -80 0
v -96 -80 0
v -112 -96 0
v -128 -96 0
v -128 -80 0
v -112 -80 0
v -128 -96 0
v -144 -96 0
v -144 -80 0
v -128 -80 0
v -144 -96 0
v -160 -96 0
v -160 -80 0
v -144 -80 0
v -160 -96 0
v -176 -96 0
v -176 -80 0
v -160 -80 0
v -176 -96 0
v -192 -96 0
v -192 -80 0
v -176 -80 0
v -192 -96 0
v -208 -96 0
v -208 -80 0
v -192 -80 0
v -208 -96 0
v -224 -96 0
v -224 -80 0
v -208 -80 0
v -224 -96 0
v -240 -96 0
v -240 -80 0
v -224 -80 0
v -240 -96 0
v -256 -96 0
v -256 -80 0
v -240 -80 0
v 0 -112 0
v -16 -112 0
v -16 -96 0
v 0 -96 0
v -16 -112 0
v -32 -112 0
v -32 -96 0
v -16 -96 0
v -32 -112 0
v -48 -112 0
v -48 -96 0
v -32 -96 0
v -48 -112 0
v -64 -112 0
v -64 -96 0
v -48 -96 0
v -64 -112 0
v -80 -112 0
v -80 -96 0
v -64 -96 0
v -80 -112 0
v -96 -112 0
v -96 -96 0
v -80 -96 0
v -96 -112 0
v -112 -112 0
v -112 -96 0
v -96 -96 0
v -112 -112 0
v -128 -112 0
v -128 -96 0
v -112 -96 0
v -128 -112 0
v -144 -112 0
v -144 -96 0
v -128 -96 0
v -144 -112 0
v -160 -112 0
v -160 -96 0
v -144 -96 0
v -160 -112 0
v -176 -112 0
v -176 -96 0
v -160 -96 0
v -176 -112 0
v -192 -112 0
v -192 -96 0
v -176 -96 0
v -192 -112 0
v -208 -112 0
v -208 -96 0
v -192 -96 0
v -208 -112 0
v -224 -112 0
v -224 -96 0
v -208 -96 0
v -224 -112 0
v -240 -112 0
v -240 -96 0
v -224 -96 0
v -240 -112 0
v -256 -112 0
v -256 -96 0
v -240 -96 0
v 0 -128 0
v -16 -128 0
v -16 -112 0
v 0 -112 0
v -16 -128 0
v -32 -128 0
v -32 -112 0
v -16 -112 0
v -32 -128 0
v -48 -128 0
v -48 -112 0
v -32 -112 0
v -48 -128 0
v -64 -128 0
v -64 -112 0
v -48 -112 0
v -64 -128 0
v -80 -128 0
v -80 -112 0
v -64 -112 0
v -80 -128 0
v -96 -128 0
v -96 -112 0
v -80 -112 0
v -96 -128 0
v -112 -128 0
v -112 -112 0
v -96 -112 0
v -112 -128 0
v -128 -128 0
v -128 -112 0
v -112 -112 0
v -128 -128 0
v -144 -128 0
v -144 -112 0
v -128 -112 0
v -144 -128 0
v -160 -128 0
v -160 -112 0
v -144 -112 0
v -160 -128 0
v -176 -128 0
v -176 -112 0
v -160 -112 0
v -176 -128 0
v -192 -128 0
v -192 -112 0
v -176 -112 0
v -192 -128 0
v -208 -128 0
v -208 -112 0
v -192 -112 0
v -208 -128 0
v -224 -128 0
v -224 -112 0
v -208 -112 0
v -224 -128 0
v -240 -128 0
v -240 -112 0
v -224 -112 0
v -240 -128 0
v -256 -128 0
v -256 -112 0
v -240 -112 0
v 0 -144 0
v -16 -144 0
v -16 -128 0
v 0 -128 0
v -16 -144 0
v -32 -144 0
v -32 -128 0
v -16 -128 0
v -32 -144 0
v -48 -144 0
v -48 -128 0
v -32 -128 0
v -48 -144 0
v -64 -144 0
v -64 -128 0
v -48 -128 0
v -64 -144 0
v -80 -144 0
v -80 -128 0
v -64 -128 0
v -80 -144 0
v -96 -144 0
v -96 -128 0
v -80 -128 0
v -96 -144 0
v -112 -144 0
v -112 -128 0
v -96 -128 0
v -112 -144 0
v -128 -144 0
v -128 -128 0
v -112 -128 0
v -128 -144 0
v -144 -144 0
v -144 -128 0
v -128 -128 0
v -144 -144 0
v -160 -144 0
v -160 -128 0
v -144 -128 0
v -160 -144 0
v -176 -144 0
v -176 -128 0
v -160 -128 0
v -176 -144 0
v -192 -144 0
v -192 -128 0
v -176 -128 0
v -192 -144 0
v -208 -144 0
v -208 -128 0
v -192 -128 0
v -208 -144 0
v -224 -144 0
v -224 -128 0
v -208 -128 0
v -224 -144 0
v -240 -144 0
v -240 -128 0
v -224 -128 0
v -240 -144 0
v -256 -144 0
v -256 -128 0
v -240 -128 0
v 0 -160 0
v -16 -160 0
v -16 -144 0
v 0 -144 0
v -16 -160 0
v -32 -160 0
v -32 -144 0
v -16 -144 0
v -32 -160 0
v -48 -160 0
v -48 -144 0
v -32 -144 0
v -48 -160 0
v -64 -160 0
v -64 -144 0
v -48 -144 0
v -64 -160 0
v -80 -160 0
v -80 -144 0
v -64 -144 0
v -80 -160 0
v -96 -160 0
v -96 -144 0
v -80 -144 0
v -96 -160 0
v -112 -160 0
v -112 -144 0
v -96 -144 0
v -112 -160 0
v -128 -160 0
v -128 -144 0
v -112 -144 0
v -128 -160 0
v -144 -160 0
v -144 -144 0
v -128 -144 0
v -144 -160 0
v -160 -160 0
v -160 -144 0
v -144 -144 0
v -160 -160 0
v -176 -160 0
v -176 -144 0
v -160 -144 0
v -176 -160 0
v -192 -160 0
v -192 -144 0
v -176 -144 0
v -192 -160 0
v -208 -160 0
v -208 -144 0
v -192 -144 0
v -208 -160 0
v -224 -160 0
v -224 -144 0
v -208 -144 0
v -224 -160 0
v -240 -160 0
v -240 -144 0
v -224 -144 0
v -240 -160 0
v -256 -160 0
v -256 -144 0
v -240 -144 0
v 0 -176 0
v -16 -176 0
v -16 -160 0
v 0 -160 0
v -16 -176 0
v -32 -176 0
v -32 -160 0
v -16 -160 0
v -32 -176 0
v -48 -176 0
v -48 -160 0
v -32 -160 0
v -48 -176 0
v -64 -176 0
v -64 -160 0
v -48 -160 0
v -64 -176 0
v -80 -176 0
v -80 -160 0
v -64 -160 0
v -80 -176 0
v -96 -176 0
v -96 -160 0
v -80 -160 0
v -96 -176 0
v -112 -176 0
v -112 -160 0
v -96 -160 0
v -112 -176 0
v -128 -176 0
v -128 -160 0
v -112 -160 0
v -128 -176 0
v -144 -176 0
v -144 -160 0
v -128 -160 0
v -144 -176 0
v -160 -176 0
v -160 -160 0
v -144 -160 0
v -160 -176 0
v -176 -176 0
v -176 -160 0
v -160 -160 0
v -176 -176 0
v -192 -176 0
v -192 -160 0
v -176 -160 0
v -192 -176 0
v -208 -176 0
v -208 -160 0
v -192 -160 0
v -208 -176 0
v -224 -176 0
v -224 -160 0
v -208 -160 0
v -224 -176 0
v -240 -176 0
v -240 -160 0
v -224 -160 0
v -240 -176 0
v -256 -176 0
v -256 -160 0
v -240 -160 0
v 0 -192 0
v -16 -192 0
v -16 -176 0
v 0 -176 0
v -16 -192 0
v -32 -192 0
v -32 -176 0
v -16 -176 0
v -32 -192 0
v -48 -192 0
v -48 -176 0
v -32 -176 0
v -48 -192 0
v -64 -192 0
v -64 -176 0
v -48 -176 0
v -64 -192 0
v -80 -192 0
v -80 -176 0
v -64 -176 0
v -80 -192 0
v -96 -192 0
v -96 -176 0
v -80 -176 0
v -96 -192 0
v -112 -192 0
v -112 -176 0
v -96 -176 0
v -112 -192 0
v -128 -192 0
v -128 -176 0
v -112 -176 0
v -128 -192 0
v -144 -192 0
v -144 -176 0
v -128 -176 0
v -144 -192 0
v -160 -192 0
v -160 -176 0
v -144 -176 0
v -160 -192 0
v -176 -192 0
v -176 -176 0
v -160 -176 0
v -176 -192 0
v -192 -192 0
v -192 -176 0
v -176 -176 0
v -192 -192 0
v -208 -192 0
v -208 -176 0
v -192 -176 0
v -208 -192 0
v -224 -192 0
v -224 -176 0
v -208 -176 0
v -224 -192 0
v -240 -192 0
v -240 -176 0
v -224 -176 0
v -240 -192 0
v -256 -192 0
v -256 -176 0
v -240 -176 0
v 0 -208 0
v -16 -208 0
v -16 -192 0
v 0 -192 0
v -16 -208 0
v -32 -208 0
v -32 -192 0
v -16 -192 0
v -32 -208 0
v -48 -208 0
v -48 -192 0
v -32 -192 0
v -48 -208 0
v -64 -208 0
v -64 -192 0
v -48 -192 0
v -64 -208 0
v -80 -208 0
v -80 -192 0
v -64 -192 0
v -80 -208 0
v -96 -208 0
v -96 -192 0
v -80 -192 0
v -96 -208 0
v -112 -208 0
v -112 -192 0
v -96 -192 0
v -112 -208 0
v -128 -208 0
v -128 -192 0
v -112 -192 0
v -128 -208 0
v -144 -208 0
v -144 -192 0
v -128 -192 0
v -144 -208 0
v -160 -208 0
v -160 -192 0
v -144 -192 0
v -160 -208 0
v -176 -208 0
v -176 -192 0
v -160 -192 0
v -176 -208 0
v -192 -208 0
v -192 -192 0
v -176 -192 0
v -192 -208 0
v -208 -208 0
v -208 -192 0
v -192 -192 0
v -208 -208 0
v -224 -208 0
v -224 -192 0
v -208 -192 0
v -224 -208 0
v -240 -208 0
v -240 -192 0
v -224 -192 0
v -240 -208 0
v -256 -208 0
v -256 -192 0
v -240 -192 0
v 0 -224 0
v -16 -224 0
v -16 -208 0
v 0 -208 0
v -16 -224 0
v -32 -224 0
v -32 -208 0
v -16 -208 0
v -32 -224 0
v -48 -224 0
v -48 -208 0
v -32 -208 0
v -48 -224 0
v -64 -224 0
v -64 -208 0
v -48 -208 0
v -64 -224 0
v -80 -224 0
v -80 -208 0
v -64 -208 0
v -80 -224 0
v -96 -224 0
v -96 -208 0
v -80 -208 0
v -96 -224 0
v -112 -224 0
v -112 -208 0
v -96 -208 0
v -112 -224 0
v -128 -224 0
v -128 -208 0
v -112 -208 0
v -128 -224 0
v -144 -224 0
v -144 -208 0
v -128 -208 0
v -144 -224 0
v -160 -224 0
v -160 -208 0
v -144 -208 0
v -160 -224 0
v -176 -224 0
v -176 -208 0
v -160 -208 0
v -176 -224 0
v -192 -224 0
v -192 -208 0
v -176 -208 0
v -192 -224 0
v -208 -224 0
v -208 -208 0
v -192 -208 0
v -208 -224 0
v -224 -224 0
v -224 -208 0
v -208 -208 0
v -224 -224 0
v -240 -224 0
v -240 -208 0
v -224 -208 0
v -240 -224 0
v -256 -224 0
v -256 -208 0
v -240 -208 0
v 0 -240 0
v -16 -240 0
v -16 -224 0
v 0 -224 0
v -16 -240 0
v -32 -240 0
v -32 -224 0
v -16 -224 0
v -32 -240 0
v -48 -240 0
v -48 -224 0
v -32 -224 0
v -48 -240 0
v -64 -240 0
v -64 -224 0
v -48 -224 0
v -64 -240 0
v -80 -240 0
v -80 -224 0
v -64 -224 0
v -80 -240 0
v -96 -240 0
v -96 -224 0
v -80 -224 0
v -96 -240 0
v -112 -240 0
v -112 -224 0
v -96 -224 0
v -112 -240 0
v -128 -240 0
v -128 -224 0
v -112 -224 0
v -128 -240 0
v -144 -240 0
v -144 -224 0
v -128 -224 0
v -144 -240 0
v -160 -240 0
v -160 -224 0
v -144 -224 0
v -160 -240 0
v -176 -240 0
v -176 -224 0
v -160 -224 0
v -176 -240 0
v -192 -240 0
v -192 -224 0
v -176 -224 0
v -192 -240 0
v -208 -240 0
v -208 -224 0
v -192 -224 0
v -208 -240 0
v -224 -240 0
v -224 -224 0
v -208 -224 0
v -224 -240 0
v -240 -240 0
v -240 -224 0
v -224 -224 0
v -240 -240 0
v -256 -240 0
v -256 -224 0
v -240 -224 0
v 0 -256 0
v -16 -256 0
v -16 -240 0
v 0 -240 0
v -16 -256 0
v -32 -256 0
v -32 -240 0
v -16 -240 0
v -32 -256 0
v -48 -256 0
v -48 -240 0
v -32 -240 0
v -48 -256 0
v -64 -256 0
v -64 -240 0
v -48 -240 0
v -64 -256 0
v -80 -256 0
v -80 -240 0
v -64 -240 0
v -80 -256 0
v -96 -256 0
v -96 -240 0
v -80 -240 0
v -96 -256 0
v -112 -256 0
v -112 -240 0
v -96 -240 0
v -112 -256 0
v -128 -256 0
v -128 -240 0
v -112 -240 0
v -128 -256 0
v -144 -256 0
v -144 -240 0
v -128 -240 0
v -144 -256 0
v -160 -256 0
v -160 -240 0
v -144 -240 0
v -160 -256 0
v -176 -256 0
v -176 -240 0
v -160 -240 0
v -176 -256 0
v -192 -256 0
v -192 -240 0
v -176 -240 0
v -192 -256 0
v -208 -256 0
v -208 -240 0
v -192 -240 0
v -208 -256 0
v -224 -256 0
v -224 -240 0
v -208 -240 0
v -224 -256 0
v -240 -256 0
v -240 -240 0
v -224 -240 0
v -240 -256 0
v -256 -256 0
v -256 -240 0
v -240 -240 0

# Texture cooridinates (Count = 20)
vt 0.606383 0.8125
vt 0.6170213 0.8125
vt 0.6170213 0.875
vt 0.606383 0.875
vt 0.606383 0.625
vt 0.6170213 0.625
vt 0.6170213 0.6875
vt 0.606383 0.6875
vt 0.6170213 0.75
vt 0.606383 0.75
vt 0.6276596 0.625
vt 0.6276596 0.6875
vt 0.6382979 0.625
vt 0.6382979 0.6875
vt 0.6276596 0.8125
vt 0.6382979 0.8125
vt 0.6382979 0.875
vt 0.6276596 0.875
vt 0.6276596 0.75
vt 0.6382979 0.75

# Normal
vn 0 0 -1

# Mesh description
g 2ScenarioPlataforma_mesh_0982

# Faces
f 1/1/1 2/2/1 3/3/1 4/4/1
f 5/5/1 6/6/1 7/7/1 8/8/1
f 9/5/1 10/6/1 11/7/1 12/8/1
f 13/8/1 14/7/1 15/9/1 16/10/1
f 17/5/1 18/6/1 19/7/1 20/8/1
f 21/5/1 22/6/1 23/7/1 24/8/1
f 25/8/1 26/7/1 27/9/1 28/10/1
f 29/8/1 30/7/1 31/9/1 32/10/1
f 33/8/1 34/7/1 35/9/1 36/10/1
f 37/8/1 38/7/1 39/9/1 40/10/1
f 41/8/1 42/7/1 43/9/1 44/10/1
f 45/8/1 46/7/1 47/9/1 48/10/1
f 49/8/1 50/7/1 51/9/1 52/10/1
f 53/5/1 54/6/1 55/7/1 56/8/1
f 57/6/1 58/11/1 59/12/1 60/7/1
f 61/11/1 62/13/1 63/14/1 64/12/1
f 65/10/1 66/9/1 67/2/1 68/1/1
f 69/10/1 70/9/1 71/2/1 72/1/1
f 73/10/1 74/9/1 75/2/1 76/1/1
f 77/5/1 78/6/1 79/7/1 80/8/1
f 81/5/1 82/6/1 83/7/1 84/8/1
f 85/5/1 86/6/1 87/7/1 88/8/1
f 89/5/1 90/6/1 91/7/1 92/8/1
f 93/5/1 94/6/1 95/7/1 96/8/1
f 97/5/1 98/6/1 99/7/1 100/8/1
f 101/5/1 102/6/1 103/7/1 104/8/1
f 105/5/1 106/6/1 107/7/1 108/8/1
f 109/5/1 110/6/1 111/7/1 112/8/1
f 113/5/1 114/6/1 115/7/1 116/8/1
f 117/5/1 118/6/1 119/7/1 120/8/1
f 121/6/1 122/11/1 123/12/1 124/7/1
f 125/11/1 126/13/1 127/14/1 128/12/1
f 129/15/1 130/16/1 131/17/1 132/18/1
f 133/15/1 134/16/1 135/17/1 136/18/1
f 137/15/1 138/16/1 139/17/1 140/18/1
f 141/15/1 142/16/1 143/17/1 144/18/1
f 145/15/1 146/16/1 147/17/1 148/18/1
f 149/15/1 150/16/1 151/17/1 152/18/1
f 153/8/1 154/7/1 155/9/1 156/10/1
f 157/1/1 158/2/1 159/3/1 160/4/1
f 161/1/1 162/2/1 163/3/1 164/4/1
f 165/1/1 166/2/1 167/3/1 168/4/1
f 169/1/1 170/2/1 171/3/1 172/4/1
f 173/1/1 174/2/1 175/3/1 176/4/1
f 177/1/1 178/2/1 179/3/1 180/4/1
f 181/1/1 182/2/1 183/3/1 184/4/1
f 185/2/1 186/15/1 187/18/1 188/3/1
f 189/15/1 190/16/1 191/17/1 192/18/1
f 193/19/1 194/20/1 195/16/1 196/15/1
f 197/19/1 198/20/1 199/16/1 200/15/1
f 201/19/1 202/20/1 203/16/1 204/15/1
f 205/19/1 206/20/1 207/16/1 208/15/1
f 209/19/1 210/20/1 211/16/1 212/15/1
f 213/19/1 214/20/1 215/16/1 216/15/1
f 217/5/1 218/6/1 219/7/1 220/8/1
f 221/10/1 222/9/1 223/2/1 224/1/1
f 225/10/1 226/9/1 227/2/1 228/1/1
f 229/10/1 230/9/1 231/2/1 232/1/1
f 233/10/1 234/9/1 235/2/1 236/1/1
f 237/10/1 238/9/1 239/2/1 240/1/1
f 241/10/1 242/9/1 243/2/1 244/1/1
f 245/1/1 246/2/1 247/3/1 248/4/1
f 249/1/1 250/2/1 251/3/1 252/4/1
f 253/2/1 254/15/1 255/18/1 256/3/1
f 257/12/1 258/14/1 259/20/1 260/19/1
f 261/12/1 262/14/1 263/20/1 264/19/1
f 265/12/1 266/14/1 267/20/1 268/19/1
f 269/12/1 270/14/1 271/20/1 272/19/1
f 273/12/1 274/14/1 275/20/1 276/19/1
f 277/12/1 278/14/1 279/20/1 280/19/1
f 281/5/1 282/6/1 283/7/1 284/8/1
f 285/8/1 286/7/1 287/9/1 288/10/1
f 289/8/1 290/7/1 291/9/1 292/10/1
f 293/8/1 294/7/1 295/9/1 296/10/1
f 297/8/1 298/7/1 299/9/1 300/10/1
f 301/8/1 302/7/1 303/9/1 304/10/1
f 305/8/1 306/7/1 307/9/1 308/10/1
f 309/10/1 310/9/1 311/2/1 312/1/1
f 313/1/1 314/2/1 315/3/1 316/4/1
f 317/1/1 318/2/1 319/3/1 320/4/1
f 321/11/1 322/13/1 323/14/1 324/12/1
f 325/11/1 326/13/1 327/14/1 328/12/1
f 329/11/1 330/13/1 331/14/1 332/12/1
f 333/11/1 334/13/1 335/14/1 336/12/1
f 337/11/1 338/13/1 339/14/1 340/12/1
f 341/11/1 342/13/1 343/14/1 344/12/1
f 345/15/1 346/16/1 347/17/1 348/18/1
f 349/5/1 350/6/1 351/7/1 352/8/1
f 353/5/1 354/6/1 355/7/1 356/8/1
f 357/5/1 358/6/1 359/7/1 360/8/1
f 361/5/1 362/6/1 363/7/1 364/8/1
f 365/5/1 366/6/1 367/7/1 368/8/1
f 369/5/1 370/6/1 371/7/1 372/8/1
f 373/8/1 374/7/1 375/9/1 376/10/1
f 377/10/1 378/9/1 379/2/1 380/1/1
f 381/10/1 382/9/1 383/2/1 384/1/1
f 385/19/1 386/20/1 387/16/1 388/15/1
f 389/10/1 390/9/1 391/2/1 392/1/1
f 393/9/1 394/19/1 395/15/1 396/2/1
f 397/19/1 398/20/1 399/16/1 400/15/1
f 401/10/1 402/9/1 403/2/1 404/1/1
f 405/9/1 406/19/1 407/15/1 408/2/1
f 409/19/1 410/20/1 411/16/1 412/15/1
f 413/10/1 414/9/1 415/2/1 416/1/1
f 417/9/1 418/19/1 419/15/1 420/2/1
f 421/19/1 422/20/1 423/16/1 424/15/1
f 425/10/1 426/9/1 427/2/1 428/1/1
f 429/9/1 430/19/1 431/15/1 432/2/1
f 433/19/1 434/20/1 435/16/1 436/15/1
f 437/5/1 438/6/1 439/7/1 440/8/1
f 441/8/1 442/7/1 443/9/1 444/10/1
f 445/8/1 446/7/1 447/9/1 448/10/1
f 449/12/1 450/14/1 451/20/1 452/19/1
f 453/8/1 454/7/1 455/9/1 456/10/1
f 457/7/1 458/12/1 459/19/1 460/9/1
f 461/12/1 462/14/1 463/20/1 464/19/1
f 465/8/1 466/7/1 467/9/1 468/10/1
f 469/7/1 470/12/1 471/19/1 472/9/1
f 473/12/1 474/14/1 475/20/1 476/19/1
f 477/8/1 478/7/1 479/9/1 480/10/1
f 481/7/1 482/12/1 483/19/1 484/9/1
f 485/12/1 486/14/1 487/20/1 488/19/1
f 489/8/1 490/7/1 491/9/1 492/10/1
f 493/7/1 494/12/1 495/19/1 496/9/1
f 497/12/1 498/14/1 499/20/1 500/19/1
f 501/8/1 502/7/1 503/9/1 504/10/1
f 505/5/1 506/6/1 507/7/1 508/8/1
f 509/5/1 510/6/1 511/7/1 512/8/1
f 513/11/1 514/13/1 515/14/1 516/12/1
f 517/5/1 518/6/1 519/7/1 520/8/1
f 521/6/1 522/11/1 523/12/1 524/7/1
f 525/11/1 526/13/1 527/14/1 528/12/1
f 529/5/1 530/6/1 531/7/1 532/8/1
f 533/6/1 534/11/1 535/12/1 536/7/1
f 537/11/1 538/13/1 539/14/1 540/12/1
f 541/5/1 542/6/1 543/7/1 544/8/1
f 545/6/1 546/11/1 547/12/1 548/7/1
f 549/11/1 550/13/1 551/14/1 552/12/1
f 553/5/1 554/6/1 555/7/1 556/8/1
f 557/6/1 558/11/1 559/12/1 560/7/1
f 561/11/1 562/13/1 563/14/1 564/12/1
f 565/5/1 566/6/1 567/7/1 568/8/1
f 569/6/1 570/11/1 571/12/1 572/7/1
f 573/11/1 574/13/1 575/14/1 576/12/1
f 577/15/1 578/16/1 579/17/1 580/18/1
f 581/1/1 582/2/1 583/3/1 584/4/1
f 585/2/1 586/15/1 587/18/1 588/3/1
f 589/15/1 590/16/1 591/17/1 592/18/1
f 593/1/1 594/2/1 595/3/1 596/4/1
f 597/2/1 598/15/1 599/18/1 600/3/1
f 601/15/1 602/16/1 603/17/1 604/18/1
f 605/1/1 606/2/1 607/3/1 608/4/1
f 609/2/1 610/15/1 611/18/1 612/3/1
f 613/15/1 614/16/1 615/17/1 616/18/1
f 617/1/1 618/2/1 619/3/1 620/4/1
f 621/2/1 622/15/1 623/18/1 624/3/1
f 625/15/1 626/16/1 627/17/1 628/18/1
f 629/1/1 630/2/1 631/3/1 632/4/1
f 633/2/1 634/15/1 635/18/1 636/3/1
f 637/15/1 638/16/1 639/17/1 640/18/1
f 641/19/1 642/20/1 643/16/1 644/15/1
f 645/10/1 646/9/1 647/2/1 648/1/1
f 649/9/1 650/19/1 651/15/1 652/2/1
f 653/19/1 654/20/1 655/16/1 656/15/1
f 657/10/1 658/9/1 659/2/1 660/1/1
f 661/9/1 662/19/1 663/15/1 664/2/1
f 665/19/1 666/20/1 667/16/1 668/15/1
f 669/10/1 670/9/1 671/2/1 672/1/1
f 673/9/1 674/19/1 675/15/1 676/2/1
f 677/19/1 678/20/1 679/16/1 680/15/1
f 681/10/1 682/9/1 683/2/1 684/1/1
f 685/9/1 686/19/1 687/15/1 688/2/1
f 689/19/1 690/20/1 691/16/1 692/15/1
f 693/10/1 694/9/1 695/2/1 696/1/1
f 697/9/1 698/19/1 699/15/1 700/2/1
f 701/19/1 702/20/1 703/16/1 704/15/1
f 705/12/1 706/14/1 707/20/1 708/19/1
f 709/8/1 710/7/1 711/9/1 712/10/1
f 713/7/1 714/12/1 715/19/1 716/9/1
f 717/12/1 718/14/1 719/20/1 720/19/1
f 721/8/1 722/7/1 723/9/1 724/10/1
f 725/7/1 726/12/1 727/19/1 728/9/1
f 729/12/1 730/14/1 731/20/1 732/19/1
f 733/8/1 734/7/1 735/9/1 736/10/1
f 737/7/1 738/12/1 739/19/1 740/9/1
f 741/12/1 742/14/1 743/20/1 744/19/1
f 745/8/1 746/7/1 747/9/1 748/10/1
f 749/7/1 750/12/1 751/19/1 752/9/1
f 753/12/1 754/14/1 755/20/1 756/19/1
f 757/8/1 758/7/1 759/9/1 760/10/1
f 761/7/1 762/12/1 763/19/1 764/9/1
f 765/12/1 766/14/1 767/20/1 768/19/1
f 769/11/1 770/13/1 771/14/1 772/12/1
f 773/5/1 774/6/1 775/7/1 776/8/1
f 777/6/1 778/11/1 779/12/1 780/7/1
f 781/11/1 782/13/1 783/14/1 784/12/1
f 785/5/1 786/6/1 787/7/1 788/8/1
f 789/6/1 790/11/1 791/12/1 792/7/1
f 793/11/1 794/13/1 795/14/1 796/12/1
f 797/5/1 798/6/1 799/7/1 800/8/1
f 801/6/1 802/11/1 803/12/1 804/7/1
f 805/11/1 806/13/1 807/14/1 808/12/1
f 809/5/1 810/6/1 811/7/1 812/8/1
f 813/6/1 814/11/1 815/12/1 816/7/1
f 817/11/1 818/13/1 819/14/1 820/12/1
f 821/5/1 822/6/1 823/7/1 824/8/1
f 825/6/1 826/11/1 827/12/1 828/7/1
f 829/11/1 830/13/1 831/14/1 832/12/1
f 833/1/1 834/2/1 835/3/1 836/4/1
f 837/1/1 838/2/1 839/3/1 840/4/1
f 841/1/1 842/2/1 843/3/1 844/4/1
f 845/1/1 846/2/1 847/3/1 848/4/1
f 849/1/1 850/2/1 851/3/1 852/4/1
f 853/1/1 854/2/1 855/3/1 856/4/1
f 857/1/1 858/2/1 859/3/1 860/4/1
f 861/1/1 862/2/1 863/3/1 864/4/1
f 865/1/1 866/2/1 867/3/1 868/4/1
f 869/1/1 870/2/1 871/3/1 872/4/1
f 873/1/1 874/2/1 875/3/1 876/4/1
f 877/1/1 878/2/1 879/3/1 880/4/1
f 881/1/1 882/2/1 883/3/1 884/4/1
f 885/1/1 886/2/1 887/3/1 888/4/1
f 889/1/1 890/2/1 891/3/1 892/4/1
f 893/1/1 894/2/1 895/3/1 896/4/1
f 897/10/1 898/9/1 899/2/1 900/1/1
f 901/10/1 902/9/1 903/2/1 904/1/1
f 905/10/1 906/9/1 907/2/1 908/1/1
f 909/10/1 910/9/1 911/2/1 912/1/1
f 913/10/1 914/9/1 915/2/1 916/1/1
f 917/10/1 918/9/1 919/2/1 920/1/1
f 921/10/1 922/9/1 923/2/1 924/1/1
f 925/10/1 926/9/1 927/2/1 928/1/1
f 929/10/1 930/9/1 931/2/1 932/1/1
f 933/10/1 934/9/1 935/2/1 936/1/1
f 937/10/1 938/9/1 939/2/1 940/1/1
f 941/10/1 942/9/1 943/2/1 944/1/1
f 945/10/1 946/9/1 947/2/1 948/1/1
f 949/10/1 950/9/1 951/2/1 952/1/1
f 953/10/1 954/9/1 955/2/1 956/1/1
f 957/10/1 958/9/1 959/2/1 960/1/1
f 961/8/1 962/7/1 963/9/1 964/10/1
f 965/8/1 966/7/1 967/9/1 968/10/1
f 969/8/1 970/7/1 971/9/1 972/10/1
f 973/8/1 974/7/1 975/9/1 976/10/1
f 977/8/1 978/7/1 979/9/1 980/10/1
f 981/8/1 982/7/1 983/9/1 984/10/1
f 985/8/1 986/7/1 987/9/1 988/10/1
f 989/8/1 990/7/1 991/9/1 992/10/1
f 993/8/1 994/7/1 995/9/1 996/10/1
f 997/8/1 998/7/1 999/9/1 1000/10/1
f 1001/8/1 1002/7/1 1003/9/1 1004/10/1
f 1005/8/1 1006/7/1 1007/9/1 1008/10/1
f 1009/8/1 1010/7/1 1011/9/1 1012/10/1
f 1013/8/1 1014/7/1 1015/9/1 1016/10/1
f 1017/8/1 1018/7/1 1019/9/1 1020/10/1
f 1021/8/1 1022/7/1 1023/9/1 1024/10/1

