# Tiled2Unity generated file. Do not modify by hand.
# Wavefront file for '2ScenarioPlataforma_mesh_0916.obj'

# Vertices (Count = 472)
v 0 -144 0
v -16 -144 0
v -16 -128 0
v 0 -128 0
v -16 -144 0
v -32 -144 0
v -32 -128 0
v -16 -128 0
v -32 -144 0
v -48 -144 0
v -48 -128 0
v -32 -128 0
v -48 -144 0
v -64 -144 0
v -64 -128 0
v -48 -128 0
v -64 -144 0
v -80 -144 0
v -80 -128 0
v -64 -128 0
v -80 -144 0
v -96 -144 0
v -96 -128 0
v -80 -128 0
v 0 -160 0
v -16 -160 0
v -16 -144 0
v 0 -144 0
v -16 -160 0
v -32 -160 0
v -32 -144 0
v -16 -144 0
v -32 -160 0
v -48 -160 0
v -48 -144 0
v -32 -144 0
v -48 -160 0
v -64 -160 0
v -64 -144 0
v -48 -144 0
v -64 -160 0
v -80 -160 0
v -80 -144 0
v -64 -144 0
v -80 -160 0
v -96 -160 0
v -96 -144 0
v -80 -144 0
v -96 -160 0
v -112 -160 0
v -112 -144 0
v -96 -144 0
v -112 -160 0
v -128 -160 0
v -128 -144 0
v -112 -144 0
v -128 -160 0
v -144 -160 0
v -144 -144 0
v -128 -144 0
v -144 -160 0
v -160 -160 0
v -160 -144 0
v -144 -144 0
v -160 -160 0
v -176 -160 0
v -176 -144 0
v -160 -144 0
v -176 -160 0
v -192 -160 0
v -192 -144 0
v -176 -144 0
v -192 -160 0
v -208 -160 0
v -208 -144 0
v -192 -144 0
v -208 -160 0
v -224 -160 0
v -224 -144 0
v -208 -144 0
v -224 -160 0
v -240 -160 0
v -240 -144 0
v -224 -144 0
v -240 -160 0
v -256 -160 0
v -256 -144 0
v -240 -144 0
v 0 -176 0
v -16 -176 0
v -16 -160 0
v 0 -160 0
v -16 -176 0
v -32 -176 0
v -32 -160 0
v -16 -160 0
v -32 -176 0
v -48 -176 0
v -48 -160 0
v -32 -160 0
v -48 -176 0
v -64 -176 0
v -64 -160 0
v -48 -160 0
v -64 -176 0
v -80 -176 0
v -80 -160 0
v -64 -160 0
v -80 -176 0
v -96 -176 0
v -96 -160 0
v -80 -160 0
v -96 -176 0
v -112 -176 0
v -112 -160 0
v -96 -160 0
v -112 -176 0
v -128 -176 0
v -128 -160 0
v -112 -160 0
v -128 -176 0
v -144 -176 0
v -144 -160 0
v -128 -160 0
v -144 -176 0
v -160 -176 0
v -160 -160 0
v -144 -160 0
v -160 -176 0
v -176 -176 0
v -176 -160 0
v -160 -160 0
v -176 -176 0
v -192 -176 0
v -192 -160 0
v -176 -160 0
v -192 -176 0
v -208 -176 0
v -208 -160 0
v -192 -160 0
v -208 -176 0
v -224 -176 0
v -224 -160 0
v -208 -160 0
v -224 -176 0
v -240 -176 0
v -240 -160 0
v -224 -160 0
v -240 -176 0
v -256 -176 0
v -256 -160 0
v -240 -160 0
v 0 -192 0
v -16 -192 0
v -16 -176 0
v 0 -176 0
v -16 -192 0
v -32 -192 0
v -32 -176 0
v -16 -176 0
v -32 -192 0
v -48 -192 0
v -48 -176 0
v -32 -176 0
v -48 -192 0
v -64 -192 0
v -64 -176 0
v -48 -176 0
v -64 -192 0
v -80 -192 0
v -80 -176 0
v -64 -176 0
v -80 -192 0
v -96 -192 0
v -96 -176 0
v -80 -176 0
v -96 -192 0
v -112 -192 0
v -112 -176 0
v -96 -176 0
v -112 -192 0
v -128 -192 0
v -128 -176 0
v -112 -176 0
v -128 -192 0
v -144 -192 0
v -144 -176 0
v -128 -176 0
v -144 -192 0
v -160 -192 0
v -160 -176 0
v -144 -176 0
v -160 -192 0
v -176 -192 0
v -176 -176 0
v -160 -176 0
v -176 -192 0
v -192 -192 0
v -192 -176 0
v -176 -176 0
v -192 -192 0
v -208 -192 0
v -208 -176 0
v -192 -176 0
v -208 -192 0
v -224 -192 0
v -224 -176 0
v -208 -176 0
v -224 -192 0
v -240 -192 0
v -240 -176 0
v -224 -176 0
v -240 -192 0
v -256 -192 0
v -256 -176 0
v -240 -176 0
v 0 -208 0
v -16 -208 0
v -16 -192 0
v 0 -192 0
v -16 -208 0
v -32 -208 0
v -32 -192 0
v -16 -192 0
v -32 -208 0
v -48 -208 0
v -48 -192 0
v -32 -192 0
v -48 -208 0
v -64 -208 0
v -64 -192 0
v -48 -192 0
v -64 -208 0
v -80 -208 0
v -80 -192 0
v -64 -192 0
v -80 -208 0
v -96 -208 0
v -96 -192 0
v -80 -192 0
v -96 -208 0
v -112 -208 0
v -112 -192 0
v -96 -192 0
v -112 -208 0
v -128 -208 0
v -128 -192 0
v -112 -192 0
v -128 -208 0
v -144 -208 0
v -144 -192 0
v -128 -192 0
v -144 -208 0
v -160 -208 0
v -160 -192 0
v -144 -192 0
v -160 -208 0
v -176 -208 0
v -176 -192 0
v -160 -192 0
v -176 -208 0
v -192 -208 0
v -192 -192 0
v -176 -192 0
v -192 -208 0
v -208 -208 0
v -208 -192 0
v -192 -192 0
v -208 -208 0
v -224 -208 0
v -224 -192 0
v -208 -192 0
v -224 -208 0
v -240 -208 0
v -240 -192 0
v -224 -192 0
v -240 -208 0
v -256 -208 0
v -256 -192 0
v -240 -192 0
v 0 -224 0
v -16 -224 0
v -16 -208 0
v 0 -208 0
v -16 -224 0
v -32 -224 0
v -32 -208 0
v -16 -208 0
v -32 -224 0
v -48 -224 0
v -48 -208 0
v -32 -208 0
v -48 -224 0
v -64 -224 0
v -64 -208 0
v -48 -208 0
v -64 -224 0
v -80 -224 0
v -80 -208 0
v -64 -208 0
v -80 -224 0
v -96 -224 0
v -96 -208 0
v -80 -208 0
v -96 -224 0
v -112 -224 0
v -112 -208 0
v -96 -208 0
v -112 -224 0
v -128 -224 0
v -128 -208 0
v -112 -208 0
v -128 -224 0
v -144 -224 0
v -144 -208 0
v -128 -208 0
v -144 -224 0
v -160 -224 0
v -160 -208 0
v -144 -208 0
v -160 -224 0
v -176 -224 0
v -176 -208 0
v -160 -208 0
v -176 -224 0
v -192 -224 0
v -192 -208 0
v -176 -208 0
v -192 -224 0
v -208 -224 0
v -208 -208 0
v -192 -208 0
v -208 -224 0
v -224 -224 0
v -224 -208 0
v -208 -208 0
v -224 -224 0
v -240 -224 0
v -240 -208 0
v -224 -208 0
v -240 -224 0
v -256 -224 0
v -256 -208 0
v -240 -208 0
v 0 -240 0
v -16 -240 0
v -16 -224 0
v 0 -224 0
v -16 -240 0
v -32 -240 0
v -32 -224 0
v -16 -224 0
v -32 -240 0
v -48 -240 0
v -48 -224 0
v -32 -224 0
v -48 -240 0
v -64 -240 0
v -64 -224 0
v -48 -224 0
v -64 -240 0
v -80 -240 0
v -80 -224 0
v -64 -224 0
v -80 -240 0
v -96 -240 0
v -96 -224 0
v -80 -224 0
v -96 -240 0
v -112 -240 0
v -112 -224 0
v -96 -224 0
v -112 -240 0
v -128 -240 0
v -128 -224 0
v -112 -224 0
v -128 -240 0
v -144 -240 0
v -144 -224 0
v -128 -224 0
v -144 -240 0
v -160 -240 0
v -160 -224 0
v -144 -224 0
v -160 -240 0
v -176 -240 0
v -176 -224 0
v -160 -224 0
v -176 -240 0
v -192 -240 0
v -192 -224 0
v -176 -224 0
v -192 -240 0
v -208 -240 0
v -208 -224 0
v -192 -224 0
v -208 -240 0
v -224 -240 0
v -224 -224 0
v -208 -224 0
v -224 -240 0
v -240 -240 0
v -240 -224 0
v -224 -224 0
v -240 -240 0
v -256 -240 0
v -256 -224 0
v -240 -224 0
v 0 -256 0
v -16 -256 0
v -16 -240 0
v 0 -240 0
v -16 -256 0
v -32 -256 0
v -32 -240 0
v -16 -240 0
v -32 -256 0
v -48 -256 0
v -48 -240 0
v -32 -240 0
v -48 -256 0
v -64 -256 0
v -64 -240 0
v -48 -240 0
v -64 -256 0
v -80 -256 0
v -80 -240 0
v -64 -240 0
v -80 -256 0
v -96 -256 0
v -96 -240 0
v -80 -240 0
v -96 -256 0
v -112 -256 0
v -112 -240 0
v -96 -240 0
v -112 -256 0
v -128 -256 0
v -128 -240 0
v -112 -240 0
v -128 -256 0
v -144 -256 0
v -144 -240 0
v -128 -240 0
v -144 -256 0
v -160 -256 0
v -160 -240 0
v -144 -240 0
v -160 -256 0
v -176 -256 0
v -176 -240 0
v -160 -240 0
v -176 -256 0
v -192 -256 0
v -192 -240 0
v -176 -240 0
v -192 -256 0
v -208 -256 0
v -208 -240 0
v -192 -240 0
v -208 -256 0
v -224 -256 0
v -224 -240 0
v -208 -240 0
v -224 -256 0
v -240 -256 0
v -240 -240 0
v -224 -240 0
v -240 -256 0
v -256 -256 0
v -256 -240 0
v -240 -240 0

# Texture cooridinates (Count = 37)
vt 0.3723404 0.625
vt 0.3829787 0.625
vt 0.3829787 0.6875
vt 0.3723404 0.6875
vt 0.3510638 0.125
vt 0.3617021 0.125
vt 0.3617021 0.1875
vt 0.3510638 0.1875
vt 0.4148936 0.625
vt 0.4255319 0.625
vt 0.4255319 0.6875
vt 0.4148936 0.6875
vt 0.3723404 0.125
vt 0.3829787 0.125
vt 0.3829787 0.1875
vt 0.3723404 0.1875
vt 0.4042553 0.625
vt 0.4042553 0.6875
vt 0.3404255 0.125
vt 0.3404255 0.1875
vt 0.606383 0.8125
vt 0.6170213 0.8125
vt 0.6170213 0.875
vt 0.606383 0.875
vt 0.606383 0.75
vt 0.6170213 0.75
vt 0.606383 0.6875
vt 0.6170213 0.6875
vt 0.606383 0.625
vt 0.6170213 0.625
vt 0.6276596 0.8125
vt 0.6276596 0.875
vt 0.6276596 0.75
vt 0.6382979 0.75
vt 0.6382979 0.8125
vt 0.6276596 0.6875
vt 0.6382979 0.6875

# Normal
vn 0 0 -1

# Mesh description
g 2ScenarioPlataforma_mesh_0916

# Faces
f 1/1/1 2/2/1 3/3/1 4/4/1
f 5/5/1 6/6/1 7/7/1 8/8/1
f 9/9/1 10/10/1 11/11/1 12/12/1
f 13/13/1 14/14/1 15/15/1 16/16/1
f 17/17/1 18/9/1 19/12/1 20/18/1
f 21/19/1 22/5/1 23/8/1 24/20/1
f 25/21/1 26/22/1 27/23/1 28/24/1
f 29/21/1 30/22/1 31/23/1 32/24/1
f 33/21/1 34/22/1 35/23/1 36/24/1
f 37/21/1 38/22/1 39/23/1 40/24/1
f 41/21/1 42/22/1 43/23/1 44/24/1
f 45/21/1 46/22/1 47/23/1 48/24/1
f 49/21/1 50/22/1 51/23/1 52/24/1
f 53/21/1 54/22/1 55/23/1 56/24/1
f 57/21/1 58/22/1 59/23/1 60/24/1
f 61/21/1 62/22/1 63/23/1 64/24/1
f 65/21/1 66/22/1 67/23/1 68/24/1
f 69/21/1 70/22/1 71/23/1 72/24/1
f 73/21/1 74/22/1 75/23/1 76/24/1
f 77/21/1 78/22/1 79/23/1 80/24/1
f 81/21/1 82/22/1 83/23/1 84/24/1
f 85/21/1 86/22/1 87/23/1 88/24/1
f 89/25/1 90/26/1 91/22/1 92/21/1
f 93/25/1 94/26/1 95/22/1 96/21/1
f 97/25/1 98/26/1 99/22/1 100/21/1
f 101/25/1 102/26/1 103/22/1 104/21/1
f 105/25/1 106/26/1 107/22/1 108/21/1
f 109/25/1 110/26/1 111/22/1 112/21/1
f 113/25/1 114/26/1 115/22/1 116/21/1
f 117/25/1 118/26/1 119/22/1 120/21/1
f 121/25/1 122/26/1 123/22/1 124/21/1
f 125/25/1 126/26/1 127/22/1 128/21/1
f 129/25/1 130/26/1 131/22/1 132/21/1
f 133/25/1 134/26/1 135/22/1 136/21/1
f 137/25/1 138/26/1 139/22/1 140/21/1
f 141/25/1 142/26/1 143/22/1 144/21/1
f 145/25/1 146/26/1 147/22/1 148/21/1
f 149/25/1 150/26/1 151/22/1 152/21/1
f 153/27/1 154/28/1 155/26/1 156/25/1
f 157/27/1 158/28/1 159/26/1 160/25/1
f 161/27/1 162/28/1 163/26/1 164/25/1
f 165/27/1 166/28/1 167/26/1 168/25/1
f 169/27/1 170/28/1 171/26/1 172/25/1
f 173/27/1 174/28/1 175/26/1 176/25/1
f 177/27/1 178/28/1 179/26/1 180/25/1
f 181/27/1 182/28/1 183/26/1 184/25/1
f 185/27/1 186/28/1 187/26/1 188/25/1
f 189/27/1 190/28/1 191/26/1 192/25/1
f 193/27/1 194/28/1 195/26/1 196/25/1
f 197/27/1 198/28/1 199/26/1 200/25/1
f 201/27/1 202/28/1 203/26/1 204/25/1
f 205/27/1 206/28/1 207/26/1 208/25/1
f 209/27/1 210/28/1 211/26/1 212/25/1
f 213/27/1 214/28/1 215/26/1 216/25/1
f 217/29/1 218/30/1 219/28/1 220/27/1
f 221/29/1 222/30/1 223/28/1 224/27/1
f 225/29/1 226/30/1 227/28/1 228/27/1
f 229/29/1 230/30/1 231/28/1 232/27/1
f 233/29/1 234/30/1 235/28/1 236/27/1
f 237/29/1 238/30/1 239/28/1 240/27/1
f 241/29/1 242/30/1 243/28/1 244/27/1
f 245/29/1 246/30/1 247/28/1 248/27/1
f 249/29/1 250/30/1 251/28/1 252/27/1
f 253/29/1 254/30/1 255/28/1 256/27/1
f 257/29/1 258/30/1 259/28/1 260/27/1
f 261/29/1 262/30/1 263/28/1 264/27/1
f 265/29/1 266/30/1 267/28/1 268/27/1
f 269/29/1 270/30/1 271/28/1 272/27/1
f 273/29/1 274/30/1 275/28/1 276/27/1
f 277/29/1 278/30/1 279/28/1 280/27/1
f 281/21/1 282/22/1 283/23/1 284/24/1
f 285/22/1 286/31/1 287/32/1 288/23/1
f 289/29/1 290/30/1 291/28/1 292/27/1
f 293/29/1 294/30/1 295/28/1 296/27/1
f 297/29/1 298/30/1 299/28/1 300/27/1
f 301/29/1 302/30/1 303/28/1 304/27/1
f 305/29/1 306/30/1 307/28/1 308/27/1
f 309/29/1 310/30/1 311/28/1 312/27/1
f 313/29/1 314/30/1 315/28/1 316/27/1
f 317/29/1 318/30/1 319/28/1 320/27/1
f 321/29/1 322/30/1 323/28/1 324/27/1
f 325/29/1 326/30/1 327/28/1 328/27/1
f 329/29/1 330/30/1 331/28/1 332/27/1
f 333/29/1 334/30/1 335/28/1 336/27/1
f 337/29/1 338/30/1 339/28/1 340/27/1
f 341/29/1 342/30/1 343/28/1 344/27/1
f 345/25/1 346/26/1 347/22/1 348/21/1
f 349/26/1 350/33/1 351/31/1 352/22/1
f 353/33/1 354/34/1 355/35/1 356/31/1
f 357/25/1 358/26/1 359/22/1 360/21/1
f 361/26/1 362/33/1 363/31/1 364/22/1
f 365/33/1 366/34/1 367/35/1 368/31/1
f 369/25/1 370/26/1 371/22/1 372/21/1
f 373/26/1 374/33/1 375/31/1 376/22/1
f 377/33/1 378/34/1 379/35/1 380/31/1
f 381/25/1 382/26/1 383/22/1 384/21/1
f 385/26/1 386/33/1 387/31/1 388/22/1
f 389/33/1 390/34/1 391/35/1 392/31/1
f 393/25/1 394/26/1 395/22/1 396/21/1
f 397/26/1 398/33/1 399/31/1 400/22/1
f 401/33/1 402/34/1 403/35/1 404/31/1
f 405/25/1 406/26/1 407/22/1 408/21/1
f 409/27/1 410/28/1 411/26/1 412/25/1
f 413/28/1 414/36/1 415/33/1 416/26/1
f 417/36/1 418/37/1 419/34/1 420/33/1
f 421/27/1 422/28/1 423/26/1 424/25/1
f 425/28/1 426/36/1 427/33/1 428/26/1
f 429/36/1 430/37/1 431/34/1 432/33/1
f 433/27/1 434/28/1 435/26/1 436/25/1
f 437/28/1 438/36/1 439/33/1 440/26/1
f 441/36/1 442/37/1 443/34/1 444/33/1
f 445/27/1 446/28/1 447/26/1 448/25/1
f 449/28/1 450/36/1 451/33/1 452/26/1
f 453/36/1 454/37/1 455/34/1 456/33/1
f 457/27/1 458/28/1 459/26/1 460/25/1
f 461/28/1 462/36/1 463/33/1 464/26/1
f 465/36/1 466/37/1 467/34/1 468/33/1
f 469/27/1 470/28/1 471/26/1 472/25/1

