# Tiled2Unity generated file. Do not modify by hand.
# Wavefront file for '2ScenarioPlataforma_mesh_0906.obj'

# Vertices (Count = 524)
v 0 -96 0
v -16 -96 0
v -16 -80 0
v 0 -80 0
v -16 -96 0
v -32 -96 0
v -32 -80 0
v -16 -80 0
v -32 -96 0
v -48 -96 0
v -48 -80 0
v -32 -80 0
v -48 -96 0
v -64 -96 0
v -64 -80 0
v -48 -80 0
v -64 -96 0
v -80 -96 0
v -80 -80 0
v -64 -80 0
v -80 -96 0
v -96 -96 0
v -96 -80 0
v -80 -80 0
v -240 -96 0
v -256 -96 0
v -256 -80 0
v -240 -80 0
v 0 -112 0
v -16 -112 0
v -16 -96 0
v 0 -96 0
v -16 -112 0
v -32 -112 0
v -32 -96 0
v -16 -96 0
v -32 -112 0
v -48 -112 0
v -48 -96 0
v -32 -96 0
v -48 -112 0
v -64 -112 0
v -64 -96 0
v -48 -96 0
v -64 -112 0
v -80 -112 0
v -80 -96 0
v -64 -96 0
v -80 -112 0
v -96 -112 0
v -96 -96 0
v -80 -96 0
v -96 -112 0
v -112 -112 0
v -112 -96 0
v -96 -96 0
v -112 -112 0
v -128 -112 0
v -128 -96 0
v -112 -96 0
v -128 -112 0
v -144 -112 0
v -144 -96 0
v -128 -96 0
v -144 -112 0
v -160 -112 0
v -160 -96 0
v -144 -96 0
v -160 -112 0
v -176 -112 0
v -176 -96 0
v -160 -96 0
v -176 -112 0
v -192 -112 0
v -192 -96 0
v -176 -96 0
v -192 -112 0
v -208 -112 0
v -208 -96 0
v -192 -96 0
v -208 -112 0
v -224 -112 0
v -224 -96 0
v -208 -96 0
v -224 -112 0
v -240 -112 0
v -240 -96 0
v -224 -96 0
v -240 -112 0
v -256 -112 0
v -256 -96 0
v -240 -96 0
v 0 -128 0
v -16 -128 0
v -16 -112 0
v 0 -112 0
v -16 -128 0
v -32 -128 0
v -32 -112 0
v -16 -112 0
v -32 -128 0
v -48 -128 0
v -48 -112 0
v -32 -112 0
v -48 -128 0
v -64 -128 0
v -64 -112 0
v -48 -112 0
v -64 -128 0
v -80 -128 0
v -80 -112 0
v -64 -112 0
v -80 -128 0
v -96 -128 0
v -96 -112 0
v -80 -112 0
v -96 -128 0
v -112 -128 0
v -112 -112 0
v -96 -112 0
v -112 -128 0
v -128 -128 0
v -128 -112 0
v -112 -112 0
v -128 -128 0
v -144 -128 0
v -144 -112 0
v -128 -112 0
v -144 -128 0
v -160 -128 0
v -160 -112 0
v -144 -112 0
v -160 -128 0
v -176 -128 0
v -176 -112 0
v -160 -112 0
v -176 -128 0
v -192 -128 0
v -192 -112 0
v -176 -112 0
v -192 -128 0
v -208 -128 0
v -208 -112 0
v -192 -112 0
v -208 -128 0
v -224 -128 0
v -224 -112 0
v -208 -112 0
v -224 -128 0
v -240 -128 0
v -240 -112 0
v -224 -112 0
v -240 -128 0
v -256 -128 0
v -256 -112 0
v -240 -112 0
v 0 -144 0
v -16 -144 0
v -16 -128 0
v 0 -128 0
v -16 -144 0
v -32 -144 0
v -32 -128 0
v -16 -128 0
v -32 -144 0
v -48 -144 0
v -48 -128 0
v -32 -128 0
v -48 -144 0
v -64 -144 0
v -64 -128 0
v -48 -128 0
v -64 -144 0
v -80 -144 0
v -80 -128 0
v -64 -128 0
v -80 -144 0
v -96 -144 0
v -96 -128 0
v -80 -128 0
v -96 -144 0
v -112 -144 0
v -112 -128 0
v -96 -128 0
v -112 -144 0
v -128 -144 0
v -128 -128 0
v -112 -128 0
v -128 -144 0
v -144 -144 0
v -144 -128 0
v -128 -128 0
v -144 -144 0
v -160 -144 0
v -160 -128 0
v -144 -128 0
v -160 -144 0
v -176 -144 0
v -176 -128 0
v -160 -128 0
v -176 -144 0
v -192 -144 0
v -192 -128 0
v -176 -128 0
v -192 -144 0
v -208 -144 0
v -208 -128 0
v -192 -128 0
v -208 -144 0
v -224 -144 0
v -224 -128 0
v -208 -128 0
v -224 -144 0
v -240 -144 0
v -240 -128 0
v -224 -128 0
v -240 -144 0
v -256 -144 0
v -256 -128 0
v -240 -128 0
v 0 -160 0
v -16 -160 0
v -16 -144 0
v 0 -144 0
v -16 -160 0
v -32 -160 0
v -32 -144 0
v -16 -144 0
v -32 -160 0
v -48 -160 0
v -48 -144 0
v -32 -144 0
v -48 -160 0
v -64 -160 0
v -64 -144 0
v -48 -144 0
v -64 -160 0
v -80 -160 0
v -80 -144 0
v -64 -144 0
v -80 -160 0
v -96 -160 0
v -96 -144 0
v -80 -144 0
v -96 -160 0
v -112 -160 0
v -112 -144 0
v -96 -144 0
v -112 -160 0
v -128 -160 0
v -128 -144 0
v -112 -144 0
v -128 -160 0
v -144 -160 0
v -144 -144 0
v -128 -144 0
v -144 -160 0
v -160 -160 0
v -160 -144 0
v -144 -144 0
v -160 -160 0
v -176 -160 0
v -176 -144 0
v -160 -144 0
v -176 -160 0
v -192 -160 0
v -192 -144 0
v -176 -144 0
v -192 -160 0
v -208 -160 0
v -208 -144 0
v -192 -144 0
v -208 -160 0
v -224 -160 0
v -224 -144 0
v -208 -144 0
v -224 -160 0
v -240 -160 0
v -240 -144 0
v -224 -144 0
v -240 -160 0
v -256 -160 0
v -256 -144 0
v -240 -144 0
v 0 -176 0
v -16 -176 0
v -16 -160 0
v 0 -160 0
v -16 -176 0
v -32 -176 0
v -32 -160 0
v -16 -160 0
v -32 -176 0
v -48 -176 0
v -48 -160 0
v -32 -160 0
v -48 -176 0
v -64 -176 0
v -64 -160 0
v -48 -160 0
v -64 -176 0
v -80 -176 0
v -80 -160 0
v -64 -160 0
v -80 -176 0
v -96 -176 0
v -96 -160 0
v -80 -160 0
v -96 -176 0
v -112 -176 0
v -112 -160 0
v -96 -160 0
v -112 -176 0
v -128 -176 0
v -128 -160 0
v -112 -160 0
v -128 -176 0
v -144 -176 0
v -144 -160 0
v -128 -160 0
v -144 -176 0
v -160 -176 0
v -160 -160 0
v -144 -160 0
v -160 -176 0
v -176 -176 0
v -176 -160 0
v -160 -160 0
v -176 -176 0
v -192 -176 0
v -192 -160 0
v -176 -160 0
v -192 -176 0
v -208 -176 0
v -208 -160 0
v -192 -160 0
v -208 -176 0
v -224 -176 0
v -224 -160 0
v -208 -160 0
v -224 -176 0
v -240 -176 0
v -240 -160 0
v -224 -160 0
v -240 -176 0
v -256 -176 0
v -256 -160 0
v -240 -160 0
v 0 -192 0
v -16 -192 0
v -16 -176 0
v 0 -176 0
v -16 -192 0
v -32 -192 0
v -32 -176 0
v -16 -176 0
v -32 -192 0
v -48 -192 0
v -48 -176 0
v -32 -176 0
v -48 -192 0
v -64 -192 0
v -64 -176 0
v -48 -176 0
v -64 -192 0
v -80 -192 0
v -80 -176 0
v -64 -176 0
v -80 -192 0
v -96 -192 0
v -96 -176 0
v -80 -176 0
v -96 -192 0
v -112 -192 0
v -112 -176 0
v -96 -176 0
v -112 -192 0
v -128 -192 0
v -128 -176 0
v -112 -176 0
v -128 -192 0
v -144 -192 0
v -144 -176 0
v -128 -176 0
v -144 -192 0
v -160 -192 0
v -160 -176 0
v -144 -176 0
v -160 -192 0
v -176 -192 0
v -176 -176 0
v -160 -176 0
v -176 -192 0
v -192 -192 0
v -192 -176 0
v -176 -176 0
v -192 -192 0
v -208 -192 0
v -208 -176 0
v -192 -176 0
v -208 -192 0
v -224 -192 0
v -224 -176 0
v -208 -176 0
v -224 -192 0
v -240 -192 0
v -240 -176 0
v -224 -176 0
v -240 -192 0
v -256 -192 0
v -256 -176 0
v -240 -176 0
v 0 -208 0
v -16 -208 0
v -16 -192 0
v 0 -192 0
v -16 -208 0
v -32 -208 0
v -32 -192 0
v -16 -192 0
v -32 -208 0
v -48 -208 0
v -48 -192 0
v -32 -192 0
v -48 -208 0
v -64 -208 0
v -64 -192 0
v -48 -192 0
v -64 -208 0
v -80 -208 0
v -80 -192 0
v -64 -192 0
v -80 -208 0
v -96 -208 0
v -96 -192 0
v -80 -192 0
v -96 -208 0
v -112 -208 0
v -112 -192 0
v -96 -192 0
v -112 -208 0
v -128 -208 0
v -128 -192 0
v -112 -192 0
v -128 -208 0
v -144 -208 0
v -144 -192 0
v -128 -192 0
v -144 -208 0
v -160 -208 0
v -160 -192 0
v -144 -192 0
v -160 -208 0
v -176 -208 0
v -176 -192 0
v -160 -192 0
v -176 -208 0
v -192 -208 0
v -192 -192 0
v -176 -192 0
v -192 -208 0
v -208 -208 0
v -208 -192 0
v -192 -192 0
v -208 -208 0
v -224 -208 0
v -224 -192 0
v -208 -192 0
v -224 -208 0
v -240 -208 0
v -240 -192 0
v -224 -192 0
v -240 -208 0
v -256 -208 0
v -256 -192 0
v -240 -192 0
v -192 -224 0
v -208 -224 0
v -208 -208 0
v -192 -208 0
v -208 -224 0
v -224 -224 0
v -224 -208 0
v -208 -208 0
v -224 -224 0
v -240 -224 0
v -240 -208 0
v -224 -208 0
v -240 -224 0
v -256 -224 0
v -256 -208 0
v -240 -208 0
v -192 -240 0
v -208 -240 0
v -208 -224 0
v -192 -224 0
v -208 -240 0
v -224 -240 0
v -224 -224 0
v -208 -224 0
v -224 -240 0
v -240 -240 0
v -240 -224 0
v -224 -224 0
v -240 -240 0
v -256 -240 0
v -256 -224 0
v -240 -224 0
v -192 -256 0
v -208 -256 0
v -208 -240 0
v -192 -240 0
v -208 -256 0
v -224 -256 0
v -224 -240 0
v -208 -240 0
v -224 -256 0
v -240 -256 0
v -240 -240 0
v -224 -240 0
v -240 -256 0
v -256 -256 0
v -256 -240 0
v -240 -240 0

# Texture cooridinates (Count = 66)
vt 0.4042553 0.625
vt 0.4148936 0.625
vt 0.4148936 0.6875
vt 0.4042553 0.6875
vt 0.606383 0.1875
vt 0.6170213 0.1875
vt 0.6170213 0.25
vt 0.606383 0.25
vt 0.5531915 0.1875
vt 0.5638298 0.1875
vt 0.5638298 0.25
vt 0.5531915 0.25
vt 0.6276596 0.1875
vt 0.6276596 0.25
vt 0.680851 0.1875
vt 0.6914893 0.1875
vt 0.6914893 0.25
vt 0.680851 0.25
vt 0.393617 0.6875
vt 0.393617 0.625
vt 0.606383 0.75
vt 0.6170213 0.75
vt 0.6170213 0.8125
vt 0.606383 0.8125
vt 0.6276596 0.75
vt 0.6276596 0.8125
vt 0.6382979 0.75
vt 0.6382979 0.8125
vt 0.5744681 0.1875
vt 0.5744681 0.25
vt 0.3723404 0.625
vt 0.3829787 0.625
vt 0.3829787 0.6875
vt 0.3723404 0.6875
vt 0.7021276 0.1875
vt 0.7021276 0.25
vt 0.6382979 0.1875
vt 0.6382979 0.25
vt 0.6489362 0.1875
vt 0.6489362 0.25
vt 0.4361702 0.6875
vt 0.4255319 0.6875
vt 0.4255319 0.625
vt 0.4361702 0.625
vt 0.5425532 0.25
vt 0.5425532 0.1875
vt 0.6702127 0.25
vt 0.6595744 0.25
vt 0.6595744 0.1875
vt 0.6702127 0.1875
vt 0.606383 0.6875
vt 0.6170213 0.6875
vt 0.6276596 0.6875
vt 0.6382979 0.6875
vt 0.606383 0.625
vt 0.6170213 0.625
vt 0.6276596 0.625
vt 0.6382979 0.625
vt 0.6170213 0.875
vt 0.606383 0.875
vt 0.6276596 0.875
vt 0.6382979 0.875
vt 0.7127659 0.25
vt 0.7127659 0.1875
vt 0.5957447 0.25
vt 0.5957447 0.1875

# Normal
vn 0 0 -1

# Mesh description
g 2ScenarioPlataforma_mesh_0906

# Faces
f 1/1/1 2/2/1 3/3/1 4/4/1
f 5/5/1 6/6/1 7/7/1 8/8/1
f 9/9/1 10/10/1 11/11/1 12/12/1
f 13/6/1 14/13/1 15/14/1 16/7/1
f 17/9/1 18/10/1 19/11/1 20/12/1
f 21/15/1 22/16/1 23/17/1 24/18/1
f 25/4/1 26/19/1 27/20/1 28/1/1
f 29/21/1 30/22/1 31/23/1 32/24/1
f 33/22/1 34/25/1 35/26/1 36/23/1
f 37/25/1 38/27/1 39/28/1 40/26/1
f 41/21/1 42/22/1 43/23/1 44/24/1
f 45/22/1 46/25/1 47/26/1 48/23/1
f 49/10/1 50/29/1 51/30/1 52/11/1
f 53/9/1 54/10/1 55/11/1 56/12/1
f 57/31/1 58/32/1 59/33/1 60/34/1
f 61/16/1 62/35/1 63/36/1 64/17/1
f 65/13/1 66/37/1 67/38/1 68/14/1
f 69/37/1 70/39/1 71/40/1 72/38/1
f 73/15/1 74/16/1 75/17/1 76/18/1
f 77/33/1 78/34/1 79/31/1 80/32/1
f 81/41/1 82/42/1 83/43/1 84/44/1
f 85/12/1 86/45/1 87/46/1 88/9/1
f 89/47/1 90/48/1 91/49/1 92/50/1
f 93/51/1 94/52/1 95/22/1 96/21/1
f 97/52/1 98/53/1 99/25/1 100/22/1
f 101/53/1 102/54/1 103/27/1 104/25/1
f 105/51/1 106/52/1 107/22/1 108/21/1
f 109/52/1 110/53/1 111/25/1 112/22/1
f 113/53/1 114/54/1 115/27/1 116/25/1
f 117/51/1 118/52/1 119/22/1 120/21/1
f 121/52/1 122/53/1 123/25/1 124/22/1
f 125/53/1 126/54/1 127/27/1 128/25/1
f 129/51/1 130/52/1 131/22/1 132/21/1
f 133/52/1 134/53/1 135/25/1 136/22/1
f 137/53/1 138/54/1 139/27/1 140/25/1
f 141/51/1 142/52/1 143/22/1 144/21/1
f 145/52/1 146/53/1 147/25/1 148/22/1
f 149/53/1 150/54/1 151/27/1 152/25/1
f 153/51/1 154/52/1 155/22/1 156/21/1
f 157/55/1 158/56/1 159/52/1 160/51/1
f 161/56/1 162/57/1 163/53/1 164/52/1
f 165/57/1 166/58/1 167/54/1 168/53/1
f 169/55/1 170/56/1 171/52/1 172/51/1
f 173/56/1 174/57/1 175/53/1 176/52/1
f 177/57/1 178/58/1 179/54/1 180/53/1
f 181/55/1 182/56/1 183/52/1 184/51/1
f 185/56/1 186/57/1 187/53/1 188/52/1
f 189/57/1 190/58/1 191/54/1 192/53/1
f 193/55/1 194/56/1 195/52/1 196/51/1
f 197/56/1 198/57/1 199/53/1 200/52/1
f 201/57/1 202/58/1 203/54/1 204/53/1
f 205/55/1 206/56/1 207/52/1 208/51/1
f 209/56/1 210/57/1 211/53/1 212/52/1
f 213/57/1 214/58/1 215/54/1 216/53/1
f 217/55/1 218/56/1 219/52/1 220/51/1
f 221/24/1 222/23/1 223/59/1 224/60/1
f 225/23/1 226/26/1 227/61/1 228/59/1
f 229/26/1 230/28/1 231/62/1 232/61/1
f 233/24/1 234/23/1 235/59/1 236/60/1
f 237/23/1 238/26/1 239/61/1 240/59/1
f 241/26/1 242/28/1 243/62/1 244/61/1
f 245/24/1 246/23/1 247/59/1 248/60/1
f 249/23/1 250/26/1 251/61/1 252/59/1
f 253/26/1 254/28/1 255/62/1 256/61/1
f 257/24/1 258/23/1 259/59/1 260/60/1
f 261/23/1 262/26/1 263/61/1 264/59/1
f 265/26/1 266/28/1 267/62/1 268/61/1
f 269/24/1 270/23/1 271/59/1 272/60/1
f 273/23/1 274/26/1 275/61/1 276/59/1
f 277/26/1 278/28/1 279/62/1 280/61/1
f 281/24/1 282/23/1 283/59/1 284/60/1
f 285/21/1 286/22/1 287/23/1 288/24/1
f 289/22/1 290/25/1 291/26/1 292/23/1
f 293/25/1 294/27/1 295/28/1 296/26/1
f 297/21/1 298/22/1 299/23/1 300/24/1
f 301/22/1 302/25/1 303/26/1 304/23/1
f 305/25/1 306/27/1 307/28/1 308/26/1
f 309/21/1 310/22/1 311/23/1 312/24/1
f 313/22/1 314/25/1 315/26/1 316/23/1
f 317/25/1 318/27/1 319/28/1 320/26/1
f 321/21/1 322/22/1 323/23/1 324/24/1
f 325/22/1 326/25/1 327/26/1 328/23/1
f 329/25/1 330/27/1 331/28/1 332/26/1
f 333/21/1 334/22/1 335/23/1 336/24/1
f 337/22/1 338/25/1 339/26/1 340/23/1
f 341/25/1 342/27/1 343/28/1 344/26/1
f 345/21/1 346/22/1 347/23/1 348/24/1
f 349/51/1 350/52/1 351/22/1 352/21/1
f 353/52/1 354/53/1 355/25/1 356/22/1
f 357/53/1 358/54/1 359/27/1 360/25/1
f 361/51/1 362/52/1 363/22/1 364/21/1
f 365/52/1 366/53/1 367/25/1 368/22/1
f 369/53/1 370/54/1 371/27/1 372/25/1
f 373/51/1 374/52/1 375/22/1 376/21/1
f 377/52/1 378/53/1 379/25/1 380/22/1
f 381/53/1 382/54/1 383/27/1 384/25/1
f 385/51/1 386/52/1 387/22/1 388/21/1
f 389/52/1 390/53/1 391/25/1 392/22/1
f 393/53/1 394/54/1 395/27/1 396/25/1
f 397/51/1 398/52/1 399/22/1 400/21/1
f 401/52/1 402/53/1 403/25/1 404/22/1
f 405/53/1 406/54/1 407/27/1 408/25/1
f 409/51/1 410/52/1 411/22/1 412/21/1
f 413/41/1 414/42/1 415/43/1 416/44/1
f 417/17/1 418/18/1 419/15/1 420/16/1
f 421/48/1 422/40/1 423/39/1 424/49/1
f 425/33/1 426/34/1 427/31/1 428/32/1
f 429/33/1 430/34/1 431/31/1 432/32/1
f 433/41/1 434/42/1 435/43/1 436/44/1
f 437/40/1 438/38/1 439/37/1 440/39/1
f 441/41/1 442/42/1 443/43/1 444/44/1
f 445/38/1 446/14/1 447/13/1 448/37/1
f 449/40/1 450/38/1 451/37/1 452/39/1
f 453/63/1 454/36/1 455/35/1 456/64/1
f 457/11/1 458/12/1 459/9/1 460/10/1
f 461/18/1 462/47/1 463/50/1 464/15/1
f 465/56/1 466/57/1 467/53/1 468/52/1
f 469/57/1 470/58/1 471/54/1 472/53/1
f 473/55/1 474/56/1 475/52/1 476/51/1
f 477/6/1 478/13/1 479/14/1 480/7/1
f 481/23/1 482/26/1 483/61/1 484/59/1
f 485/26/1 486/28/1 487/62/1 488/61/1
f 489/24/1 490/23/1 491/59/1 492/60/1
f 493/18/1 494/15/1 495/16/1 496/17/1
f 497/22/1 498/25/1 499/26/1 500/23/1
f 501/25/1 502/27/1 503/28/1 504/26/1
f 505/21/1 506/22/1 507/23/1 508/24/1
f 509/65/1 510/66/1 511/5/1 512/8/1
f 513/52/1 514/53/1 515/25/1 516/22/1
f 517/53/1 518/54/1 519/27/1 520/25/1
f 521/51/1 522/52/1 523/22/1 524/21/1

