# Tiled2Unity generated file. Do not modify by hand.
# Wavefront file for '2ScenarioPlataforma_mesh_0924.obj'

# Vertices (Count = 24)
v -128 -176 0
v -144 -176 0
v -144 -160 0
v -128 -160 0
v -128 -192 0
v -144 -192 0
v -144 -176 0
v -128 -176 0
v -128 -208 0
v -144 -208 0
v -144 -192 0
v -128 -192 0
v -128 -224 0
v -144 -224 0
v -144 -208 0
v -128 -208 0
v -128 -240 0
v -144 -240 0
v -144 -224 0
v -128 -224 0
v -128 -256 0
v -144 -256 0
v -144 -240 0
v -128 -240 0

# Texture cooridinates (Count = 12)
vt 0.1170213 0.25
vt 0.1276596 0.25
vt 0.1276596 0.3125
vt 0.1170213 0.3125
vt 0.1382979 0.25
vt 0.1489362 0.25
vt 0.1489362 0.3125
vt 0.1382979 0.3125
vt 0.2659574 0.25
vt 0.2765957 0.25
vt 0.2765957 0.3125
vt 0.2659574 0.3125

# Normal
vn 0 0 -1

# Mesh description
g 2ScenarioPlataforma_mesh_0924

# Faces
f 1/1/1 2/2/1 3/3/1 4/4/1
f 5/5/1 6/6/1 7/7/1 8/8/1
f 9/2/1 10/5/1 11/8/1 12/3/1
f 13/1/1 14/2/1 15/3/1 16/4/1
f 17/1/1 18/2/1 19/3/1 20/4/1
f 21/9/1 22/10/1 23/11/1 24/12/1

