# Tiled2Unity generated file. Do not modify by hand.
# Wavefront file for '2ScenarioPlataforma_mesh_0905.obj'

# Vertices (Count = 560)
v 0 -96 0
v -16 -96 0
v -16 -80 0
v 0 -80 0
v -16 -96 0
v -32 -96 0
v -32 -80 0
v -16 -80 0
v -32 -96 0
v -48 -96 0
v -48 -80 0
v -32 -80 0
v -48 -96 0
v -64 -96 0
v -64 -80 0
v -48 -80 0
v -64 -96 0
v -80 -96 0
v -80 -80 0
v -64 -80 0
v -80 -96 0
v -96 -96 0
v -96 -80 0
v -80 -80 0
v -96 -96 0
v -112 -96 0
v -112 -80 0
v -96 -80 0
v -112 -96 0
v -128 -96 0
v -128 -80 0
v -112 -80 0
v -128 -96 0
v -144 -96 0
v -144 -80 0
v -128 -80 0
v -144 -96 0
v -160 -96 0
v -160 -80 0
v -144 -80 0
v -160 -96 0
v -176 -96 0
v -176 -80 0
v -160 -80 0
v -176 -96 0
v -192 -96 0
v -192 -80 0
v -176 -80 0
v -192 -96 0
v -208 -96 0
v -208 -80 0
v -192 -80 0
v -208 -96 0
v -224 -96 0
v -224 -80 0
v -208 -80 0
v -224 -96 0
v -240 -96 0
v -240 -80 0
v -224 -80 0
v -240 -96 0
v -256 -96 0
v -256 -80 0
v -240 -80 0
v 0 -112 0
v -16 -112 0
v -16 -96 0
v 0 -96 0
v -16 -112 0
v -32 -112 0
v -32 -96 0
v -16 -96 0
v -32 -112 0
v -48 -112 0
v -48 -96 0
v -32 -96 0
v -48 -112 0
v -64 -112 0
v -64 -96 0
v -48 -96 0
v -64 -112 0
v -80 -112 0
v -80 -96 0
v -64 -96 0
v -80 -112 0
v -96 -112 0
v -96 -96 0
v -80 -96 0
v -96 -112 0
v -112 -112 0
v -112 -96 0
v -96 -96 0
v -112 -112 0
v -128 -112 0
v -128 -96 0
v -112 -96 0
v -128 -112 0
v -144 -112 0
v -144 -96 0
v -128 -96 0
v -144 -112 0
v -160 -112 0
v -160 -96 0
v -144 -96 0
v -160 -112 0
v -176 -112 0
v -176 -96 0
v -160 -96 0
v -176 -112 0
v -192 -112 0
v -192 -96 0
v -176 -96 0
v -192 -112 0
v -208 -112 0
v -208 -96 0
v -192 -96 0
v -208 -112 0
v -224 -112 0
v -224 -96 0
v -208 -96 0
v -224 -112 0
v -240 -112 0
v -240 -96 0
v -224 -96 0
v -240 -112 0
v -256 -112 0
v -256 -96 0
v -240 -96 0
v 0 -128 0
v -16 -128 0
v -16 -112 0
v 0 -112 0
v -16 -128 0
v -32 -128 0
v -32 -112 0
v -16 -112 0
v -32 -128 0
v -48 -128 0
v -48 -112 0
v -32 -112 0
v -48 -128 0
v -64 -128 0
v -64 -112 0
v -48 -112 0
v -64 -128 0
v -80 -128 0
v -80 -112 0
v -64 -112 0
v -80 -128 0
v -96 -128 0
v -96 -112 0
v -80 -112 0
v -96 -128 0
v -112 -128 0
v -112 -112 0
v -96 -112 0
v -112 -128 0
v -128 -128 0
v -128 -112 0
v -112 -112 0
v -128 -128 0
v -144 -128 0
v -144 -112 0
v -128 -112 0
v -144 -128 0
v -160 -128 0
v -160 -112 0
v -144 -112 0
v -160 -128 0
v -176 -128 0
v -176 -112 0
v -160 -112 0
v -176 -128 0
v -192 -128 0
v -192 -112 0
v -176 -112 0
v -192 -128 0
v -208 -128 0
v -208 -112 0
v -192 -112 0
v -208 -128 0
v -224 -128 0
v -224 -112 0
v -208 -112 0
v -224 -128 0
v -240 -128 0
v -240 -112 0
v -224 -112 0
v -240 -128 0
v -256 -128 0
v -256 -112 0
v -240 -112 0
v 0 -144 0
v -16 -144 0
v -16 -128 0
v 0 -128 0
v -16 -144 0
v -32 -144 0
v -32 -128 0
v -16 -128 0
v -32 -144 0
v -48 -144 0
v -48 -128 0
v -32 -128 0
v -48 -144 0
v -64 -144 0
v -64 -128 0
v -48 -128 0
v -64 -144 0
v -80 -144 0
v -80 -128 0
v -64 -128 0
v -80 -144 0
v -96 -144 0
v -96 -128 0
v -80 -128 0
v -96 -144 0
v -112 -144 0
v -112 -128 0
v -96 -128 0
v -112 -144 0
v -128 -144 0
v -128 -128 0
v -112 -128 0
v -128 -144 0
v -144 -144 0
v -144 -128 0
v -128 -128 0
v -144 -144 0
v -160 -144 0
v -160 -128 0
v -144 -128 0
v -160 -144 0
v -176 -144 0
v -176 -128 0
v -160 -128 0
v -176 -144 0
v -192 -144 0
v -192 -128 0
v -176 -128 0
v -192 -144 0
v -208 -144 0
v -208 -128 0
v -192 -128 0
v -208 -144 0
v -224 -144 0
v -224 -128 0
v -208 -128 0
v -224 -144 0
v -240 -144 0
v -240 -128 0
v -224 -128 0
v -240 -144 0
v -256 -144 0
v -256 -128 0
v -240 -128 0
v 0 -160 0
v -16 -160 0
v -16 -144 0
v 0 -144 0
v -16 -160 0
v -32 -160 0
v -32 -144 0
v -16 -144 0
v -32 -160 0
v -48 -160 0
v -48 -144 0
v -32 -144 0
v -48 -160 0
v -64 -160 0
v -64 -144 0
v -48 -144 0
v -64 -160 0
v -80 -160 0
v -80 -144 0
v -64 -144 0
v -80 -160 0
v -96 -160 0
v -96 -144 0
v -80 -144 0
v -96 -160 0
v -112 -160 0
v -112 -144 0
v -96 -144 0
v -112 -160 0
v -128 -160 0
v -128 -144 0
v -112 -144 0
v -128 -160 0
v -144 -160 0
v -144 -144 0
v -128 -144 0
v -144 -160 0
v -160 -160 0
v -160 -144 0
v -144 -144 0
v -160 -160 0
v -176 -160 0
v -176 -144 0
v -160 -144 0
v -176 -160 0
v -192 -160 0
v -192 -144 0
v -176 -144 0
v -192 -160 0
v -208 -160 0
v -208 -144 0
v -192 -144 0
v -208 -160 0
v -224 -160 0
v -224 -144 0
v -208 -144 0
v -224 -160 0
v -240 -160 0
v -240 -144 0
v -224 -144 0
v -240 -160 0
v -256 -160 0
v -256 -144 0
v -240 -144 0
v 0 -176 0
v -16 -176 0
v -16 -160 0
v 0 -160 0
v -16 -176 0
v -32 -176 0
v -32 -160 0
v -16 -160 0
v -32 -176 0
v -48 -176 0
v -48 -160 0
v -32 -160 0
v -48 -176 0
v -64 -176 0
v -64 -160 0
v -48 -160 0
v -64 -176 0
v -80 -176 0
v -80 -160 0
v -64 -160 0
v -80 -176 0
v -96 -176 0
v -96 -160 0
v -80 -160 0
v -96 -176 0
v -112 -176 0
v -112 -160 0
v -96 -160 0
v -112 -176 0
v -128 -176 0
v -128 -160 0
v -112 -160 0
v -128 -176 0
v -144 -176 0
v -144 -160 0
v -128 -160 0
v -144 -176 0
v -160 -176 0
v -160 -160 0
v -144 -160 0
v -160 -176 0
v -176 -176 0
v -176 -160 0
v -160 -160 0
v -176 -176 0
v -192 -176 0
v -192 -160 0
v -176 -160 0
v -192 -176 0
v -208 -176 0
v -208 -160 0
v -192 -160 0
v -208 -176 0
v -224 -176 0
v -224 -160 0
v -208 -160 0
v -224 -176 0
v -240 -176 0
v -240 -160 0
v -224 -160 0
v -240 -176 0
v -256 -176 0
v -256 -160 0
v -240 -160 0
v 0 -192 0
v -16 -192 0
v -16 -176 0
v 0 -176 0
v -16 -192 0
v -32 -192 0
v -32 -176 0
v -16 -176 0
v -32 -192 0
v -48 -192 0
v -48 -176 0
v -32 -176 0
v -48 -192 0
v -64 -192 0
v -64 -176 0
v -48 -176 0
v -64 -192 0
v -80 -192 0
v -80 -176 0
v -64 -176 0
v -80 -192 0
v -96 -192 0
v -96 -176 0
v -80 -176 0
v -96 -192 0
v -112 -192 0
v -112 -176 0
v -96 -176 0
v -112 -192 0
v -128 -192 0
v -128 -176 0
v -112 -176 0
v -128 -192 0
v -144 -192 0
v -144 -176 0
v -128 -176 0
v -144 -192 0
v -160 -192 0
v -160 -176 0
v -144 -176 0
v -160 -192 0
v -176 -192 0
v -176 -176 0
v -160 -176 0
v -176 -192 0
v -192 -192 0
v -192 -176 0
v -176 -176 0
v -192 -192 0
v -208 -192 0
v -208 -176 0
v -192 -176 0
v -208 -192 0
v -224 -192 0
v -224 -176 0
v -208 -176 0
v -224 -192 0
v -240 -192 0
v -240 -176 0
v -224 -176 0
v -240 -192 0
v -256 -192 0
v -256 -176 0
v -240 -176 0
v 0 -208 0
v -16 -208 0
v -16 -192 0
v 0 -192 0
v -16 -208 0
v -32 -208 0
v -32 -192 0
v -16 -192 0
v -32 -208 0
v -48 -208 0
v -48 -192 0
v -32 -192 0
v -48 -208 0
v -64 -208 0
v -64 -192 0
v -48 -192 0
v -64 -208 0
v -80 -208 0
v -80 -192 0
v -64 -192 0
v -80 -208 0
v -96 -208 0
v -96 -192 0
v -80 -192 0
v -96 -208 0
v -112 -208 0
v -112 -192 0
v -96 -192 0
v -112 -208 0
v -128 -208 0
v -128 -192 0
v -112 -192 0
v -128 -208 0
v -144 -208 0
v -144 -192 0
v -128 -192 0
v -144 -208 0
v -160 -208 0
v -160 -192 0
v -144 -192 0
v -160 -208 0
v -176 -208 0
v -176 -192 0
v -160 -192 0
v -176 -208 0
v -192 -208 0
v -192 -192 0
v -176 -192 0
v -192 -208 0
v -208 -208 0
v -208 -192 0
v -192 -192 0
v -208 -208 0
v -224 -208 0
v -224 -192 0
v -208 -192 0
v -224 -208 0
v -240 -208 0
v -240 -192 0
v -224 -192 0
v -240 -208 0
v -256 -208 0
v -256 -192 0
v -240 -192 0
v 0 -224 0
v -16 -224 0
v -16 -208 0
v 0 -208 0
v -16 -224 0
v -32 -224 0
v -32 -208 0
v -16 -208 0
v -32 -224 0
v -48 -224 0
v -48 -208 0
v -32 -208 0
v -48 -224 0
v -64 -224 0
v -64 -208 0
v -48 -208 0
v 0 -240 0
v -16 -240 0
v -16 -224 0
v 0 -224 0
v -16 -240 0
v -32 -240 0
v -32 -224 0
v -16 -224 0
v -32 -240 0
v -48 -240 0
v -48 -224 0
v -32 -224 0
v -48 -240 0
v -64 -240 0
v -64 -224 0
v -48 -224 0
v 0 -256 0
v -16 -256 0
v -16 -240 0
v 0 -240 0
v -16 -256 0
v -32 -256 0
v -32 -240 0
v -16 -240 0
v -32 -256 0
v -48 -256 0
v -48 -240 0
v -32 -240 0
v -48 -256 0
v -64 -256 0
v -64 -240 0
v -48 -240 0

# Texture cooridinates (Count = 64)
vt 0.4042553 0.625
vt 0.4148936 0.625
vt 0.4148936 0.6875
vt 0.4042553 0.6875
vt 0.5531915 0.1875
vt 0.5638298 0.1875
vt 0.5638298 0.25
vt 0.5531915 0.25
vt 0.5744681 0.1875
vt 0.5744681 0.25
vt 0.7021276 0.1875
vt 0.7127659 0.1875
vt 0.7127659 0.25
vt 0.7021276 0.25
vt 0.5851064 0.1875
vt 0.5851064 0.25
vt 0.5957447 0.1875
vt 0.5957447 0.25
vt 0.4361702 0.625
vt 0.4468085 0.625
vt 0.4468085 0.6875
vt 0.4361702 0.6875
vt 0.3723404 0.625
vt 0.3829787 0.625
vt 0.3829787 0.6875
vt 0.3723404 0.6875
vt 0.4255319 0.625
vt 0.4255319 0.6875
vt 0.6276596 0.1875
vt 0.6382979 0.1875
vt 0.6382979 0.25
vt 0.6276596 0.25
vt 0.5425532 0.1875
vt 0.5425532 0.25
vt 0.6276596 0.75
vt 0.6382979 0.75
vt 0.6382979 0.8125
vt 0.6276596 0.8125
vt 0.606383 0.75
vt 0.6170213 0.75
vt 0.6170213 0.8125
vt 0.606383 0.8125
vt 0.6276596 0.6875
vt 0.6382979 0.6875
vt 0.606383 0.6875
vt 0.6170213 0.6875
vt 0.6276596 0.625
vt 0.6382979 0.625
vt 0.606383 0.625
vt 0.6170213 0.625
vt 0.6382979 0.875
vt 0.6276596 0.875
vt 0.6170213 0.875
vt 0.606383 0.875
vt 0.6595744 0.25
vt 0.6489362 0.25
vt 0.6489362 0.1875
vt 0.6595744 0.1875
vt 0.680851 0.25
vt 0.6702127 0.25
vt 0.6702127 0.1875
vt 0.680851 0.1875
vt 0.606383 0.25
vt 0.606383 0.1875

# Normal
vn 0 0 -1

# Mesh description
g 2ScenarioPlataforma_mesh_0905

# Faces
f 1/1/1 2/2/1 3/3/1 4/4/1
f 5/5/1 6/6/1 7/7/1 8/8/1
f 9/6/1 10/9/1 11/10/1 12/7/1
f 13/11/1 14/12/1 15/13/1 16/14/1
f 17/9/1 18/15/1 19/16/1 20/10/1
f 21/15/1 22/17/1 23/18/1 24/16/1
f 25/19/1 26/20/1 27/21/1 28/22/1
f 29/23/1 30/24/1 31/25/1 32/26/1
f 33/9/1 34/15/1 35/16/1 36/10/1
f 37/2/1 38/27/1 39/28/1 40/3/1
f 41/29/1 42/30/1 43/31/1 44/32/1
f 45/27/1 46/19/1 47/22/1 48/28/1
f 49/2/1 50/27/1 51/28/1 52/3/1
f 53/9/1 54/15/1 55/16/1 56/10/1
f 57/33/1 58/5/1 59/8/1 60/34/1
f 61/6/1 62/9/1 63/10/1 64/7/1
f 65/35/1 66/36/1 67/37/1 68/38/1
f 69/39/1 70/40/1 71/41/1 72/42/1
f 73/40/1 74/35/1 75/38/1 76/41/1
f 77/35/1 78/36/1 79/37/1 80/38/1
f 81/39/1 82/40/1 83/41/1 84/42/1
f 85/40/1 86/35/1 87/38/1 88/41/1
f 89/35/1 90/36/1 91/37/1 92/38/1
f 93/39/1 94/40/1 95/41/1 96/42/1
f 97/40/1 98/35/1 99/38/1 100/41/1
f 101/35/1 102/36/1 103/37/1 104/38/1
f 105/39/1 106/40/1 107/41/1 108/42/1
f 109/40/1 110/35/1 111/38/1 112/41/1
f 113/35/1 114/36/1 115/37/1 116/38/1
f 117/39/1 118/40/1 119/41/1 120/42/1
f 121/40/1 122/35/1 123/38/1 124/41/1
f 125/35/1 126/36/1 127/37/1 128/38/1
f 129/43/1 130/44/1 131/36/1 132/35/1
f 133/45/1 134/46/1 135/40/1 136/39/1
f 137/46/1 138/43/1 139/35/1 140/40/1
f 141/43/1 142/44/1 143/36/1 144/35/1
f 145/45/1 146/46/1 147/40/1 148/39/1
f 149/46/1 150/43/1 151/35/1 152/40/1
f 153/43/1 154/44/1 155/36/1 156/35/1
f 157/45/1 158/46/1 159/40/1 160/39/1
f 161/46/1 162/43/1 163/35/1 164/40/1
f 165/43/1 166/44/1 167/36/1 168/35/1
f 169/45/1 170/46/1 171/40/1 172/39/1
f 173/46/1 174/43/1 175/35/1 176/40/1
f 177/43/1 178/44/1 179/36/1 180/35/1
f 181/45/1 182/46/1 183/40/1 184/39/1
f 185/46/1 186/43/1 187/35/1 188/40/1
f 189/43/1 190/44/1 191/36/1 192/35/1
f 193/47/1 194/48/1 195/44/1 196/43/1
f 197/49/1 198/50/1 199/46/1 200/45/1
f 201/50/1 202/47/1 203/43/1 204/46/1
f 205/47/1 206/48/1 207/44/1 208/43/1
f 209/49/1 210/50/1 211/46/1 212/45/1
f 213/50/1 214/47/1 215/43/1 216/46/1
f 217/47/1 218/48/1 219/44/1 220/43/1
f 221/49/1 222/50/1 223/46/1 224/45/1
f 225/50/1 226/47/1 227/43/1 228/46/1
f 229/47/1 230/48/1 231/44/1 232/43/1
f 233/49/1 234/50/1 235/46/1 236/45/1
f 237/50/1 238/47/1 239/43/1 240/46/1
f 241/47/1 242/48/1 243/44/1 244/43/1
f 245/49/1 246/50/1 247/46/1 248/45/1
f 249/50/1 250/47/1 251/43/1 252/46/1
f 253/47/1 254/48/1 255/44/1 256/43/1
f 257/38/1 258/37/1 259/51/1 260/52/1
f 261/42/1 262/41/1 263/53/1 264/54/1
f 265/41/1 266/38/1 267/52/1 268/53/1
f 269/38/1 270/37/1 271/51/1 272/52/1
f 273/42/1 274/41/1 275/53/1 276/54/1
f 277/41/1 278/38/1 279/52/1 280/53/1
f 281/38/1 282/37/1 283/51/1 284/52/1
f 285/42/1 286/41/1 287/53/1 288/54/1
f 289/41/1 290/38/1 291/52/1 292/53/1
f 293/38/1 294/37/1 295/51/1 296/52/1
f 297/42/1 298/41/1 299/53/1 300/54/1
f 301/41/1 302/38/1 303/52/1 304/53/1
f 305/38/1 306/37/1 307/51/1 308/52/1
f 309/42/1 310/41/1 311/53/1 312/54/1
f 313/41/1 314/38/1 315/52/1 316/53/1
f 317/38/1 318/37/1 319/51/1 320/52/1
f 321/35/1 322/36/1 323/37/1 324/38/1
f 325/39/1 326/40/1 327/41/1 328/42/1
f 329/40/1 330/35/1 331/38/1 332/41/1
f 333/35/1 334/36/1 335/37/1 336/38/1
f 337/39/1 338/40/1 339/41/1 340/42/1
f 341/40/1 342/35/1 343/38/1 344/41/1
f 345/35/1 346/36/1 347/37/1 348/38/1
f 349/39/1 350/40/1 351/41/1 352/42/1
f 353/40/1 354/35/1 355/38/1 356/41/1
f 357/35/1 358/36/1 359/37/1 360/38/1
f 361/39/1 362/40/1 363/41/1 364/42/1
f 365/40/1 366/35/1 367/38/1 368/41/1
f 369/35/1 370/36/1 371/37/1 372/38/1
f 373/39/1 374/40/1 375/41/1 376/42/1
f 377/40/1 378/35/1 379/38/1 380/41/1
f 381/35/1 382/36/1 383/37/1 384/38/1
f 385/43/1 386/44/1 387/36/1 388/35/1
f 389/45/1 390/46/1 391/40/1 392/39/1
f 393/46/1 394/43/1 395/35/1 396/40/1
f 397/43/1 398/44/1 399/36/1 400/35/1
f 401/45/1 402/46/1 403/40/1 404/39/1
f 405/46/1 406/43/1 407/35/1 408/40/1
f 409/43/1 410/44/1 411/36/1 412/35/1
f 413/45/1 414/46/1 415/40/1 416/39/1
f 417/46/1 418/43/1 419/35/1 420/40/1
f 421/43/1 422/44/1 423/36/1 424/35/1
f 425/45/1 426/46/1 427/40/1 428/39/1
f 429/46/1 430/43/1 431/35/1 432/40/1
f 433/43/1 434/44/1 435/36/1 436/35/1
f 437/45/1 438/46/1 439/40/1 440/39/1
f 441/46/1 442/43/1 443/35/1 444/40/1
f 445/43/1 446/44/1 447/36/1 448/35/1
f 449/47/1 450/48/1 451/44/1 452/43/1
f 453/49/1 454/50/1 455/46/1 456/45/1
f 457/50/1 458/47/1 459/43/1 460/46/1
f 461/21/1 462/22/1 463/19/1 464/20/1
f 465/10/1 466/7/1 467/6/1 468/9/1
f 469/18/1 470/16/1 471/15/1 472/17/1
f 473/55/1 474/56/1 475/57/1 476/58/1
f 477/7/1 478/8/1 479/5/1 480/6/1
f 481/59/1 482/60/1 483/61/1 484/62/1
f 485/63/1 486/18/1 487/17/1 488/64/1
f 489/56/1 490/31/1 491/30/1 492/57/1
f 493/31/1 494/32/1 495/29/1 496/30/1
f 497/28/1 498/3/1 499/2/1 500/27/1
f 501/60/1 502/55/1 503/58/1 504/61/1
f 505/3/1 506/4/1 507/1/1 508/2/1
f 509/55/1 510/56/1 511/57/1 512/58/1
f 513/38/1 514/37/1 515/51/1 516/52/1
f 517/42/1 518/41/1 519/53/1 520/54/1
f 521/41/1 522/38/1 523/52/1 524/53/1
f 525/24/1 526/25/1 527/26/1 528/23/1
f 529/35/1 530/36/1 531/37/1 532/38/1
f 533/39/1 534/40/1 535/41/1 536/42/1
f 537/40/1 538/35/1 539/38/1 540/41/1
f 541/6/1 542/7/1 543/8/1 544/5/1
f 545/43/1 546/44/1 547/36/1 548/35/1
f 549/45/1 550/46/1 551/40/1 552/39/1
f 553/46/1 554/43/1 555/35/1 556/40/1
f 557/57/1 558/56/1 559/31/1 560/30/1

