# Tiled2Unity generated file. Do not modify by hand.
# Wavefront file for '2ScenarioPlataforma_mesh_0337.obj'

# Vertices (Count = 1024)
v 0 -16 0
v -16 -16 0
v -16 0 0
v 0 0 0
v -16 -16 0
v -32 -16 0
v -32 0 0
v -16 0 0
v -32 -16 0
v -48 -16 0
v -48 0 0
v -32 0 0
v -48 -16 0
v -64 -16 0
v -64 0 0
v -48 0 0
v -64 -16 0
v -80 -16 0
v -80 0 0
v -64 0 0
v -80 -16 0
v -96 -16 0
v -96 0 0
v -80 0 0
v -96 -16 0
v -112 -16 0
v -112 0 0
v -96 0 0
v -112 -16 0
v -128 -16 0
v -128 0 0
v -112 0 0
v -128 -16 0
v -144 -16 0
v -144 0 0
v -128 0 0
v -144 -16 0
v -160 -16 0
v -160 0 0
v -144 0 0
v -160 -16 0
v -176 -16 0
v -176 0 0
v -160 0 0
v -176 -16 0
v -192 -16 0
v -192 0 0
v -176 0 0
v -192 -16 0
v -208 -16 0
v -208 0 0
v -192 0 0
v -208 -16 0
v -224 -16 0
v -224 0 0
v -208 0 0
v -224 -16 0
v -240 -16 0
v -240 0 0
v -224 0 0
v -240 -16 0
v -256 -16 0
v -256 0 0
v -240 0 0
v 0 -32 0
v -16 -32 0
v -16 -16 0
v 0 -16 0
v -16 -32 0
v -32 -32 0
v -32 -16 0
v -16 -16 0
v -32 -32 0
v -48 -32 0
v -48 -16 0
v -32 -16 0
v -48 -32 0
v -64 -32 0
v -64 -16 0
v -48 -16 0
v -64 -32 0
v -80 -32 0
v -80 -16 0
v -64 -16 0
v -80 -32 0
v -96 -32 0
v -96 -16 0
v -80 -16 0
v -96 -32 0
v -112 -32 0
v -112 -16 0
v -96 -16 0
v -112 -32 0
v -128 -32 0
v -128 -16 0
v -112 -16 0
v -128 -32 0
v -144 -32 0
v -144 -16 0
v -128 -16 0
v -144 -32 0
v -160 -32 0
v -160 -16 0
v -144 -16 0
v -160 -32 0
v -176 -32 0
v -176 -16 0
v -160 -16 0
v -176 -32 0
v -192 -32 0
v -192 -16 0
v -176 -16 0
v -192 -32 0
v -208 -32 0
v -208 -16 0
v -192 -16 0
v -208 -32 0
v -224 -32 0
v -224 -16 0
v -208 -16 0
v -224 -32 0
v -240 -32 0
v -240 -16 0
v -224 -16 0
v -240 -32 0
v -256 -32 0
v -256 -16 0
v -240 -16 0
v 0 -48 0
v -16 -48 0
v -16 -32 0
v 0 -32 0
v -16 -48 0
v -32 -48 0
v -32 -32 0
v -16 -32 0
v -32 -48 0
v -48 -48 0
v -48 -32 0
v -32 -32 0
v -48 -48 0
v -64 -48 0
v -64 -32 0
v -48 -32 0
v -64 -48 0
v -80 -48 0
v -80 -32 0
v -64 -32 0
v -80 -48 0
v -96 -48 0
v -96 -32 0
v -80 -32 0
v -96 -48 0
v -112 -48 0
v -112 -32 0
v -96 -32 0
v -112 -48 0
v -128 -48 0
v -128 -32 0
v -112 -32 0
v -128 -48 0
v -144 -48 0
v -144 -32 0
v -128 -32 0
v -144 -48 0
v -160 -48 0
v -160 -32 0
v -144 -32 0
v -160 -48 0
v -176 -48 0
v -176 -32 0
v -160 -32 0
v -176 -48 0
v -192 -48 0
v -192 -32 0
v -176 -32 0
v -192 -48 0
v -208 -48 0
v -208 -32 0
v -192 -32 0
v -208 -48 0
v -224 -48 0
v -224 -32 0
v -208 -32 0
v -224 -48 0
v -240 -48 0
v -240 -32 0
v -224 -32 0
v -240 -48 0
v -256 -48 0
v -256 -32 0
v -240 -32 0
v 0 -64 0
v -16 -64 0
v -16 -48 0
v 0 -48 0
v -16 -64 0
v -32 -64 0
v -32 -48 0
v -16 -48 0
v -32 -64 0
v -48 -64 0
v -48 -48 0
v -32 -48 0
v -48 -64 0
v -64 -64 0
v -64 -48 0
v -48 -48 0
v -64 -64 0
v -80 -64 0
v -80 -48 0
v -64 -48 0
v -80 -64 0
v -96 -64 0
v -96 -48 0
v -80 -48 0
v -96 -64 0
v -112 -64 0
v -112 -48 0
v -96 -48 0
v -112 -64 0
v -128 -64 0
v -128 -48 0
v -112 -48 0
v -128 -64 0
v -144 -64 0
v -144 -48 0
v -128 -48 0
v -144 -64 0
v -160 -64 0
v -160 -48 0
v -144 -48 0
v -160 -64 0
v -176 -64 0
v -176 -48 0
v -160 -48 0
v -176 -64 0
v -192 -64 0
v -192 -48 0
v -176 -48 0
v -192 -64 0
v -208 -64 0
v -208 -48 0
v -192 -48 0
v -208 -64 0
v -224 -64 0
v -224 -48 0
v -208 -48 0
v -224 -64 0
v -240 -64 0
v -240 -48 0
v -224 -48 0
v -240 -64 0
v -256 -64 0
v -256 -48 0
v -240 -48 0
v 0 -80 0
v -16 -80 0
v -16 -64 0
v 0 -64 0
v -16 -80 0
v -32 -80 0
v -32 -64 0
v -16 -64 0
v -32 -80 0
v -48 -80 0
v -48 -64 0
v -32 -64 0
v -48 -80 0
v -64 -80 0
v -64 -64 0
v -48 -64 0
v -64 -80 0
v -80 -80 0
v -80 -64 0
v -64 -64 0
v -80 -80 0
v -96 -80 0
v -96 -64 0
v -80 -64 0
v -96 -80 0
v -112 -80 0
v -112 -64 0
v -96 -64 0
v -112 -80 0
v -128 -80 0
v -128 -64 0
v -112 -64 0
v -128 -80 0
v -144 -80 0
v -144 -64 0
v -128 -64 0
v -144 -80 0
v -160 -80 0
v -160 -64 0
v -144 -64 0
v -160 -80 0
v -176 -80 0
v -176 -64 0
v -160 -64 0
v -176 -80 0
v -192 -80 0
v -192 -64 0
v -176 -64 0
v -192 -80 0
v -208 -80 0
v -208 -64 0
v -192 -64 0
v -208 -80 0
v -224 -80 0
v -224 -64 0
v -208 -64 0
v -224 -80 0
v -240 -80 0
v -240 -64 0
v -224 -64 0
v -240 -80 0
v -256 -80 0
v -256 -64 0
v -240 -64 0
v 0 -96 0
v -16 -96 0
v -16 -80 0
v 0 -80 0
v -16 -96 0
v -32 -96 0
v -32 -80 0
v -16 -80 0
v -32 -96 0
v -48 -96 0
v -48 -80 0
v -32 -80 0
v -48 -96 0
v -64 -96 0
v -64 -80 0
v -48 -80 0
v -64 -96 0
v -80 -96 0
v -80 -80 0
v -64 -80 0
v -80 -96 0
v -96 -96 0
v -96 -80 0
v -80 -80 0
v -96 -96 0
v -112 -96 0
v -112 -80 0
v -96 -80 0
v -112 -96 0
v -128 -96 0
v -128 -80 0
v -112 -80 0
v -128 -96 0
v -144 -96 0
v -144 -80 0
v -128 -80 0
v -144 -96 0
v -160 -96 0
v -160 -80 0
v -144 -80 0
v -160 -96 0
v -176 -96 0
v -176 -80 0
v -160 -80 0
v -176 -96 0
v -192 -96 0
v -192 -80 0
v -176 -80 0
v -192 -96 0
v -208 -96 0
v -208 -80 0
v -192 -80 0
v -208 -96 0
v -224 -96 0
v -224 -80 0
v -208 -80 0
v -224 -96 0
v -240 -96 0
v -240 -80 0
v -224 -80 0
v -240 -96 0
v -256 -96 0
v -256 -80 0
v -240 -80 0
v 0 -112 0
v -16 -112 0
v -16 -96 0
v 0 -96 0
v -16 -112 0
v -32 -112 0
v -32 -96 0
v -16 -96 0
v -32 -112 0
v -48 -112 0
v -48 -96 0
v -32 -96 0
v -48 -112 0
v -64 -112 0
v -64 -96 0
v -48 -96 0
v -64 -112 0
v -80 -112 0
v -80 -96 0
v -64 -96 0
v -80 -112 0
v -96 -112 0
v -96 -96 0
v -80 -96 0
v -96 -112 0
v -112 -112 0
v -112 -96 0
v -96 -96 0
v -112 -112 0
v -128 -112 0
v -128 -96 0
v -112 -96 0
v -128 -112 0
v -144 -112 0
v -144 -96 0
v -128 -96 0
v -144 -112 0
v -160 -112 0
v -160 -96 0
v -144 -96 0
v -160 -112 0
v -176 -112 0
v -176 -96 0
v -160 -96 0
v -176 -112 0
v -192 -112 0
v -192 -96 0
v -176 -96 0
v -192 -112 0
v -208 -112 0
v -208 -96 0
v -192 -96 0
v -208 -112 0
v -224 -112 0
v -224 -96 0
v -208 -96 0
v -224 -112 0
v -240 -112 0
v -240 -96 0
v -224 -96 0
v -240 -112 0
v -256 -112 0
v -256 -96 0
v -240 -96 0
v 0 -128 0
v -16 -128 0
v -16 -112 0
v 0 -112 0
v -16 -128 0
v -32 -128 0
v -32 -112 0
v -16 -112 0
v -32 -128 0
v -48 -128 0
v -48 -112 0
v -32 -112 0
v -48 -128 0
v -64 -128 0
v -64 -112 0
v -48 -112 0
v -64 -128 0
v -80 -128 0
v -80 -112 0
v -64 -112 0
v -80 -128 0
v -96 -128 0
v -96 -112 0
v -80 -112 0
v -96 -128 0
v -112 -128 0
v -112 -112 0
v -96 -112 0
v -112 -128 0
v -128 -128 0
v -128 -112 0
v -112 -112 0
v -128 -128 0
v -144 -128 0
v -144 -112 0
v -128 -112 0
v -144 -128 0
v -160 -128 0
v -160 -112 0
v -144 -112 0
v -160 -128 0
v -176 -128 0
v -176 -112 0
v -160 -112 0
v -176 -128 0
v -192 -128 0
v -192 -112 0
v -176 -112 0
v -192 -128 0
v -208 -128 0
v -208 -112 0
v -192 -112 0
v -208 -128 0
v -224 -128 0
v -224 -112 0
v -208 -112 0
v -224 -128 0
v -240 -128 0
v -240 -112 0
v -224 -112 0
v -240 -128 0
v -256 -128 0
v -256 -112 0
v -240 -112 0
v 0 -144 0
v -16 -144 0
v -16 -128 0
v 0 -128 0
v -16 -144 0
v -32 -144 0
v -32 -128 0
v -16 -128 0
v -32 -144 0
v -48 -144 0
v -48 -128 0
v -32 -128 0
v -48 -144 0
v -64 -144 0
v -64 -128 0
v -48 -128 0
v -64 -144 0
v -80 -144 0
v -80 -128 0
v -64 -128 0
v -80 -144 0
v -96 -144 0
v -96 -128 0
v -80 -128 0
v -96 -144 0
v -112 -144 0
v -112 -128 0
v -96 -128 0
v -112 -144 0
v -128 -144 0
v -128 -128 0
v -112 -128 0
v -128 -144 0
v -144 -144 0
v -144 -128 0
v -128 -128 0
v -144 -144 0
v -160 -144 0
v -160 -128 0
v -144 -128 0
v -160 -144 0
v -176 -144 0
v -176 -128 0
v -160 -128 0
v -176 -144 0
v -192 -144 0
v -192 -128 0
v -176 -128 0
v -192 -144 0
v -208 -144 0
v -208 -128 0
v -192 -128 0
v -208 -144 0
v -224 -144 0
v -224 -128 0
v -208 -128 0
v -224 -144 0
v -240 -144 0
v -240 -128 0
v -224 -128 0
v -240 -144 0
v -256 -144 0
v -256 -128 0
v -240 -128 0
v 0 -160 0
v -16 -160 0
v -16 -144 0
v 0 -144 0
v -16 -160 0
v -32 -160 0
v -32 -144 0
v -16 -144 0
v -32 -160 0
v -48 -160 0
v -48 -144 0
v -32 -144 0
v -48 -160 0
v -64 -160 0
v -64 -144 0
v -48 -144 0
v -64 -160 0
v -80 -160 0
v -80 -144 0
v -64 -144 0
v -80 -160 0
v -96 -160 0
v -96 -144 0
v -80 -144 0
v -96 -160 0
v -112 -160 0
v -112 -144 0
v -96 -144 0
v -112 -160 0
v -128 -160 0
v -128 -144 0
v -112 -144 0
v -128 -160 0
v -144 -160 0
v -144 -144 0
v -128 -144 0
v -144 -160 0
v -160 -160 0
v -160 -144 0
v -144 -144 0
v -160 -160 0
v -176 -160 0
v -176 -144 0
v -160 -144 0
v -176 -160 0
v -192 -160 0
v -192 -144 0
v -176 -144 0
v -192 -160 0
v -208 -160 0
v -208 -144 0
v -192 -144 0
v -208 -160 0
v -224 -160 0
v -224 -144 0
v -208 -144 0
v -224 -160 0
v -240 -160 0
v -240 -144 0
v -224 -144 0
v -240 -160 0
v -256 -160 0
v -256 -144 0
v -240 -144 0
v 0 -176 0
v -16 -176 0
v -16 -160 0
v 0 -160 0
v -16 -176 0
v -32 -176 0
v -32 -160 0
v -16 -160 0
v -32 -176 0
v -48 -176 0
v -48 -160 0
v -32 -160 0
v -48 -176 0
v -64 -176 0
v -64 -160 0
v -48 -160 0
v -64 -176 0
v -80 -176 0
v -80 -160 0
v -64 -160 0
v -80 -176 0
v -96 -176 0
v -96 -160 0
v -80 -160 0
v -96 -176 0
v -112 -176 0
v -112 -160 0
v -96 -160 0
v -112 -176 0
v -128 -176 0
v -128 -160 0
v -112 -160 0
v -128 -176 0
v -144 -176 0
v -144 -160 0
v -128 -160 0
v -144 -176 0
v -160 -176 0
v -160 -160 0
v -144 -160 0
v -160 -176 0
v -176 -176 0
v -176 -160 0
v -160 -160 0
v -176 -176 0
v -192 -176 0
v -192 -160 0
v -176 -160 0
v -192 -176 0
v -208 -176 0
v -208 -160 0
v -192 -160 0
v -208 -176 0
v -224 -176 0
v -224 -160 0
v -208 -160 0
v -224 -176 0
v -240 -176 0
v -240 -160 0
v -224 -160 0
v -240 -176 0
v -256 -176 0
v -256 -160 0
v -240 -160 0
v 0 -192 0
v -16 -192 0
v -16 -176 0
v 0 -176 0
v -16 -192 0
v -32 -192 0
v -32 -176 0
v -16 -176 0
v -32 -192 0
v -48 -192 0
v -48 -176 0
v -32 -176 0
v -48 -192 0
v -64 -192 0
v -64 -176 0
v -48 -176 0
v -64 -192 0
v -80 -192 0
v -80 -176 0
v -64 -176 0
v -80 -192 0
v -96 -192 0
v -96 -176 0
v -80 -176 0
v -96 -192 0
v -112 -192 0
v -112 -176 0
v -96 -176 0
v -112 -192 0
v -128 -192 0
v -128 -176 0
v -112 -176 0
v -128 -192 0
v -144 -192 0
v -144 -176 0
v -128 -176 0
v -144 -192 0
v -160 -192 0
v -160 -176 0
v -144 -176 0
v -160 -192 0
v -176 -192 0
v -176 -176 0
v -160 -176 0
v -176 -192 0
v -192 -192 0
v -192 -176 0
v -176 -176 0
v -192 -192 0
v -208 -192 0
v -208 -176 0
v -192 -176 0
v -208 -192 0
v -224 -192 0
v -224 -176 0
v -208 -176 0
v -224 -192 0
v -240 -192 0
v -240 -176 0
v -224 -176 0
v -240 -192 0
v -256 -192 0
v -256 -176 0
v -240 -176 0
v 0 -208 0
v -16 -208 0
v -16 -192 0
v 0 -192 0
v -16 -208 0
v -32 -208 0
v -32 -192 0
v -16 -192 0
v -32 -208 0
v -48 -208 0
v -48 -192 0
v -32 -192 0
v -48 -208 0
v -64 -208 0
v -64 -192 0
v -48 -192 0
v -64 -208 0
v -80 -208 0
v -80 -192 0
v -64 -192 0
v -80 -208 0
v -96 -208 0
v -96 -192 0
v -80 -192 0
v -96 -208 0
v -112 -208 0
v -112 -192 0
v -96 -192 0
v -112 -208 0
v -128 -208 0
v -128 -192 0
v -112 -192 0
v -128 -208 0
v -144 -208 0
v -144 -192 0
v -128 -192 0
v -144 -208 0
v -160 -208 0
v -160 -192 0
v -144 -192 0
v -160 -208 0
v -176 -208 0
v -176 -192 0
v -160 -192 0
v -176 -208 0
v -192 -208 0
v -192 -192 0
v -176 -192 0
v -192 -208 0
v -208 -208 0
v -208 -192 0
v -192 -192 0
v -208 -208 0
v -224 -208 0
v -224 -192 0
v -208 -192 0
v -224 -208 0
v -240 -208 0
v -240 -192 0
v -224 -192 0
v -240 -208 0
v -256 -208 0
v -256 -192 0
v -240 -192 0
v 0 -224 0
v -16 -224 0
v -16 -208 0
v 0 -208 0
v -16 -224 0
v -32 -224 0
v -32 -208 0
v -16 -208 0
v -32 -224 0
v -48 -224 0
v -48 -208 0
v -32 -208 0
v -48 -224 0
v -64 -224 0
v -64 -208 0
v -48 -208 0
v -64 -224 0
v -80 -224 0
v -80 -208 0
v -64 -208 0
v -80 -224 0
v -96 -224 0
v -96 -208 0
v -80 -208 0
v -96 -224 0
v -112 -224 0
v -112 -208 0
v -96 -208 0
v -112 -224 0
v -128 -224 0
v -128 -208 0
v -112 -208 0
v -128 -224 0
v -144 -224 0
v -144 -208 0
v -128 -208 0
v -144 -224 0
v -160 -224 0
v -160 -208 0
v -144 -208 0
v -160 -224 0
v -176 -224 0
v -176 -208 0
v -160 -208 0
v -176 -224 0
v -192 -224 0
v -192 -208 0
v -176 -208 0
v -192 -224 0
v -208 -224 0
v -208 -208 0
v -192 -208 0
v -208 -224 0
v -224 -224 0
v -224 -208 0
v -208 -208 0
v -224 -224 0
v -240 -224 0
v -240 -208 0
v -224 -208 0
v -240 -224 0
v -256 -224 0
v -256 -208 0
v -240 -208 0
v 0 -240 0
v -16 -240 0
v -16 -224 0
v 0 -224 0
v -16 -240 0
v -32 -240 0
v -32 -224 0
v -16 -224 0
v -32 -240 0
v -48 -240 0
v -48 -224 0
v -32 -224 0
v -48 -240 0
v -64 -240 0
v -64 -224 0
v -48 -224 0
v -64 -240 0
v -80 -240 0
v -80 -224 0
v -64 -224 0
v -80 -240 0
v -96 -240 0
v -96 -224 0
v -80 -224 0
v -96 -240 0
v -112 -240 0
v -112 -224 0
v -96 -224 0
v -112 -240 0
v -128 -240 0
v -128 -224 0
v -112 -224 0
v -128 -240 0
v -144 -240 0
v -144 -224 0
v -128 -224 0
v -144 -240 0
v -160 -240 0
v -160 -224 0
v -144 -224 0
v -160 -240 0
v -176 -240 0
v -176 -224 0
v -160 -224 0
v -176 -240 0
v -192 -240 0
v -192 -224 0
v -176 -224 0
v -192 -240 0
v -208 -240 0
v -208 -224 0
v -192 -224 0
v -208 -240 0
v -224 -240 0
v -224 -224 0
v -208 -224 0
v -224 -240 0
v -240 -240 0
v -240 -224 0
v -224 -224 0
v -240 -240 0
v -256 -240 0
v -256 -224 0
v -240 -224 0
v 0 -256 0
v -16 -256 0
v -16 -240 0
v 0 -240 0
v -16 -256 0
v -32 -256 0
v -32 -240 0
v -16 -240 0
v -32 -256 0
v -48 -256 0
v -48 -240 0
v -32 -240 0
v -48 -256 0
v -64 -256 0
v -64 -240 0
v -48 -240 0
v -64 -256 0
v -80 -256 0
v -80 -240 0
v -64 -240 0
v -80 -256 0
v -96 -256 0
v -96 -240 0
v -80 -240 0
v -96 -256 0
v -112 -256 0
v -112 -240 0
v -96 -240 0
v -112 -256 0
v -128 -256 0
v -128 -240 0
v -112 -240 0
v -128 -256 0
v -144 -256 0
v -144 -240 0
v -128 -240 0
v -144 -256 0
v -160 -256 0
v -160 -240 0
v -144 -240 0
v -160 -256 0
v -176 -256 0
v -176 -240 0
v -160 -240 0
v -176 -256 0
v -192 -256 0
v -192 -240 0
v -176 -240 0
v -192 -256 0
v -208 -256 0
v -208 -240 0
v -192 -240 0
v -208 -256 0
v -224 -256 0
v -224 -240 0
v -208 -240 0
v -224 -256 0
v -240 -256 0
v -240 -240 0
v -224 -240 0
v -240 -256 0
v -256 -256 0
v -256 -240 0
v -240 -240 0

# Texture cooridinates (Count = 42)
vt 0.1276596 0.9375
vt 0.1170213 0.9375
vt 0.1170213 0.875
vt 0.1276596 0.875
vt 0.106383 0.9375
vt 0.106383 0.875
vt 0.09574468 0.9375
vt 0.09574468 0.875
vt 0.08510638 0.9375
vt 0.08510638 0.875
vt 0.07446808 0.9375
vt 0.07446808 0.875
vt 0.06382979 0.9375
vt 0.06382979 0.875
vt 0.05319149 0.9375
vt 0.05319149 0.875
vt 0.04255319 0.9375
vt 0.04255319 0.875
vt 0.1489362 0.9375
vt 0.1382979 0.9375
vt 0.1382979 0.875
vt 0.1489362 0.875
vt 0.1489362 0.3125
vt 0.1595745 0.3125
vt 0.1595745 0.375
vt 0.1489362 0.375
vt 0.1702128 0.3125
vt 0.1702128 0.375
vt 0.1702128 0.4375
vt 0.1595745 0.4375
vt 0.1276596 1
vt 0.1170213 1
vt 0.106383 1
vt 0.09574468 1
vt 0.08510638 1
vt 0.07446808 1
vt 0.06382979 1
vt 0.05319149 1
vt 0.04255319 1
vt 0.1489362 1
vt 0.1382979 1
vt 0.1489362 0.4375

# Normal
vn 0 0 -1

# Mesh description
g 2ScenarioPlataforma_mesh_0337

# Faces
f 1/1/1 2/2/1 3/3/1 4/4/1
f 5/2/1 6/5/1 7/6/1 8/3/1
f 9/5/1 10/7/1 11/8/1 12/6/1
f 13/7/1 14/9/1 15/10/1 16/8/1
f 17/9/1 18/11/1 19/12/1 20/10/1
f 21/11/1 22/13/1 23/14/1 24/12/1
f 25/13/1 26/15/1 27/16/1 28/14/1
f 29/15/1 30/17/1 31/18/1 32/16/1
f 33/19/1 34/20/1 35/21/1 36/22/1
f 37/20/1 38/1/1 39/4/1 40/21/1
f 41/23/1 42/24/1 43/25/1 44/26/1
f 45/24/1 46/27/1 47/28/1 48/25/1
f 49/25/1 50/28/1 51/29/1 52/30/1
f 53/7/1 54/9/1 55/10/1 56/8/1
f 57/9/1 58/11/1 59/12/1 60/10/1
f 61/11/1 62/13/1 63/14/1 64/12/1
f 65/31/1 66/32/1 67/2/1 68/1/1
f 69/32/1 70/33/1 71/5/1 72/2/1
f 73/33/1 74/34/1 75/7/1 76/5/1
f 77/34/1 78/35/1 79/9/1 80/7/1
f 81/35/1 82/36/1 83/11/1 84/9/1
f 85/36/1 86/37/1 87/13/1 88/11/1
f 89/37/1 90/38/1 91/15/1 92/13/1
f 93/38/1 94/39/1 95/17/1 96/15/1
f 97/40/1 98/41/1 99/20/1 100/19/1
f 101/41/1 102/31/1 103/1/1 104/20/1
f 105/23/1 106/24/1 107/25/1 108/26/1
f 109/24/1 110/27/1 111/28/1 112/25/1
f 113/24/1 114/27/1 115/28/1 116/25/1
f 117/25/1 118/28/1 119/29/1 120/30/1
f 121/35/1 122/36/1 123/11/1 124/9/1
f 125/36/1 126/37/1 127/13/1 128/11/1
f 129/1/1 130/2/1 131/3/1 132/4/1
f 133/2/1 134/5/1 135/6/1 136/3/1
f 137/5/1 138/7/1 139/8/1 140/6/1
f 141/7/1 142/9/1 143/10/1 144/8/1
f 145/9/1 146/11/1 147/12/1 148/10/1
f 149/11/1 150/13/1 151/14/1 152/12/1
f 153/13/1 154/15/1 155/16/1 156/14/1
f 157/15/1 158/17/1 159/18/1 160/16/1
f 161/19/1 162/20/1 163/21/1 164/22/1
f 165/20/1 166/1/1 167/4/1 168/21/1
f 169/1/1 170/2/1 171/3/1 172/4/1
f 173/23/1 174/24/1 175/25/1 176/26/1
f 177/24/1 178/27/1 179/28/1 180/25/1
f 181/24/1 182/27/1 183/28/1 184/25/1
f 185/25/1 186/28/1 187/29/1 188/30/1
f 189/11/1 190/13/1 191/14/1 192/12/1
f 193/31/1 194/32/1 195/2/1 196/1/1
f 197/32/1 198/33/1 199/5/1 200/2/1
f 201/33/1 202/34/1 203/7/1 204/5/1
f 205/34/1 206/35/1 207/9/1 208/7/1
f 209/35/1 210/36/1 211/11/1 212/9/1
f 213/36/1 214/37/1 215/13/1 216/11/1
f 217/37/1 218/38/1 219/15/1 220/13/1
f 221/38/1 222/39/1 223/17/1 224/15/1
f 225/40/1 226/41/1 227/20/1 228/19/1
f 229/41/1 230/31/1 231/1/1 232/20/1
f 233/31/1 234/32/1 235/2/1 236/1/1
f 237/32/1 238/33/1 239/5/1 240/2/1
f 241/23/1 242/24/1 243/25/1 244/26/1
f 245/24/1 246/27/1 247/28/1 248/25/1
f 249/24/1 250/27/1 251/28/1 252/25/1
f 253/25/1 254/28/1 255/29/1 256/30/1
f 257/1/1 258/2/1 259/3/1 260/4/1
f 261/2/1 262/5/1 263/6/1 264/3/1
f 265/5/1 266/7/1 267/8/1 268/6/1
f 269/7/1 270/9/1 271/10/1 272/8/1
f 273/9/1 274/11/1 275/12/1 276/10/1
f 277/11/1 278/13/1 279/14/1 280/12/1
f 281/13/1 282/15/1 283/16/1 284/14/1
f 285/15/1 286/17/1 287/18/1 288/16/1
f 289/19/1 290/20/1 291/21/1 292/22/1
f 293/20/1 294/1/1 295/4/1 296/21/1
f 297/1/1 298/2/1 299/3/1 300/4/1
f 301/2/1 302/5/1 303/6/1 304/3/1
f 305/5/1 306/7/1 307/8/1 308/6/1
f 309/23/1 310/24/1 311/25/1 312/26/1
f 313/24/1 314/27/1 315/28/1 316/25/1
f 317/24/1 318/27/1 319/28/1 320/25/1
f 321/31/1 322/32/1 323/2/1 324/1/1
f 325/32/1 326/33/1 327/5/1 328/2/1
f 329/33/1 330/34/1 331/7/1 332/5/1
f 333/34/1 334/35/1 335/9/1 336/7/1
f 337/26/1 338/25/1 339/30/1 340/42/1
f 341/25/1 342/28/1 343/29/1 344/30/1
f 345/25/1 346/28/1 347/29/1 348/30/1
f 349/38/1 350/39/1 351/17/1 352/15/1
f 353/40/1 354/41/1 355/20/1 356/19/1
f 357/41/1 358/31/1 359/1/1 360/20/1
f 361/31/1 362/32/1 363/2/1 364/1/1
f 365/32/1 366/33/1 367/5/1 368/2/1
f 369/33/1 370/34/1 371/7/1 372/5/1
f 373/34/1 374/35/1 375/9/1 376/7/1
f 377/35/1 378/36/1 379/11/1 380/9/1
f 381/23/1 382/24/1 383/25/1 384/26/1
f 385/1/1 386/2/1 387/3/1 388/4/1
f 389/2/1 390/5/1 391/6/1 392/3/1
f 393/26/1 394/25/1 395/30/1 396/42/1
f 397/25/1 398/28/1 399/29/1 400/30/1
f 401/25/1 402/28/1 403/29/1 404/30/1
f 405/24/1 406/27/1 407/28/1 408/25/1
f 409/24/1 410/27/1 411/28/1 412/25/1
f 413/15/1 414/17/1 415/18/1 416/16/1
f 417/19/1 418/20/1 419/21/1 420/22/1
f 421/20/1 422/1/1 423/4/1 424/21/1
f 425/1/1 426/2/1 427/3/1 428/4/1
f 429/2/1 430/5/1 431/6/1 432/3/1
f 433/5/1 434/7/1 435/8/1 436/6/1
f 437/7/1 438/9/1 439/10/1 440/8/1
f 441/9/1 442/11/1 443/12/1 444/10/1
f 445/11/1 446/13/1 447/14/1 448/12/1
f 449/31/1 450/32/1 451/2/1 452/1/1
f 453/32/1 454/33/1 455/5/1 456/2/1
f 457/26/1 458/25/1 459/30/1 460/42/1
f 461/25/1 462/28/1 463/29/1 464/30/1
f 465/24/1 466/27/1 467/28/1 468/25/1
f 469/36/1 470/37/1 471/13/1 472/11/1
f 473/37/1 474/38/1 475/15/1 476/13/1
f 477/38/1 478/39/1 479/17/1 480/15/1
f 481/40/1 482/41/1 483/20/1 484/19/1
f 485/41/1 486/31/1 487/1/1 488/20/1
f 489/31/1 490/32/1 491/2/1 492/1/1
f 493/32/1 494/33/1 495/5/1 496/2/1
f 497/33/1 498/34/1 499/7/1 500/5/1
f 501/34/1 502/35/1 503/9/1 504/7/1
f 505/35/1 506/36/1 507/11/1 508/9/1
f 509/36/1 510/37/1 511/13/1 512/11/1
f 513/1/1 514/2/1 515/3/1 516/4/1
f 517/2/1 518/5/1 519/6/1 520/3/1
f 521/26/1 522/25/1 523/30/1 524/42/1
f 525/26/1 526/25/1 527/30/1 528/42/1
f 529/25/1 530/28/1 531/29/1 532/30/1
f 533/11/1 534/13/1 535/14/1 536/12/1
f 537/13/1 538/15/1 539/16/1 540/14/1
f 541/15/1 542/17/1 543/18/1 544/16/1
f 545/19/1 546/20/1 547/21/1 548/22/1
f 549/20/1 550/1/1 551/4/1 552/21/1
f 553/1/1 554/2/1 555/3/1 556/4/1
f 557/2/1 558/5/1 559/6/1 560/3/1
f 561/5/1 562/7/1 563/8/1 564/6/1
f 565/7/1 566/9/1 567/10/1 568/8/1
f 569/9/1 570/11/1 571/12/1 572/10/1
f 573/11/1 574/13/1 575/14/1 576/12/1
f 577/31/1 578/32/1 579/2/1 580/1/1
f 581/32/1 582/33/1 583/5/1 584/2/1
f 585/23/1 586/24/1 587/25/1 588/26/1
f 589/23/1 590/24/1 591/25/1 592/26/1
f 593/26/1 594/25/1 595/30/1 596/42/1
f 597/25/1 598/28/1 599/29/1 600/30/1
f 601/37/1 602/38/1 603/15/1 604/13/1
f 605/38/1 606/39/1 607/17/1 608/15/1
f 609/40/1 610/41/1 611/20/1 612/19/1
f 613/41/1 614/31/1 615/1/1 616/20/1
f 617/31/1 618/32/1 619/2/1 620/1/1
f 621/32/1 622/33/1 623/5/1 624/2/1
f 625/33/1 626/34/1 627/7/1 628/5/1
f 629/34/1 630/35/1 631/9/1 632/7/1
f 633/35/1 634/36/1 635/11/1 636/9/1
f 637/36/1 638/37/1 639/13/1 640/11/1
f 641/1/1 642/2/1 643/3/1 644/4/1
f 645/2/1 646/5/1 647/6/1 648/3/1
f 649/5/1 650/7/1 651/8/1 652/6/1
f 653/7/1 654/9/1 655/10/1 656/8/1
f 657/26/1 658/25/1 659/30/1 660/42/1
f 661/26/1 662/25/1 663/30/1 664/42/1
f 665/25/1 666/28/1 667/29/1 668/30/1
f 669/15/1 670/17/1 671/18/1 672/16/1
f 673/19/1 674/20/1 675/21/1 676/22/1
f 677/20/1 678/1/1 679/4/1 680/21/1
f 681/1/1 682/2/1 683/3/1 684/4/1
f 685/2/1 686/5/1 687/6/1 688/3/1
f 689/5/1 690/7/1 691/8/1 692/6/1
f 693/7/1 694/9/1 695/10/1 696/8/1
f 697/9/1 698/11/1 699/12/1 700/10/1
f 701/11/1 702/13/1 703/14/1 704/12/1
f 705/31/1 706/32/1 707/2/1 708/1/1
f 709/32/1 710/33/1 711/5/1 712/2/1
f 713/33/1 714/34/1 715/7/1 716/5/1
f 717/34/1 718/35/1 719/9/1 720/7/1
f 721/23/1 722/24/1 723/25/1 724/26/1
f 725/26/1 726/25/1 727/30/1 728/42/1
f 729/25/1 730/28/1 731/29/1 732/30/1
f 733/38/1 734/39/1 735/17/1 736/15/1
f 737/40/1 738/41/1 739/20/1 740/19/1
f 741/41/1 742/31/1 743/1/1 744/20/1
f 745/31/1 746/32/1 747/2/1 748/1/1
f 749/26/1 750/25/1 751/30/1 752/42/1
f 753/26/1 754/25/1 755/30/1 756/42/1
f 757/26/1 758/25/1 759/30/1 760/42/1
f 761/26/1 762/25/1 763/30/1 764/42/1
f 765/26/1 766/25/1 767/30/1 768/42/1
f 769/1/1 770/2/1 771/3/1 772/4/1
f 773/2/1 774/5/1 775/6/1 776/3/1
f 777/5/1 778/7/1 779/8/1 780/6/1
f 781/7/1 782/9/1 783/10/1 784/8/1
f 785/9/1 786/11/1 787/12/1 788/10/1
f 789/26/1 790/25/1 791/30/1 792/42/1
f 793/25/1 794/28/1 795/29/1 796/30/1
f 797/15/1 798/17/1 799/18/1 800/16/1
f 801/19/1 802/20/1 803/21/1 804/22/1
f 805/20/1 806/1/1 807/4/1 808/21/1
f 809/26/1 810/25/1 811/30/1 812/42/1
f 813/23/1 814/24/1 815/25/1 816/26/1
f 817/23/1 818/24/1 819/25/1 820/26/1
f 821/23/1 822/24/1 823/25/1 824/26/1
f 825/23/1 826/24/1 827/25/1 828/26/1
f 829/23/1 830/24/1 831/25/1 832/26/1
f 833/31/1 834/32/1 835/2/1 836/1/1
f 837/32/1 838/33/1 839/5/1 840/2/1
f 841/33/1 842/34/1 843/7/1 844/5/1
f 845/34/1 846/35/1 847/9/1 848/7/1
f 849/35/1 850/36/1 851/11/1 852/9/1
f 853/26/1 854/25/1 855/30/1 856/42/1
f 857/25/1 858/28/1 859/29/1 860/30/1
f 861/38/1 862/39/1 863/17/1 864/15/1
f 865/40/1 866/41/1 867/20/1 868/19/1
f 869/41/1 870/31/1 871/1/1 872/20/1
f 873/23/1 874/24/1 875/25/1 876/26/1
f 877/23/1 878/24/1 879/25/1 880/26/1
f 881/24/1 882/27/1 883/28/1 884/25/1
f 885/34/1 886/35/1 887/9/1 888/7/1
f 889/35/1 890/36/1 891/11/1 892/9/1
f 893/36/1 894/37/1 895/13/1 896/11/1
f 897/1/1 898/2/1 899/3/1 900/4/1
f 901/2/1 902/5/1 903/6/1 904/3/1
f 905/5/1 906/7/1 907/8/1 908/6/1
f 909/7/1 910/9/1 911/10/1 912/8/1
f 913/26/1 914/25/1 915/30/1 916/42/1
f 917/25/1 918/28/1 919/29/1 920/30/1
f 921/25/1 922/28/1 923/29/1 924/30/1
f 925/15/1 926/17/1 927/18/1 928/16/1
f 929/19/1 930/20/1 931/21/1 932/22/1
f 933/20/1 934/1/1 935/4/1 936/21/1
f 937/23/1 938/24/1 939/25/1 940/26/1
f 941/24/1 942/27/1 943/28/1 944/25/1
f 945/5/1 946/7/1 947/8/1 948/6/1
f 949/7/1 950/9/1 951/10/1 952/8/1
f 953/9/1 954/11/1 955/12/1 956/10/1
f 957/11/1 958/13/1 959/14/1 960/12/1
f 961/31/1 962/32/1 963/2/1 964/1/1
f 965/32/1 966/33/1 967/5/1 968/2/1
f 969/33/1 970/34/1 971/7/1 972/5/1
f 973/34/1 974/35/1 975/9/1 976/7/1
f 977/26/1 978/25/1 979/30/1 980/42/1
f 981/25/1 982/28/1 983/29/1 984/30/1
f 985/24/1 986/27/1 987/28/1 988/25/1
f 989/38/1 990/39/1 991/17/1 992/15/1
f 993/40/1 994/41/1 995/20/1 996/19/1
f 997/41/1 998/31/1 999/1/1 1000/20/1
f 1001/23/1 1002/24/1 1003/25/1 1004/26/1
f 1005/24/1 1006/27/1 1007/28/1 1008/25/1
f 1009/33/1 1010/34/1 1011/7/1 1012/5/1
f 1013/34/1 1014/35/1 1015/9/1 1016/7/1
f 1017/35/1 1018/36/1 1019/11/1 1020/9/1
f 1021/36/1 1022/37/1 1023/13/1 1024/11/1

