# Tiled2Unity generated file. Do not modify by hand.
# Wavefront file for '2ScenarioPlataforma_mesh_0586.obj'

# Vertices (Count = 100)
v -96 -16 0
v -112 -16 0
v -112 0 0
v -96 0 0
v -176 -16 0
v -192 -16 0
v -192 0 0
v -176 0 0
v -96 -32 0
v -112 -32 0
v -112 -16 0
v -96 -16 0
v -176 -32 0
v -192 -32 0
v -192 -16 0
v -176 -16 0
v -176 -48 0
v -192 -48 0
v -192 -32 0
v -176 -32 0
v -96 -64 0
v -112 -64 0
v -112 -48 0
v -96 -48 0
v -176 -64 0
v -192 -64 0
v -192 -48 0
v -176 -48 0
v -96 -80 0
v -112 -80 0
v -112 -64 0
v -96 -64 0
v -176 -80 0
v -192 -80 0
v -192 -64 0
v -176 -64 0
v -96 -96 0
v -112 -96 0
v -112 -80 0
v -96 -80 0
v -176 -96 0
v -192 -96 0
v -192 -80 0
v -176 -80 0
v -96 -112 0
v -112 -112 0
v -112 -96 0
v -96 -96 0
v -176 -112 0
v -192 -112 0
v -192 -96 0
v -176 -96 0
v -96 -128 0
v -112 -128 0
v -112 -112 0
v -96 -112 0
v -176 -128 0
v -192 -128 0
v -192 -112 0
v -176 -112 0
v 0 -144 0
v -16 -144 0
v -16 -128 0
v 0 -128 0
v -16 -144 0
v -32 -144 0
v -32 -128 0
v -16 -128 0
v -32 -144 0
v -48 -144 0
v -48 -128 0
v -32 -128 0
v -48 -144 0
v -64 -144 0
v -64 -128 0
v -48 -128 0
v -64 -144 0
v -80 -144 0
v -80 -128 0
v -64 -128 0
v -96 -144 0
v -112 -144 0
v -112 -128 0
v -96 -128 0
v -176 -144 0
v -192 -144 0
v -192 -128 0
v -176 -128 0
v -96 -160 0
v -112 -160 0
v -112 -144 0
v -96 -144 0
v -224 -176 0
v -240 -176 0
v -240 -160 0
v -224 -160 0
v -240 -176 0
v -256 -176 0
v -256 -160 0
v -240 -160 0

# Texture cooridinates (Count = 26)
vt 0.5952381 0.8125
vt 0.5952381 0.875
vt 0.5714286 0.875
vt 0.5714286 0.8125
vt 0.1190476 0.25
vt 0.1190476 0.1875
vt 0.1428571 0.1875
vt 0.1428571 0.25
vt 0.0952381 0.25
vt 0.0952381 0.1875
vt 0.4761905 0.875
vt 0.4761905 0.8125
vt 0.5 0.8125
vt 0.5 0.875
vt 0.5238096 0.875
vt 0.5238096 0.8125
vt 0.547619 0.8125
vt 0.547619 0.875
vt 0.5 0.25
vt 0.5 0.3125
vt 0.4761905 0.3125
vt 0.4761905 0.25
vt 0.547619 0.25
vt 0.547619 0.3125
vt 0.5238096 0.3125
vt 0.5238096 0.25

# Normal
vn 0 0 -1

# Mesh description
g 2ScenarioPlataforma_mesh_0586

# Faces
f 1/1/1 2/2/1 3/3/1 4/4/1
f 5/5/1 6/6/1 7/7/1 8/8/1
f 9/6/1 10/5/1 11/9/1 12/10/1
f 13/11/1 14/12/1 15/13/1 16/14/1
f 17/15/1 18/16/1 19/17/1 20/18/1
f 21/7/1 22/8/1 23/5/1 24/6/1
f 25/3/1 26/4/1 27/1/1 28/2/1
f 29/19/1 30/20/1 31/21/1 32/22/1
f 33/21/1 34/22/1 35/19/1 36/20/1
f 37/1/1 38/2/1 39/3/1 40/4/1
f 41/3/1 42/4/1 43/1/1 44/2/1
f 45/13/1 46/14/1 47/11/1 48/12/1
f 49/11/1 50/12/1 51/13/1 52/14/1
f 53/23/1 54/24/1 55/25/1 56/26/1
f 57/21/1 58/22/1 59/19/1 60/20/1
f 61/24/1 62/25/1 63/26/1 64/23/1
f 65/14/1 66/11/1 67/12/1 68/13/1
f 69/24/1 70/25/1 71/26/1 72/23/1
f 73/24/1 74/25/1 75/26/1 76/23/1
f 77/2/1 78/3/1 79/4/1 80/1/1
f 81/19/1 82/20/1 83/21/1 84/22/1
f 85/5/1 86/6/1 87/7/1 88/8/1
f 89/7/1 90/8/1 91/5/1 92/6/1
f 93/14/1 94/11/1 95/12/1 96/13/1
f 97/20/1 98/21/1 99/22/1 100/19/1

