# Tiled2Unity generated file. Do not modify by hand.
# Wavefront file for '2ScenarioPlataforma_mesh_0570.obj'

# Vertices (Count = 136)
v -96 -16 0
v -112 -16 0
v -112 0 0
v -96 0 0
v -96 -32 0
v -112 -32 0
v -112 -16 0
v -96 -16 0
v -96 -48 0
v -112 -48 0
v -112 -32 0
v -96 -32 0
v -80 -64 0
v -96 -64 0
v -96 -48 0
v -80 -48 0
v -96 -64 0
v -112 -64 0
v -112 -48 0
v -96 -48 0
v -80 -80 0
v -96 -80 0
v -96 -64 0
v -80 -64 0
v -96 -80 0
v -112 -80 0
v -112 -64 0
v -96 -64 0
v -192 -80 0
v -208 -80 0
v -208 -64 0
v -192 -64 0
v -208 -80 0
v -224 -80 0
v -224 -64 0
v -208 -64 0
v -224 -80 0
v -240 -80 0
v -240 -64 0
v -224 -64 0
v -240 -80 0
v -256 -80 0
v -256 -64 0
v -240 -64 0
v -80 -96 0
v -96 -96 0
v -96 -80 0
v -80 -80 0
v -96 -96 0
v -112 -96 0
v -112 -80 0
v -96 -80 0
v -192 -96 0
v -208 -96 0
v -208 -80 0
v -192 -80 0
v -96 -112 0
v -112 -112 0
v -112 -96 0
v -96 -96 0
v -176 -112 0
v -192 -112 0
v -192 -96 0
v -176 -96 0
v -96 -128 0
v -112 -128 0
v -112 -112 0
v -96 -112 0
v -176 -128 0
v -192 -128 0
v -192 -112 0
v -176 -112 0
v -96 -144 0
v -112 -144 0
v -112 -128 0
v -96 -128 0
v -176 -144 0
v -192 -144 0
v -192 -128 0
v -176 -128 0
v -96 -160 0
v -112 -160 0
v -112 -144 0
v -96 -144 0
v -176 -160 0
v -192 -160 0
v -192 -144 0
v -176 -144 0
v -96 -176 0
v -112 -176 0
v -112 -160 0
v -96 -160 0
v -176 -176 0
v -192 -176 0
v -192 -160 0
v -176 -160 0
v -96 -192 0
v -112 -192 0
v -112 -176 0
v -96 -176 0
v -176 -192 0
v -192 -192 0
v -192 -176 0
v -176 -176 0
v -96 -208 0
v -112 -208 0
v -112 -192 0
v -96 -192 0
v -176 -208 0
v -192 -208 0
v -192 -192 0
v -176 -192 0
v -96 -224 0
v -112 -224 0
v -112 -208 0
v -96 -208 0
v -176 -224 0
v -192 -224 0
v -192 -208 0
v -176 -208 0
v -96 -240 0
v -112 -240 0
v -112 -224 0
v -96 -224 0
v -176 -240 0
v -192 -240 0
v -192 -224 0
v -176 -224 0
v -96 -256 0
v -112 -256 0
v -112 -240 0
v -96 -240 0
v -176 -256 0
v -192 -256 0
v -192 -240 0
v -176 -240 0

# Texture cooridinates (Count = 26)
vt 0.5 0.25
vt 0.5 0.3125
vt 0.4761905 0.3125
vt 0.4761905 0.25
vt 0.547619 0.25
vt 0.547619 0.3125
vt 0.5238096 0.3125
vt 0.5238096 0.25
vt 0.5952381 0.8125
vt 0.5952381 0.875
vt 0.5714286 0.875
vt 0.5714286 0.8125
vt 0.1428571 0.1875
vt 0.1428571 0.25
vt 0.1190476 0.25
vt 0.1190476 0.1875
vt 0.0952381 0.25
vt 0.0952381 0.1875
vt 0.4761905 0.8125
vt 0.5 0.8125
vt 0.5 0.875
vt 0.4761905 0.875
vt 0.547619 0.8125
vt 0.547619 0.875
vt 0.5238096 0.875
vt 0.5238096 0.8125

# Normal
vn 0 0 -1

# Mesh description
g 2ScenarioPlataforma_mesh_0570

# Faces
f 1/1/1 2/2/1 3/3/1 4/4/1
f 5/5/1 6/6/1 7/7/1 8/8/1
f 9/9/1 10/10/1 11/11/1 12/12/1
f 13/1/1 14/2/1 15/3/1 16/4/1
f 17/13/1 18/14/1 19/15/1 20/16/1
f 21/9/1 22/10/1 23/11/1 24/12/1
f 25/16/1 26/15/1 27/17/1 28/18/1
f 29/19/1 30/20/1 31/21/1 32/22/1
f 33/4/1 34/1/1 35/2/1 36/3/1
f 37/4/1 38/1/1 39/2/1 40/3/1
f 41/16/1 42/13/1 43/14/1 44/15/1
f 45/9/1 46/10/1 47/11/1 48/12/1
f 49/5/1 50/6/1 51/7/1 52/8/1
f 53/4/1 54/1/1 55/2/1 56/3/1
f 57/1/1 58/2/1 59/3/1 60/4/1
f 61/15/1 62/16/1 63/13/1 64/14/1
f 65/20/1 66/21/1 67/22/1 68/19/1
f 69/7/1 70/8/1 71/5/1 72/6/1
f 73/16/1 74/15/1 75/17/1 76/18/1
f 77/22/1 78/19/1 79/20/1 80/21/1
f 81/20/1 82/21/1 83/22/1 84/19/1
f 85/11/1 86/12/1 87/9/1 88/10/1
f 89/13/1 90/14/1 91/15/1 92/16/1
f 93/17/1 94/18/1 95/16/1 96/15/1
f 97/20/1 98/21/1 99/22/1 100/19/1
f 101/17/1 102/18/1 103/16/1 104/15/1
f 105/23/1 106/24/1 107/25/1 108/26/1
f 109/11/1 110/12/1 111/9/1 112/10/1
f 113/9/1 114/10/1 115/11/1 116/12/1
f 117/11/1 118/12/1 119/9/1 120/10/1
f 121/5/1 122/6/1 123/7/1 124/8/1
f 125/11/1 126/12/1 127/9/1 128/10/1
f 129/9/1 130/10/1 131/11/1 132/12/1
f 133/25/1 134/26/1 135/23/1 136/24/1

