# Tiled2Unity generated file. Do not modify by hand.
# Wavefront file for '2ScenarioPlataforma_mesh_0544.obj'

# Vertices (Count = 80)
v 0 -16 0
v -16 -16 0
v -16 0 0
v 0 0 0
v -16 -16 0
v -32 -16 0
v -32 0 0
v -16 0 0
v -32 -16 0
v -48 -16 0
v -48 0 0
v -32 0 0
v -48 -16 0
v -64 -16 0
v -64 0 0
v -48 0 0
v -64 -16 0
v -80 -16 0
v -80 0 0
v -64 0 0
v -80 -16 0
v -96 -16 0
v -96 0 0
v -80 0 0
v 0 -32 0
v -16 -32 0
v -16 -16 0
v 0 -16 0
v -16 -32 0
v -32 -32 0
v -32 -16 0
v -16 -16 0
v -32 -32 0
v -48 -32 0
v -48 -16 0
v -32 -16 0
v -48 -32 0
v -64 -32 0
v -64 -16 0
v -48 -16 0
v -64 -32 0
v -80 -32 0
v -80 -16 0
v -64 -16 0
v -80 -32 0
v -96 -32 0
v -96 -16 0
v -80 -16 0
v 0 -48 0
v -16 -48 0
v -16 -32 0
v 0 -32 0
v -16 -48 0
v -32 -48 0
v -32 -32 0
v -16 -32 0
v -32 -48 0
v -48 -48 0
v -48 -32 0
v -32 -32 0
v -48 -48 0
v -64 -48 0
v -64 -32 0
v -48 -32 0
v -64 -48 0
v -80 -48 0
v -80 -32 0
v -64 -32 0
v -80 -48 0
v -96 -48 0
v -96 -32 0
v -80 -32 0
v -112 -48 0
v -128 -48 0
v -128 -32 0
v -112 -32 0
v -208 -48 0
v -224 -48 0
v -224 -32 0
v -208 -32 0

# Texture cooridinates (Count = 36)
vt 0.3191489 0.3125
vt 0.3297872 0.3125
vt 0.3297872 0.375
vt 0.3191489 0.375
vt 0.3404255 0.3125
vt 0.3404255 0.375
vt 0.3510638 0.3125
vt 0.3510638 0.375
vt 0.3617021 0.3125
vt 0.3617021 0.375
vt 0.3723404 0.3125
vt 0.3723404 0.375
vt 0.3829787 0.3125
vt 0.3829787 0.375
vt 0.3191489 0.25
vt 0.3297872 0.25
vt 0.3404255 0.25
vt 0.3510638 0.25
vt 0.3617021 0.25
vt 0.3723404 0.25
vt 0.3829787 0.25
vt 0.3191489 0.1875
vt 0.3297872 0.1875
vt 0.3404255 0.1875
vt 0.3510638 0.1875
vt 0.3617021 0.1875
vt 0.3723404 0.1875
vt 0.3829787 0.1875
vt 0.3723404 0.6875
vt 0.3829787 0.6875
vt 0.3829787 0.75
vt 0.3723404 0.75
vt 0.4148936 0.4375
vt 0.4255319 0.4375
vt 0.4255319 0.5
vt 0.4148936 0.5

# Normal
vn 0 0 -1

# Mesh description
g 2ScenarioPlataforma_mesh_0544

# Faces
f 1/1/1 2/2/1 3/3/1 4/4/1
f 5/2/1 6/5/1 7/6/1 8/3/1
f 9/5/1 10/7/1 11/8/1 12/6/1
f 13/7/1 14/9/1 15/10/1 16/8/1
f 17/9/1 18/11/1 19/12/1 20/10/1
f 21/11/1 22/13/1 23/14/1 24/12/1
f 25/15/1 26/16/1 27/2/1 28/1/1
f 29/16/1 30/17/1 31/5/1 32/2/1
f 33/17/1 34/18/1 35/7/1 36/5/1
f 37/18/1 38/19/1 39/9/1 40/7/1
f 41/19/1 42/20/1 43/11/1 44/9/1
f 45/20/1 46/21/1 47/13/1 48/11/1
f 49/22/1 50/23/1 51/16/1 52/15/1
f 53/23/1 54/24/1 55/17/1 56/16/1
f 57/24/1 58/25/1 59/18/1 60/17/1
f 61/25/1 62/26/1 63/19/1 64/18/1
f 65/26/1 66/27/1 67/20/1 68/19/1
f 69/27/1 70/28/1 71/21/1 72/20/1
f 73/29/1 74/30/1 75/31/1 76/32/1
f 77/33/1 78/34/1 79/35/1 80/36/1

