# Tiled2Unity generated file. Do not modify by hand.
# Wavefront file for '2ScenarioPlataforma_mesh_0974.obj'

# Vertices (Count = 968)
v 0 -16 0
v -16 -16 0
v -16 0 0
v 0 0 0
v -16 -16 0
v -32 -16 0
v -32 0 0
v -16 0 0
v -32 -16 0
v -48 -16 0
v -48 0 0
v -32 0 0
v -48 -16 0
v -64 -16 0
v -64 0 0
v -48 0 0
v -64 -16 0
v -80 -16 0
v -80 0 0
v -64 0 0
v -80 -16 0
v -96 -16 0
v -96 0 0
v -80 0 0
v -96 -16 0
v -112 -16 0
v -112 0 0
v -96 0 0
v -112 -16 0
v -128 -16 0
v -128 0 0
v -112 0 0
v -128 -16 0
v -144 -16 0
v -144 0 0
v -128 0 0
v -144 -16 0
v -160 -16 0
v -160 0 0
v -144 0 0
v -160 -16 0
v -176 -16 0
v -176 0 0
v -160 0 0
v -176 -16 0
v -192 -16 0
v -192 0 0
v -176 0 0
v -192 -16 0
v -208 -16 0
v -208 0 0
v -192 0 0
v -208 -16 0
v -224 -16 0
v -224 0 0
v -208 0 0
v -224 -16 0
v -240 -16 0
v -240 0 0
v -224 0 0
v -240 -16 0
v -256 -16 0
v -256 0 0
v -240 0 0
v 0 -32 0
v -16 -32 0
v -16 -16 0
v 0 -16 0
v -16 -32 0
v -32 -32 0
v -32 -16 0
v -16 -16 0
v -32 -32 0
v -48 -32 0
v -48 -16 0
v -32 -16 0
v -48 -32 0
v -64 -32 0
v -64 -16 0
v -48 -16 0
v -64 -32 0
v -80 -32 0
v -80 -16 0
v -64 -16 0
v -80 -32 0
v -96 -32 0
v -96 -16 0
v -80 -16 0
v -96 -32 0
v -112 -32 0
v -112 -16 0
v -96 -16 0
v -112 -32 0
v -128 -32 0
v -128 -16 0
v -112 -16 0
v -128 -32 0
v -144 -32 0
v -144 -16 0
v -128 -16 0
v -144 -32 0
v -160 -32 0
v -160 -16 0
v -144 -16 0
v -160 -32 0
v -176 -32 0
v -176 -16 0
v -160 -16 0
v -176 -32 0
v -192 -32 0
v -192 -16 0
v -176 -16 0
v -192 -32 0
v -208 -32 0
v -208 -16 0
v -192 -16 0
v -208 -32 0
v -224 -32 0
v -224 -16 0
v -208 -16 0
v -224 -32 0
v -240 -32 0
v -240 -16 0
v -224 -16 0
v -240 -32 0
v -256 -32 0
v -256 -16 0
v -240 -16 0
v 0 -48 0
v -16 -48 0
v -16 -32 0
v 0 -32 0
v -16 -48 0
v -32 -48 0
v -32 -32 0
v -16 -32 0
v -32 -48 0
v -48 -48 0
v -48 -32 0
v -32 -32 0
v -48 -48 0
v -64 -48 0
v -64 -32 0
v -48 -32 0
v -64 -48 0
v -80 -48 0
v -80 -32 0
v -64 -32 0
v -80 -48 0
v -96 -48 0
v -96 -32 0
v -80 -32 0
v -96 -48 0
v -112 -48 0
v -112 -32 0
v -96 -32 0
v -112 -48 0
v -128 -48 0
v -128 -32 0
v -112 -32 0
v -128 -48 0
v -144 -48 0
v -144 -32 0
v -128 -32 0
v -144 -48 0
v -160 -48 0
v -160 -32 0
v -144 -32 0
v -160 -48 0
v -176 -48 0
v -176 -32 0
v -160 -32 0
v -176 -48 0
v -192 -48 0
v -192 -32 0
v -176 -32 0
v -192 -48 0
v -208 -48 0
v -208 -32 0
v -192 -32 0
v -208 -48 0
v -224 -48 0
v -224 -32 0
v -208 -32 0
v -224 -48 0
v -240 -48 0
v -240 -32 0
v -224 -32 0
v -240 -48 0
v -256 -48 0
v -256 -32 0
v -240 -32 0
v 0 -64 0
v -16 -64 0
v -16 -48 0
v 0 -48 0
v -16 -64 0
v -32 -64 0
v -32 -48 0
v -16 -48 0
v -32 -64 0
v -48 -64 0
v -48 -48 0
v -32 -48 0
v -48 -64 0
v -64 -64 0
v -64 -48 0
v -48 -48 0
v -64 -64 0
v -80 -64 0
v -80 -48 0
v -64 -48 0
v -80 -64 0
v -96 -64 0
v -96 -48 0
v -80 -48 0
v -96 -64 0
v -112 -64 0
v -112 -48 0
v -96 -48 0
v -112 -64 0
v -128 -64 0
v -128 -48 0
v -112 -48 0
v -128 -64 0
v -144 -64 0
v -144 -48 0
v -128 -48 0
v -144 -64 0
v -160 -64 0
v -160 -48 0
v -144 -48 0
v -160 -64 0
v -176 -64 0
v -176 -48 0
v -160 -48 0
v -176 -64 0
v -192 -64 0
v -192 -48 0
v -176 -48 0
v -192 -64 0
v -208 -64 0
v -208 -48 0
v -192 -48 0
v -208 -64 0
v -224 -64 0
v -224 -48 0
v -208 -48 0
v -224 -64 0
v -240 -64 0
v -240 -48 0
v -224 -48 0
v -240 -64 0
v -256 -64 0
v -256 -48 0
v -240 -48 0
v 0 -80 0
v -16 -80 0
v -16 -64 0
v 0 -64 0
v -16 -80 0
v -32 -80 0
v -32 -64 0
v -16 -64 0
v -32 -80 0
v -48 -80 0
v -48 -64 0
v -32 -64 0
v -48 -80 0
v -64 -80 0
v -64 -64 0
v -48 -64 0
v -64 -80 0
v -80 -80 0
v -80 -64 0
v -64 -64 0
v -80 -80 0
v -96 -80 0
v -96 -64 0
v -80 -64 0
v -96 -80 0
v -112 -80 0
v -112 -64 0
v -96 -64 0
v -112 -80 0
v -128 -80 0
v -128 -64 0
v -112 -64 0
v -128 -80 0
v -144 -80 0
v -144 -64 0
v -128 -64 0
v -144 -80 0
v -160 -80 0
v -160 -64 0
v -144 -64 0
v -160 -80 0
v -176 -80 0
v -176 -64 0
v -160 -64 0
v -176 -80 0
v -192 -80 0
v -192 -64 0
v -176 -64 0
v -192 -80 0
v -208 -80 0
v -208 -64 0
v -192 -64 0
v -208 -80 0
v -224 -80 0
v -224 -64 0
v -208 -64 0
v -224 -80 0
v -240 -80 0
v -240 -64 0
v -224 -64 0
v -240 -80 0
v -256 -80 0
v -256 -64 0
v -240 -64 0
v 0 -96 0
v -16 -96 0
v -16 -80 0
v 0 -80 0
v -16 -96 0
v -32 -96 0
v -32 -80 0
v -16 -80 0
v -32 -96 0
v -48 -96 0
v -48 -80 0
v -32 -80 0
v -48 -96 0
v -64 -96 0
v -64 -80 0
v -48 -80 0
v -64 -96 0
v -80 -96 0
v -80 -80 0
v -64 -80 0
v -80 -96 0
v -96 -96 0
v -96 -80 0
v -80 -80 0
v -96 -96 0
v -112 -96 0
v -112 -80 0
v -96 -80 0
v -112 -96 0
v -128 -96 0
v -128 -80 0
v -112 -80 0
v -128 -96 0
v -144 -96 0
v -144 -80 0
v -128 -80 0
v -144 -96 0
v -160 -96 0
v -160 -80 0
v -144 -80 0
v -160 -96 0
v -176 -96 0
v -176 -80 0
v -160 -80 0
v -176 -96 0
v -192 -96 0
v -192 -80 0
v -176 -80 0
v -192 -96 0
v -208 -96 0
v -208 -80 0
v -192 -80 0
v -208 -96 0
v -224 -96 0
v -224 -80 0
v -208 -80 0
v -224 -96 0
v -240 -96 0
v -240 -80 0
v -224 -80 0
v -240 -96 0
v -256 -96 0
v -256 -80 0
v -240 -80 0
v 0 -112 0
v -16 -112 0
v -16 -96 0
v 0 -96 0
v -16 -112 0
v -32 -112 0
v -32 -96 0
v -16 -96 0
v -32 -112 0
v -48 -112 0
v -48 -96 0
v -32 -96 0
v -48 -112 0
v -64 -112 0
v -64 -96 0
v -48 -96 0
v -64 -112 0
v -80 -112 0
v -80 -96 0
v -64 -96 0
v -80 -112 0
v -96 -112 0
v -96 -96 0
v -80 -96 0
v -96 -112 0
v -112 -112 0
v -112 -96 0
v -96 -96 0
v -112 -112 0
v -128 -112 0
v -128 -96 0
v -112 -96 0
v -128 -112 0
v -144 -112 0
v -144 -96 0
v -128 -96 0
v -144 -112 0
v -160 -112 0
v -160 -96 0
v -144 -96 0
v -160 -112 0
v -176 -112 0
v -176 -96 0
v -160 -96 0
v -176 -112 0
v -192 -112 0
v -192 -96 0
v -176 -96 0
v -192 -112 0
v -208 -112 0
v -208 -96 0
v -192 -96 0
v -208 -112 0
v -224 -112 0
v -224 -96 0
v -208 -96 0
v -224 -112 0
v -240 -112 0
v -240 -96 0
v -224 -96 0
v -240 -112 0
v -256 -112 0
v -256 -96 0
v -240 -96 0
v 0 -128 0
v -16 -128 0
v -16 -112 0
v 0 -112 0
v -16 -128 0
v -32 -128 0
v -32 -112 0
v -16 -112 0
v -32 -128 0
v -48 -128 0
v -48 -112 0
v -32 -112 0
v -48 -128 0
v -64 -128 0
v -64 -112 0
v -48 -112 0
v -64 -128 0
v -80 -128 0
v -80 -112 0
v -64 -112 0
v -80 -128 0
v -96 -128 0
v -96 -112 0
v -80 -112 0
v -96 -128 0
v -112 -128 0
v -112 -112 0
v -96 -112 0
v -112 -128 0
v -128 -128 0
v -128 -112 0
v -112 -112 0
v -128 -128 0
v -144 -128 0
v -144 -112 0
v -128 -112 0
v -144 -128 0
v -160 -128 0
v -160 -112 0
v -144 -112 0
v -160 -128 0
v -176 -128 0
v -176 -112 0
v -160 -112 0
v -176 -128 0
v -192 -128 0
v -192 -112 0
v -176 -112 0
v -192 -128 0
v -208 -128 0
v -208 -112 0
v -192 -112 0
v -208 -128 0
v -224 -128 0
v -224 -112 0
v -208 -112 0
v -224 -128 0
v -240 -128 0
v -240 -112 0
v -224 -112 0
v -240 -128 0
v -256 -128 0
v -256 -112 0
v -240 -112 0
v 0 -144 0
v -16 -144 0
v -16 -128 0
v 0 -128 0
v -16 -144 0
v -32 -144 0
v -32 -128 0
v -16 -128 0
v -32 -144 0
v -48 -144 0
v -48 -128 0
v -32 -128 0
v -48 -144 0
v -64 -144 0
v -64 -128 0
v -48 -128 0
v -64 -144 0
v -80 -144 0
v -80 -128 0
v -64 -128 0
v -80 -144 0
v -96 -144 0
v -96 -128 0
v -80 -128 0
v -96 -144 0
v -112 -144 0
v -112 -128 0
v -96 -128 0
v -112 -144 0
v -128 -144 0
v -128 -128 0
v -112 -128 0
v -128 -144 0
v -144 -144 0
v -144 -128 0
v -128 -128 0
v -144 -144 0
v -160 -144 0
v -160 -128 0
v -144 -128 0
v -160 -144 0
v -176 -144 0
v -176 -128 0
v -160 -128 0
v -176 -144 0
v -192 -144 0
v -192 -128 0
v -176 -128 0
v -192 -144 0
v -208 -144 0
v -208 -128 0
v -192 -128 0
v -208 -144 0
v -224 -144 0
v -224 -128 0
v -208 -128 0
v -224 -144 0
v -240 -144 0
v -240 -128 0
v -224 -128 0
v -240 -144 0
v -256 -144 0
v -256 -128 0
v -240 -128 0
v 0 -160 0
v -16 -160 0
v -16 -144 0
v 0 -144 0
v -16 -160 0
v -32 -160 0
v -32 -144 0
v -16 -144 0
v -32 -160 0
v -48 -160 0
v -48 -144 0
v -32 -144 0
v -48 -160 0
v -64 -160 0
v -64 -144 0
v -48 -144 0
v -64 -160 0
v -80 -160 0
v -80 -144 0
v -64 -144 0
v -80 -160 0
v -96 -160 0
v -96 -144 0
v -80 -144 0
v -96 -160 0
v -112 -160 0
v -112 -144 0
v -96 -144 0
v -112 -160 0
v -128 -160 0
v -128 -144 0
v -112 -144 0
v -128 -160 0
v -144 -160 0
v -144 -144 0
v -128 -144 0
v -144 -160 0
v -160 -160 0
v -160 -144 0
v -144 -144 0
v -160 -160 0
v -176 -160 0
v -176 -144 0
v -160 -144 0
v -176 -160 0
v -192 -160 0
v -192 -144 0
v -176 -144 0
v -192 -160 0
v -208 -160 0
v -208 -144 0
v -192 -144 0
v -208 -160 0
v -224 -160 0
v -224 -144 0
v -208 -144 0
v -224 -160 0
v -240 -160 0
v -240 -144 0
v -224 -144 0
v -240 -160 0
v -256 -160 0
v -256 -144 0
v -240 -144 0
v 0 -176 0
v -16 -176 0
v -16 -160 0
v 0 -160 0
v -16 -176 0
v -32 -176 0
v -32 -160 0
v -16 -160 0
v -32 -176 0
v -48 -176 0
v -48 -160 0
v -32 -160 0
v -48 -176 0
v -64 -176 0
v -64 -160 0
v -48 -160 0
v -64 -176 0
v -80 -176 0
v -80 -160 0
v -64 -160 0
v -80 -176 0
v -96 -176 0
v -96 -160 0
v -80 -160 0
v -96 -176 0
v -112 -176 0
v -112 -160 0
v -96 -160 0
v -112 -176 0
v -128 -176 0
v -128 -160 0
v -112 -160 0
v -128 -176 0
v -144 -176 0
v -144 -160 0
v -128 -160 0
v -144 -176 0
v -160 -176 0
v -160 -160 0
v -144 -160 0
v -160 -176 0
v -176 -176 0
v -176 -160 0
v -160 -160 0
v -176 -176 0
v -192 -176 0
v -192 -160 0
v -176 -160 0
v -192 -176 0
v -208 -176 0
v -208 -160 0
v -192 -160 0
v -208 -176 0
v -224 -176 0
v -224 -160 0
v -208 -160 0
v -224 -176 0
v -240 -176 0
v -240 -160 0
v -224 -160 0
v -240 -176 0
v -256 -176 0
v -256 -160 0
v -240 -160 0
v 0 -192 0
v -16 -192 0
v -16 -176 0
v 0 -176 0
v -16 -192 0
v -32 -192 0
v -32 -176 0
v -16 -176 0
v -32 -192 0
v -48 -192 0
v -48 -176 0
v -32 -176 0
v -48 -192 0
v -64 -192 0
v -64 -176 0
v -48 -176 0
v -64 -192 0
v -80 -192 0
v -80 -176 0
v -64 -176 0
v -80 -192 0
v -96 -192 0
v -96 -176 0
v -80 -176 0
v -96 -192 0
v -112 -192 0
v -112 -176 0
v -96 -176 0
v -112 -192 0
v -128 -192 0
v -128 -176 0
v -112 -176 0
v -128 -192 0
v -144 -192 0
v -144 -176 0
v -128 -176 0
v -144 -192 0
v -160 -192 0
v -160 -176 0
v -144 -176 0
v -160 -192 0
v -176 -192 0
v -176 -176 0
v -160 -176 0
v -176 -192 0
v -192 -192 0
v -192 -176 0
v -176 -176 0
v -192 -192 0
v -208 -192 0
v -208 -176 0
v -192 -176 0
v -208 -192 0
v -224 -192 0
v -224 -176 0
v -208 -176 0
v -224 -192 0
v -240 -192 0
v -240 -176 0
v -224 -176 0
v -240 -192 0
v -256 -192 0
v -256 -176 0
v -240 -176 0
v 0 -208 0
v -16 -208 0
v -16 -192 0
v 0 -192 0
v -16 -208 0
v -32 -208 0
v -32 -192 0
v -16 -192 0
v -32 -208 0
v -48 -208 0
v -48 -192 0
v -32 -192 0
v -48 -208 0
v -64 -208 0
v -64 -192 0
v -48 -192 0
v -64 -208 0
v -80 -208 0
v -80 -192 0
v -64 -192 0
v -80 -208 0
v -96 -208 0
v -96 -192 0
v -80 -192 0
v -96 -208 0
v -112 -208 0
v -112 -192 0
v -96 -192 0
v -112 -208 0
v -128 -208 0
v -128 -192 0
v -112 -192 0
v -128 -208 0
v -144 -208 0
v -144 -192 0
v -128 -192 0
v -144 -208 0
v -160 -208 0
v -160 -192 0
v -144 -192 0
v -160 -208 0
v -176 -208 0
v -176 -192 0
v -160 -192 0
v -176 -208 0
v -192 -208 0
v -192 -192 0
v -176 -192 0
v -192 -208 0
v -208 -208 0
v -208 -192 0
v -192 -192 0
v -208 -208 0
v -224 -208 0
v -224 -192 0
v -208 -192 0
v -224 -208 0
v -240 -208 0
v -240 -192 0
v -224 -192 0
v -240 -208 0
v -256 -208 0
v -256 -192 0
v -240 -192 0
v 0 -224 0
v -16 -224 0
v -16 -208 0
v 0 -208 0
v -16 -224 0
v -32 -224 0
v -32 -208 0
v -16 -208 0
v -32 -224 0
v -48 -224 0
v -48 -208 0
v -32 -208 0
v -48 -224 0
v -64 -224 0
v -64 -208 0
v -48 -208 0
v -64 -224 0
v -80 -224 0
v -80 -208 0
v -64 -208 0
v -80 -224 0
v -96 -224 0
v -96 -208 0
v -80 -208 0
v -96 -224 0
v -112 -224 0
v -112 -208 0
v -96 -208 0
v -112 -224 0
v -128 -224 0
v -128 -208 0
v -112 -208 0
v -128 -224 0
v -144 -224 0
v -144 -208 0
v -128 -208 0
v -144 -224 0
v -160 -224 0
v -160 -208 0
v -144 -208 0
v -160 -224 0
v -176 -224 0
v -176 -208 0
v -160 -208 0
v -176 -224 0
v -192 -224 0
v -192 -208 0
v -176 -208 0
v -192 -224 0
v -208 -224 0
v -208 -208 0
v -192 -208 0
v -208 -224 0
v -224 -224 0
v -224 -208 0
v -208 -208 0
v -224 -224 0
v -240 -224 0
v -240 -208 0
v -224 -208 0
v -240 -224 0
v -256 -224 0
v -256 -208 0
v -240 -208 0
v 0 -240 0
v -16 -240 0
v -16 -224 0
v 0 -224 0
v -16 -240 0
v -32 -240 0
v -32 -224 0
v -16 -224 0
v -32 -240 0
v -48 -240 0
v -48 -224 0
v -32 -224 0
v -48 -240 0
v -64 -240 0
v -64 -224 0
v -48 -224 0
v -64 -240 0
v -80 -240 0
v -80 -224 0
v -64 -224 0
v -80 -240 0
v -96 -240 0
v -96 -224 0
v -80 -224 0
v -96 -240 0
v -112 -240 0
v -112 -224 0
v -96 -224 0
v -112 -240 0
v -128 -240 0
v -128 -224 0
v -112 -224 0
v -128 -240 0
v -144 -240 0
v -144 -224 0
v -128 -224 0
v -144 -240 0
v -160 -240 0
v -160 -224 0
v -144 -224 0
v -160 -240 0
v -176 -240 0
v -176 -224 0
v -160 -224 0
v -176 -240 0
v -192 -240 0
v -192 -224 0
v -176 -224 0
v -192 -240 0
v -208 -240 0
v -208 -224 0
v -192 -224 0
v -208 -240 0
v -224 -240 0
v -224 -224 0
v -208 -224 0
v -224 -240 0
v -240 -240 0
v -240 -224 0
v -224 -224 0
v -240 -240 0
v -256 -240 0
v -256 -224 0
v -240 -224 0
v -224 -256 0
v -240 -256 0
v -240 -240 0
v -224 -240 0
v -240 -256 0
v -256 -256 0
v -256 -240 0
v -240 -240 0

# Texture cooridinates (Count = 20)
vt 0.606383 0.75
vt 0.6170213 0.75
vt 0.6170213 0.8125
vt 0.606383 0.8125
vt 0.606383 0.6875
vt 0.6170213 0.6875
vt 0.606383 0.625
vt 0.6170213 0.625
vt 0.6276596 0.6875
vt 0.6276596 0.75
vt 0.6382979 0.6875
vt 0.6382979 0.75
vt 0.6276596 0.625
vt 0.6382979 0.625
vt 0.6170213 0.875
vt 0.606383 0.875
vt 0.6276596 0.8125
vt 0.6276596 0.875
vt 0.6382979 0.8125
vt 0.6382979 0.875

# Normal
vn 0 0 -1

# Mesh description
g 2ScenarioPlataforma_mesh_0974

# Faces
f 1/1/1 2/2/1 3/3/1 4/4/1
f 5/1/1 6/2/1 7/3/1 8/4/1
f 9/1/1 10/2/1 11/3/1 12/4/1
f 13/1/1 14/2/1 15/3/1 16/4/1
f 17/1/1 18/2/1 19/3/1 20/4/1
f 21/1/1 22/2/1 23/3/1 24/4/1
f 25/1/1 26/2/1 27/3/1 28/4/1
f 29/1/1 30/2/1 31/3/1 32/4/1
f 33/1/1 34/2/1 35/3/1 36/4/1
f 37/1/1 38/2/1 39/3/1 40/4/1
f 41/1/1 42/2/1 43/3/1 44/4/1
f 45/1/1 46/2/1 47/3/1 48/4/1
f 49/1/1 50/2/1 51/3/1 52/4/1
f 53/1/1 54/2/1 55/3/1 56/4/1
f 57/1/1 58/2/1 59/3/1 60/4/1
f 61/1/1 62/2/1 63/3/1 64/4/1
f 65/5/1 66/6/1 67/2/1 68/1/1
f 69/5/1 70/6/1 71/2/1 72/1/1
f 73/5/1 74/6/1 75/2/1 76/1/1
f 77/5/1 78/6/1 79/2/1 80/1/1
f 81/5/1 82/6/1 83/2/1 84/1/1
f 85/5/1 86/6/1 87/2/1 88/1/1
f 89/5/1 90/6/1 91/2/1 92/1/1
f 93/5/1 94/6/1 95/2/1 96/1/1
f 97/5/1 98/6/1 99/2/1 100/1/1
f 101/5/1 102/6/1 103/2/1 104/1/1
f 105/5/1 106/6/1 107/2/1 108/1/1
f 109/5/1 110/6/1 111/2/1 112/1/1
f 113/5/1 114/6/1 115/2/1 116/1/1
f 117/5/1 118/6/1 119/2/1 120/1/1
f 121/5/1 122/6/1 123/2/1 124/1/1
f 125/5/1 126/6/1 127/2/1 128/1/1
f 129/7/1 130/8/1 131/6/1 132/5/1
f 133/7/1 134/8/1 135/6/1 136/5/1
f 137/7/1 138/8/1 139/6/1 140/5/1
f 141/7/1 142/8/1 143/6/1 144/5/1
f 145/7/1 146/8/1 147/6/1 148/5/1
f 149/7/1 150/8/1 151/6/1 152/5/1
f 153/7/1 154/8/1 155/6/1 156/5/1
f 157/7/1 158/8/1 159/6/1 160/5/1
f 161/7/1 162/8/1 163/6/1 164/5/1
f 165/7/1 166/8/1 167/6/1 168/5/1
f 169/7/1 170/8/1 171/6/1 172/5/1
f 173/7/1 174/8/1 175/6/1 176/5/1
f 177/7/1 178/8/1 179/6/1 180/5/1
f 181/7/1 182/8/1 183/6/1 184/5/1
f 185/7/1 186/8/1 187/6/1 188/5/1
f 189/7/1 190/8/1 191/6/1 192/5/1
f 193/5/1 194/6/1 195/2/1 196/1/1
f 197/6/1 198/9/1 199/10/1 200/2/1
f 201/9/1 202/11/1 203/12/1 204/10/1
f 205/5/1 206/6/1 207/2/1 208/1/1
f 209/6/1 210/9/1 211/10/1 212/2/1
f 213/9/1 214/11/1 215/12/1 216/10/1
f 217/5/1 218/6/1 219/2/1 220/1/1
f 221/6/1 222/9/1 223/10/1 224/2/1
f 225/9/1 226/11/1 227/12/1 228/10/1
f 229/5/1 230/6/1 231/2/1 232/1/1
f 233/6/1 234/9/1 235/10/1 236/2/1
f 237/9/1 238/11/1 239/12/1 240/10/1
f 241/5/1 242/6/1 243/2/1 244/1/1
f 245/6/1 246/9/1 247/10/1 248/2/1
f 249/9/1 250/11/1 251/12/1 252/10/1
f 253/5/1 254/6/1 255/2/1 256/1/1
f 257/7/1 258/8/1 259/6/1 260/5/1
f 261/8/1 262/13/1 263/9/1 264/6/1
f 265/13/1 266/14/1 267/11/1 268/9/1
f 269/7/1 270/8/1 271/6/1 272/5/1
f 273/8/1 274/13/1 275/9/1 276/6/1
f 277/13/1 278/14/1 279/11/1 280/9/1
f 281/7/1 282/8/1 283/6/1 284/5/1
f 285/8/1 286/13/1 287/9/1 288/6/1
f 289/13/1 290/14/1 291/11/1 292/9/1
f 293/7/1 294/8/1 295/6/1 296/5/1
f 297/8/1 298/13/1 299/9/1 300/6/1
f 301/13/1 302/14/1 303/11/1 304/9/1
f 305/7/1 306/8/1 307/6/1 308/5/1
f 309/8/1 310/13/1 311/9/1 312/6/1
f 313/13/1 314/14/1 315/11/1 316/9/1
f 317/7/1 318/8/1 319/6/1 320/5/1
f 321/4/1 322/3/1 323/15/1 324/16/1
f 325/3/1 326/17/1 327/18/1 328/15/1
f 329/17/1 330/19/1 331/20/1 332/18/1
f 333/4/1 334/3/1 335/15/1 336/16/1
f 337/3/1 338/17/1 339/18/1 340/15/1
f 341/17/1 342/19/1 343/20/1 344/18/1
f 345/4/1 346/3/1 347/15/1 348/16/1
f 349/3/1 350/17/1 351/18/1 352/15/1
f 353/17/1 354/19/1 355/20/1 356/18/1
f 357/4/1 358/3/1 359/15/1 360/16/1
f 361/3/1 362/17/1 363/18/1 364/15/1
f 365/17/1 366/19/1 367/20/1 368/18/1
f 369/4/1 370/3/1 371/15/1 372/16/1
f 373/3/1 374/17/1 375/18/1 376/15/1
f 377/17/1 378/19/1 379/20/1 380/18/1
f 381/4/1 382/3/1 383/15/1 384/16/1
f 385/1/1 386/2/1 387/3/1 388/4/1
f 389/2/1 390/10/1 391/17/1 392/3/1
f 393/10/1 394/12/1 395/19/1 396/17/1
f 397/1/1 398/2/1 399/3/1 400/4/1
f 401/2/1 402/10/1 403/17/1 404/3/1
f 405/10/1 406/12/1 407/19/1 408/17/1
f 409/1/1 410/2/1 411/3/1 412/4/1
f 413/2/1 414/10/1 415/17/1 416/3/1
f 417/10/1 418/12/1 419/19/1 420/17/1
f 421/1/1 422/2/1 423/3/1 424/4/1
f 425/2/1 426/10/1 427/17/1 428/3/1
f 429/10/1 430/12/1 431/19/1 432/17/1
f 433/1/1 434/2/1 435/3/1 436/4/1
f 437/2/1 438/10/1 439/17/1 440/3/1
f 441/10/1 442/12/1 443/19/1 444/17/1
f 445/1/1 446/2/1 447/3/1 448/4/1
f 449/5/1 450/6/1 451/2/1 452/1/1
f 453/6/1 454/9/1 455/10/1 456/2/1
f 457/9/1 458/11/1 459/12/1 460/10/1
f 461/5/1 462/6/1 463/2/1 464/1/1
f 465/6/1 466/9/1 467/10/1 468/2/1
f 469/9/1 470/11/1 471/12/1 472/10/1
f 473/5/1 474/6/1 475/2/1 476/1/1
f 477/6/1 478/9/1 479/10/1 480/2/1
f 481/9/1 482/11/1 483/12/1 484/10/1
f 485/5/1 486/6/1 487/2/1 488/1/1
f 489/6/1 490/9/1 491/10/1 492/2/1
f 493/9/1 494/11/1 495/12/1 496/10/1
f 497/5/1 498/6/1 499/2/1 500/1/1
f 501/6/1 502/9/1 503/10/1 504/2/1
f 505/9/1 506/11/1 507/12/1 508/10/1
f 509/5/1 510/6/1 511/2/1 512/1/1
f 513/7/1 514/8/1 515/6/1 516/5/1
f 517/8/1 518/13/1 519/9/1 520/6/1
f 521/13/1 522/14/1 523/11/1 524/9/1
f 525/7/1 526/8/1 527/6/1 528/5/1
f 529/8/1 530/13/1 531/9/1 532/6/1
f 533/13/1 534/14/1 535/11/1 536/9/1
f 537/7/1 538/8/1 539/6/1 540/5/1
f 541/8/1 542/13/1 543/9/1 544/6/1
f 545/13/1 546/14/1 547/11/1 548/9/1
f 549/7/1 550/8/1 551/6/1 552/5/1
f 553/8/1 554/13/1 555/9/1 556/6/1
f 557/13/1 558/14/1 559/11/1 560/9/1
f 561/7/1 562/8/1 563/6/1 564/5/1
f 565/8/1 566/13/1 567/9/1 568/6/1
f 569/13/1 570/14/1 571/11/1 572/9/1
f 573/7/1 574/8/1 575/6/1 576/5/1
f 577/4/1 578/3/1 579/15/1 580/16/1
f 581/3/1 582/17/1 583/18/1 584/15/1
f 585/17/1 586/19/1 587/20/1 588/18/1
f 589/4/1 590/3/1 591/15/1 592/16/1
f 593/3/1 594/17/1 595/18/1 596/15/1
f 597/17/1 598/19/1 599/20/1 600/18/1
f 601/4/1 602/3/1 603/15/1 604/16/1
f 605/3/1 606/17/1 607/18/1 608/15/1
f 609/17/1 610/19/1 611/20/1 612/18/1
f 613/4/1 614/3/1 615/15/1 616/16/1
f 617/3/1 618/17/1 619/18/1 620/15/1
f 621/17/1 622/19/1 623/20/1 624/18/1
f 625/4/1 626/3/1 627/15/1 628/16/1
f 629/3/1 630/17/1 631/18/1 632/15/1
f 633/17/1 634/19/1 635/20/1 636/18/1
f 637/4/1 638/3/1 639/15/1 640/16/1
f 641/1/1 642/2/1 643/3/1 644/4/1
f 645/2/1 646/10/1 647/17/1 648/3/1
f 649/10/1 650/12/1 651/19/1 652/17/1
f 653/1/1 654/2/1 655/3/1 656/4/1
f 657/2/1 658/10/1 659/17/1 660/3/1
f 661/10/1 662/12/1 663/19/1 664/17/1
f 665/1/1 666/2/1 667/3/1 668/4/1
f 669/2/1 670/10/1 671/17/1 672/3/1
f 673/10/1 674/12/1 675/19/1 676/17/1
f 677/1/1 678/2/1 679/3/1 680/4/1
f 681/2/1 682/10/1 683/17/1 684/3/1
f 685/10/1 686/12/1 687/19/1 688/17/1
f 689/1/1 690/2/1 691/3/1 692/4/1
f 693/2/1 694/10/1 695/17/1 696/3/1
f 697/10/1 698/12/1 699/19/1 700/17/1
f 701/1/1 702/2/1 703/3/1 704/4/1
f 705/4/1 706/3/1 707/15/1 708/16/1
f 709/4/1 710/3/1 711/15/1 712/16/1
f 713/4/1 714/3/1 715/15/1 716/16/1
f 717/4/1 718/3/1 719/15/1 720/16/1
f 721/4/1 722/3/1 723/15/1 724/16/1
f 725/4/1 726/3/1 727/15/1 728/16/1
f 729/4/1 730/3/1 731/15/1 732/16/1
f 733/4/1 734/3/1 735/15/1 736/16/1
f 737/4/1 738/3/1 739/15/1 740/16/1
f 741/4/1 742/3/1 743/15/1 744/16/1
f 745/4/1 746/3/1 747/15/1 748/16/1
f 749/4/1 750/3/1 751/15/1 752/16/1
f 753/4/1 754/3/1 755/15/1 756/16/1
f 757/4/1 758/3/1 759/15/1 760/16/1
f 761/3/1 762/17/1 763/18/1 764/15/1
f 765/17/1 766/19/1 767/20/1 768/18/1
f 769/1/1 770/2/1 771/3/1 772/4/1
f 773/1/1 774/2/1 775/3/1 776/4/1
f 777/1/1 778/2/1 779/3/1 780/4/1
f 781/1/1 782/2/1 783/3/1 784/4/1
f 785/1/1 786/2/1 787/3/1 788/4/1
f 789/1/1 790/2/1 791/3/1 792/4/1
f 793/1/1 794/2/1 795/3/1 796/4/1
f 797/1/1 798/2/1 799/3/1 800/4/1
f 801/1/1 802/2/1 803/3/1 804/4/1
f 805/1/1 806/2/1 807/3/1 808/4/1
f 809/1/1 810/2/1 811/3/1 812/4/1
f 813/1/1 814/2/1 815/3/1 816/4/1
f 817/1/1 818/2/1 819/3/1 820/4/1
f 821/1/1 822/2/1 823/3/1 824/4/1
f 825/4/1 826/3/1 827/15/1 828/16/1
f 829/4/1 830/3/1 831/15/1 832/16/1
f 833/5/1 834/6/1 835/2/1 836/1/1
f 837/5/1 838/6/1 839/2/1 840/1/1
f 841/5/1 842/6/1 843/2/1 844/1/1
f 845/5/1 846/6/1 847/2/1 848/1/1
f 849/5/1 850/6/1 851/2/1 852/1/1
f 853/5/1 854/6/1 855/2/1 856/1/1
f 857/5/1 858/6/1 859/2/1 860/1/1
f 861/5/1 862/6/1 863/2/1 864/1/1
f 865/5/1 866/6/1 867/2/1 868/1/1
f 869/5/1 870/6/1 871/2/1 872/1/1
f 873/5/1 874/6/1 875/2/1 876/1/1
f 877/5/1 878/6/1 879/2/1 880/1/1
f 881/5/1 882/6/1 883/2/1 884/1/1
f 885/5/1 886/6/1 887/2/1 888/1/1
f 889/1/1 890/2/1 891/3/1 892/4/1
f 893/1/1 894/2/1 895/3/1 896/4/1
f 897/7/1 898/8/1 899/6/1 900/5/1
f 901/7/1 902/8/1 903/6/1 904/5/1
f 905/7/1 906/8/1 907/6/1 908/5/1
f 909/7/1 910/8/1 911/6/1 912/5/1
f 913/7/1 914/8/1 915/6/1 916/5/1
f 917/7/1 918/8/1 919/6/1 920/5/1
f 921/7/1 922/8/1 923/6/1 924/5/1
f 925/7/1 926/8/1 927/6/1 928/5/1
f 929/7/1 930/8/1 931/6/1 932/5/1
f 933/7/1 934/8/1 935/6/1 936/5/1
f 937/7/1 938/8/1 939/6/1 940/5/1
f 941/7/1 942/8/1 943/6/1 944/5/1
f 945/7/1 946/8/1 947/6/1 948/5/1
f 949/7/1 950/8/1 951/6/1 952/5/1
f 953/5/1 954/6/1 955/2/1 956/1/1
f 957/5/1 958/6/1 959/2/1 960/1/1
f 961/7/1 962/8/1 963/6/1 964/5/1
f 965/7/1 966/8/1 967/6/1 968/5/1

