# Tiled2Unity generated file. Do not modify by hand.
# Wavefront file for '2ScenarioPlataforma_mesh_0342.obj'

# Vertices (Count = 16)
v -240 -192 0
v -256 -192 0
v -256 -176 0
v -240 -176 0
v 0 -256 0
v -16 -256 0
v -16 -240 0
v 0 -240 0
v -16 -256 0
v -32 -256 0
v -32 -240 0
v -16 -240 0
v -176 -256 0
v -192 -256 0
v -192 -240 0
v -176 -240 0

# Texture cooridinates (Count = 10)
vt 0.5952381 0.875
vt 0.5714286 0.875
vt 0.5714286 0.8125
vt 0.5952381 0.8125
vt 0.5 0.875
vt 0.4761905 0.875
vt 0.4761905 0.8125
vt 0.5 0.8125
vt 0.5238096 0.875
vt 0.5238096 0.8125

# Normal
vn 0 0 -1

# Mesh description
g 2ScenarioPlataforma_mesh_0342

# Faces
f 1/1/1 2/2/1 3/3/1 4/4/1
f 5/5/1 6/6/1 7/7/1 8/8/1
f 9/9/1 10/5/1 11/8/1 12/10/1
f 13/1/1 14/2/1 15/3/1 16/4/1

