# Tiled2Unity generated file. Do not modify by hand.
# Wavefront file for '2ScenarioPlataforma_mesh_0951.obj'

# Vertices (Count = 180)
v -32 -16 0
v -48 -16 0
v -48 0 0
v -32 0 0
v -208 -16 0
v -224 -16 0
v -224 0 0
v -208 0 0
v -32 -32 0
v -48 -32 0
v -48 -16 0
v -32 -16 0
v -208 -32 0
v -224 -32 0
v -224 -16 0
v -208 -16 0
v -32 -48 0
v -48 -48 0
v -48 -32 0
v -32 -32 0
v -208 -48 0
v -224 -48 0
v -224 -32 0
v -208 -32 0
v -32 -64 0
v -48 -64 0
v -48 -48 0
v -32 -48 0
v -208 -64 0
v -224 -64 0
v -224 -48 0
v -208 -48 0
v -144 -208 0
v -160 -208 0
v -160 -192 0
v -144 -192 0
v -160 -208 0
v -176 -208 0
v -176 -192 0
v -160 -192 0
v -176 -208 0
v -192 -208 0
v -192 -192 0
v -176 -192 0
v -192 -208 0
v -208 -208 0
v -208 -192 0
v -192 -192 0
v -208 -208 0
v -224 -208 0
v -224 -192 0
v -208 -192 0
v -224 -208 0
v -240 -208 0
v -240 -192 0
v -224 -192 0
v -240 -208 0
v -256 -208 0
v -256 -192 0
v -240 -192 0
v -144 -224 0
v -160 -224 0
v -160 -208 0
v -144 -208 0
v -160 -224 0
v -176 -224 0
v -176 -208 0
v -160 -208 0
v -176 -224 0
v -192 -224 0
v -192 -208 0
v -176 -208 0
v -192 -224 0
v -208 -224 0
v -208 -208 0
v -192 -208 0
v -208 -224 0
v -224 -224 0
v -224 -208 0
v -208 -208 0
v -224 -224 0
v -240 -224 0
v -240 -208 0
v -224 -208 0
v -240 -224 0
v -256 -224 0
v -256 -208 0
v -240 -208 0
v -144 -240 0
v -160 -240 0
v -160 -224 0
v -144 -224 0
v -160 -240 0
v -176 -240 0
v -176 -224 0
v -160 -224 0
v -176 -240 0
v -192 -240 0
v -192 -224 0
v -176 -224 0
v -192 -240 0
v -208 -240 0
v -208 -224 0
v -192 -224 0
v -208 -240 0
v -224 -240 0
v -224 -224 0
v -208 -224 0
v -224 -240 0
v -240 -240 0
v -240 -224 0
v -224 -224 0
v -240 -240 0
v -256 -240 0
v -256 -224 0
v -240 -224 0
v 0 -256 0
v -16 -256 0
v -16 -240 0
v 0 -240 0
v -16 -256 0
v -32 -256 0
v -32 -240 0
v -16 -240 0
v -32 -256 0
v -48 -256 0
v -48 -240 0
v -32 -240 0
v -48 -256 0
v -64 -256 0
v -64 -240 0
v -48 -240 0
v -64 -256 0
v -80 -256 0
v -80 -240 0
v -64 -240 0
v -80 -256 0
v -96 -256 0
v -96 -240 0
v -80 -240 0
v -96 -256 0
v -112 -256 0
v -112 -240 0
v -96 -240 0
v -112 -256 0
v -128 -256 0
v -128 -240 0
v -112 -240 0
v -128 -256 0
v -144 -256 0
v -144 -240 0
v -128 -240 0
v -144 -256 0
v -160 -256 0
v -160 -240 0
v -144 -240 0
v -160 -256 0
v -176 -256 0
v -176 -240 0
v -160 -240 0
v -176 -256 0
v -192 -256 0
v -192 -240 0
v -176 -240 0
v -192 -256 0
v -208 -256 0
v -208 -240 0
v -192 -240 0
v -208 -256 0
v -224 -256 0
v -224 -240 0
v -208 -240 0
v -224 -256 0
v -240 -256 0
v -240 -240 0
v -224 -240 0
v -240 -256 0
v -256 -256 0
v -256 -240 0
v -240 -240 0

# Texture cooridinates (Count = 38)
vt 0.1170213 0.25
vt 0.1276596 0.25
vt 0.1276596 0.3125
vt 0.1170213 0.3125
vt 0.1489362 0.25
vt 0.1595745 0.25
vt 0.1595745 0.3125
vt 0.1489362 0.3125
vt 0.1382979 0.25
vt 0.1382979 0.3125
vt 0.2659574 0.25
vt 0.2765957 0.25
vt 0.2765957 0.3125
vt 0.2659574 0.3125
vt 0.212766 0.125
vt 0.2234043 0.125
vt 0.2234043 0.1875
vt 0.212766 0.1875
vt 0.2340426 0.125
vt 0.2340426 0.1875
vt 0.2446809 0.125
vt 0.2446809 0.1875
vt 0.2553191 0.125
vt 0.2553191 0.1875
vt 0.212766 0.0625
vt 0.2234043 0.0625
vt 0.2340426 0.0625
vt 0.2446809 0.0625
vt 0.2553191 0.0625
vt 0.212766 0
vt 0.2234043 0
vt 0.2340426 0
vt 0.2446809 0
vt 0.2553191 0
vt 0.606383 0.8125
vt 0.6170213 0.8125
vt 0.6170213 0.875
vt 0.606383 0.875

# Normal
vn 0 0 -1

# Mesh description
g 2ScenarioPlataforma_mesh_0951

# Faces
f 1/1/1 2/2/1 3/3/1 4/4/1
f 5/1/1 6/2/1 7/3/1 8/4/1
f 9/5/1 10/6/1 11/7/1 12/8/1
f 13/5/1 14/6/1 15/7/1 16/8/1
f 17/9/1 18/5/1 19/8/1 20/10/1
f 21/1/1 22/2/1 23/3/1 24/4/1
f 25/11/1 26/12/1 27/13/1 28/14/1
f 29/1/1 30/2/1 31/3/1 32/4/1
f 33/15/1 34/16/1 35/17/1 36/18/1
f 37/16/1 38/19/1 39/20/1 40/17/1
f 41/19/1 42/21/1 43/22/1 44/20/1
f 45/21/1 46/23/1 47/24/1 48/22/1
f 49/15/1 50/16/1 51/17/1 52/18/1
f 53/16/1 54/19/1 55/20/1 56/17/1
f 57/19/1 58/21/1 59/22/1 60/20/1
f 61/25/1 62/26/1 63/16/1 64/15/1
f 65/26/1 66/27/1 67/19/1 68/16/1
f 69/27/1 70/28/1 71/21/1 72/19/1
f 73/28/1 74/29/1 75/23/1 76/21/1
f 77/25/1 78/26/1 79/16/1 80/15/1
f 81/26/1 82/27/1 83/19/1 84/16/1
f 85/27/1 86/28/1 87/21/1 88/19/1
f 89/30/1 90/31/1 91/26/1 92/25/1
f 93/31/1 94/32/1 95/27/1 96/26/1
f 97/32/1 98/33/1 99/28/1 100/27/1
f 101/33/1 102/34/1 103/29/1 104/28/1
f 105/30/1 106/31/1 107/26/1 108/25/1
f 109/31/1 110/32/1 111/27/1 112/26/1
f 113/32/1 114/33/1 115/28/1 116/27/1
f 117/35/1 118/36/1 119/37/1 120/38/1
f 121/35/1 122/36/1 123/37/1 124/38/1
f 125/35/1 126/36/1 127/37/1 128/38/1
f 129/35/1 130/36/1 131/37/1 132/38/1
f 133/35/1 134/36/1 135/37/1 136/38/1
f 137/35/1 138/36/1 139/37/1 140/38/1
f 141/35/1 142/36/1 143/37/1 144/38/1
f 145/35/1 146/36/1 147/37/1 148/38/1
f 149/35/1 150/36/1 151/37/1 152/38/1
f 153/35/1 154/36/1 155/37/1 156/38/1
f 157/35/1 158/36/1 159/37/1 160/38/1
f 161/35/1 162/36/1 163/37/1 164/38/1
f 165/35/1 166/36/1 167/37/1 168/38/1
f 169/35/1 170/36/1 171/37/1 172/38/1
f 173/35/1 174/36/1 175/37/1 176/38/1
f 177/35/1 178/36/1 179/37/1 180/38/1

