# Tiled2Unity generated file. Do not modify by hand.
# Wavefront file for '2ScenarioPlataforma_mesh_0535.obj'

# Vertices (Count = 16)
v -192 -32 0
v -208 -32 0
v -208 -16 0
v -192 -16 0
v -208 -32 0
v -224 -32 0
v -224 -16 0
v -208 -16 0
v -224 -32 0
v -240 -32 0
v -240 -16 0
v -224 -16 0
v -240 -32 0
v -256 -32 0
v -256 -16 0
v -240 -16 0

# Texture cooridinates (Count = 8)
vt 0.4761905 0.25
vt 0.5 0.25
vt 0.5 0.3125
vt 0.4761905 0.3125
vt 0.1190476 0.1875
vt 0.1428571 0.1875
vt 0.1428571 0.25
vt 0.1190476 0.25

# Normal
vn 0 0 -1

# Mesh description
g 2ScenarioPlataforma_mesh_0535

# Faces
f 1/1/1 2/2/1 3/3/1 4/4/1
f 5/5/1 6/6/1 7/7/1 8/8/1
f 9/5/1 10/6/1 11/7/1 12/8/1
f 13/5/1 14/6/1 15/7/1 16/8/1

