# Tiled2Unity generated file. Do not modify by hand.
# Wavefront file for '2ScenarioPlataforma_mesh_0511.obj'

# Vertices (Count = 16)
v -112 -48 0
v -128 -48 0
v -128 -32 0
v -112 -32 0
v -128 -48 0
v -144 -48 0
v -144 -32 0
v -128 -32 0
v -112 -64 0
v -128 -64 0
v -128 -48 0
v -112 -48 0
v -128 -64 0
v -144 -64 0
v -144 -48 0
v -128 -48 0

# Texture cooridinates (Count = 9)
vt 0.7619048 0.8125
vt 0.7857143 0.8125
vt 0.7857143 0.875
vt 0.7619048 0.875
vt 0.8095238 0.8125
vt 0.8095238 0.875
vt 0.7619048 0.75
vt 0.7857143 0.75
vt 0.8095238 0.75

# Normal
vn 0 0 -1

# Mesh description
g 2ScenarioPlataforma_mesh_0511

# Faces
f 1/1/1 2/2/1 3/3/1 4/4/1
f 5/2/1 6/5/1 7/6/1 8/3/1
f 9/7/1 10/8/1 11/2/1 12/1/1
f 13/8/1 14/9/1 15/5/1 16/2/1

