# Tiled2Unity generated file. Do not modify by hand.
# Wavefront file for '2ScenarioPlataforma_mesh_0496.obj'

# Vertices (Count = 384)
v -80 -80 0
v -96 -80 0
v -96 -64 0
v -80 -64 0
v -96 -80 0
v -112 -80 0
v -112 -64 0
v -96 -64 0
v -112 -80 0
v -128 -80 0
v -128 -64 0
v -112 -64 0
v -128 -80 0
v -144 -80 0
v -144 -64 0
v -128 -64 0
v -144 -80 0
v -160 -80 0
v -160 -64 0
v -144 -64 0
v -160 -80 0
v -176 -80 0
v -176 -64 0
v -160 -64 0
v -176 -80 0
v -192 -80 0
v -192 -64 0
v -176 -64 0
v -192 -80 0
v -208 -80 0
v -208 -64 0
v -192 -64 0
v -80 -96 0
v -96 -96 0
v -96 -80 0
v -80 -80 0
v -96 -96 0
v -112 -96 0
v -112 -80 0
v -96 -80 0
v -112 -96 0
v -128 -96 0
v -128 -80 0
v -112 -80 0
v -128 -96 0
v -144 -96 0
v -144 -80 0
v -128 -80 0
v -144 -96 0
v -160 -96 0
v -160 -80 0
v -144 -80 0
v -160 -96 0
v -176 -96 0
v -176 -80 0
v -160 -80 0
v -176 -96 0
v -192 -96 0
v -192 -80 0
v -176 -80 0
v -192 -96 0
v -208 -96 0
v -208 -80 0
v -192 -80 0
v -80 -112 0
v -96 -112 0
v -96 -96 0
v -80 -96 0
v -96 -112 0
v -112 -112 0
v -112 -96 0
v -96 -96 0
v -112 -112 0
v -128 -112 0
v -128 -96 0
v -112 -96 0
v -128 -112 0
v -144 -112 0
v -144 -96 0
v -128 -96 0
v -144 -112 0
v -160 -112 0
v -160 -96 0
v -144 -96 0
v -160 -112 0
v -176 -112 0
v -176 -96 0
v -160 -96 0
v -176 -112 0
v -192 -112 0
v -192 -96 0
v -176 -96 0
v -192 -112 0
v -208 -112 0
v -208 -96 0
v -192 -96 0
v -80 -128 0
v -96 -128 0
v -96 -112 0
v -80 -112 0
v -96 -128 0
v -112 -128 0
v -112 -112 0
v -96 -112 0
v -112 -128 0
v -128 -128 0
v -128 -112 0
v -112 -112 0
v -128 -128 0
v -144 -128 0
v -144 -112 0
v -128 -112 0
v -144 -128 0
v -160 -128 0
v -160 -112 0
v -144 -112 0
v -160 -128 0
v -176 -128 0
v -176 -112 0
v -160 -112 0
v -176 -128 0
v -192 -128 0
v -192 -112 0
v -176 -112 0
v -192 -128 0
v -208 -128 0
v -208 -112 0
v -192 -112 0
v -80 -144 0
v -96 -144 0
v -96 -128 0
v -80 -128 0
v -96 -144 0
v -112 -144 0
v -112 -128 0
v -96 -128 0
v -112 -144 0
v -128 -144 0
v -128 -128 0
v -112 -128 0
v -128 -144 0
v -144 -144 0
v -144 -128 0
v -128 -128 0
v -144 -144 0
v -160 -144 0
v -160 -128 0
v -144 -128 0
v -160 -144 0
v -176 -144 0
v -176 -128 0
v -160 -128 0
v -176 -144 0
v -192 -144 0
v -192 -128 0
v -176 -128 0
v -192 -144 0
v -208 -144 0
v -208 -128 0
v -192 -128 0
v -80 -160 0
v -96 -160 0
v -96 -144 0
v -80 -144 0
v -96 -160 0
v -112 -160 0
v -112 -144 0
v -96 -144 0
v -112 -160 0
v -128 -160 0
v -128 -144 0
v -112 -144 0
v -128 -160 0
v -144 -160 0
v -144 -144 0
v -128 -144 0
v -144 -160 0
v -160 -160 0
v -160 -144 0
v -144 -144 0
v -160 -160 0
v -176 -160 0
v -176 -144 0
v -160 -144 0
v -176 -160 0
v -192 -160 0
v -192 -144 0
v -176 -144 0
v -192 -160 0
v -208 -160 0
v -208 -144 0
v -192 -144 0
v -80 -176 0
v -96 -176 0
v -96 -160 0
v -80 -160 0
v -96 -176 0
v -112 -176 0
v -112 -160 0
v -96 -160 0
v -112 -176 0
v -128 -176 0
v -128 -160 0
v -112 -160 0
v -128 -176 0
v -144 -176 0
v -144 -160 0
v -128 -160 0
v -144 -176 0
v -160 -176 0
v -160 -160 0
v -144 -160 0
v -160 -176 0
v -176 -176 0
v -176 -160 0
v -160 -160 0
v -176 -176 0
v -192 -176 0
v -192 -160 0
v -176 -160 0
v -192 -176 0
v -208 -176 0
v -208 -160 0
v -192 -160 0
v -80 -192 0
v -96 -192 0
v -96 -176 0
v -80 -176 0
v -96 -192 0
v -112 -192 0
v -112 -176 0
v -96 -176 0
v -112 -192 0
v -128 -192 0
v -128 -176 0
v -112 -176 0
v -128 -192 0
v -144 -192 0
v -144 -176 0
v -128 -176 0
v -144 -192 0
v -160 -192 0
v -160 -176 0
v -144 -176 0
v -160 -192 0
v -176 -192 0
v -176 -176 0
v -160 -176 0
v -176 -192 0
v -192 -192 0
v -192 -176 0
v -176 -176 0
v -192 -192 0
v -208 -192 0
v -208 -176 0
v -192 -176 0
v -80 -208 0
v -96 -208 0
v -96 -192 0
v -80 -192 0
v -96 -208 0
v -112 -208 0
v -112 -192 0
v -96 -192 0
v -112 -208 0
v -128 -208 0
v -128 -192 0
v -112 -192 0
v -128 -208 0
v -144 -208 0
v -144 -192 0
v -128 -192 0
v -144 -208 0
v -160 -208 0
v -160 -192 0
v -144 -192 0
v -160 -208 0
v -176 -208 0
v -176 -192 0
v -160 -192 0
v -176 -208 0
v -192 -208 0
v -192 -192 0
v -176 -192 0
v -192 -208 0
v -208 -208 0
v -208 -192 0
v -192 -192 0
v -80 -224 0
v -96 -224 0
v -96 -208 0
v -80 -208 0
v -96 -224 0
v -112 -224 0
v -112 -208 0
v -96 -208 0
v -112 -224 0
v -128 -224 0
v -128 -208 0
v -112 -208 0
v -128 -224 0
v -144 -224 0
v -144 -208 0
v -128 -208 0
v -144 -224 0
v -160 -224 0
v -160 -208 0
v -144 -208 0
v -160 -224 0
v -176 -224 0
v -176 -208 0
v -160 -208 0
v -176 -224 0
v -192 -224 0
v -192 -208 0
v -176 -208 0
v -192 -224 0
v -208 -224 0
v -208 -208 0
v -192 -208 0
v -80 -240 0
v -96 -240 0
v -96 -224 0
v -80 -224 0
v -96 -240 0
v -112 -240 0
v -112 -224 0
v -96 -224 0
v -112 -240 0
v -128 -240 0
v -128 -224 0
v -112 -224 0
v -128 -240 0
v -144 -240 0
v -144 -224 0
v -128 -224 0
v -144 -240 0
v -160 -240 0
v -160 -224 0
v -144 -224 0
v -160 -240 0
v -176 -240 0
v -176 -224 0
v -160 -224 0
v -176 -240 0
v -192 -240 0
v -192 -224 0
v -176 -224 0
v -192 -240 0
v -208 -240 0
v -208 -224 0
v -192 -224 0
v -80 -256 0
v -96 -256 0
v -96 -240 0
v -80 -240 0
v -96 -256 0
v -112 -256 0
v -112 -240 0
v -96 -240 0
v -112 -256 0
v -128 -256 0
v -128 -240 0
v -112 -240 0
v -128 -256 0
v -144 -256 0
v -144 -240 0
v -128 -240 0
v -144 -256 0
v -160 -256 0
v -160 -240 0
v -144 -240 0
v -160 -256 0
v -176 -256 0
v -176 -240 0
v -160 -240 0
v -176 -256 0
v -192 -256 0
v -192 -240 0
v -176 -240 0
v -192 -256 0
v -208 -256 0
v -208 -240 0
v -192 -240 0

# Texture cooridinates (Count = 26)
vt 0.04761905 0.6875
vt 0.07142857 0.6875
vt 0.07142857 0.75
vt 0.04761905 0.75
vt 0.0952381 0.6875
vt 0.0952381 0.75
vt 0.1190476 0.6875
vt 0.1190476 0.75
vt 0.07142857 0.875
vt 0.0952381 0.875
vt 0.0952381 0.9375
vt 0.07142857 0.9375
vt 0.1190476 0.875
vt 0.1190476 0.9375
vt 0.1428571 0.6875
vt 0.1428571 0.75
vt 0.04761905 0.625
vt 0.07142857 0.625
vt 0.0952381 0.625
vt 0.07142857 0.8125
vt 0.0952381 0.8125
vt 0.1190476 0.8125
vt 0.1190476 0.625
vt 0.1428571 0.625
vt 0.04761905 0.5625
vt 0.07142857 0.5625

# Normal
vn 0 0 -1

# Mesh description
g 2ScenarioPlataforma_mesh_0496

# Faces
f 1/1/1 2/2/1 3/3/1 4/4/1
f 5/2/1 6/5/1 7/6/1 8/3/1
f 9/5/1 10/7/1 11/8/1 12/6/1
f 13/9/1 14/10/1 15/11/1 16/12/1
f 17/10/1 18/13/1 19/14/1 20/11/1
f 21/2/1 22/5/1 23/6/1 24/3/1
f 25/5/1 26/7/1 27/8/1 28/6/1
f 29/7/1 30/15/1 31/16/1 32/8/1
f 33/17/1 34/18/1 35/2/1 36/1/1
f 37/18/1 38/19/1 39/5/1 40/2/1
f 41/18/1 42/19/1 43/5/1 44/2/1
f 45/20/1 46/21/1 47/10/1 48/9/1
f 49/21/1 50/22/1 51/13/1 52/10/1
f 53/18/1 54/19/1 55/5/1 56/2/1
f 57/18/1 58/19/1 59/5/1 60/2/1
f 61/23/1 62/24/1 63/15/1 64/7/1
f 65/25/1 66/26/1 67/18/1 68/17/1
f 69/18/1 70/19/1 71/5/1 72/2/1
f 73/18/1 74/19/1 75/5/1 76/2/1
f 77/18/1 78/19/1 79/5/1 80/2/1
f 81/18/1 82/19/1 83/5/1 84/2/1
f 85/18/1 86/19/1 87/5/1 88/2/1
f 89/18/1 90/19/1 91/5/1 92/2/1
f 93/23/1 94/24/1 95/15/1 96/7/1
f 97/17/1 98/18/1 99/2/1 100/1/1
f 101/18/1 102/19/1 103/5/1 104/2/1
f 105/18/1 106/19/1 107/5/1 108/2/1
f 109/18/1 110/19/1 111/5/1 112/2/1
f 113/18/1 114/19/1 115/5/1 116/2/1
f 117/18/1 118/19/1 119/5/1 120/2/1
f 121/18/1 122/19/1 123/5/1 124/2/1
f 125/23/1 126/24/1 127/15/1 128/7/1
f 129/17/1 130/18/1 131/2/1 132/1/1
f 133/18/1 134/19/1 135/5/1 136/2/1
f 137/18/1 138/19/1 139/5/1 140/2/1
f 141/18/1 142/19/1 143/5/1 144/2/1
f 145/18/1 146/19/1 147/5/1 148/2/1
f 149/18/1 150/19/1 151/5/1 152/2/1
f 153/18/1 154/19/1 155/5/1 156/2/1
f 157/23/1 158/24/1 159/15/1 160/7/1
f 161/17/1 162/18/1 163/2/1 164/1/1
f 165/18/1 166/19/1 167/5/1 168/2/1
f 169/18/1 170/19/1 171/5/1 172/2/1
f 173/18/1 174/19/1 175/5/1 176/2/1
f 177/18/1 178/19/1 179/5/1 180/2/1
f 181/18/1 182/19/1 183/5/1 184/2/1
f 185/18/1 186/19/1 187/5/1 188/2/1
f 189/23/1 190/24/1 191/15/1 192/7/1
f 193/17/1 194/18/1 195/2/1 196/1/1
f 197/18/1 198/19/1 199/5/1 200/2/1
f 201/18/1 202/19/1 203/5/1 204/2/1
f 205/18/1 206/19/1 207/5/1 208/2/1
f 209/18/1 210/19/1 211/5/1 212/2/1
f 213/18/1 214/19/1 215/5/1 216/2/1
f 217/18/1 218/19/1 219/5/1 220/2/1
f 221/23/1 222/24/1 223/15/1 224/7/1
f 225/17/1 226/18/1 227/2/1 228/1/1
f 229/18/1 230/19/1 231/5/1 232/2/1
f 233/18/1 234/19/1 235/5/1 236/2/1
f 237/18/1 238/19/1 239/5/1 240/2/1
f 241/18/1 242/19/1 243/5/1 244/2/1
f 245/18/1 246/19/1 247/5/1 248/2/1
f 249/18/1 250/19/1 251/5/1 252/2/1
f 253/23/1 254/24/1 255/15/1 256/7/1
f 257/17/1 258/18/1 259/2/1 260/1/1
f 261/18/1 262/19/1 263/5/1 264/2/1
f 265/18/1 266/19/1 267/5/1 268/2/1
f 269/18/1 270/19/1 271/5/1 272/2/1
f 273/18/1 274/19/1 275/5/1 276/2/1
f 277/18/1 278/19/1 279/5/1 280/2/1
f 281/18/1 282/19/1 283/5/1 284/2/1
f 285/23/1 286/24/1 287/15/1 288/7/1
f 289/17/1 290/18/1 291/2/1 292/1/1
f 293/18/1 294/19/1 295/5/1 296/2/1
f 297/18/1 298/19/1 299/5/1 300/2/1
f 301/18/1 302/19/1 303/5/1 304/2/1
f 305/18/1 306/19/1 307/5/1 308/2/1
f 309/18/1 310/19/1 311/5/1 312/2/1
f 313/18/1 314/19/1 315/5/1 316/2/1
f 317/23/1 318/24/1 319/15/1 320/7/1
f 321/17/1 322/18/1 323/2/1 324/1/1
f 325/18/1 326/19/1 327/5/1 328/2/1
f 329/18/1 330/19/1 331/5/1 332/2/1
f 333/18/1 334/19/1 335/5/1 336/2/1
f 337/18/1 338/19/1 339/5/1 340/2/1
f 341/18/1 342/19/1 343/5/1 344/2/1
f 345/18/1 346/19/1 347/5/1 348/2/1
f 349/23/1 350/24/1 351/15/1 352/7/1
f 353/17/1 354/18/1 355/2/1 356/1/1
f 357/18/1 358/19/1 359/5/1 360/2/1
f 361/18/1 362/19/1 363/5/1 364/2/1
f 365/18/1 366/19/1 367/5/1 368/2/1
f 369/18/1 370/19/1 371/5/1 372/2/1
f 373/18/1 374/19/1 375/5/1 376/2/1
f 377/18/1 378/19/1 379/5/1 380/2/1
f 381/23/1 382/24/1 383/15/1 384/7/1

