# Tiled2Unity generated file. Do not modify by hand.
# Wavefront file for '2ScenarioPlataforma_mesh_0917.obj'

# Vertices (Count = 468)
v -176 -144 0
v -192 -144 0
v -192 -128 0
v -176 -128 0
v -192 -144 0
v -208 -144 0
v -208 -128 0
v -192 -128 0
v -208 -144 0
v -224 -144 0
v -224 -128 0
v -208 -128 0
v -224 -144 0
v -240 -144 0
v -240 -128 0
v -224 -128 0
v -240 -144 0
v -256 -144 0
v -256 -128 0
v -240 -128 0
v 0 -160 0
v -16 -160 0
v -16 -144 0
v 0 -144 0
v -16 -160 0
v -32 -160 0
v -32 -144 0
v -16 -144 0
v -32 -160 0
v -48 -160 0
v -48 -144 0
v -32 -144 0
v -48 -160 0
v -64 -160 0
v -64 -144 0
v -48 -144 0
v -64 -160 0
v -80 -160 0
v -80 -144 0
v -64 -144 0
v -80 -160 0
v -96 -160 0
v -96 -144 0
v -80 -144 0
v -96 -160 0
v -112 -160 0
v -112 -144 0
v -96 -144 0
v -112 -160 0
v -128 -160 0
v -128 -144 0
v -112 -144 0
v -128 -160 0
v -144 -160 0
v -144 -144 0
v -128 -144 0
v -144 -160 0
v -160 -160 0
v -160 -144 0
v -144 -144 0
v -160 -160 0
v -176 -160 0
v -176 -144 0
v -160 -144 0
v -176 -160 0
v -192 -160 0
v -192 -144 0
v -176 -144 0
v -192 -160 0
v -208 -160 0
v -208 -144 0
v -192 -144 0
v -208 -160 0
v -224 -160 0
v -224 -144 0
v -208 -144 0
v -224 -160 0
v -240 -160 0
v -240 -144 0
v -224 -144 0
v -240 -160 0
v -256 -160 0
v -256 -144 0
v -240 -144 0
v 0 -176 0
v -16 -176 0
v -16 -160 0
v 0 -160 0
v -16 -176 0
v -32 -176 0
v -32 -160 0
v -16 -160 0
v -32 -176 0
v -48 -176 0
v -48 -160 0
v -32 -160 0
v -48 -176 0
v -64 -176 0
v -64 -160 0
v -48 -160 0
v -64 -176 0
v -80 -176 0
v -80 -160 0
v -64 -160 0
v -80 -176 0
v -96 -176 0
v -96 -160 0
v -80 -160 0
v -96 -176 0
v -112 -176 0
v -112 -160 0
v -96 -160 0
v -112 -176 0
v -128 -176 0
v -128 -160 0
v -112 -160 0
v -128 -176 0
v -144 -176 0
v -144 -160 0
v -128 -160 0
v -144 -176 0
v -160 -176 0
v -160 -160 0
v -144 -160 0
v -160 -176 0
v -176 -176 0
v -176 -160 0
v -160 -160 0
v -176 -176 0
v -192 -176 0
v -192 -160 0
v -176 -160 0
v -192 -176 0
v -208 -176 0
v -208 -160 0
v -192 -160 0
v -208 -176 0
v -224 -176 0
v -224 -160 0
v -208 -160 0
v -224 -176 0
v -240 -176 0
v -240 -160 0
v -224 -160 0
v -240 -176 0
v -256 -176 0
v -256 -160 0
v -240 -160 0
v 0 -192 0
v -16 -192 0
v -16 -176 0
v 0 -176 0
v -16 -192 0
v -32 -192 0
v -32 -176 0
v -16 -176 0
v -32 -192 0
v -48 -192 0
v -48 -176 0
v -32 -176 0
v -48 -192 0
v -64 -192 0
v -64 -176 0
v -48 -176 0
v -64 -192 0
v -80 -192 0
v -80 -176 0
v -64 -176 0
v -80 -192 0
v -96 -192 0
v -96 -176 0
v -80 -176 0
v -96 -192 0
v -112 -192 0
v -112 -176 0
v -96 -176 0
v -112 -192 0
v -128 -192 0
v -128 -176 0
v -112 -176 0
v -128 -192 0
v -144 -192 0
v -144 -176 0
v -128 -176 0
v -144 -192 0
v -160 -192 0
v -160 -176 0
v -144 -176 0
v -160 -192 0
v -176 -192 0
v -176 -176 0
v -160 -176 0
v -176 -192 0
v -192 -192 0
v -192 -176 0
v -176 -176 0
v -192 -192 0
v -208 -192 0
v -208 -176 0
v -192 -176 0
v -208 -192 0
v -224 -192 0
v -224 -176 0
v -208 -176 0
v -224 -192 0
v -240 -192 0
v -240 -176 0
v -224 -176 0
v -240 -192 0
v -256 -192 0
v -256 -176 0
v -240 -176 0
v 0 -208 0
v -16 -208 0
v -16 -192 0
v 0 -192 0
v -16 -208 0
v -32 -208 0
v -32 -192 0
v -16 -192 0
v -32 -208 0
v -48 -208 0
v -48 -192 0
v -32 -192 0
v -48 -208 0
v -64 -208 0
v -64 -192 0
v -48 -192 0
v -64 -208 0
v -80 -208 0
v -80 -192 0
v -64 -192 0
v -80 -208 0
v -96 -208 0
v -96 -192 0
v -80 -192 0
v -96 -208 0
v -112 -208 0
v -112 -192 0
v -96 -192 0
v -112 -208 0
v -128 -208 0
v -128 -192 0
v -112 -192 0
v -128 -208 0
v -144 -208 0
v -144 -192 0
v -128 -192 0
v -144 -208 0
v -160 -208 0
v -160 -192 0
v -144 -192 0
v -160 -208 0
v -176 -208 0
v -176 -192 0
v -160 -192 0
v -176 -208 0
v -192 -208 0
v -192 -192 0
v -176 -192 0
v -192 -208 0
v -208 -208 0
v -208 -192 0
v -192 -192 0
v -208 -208 0
v -224 -208 0
v -224 -192 0
v -208 -192 0
v -224 -208 0
v -240 -208 0
v -240 -192 0
v -224 -192 0
v -240 -208 0
v -256 -208 0
v -256 -192 0
v -240 -192 0
v 0 -224 0
v -16 -224 0
v -16 -208 0
v 0 -208 0
v -16 -224 0
v -32 -224 0
v -32 -208 0
v -16 -208 0
v -32 -224 0
v -48 -224 0
v -48 -208 0
v -32 -208 0
v -48 -224 0
v -64 -224 0
v -64 -208 0
v -48 -208 0
v -64 -224 0
v -80 -224 0
v -80 -208 0
v -64 -208 0
v -80 -224 0
v -96 -224 0
v -96 -208 0
v -80 -208 0
v -96 -224 0
v -112 -224 0
v -112 -208 0
v -96 -208 0
v -112 -224 0
v -128 -224 0
v -128 -208 0
v -112 -208 0
v -128 -224 0
v -144 -224 0
v -144 -208 0
v -128 -208 0
v -144 -224 0
v -160 -224 0
v -160 -208 0
v -144 -208 0
v -160 -224 0
v -176 -224 0
v -176 -208 0
v -160 -208 0
v -176 -224 0
v -192 -224 0
v -192 -208 0
v -176 -208 0
v -192 -224 0
v -208 -224 0
v -208 -208 0
v -192 -208 0
v -208 -224 0
v -224 -224 0
v -224 -208 0
v -208 -208 0
v -224 -224 0
v -240 -224 0
v -240 -208 0
v -224 -208 0
v -240 -224 0
v -256 -224 0
v -256 -208 0
v -240 -208 0
v 0 -240 0
v -16 -240 0
v -16 -224 0
v 0 -224 0
v -16 -240 0
v -32 -240 0
v -32 -224 0
v -16 -224 0
v -32 -240 0
v -48 -240 0
v -48 -224 0
v -32 -224 0
v -48 -240 0
v -64 -240 0
v -64 -224 0
v -48 -224 0
v -64 -240 0
v -80 -240 0
v -80 -224 0
v -64 -224 0
v -80 -240 0
v -96 -240 0
v -96 -224 0
v -80 -224 0
v -96 -240 0
v -112 -240 0
v -112 -224 0
v -96 -224 0
v -112 -240 0
v -128 -240 0
v -128 -224 0
v -112 -224 0
v -128 -240 0
v -144 -240 0
v -144 -224 0
v -128 -224 0
v -144 -240 0
v -160 -240 0
v -160 -224 0
v -144 -224 0
v -160 -240 0
v -176 -240 0
v -176 -224 0
v -160 -224 0
v -176 -240 0
v -192 -240 0
v -192 -224 0
v -176 -224 0
v -192 -240 0
v -208 -240 0
v -208 -224 0
v -192 -224 0
v -208 -240 0
v -224 -240 0
v -224 -224 0
v -208 -224 0
v -224 -240 0
v -240 -240 0
v -240 -224 0
v -224 -224 0
v -240 -240 0
v -256 -240 0
v -256 -224 0
v -240 -224 0
v 0 -256 0
v -16 -256 0
v -16 -240 0
v 0 -240 0
v -16 -256 0
v -32 -256 0
v -32 -240 0
v -16 -240 0
v -32 -256 0
v -48 -256 0
v -48 -240 0
v -32 -240 0
v -48 -256 0
v -64 -256 0
v -64 -240 0
v -48 -240 0
v -64 -256 0
v -80 -256 0
v -80 -240 0
v -64 -240 0
v -80 -256 0
v -96 -256 0
v -96 -240 0
v -80 -240 0
v -96 -256 0
v -112 -256 0
v -112 -240 0
v -96 -240 0
v -112 -256 0
v -128 -256 0
v -128 -240 0
v -112 -240 0
v -128 -256 0
v -144 -256 0
v -144 -240 0
v -128 -240 0
v -144 -256 0
v -160 -256 0
v -160 -240 0
v -144 -240 0
v -160 -256 0
v -176 -256 0
v -176 -240 0
v -160 -240 0
v -176 -256 0
v -192 -256 0
v -192 -240 0
v -176 -240 0
v -192 -256 0
v -208 -256 0
v -208 -240 0
v -192 -240 0
v -208 -256 0
v -224 -256 0
v -224 -240 0
v -208 -240 0
v -224 -256 0
v -240 -256 0
v -240 -240 0
v -224 -240 0
v -240 -256 0
v -256 -256 0
v -256 -240 0
v -240 -240 0

# Texture cooridinates (Count = 32)
vt 0.4255319 0.625
vt 0.4361702 0.625
vt 0.4361702 0.6875
vt 0.4255319 0.6875
vt 0.3723404 0.125
vt 0.3829787 0.125
vt 0.3829787 0.1875
vt 0.3723404 0.1875
vt 0.3404255 0.125
vt 0.3510638 0.125
vt 0.3510638 0.1875
vt 0.3404255 0.1875
vt 0.4148936 0.625
vt 0.4148936 0.6875
vt 0.393617 0.125
vt 0.393617 0.1875
vt 0.606383 0.8125
vt 0.6170213 0.8125
vt 0.6170213 0.875
vt 0.606383 0.875
vt 0.606383 0.75
vt 0.6170213 0.75
vt 0.606383 0.6875
vt 0.6170213 0.6875
vt 0.606383 0.625
vt 0.6170213 0.625
vt 0.6276596 0.75
vt 0.6276596 0.8125
vt 0.6382979 0.75
vt 0.6382979 0.8125
vt 0.6276596 0.6875
vt 0.6382979 0.6875

# Normal
vn 0 0 -1

# Mesh description
g 2ScenarioPlataforma_mesh_0917

# Faces
f 1/1/1 2/2/1 3/3/1 4/4/1
f 5/5/1 6/6/1 7/7/1 8/8/1
f 9/9/1 10/10/1 11/11/1 12/12/1
f 13/13/1 14/1/1 15/4/1 16/14/1
f 17/6/1 18/15/1 19/16/1 20/7/1
f 21/17/1 22/18/1 23/19/1 24/20/1
f 25/17/1 26/18/1 27/19/1 28/20/1
f 29/17/1 30/18/1 31/19/1 32/20/1
f 33/17/1 34/18/1 35/19/1 36/20/1
f 37/17/1 38/18/1 39/19/1 40/20/1
f 41/17/1 42/18/1 43/19/1 44/20/1
f 45/17/1 46/18/1 47/19/1 48/20/1
f 49/17/1 50/18/1 51/19/1 52/20/1
f 53/17/1 54/18/1 55/19/1 56/20/1
f 57/17/1 58/18/1 59/19/1 60/20/1
f 61/17/1 62/18/1 63/19/1 64/20/1
f 65/17/1 66/18/1 67/19/1 68/20/1
f 69/17/1 70/18/1 71/19/1 72/20/1
f 73/17/1 74/18/1 75/19/1 76/20/1
f 77/17/1 78/18/1 79/19/1 80/20/1
f 81/17/1 82/18/1 83/19/1 84/20/1
f 85/21/1 86/22/1 87/18/1 88/17/1
f 89/21/1 90/22/1 91/18/1 92/17/1
f 93/21/1 94/22/1 95/18/1 96/17/1
f 97/21/1 98/22/1 99/18/1 100/17/1
f 101/21/1 102/22/1 103/18/1 104/17/1
f 105/21/1 106/22/1 107/18/1 108/17/1
f 109/21/1 110/22/1 111/18/1 112/17/1
f 113/21/1 114/22/1 115/18/1 116/17/1
f 117/21/1 118/22/1 119/18/1 120/17/1
f 121/21/1 122/22/1 123/18/1 124/17/1
f 125/21/1 126/22/1 127/18/1 128/17/1
f 129/21/1 130/22/1 131/18/1 132/17/1
f 133/21/1 134/22/1 135/18/1 136/17/1
f 137/21/1 138/22/1 139/18/1 140/17/1
f 141/21/1 142/22/1 143/18/1 144/17/1
f 145/21/1 146/22/1 147/18/1 148/17/1
f 149/23/1 150/24/1 151/22/1 152/21/1
f 153/23/1 154/24/1 155/22/1 156/21/1
f 157/23/1 158/24/1 159/22/1 160/21/1
f 161/23/1 162/24/1 163/22/1 164/21/1
f 165/23/1 166/24/1 167/22/1 168/21/1
f 169/23/1 170/24/1 171/22/1 172/21/1
f 173/23/1 174/24/1 175/22/1 176/21/1
f 177/23/1 178/24/1 179/22/1 180/21/1
f 181/23/1 182/24/1 183/22/1 184/21/1
f 185/23/1 186/24/1 187/22/1 188/21/1
f 189/23/1 190/24/1 191/22/1 192/21/1
f 193/23/1 194/24/1 195/22/1 196/21/1
f 197/23/1 198/24/1 199/22/1 200/21/1
f 201/23/1 202/24/1 203/22/1 204/21/1
f 205/23/1 206/24/1 207/22/1 208/21/1
f 209/23/1 210/24/1 211/22/1 212/21/1
f 213/25/1 214/26/1 215/24/1 216/23/1
f 217/25/1 218/26/1 219/24/1 220/23/1
f 221/25/1 222/26/1 223/24/1 224/23/1
f 225/25/1 226/26/1 227/24/1 228/23/1
f 229/25/1 230/26/1 231/24/1 232/23/1
f 233/25/1 234/26/1 235/24/1 236/23/1
f 237/25/1 238/26/1 239/24/1 240/23/1
f 241/25/1 242/26/1 243/24/1 244/23/1
f 245/25/1 246/26/1 247/24/1 248/23/1
f 249/25/1 250/26/1 251/24/1 252/23/1
f 253/25/1 254/26/1 255/24/1 256/23/1
f 257/25/1 258/26/1 259/24/1 260/23/1
f 261/25/1 262/26/1 263/24/1 264/23/1
f 265/25/1 266/26/1 267/24/1 268/23/1
f 269/25/1 270/26/1 271/24/1 272/23/1
f 273/25/1 274/26/1 275/24/1 276/23/1
f 277/25/1 278/26/1 279/24/1 280/23/1
f 281/25/1 282/26/1 283/24/1 284/23/1
f 285/25/1 286/26/1 287/24/1 288/23/1
f 289/25/1 290/26/1 291/24/1 292/23/1
f 293/25/1 294/26/1 295/24/1 296/23/1
f 297/25/1 298/26/1 299/24/1 300/23/1
f 301/25/1 302/26/1 303/24/1 304/23/1
f 305/25/1 306/26/1 307/24/1 308/23/1
f 309/25/1 310/26/1 311/24/1 312/23/1
f 313/25/1 314/26/1 315/24/1 316/23/1
f 317/25/1 318/26/1 319/24/1 320/23/1
f 321/25/1 322/26/1 323/24/1 324/23/1
f 325/25/1 326/26/1 327/24/1 328/23/1
f 329/25/1 330/26/1 331/24/1 332/23/1
f 333/25/1 334/26/1 335/24/1 336/23/1
f 337/25/1 338/26/1 339/24/1 340/23/1
f 341/22/1 342/27/1 343/28/1 344/18/1
f 345/27/1 346/29/1 347/30/1 348/28/1
f 349/21/1 350/22/1 351/18/1 352/17/1
f 353/22/1 354/27/1 355/28/1 356/18/1
f 357/27/1 358/29/1 359/30/1 360/28/1
f 361/21/1 362/22/1 363/18/1 364/17/1
f 365/22/1 366/27/1 367/28/1 368/18/1
f 369/27/1 370/29/1 371/30/1 372/28/1
f 373/21/1 374/22/1 375/18/1 376/17/1
f 377/22/1 378/27/1 379/28/1 380/18/1
f 381/27/1 382/29/1 383/30/1 384/28/1
f 385/21/1 386/22/1 387/18/1 388/17/1
f 389/22/1 390/27/1 391/28/1 392/18/1
f 393/27/1 394/29/1 395/30/1 396/28/1
f 397/21/1 398/22/1 399/18/1 400/17/1
f 401/22/1 402/27/1 403/28/1 404/18/1
f 405/24/1 406/31/1 407/27/1 408/22/1
f 409/31/1 410/32/1 411/29/1 412/27/1
f 413/23/1 414/24/1 415/22/1 416/21/1
f 417/24/1 418/31/1 419/27/1 420/22/1
f 421/31/1 422/32/1 423/29/1 424/27/1
f 425/23/1 426/24/1 427/22/1 428/21/1
f 429/24/1 430/31/1 431/27/1 432/22/1
f 433/31/1 434/32/1 435/29/1 436/27/1
f 437/23/1 438/24/1 439/22/1 440/21/1
f 441/24/1 442/31/1 443/27/1 444/22/1
f 445/31/1 446/32/1 447/29/1 448/27/1
f 449/23/1 450/24/1 451/22/1 452/21/1
f 453/24/1 454/31/1 455/27/1 456/22/1
f 457/31/1 458/32/1 459/29/1 460/27/1
f 461/23/1 462/24/1 463/22/1 464/21/1
f 465/24/1 466/31/1 467/27/1 468/22/1

