# Tiled2Unity generated file. Do not modify by hand.
# Wavefront file for '2ScenarioPlataforma_mesh_0921.obj'

# Vertices (Count = 28)
v 0 -16 0
v -16 -16 0
v -16 0 0
v 0 0 0
v -16 -16 0
v -32 -16 0
v -32 0 0
v -16 0 0
v -32 -16 0
v -48 -16 0
v -48 0 0
v -32 0 0
v -48 -16 0
v -64 -16 0
v -64 0 0
v -48 0 0
v -64 -16 0
v -80 -16 0
v -80 0 0
v -64 0 0
v -80 -16 0
v -96 -16 0
v -96 0 0
v -80 0 0
v -96 -16 0
v -112 -16 0
v -112 0 0
v -96 0 0

# Texture cooridinates (Count = 14)
vt 0.4468085 0.6875
vt 0.4361702 0.6875
vt 0.4361702 0.625
vt 0.4468085 0.625
vt 0.4042553 0.6875
vt 0.393617 0.6875
vt 0.393617 0.625
vt 0.4042553 0.625
vt 0.4148936 0.6875
vt 0.4148936 0.625
vt 0.3297872 0.1875
vt 0.3191489 0.1875
vt 0.3191489 0.125
vt 0.3297872 0.125

# Normal
vn 0 0 -1

# Mesh description
g 2ScenarioPlataforma_mesh_0921

# Faces
f 1/1/1 2/2/1 3/3/1 4/4/1
f 5/5/1 6/6/1 7/7/1 8/8/1
f 9/9/1 10/5/1 11/8/1 12/10/1
f 13/11/1 14/12/1 15/13/1 16/14/1
f 17/1/1 18/2/1 19/3/1 20/4/1
f 21/11/1 22/12/1 23/13/1 24/14/1
f 25/11/1 26/12/1 27/13/1 28/14/1

