# Tiled2Unity generated file. Do not modify by hand.
# Wavefront file for '2ScenarioPlataforma_mesh_0358.obj'

# Vertices (Count = 1024)
v 0 -16 0
v -16 -16 0
v -16 0 0
v 0 0 0
v -16 -16 0
v -32 -16 0
v -32 0 0
v -16 0 0
v -32 -16 0
v -48 -16 0
v -48 0 0
v -32 0 0
v -48 -16 0
v -64 -16 0
v -64 0 0
v -48 0 0
v -64 -16 0
v -80 -16 0
v -80 0 0
v -64 0 0
v -80 -16 0
v -96 -16 0
v -96 0 0
v -80 0 0
v -96 -16 0
v -112 -16 0
v -112 0 0
v -96 0 0
v -112 -16 0
v -128 -16 0
v -128 0 0
v -112 0 0
v -128 -16 0
v -144 -16 0
v -144 0 0
v -128 0 0
v -144 -16 0
v -160 -16 0
v -160 0 0
v -144 0 0
v -160 -16 0
v -176 -16 0
v -176 0 0
v -160 0 0
v -176 -16 0
v -192 -16 0
v -192 0 0
v -176 0 0
v -192 -16 0
v -208 -16 0
v -208 0 0
v -192 0 0
v -208 -16 0
v -224 -16 0
v -224 0 0
v -208 0 0
v -224 -16 0
v -240 -16 0
v -240 0 0
v -224 0 0
v -240 -16 0
v -256 -16 0
v -256 0 0
v -240 0 0
v 0 -32 0
v -16 -32 0
v -16 -16 0
v 0 -16 0
v -16 -32 0
v -32 -32 0
v -32 -16 0
v -16 -16 0
v -32 -32 0
v -48 -32 0
v -48 -16 0
v -32 -16 0
v -48 -32 0
v -64 -32 0
v -64 -16 0
v -48 -16 0
v -64 -32 0
v -80 -32 0
v -80 -16 0
v -64 -16 0
v -80 -32 0
v -96 -32 0
v -96 -16 0
v -80 -16 0
v -96 -32 0
v -112 -32 0
v -112 -16 0
v -96 -16 0
v -112 -32 0
v -128 -32 0
v -128 -16 0
v -112 -16 0
v -128 -32 0
v -144 -32 0
v -144 -16 0
v -128 -16 0
v -144 -32 0
v -160 -32 0
v -160 -16 0
v -144 -16 0
v -160 -32 0
v -176 -32 0
v -176 -16 0
v -160 -16 0
v -176 -32 0
v -192 -32 0
v -192 -16 0
v -176 -16 0
v -192 -32 0
v -208 -32 0
v -208 -16 0
v -192 -16 0
v -208 -32 0
v -224 -32 0
v -224 -16 0
v -208 -16 0
v -224 -32 0
v -240 -32 0
v -240 -16 0
v -224 -16 0
v -240 -32 0
v -256 -32 0
v -256 -16 0
v -240 -16 0
v 0 -48 0
v -16 -48 0
v -16 -32 0
v 0 -32 0
v -16 -48 0
v -32 -48 0
v -32 -32 0
v -16 -32 0
v -32 -48 0
v -48 -48 0
v -48 -32 0
v -32 -32 0
v -48 -48 0
v -64 -48 0
v -64 -32 0
v -48 -32 0
v -64 -48 0
v -80 -48 0
v -80 -32 0
v -64 -32 0
v -80 -48 0
v -96 -48 0
v -96 -32 0
v -80 -32 0
v -96 -48 0
v -112 -48 0
v -112 -32 0
v -96 -32 0
v -112 -48 0
v -128 -48 0
v -128 -32 0
v -112 -32 0
v -128 -48 0
v -144 -48 0
v -144 -32 0
v -128 -32 0
v -144 -48 0
v -160 -48 0
v -160 -32 0
v -144 -32 0
v -160 -48 0
v -176 -48 0
v -176 -32 0
v -160 -32 0
v -176 -48 0
v -192 -48 0
v -192 -32 0
v -176 -32 0
v -192 -48 0
v -208 -48 0
v -208 -32 0
v -192 -32 0
v -208 -48 0
v -224 -48 0
v -224 -32 0
v -208 -32 0
v -224 -48 0
v -240 -48 0
v -240 -32 0
v -224 -32 0
v -240 -48 0
v -256 -48 0
v -256 -32 0
v -240 -32 0
v 0 -64 0
v -16 -64 0
v -16 -48 0
v 0 -48 0
v -16 -64 0
v -32 -64 0
v -32 -48 0
v -16 -48 0
v -32 -64 0
v -48 -64 0
v -48 -48 0
v -32 -48 0
v -48 -64 0
v -64 -64 0
v -64 -48 0
v -48 -48 0
v -64 -64 0
v -80 -64 0
v -80 -48 0
v -64 -48 0
v -80 -64 0
v -96 -64 0
v -96 -48 0
v -80 -48 0
v -96 -64 0
v -112 -64 0
v -112 -48 0
v -96 -48 0
v -112 -64 0
v -128 -64 0
v -128 -48 0
v -112 -48 0
v -128 -64 0
v -144 -64 0
v -144 -48 0
v -128 -48 0
v -144 -64 0
v -160 -64 0
v -160 -48 0
v -144 -48 0
v -160 -64 0
v -176 -64 0
v -176 -48 0
v -160 -48 0
v -176 -64 0
v -192 -64 0
v -192 -48 0
v -176 -48 0
v -192 -64 0
v -208 -64 0
v -208 -48 0
v -192 -48 0
v -208 -64 0
v -224 -64 0
v -224 -48 0
v -208 -48 0
v -224 -64 0
v -240 -64 0
v -240 -48 0
v -224 -48 0
v -240 -64 0
v -256 -64 0
v -256 -48 0
v -240 -48 0
v 0 -80 0
v -16 -80 0
v -16 -64 0
v 0 -64 0
v -16 -80 0
v -32 -80 0
v -32 -64 0
v -16 -64 0
v -32 -80 0
v -48 -80 0
v -48 -64 0
v -32 -64 0
v -48 -80 0
v -64 -80 0
v -64 -64 0
v -48 -64 0
v -64 -80 0
v -80 -80 0
v -80 -64 0
v -64 -64 0
v -80 -80 0
v -96 -80 0
v -96 -64 0
v -80 -64 0
v -96 -80 0
v -112 -80 0
v -112 -64 0
v -96 -64 0
v -112 -80 0
v -128 -80 0
v -128 -64 0
v -112 -64 0
v -128 -80 0
v -144 -80 0
v -144 -64 0
v -128 -64 0
v -144 -80 0
v -160 -80 0
v -160 -64 0
v -144 -64 0
v -160 -80 0
v -176 -80 0
v -176 -64 0
v -160 -64 0
v -176 -80 0
v -192 -80 0
v -192 -64 0
v -176 -64 0
v -192 -80 0
v -208 -80 0
v -208 -64 0
v -192 -64 0
v -208 -80 0
v -224 -80 0
v -224 -64 0
v -208 -64 0
v -224 -80 0
v -240 -80 0
v -240 -64 0
v -224 -64 0
v -240 -80 0
v -256 -80 0
v -256 -64 0
v -240 -64 0
v 0 -96 0
v -16 -96 0
v -16 -80 0
v 0 -80 0
v -16 -96 0
v -32 -96 0
v -32 -80 0
v -16 -80 0
v -32 -96 0
v -48 -96 0
v -48 -80 0
v -32 -80 0
v -48 -96 0
v -64 -96 0
v -64 -80 0
v -48 -80 0
v -64 -96 0
v -80 -96 0
v -80 -80 0
v -64 -80 0
v -80 -96 0
v -96 -96 0
v -96 -80 0
v -80 -80 0
v -96 -96 0
v -112 -96 0
v -112 -80 0
v -96 -80 0
v -112 -96 0
v -128 -96 0
v -128 -80 0
v -112 -80 0
v -128 -96 0
v -144 -96 0
v -144 -80 0
v -128 -80 0
v -144 -96 0
v -160 -96 0
v -160 -80 0
v -144 -80 0
v -160 -96 0
v -176 -96 0
v -176 -80 0
v -160 -80 0
v -176 -96 0
v -192 -96 0
v -192 -80 0
v -176 -80 0
v -192 -96 0
v -208 -96 0
v -208 -80 0
v -192 -80 0
v -208 -96 0
v -224 -96 0
v -224 -80 0
v -208 -80 0
v -224 -96 0
v -240 -96 0
v -240 -80 0
v -224 -80 0
v -240 -96 0
v -256 -96 0
v -256 -80 0
v -240 -80 0
v 0 -112 0
v -16 -112 0
v -16 -96 0
v 0 -96 0
v -16 -112 0
v -32 -112 0
v -32 -96 0
v -16 -96 0
v -32 -112 0
v -48 -112 0
v -48 -96 0
v -32 -96 0
v -48 -112 0
v -64 -112 0
v -64 -96 0
v -48 -96 0
v -64 -112 0
v -80 -112 0
v -80 -96 0
v -64 -96 0
v -80 -112 0
v -96 -112 0
v -96 -96 0
v -80 -96 0
v -96 -112 0
v -112 -112 0
v -112 -96 0
v -96 -96 0
v -112 -112 0
v -128 -112 0
v -128 -96 0
v -112 -96 0
v -128 -112 0
v -144 -112 0
v -144 -96 0
v -128 -96 0
v -144 -112 0
v -160 -112 0
v -160 -96 0
v -144 -96 0
v -160 -112 0
v -176 -112 0
v -176 -96 0
v -160 -96 0
v -176 -112 0
v -192 -112 0
v -192 -96 0
v -176 -96 0
v -192 -112 0
v -208 -112 0
v -208 -96 0
v -192 -96 0
v -208 -112 0
v -224 -112 0
v -224 -96 0
v -208 -96 0
v -224 -112 0
v -240 -112 0
v -240 -96 0
v -224 -96 0
v -240 -112 0
v -256 -112 0
v -256 -96 0
v -240 -96 0
v 0 -128 0
v -16 -128 0
v -16 -112 0
v 0 -112 0
v -16 -128 0
v -32 -128 0
v -32 -112 0
v -16 -112 0
v -32 -128 0
v -48 -128 0
v -48 -112 0
v -32 -112 0
v -48 -128 0
v -64 -128 0
v -64 -112 0
v -48 -112 0
v -64 -128 0
v -80 -128 0
v -80 -112 0
v -64 -112 0
v -80 -128 0
v -96 -128 0
v -96 -112 0
v -80 -112 0
v -96 -128 0
v -112 -128 0
v -112 -112 0
v -96 -112 0
v -112 -128 0
v -128 -128 0
v -128 -112 0
v -112 -112 0
v -128 -128 0
v -144 -128 0
v -144 -112 0
v -128 -112 0
v -144 -128 0
v -160 -128 0
v -160 -112 0
v -144 -112 0
v -160 -128 0
v -176 -128 0
v -176 -112 0
v -160 -112 0
v -176 -128 0
v -192 -128 0
v -192 -112 0
v -176 -112 0
v -192 -128 0
v -208 -128 0
v -208 -112 0
v -192 -112 0
v -208 -128 0
v -224 -128 0
v -224 -112 0
v -208 -112 0
v -224 -128 0
v -240 -128 0
v -240 -112 0
v -224 -112 0
v -240 -128 0
v -256 -128 0
v -256 -112 0
v -240 -112 0
v 0 -144 0
v -16 -144 0
v -16 -128 0
v 0 -128 0
v -16 -144 0
v -32 -144 0
v -32 -128 0
v -16 -128 0
v -32 -144 0
v -48 -144 0
v -48 -128 0
v -32 -128 0
v -48 -144 0
v -64 -144 0
v -64 -128 0
v -48 -128 0
v -64 -144 0
v -80 -144 0
v -80 -128 0
v -64 -128 0
v -80 -144 0
v -96 -144 0
v -96 -128 0
v -80 -128 0
v -96 -144 0
v -112 -144 0
v -112 -128 0
v -96 -128 0
v -112 -144 0
v -128 -144 0
v -128 -128 0
v -112 -128 0
v -128 -144 0
v -144 -144 0
v -144 -128 0
v -128 -128 0
v -144 -144 0
v -160 -144 0
v -160 -128 0
v -144 -128 0
v -160 -144 0
v -176 -144 0
v -176 -128 0
v -160 -128 0
v -176 -144 0
v -192 -144 0
v -192 -128 0
v -176 -128 0
v -192 -144 0
v -208 -144 0
v -208 -128 0
v -192 -128 0
v -208 -144 0
v -224 -144 0
v -224 -128 0
v -208 -128 0
v -224 -144 0
v -240 -144 0
v -240 -128 0
v -224 -128 0
v -240 -144 0
v -256 -144 0
v -256 -128 0
v -240 -128 0
v 0 -160 0
v -16 -160 0
v -16 -144 0
v 0 -144 0
v -16 -160 0
v -32 -160 0
v -32 -144 0
v -16 -144 0
v -32 -160 0
v -48 -160 0
v -48 -144 0
v -32 -144 0
v -48 -160 0
v -64 -160 0
v -64 -144 0
v -48 -144 0
v -64 -160 0
v -80 -160 0
v -80 -144 0
v -64 -144 0
v -80 -160 0
v -96 -160 0
v -96 -144 0
v -80 -144 0
v -96 -160 0
v -112 -160 0
v -112 -144 0
v -96 -144 0
v -112 -160 0
v -128 -160 0
v -128 -144 0
v -112 -144 0
v -128 -160 0
v -144 -160 0
v -144 -144 0
v -128 -144 0
v -144 -160 0
v -160 -160 0
v -160 -144 0
v -144 -144 0
v -160 -160 0
v -176 -160 0
v -176 -144 0
v -160 -144 0
v -176 -160 0
v -192 -160 0
v -192 -144 0
v -176 -144 0
v -192 -160 0
v -208 -160 0
v -208 -144 0
v -192 -144 0
v -208 -160 0
v -224 -160 0
v -224 -144 0
v -208 -144 0
v -224 -160 0
v -240 -160 0
v -240 -144 0
v -224 -144 0
v -240 -160 0
v -256 -160 0
v -256 -144 0
v -240 -144 0
v 0 -176 0
v -16 -176 0
v -16 -160 0
v 0 -160 0
v -16 -176 0
v -32 -176 0
v -32 -160 0
v -16 -160 0
v -32 -176 0
v -48 -176 0
v -48 -160 0
v -32 -160 0
v -48 -176 0
v -64 -176 0
v -64 -160 0
v -48 -160 0
v -64 -176 0
v -80 -176 0
v -80 -160 0
v -64 -160 0
v -80 -176 0
v -96 -176 0
v -96 -160 0
v -80 -160 0
v -96 -176 0
v -112 -176 0
v -112 -160 0
v -96 -160 0
v -112 -176 0
v -128 -176 0
v -128 -160 0
v -112 -160 0
v -128 -176 0
v -144 -176 0
v -144 -160 0
v -128 -160 0
v -144 -176 0
v -160 -176 0
v -160 -160 0
v -144 -160 0
v -160 -176 0
v -176 -176 0
v -176 -160 0
v -160 -160 0
v -176 -176 0
v -192 -176 0
v -192 -160 0
v -176 -160 0
v -192 -176 0
v -208 -176 0
v -208 -160 0
v -192 -160 0
v -208 -176 0
v -224 -176 0
v -224 -160 0
v -208 -160 0
v -224 -176 0
v -240 -176 0
v -240 -160 0
v -224 -160 0
v -240 -176 0
v -256 -176 0
v -256 -160 0
v -240 -160 0
v 0 -192 0
v -16 -192 0
v -16 -176 0
v 0 -176 0
v -16 -192 0
v -32 -192 0
v -32 -176 0
v -16 -176 0
v -32 -192 0
v -48 -192 0
v -48 -176 0
v -32 -176 0
v -48 -192 0
v -64 -192 0
v -64 -176 0
v -48 -176 0
v -64 -192 0
v -80 -192 0
v -80 -176 0
v -64 -176 0
v -80 -192 0
v -96 -192 0
v -96 -176 0
v -80 -176 0
v -96 -192 0
v -112 -192 0
v -112 -176 0
v -96 -176 0
v -112 -192 0
v -128 -192 0
v -128 -176 0
v -112 -176 0
v -128 -192 0
v -144 -192 0
v -144 -176 0
v -128 -176 0
v -144 -192 0
v -160 -192 0
v -160 -176 0
v -144 -176 0
v -160 -192 0
v -176 -192 0
v -176 -176 0
v -160 -176 0
v -176 -192 0
v -192 -192 0
v -192 -176 0
v -176 -176 0
v -192 -192 0
v -208 -192 0
v -208 -176 0
v -192 -176 0
v -208 -192 0
v -224 -192 0
v -224 -176 0
v -208 -176 0
v -224 -192 0
v -240 -192 0
v -240 -176 0
v -224 -176 0
v -240 -192 0
v -256 -192 0
v -256 -176 0
v -240 -176 0
v 0 -208 0
v -16 -208 0
v -16 -192 0
v 0 -192 0
v -16 -208 0
v -32 -208 0
v -32 -192 0
v -16 -192 0
v -32 -208 0
v -48 -208 0
v -48 -192 0
v -32 -192 0
v -48 -208 0
v -64 -208 0
v -64 -192 0
v -48 -192 0
v -64 -208 0
v -80 -208 0
v -80 -192 0
v -64 -192 0
v -80 -208 0
v -96 -208 0
v -96 -192 0
v -80 -192 0
v -96 -208 0
v -112 -208 0
v -112 -192 0
v -96 -192 0
v -112 -208 0
v -128 -208 0
v -128 -192 0
v -112 -192 0
v -128 -208 0
v -144 -208 0
v -144 -192 0
v -128 -192 0
v -144 -208 0
v -160 -208 0
v -160 -192 0
v -144 -192 0
v -160 -208 0
v -176 -208 0
v -176 -192 0
v -160 -192 0
v -176 -208 0
v -192 -208 0
v -192 -192 0
v -176 -192 0
v -192 -208 0
v -208 -208 0
v -208 -192 0
v -192 -192 0
v -208 -208 0
v -224 -208 0
v -224 -192 0
v -208 -192 0
v -224 -208 0
v -240 -208 0
v -240 -192 0
v -224 -192 0
v -240 -208 0
v -256 -208 0
v -256 -192 0
v -240 -192 0
v 0 -224 0
v -16 -224 0
v -16 -208 0
v 0 -208 0
v -16 -224 0
v -32 -224 0
v -32 -208 0
v -16 -208 0
v -32 -224 0
v -48 -224 0
v -48 -208 0
v -32 -208 0
v -48 -224 0
v -64 -224 0
v -64 -208 0
v -48 -208 0
v -64 -224 0
v -80 -224 0
v -80 -208 0
v -64 -208 0
v -80 -224 0
v -96 -224 0
v -96 -208 0
v -80 -208 0
v -96 -224 0
v -112 -224 0
v -112 -208 0
v -96 -208 0
v -112 -224 0
v -128 -224 0
v -128 -208 0
v -112 -208 0
v -128 -224 0
v -144 -224 0
v -144 -208 0
v -128 -208 0
v -144 -224 0
v -160 -224 0
v -160 -208 0
v -144 -208 0
v -160 -224 0
v -176 -224 0
v -176 -208 0
v -160 -208 0
v -176 -224 0
v -192 -224 0
v -192 -208 0
v -176 -208 0
v -192 -224 0
v -208 -224 0
v -208 -208 0
v -192 -208 0
v -208 -224 0
v -224 -224 0
v -224 -208 0
v -208 -208 0
v -224 -224 0
v -240 -224 0
v -240 -208 0
v -224 -208 0
v -240 -224 0
v -256 -224 0
v -256 -208 0
v -240 -208 0
v 0 -240 0
v -16 -240 0
v -16 -224 0
v 0 -224 0
v -16 -240 0
v -32 -240 0
v -32 -224 0
v -16 -224 0
v -32 -240 0
v -48 -240 0
v -48 -224 0
v -32 -224 0
v -48 -240 0
v -64 -240 0
v -64 -224 0
v -48 -224 0
v -64 -240 0
v -80 -240 0
v -80 -224 0
v -64 -224 0
v -80 -240 0
v -96 -240 0
v -96 -224 0
v -80 -224 0
v -96 -240 0
v -112 -240 0
v -112 -224 0
v -96 -224 0
v -112 -240 0
v -128 -240 0
v -128 -224 0
v -112 -224 0
v -128 -240 0
v -144 -240 0
v -144 -224 0
v -128 -224 0
v -144 -240 0
v -160 -240 0
v -160 -224 0
v -144 -224 0
v -160 -240 0
v -176 -240 0
v -176 -224 0
v -160 -224 0
v -176 -240 0
v -192 -240 0
v -192 -224 0
v -176 -224 0
v -192 -240 0
v -208 -240 0
v -208 -224 0
v -192 -224 0
v -208 -240 0
v -224 -240 0
v -224 -224 0
v -208 -224 0
v -224 -240 0
v -240 -240 0
v -240 -224 0
v -224 -224 0
v -240 -240 0
v -256 -240 0
v -256 -224 0
v -240 -224 0
v 0 -256 0
v -16 -256 0
v -16 -240 0
v 0 -240 0
v -16 -256 0
v -32 -256 0
v -32 -240 0
v -16 -240 0
v -32 -256 0
v -48 -256 0
v -48 -240 0
v -32 -240 0
v -48 -256 0
v -64 -256 0
v -64 -240 0
v -48 -240 0
v -64 -256 0
v -80 -256 0
v -80 -240 0
v -64 -240 0
v -80 -256 0
v -96 -256 0
v -96 -240 0
v -80 -240 0
v -96 -256 0
v -112 -256 0
v -112 -240 0
v -96 -240 0
v -112 -256 0
v -128 -256 0
v -128 -240 0
v -112 -240 0
v -128 -256 0
v -144 -256 0
v -144 -240 0
v -128 -240 0
v -144 -256 0
v -160 -256 0
v -160 -240 0
v -144 -240 0
v -160 -256 0
v -176 -256 0
v -176 -240 0
v -160 -240 0
v -176 -256 0
v -192 -256 0
v -192 -240 0
v -176 -240 0
v -192 -256 0
v -208 -256 0
v -208 -240 0
v -192 -240 0
v -208 -256 0
v -224 -256 0
v -224 -240 0
v -208 -240 0
v -224 -256 0
v -240 -256 0
v -240 -240 0
v -224 -240 0
v -240 -256 0
v -256 -256 0
v -256 -240 0
v -240 -240 0

# Texture cooridinates (Count = 42)
vt 0.1489362 0.3125
vt 0.1595745 0.3125
vt 0.1595745 0.375
vt 0.1489362 0.375
vt 0.1595745 0.4375
vt 0.1489362 0.4375
vt 0.1702128 0.375
vt 0.1702128 0.4375
vt 0.07446808 0.9375
vt 0.06382979 0.9375
vt 0.06382979 0.875
vt 0.07446808 0.875
vt 0.05319149 0.9375
vt 0.05319149 0.875
vt 0.04255319 0.9375
vt 0.04255319 0.875
vt 0.1489362 0.9375
vt 0.1382979 0.9375
vt 0.1382979 0.875
vt 0.1489362 0.875
vt 0.1702128 0.3125
vt 0.08510638 0.9375
vt 0.08510638 0.875
vt 0.106383 1
vt 0.09574468 1
vt 0.09574468 0.9375
vt 0.106383 0.9375
vt 0.07446808 1
vt 0.06382979 1
vt 0.05319149 1
vt 0.04255319 1
vt 0.08510638 1
vt 0.09574468 0.875
vt 0.106383 0.875
vt 0.1170213 0.9375
vt 0.1170213 0.875
vt 0.1276596 1
vt 0.1170213 1
vt 0.1276596 0.9375
vt 0.1276596 0.875
vt 0.1489362 1
vt 0.1382979 1

# Normal
vn 0 0 -1

# Mesh description
g 2ScenarioPlataforma_mesh_0358

# Faces
f 1/1/1 2/2/1 3/3/1 4/4/1
f 5/4/1 6/3/1 7/5/1 8/6/1
f 9/3/1 10/7/1 11/8/1 12/5/1
f 13/9/1 14/10/1 15/11/1 16/12/1
f 17/10/1 18/13/1 19/14/1 20/11/1
f 21/13/1 22/15/1 23/16/1 24/14/1
f 25/17/1 26/18/1 27/19/1 28/20/1
f 29/4/1 30/3/1 31/5/1 32/6/1
f 33/1/1 34/2/1 35/3/1 36/4/1
f 37/1/1 38/2/1 39/3/1 40/4/1
f 41/1/1 42/2/1 43/3/1 44/4/1
f 45/2/1 46/21/1 47/7/1 48/3/1
f 49/22/1 50/9/1 51/12/1 52/23/1
f 53/9/1 54/10/1 55/11/1 56/12/1
f 57/10/1 58/13/1 59/14/1 60/11/1
f 61/13/1 62/15/1 63/16/1 64/14/1
f 65/24/1 66/25/1 67/26/1 68/27/1
f 69/4/1 70/3/1 71/5/1 72/6/1
f 73/3/1 74/7/1 75/8/1 76/5/1
f 77/28/1 78/29/1 79/10/1 80/9/1
f 81/29/1 82/30/1 83/13/1 84/10/1
f 85/30/1 86/31/1 87/15/1 88/13/1
f 89/4/1 90/3/1 91/5/1 92/6/1
f 93/1/1 94/2/1 95/3/1 96/4/1
f 97/1/1 98/2/1 99/3/1 100/4/1
f 101/2/1 102/21/1 103/7/1 104/3/1
f 105/24/1 106/25/1 107/26/1 108/27/1
f 109/25/1 110/32/1 111/22/1 112/26/1
f 113/32/1 114/28/1 115/9/1 116/22/1
f 117/28/1 118/29/1 119/10/1 120/9/1
f 121/29/1 122/30/1 123/13/1 124/10/1
f 125/30/1 126/31/1 127/15/1 128/13/1
f 129/27/1 130/26/1 131/33/1 132/34/1
f 133/1/1 134/2/1 135/3/1 136/4/1
f 137/4/1 138/3/1 139/5/1 140/6/1
f 141/3/1 142/7/1 143/8/1 144/5/1
f 145/10/1 146/13/1 147/14/1 148/11/1
f 149/13/1 150/15/1 151/16/1 152/14/1
f 153/1/1 154/2/1 155/3/1 156/4/1
f 157/1/1 158/2/1 159/3/1 160/4/1
f 161/2/1 162/21/1 163/7/1 164/3/1
f 165/35/1 166/27/1 167/34/1 168/36/1
f 169/27/1 170/26/1 171/33/1 172/34/1
f 173/26/1 174/22/1 175/23/1 176/33/1
f 177/22/1 178/9/1 179/12/1 180/23/1
f 181/9/1 182/10/1 183/11/1 184/12/1
f 185/10/1 186/13/1 187/14/1 188/11/1
f 189/13/1 190/15/1 191/16/1 192/14/1
f 193/24/1 194/25/1 195/26/1 196/27/1
f 197/25/1 198/32/1 199/22/1 200/26/1
f 201/4/1 202/3/1 203/5/1 204/6/1
f 205/4/1 206/3/1 207/5/1 208/6/1
f 209/3/1 210/7/1 211/8/1 212/5/1
f 213/30/1 214/31/1 215/15/1 216/13/1
f 217/1/1 218/2/1 219/3/1 220/4/1
f 221/2/1 222/21/1 223/7/1 224/3/1
f 225/37/1 226/38/1 227/35/1 228/39/1
f 229/38/1 230/24/1 231/27/1 232/35/1
f 233/24/1 234/25/1 235/26/1 236/27/1
f 237/25/1 238/32/1 239/22/1 240/26/1
f 241/32/1 242/28/1 243/9/1 244/22/1
f 245/28/1 246/29/1 247/10/1 248/9/1
f 249/29/1 250/30/1 251/13/1 252/10/1
f 253/30/1 254/31/1 255/15/1 256/13/1
f 257/27/1 258/26/1 259/33/1 260/34/1
f 261/26/1 262/22/1 263/23/1 264/33/1
f 265/1/1 266/2/1 267/3/1 268/4/1
f 269/4/1 270/3/1 271/5/1 272/6/1
f 273/3/1 274/7/1 275/8/1 276/5/1
f 277/13/1 278/15/1 279/16/1 280/14/1
f 281/17/1 282/18/1 283/19/1 284/20/1
f 285/18/1 286/39/1 287/40/1 288/19/1
f 289/39/1 290/35/1 291/36/1 292/40/1
f 293/35/1 294/27/1 295/34/1 296/36/1
f 297/27/1 298/26/1 299/33/1 300/34/1
f 301/26/1 302/22/1 303/23/1 304/33/1
f 305/22/1 306/9/1 307/12/1 308/23/1
f 309/9/1 310/10/1 311/11/1 312/12/1
f 313/10/1 314/13/1 315/14/1 316/11/1
f 317/13/1 318/15/1 319/16/1 320/14/1
f 321/24/1 322/25/1 323/26/1 324/27/1
f 325/25/1 326/32/1 327/22/1 328/26/1
f 329/4/1 330/3/1 331/5/1 332/6/1
f 333/3/1 334/7/1 335/8/1 336/5/1
f 337/3/1 338/7/1 339/8/1 340/5/1
f 341/30/1 342/31/1 343/15/1 344/13/1
f 345/41/1 346/42/1 347/18/1 348/17/1
f 349/42/1 350/37/1 351/39/1 352/18/1
f 353/37/1 354/38/1 355/35/1 356/39/1
f 357/38/1 358/24/1 359/27/1 360/35/1
f 361/24/1 362/25/1 363/26/1 364/27/1
f 365/25/1 366/32/1 367/22/1 368/26/1
f 369/32/1 370/28/1 371/9/1 372/22/1
f 373/28/1 374/29/1 375/10/1 376/9/1
f 377/29/1 378/30/1 379/13/1 380/10/1
f 381/30/1 382/31/1 383/15/1 384/13/1
f 385/3/1 386/7/1 387/8/1 388/5/1
f 389/3/1 390/7/1 391/8/1 392/5/1
f 393/3/1 394/7/1 395/8/1 396/5/1
f 397/2/1 398/21/1 399/7/1 400/3/1
f 401/2/1 402/21/1 403/7/1 404/3/1
f 405/13/1 406/15/1 407/16/1 408/14/1
f 409/17/1 410/18/1 411/19/1 412/20/1
f 413/18/1 414/39/1 415/40/1 416/19/1
f 417/39/1 418/35/1 419/36/1 420/40/1
f 421/35/1 422/27/1 423/34/1 424/36/1
f 425/27/1 426/26/1 427/33/1 428/34/1
f 429/26/1 430/22/1 431/23/1 432/33/1
f 433/22/1 434/9/1 435/12/1 436/23/1
f 437/9/1 438/10/1 439/11/1 440/12/1
f 441/10/1 442/13/1 443/14/1 444/11/1
f 445/4/1 446/3/1 447/5/1 448/6/1
f 449/2/1 450/21/1 451/7/1 452/3/1
f 453/2/1 454/21/1 455/7/1 456/3/1
f 457/2/1 458/21/1 459/7/1 460/3/1
f 461/28/1 462/29/1 463/10/1 464/9/1
f 465/4/1 466/3/1 467/5/1 468/6/1
f 469/3/1 470/7/1 471/8/1 472/5/1
f 473/41/1 474/42/1 475/18/1 476/17/1
f 477/42/1 478/37/1 479/39/1 480/18/1
f 481/37/1 482/38/1 483/35/1 484/39/1
f 485/38/1 486/24/1 487/27/1 488/35/1
f 489/24/1 490/25/1 491/26/1 492/27/1
f 493/25/1 494/32/1 495/22/1 496/26/1
f 497/32/1 498/28/1 499/9/1 500/22/1
f 501/28/1 502/29/1 503/10/1 504/9/1
f 505/29/1 506/30/1 507/13/1 508/10/1
f 509/4/1 510/3/1 511/5/1 512/6/1
f 513/27/1 514/26/1 515/33/1 516/34/1
f 517/26/1 518/22/1 519/23/1 520/33/1
f 521/22/1 522/9/1 523/12/1 524/23/1
f 525/9/1 526/10/1 527/11/1 528/12/1
f 529/1/1 530/2/1 531/3/1 532/4/1
f 533/4/1 534/3/1 535/5/1 536/6/1
f 537/4/1 538/3/1 539/5/1 540/6/1
f 541/4/1 542/3/1 543/5/1 544/6/1
f 545/3/1 546/7/1 547/8/1 548/5/1
f 549/35/1 550/27/1 551/34/1 552/36/1
f 553/27/1 554/26/1 555/33/1 556/34/1
f 557/26/1 558/22/1 559/23/1 560/33/1
f 561/22/1 562/9/1 563/12/1 564/23/1
f 565/9/1 566/10/1 567/11/1 568/12/1
f 569/10/1 570/13/1 571/14/1 572/11/1
f 573/1/1 574/2/1 575/3/1 576/4/1
f 577/24/1 578/25/1 579/26/1 580/27/1
f 581/25/1 582/32/1 583/22/1 584/26/1
f 585/32/1 586/28/1 587/9/1 588/22/1
f 589/28/1 590/29/1 591/10/1 592/9/1
f 593/29/1 594/30/1 595/13/1 596/10/1
f 597/1/1 598/2/1 599/3/1 600/4/1
f 601/1/1 602/2/1 603/3/1 604/4/1
f 605/1/1 606/2/1 607/3/1 608/4/1
f 609/4/1 610/3/1 611/5/1 612/6/1
f 613/4/1 614/3/1 615/5/1 616/6/1
f 617/3/1 618/7/1 619/8/1 620/5/1
f 621/25/1 622/32/1 623/22/1 624/26/1
f 625/32/1 626/28/1 627/9/1 628/22/1
f 629/28/1 630/29/1 631/10/1 632/9/1
f 633/29/1 634/30/1 635/13/1 636/10/1
f 637/30/1 638/31/1 639/15/1 640/13/1
f 641/27/1 642/26/1 643/33/1 644/34/1
f 645/26/1 646/22/1 647/23/1 648/33/1
f 649/22/1 650/9/1 651/12/1 652/23/1
f 653/9/1 654/10/1 655/11/1 656/12/1
f 657/10/1 658/13/1 659/14/1 660/11/1
f 661/13/1 662/15/1 663/16/1 664/14/1
f 665/17/1 666/18/1 667/19/1 668/20/1
f 669/18/1 670/39/1 671/40/1 672/19/1
f 673/1/1 674/2/1 675/3/1 676/4/1
f 677/4/1 678/3/1 679/5/1 680/6/1
f 681/3/1 682/7/1 683/8/1 684/5/1
f 685/26/1 686/22/1 687/23/1 688/33/1
f 689/22/1 690/9/1 691/12/1 692/23/1
f 693/9/1 694/10/1 695/11/1 696/12/1
f 697/10/1 698/13/1 699/14/1 700/11/1
f 701/13/1 702/15/1 703/16/1 704/14/1
f 705/24/1 706/25/1 707/26/1 708/27/1
f 709/25/1 710/32/1 711/22/1 712/26/1
f 713/32/1 714/28/1 715/9/1 716/22/1
f 717/28/1 718/29/1 719/10/1 720/9/1
f 721/29/1 722/30/1 723/13/1 724/10/1
f 725/30/1 726/31/1 727/15/1 728/13/1
f 729/41/1 730/42/1 731/18/1 732/17/1
f 733/42/1 734/37/1 735/39/1 736/18/1
f 737/37/1 738/38/1 739/35/1 740/39/1
f 741/4/1 742/3/1 743/5/1 744/6/1
f 745/3/1 746/7/1 747/8/1 748/5/1
f 749/25/1 750/32/1 751/22/1 752/26/1
f 753/32/1 754/28/1 755/9/1 756/22/1
f 757/28/1 758/29/1 759/10/1 760/9/1
f 761/29/1 762/30/1 763/13/1 764/10/1
f 765/30/1 766/31/1 767/15/1 768/13/1
f 769/27/1 770/26/1 771/33/1 772/34/1
f 773/26/1 774/22/1 775/23/1 776/33/1
f 777/22/1 778/9/1 779/12/1 780/23/1
f 781/9/1 782/10/1 783/11/1 784/12/1
f 785/10/1 786/13/1 787/14/1 788/11/1
f 789/13/1 790/15/1 791/16/1 792/14/1
f 793/17/1 794/18/1 795/19/1 796/20/1
f 797/18/1 798/39/1 799/40/1 800/19/1
f 801/39/1 802/35/1 803/36/1 804/40/1
f 805/1/1 806/2/1 807/3/1 808/4/1
f 809/2/1 810/21/1 811/7/1 812/3/1
f 813/26/1 814/22/1 815/23/1 816/33/1
f 817/22/1 818/9/1 819/12/1 820/23/1
f 821/9/1 822/10/1 823/11/1 824/12/1
f 825/10/1 826/13/1 827/14/1 828/11/1
f 829/13/1 830/15/1 831/16/1 832/14/1
f 833/24/1 834/25/1 835/26/1 836/27/1
f 837/25/1 838/32/1 839/22/1 840/26/1
f 841/32/1 842/28/1 843/9/1 844/22/1
f 845/28/1 846/29/1 847/10/1 848/9/1
f 849/29/1 850/30/1 851/13/1 852/10/1
f 853/30/1 854/31/1 855/15/1 856/13/1
f 857/41/1 858/42/1 859/18/1 860/17/1
f 861/42/1 862/37/1 863/39/1 864/18/1
f 865/37/1 866/38/1 867/35/1 868/39/1
f 869/38/1 870/24/1 871/27/1 872/35/1
f 873/24/1 874/25/1 875/26/1 876/27/1
f 877/25/1 878/32/1 879/22/1 880/26/1
f 881/32/1 882/28/1 883/9/1 884/22/1
f 885/28/1 886/29/1 887/10/1 888/9/1
f 889/29/1 890/30/1 891/13/1 892/10/1
f 893/30/1 894/31/1 895/15/1 896/13/1
f 897/27/1 898/26/1 899/33/1 900/34/1
f 901/26/1 902/22/1 903/23/1 904/33/1
f 905/22/1 906/9/1 907/12/1 908/23/1
f 909/9/1 910/10/1 911/11/1 912/12/1
f 913/10/1 914/13/1 915/14/1 916/11/1
f 917/13/1 918/15/1 919/16/1 920/14/1
f 921/17/1 922/18/1 923/19/1 924/20/1
f 925/18/1 926/39/1 927/40/1 928/19/1
f 929/39/1 930/35/1 931/36/1 932/40/1
f 933/35/1 934/27/1 935/34/1 936/36/1
f 937/27/1 938/26/1 939/33/1 940/34/1
f 941/26/1 942/22/1 943/23/1 944/33/1
f 945/22/1 946/9/1 947/12/1 948/23/1
f 949/9/1 950/10/1 951/11/1 952/12/1
f 953/10/1 954/13/1 955/14/1 956/11/1
f 957/13/1 958/15/1 959/16/1 960/14/1
f 961/24/1 962/25/1 963/26/1 964/27/1
f 965/25/1 966/32/1 967/22/1 968/26/1
f 969/32/1 970/28/1 971/9/1 972/22/1
f 973/28/1 974/29/1 975/10/1 976/9/1
f 977/29/1 978/30/1 979/13/1 980/10/1
f 981/30/1 982/31/1 983/15/1 984/13/1
f 985/41/1 986/42/1 987/18/1 988/17/1
f 989/42/1 990/37/1 991/39/1 992/18/1
f 993/37/1 994/38/1 995/35/1 996/39/1
f 997/38/1 998/24/1 999/27/1 1000/35/1
f 1001/24/1 1002/25/1 1003/26/1 1004/27/1
f 1005/25/1 1006/32/1 1007/22/1 1008/26/1
f 1009/32/1 1010/28/1 1011/9/1 1012/22/1
f 1013/28/1 1014/29/1 1015/10/1 1016/9/1
f 1017/29/1 1018/30/1 1019/13/1 1020/10/1
f 1021/30/1 1022/31/1 1023/15/1 1024/13/1

