# Tiled2Unity generated file. Do not modify by hand.
# Wavefront file for '2ScenarioPlataforma_mesh_0300.obj'

# Vertices (Count = 48)
v -16 -240 0
v -32 -240 0
v -32 -224 0
v -16 -224 0
v -32 -240 0
v -48 -240 0
v -48 -224 0
v -32 -224 0
v -48 -240 0
v -64 -240 0
v -64 -224 0
v -48 -224 0
v -64 -240 0
v -80 -240 0
v -80 -224 0
v -64 -224 0
v -80 -240 0
v -96 -240 0
v -96 -224 0
v -80 -224 0
v -112 -240 0
v -128 -240 0
v -128 -224 0
v -112 -224 0
v -144 -240 0
v -160 -240 0
v -160 -224 0
v -144 -224 0
v -160 -240 0
v -176 -240 0
v -176 -224 0
v -160 -224 0
v -176 -240 0
v -192 -240 0
v -192 -224 0
v -176 -224 0
v -208 -240 0
v -224 -240 0
v -224 -224 0
v -208 -224 0
v -240 -240 0
v -256 -240 0
v -256 -224 0
v -240 -224 0
v 0 -256 0
v -16 -256 0
v -16 -240 0
v 0 -240 0

# Texture cooridinates (Count = 24)
vt 0.1190476 0.1875
vt 0.1428571 0.1875
vt 0.1428571 0.25
vt 0.1190476 0.25
vt 0.4761905 0.25
vt 0.5 0.25
vt 0.5 0.3125
vt 0.4761905 0.3125
vt 0.5714286 0.8125
vt 0.5952381 0.8125
vt 0.5952381 0.875
vt 0.5714286 0.875
vt 0.5238096 0.25
vt 0.547619 0.25
vt 0.547619 0.3125
vt 0.5238096 0.3125
vt 0.5238096 0.8125
vt 0.547619 0.8125
vt 0.547619 0.875
vt 0.5238096 0.875
vt 0.4761905 0.625
vt 0.5 0.625
vt 0.5 0.6875
vt 0.4761905 0.6875

# Normal
vn 0 0 -1

# Mesh description
g 2ScenarioPlataforma_mesh_0300

# Faces
f 1/1/1 2/2/1 3/3/1 4/4/1
f 5/5/1 6/6/1 7/7/1 8/8/1
f 9/5/1 10/6/1 11/7/1 12/8/1
f 13/1/1 14/2/1 15/3/1 16/4/1
f 17/9/1 18/10/1 19/11/1 20/12/1
f 21/13/1 22/14/1 23/15/1 24/16/1
f 25/17/1 26/18/1 27/19/1 28/20/1
f 29/1/1 30/2/1 31/3/1 32/4/1
f 33/5/1 34/6/1 35/7/1 36/8/1
f 37/9/1 38/10/1 39/11/1 40/12/1
f 41/1/1 42/2/1 43/3/1 44/4/1
f 45/21/1 46/22/1 47/23/1 48/24/1

