# Tiled2Unity generated file. Do not modify by hand.
# Wavefront file for '2ScenarioPlataforma_mesh_0572.obj'

# Vertices (Count = 112)
v 0 -80 0
v -16 -80 0
v -16 -64 0
v 0 -64 0
v -16 -80 0
v -32 -80 0
v -32 -64 0
v -16 -64 0
v -32 -80 0
v -48 -80 0
v -48 -64 0
v -32 -64 0
v -48 -80 0
v -64 -80 0
v -64 -64 0
v -48 -64 0
v -64 -80 0
v -80 -80 0
v -80 -64 0
v -64 -64 0
v -80 -80 0
v -96 -80 0
v -96 -64 0
v -80 -64 0
v -96 -80 0
v -112 -80 0
v -112 -64 0
v -96 -64 0
v -112 -80 0
v -128 -80 0
v -128 -64 0
v -112 -64 0
v -128 -80 0
v -144 -80 0
v -144 -64 0
v -128 -64 0
v -144 -80 0
v -160 -80 0
v -160 -64 0
v -144 -64 0
v -160 -80 0
v -176 -80 0
v -176 -64 0
v -160 -64 0
v -176 -80 0
v -192 -80 0
v -192 -64 0
v -176 -64 0
v -192 -80 0
v -208 -80 0
v -208 -64 0
v -192 -64 0
v -208 -80 0
v -224 -80 0
v -224 -64 0
v -208 -64 0
v -224 -80 0
v -240 -80 0
v -240 -64 0
v -224 -64 0
v -240 -80 0
v -256 -80 0
v -256 -64 0
v -240 -64 0
v -80 -224 0
v -96 -224 0
v -96 -208 0
v -80 -208 0
v -96 -224 0
v -112 -224 0
v -112 -208 0
v -96 -208 0
v -112 -224 0
v -128 -224 0
v -128 -208 0
v -112 -208 0
v -128 -224 0
v -144 -224 0
v -144 -208 0
v -128 -208 0
v -144 -224 0
v -160 -224 0
v -160 -208 0
v -144 -208 0
v -160 -224 0
v -176 -224 0
v -176 -208 0
v -160 -208 0
v -176 -224 0
v -192 -224 0
v -192 -208 0
v -176 -208 0
v -192 -224 0
v -208 -224 0
v -208 -208 0
v -192 -208 0
v -208 -224 0
v -224 -224 0
v -224 -208 0
v -208 -208 0
v -224 -224 0
v -240 -224 0
v -240 -208 0
v -224 -208 0
v -240 -224 0
v -256 -224 0
v -256 -208 0
v -240 -208 0
v -64 -256 0
v -80 -256 0
v -80 -240 0
v -64 -240 0

# Texture cooridinates (Count = 26)
vt 0.0952381 0.1875
vt 0.1190476 0.1875
vt 0.1190476 0.25
vt 0.0952381 0.25
vt 0.5238096 0.25
vt 0.547619 0.25
vt 0.547619 0.3125
vt 0.5238096 0.3125
vt 0.5238096 0.8125
vt 0.547619 0.8125
vt 0.547619 0.875
vt 0.5238096 0.875
vt 0.4761905 0.25
vt 0.5 0.25
vt 0.5 0.3125
vt 0.4761905 0.3125
vt 0.1428571 0.1875
vt 0.1428571 0.25
vt 0.5714286 0.8125
vt 0.5952381 0.8125
vt 0.5952381 0.875
vt 0.5714286 0.875
vt 0.5 0.875
vt 0.4761905 0.875
vt 0.4761905 0.8125
vt 0.5 0.8125

# Normal
vn 0 0 -1

# Mesh description
g 2ScenarioPlataforma_mesh_0572

# Faces
f 1/1/1 2/2/1 3/3/1 4/4/1
f 5/5/1 6/6/1 7/7/1 8/8/1
f 9/5/1 10/6/1 11/7/1 12/8/1
f 13/9/1 14/10/1 15/11/1 16/12/1
f 17/9/1 18/10/1 19/11/1 20/12/1
f 21/13/1 22/14/1 23/15/1 24/16/1
f 25/1/1 26/2/1 27/3/1 28/4/1
f 29/9/1 30/10/1 31/11/1 32/12/1
f 33/1/1 34/2/1 35/3/1 36/4/1
f 37/2/1 38/17/1 39/18/1 40/3/1
f 41/5/1 42/6/1 43/7/1 44/8/1
f 45/13/1 46/14/1 47/15/1 48/16/1
f 49/2/1 50/17/1 51/18/1 52/3/1
f 53/13/1 54/14/1 55/15/1 56/16/1
f 57/19/1 58/20/1 59/21/1 60/22/1
f 61/19/1 62/20/1 63/21/1 64/22/1
f 65/7/1 66/8/1 67/5/1 68/6/1
f 69/7/1 70/8/1 71/5/1 72/6/1
f 73/11/1 74/12/1 75/9/1 76/10/1
f 77/11/1 78/12/1 79/9/1 80/10/1
f 81/18/1 82/3/1 83/2/1 84/17/1
f 85/18/1 86/3/1 87/2/1 88/17/1
f 89/23/1 90/24/1 91/25/1 92/26/1
f 93/21/1 94/22/1 95/19/1 96/20/1
f 97/15/1 98/16/1 99/13/1 100/14/1
f 101/11/1 102/12/1 103/9/1 104/10/1
f 105/7/1 106/8/1 107/5/1 108/6/1
f 109/17/1 110/18/1 111/3/1 112/2/1

