# Tiled2Unity generated file. Do not modify by hand.
# Wavefront file for '2ScenarioPlataforma_mesh_0310.obj'

# Vertices (Count = 20)
v -176 -112 0
v -192 -112 0
v -192 -96 0
v -176 -96 0
v -192 -112 0
v -208 -112 0
v -208 -96 0
v -192 -96 0
v -176 -128 0
v -192 -128 0
v -192 -112 0
v -176 -112 0
v -192 -128 0
v -208 -128 0
v -208 -112 0
v -192 -112 0
v -240 -128 0
v -256 -128 0
v -256 -112 0
v -240 -112 0

# Texture cooridinates (Count = 13)
vt 0.4361702 0.9375
vt 0.4468085 0.9375
vt 0.4468085 1
vt 0.4361702 1
vt 0.4574468 0.9375
vt 0.4574468 1
vt 0.4361702 0.875
vt 0.4468085 0.875
vt 0.4574468 0.875
vt 0.606383 0.4375
vt 0.6170213 0.4375
vt 0.6170213 0.5
vt 0.606383 0.5

# Normal
vn 0 0 -1

# Mesh description
g 2ScenarioPlataforma_mesh_0310

# Faces
f 1/1/1 2/2/1 3/3/1 4/4/1
f 5/2/1 6/5/1 7/6/1 8/3/1
f 9/7/1 10/8/1 11/2/1 12/1/1
f 13/8/1 14/9/1 15/5/1 16/2/1
f 17/10/1 18/11/1 19/12/1 20/13/1

