# Tiled2Unity generated file. Do not modify by hand.
# Wavefront file for '2ScenarioPlataforma_mesh_0654.obj'

# Vertices (Count = 100)
v -80 -64 0
v -96 -64 0
v -96 -48 0
v -80 -48 0
v -96 -64 0
v -112 -64 0
v -112 -48 0
v -96 -48 0
v -112 -64 0
v -128 -64 0
v -128 -48 0
v -112 -48 0
v 0 -128 0
v -16 -128 0
v -16 -112 0
v 0 -112 0
v -16 -128 0
v -32 -128 0
v -32 -112 0
v -16 -112 0
v -32 -128 0
v -48 -128 0
v -48 -112 0
v -32 -112 0
v -48 -128 0
v -64 -128 0
v -64 -112 0
v -48 -112 0
v -64 -128 0
v -80 -128 0
v -80 -112 0
v -64 -112 0
v -80 -128 0
v -96 -128 0
v -96 -112 0
v -80 -112 0
v -96 -128 0
v -112 -128 0
v -112 -112 0
v -96 -112 0
v -112 -128 0
v -128 -128 0
v -128 -112 0
v -112 -112 0
v -128 -128 0
v -144 -128 0
v -144 -112 0
v -128 -112 0
v -144 -128 0
v -160 -128 0
v -160 -112 0
v -144 -112 0
v -160 -128 0
v -176 -128 0
v -176 -112 0
v -160 -112 0
v 0 -144 0
v -16 -144 0
v -16 -128 0
v 0 -128 0
v -16 -144 0
v -32 -144 0
v -32 -128 0
v -16 -128 0
v -32 -144 0
v -48 -144 0
v -48 -128 0
v -32 -128 0
v -48 -144 0
v -64 -144 0
v -64 -128 0
v -48 -128 0
v -64 -144 0
v -80 -144 0
v -80 -128 0
v -64 -128 0
v -80 -144 0
v -96 -144 0
v -96 -128 0
v -80 -128 0
v -96 -144 0
v -112 -144 0
v -112 -128 0
v -96 -128 0
v -112 -144 0
v -128 -144 0
v -128 -128 0
v -112 -128 0
v -128 -144 0
v -144 -144 0
v -144 -128 0
v -128 -128 0
v -144 -144 0
v -160 -144 0
v -160 -128 0
v -144 -128 0
v -160 -144 0
v -176 -144 0
v -176 -128 0
v -160 -128 0

# Texture cooridinates (Count = 50)
vt 0.6595744 0.5625
vt 0.6489362 0.5625
vt 0.6489362 0.5
vt 0.6595744 0.5
vt 0.6276596 0.5625
vt 0.6170213 0.5625
vt 0.6170213 0.5
vt 0.6276596 0.5
vt 0.606383 0.5625
vt 0.606383 0.5
vt 0.9148936 0.3125
vt 0.9255319 0.3125
vt 0.9255319 0.375
vt 0.9148936 0.375
vt 0.9361702 0.3125
vt 0.9361702 0.375
vt 0.9468085 0.3125
vt 0.9468085 0.375
vt 0.8617021 0.3125
vt 0.8723404 0.3125
vt 0.8723404 0.375
vt 0.8617021 0.375
vt 0.8829787 0.3125
vt 0.8829787 0.375
vt 0.893617 0.3125
vt 0.893617 0.375
vt 0.9042553 0.3125
vt 0.9042553 0.375
vt 0.3085106 0.125
vt 0.3191489 0.125
vt 0.3191489 0.1875
vt 0.3085106 0.1875
vt 0.4361702 0.625
vt 0.4468085 0.625
vt 0.4468085 0.6875
vt 0.4361702 0.6875
vt 0.3404255 0.125
vt 0.3510638 0.125
vt 0.3510638 0.1875
vt 0.3404255 0.1875
vt 0.3297872 0.125
vt 0.3297872 0.1875
vt 0.393617 0.625
vt 0.4042553 0.625
vt 0.4042553 0.6875
vt 0.393617 0.6875
vt 0.3617021 0.125
vt 0.3723404 0.125
vt 0.3723404 0.1875
vt 0.3617021 0.1875

# Normal
vn 0 0 -1

# Mesh description
g 2ScenarioPlataforma_mesh_0654

# Faces
f 1/1/1 2/2/1 3/3/1 4/4/1
f 5/5/1 6/6/1 7/7/1 8/8/1
f 9/6/1 10/9/1 11/10/1 12/7/1
f 13/11/1 14/12/1 15/13/1 16/14/1
f 17/12/1 18/15/1 19/16/1 20/13/1
f 21/15/1 22/17/1 23/18/1 24/16/1
f 25/19/1 26/20/1 27/21/1 28/22/1
f 29/20/1 30/23/1 31/24/1 32/21/1
f 33/23/1 34/25/1 35/26/1 36/24/1
f 37/25/1 38/27/1 39/28/1 40/26/1
f 41/27/1 42/11/1 43/14/1 44/28/1
f 45/11/1 46/12/1 47/13/1 48/14/1
f 49/12/1 50/15/1 51/16/1 52/13/1
f 53/15/1 54/17/1 55/18/1 56/16/1
f 57/29/1 58/30/1 59/31/1 60/32/1
f 61/33/1 62/34/1 63/35/1 64/36/1
f 65/37/1 66/38/1 67/39/1 68/40/1
f 69/37/1 70/38/1 71/39/1 72/40/1
f 73/30/1 74/41/1 75/42/1 76/31/1
f 77/43/1 78/44/1 79/45/1 80/46/1
f 81/41/1 82/37/1 83/40/1 84/42/1
f 85/33/1 86/34/1 87/35/1 88/36/1
f 89/33/1 90/34/1 91/35/1 92/36/1
f 93/37/1 94/38/1 95/39/1 96/40/1
f 97/47/1 98/48/1 99/49/1 100/50/1

