# Tiled2Unity generated file. Do not modify by hand.
# Wavefront file for '2ScenarioPlataforma_mesh_0336.obj'

# Vertices (Count = 1024)
v 0 -16 0
v -16 -16 0
v -16 0 0
v 0 0 0
v -16 -16 0
v -32 -16 0
v -32 0 0
v -16 0 0
v -32 -16 0
v -48 -16 0
v -48 0 0
v -32 0 0
v -48 -16 0
v -64 -16 0
v -64 0 0
v -48 0 0
v -64 -16 0
v -80 -16 0
v -80 0 0
v -64 0 0
v -80 -16 0
v -96 -16 0
v -96 0 0
v -80 0 0
v -96 -16 0
v -112 -16 0
v -112 0 0
v -96 0 0
v -112 -16 0
v -128 -16 0
v -128 0 0
v -112 0 0
v -128 -16 0
v -144 -16 0
v -144 0 0
v -128 0 0
v -144 -16 0
v -160 -16 0
v -160 0 0
v -144 0 0
v -160 -16 0
v -176 -16 0
v -176 0 0
v -160 0 0
v -176 -16 0
v -192 -16 0
v -192 0 0
v -176 0 0
v -192 -16 0
v -208 -16 0
v -208 0 0
v -192 0 0
v -208 -16 0
v -224 -16 0
v -224 0 0
v -208 0 0
v -224 -16 0
v -240 -16 0
v -240 0 0
v -224 0 0
v -240 -16 0
v -256 -16 0
v -256 0 0
v -240 0 0
v 0 -32 0
v -16 -32 0
v -16 -16 0
v 0 -16 0
v -16 -32 0
v -32 -32 0
v -32 -16 0
v -16 -16 0
v -32 -32 0
v -48 -32 0
v -48 -16 0
v -32 -16 0
v -48 -32 0
v -64 -32 0
v -64 -16 0
v -48 -16 0
v -64 -32 0
v -80 -32 0
v -80 -16 0
v -64 -16 0
v -80 -32 0
v -96 -32 0
v -96 -16 0
v -80 -16 0
v -96 -32 0
v -112 -32 0
v -112 -16 0
v -96 -16 0
v -112 -32 0
v -128 -32 0
v -128 -16 0
v -112 -16 0
v -128 -32 0
v -144 -32 0
v -144 -16 0
v -128 -16 0
v -144 -32 0
v -160 -32 0
v -160 -16 0
v -144 -16 0
v -160 -32 0
v -176 -32 0
v -176 -16 0
v -160 -16 0
v -176 -32 0
v -192 -32 0
v -192 -16 0
v -176 -16 0
v -192 -32 0
v -208 -32 0
v -208 -16 0
v -192 -16 0
v -208 -32 0
v -224 -32 0
v -224 -16 0
v -208 -16 0
v -224 -32 0
v -240 -32 0
v -240 -16 0
v -224 -16 0
v -240 -32 0
v -256 -32 0
v -256 -16 0
v -240 -16 0
v 0 -48 0
v -16 -48 0
v -16 -32 0
v 0 -32 0
v -16 -48 0
v -32 -48 0
v -32 -32 0
v -16 -32 0
v -32 -48 0
v -48 -48 0
v -48 -32 0
v -32 -32 0
v -48 -48 0
v -64 -48 0
v -64 -32 0
v -48 -32 0
v -64 -48 0
v -80 -48 0
v -80 -32 0
v -64 -32 0
v -80 -48 0
v -96 -48 0
v -96 -32 0
v -80 -32 0
v -96 -48 0
v -112 -48 0
v -112 -32 0
v -96 -32 0
v -112 -48 0
v -128 -48 0
v -128 -32 0
v -112 -32 0
v -128 -48 0
v -144 -48 0
v -144 -32 0
v -128 -32 0
v -144 -48 0
v -160 -48 0
v -160 -32 0
v -144 -32 0
v -160 -48 0
v -176 -48 0
v -176 -32 0
v -160 -32 0
v -176 -48 0
v -192 -48 0
v -192 -32 0
v -176 -32 0
v -192 -48 0
v -208 -48 0
v -208 -32 0
v -192 -32 0
v -208 -48 0
v -224 -48 0
v -224 -32 0
v -208 -32 0
v -224 -48 0
v -240 -48 0
v -240 -32 0
v -224 -32 0
v -240 -48 0
v -256 -48 0
v -256 -32 0
v -240 -32 0
v 0 -64 0
v -16 -64 0
v -16 -48 0
v 0 -48 0
v -16 -64 0
v -32 -64 0
v -32 -48 0
v -16 -48 0
v -32 -64 0
v -48 -64 0
v -48 -48 0
v -32 -48 0
v -48 -64 0
v -64 -64 0
v -64 -48 0
v -48 -48 0
v -64 -64 0
v -80 -64 0
v -80 -48 0
v -64 -48 0
v -80 -64 0
v -96 -64 0
v -96 -48 0
v -80 -48 0
v -96 -64 0
v -112 -64 0
v -112 -48 0
v -96 -48 0
v -112 -64 0
v -128 -64 0
v -128 -48 0
v -112 -48 0
v -128 -64 0
v -144 -64 0
v -144 -48 0
v -128 -48 0
v -144 -64 0
v -160 -64 0
v -160 -48 0
v -144 -48 0
v -160 -64 0
v -176 -64 0
v -176 -48 0
v -160 -48 0
v -176 -64 0
v -192 -64 0
v -192 -48 0
v -176 -48 0
v -192 -64 0
v -208 -64 0
v -208 -48 0
v -192 -48 0
v -208 -64 0
v -224 -64 0
v -224 -48 0
v -208 -48 0
v -224 -64 0
v -240 -64 0
v -240 -48 0
v -224 -48 0
v -240 -64 0
v -256 -64 0
v -256 -48 0
v -240 -48 0
v 0 -80 0
v -16 -80 0
v -16 -64 0
v 0 -64 0
v -16 -80 0
v -32 -80 0
v -32 -64 0
v -16 -64 0
v -32 -80 0
v -48 -80 0
v -48 -64 0
v -32 -64 0
v -48 -80 0
v -64 -80 0
v -64 -64 0
v -48 -64 0
v -64 -80 0
v -80 -80 0
v -80 -64 0
v -64 -64 0
v -80 -80 0
v -96 -80 0
v -96 -64 0
v -80 -64 0
v -96 -80 0
v -112 -80 0
v -112 -64 0
v -96 -64 0
v -112 -80 0
v -128 -80 0
v -128 -64 0
v -112 -64 0
v -128 -80 0
v -144 -80 0
v -144 -64 0
v -128 -64 0
v -144 -80 0
v -160 -80 0
v -160 -64 0
v -144 -64 0
v -160 -80 0
v -176 -80 0
v -176 -64 0
v -160 -64 0
v -176 -80 0
v -192 -80 0
v -192 -64 0
v -176 -64 0
v -192 -80 0
v -208 -80 0
v -208 -64 0
v -192 -64 0
v -208 -80 0
v -224 -80 0
v -224 -64 0
v -208 -64 0
v -224 -80 0
v -240 -80 0
v -240 -64 0
v -224 -64 0
v -240 -80 0
v -256 -80 0
v -256 -64 0
v -240 -64 0
v 0 -96 0
v -16 -96 0
v -16 -80 0
v 0 -80 0
v -16 -96 0
v -32 -96 0
v -32 -80 0
v -16 -80 0
v -32 -96 0
v -48 -96 0
v -48 -80 0
v -32 -80 0
v -48 -96 0
v -64 -96 0
v -64 -80 0
v -48 -80 0
v -64 -96 0
v -80 -96 0
v -80 -80 0
v -64 -80 0
v -80 -96 0
v -96 -96 0
v -96 -80 0
v -80 -80 0
v -96 -96 0
v -112 -96 0
v -112 -80 0
v -96 -80 0
v -112 -96 0
v -128 -96 0
v -128 -80 0
v -112 -80 0
v -128 -96 0
v -144 -96 0
v -144 -80 0
v -128 -80 0
v -144 -96 0
v -160 -96 0
v -160 -80 0
v -144 -80 0
v -160 -96 0
v -176 -96 0
v -176 -80 0
v -160 -80 0
v -176 -96 0
v -192 -96 0
v -192 -80 0
v -176 -80 0
v -192 -96 0
v -208 -96 0
v -208 -80 0
v -192 -80 0
v -208 -96 0
v -224 -96 0
v -224 -80 0
v -208 -80 0
v -224 -96 0
v -240 -96 0
v -240 -80 0
v -224 -80 0
v -240 -96 0
v -256 -96 0
v -256 -80 0
v -240 -80 0
v 0 -112 0
v -16 -112 0
v -16 -96 0
v 0 -96 0
v -16 -112 0
v -32 -112 0
v -32 -96 0
v -16 -96 0
v -32 -112 0
v -48 -112 0
v -48 -96 0
v -32 -96 0
v -48 -112 0
v -64 -112 0
v -64 -96 0
v -48 -96 0
v -64 -112 0
v -80 -112 0
v -80 -96 0
v -64 -96 0
v -80 -112 0
v -96 -112 0
v -96 -96 0
v -80 -96 0
v -96 -112 0
v -112 -112 0
v -112 -96 0
v -96 -96 0
v -112 -112 0
v -128 -112 0
v -128 -96 0
v -112 -96 0
v -128 -112 0
v -144 -112 0
v -144 -96 0
v -128 -96 0
v -144 -112 0
v -160 -112 0
v -160 -96 0
v -144 -96 0
v -160 -112 0
v -176 -112 0
v -176 -96 0
v -160 -96 0
v -176 -112 0
v -192 -112 0
v -192 -96 0
v -176 -96 0
v -192 -112 0
v -208 -112 0
v -208 -96 0
v -192 -96 0
v -208 -112 0
v -224 -112 0
v -224 -96 0
v -208 -96 0
v -224 -112 0
v -240 -112 0
v -240 -96 0
v -224 -96 0
v -240 -112 0
v -256 -112 0
v -256 -96 0
v -240 -96 0
v 0 -128 0
v -16 -128 0
v -16 -112 0
v 0 -112 0
v -16 -128 0
v -32 -128 0
v -32 -112 0
v -16 -112 0
v -32 -128 0
v -48 -128 0
v -48 -112 0
v -32 -112 0
v -48 -128 0
v -64 -128 0
v -64 -112 0
v -48 -112 0
v -64 -128 0
v -80 -128 0
v -80 -112 0
v -64 -112 0
v -80 -128 0
v -96 -128 0
v -96 -112 0
v -80 -112 0
v -96 -128 0
v -112 -128 0
v -112 -112 0
v -96 -112 0
v -112 -128 0
v -128 -128 0
v -128 -112 0
v -112 -112 0
v -128 -128 0
v -144 -128 0
v -144 -112 0
v -128 -112 0
v -144 -128 0
v -160 -128 0
v -160 -112 0
v -144 -112 0
v -160 -128 0
v -176 -128 0
v -176 -112 0
v -160 -112 0
v -176 -128 0
v -192 -128 0
v -192 -112 0
v -176 -112 0
v -192 -128 0
v -208 -128 0
v -208 -112 0
v -192 -112 0
v -208 -128 0
v -224 -128 0
v -224 -112 0
v -208 -112 0
v -224 -128 0
v -240 -128 0
v -240 -112 0
v -224 -112 0
v -240 -128 0
v -256 -128 0
v -256 -112 0
v -240 -112 0
v 0 -144 0
v -16 -144 0
v -16 -128 0
v 0 -128 0
v -16 -144 0
v -32 -144 0
v -32 -128 0
v -16 -128 0
v -32 -144 0
v -48 -144 0
v -48 -128 0
v -32 -128 0
v -48 -144 0
v -64 -144 0
v -64 -128 0
v -48 -128 0
v -64 -144 0
v -80 -144 0
v -80 -128 0
v -64 -128 0
v -80 -144 0
v -96 -144 0
v -96 -128 0
v -80 -128 0
v -96 -144 0
v -112 -144 0
v -112 -128 0
v -96 -128 0
v -112 -144 0
v -128 -144 0
v -128 -128 0
v -112 -128 0
v -128 -144 0
v -144 -144 0
v -144 -128 0
v -128 -128 0
v -144 -144 0
v -160 -144 0
v -160 -128 0
v -144 -128 0
v -160 -144 0
v -176 -144 0
v -176 -128 0
v -160 -128 0
v -176 -144 0
v -192 -144 0
v -192 -128 0
v -176 -128 0
v -192 -144 0
v -208 -144 0
v -208 -128 0
v -192 -128 0
v -208 -144 0
v -224 -144 0
v -224 -128 0
v -208 -128 0
v -224 -144 0
v -240 -144 0
v -240 -128 0
v -224 -128 0
v -240 -144 0
v -256 -144 0
v -256 -128 0
v -240 -128 0
v 0 -160 0
v -16 -160 0
v -16 -144 0
v 0 -144 0
v -16 -160 0
v -32 -160 0
v -32 -144 0
v -16 -144 0
v -32 -160 0
v -48 -160 0
v -48 -144 0
v -32 -144 0
v -48 -160 0
v -64 -160 0
v -64 -144 0
v -48 -144 0
v -64 -160 0
v -80 -160 0
v -80 -144 0
v -64 -144 0
v -80 -160 0
v -96 -160 0
v -96 -144 0
v -80 -144 0
v -96 -160 0
v -112 -160 0
v -112 -144 0
v -96 -144 0
v -112 -160 0
v -128 -160 0
v -128 -144 0
v -112 -144 0
v -128 -160 0
v -144 -160 0
v -144 -144 0
v -128 -144 0
v -144 -160 0
v -160 -160 0
v -160 -144 0
v -144 -144 0
v -160 -160 0
v -176 -160 0
v -176 -144 0
v -160 -144 0
v -176 -160 0
v -192 -160 0
v -192 -144 0
v -176 -144 0
v -192 -160 0
v -208 -160 0
v -208 -144 0
v -192 -144 0
v -208 -160 0
v -224 -160 0
v -224 -144 0
v -208 -144 0
v -224 -160 0
v -240 -160 0
v -240 -144 0
v -224 -144 0
v -240 -160 0
v -256 -160 0
v -256 -144 0
v -240 -144 0
v 0 -176 0
v -16 -176 0
v -16 -160 0
v 0 -160 0
v -16 -176 0
v -32 -176 0
v -32 -160 0
v -16 -160 0
v -32 -176 0
v -48 -176 0
v -48 -160 0
v -32 -160 0
v -48 -176 0
v -64 -176 0
v -64 -160 0
v -48 -160 0
v -64 -176 0
v -80 -176 0
v -80 -160 0
v -64 -160 0
v -80 -176 0
v -96 -176 0
v -96 -160 0
v -80 -160 0
v -96 -176 0
v -112 -176 0
v -112 -160 0
v -96 -160 0
v -112 -176 0
v -128 -176 0
v -128 -160 0
v -112 -160 0
v -128 -176 0
v -144 -176 0
v -144 -160 0
v -128 -160 0
v -144 -176 0
v -160 -176 0
v -160 -160 0
v -144 -160 0
v -160 -176 0
v -176 -176 0
v -176 -160 0
v -160 -160 0
v -176 -176 0
v -192 -176 0
v -192 -160 0
v -176 -160 0
v -192 -176 0
v -208 -176 0
v -208 -160 0
v -192 -160 0
v -208 -176 0
v -224 -176 0
v -224 -160 0
v -208 -160 0
v -224 -176 0
v -240 -176 0
v -240 -160 0
v -224 -160 0
v -240 -176 0
v -256 -176 0
v -256 -160 0
v -240 -160 0
v 0 -192 0
v -16 -192 0
v -16 -176 0
v 0 -176 0
v -16 -192 0
v -32 -192 0
v -32 -176 0
v -16 -176 0
v -32 -192 0
v -48 -192 0
v -48 -176 0
v -32 -176 0
v -48 -192 0
v -64 -192 0
v -64 -176 0
v -48 -176 0
v -64 -192 0
v -80 -192 0
v -80 -176 0
v -64 -176 0
v -80 -192 0
v -96 -192 0
v -96 -176 0
v -80 -176 0
v -96 -192 0
v -112 -192 0
v -112 -176 0
v -96 -176 0
v -112 -192 0
v -128 -192 0
v -128 -176 0
v -112 -176 0
v -128 -192 0
v -144 -192 0
v -144 -176 0
v -128 -176 0
v -144 -192 0
v -160 -192 0
v -160 -176 0
v -144 -176 0
v -160 -192 0
v -176 -192 0
v -176 -176 0
v -160 -176 0
v -176 -192 0
v -192 -192 0
v -192 -176 0
v -176 -176 0
v -192 -192 0
v -208 -192 0
v -208 -176 0
v -192 -176 0
v -208 -192 0
v -224 -192 0
v -224 -176 0
v -208 -176 0
v -224 -192 0
v -240 -192 0
v -240 -176 0
v -224 -176 0
v -240 -192 0
v -256 -192 0
v -256 -176 0
v -240 -176 0
v 0 -208 0
v -16 -208 0
v -16 -192 0
v 0 -192 0
v -16 -208 0
v -32 -208 0
v -32 -192 0
v -16 -192 0
v -32 -208 0
v -48 -208 0
v -48 -192 0
v -32 -192 0
v -48 -208 0
v -64 -208 0
v -64 -192 0
v -48 -192 0
v -64 -208 0
v -80 -208 0
v -80 -192 0
v -64 -192 0
v -80 -208 0
v -96 -208 0
v -96 -192 0
v -80 -192 0
v -96 -208 0
v -112 -208 0
v -112 -192 0
v -96 -192 0
v -112 -208 0
v -128 -208 0
v -128 -192 0
v -112 -192 0
v -128 -208 0
v -144 -208 0
v -144 -192 0
v -128 -192 0
v -144 -208 0
v -160 -208 0
v -160 -192 0
v -144 -192 0
v -160 -208 0
v -176 -208 0
v -176 -192 0
v -160 -192 0
v -176 -208 0
v -192 -208 0
v -192 -192 0
v -176 -192 0
v -192 -208 0
v -208 -208 0
v -208 -192 0
v -192 -192 0
v -208 -208 0
v -224 -208 0
v -224 -192 0
v -208 -192 0
v -224 -208 0
v -240 -208 0
v -240 -192 0
v -224 -192 0
v -240 -208 0
v -256 -208 0
v -256 -192 0
v -240 -192 0
v 0 -224 0
v -16 -224 0
v -16 -208 0
v 0 -208 0
v -16 -224 0
v -32 -224 0
v -32 -208 0
v -16 -208 0
v -32 -224 0
v -48 -224 0
v -48 -208 0
v -32 -208 0
v -48 -224 0
v -64 -224 0
v -64 -208 0
v -48 -208 0
v -64 -224 0
v -80 -224 0
v -80 -208 0
v -64 -208 0
v -80 -224 0
v -96 -224 0
v -96 -208 0
v -80 -208 0
v -96 -224 0
v -112 -224 0
v -112 -208 0
v -96 -208 0
v -112 -224 0
v -128 -224 0
v -128 -208 0
v -112 -208 0
v -128 -224 0
v -144 -224 0
v -144 -208 0
v -128 -208 0
v -144 -224 0
v -160 -224 0
v -160 -208 0
v -144 -208 0
v -160 -224 0
v -176 -224 0
v -176 -208 0
v -160 -208 0
v -176 -224 0
v -192 -224 0
v -192 -208 0
v -176 -208 0
v -192 -224 0
v -208 -224 0
v -208 -208 0
v -192 -208 0
v -208 -224 0
v -224 -224 0
v -224 -208 0
v -208 -208 0
v -224 -224 0
v -240 -224 0
v -240 -208 0
v -224 -208 0
v -240 -224 0
v -256 -224 0
v -256 -208 0
v -240 -208 0
v 0 -240 0
v -16 -240 0
v -16 -224 0
v 0 -224 0
v -16 -240 0
v -32 -240 0
v -32 -224 0
v -16 -224 0
v -32 -240 0
v -48 -240 0
v -48 -224 0
v -32 -224 0
v -48 -240 0
v -64 -240 0
v -64 -224 0
v -48 -224 0
v -64 -240 0
v -80 -240 0
v -80 -224 0
v -64 -224 0
v -80 -240 0
v -96 -240 0
v -96 -224 0
v -80 -224 0
v -96 -240 0
v -112 -240 0
v -112 -224 0
v -96 -224 0
v -112 -240 0
v -128 -240 0
v -128 -224 0
v -112 -224 0
v -128 -240 0
v -144 -240 0
v -144 -224 0
v -128 -224 0
v -144 -240 0
v -160 -240 0
v -160 -224 0
v -144 -224 0
v -160 -240 0
v -176 -240 0
v -176 -224 0
v -160 -224 0
v -176 -240 0
v -192 -240 0
v -192 -224 0
v -176 -224 0
v -192 -240 0
v -208 -240 0
v -208 -224 0
v -192 -224 0
v -208 -240 0
v -224 -240 0
v -224 -224 0
v -208 -224 0
v -224 -240 0
v -240 -240 0
v -240 -224 0
v -224 -224 0
v -240 -240 0
v -256 -240 0
v -256 -224 0
v -240 -224 0
v 0 -256 0
v -16 -256 0
v -16 -240 0
v 0 -240 0
v -16 -256 0
v -32 -256 0
v -32 -240 0
v -16 -240 0
v -32 -256 0
v -48 -256 0
v -48 -240 0
v -32 -240 0
v -48 -256 0
v -64 -256 0
v -64 -240 0
v -48 -240 0
v -64 -256 0
v -80 -256 0
v -80 -240 0
v -64 -240 0
v -80 -256 0
v -96 -256 0
v -96 -240 0
v -80 -240 0
v -96 -256 0
v -112 -256 0
v -112 -240 0
v -96 -240 0
v -112 -256 0
v -128 -256 0
v -128 -240 0
v -112 -240 0
v -128 -256 0
v -144 -256 0
v -144 -240 0
v -128 -240 0
v -144 -256 0
v -160 -256 0
v -160 -240 0
v -144 -240 0
v -160 -256 0
v -176 -256 0
v -176 -240 0
v -160 -240 0
v -176 -256 0
v -192 -256 0
v -192 -240 0
v -176 -240 0
v -192 -256 0
v -208 -256 0
v -208 -240 0
v -192 -240 0
v -208 -256 0
v -224 -256 0
v -224 -240 0
v -208 -240 0
v -224 -256 0
v -240 -256 0
v -240 -240 0
v -224 -240 0
v -240 -256 0
v -256 -256 0
v -256 -240 0
v -240 -240 0

# Texture cooridinates (Count = 46)
vt 0.1489362 0.375
vt 0.1595745 0.375
vt 0.1595745 0.4375
vt 0.1489362 0.4375
vt 0.1702128 0.375
vt 0.1702128 0.4375
vt 0.06382979 0.9375
vt 0.05319149 0.9375
vt 0.05319149 0.875
vt 0.06382979 0.875
vt 0.04255319 0.9375
vt 0.04255319 0.875
vt 0.1489362 0.9375
vt 0.1382979 0.9375
vt 0.1382979 0.875
vt 0.1489362 0.875
vt 0.1276596 0.9375
vt 0.1276596 0.875
vt 0.1489362 0.3125
vt 0.1595745 0.3125
vt 0.1702128 0.3125
vt 0.09574468 0.9375
vt 0.08510638 0.9375
vt 0.08510638 0.875
vt 0.09574468 0.875
vt 0.07446808 0.9375
vt 0.07446808 0.875
vt 0.06382979 1
vt 0.05319149 1
vt 0.04255319 1
vt 0.1489362 1
vt 0.1382979 1
vt 0.1276596 1
vt 0.1170213 1
vt 0.1170213 0.9375
vt 0.09574468 1
vt 0.08510638 1
vt 0.07446808 1
vt 0.1170213 0.875
vt 0.106383 0.9375
vt 0.106383 0.875
vt 0.106383 1
vt 0.9361702 0.4375
vt 0.9468085 0.4375
vt 0.9468085 0.5
vt 0.9361702 0.5

# Normal
vn 0 0 -1

# Mesh description
g 2ScenarioPlataforma_mesh_0336

# Faces
f 1/1/1 2/2/1 3/3/1 4/4/1
f 5/2/1 6/5/1 7/6/1 8/3/1
f 9/7/1 10/8/1 11/9/1 12/10/1
f 13/8/1 14/11/1 15/12/1 16/9/1
f 17/13/1 18/14/1 19/15/1 20/16/1
f 21/14/1 22/17/1 23/18/1 24/15/1
f 25/19/1 26/20/1 27/2/1 28/1/1
f 29/20/1 30/21/1 31/5/1 32/2/1
f 33/2/1 34/5/1 35/6/1 36/3/1
f 37/22/1 38/23/1 39/24/1 40/25/1
f 41/23/1 42/26/1 43/27/1 44/24/1
f 45/26/1 46/7/1 47/10/1 48/27/1
f 49/19/1 50/20/1 51/2/1 52/1/1
f 53/20/1 54/21/1 55/5/1 56/2/1
f 57/13/1 58/14/1 59/15/1 60/16/1
f 61/14/1 62/17/1 63/18/1 64/15/1
f 65/1/1 66/2/1 67/3/1 68/4/1
f 69/2/1 70/5/1 71/6/1 72/3/1
f 73/28/1 74/29/1 75/8/1 76/7/1
f 77/29/1 78/30/1 79/11/1 80/8/1
f 81/31/1 82/32/1 83/14/1 84/13/1
f 85/32/1 86/33/1 87/17/1 88/14/1
f 89/33/1 90/34/1 91/35/1 92/17/1
f 93/19/1 94/20/1 95/2/1 96/1/1
f 97/20/1 98/21/1 99/5/1 100/2/1
f 101/36/1 102/37/1 103/23/1 104/22/1
f 105/37/1 106/38/1 107/26/1 108/23/1
f 109/38/1 110/28/1 111/7/1 112/26/1
f 113/28/1 114/29/1 115/8/1 116/7/1
f 117/29/1 118/30/1 119/11/1 120/8/1
f 121/31/1 122/32/1 123/14/1 124/13/1
f 125/32/1 126/33/1 127/17/1 128/14/1
f 129/1/1 130/2/1 131/3/1 132/4/1
f 133/1/1 134/2/1 135/3/1 136/4/1
f 137/1/1 138/2/1 139/3/1 140/4/1
f 141/1/1 142/2/1 143/3/1 144/4/1
f 145/1/1 146/2/1 147/3/1 148/4/1
f 149/1/1 150/2/1 151/3/1 152/4/1
f 153/1/1 154/2/1 155/3/1 156/4/1
f 157/19/1 158/20/1 159/2/1 160/1/1
f 161/20/1 162/21/1 163/5/1 164/2/1
f 165/22/1 166/23/1 167/24/1 168/25/1
f 169/23/1 170/26/1 171/27/1 172/24/1
f 173/26/1 174/7/1 175/10/1 176/27/1
f 177/7/1 178/8/1 179/9/1 180/10/1
f 181/8/1 182/11/1 183/12/1 184/9/1
f 185/13/1 186/14/1 187/15/1 188/16/1
f 189/14/1 190/17/1 191/18/1 192/15/1
f 193/19/1 194/20/1 195/2/1 196/1/1
f 197/19/1 198/20/1 199/2/1 200/1/1
f 201/19/1 202/20/1 203/2/1 204/1/1
f 205/19/1 206/20/1 207/2/1 208/1/1
f 209/19/1 210/20/1 211/2/1 212/1/1
f 213/19/1 214/20/1 215/2/1 216/1/1
f 217/19/1 218/20/1 219/2/1 220/1/1
f 221/19/1 222/20/1 223/2/1 224/1/1
f 225/20/1 226/21/1 227/5/1 228/2/1
f 229/36/1 230/37/1 231/23/1 232/22/1
f 233/37/1 234/38/1 235/26/1 236/23/1
f 237/38/1 238/28/1 239/7/1 240/26/1
f 241/28/1 242/29/1 243/8/1 244/7/1
f 245/29/1 246/30/1 247/11/1 248/8/1
f 249/31/1 250/32/1 251/14/1 252/13/1
f 253/32/1 254/33/1 255/17/1 256/14/1
f 257/23/1 258/26/1 259/27/1 260/24/1
f 261/26/1 262/7/1 263/10/1 264/27/1
f 265/7/1 266/8/1 267/9/1 268/10/1
f 269/8/1 270/11/1 271/12/1 272/9/1
f 273/13/1 274/14/1 275/15/1 276/16/1
f 277/14/1 278/17/1 279/18/1 280/15/1
f 281/17/1 282/35/1 283/39/1 284/18/1
f 285/35/1 286/40/1 287/41/1 288/39/1
f 289/40/1 290/22/1 291/25/1 292/41/1
f 293/22/1 294/23/1 295/24/1 296/25/1
f 297/23/1 298/26/1 299/27/1 300/24/1
f 301/26/1 302/7/1 303/10/1 304/27/1
f 305/7/1 306/8/1 307/9/1 308/10/1
f 309/8/1 310/11/1 311/12/1 312/9/1
f 313/13/1 314/14/1 315/15/1 316/16/1
f 317/14/1 318/17/1 319/18/1 320/15/1
f 321/37/1 322/38/1 323/26/1 324/23/1
f 325/38/1 326/28/1 327/7/1 328/26/1
f 329/28/1 330/29/1 331/8/1 332/7/1
f 333/29/1 334/30/1 335/11/1 336/8/1
f 337/31/1 338/32/1 339/14/1 340/13/1
f 341/32/1 342/33/1 343/17/1 344/14/1
f 345/33/1 346/34/1 347/35/1 348/17/1
f 349/34/1 350/42/1 351/40/1 352/35/1
f 353/42/1 354/36/1 355/22/1 356/40/1
f 357/36/1 358/37/1 359/23/1 360/22/1
f 361/37/1 362/38/1 363/26/1 364/23/1
f 365/38/1 366/28/1 367/7/1 368/26/1
f 369/28/1 370/29/1 371/8/1 372/7/1
f 373/29/1 374/30/1 375/11/1 376/8/1
f 377/31/1 378/32/1 379/14/1 380/13/1
f 381/32/1 382/33/1 383/17/1 384/14/1
f 385/23/1 386/26/1 387/27/1 388/24/1
f 389/26/1 390/7/1 391/10/1 392/27/1
f 393/7/1 394/8/1 395/9/1 396/10/1
f 397/8/1 398/11/1 399/12/1 400/9/1
f 401/13/1 402/14/1 403/15/1 404/16/1
f 405/14/1 406/17/1 407/18/1 408/15/1
f 409/17/1 410/35/1 411/39/1 412/18/1
f 413/35/1 414/40/1 415/41/1 416/39/1
f 417/40/1 418/22/1 419/25/1 420/41/1
f 421/22/1 422/23/1 423/24/1 424/25/1
f 425/23/1 426/26/1 427/27/1 428/24/1
f 429/26/1 430/7/1 431/10/1 432/27/1
f 433/7/1 434/8/1 435/9/1 436/10/1
f 437/8/1 438/11/1 439/12/1 440/9/1
f 441/13/1 442/14/1 443/15/1 444/16/1
f 445/14/1 446/17/1 447/18/1 448/15/1
f 449/37/1 450/38/1 451/26/1 452/23/1
f 453/38/1 454/28/1 455/7/1 456/26/1
f 457/28/1 458/29/1 459/8/1 460/7/1
f 461/29/1 462/30/1 463/11/1 464/8/1
f 465/31/1 466/32/1 467/14/1 468/13/1
f 469/32/1 470/33/1 471/17/1 472/14/1
f 473/33/1 474/34/1 475/35/1 476/17/1
f 477/34/1 478/42/1 479/40/1 480/35/1
f 481/42/1 482/36/1 483/22/1 484/40/1
f 485/36/1 486/37/1 487/23/1 488/22/1
f 489/37/1 490/38/1 491/26/1 492/23/1
f 493/38/1 494/28/1 495/7/1 496/26/1
f 497/28/1 498/29/1 499/8/1 500/7/1
f 501/29/1 502/30/1 503/11/1 504/8/1
f 505/31/1 506/32/1 507/14/1 508/13/1
f 509/32/1 510/33/1 511/17/1 512/14/1
f 513/23/1 514/26/1 515/27/1 516/24/1
f 517/26/1 518/7/1 519/10/1 520/27/1
f 521/7/1 522/8/1 523/9/1 524/10/1
f 525/8/1 526/11/1 527/12/1 528/9/1
f 529/13/1 530/14/1 531/15/1 532/16/1
f 533/14/1 534/17/1 535/18/1 536/15/1
f 537/17/1 538/35/1 539/39/1 540/18/1
f 541/35/1 542/40/1 543/41/1 544/39/1
f 545/40/1 546/22/1 547/25/1 548/41/1
f 549/22/1 550/23/1 551/24/1 552/25/1
f 553/23/1 554/26/1 555/27/1 556/24/1
f 557/26/1 558/7/1 559/10/1 560/27/1
f 561/7/1 562/8/1 563/9/1 564/10/1
f 565/8/1 566/11/1 567/12/1 568/9/1
f 569/13/1 570/14/1 571/15/1 572/16/1
f 573/14/1 574/17/1 575/18/1 576/15/1
f 577/37/1 578/38/1 579/26/1 580/23/1
f 581/38/1 582/28/1 583/7/1 584/26/1
f 585/28/1 586/29/1 587/8/1 588/7/1
f 589/29/1 590/30/1 591/11/1 592/8/1
f 593/31/1 594/32/1 595/14/1 596/13/1
f 597/32/1 598/33/1 599/17/1 600/14/1
f 601/33/1 602/34/1 603/35/1 604/17/1
f 605/34/1 606/42/1 607/40/1 608/35/1
f 609/42/1 610/36/1 611/22/1 612/40/1
f 613/36/1 614/37/1 615/23/1 616/22/1
f 617/37/1 618/38/1 619/26/1 620/23/1
f 621/38/1 622/28/1 623/7/1 624/26/1
f 625/28/1 626/29/1 627/8/1 628/7/1
f 629/29/1 630/30/1 631/11/1 632/8/1
f 633/31/1 634/32/1 635/14/1 636/13/1
f 637/32/1 638/33/1 639/17/1 640/14/1
f 641/23/1 642/26/1 643/27/1 644/24/1
f 645/26/1 646/7/1 647/10/1 648/27/1
f 649/7/1 650/8/1 651/9/1 652/10/1
f 653/8/1 654/11/1 655/12/1 656/9/1
f 657/13/1 658/14/1 659/15/1 660/16/1
f 661/14/1 662/17/1 663/18/1 664/15/1
f 665/17/1 666/35/1 667/39/1 668/18/1
f 669/35/1 670/40/1 671/41/1 672/39/1
f 673/40/1 674/22/1 675/25/1 676/41/1
f 677/22/1 678/23/1 679/24/1 680/25/1
f 681/23/1 682/26/1 683/27/1 684/24/1
f 685/26/1 686/7/1 687/10/1 688/27/1
f 689/7/1 690/8/1 691/9/1 692/10/1
f 693/8/1 694/11/1 695/12/1 696/9/1
f 697/1/1 698/2/1 699/3/1 700/4/1
f 701/2/1 702/5/1 703/6/1 704/3/1
f 705/37/1 706/38/1 707/26/1 708/23/1
f 709/38/1 710/28/1 711/7/1 712/26/1
f 713/28/1 714/29/1 715/8/1 716/7/1
f 717/29/1 718/30/1 719/11/1 720/8/1
f 721/31/1 722/32/1 723/14/1 724/13/1
f 725/32/1 726/33/1 727/17/1 728/14/1
f 729/33/1 730/34/1 731/35/1 732/17/1
f 733/34/1 734/42/1 735/40/1 736/35/1
f 737/42/1 738/36/1 739/22/1 740/40/1
f 741/36/1 742/37/1 743/23/1 744/22/1
f 745/37/1 746/38/1 747/26/1 748/23/1
f 749/38/1 750/28/1 751/7/1 752/26/1
f 753/28/1 754/29/1 755/8/1 756/7/1
f 757/1/1 758/2/1 759/3/1 760/4/1
f 761/19/1 762/20/1 763/2/1 764/1/1
f 765/20/1 766/21/1 767/5/1 768/2/1
f 769/23/1 770/26/1 771/27/1 772/24/1
f 773/26/1 774/7/1 775/10/1 776/27/1
f 777/7/1 778/8/1 779/9/1 780/10/1
f 781/8/1 782/11/1 783/12/1 784/9/1
f 785/13/1 786/14/1 787/15/1 788/16/1
f 789/14/1 790/17/1 791/18/1 792/15/1
f 793/17/1 794/35/1 795/39/1 796/18/1
f 797/35/1 798/40/1 799/41/1 800/39/1
f 801/1/1 802/2/1 803/3/1 804/4/1
f 805/1/1 806/2/1 807/3/1 808/4/1
f 809/1/1 810/2/1 811/3/1 812/4/1
f 813/1/1 814/2/1 815/3/1 816/4/1
f 817/1/1 818/2/1 819/3/1 820/4/1
f 821/19/1 822/20/1 823/2/1 824/1/1
f 825/19/1 826/20/1 827/2/1 828/1/1
f 829/20/1 830/21/1 831/5/1 832/2/1
f 833/37/1 834/38/1 835/26/1 836/23/1
f 837/43/1 838/44/1 839/45/1 840/46/1
f 841/28/1 842/29/1 843/8/1 844/7/1
f 845/29/1 846/30/1 847/11/1 848/8/1
f 849/31/1 850/32/1 851/14/1 852/13/1
f 853/32/1 854/33/1 855/17/1 856/14/1
f 857/33/1 858/34/1 859/35/1 860/17/1
f 861/1/1 862/2/1 863/3/1 864/4/1
f 865/19/1 866/20/1 867/2/1 868/1/1
f 869/19/1 870/20/1 871/2/1 872/1/1
f 873/19/1 874/20/1 875/2/1 876/1/1
f 877/19/1 878/20/1 879/2/1 880/1/1
f 881/19/1 882/20/1 883/2/1 884/1/1
f 885/19/1 886/20/1 887/2/1 888/1/1
f 889/20/1 890/21/1 891/5/1 892/2/1
f 893/32/1 894/33/1 895/17/1 896/14/1
f 897/23/1 898/26/1 899/27/1 900/24/1
f 901/26/1 902/7/1 903/10/1 904/27/1
f 905/7/1 906/8/1 907/9/1 908/10/1
f 909/8/1 910/11/1 911/12/1 912/9/1
f 913/13/1 914/14/1 915/15/1 916/16/1
f 917/14/1 918/17/1 919/18/1 920/15/1
f 921/1/1 922/2/1 923/3/1 924/4/1
f 925/19/1 926/20/1 927/2/1 928/1/1
f 929/19/1 930/20/1 931/2/1 932/1/1
f 933/20/1 934/21/1 935/5/1 936/2/1
f 937/23/1 938/26/1 939/27/1 940/24/1
f 941/26/1 942/7/1 943/10/1 944/27/1
f 945/7/1 946/8/1 947/9/1 948/10/1
f 949/8/1 950/11/1 951/12/1 952/9/1
f 953/13/1 954/14/1 955/15/1 956/16/1
f 957/14/1 958/17/1 959/18/1 960/15/1
f 961/37/1 962/38/1 963/26/1 964/23/1
f 965/38/1 966/28/1 967/7/1 968/26/1
f 969/28/1 970/29/1 971/8/1 972/7/1
f 973/29/1 974/30/1 975/11/1 976/8/1
f 977/31/1 978/32/1 979/14/1 980/13/1
f 981/1/1 982/2/1 983/3/1 984/4/1
f 985/19/1 986/20/1 987/2/1 988/1/1
f 989/19/1 990/20/1 991/2/1 992/1/1
f 993/20/1 994/21/1 995/5/1 996/2/1
f 997/36/1 998/37/1 999/23/1 1000/22/1
f 1001/37/1 1002/38/1 1003/26/1 1004/23/1
f 1005/38/1 1006/28/1 1007/7/1 1008/26/1
f 1009/28/1 1010/29/1 1011/8/1 1012/7/1
f 1013/29/1 1014/30/1 1015/11/1 1016/8/1
f 1017/31/1 1018/32/1 1019/14/1 1020/13/1
f 1021/32/1 1022/33/1 1023/17/1 1024/14/1

