# Tiled2Unity generated file. Do not modify by hand.
# Wavefront file for '2ScenarioPlataforma_mesh_0810.obj'

# Vertices (Count = 28)
v -80 -16 0
v -96 -16 0
v -96 0 0
v -80 0 0
v -80 -32 0
v -96 -32 0
v -96 -16 0
v -80 -16 0
v -80 -48 0
v -96 -48 0
v -96 -32 0
v -80 -32 0
v -80 -64 0
v -96 -64 0
v -96 -48 0
v -80 -48 0
v -80 -80 0
v -96 -80 0
v -96 -64 0
v -80 -64 0
v -80 -96 0
v -96 -96 0
v -96 -80 0
v -80 -80 0
v -80 -112 0
v -96 -112 0
v -96 -96 0
v -80 -96 0

# Texture cooridinates (Count = 6)
vt 0.7619048 0.9375
vt 0.7619048 0.875
vt 0.7857143 0.875
vt 0.7857143 0.9375
vt 0.8095238 0.875
vt 0.8095238 0.9375

# Normal
vn 0 0 -1

# Mesh description
g 2ScenarioPlataforma_mesh_0810

# Faces
f 1/1/1 2/2/1 3/3/1 4/4/1
f 5/1/1 6/2/1 7/3/1 8/4/1
f 9/1/1 10/2/1 11/3/1 12/4/1
f 13/4/1 14/3/1 15/5/1 16/6/1
f 17/4/1 18/3/1 19/5/1 20/6/1
f 21/4/1 22/3/1 23/5/1 24/6/1
f 25/1/1 26/2/1 27/3/1 28/4/1

