# Tiled2Unity generated file. Do not modify by hand.
# Wavefront file for '2ScenarioPlataforma_mesh_0919.obj'

# Vertices (Count = 216)
v -48 -128 0
v -64 -128 0
v -64 -112 0
v -48 -112 0
v -64 -128 0
v -80 -128 0
v -80 -112 0
v -64 -112 0
v -80 -128 0
v -96 -128 0
v -96 -112 0
v -80 -112 0
v -96 -128 0
v -112 -128 0
v -112 -112 0
v -96 -112 0
v -112 -128 0
v -128 -128 0
v -128 -112 0
v -112 -112 0
v -128 -128 0
v -144 -128 0
v -144 -112 0
v -128 -112 0
v -48 -144 0
v -64 -144 0
v -64 -128 0
v -48 -128 0
v -64 -144 0
v -80 -144 0
v -80 -128 0
v -64 -128 0
v -80 -144 0
v -96 -144 0
v -96 -128 0
v -80 -128 0
v -96 -144 0
v -112 -144 0
v -112 -128 0
v -96 -128 0
v -112 -144 0
v -128 -144 0
v -128 -128 0
v -112 -128 0
v -128 -144 0
v -144 -144 0
v -144 -128 0
v -128 -128 0
v -48 -160 0
v -64 -160 0
v -64 -144 0
v -48 -144 0
v -64 -160 0
v -80 -160 0
v -80 -144 0
v -64 -144 0
v -80 -160 0
v -96 -160 0
v -96 -144 0
v -80 -144 0
v -96 -160 0
v -112 -160 0
v -112 -144 0
v -96 -144 0
v -112 -160 0
v -128 -160 0
v -128 -144 0
v -112 -144 0
v -128 -160 0
v -144 -160 0
v -144 -144 0
v -128 -144 0
v -48 -176 0
v -64 -176 0
v -64 -160 0
v -48 -160 0
v -64 -176 0
v -80 -176 0
v -80 -160 0
v -64 -160 0
v -80 -176 0
v -96 -176 0
v -96 -160 0
v -80 -160 0
v -96 -176 0
v -112 -176 0
v -112 -160 0
v -96 -160 0
v -112 -176 0
v -128 -176 0
v -128 -160 0
v -112 -160 0
v -128 -176 0
v -144 -176 0
v -144 -160 0
v -128 -160 0
v -48 -192 0
v -64 -192 0
v -64 -176 0
v -48 -176 0
v -64 -192 0
v -80 -192 0
v -80 -176 0
v -64 -176 0
v -80 -192 0
v -96 -192 0
v -96 -176 0
v -80 -176 0
v -96 -192 0
v -112 -192 0
v -112 -176 0
v -96 -176 0
v -112 -192 0
v -128 -192 0
v -128 -176 0
v -112 -176 0
v -128 -192 0
v -144 -192 0
v -144 -176 0
v -128 -176 0
v -48 -208 0
v -64 -208 0
v -64 -192 0
v -48 -192 0
v -64 -208 0
v -80 -208 0
v -80 -192 0
v -64 -192 0
v -80 -208 0
v -96 -208 0
v -96 -192 0
v -80 -192 0
v -96 -208 0
v -112 -208 0
v -112 -192 0
v -96 -192 0
v -112 -208 0
v -128 -208 0
v -128 -192 0
v -112 -192 0
v -128 -208 0
v -144 -208 0
v -144 -192 0
v -128 -192 0
v -48 -224 0
v -64 -224 0
v -64 -208 0
v -48 -208 0
v -64 -224 0
v -80 -224 0
v -80 -208 0
v -64 -208 0
v -80 -224 0
v -96 -224 0
v -96 -208 0
v -80 -208 0
v -96 -224 0
v -112 -224 0
v -112 -208 0
v -96 -208 0
v -112 -224 0
v -128 -224 0
v -128 -208 0
v -112 -208 0
v -128 -224 0
v -144 -224 0
v -144 -208 0
v -128 -208 0
v -48 -240 0
v -64 -240 0
v -64 -224 0
v -48 -224 0
v -64 -240 0
v -80 -240 0
v -80 -224 0
v -64 -224 0
v -80 -240 0
v -96 -240 0
v -96 -224 0
v -80 -224 0
v -96 -240 0
v -112 -240 0
v -112 -224 0
v -96 -224 0
v -112 -240 0
v -128 -240 0
v -128 -224 0
v -112 -224 0
v -128 -240 0
v -144 -240 0
v -144 -224 0
v -128 -224 0
v -48 -256 0
v -64 -256 0
v -64 -240 0
v -48 -240 0
v -64 -256 0
v -80 -256 0
v -80 -240 0
v -64 -240 0
v -80 -256 0
v -96 -256 0
v -96 -240 0
v -80 -240 0
v -96 -256 0
v -112 -256 0
v -112 -240 0
v -96 -240 0
v -112 -256 0
v -128 -256 0
v -128 -240 0
v -112 -240 0
v -128 -256 0
v -144 -256 0
v -144 -240 0
v -128 -240 0

# Texture cooridinates (Count = 81)
vt 0.9468085 0.25
vt 0.9574468 0.25
vt 0.9574468 0.3125
vt 0.9468085 0.3125
vt 0.6489362 0.5625
vt 0.6382979 0.5625
vt 0.6382979 0.5
vt 0.6489362 0.5
vt 0.6276596 0.5625
vt 0.6276596 0.5
vt 0.6702127 0.5625
vt 0.6595744 0.5625
vt 0.6595744 0.5
vt 0.6702127 0.5
vt 0.8510638 0.3125
vt 0.8617021 0.3125
vt 0.8617021 0.375
vt 0.8510638 0.375
vt 0.9574468 0.375
vt 0.9468085 0.375
vt 0.7872341 0.0625
vt 0.7872341 0.125
vt 0.7765958 0.125
vt 0.7765958 0.0625
vt 0.7872341 0.1875
vt 0.7765958 0.1875
vt 0.7872341 0.25
vt 0.7765958 0.25
vt 0.7872341 0.3125
vt 0.7765958 0.3125
vt 0.8510638 0.0625
vt 0.8617021 0.0625
vt 0.8617021 0.125
vt 0.8510638 0.125
vt 0.07446808 0.5625
vt 0.08510638 0.5625
vt 0.08510638 0.625
vt 0.07446808 0.625
vt 0.7978724 0.0625
vt 0.7978724 0.125
vt 0.7978724 0.1875
vt 0.7978724 0.25
vt 0.7978724 0.3125
vt 0.8510638 0.25
vt 0.8617021 0.25
vt 0.5851064 0.9375
vt 0.5957447 0.9375
vt 0.5957447 1
vt 0.5851064 1
vt 0.8085107 0.0625
vt 0.8085107 0.125
vt 0.8085107 0.1875
vt 0.8085107 0.25
vt 0.8085107 0.3125
vt 0.8510638 0.1875
vt 0.8617021 0.1875
vt 0.5851064 0.875
vt 0.5957447 0.875
vt 0.819149 0.0625
vt 0.819149 0.125
vt 0.819149 0.1875
vt 0.819149 0.25
vt 0.819149 0.3125
vt 0.8297873 0.0625
vt 0.8297873 0.125
vt 0.8297873 0.1875
vt 0.8297873 0.25
vt 0.8297873 0.3125
vt 0.8404256 0.0625
vt 0.8404256 0.125
vt 0.8404256 0.1875
vt 0.8404256 0.25
vt 0.8404256 0.3125
vt 0.07446808 0.6875
vt 0.08510638 0.6875
vt 0.08510638 0.75
vt 0.07446808 0.75
vt 0.9468085 0
vt 0.9574468 0
vt 0.9574468 0.0625
vt 0.9468085 0.0625

# Normal
vn 0 0 -1

# Mesh description
g 2ScenarioPlataforma_mesh_0919

# Faces
f 1/1/1 2/2/1 3/3/1 4/4/1
f 5/5/1 6/6/1 7/7/1 8/8/1
f 9/6/1 10/9/1 11/10/1 12/7/1
f 13/11/1 14/12/1 15/13/1 16/14/1
f 17/5/1 18/6/1 19/7/1 20/8/1
f 21/15/1 22/16/1 23/17/1 24/18/1
f 25/4/1 26/3/1 27/19/1 28/20/1
f 29/21/1 30/22/1 31/23/1 32/24/1
f 33/22/1 34/25/1 35/26/1 36/23/1
f 37/25/1 38/27/1 39/28/1 40/26/1
f 41/27/1 42/29/1 43/30/1 44/28/1
f 45/31/1 46/32/1 47/33/1 48/34/1
f 49/35/1 50/36/1 51/37/1 52/38/1
f 53/39/1 54/40/1 55/22/1 56/21/1
f 57/40/1 58/41/1 59/25/1 60/22/1
f 61/41/1 62/42/1 63/27/1 64/25/1
f 65/42/1 66/43/1 67/29/1 68/27/1
f 69/44/1 70/45/1 71/16/1 72/15/1
f 73/46/1 74/47/1 75/48/1 76/49/1
f 77/50/1 78/51/1 79/40/1 80/39/1
f 81/51/1 82/52/1 83/41/1 84/40/1
f 85/52/1 86/53/1 87/42/1 88/41/1
f 89/53/1 90/54/1 91/43/1 92/42/1
f 93/55/1 94/56/1 95/45/1 96/44/1
f 97/57/1 98/58/1 99/47/1 100/46/1
f 101/59/1 102/60/1 103/51/1 104/50/1
f 105/60/1 106/61/1 107/52/1 108/51/1
f 109/61/1 110/62/1 111/53/1 112/52/1
f 113/62/1 114/63/1 115/54/1 116/53/1
f 117/15/1 118/16/1 119/17/1 120/18/1
f 121/35/1 122/36/1 123/37/1 124/38/1
f 125/64/1 126/65/1 127/60/1 128/59/1
f 129/65/1 130/66/1 131/61/1 132/60/1
f 133/66/1 134/67/1 135/62/1 136/61/1
f 137/67/1 138/68/1 139/63/1 140/62/1
f 141/55/1 142/56/1 143/45/1 144/44/1
f 145/35/1 146/36/1 147/37/1 148/38/1
f 149/69/1 150/70/1 151/65/1 152/64/1
f 153/70/1 154/71/1 155/66/1 156/65/1
f 157/71/1 158/72/1 159/67/1 160/66/1
f 161/72/1 162/73/1 163/68/1 164/67/1
f 165/34/1 166/33/1 167/56/1 168/55/1
f 169/74/1 170/75/1 171/76/1 172/77/1
f 173/69/1 174/70/1 175/65/1 176/64/1
f 177/70/1 178/71/1 179/66/1 180/65/1
f 181/71/1 182/72/1 183/67/1 184/66/1
f 185/72/1 186/73/1 187/68/1 188/67/1
f 189/15/1 190/16/1 191/17/1 192/18/1
f 193/78/1 194/79/1 195/80/1 196/81/1
f 197/69/1 198/70/1 199/65/1 200/64/1
f 201/70/1 202/71/1 203/66/1 204/65/1
f 205/71/1 206/72/1 207/67/1 208/66/1
f 209/72/1 210/73/1 211/68/1 212/67/1
f 213/34/1 214/33/1 215/56/1 216/55/1

