# Tiled2Unity generated file. Do not modify by hand.
# Wavefront file for '2ScenarioPlataforma_mesh_0401.obj'

# Vertices (Count = 1024)
v 0 -16 0
v -16 -16 0
v -16 0 0
v 0 0 0
v -16 -16 0
v -32 -16 0
v -32 0 0
v -16 0 0
v -32 -16 0
v -48 -16 0
v -48 0 0
v -32 0 0
v -48 -16 0
v -64 -16 0
v -64 0 0
v -48 0 0
v -64 -16 0
v -80 -16 0
v -80 0 0
v -64 0 0
v -80 -16 0
v -96 -16 0
v -96 0 0
v -80 0 0
v -96 -16 0
v -112 -16 0
v -112 0 0
v -96 0 0
v -112 -16 0
v -128 -16 0
v -128 0 0
v -112 0 0
v -128 -16 0
v -144 -16 0
v -144 0 0
v -128 0 0
v -144 -16 0
v -160 -16 0
v -160 0 0
v -144 0 0
v -160 -16 0
v -176 -16 0
v -176 0 0
v -160 0 0
v -176 -16 0
v -192 -16 0
v -192 0 0
v -176 0 0
v -192 -16 0
v -208 -16 0
v -208 0 0
v -192 0 0
v -208 -16 0
v -224 -16 0
v -224 0 0
v -208 0 0
v -224 -16 0
v -240 -16 0
v -240 0 0
v -224 0 0
v -240 -16 0
v -256 -16 0
v -256 0 0
v -240 0 0
v 0 -32 0
v -16 -32 0
v -16 -16 0
v 0 -16 0
v -16 -32 0
v -32 -32 0
v -32 -16 0
v -16 -16 0
v -32 -32 0
v -48 -32 0
v -48 -16 0
v -32 -16 0
v -48 -32 0
v -64 -32 0
v -64 -16 0
v -48 -16 0
v -64 -32 0
v -80 -32 0
v -80 -16 0
v -64 -16 0
v -80 -32 0
v -96 -32 0
v -96 -16 0
v -80 -16 0
v -96 -32 0
v -112 -32 0
v -112 -16 0
v -96 -16 0
v -112 -32 0
v -128 -32 0
v -128 -16 0
v -112 -16 0
v -128 -32 0
v -144 -32 0
v -144 -16 0
v -128 -16 0
v -144 -32 0
v -160 -32 0
v -160 -16 0
v -144 -16 0
v -160 -32 0
v -176 -32 0
v -176 -16 0
v -160 -16 0
v -176 -32 0
v -192 -32 0
v -192 -16 0
v -176 -16 0
v -192 -32 0
v -208 -32 0
v -208 -16 0
v -192 -16 0
v -208 -32 0
v -224 -32 0
v -224 -16 0
v -208 -16 0
v -224 -32 0
v -240 -32 0
v -240 -16 0
v -224 -16 0
v -240 -32 0
v -256 -32 0
v -256 -16 0
v -240 -16 0
v 0 -48 0
v -16 -48 0
v -16 -32 0
v 0 -32 0
v -16 -48 0
v -32 -48 0
v -32 -32 0
v -16 -32 0
v -32 -48 0
v -48 -48 0
v -48 -32 0
v -32 -32 0
v -48 -48 0
v -64 -48 0
v -64 -32 0
v -48 -32 0
v -64 -48 0
v -80 -48 0
v -80 -32 0
v -64 -32 0
v -80 -48 0
v -96 -48 0
v -96 -32 0
v -80 -32 0
v -96 -48 0
v -112 -48 0
v -112 -32 0
v -96 -32 0
v -112 -48 0
v -128 -48 0
v -128 -32 0
v -112 -32 0
v -128 -48 0
v -144 -48 0
v -144 -32 0
v -128 -32 0
v -144 -48 0
v -160 -48 0
v -160 -32 0
v -144 -32 0
v -160 -48 0
v -176 -48 0
v -176 -32 0
v -160 -32 0
v -176 -48 0
v -192 -48 0
v -192 -32 0
v -176 -32 0
v -192 -48 0
v -208 -48 0
v -208 -32 0
v -192 -32 0
v -208 -48 0
v -224 -48 0
v -224 -32 0
v -208 -32 0
v -224 -48 0
v -240 -48 0
v -240 -32 0
v -224 -32 0
v -240 -48 0
v -256 -48 0
v -256 -32 0
v -240 -32 0
v 0 -64 0
v -16 -64 0
v -16 -48 0
v 0 -48 0
v -16 -64 0
v -32 -64 0
v -32 -48 0
v -16 -48 0
v -32 -64 0
v -48 -64 0
v -48 -48 0
v -32 -48 0
v -48 -64 0
v -64 -64 0
v -64 -48 0
v -48 -48 0
v -64 -64 0
v -80 -64 0
v -80 -48 0
v -64 -48 0
v -80 -64 0
v -96 -64 0
v -96 -48 0
v -80 -48 0
v -96 -64 0
v -112 -64 0
v -112 -48 0
v -96 -48 0
v -112 -64 0
v -128 -64 0
v -128 -48 0
v -112 -48 0
v -128 -64 0
v -144 -64 0
v -144 -48 0
v -128 -48 0
v -144 -64 0
v -160 -64 0
v -160 -48 0
v -144 -48 0
v -160 -64 0
v -176 -64 0
v -176 -48 0
v -160 -48 0
v -176 -64 0
v -192 -64 0
v -192 -48 0
v -176 -48 0
v -192 -64 0
v -208 -64 0
v -208 -48 0
v -192 -48 0
v -208 -64 0
v -224 -64 0
v -224 -48 0
v -208 -48 0
v -224 -64 0
v -240 -64 0
v -240 -48 0
v -224 -48 0
v -240 -64 0
v -256 -64 0
v -256 -48 0
v -240 -48 0
v 0 -80 0
v -16 -80 0
v -16 -64 0
v 0 -64 0
v -16 -80 0
v -32 -80 0
v -32 -64 0
v -16 -64 0
v -32 -80 0
v -48 -80 0
v -48 -64 0
v -32 -64 0
v -48 -80 0
v -64 -80 0
v -64 -64 0
v -48 -64 0
v -64 -80 0
v -80 -80 0
v -80 -64 0
v -64 -64 0
v -80 -80 0
v -96 -80 0
v -96 -64 0
v -80 -64 0
v -96 -80 0
v -112 -80 0
v -112 -64 0
v -96 -64 0
v -112 -80 0
v -128 -80 0
v -128 -64 0
v -112 -64 0
v -128 -80 0
v -144 -80 0
v -144 -64 0
v -128 -64 0
v -144 -80 0
v -160 -80 0
v -160 -64 0
v -144 -64 0
v -160 -80 0
v -176 -80 0
v -176 -64 0
v -160 -64 0
v -176 -80 0
v -192 -80 0
v -192 -64 0
v -176 -64 0
v -192 -80 0
v -208 -80 0
v -208 -64 0
v -192 -64 0
v -208 -80 0
v -224 -80 0
v -224 -64 0
v -208 -64 0
v -224 -80 0
v -240 -80 0
v -240 -64 0
v -224 -64 0
v -240 -80 0
v -256 -80 0
v -256 -64 0
v -240 -64 0
v 0 -96 0
v -16 -96 0
v -16 -80 0
v 0 -80 0
v -16 -96 0
v -32 -96 0
v -32 -80 0
v -16 -80 0
v -32 -96 0
v -48 -96 0
v -48 -80 0
v -32 -80 0
v -48 -96 0
v -64 -96 0
v -64 -80 0
v -48 -80 0
v -64 -96 0
v -80 -96 0
v -80 -80 0
v -64 -80 0
v -80 -96 0
v -96 -96 0
v -96 -80 0
v -80 -80 0
v -96 -96 0
v -112 -96 0
v -112 -80 0
v -96 -80 0
v -112 -96 0
v -128 -96 0
v -128 -80 0
v -112 -80 0
v -128 -96 0
v -144 -96 0
v -144 -80 0
v -128 -80 0
v -144 -96 0
v -160 -96 0
v -160 -80 0
v -144 -80 0
v -160 -96 0
v -176 -96 0
v -176 -80 0
v -160 -80 0
v -176 -96 0
v -192 -96 0
v -192 -80 0
v -176 -80 0
v -192 -96 0
v -208 -96 0
v -208 -80 0
v -192 -80 0
v -208 -96 0
v -224 -96 0
v -224 -80 0
v -208 -80 0
v -224 -96 0
v -240 -96 0
v -240 -80 0
v -224 -80 0
v -240 -96 0
v -256 -96 0
v -256 -80 0
v -240 -80 0
v 0 -112 0
v -16 -112 0
v -16 -96 0
v 0 -96 0
v -16 -112 0
v -32 -112 0
v -32 -96 0
v -16 -96 0
v -32 -112 0
v -48 -112 0
v -48 -96 0
v -32 -96 0
v -48 -112 0
v -64 -112 0
v -64 -96 0
v -48 -96 0
v -64 -112 0
v -80 -112 0
v -80 -96 0
v -64 -96 0
v -80 -112 0
v -96 -112 0
v -96 -96 0
v -80 -96 0
v -96 -112 0
v -112 -112 0
v -112 -96 0
v -96 -96 0
v -112 -112 0
v -128 -112 0
v -128 -96 0
v -112 -96 0
v -128 -112 0
v -144 -112 0
v -144 -96 0
v -128 -96 0
v -144 -112 0
v -160 -112 0
v -160 -96 0
v -144 -96 0
v -160 -112 0
v -176 -112 0
v -176 -96 0
v -160 -96 0
v -176 -112 0
v -192 -112 0
v -192 -96 0
v -176 -96 0
v -192 -112 0
v -208 -112 0
v -208 -96 0
v -192 -96 0
v -208 -112 0
v -224 -112 0
v -224 -96 0
v -208 -96 0
v -224 -112 0
v -240 -112 0
v -240 -96 0
v -224 -96 0
v -240 -112 0
v -256 -112 0
v -256 -96 0
v -240 -96 0
v 0 -128 0
v -16 -128 0
v -16 -112 0
v 0 -112 0
v -16 -128 0
v -32 -128 0
v -32 -112 0
v -16 -112 0
v -32 -128 0
v -48 -128 0
v -48 -112 0
v -32 -112 0
v -48 -128 0
v -64 -128 0
v -64 -112 0
v -48 -112 0
v -64 -128 0
v -80 -128 0
v -80 -112 0
v -64 -112 0
v -80 -128 0
v -96 -128 0
v -96 -112 0
v -80 -112 0
v -96 -128 0
v -112 -128 0
v -112 -112 0
v -96 -112 0
v -112 -128 0
v -128 -128 0
v -128 -112 0
v -112 -112 0
v -128 -128 0
v -144 -128 0
v -144 -112 0
v -128 -112 0
v -144 -128 0
v -160 -128 0
v -160 -112 0
v -144 -112 0
v -160 -128 0
v -176 -128 0
v -176 -112 0
v -160 -112 0
v -176 -128 0
v -192 -128 0
v -192 -112 0
v -176 -112 0
v -192 -128 0
v -208 -128 0
v -208 -112 0
v -192 -112 0
v -208 -128 0
v -224 -128 0
v -224 -112 0
v -208 -112 0
v -224 -128 0
v -240 -128 0
v -240 -112 0
v -224 -112 0
v -240 -128 0
v -256 -128 0
v -256 -112 0
v -240 -112 0
v 0 -144 0
v -16 -144 0
v -16 -128 0
v 0 -128 0
v -16 -144 0
v -32 -144 0
v -32 -128 0
v -16 -128 0
v -32 -144 0
v -48 -144 0
v -48 -128 0
v -32 -128 0
v -48 -144 0
v -64 -144 0
v -64 -128 0
v -48 -128 0
v -64 -144 0
v -80 -144 0
v -80 -128 0
v -64 -128 0
v -80 -144 0
v -96 -144 0
v -96 -128 0
v -80 -128 0
v -96 -144 0
v -112 -144 0
v -112 -128 0
v -96 -128 0
v -112 -144 0
v -128 -144 0
v -128 -128 0
v -112 -128 0
v -128 -144 0
v -144 -144 0
v -144 -128 0
v -128 -128 0
v -144 -144 0
v -160 -144 0
v -160 -128 0
v -144 -128 0
v -160 -144 0
v -176 -144 0
v -176 -128 0
v -160 -128 0
v -176 -144 0
v -192 -144 0
v -192 -128 0
v -176 -128 0
v -192 -144 0
v -208 -144 0
v -208 -128 0
v -192 -128 0
v -208 -144 0
v -224 -144 0
v -224 -128 0
v -208 -128 0
v -224 -144 0
v -240 -144 0
v -240 -128 0
v -224 -128 0
v -240 -144 0
v -256 -144 0
v -256 -128 0
v -240 -128 0
v 0 -160 0
v -16 -160 0
v -16 -144 0
v 0 -144 0
v -16 -160 0
v -32 -160 0
v -32 -144 0
v -16 -144 0
v -32 -160 0
v -48 -160 0
v -48 -144 0
v -32 -144 0
v -48 -160 0
v -64 -160 0
v -64 -144 0
v -48 -144 0
v -64 -160 0
v -80 -160 0
v -80 -144 0
v -64 -144 0
v -80 -160 0
v -96 -160 0
v -96 -144 0
v -80 -144 0
v -96 -160 0
v -112 -160 0
v -112 -144 0
v -96 -144 0
v -112 -160 0
v -128 -160 0
v -128 -144 0
v -112 -144 0
v -128 -160 0
v -144 -160 0
v -144 -144 0
v -128 -144 0
v -144 -160 0
v -160 -160 0
v -160 -144 0
v -144 -144 0
v -160 -160 0
v -176 -160 0
v -176 -144 0
v -160 -144 0
v -176 -160 0
v -192 -160 0
v -192 -144 0
v -176 -144 0
v -192 -160 0
v -208 -160 0
v -208 -144 0
v -192 -144 0
v -208 -160 0
v -224 -160 0
v -224 -144 0
v -208 -144 0
v -224 -160 0
v -240 -160 0
v -240 -144 0
v -224 -144 0
v -240 -160 0
v -256 -160 0
v -256 -144 0
v -240 -144 0
v 0 -176 0
v -16 -176 0
v -16 -160 0
v 0 -160 0
v -16 -176 0
v -32 -176 0
v -32 -160 0
v -16 -160 0
v -32 -176 0
v -48 -176 0
v -48 -160 0
v -32 -160 0
v -48 -176 0
v -64 -176 0
v -64 -160 0
v -48 -160 0
v -64 -176 0
v -80 -176 0
v -80 -160 0
v -64 -160 0
v -80 -176 0
v -96 -176 0
v -96 -160 0
v -80 -160 0
v -96 -176 0
v -112 -176 0
v -112 -160 0
v -96 -160 0
v -112 -176 0
v -128 -176 0
v -128 -160 0
v -112 -160 0
v -128 -176 0
v -144 -176 0
v -144 -160 0
v -128 -160 0
v -144 -176 0
v -160 -176 0
v -160 -160 0
v -144 -160 0
v -160 -176 0
v -176 -176 0
v -176 -160 0
v -160 -160 0
v -176 -176 0
v -192 -176 0
v -192 -160 0
v -176 -160 0
v -192 -176 0
v -208 -176 0
v -208 -160 0
v -192 -160 0
v -208 -176 0
v -224 -176 0
v -224 -160 0
v -208 -160 0
v -224 -176 0
v -240 -176 0
v -240 -160 0
v -224 -160 0
v -240 -176 0
v -256 -176 0
v -256 -160 0
v -240 -160 0
v 0 -192 0
v -16 -192 0
v -16 -176 0
v 0 -176 0
v -16 -192 0
v -32 -192 0
v -32 -176 0
v -16 -176 0
v -32 -192 0
v -48 -192 0
v -48 -176 0
v -32 -176 0
v -48 -192 0
v -64 -192 0
v -64 -176 0
v -48 -176 0
v -64 -192 0
v -80 -192 0
v -80 -176 0
v -64 -176 0
v -80 -192 0
v -96 -192 0
v -96 -176 0
v -80 -176 0
v -96 -192 0
v -112 -192 0
v -112 -176 0
v -96 -176 0
v -112 -192 0
v -128 -192 0
v -128 -176 0
v -112 -176 0
v -128 -192 0
v -144 -192 0
v -144 -176 0
v -128 -176 0
v -144 -192 0
v -160 -192 0
v -160 -176 0
v -144 -176 0
v -160 -192 0
v -176 -192 0
v -176 -176 0
v -160 -176 0
v -176 -192 0
v -192 -192 0
v -192 -176 0
v -176 -176 0
v -192 -192 0
v -208 -192 0
v -208 -176 0
v -192 -176 0
v -208 -192 0
v -224 -192 0
v -224 -176 0
v -208 -176 0
v -224 -192 0
v -240 -192 0
v -240 -176 0
v -224 -176 0
v -240 -192 0
v -256 -192 0
v -256 -176 0
v -240 -176 0
v 0 -208 0
v -16 -208 0
v -16 -192 0
v 0 -192 0
v -16 -208 0
v -32 -208 0
v -32 -192 0
v -16 -192 0
v -32 -208 0
v -48 -208 0
v -48 -192 0
v -32 -192 0
v -48 -208 0
v -64 -208 0
v -64 -192 0
v -48 -192 0
v -64 -208 0
v -80 -208 0
v -80 -192 0
v -64 -192 0
v -80 -208 0
v -96 -208 0
v -96 -192 0
v -80 -192 0
v -96 -208 0
v -112 -208 0
v -112 -192 0
v -96 -192 0
v -112 -208 0
v -128 -208 0
v -128 -192 0
v -112 -192 0
v -128 -208 0
v -144 -208 0
v -144 -192 0
v -128 -192 0
v -144 -208 0
v -160 -208 0
v -160 -192 0
v -144 -192 0
v -160 -208 0
v -176 -208 0
v -176 -192 0
v -160 -192 0
v -176 -208 0
v -192 -208 0
v -192 -192 0
v -176 -192 0
v -192 -208 0
v -208 -208 0
v -208 -192 0
v -192 -192 0
v -208 -208 0
v -224 -208 0
v -224 -192 0
v -208 -192 0
v -224 -208 0
v -240 -208 0
v -240 -192 0
v -224 -192 0
v -240 -208 0
v -256 -208 0
v -256 -192 0
v -240 -192 0
v 0 -224 0
v -16 -224 0
v -16 -208 0
v 0 -208 0
v -16 -224 0
v -32 -224 0
v -32 -208 0
v -16 -208 0
v -32 -224 0
v -48 -224 0
v -48 -208 0
v -32 -208 0
v -48 -224 0
v -64 -224 0
v -64 -208 0
v -48 -208 0
v -64 -224 0
v -80 -224 0
v -80 -208 0
v -64 -208 0
v -80 -224 0
v -96 -224 0
v -96 -208 0
v -80 -208 0
v -96 -224 0
v -112 -224 0
v -112 -208 0
v -96 -208 0
v -112 -224 0
v -128 -224 0
v -128 -208 0
v -112 -208 0
v -128 -224 0
v -144 -224 0
v -144 -208 0
v -128 -208 0
v -144 -224 0
v -160 -224 0
v -160 -208 0
v -144 -208 0
v -160 -224 0
v -176 -224 0
v -176 -208 0
v -160 -208 0
v -176 -224 0
v -192 -224 0
v -192 -208 0
v -176 -208 0
v -192 -224 0
v -208 -224 0
v -208 -208 0
v -192 -208 0
v -208 -224 0
v -224 -224 0
v -224 -208 0
v -208 -208 0
v -224 -224 0
v -240 -224 0
v -240 -208 0
v -224 -208 0
v -240 -224 0
v -256 -224 0
v -256 -208 0
v -240 -208 0
v 0 -240 0
v -16 -240 0
v -16 -224 0
v 0 -224 0
v -16 -240 0
v -32 -240 0
v -32 -224 0
v -16 -224 0
v -32 -240 0
v -48 -240 0
v -48 -224 0
v -32 -224 0
v -48 -240 0
v -64 -240 0
v -64 -224 0
v -48 -224 0
v -64 -240 0
v -80 -240 0
v -80 -224 0
v -64 -224 0
v -80 -240 0
v -96 -240 0
v -96 -224 0
v -80 -224 0
v -96 -240 0
v -112 -240 0
v -112 -224 0
v -96 -224 0
v -112 -240 0
v -128 -240 0
v -128 -224 0
v -112 -224 0
v -128 -240 0
v -144 -240 0
v -144 -224 0
v -128 -224 0
v -144 -240 0
v -160 -240 0
v -160 -224 0
v -144 -224 0
v -160 -240 0
v -176 -240 0
v -176 -224 0
v -160 -224 0
v -176 -240 0
v -192 -240 0
v -192 -224 0
v -176 -224 0
v -192 -240 0
v -208 -240 0
v -208 -224 0
v -192 -224 0
v -208 -240 0
v -224 -240 0
v -224 -224 0
v -208 -224 0
v -224 -240 0
v -240 -240 0
v -240 -224 0
v -224 -224 0
v -240 -240 0
v -256 -240 0
v -256 -224 0
v -240 -224 0
v 0 -256 0
v -16 -256 0
v -16 -240 0
v 0 -240 0
v -16 -256 0
v -32 -256 0
v -32 -240 0
v -16 -240 0
v -32 -256 0
v -48 -256 0
v -48 -240 0
v -32 -240 0
v -48 -256 0
v -64 -256 0
v -64 -240 0
v -48 -240 0
v -64 -256 0
v -80 -256 0
v -80 -240 0
v -64 -240 0
v -80 -256 0
v -96 -256 0
v -96 -240 0
v -80 -240 0
v -96 -256 0
v -112 -256 0
v -112 -240 0
v -96 -240 0
v -112 -256 0
v -128 -256 0
v -128 -240 0
v -112 -240 0
v -128 -256 0
v -144 -256 0
v -144 -240 0
v -128 -240 0
v -144 -256 0
v -160 -256 0
v -160 -240 0
v -144 -240 0
v -160 -256 0
v -176 -256 0
v -176 -240 0
v -160 -240 0
v -176 -256 0
v -192 -256 0
v -192 -240 0
v -176 -240 0
v -192 -256 0
v -208 -256 0
v -208 -240 0
v -192 -240 0
v -208 -256 0
v -224 -256 0
v -224 -240 0
v -208 -240 0
v -224 -256 0
v -240 -256 0
v -240 -240 0
v -224 -240 0
v -240 -256 0
v -256 -256 0
v -256 -240 0
v -240 -240 0

# Texture cooridinates (Count = 42)
vt 0.06382979 0.9375
vt 0.05319149 0.9375
vt 0.05319149 0.875
vt 0.06382979 0.875
vt 0.04255319 0.9375
vt 0.04255319 0.875
vt 0.1489362 0.9375
vt 0.1382979 0.9375
vt 0.1382979 0.875
vt 0.1489362 0.875
vt 0.1489362 0.3125
vt 0.1595745 0.3125
vt 0.1595745 0.375
vt 0.1489362 0.375
vt 0.1595745 0.4375
vt 0.1489362 0.4375
vt 0.1702128 0.375
vt 0.1702128 0.4375
vt 0.08510638 0.9375
vt 0.07446808 0.9375
vt 0.07446808 0.875
vt 0.08510638 0.875
vt 0.1276596 0.9375
vt 0.1276596 0.875
vt 0.1170213 0.9375
vt 0.1170213 0.875
vt 0.106383 0.9375
vt 0.106383 0.875
vt 0.06382979 1
vt 0.05319149 1
vt 0.04255319 1
vt 0.1489362 1
vt 0.1382979 1
vt 0.1276596 1
vt 0.1170213 1
vt 0.106383 1
vt 0.08510638 1
vt 0.07446808 1
vt 0.1702128 0.3125
vt 0.09574468 1
vt 0.09574468 0.9375
vt 0.09574468 0.875

# Normal
vn 0 0 -1

# Mesh description
g 2ScenarioPlataforma_mesh_0401

# Faces
f 1/1/1 2/2/1 3/3/1 4/4/1
f 5/2/1 6/5/1 7/6/1 8/3/1
f 9/7/1 10/8/1 11/9/1 12/10/1
f 13/11/1 14/12/1 15/13/1 16/14/1
f 17/11/1 18/12/1 19/13/1 20/14/1
f 21/11/1 22/12/1 23/13/1 24/14/1
f 25/14/1 26/13/1 27/15/1 28/16/1
f 29/13/1 30/17/1 31/18/1 32/15/1
f 33/19/1 34/20/1 35/21/1 36/22/1
f 37/20/1 38/1/1 39/4/1 40/21/1
f 41/1/1 42/2/1 43/3/1 44/4/1
f 45/2/1 46/5/1 47/6/1 48/3/1
f 49/7/1 50/8/1 51/9/1 52/10/1
f 53/8/1 54/23/1 55/24/1 56/9/1
f 57/23/1 58/25/1 59/26/1 60/24/1
f 61/25/1 62/27/1 63/28/1 64/26/1
f 65/29/1 66/30/1 67/2/1 68/1/1
f 69/30/1 70/31/1 71/5/1 72/2/1
f 73/32/1 74/33/1 75/8/1 76/7/1
f 77/33/1 78/34/1 79/23/1 80/8/1
f 81/34/1 82/35/1 83/25/1 84/23/1
f 85/35/1 86/36/1 87/27/1 88/25/1
f 89/14/1 90/13/1 91/15/1 92/16/1
f 93/13/1 94/17/1 95/18/1 96/15/1
f 97/37/1 98/38/1 99/20/1 100/19/1
f 101/38/1 102/29/1 103/1/1 104/20/1
f 105/29/1 106/30/1 107/2/1 108/1/1
f 109/30/1 110/31/1 111/5/1 112/2/1
f 113/32/1 114/33/1 115/8/1 116/7/1
f 117/33/1 118/34/1 119/23/1 120/8/1
f 121/34/1 122/35/1 123/25/1 124/23/1
f 125/35/1 126/36/1 127/27/1 128/25/1
f 129/1/1 130/2/1 131/3/1 132/4/1
f 133/2/1 134/5/1 135/6/1 136/3/1
f 137/7/1 138/8/1 139/9/1 140/10/1
f 141/8/1 142/23/1 143/24/1 144/9/1
f 145/23/1 146/25/1 147/26/1 148/24/1
f 149/25/1 150/27/1 151/28/1 152/26/1
f 153/11/1 154/12/1 155/13/1 156/14/1
f 157/12/1 158/39/1 159/17/1 160/13/1
f 161/19/1 162/20/1 163/21/1 164/22/1
f 165/20/1 166/1/1 167/4/1 168/21/1
f 169/1/1 170/2/1 171/3/1 172/4/1
f 173/2/1 174/5/1 175/6/1 176/3/1
f 177/7/1 178/8/1 179/9/1 180/10/1
f 181/8/1 182/23/1 183/24/1 184/9/1
f 185/23/1 186/25/1 187/26/1 188/24/1
f 189/25/1 190/27/1 191/28/1 192/26/1
f 193/29/1 194/30/1 195/2/1 196/1/1
f 197/30/1 198/31/1 199/5/1 200/2/1
f 201/32/1 202/33/1 203/8/1 204/7/1
f 205/33/1 206/34/1 207/23/1 208/8/1
f 209/34/1 210/35/1 211/25/1 212/23/1
f 213/35/1 214/36/1 215/27/1 216/25/1
f 217/36/1 218/40/1 219/41/1 220/27/1
f 221/40/1 222/37/1 223/19/1 224/41/1
f 225/37/1 226/38/1 227/20/1 228/19/1
f 229/38/1 230/29/1 231/1/1 232/20/1
f 233/29/1 234/30/1 235/2/1 236/1/1
f 237/30/1 238/31/1 239/5/1 240/2/1
f 241/32/1 242/33/1 243/8/1 244/7/1
f 245/33/1 246/34/1 247/23/1 248/8/1
f 249/34/1 250/35/1 251/25/1 252/23/1
f 253/35/1 254/36/1 255/27/1 256/25/1
f 257/1/1 258/2/1 259/3/1 260/4/1
f 261/2/1 262/5/1 263/6/1 264/3/1
f 265/7/1 266/8/1 267/9/1 268/10/1
f 269/8/1 270/23/1 271/24/1 272/9/1
f 273/23/1 274/25/1 275/26/1 276/24/1
f 277/25/1 278/27/1 279/28/1 280/26/1
f 281/27/1 282/41/1 283/42/1 284/28/1
f 285/41/1 286/19/1 287/22/1 288/42/1
f 289/19/1 290/20/1 291/21/1 292/22/1
f 293/20/1 294/1/1 295/4/1 296/21/1
f 297/1/1 298/2/1 299/3/1 300/4/1
f 301/2/1 302/5/1 303/6/1 304/3/1
f 305/7/1 306/8/1 307/9/1 308/10/1
f 309/8/1 310/23/1 311/24/1 312/9/1
f 313/23/1 314/25/1 315/26/1 316/24/1
f 317/25/1 318/27/1 319/28/1 320/26/1
f 321/29/1 322/30/1 323/2/1 324/1/1
f 325/30/1 326/31/1 327/5/1 328/2/1
f 329/32/1 330/33/1 331/8/1 332/7/1
f 333/33/1 334/34/1 335/23/1 336/8/1
f 337/34/1 338/35/1 339/25/1 340/23/1
f 341/35/1 342/36/1 343/27/1 344/25/1
f 345/36/1 346/40/1 347/41/1 348/27/1
f 349/40/1 350/37/1 351/19/1 352/41/1
f 353/37/1 354/38/1 355/20/1 356/19/1
f 357/38/1 358/29/1 359/1/1 360/20/1
f 361/29/1 362/30/1 363/2/1 364/1/1
f 365/30/1 366/31/1 367/5/1 368/2/1
f 369/32/1 370/33/1 371/8/1 372/7/1
f 373/33/1 374/34/1 375/23/1 376/8/1
f 377/34/1 378/35/1 379/25/1 380/23/1
f 381/35/1 382/36/1 383/27/1 384/25/1
f 385/1/1 386/2/1 387/3/1 388/4/1
f 389/2/1 390/5/1 391/6/1 392/3/1
f 393/7/1 394/8/1 395/9/1 396/10/1
f 397/8/1 398/23/1 399/24/1 400/9/1
f 401/23/1 402/25/1 403/26/1 404/24/1
f 405/25/1 406/27/1 407/28/1 408/26/1
f 409/27/1 410/41/1 411/42/1 412/28/1
f 413/41/1 414/19/1 415/22/1 416/42/1
f 417/19/1 418/20/1 419/21/1 420/22/1
f 421/20/1 422/1/1 423/4/1 424/21/1
f 425/1/1 426/2/1 427/3/1 428/4/1
f 429/2/1 430/5/1 431/6/1 432/3/1
f 433/7/1 434/8/1 435/9/1 436/10/1
f 437/8/1 438/23/1 439/24/1 440/9/1
f 441/23/1 442/25/1 443/26/1 444/24/1
f 445/25/1 446/27/1 447/28/1 448/26/1
f 449/29/1 450/30/1 451/2/1 452/1/1
f 453/30/1 454/31/1 455/5/1 456/2/1
f 457/32/1 458/33/1 459/8/1 460/7/1
f 461/33/1 462/34/1 463/23/1 464/8/1
f 465/34/1 466/35/1 467/25/1 468/23/1
f 469/35/1 470/36/1 471/27/1 472/25/1
f 473/36/1 474/40/1 475/41/1 476/27/1
f 477/40/1 478/37/1 479/19/1 480/41/1
f 481/37/1 482/38/1 483/20/1 484/19/1
f 485/38/1 486/29/1 487/1/1 488/20/1
f 489/29/1 490/30/1 491/2/1 492/1/1
f 493/30/1 494/31/1 495/5/1 496/2/1
f 497/32/1 498/33/1 499/8/1 500/7/1
f 501/33/1 502/34/1 503/23/1 504/8/1
f 505/34/1 506/35/1 507/25/1 508/23/1
f 509/35/1 510/36/1 511/27/1 512/25/1
f 513/1/1 514/2/1 515/3/1 516/4/1
f 517/2/1 518/5/1 519/6/1 520/3/1
f 521/7/1 522/8/1 523/9/1 524/10/1
f 525/8/1 526/23/1 527/24/1 528/9/1
f 529/23/1 530/25/1 531/26/1 532/24/1
f 533/25/1 534/27/1 535/28/1 536/26/1
f 537/27/1 538/41/1 539/42/1 540/28/1
f 541/41/1 542/19/1 543/22/1 544/42/1
f 545/19/1 546/20/1 547/21/1 548/22/1
f 549/20/1 550/1/1 551/4/1 552/21/1
f 553/1/1 554/2/1 555/3/1 556/4/1
f 557/2/1 558/5/1 559/6/1 560/3/1
f 561/7/1 562/8/1 563/9/1 564/10/1
f 565/8/1 566/23/1 567/24/1 568/9/1
f 569/23/1 570/25/1 571/26/1 572/24/1
f 573/25/1 574/27/1 575/28/1 576/26/1
f 577/29/1 578/30/1 579/2/1 580/1/1
f 581/30/1 582/31/1 583/5/1 584/2/1
f 585/32/1 586/33/1 587/8/1 588/7/1
f 589/33/1 590/34/1 591/23/1 592/8/1
f 593/34/1 594/35/1 595/25/1 596/23/1
f 597/35/1 598/36/1 599/27/1 600/25/1
f 601/36/1 602/40/1 603/41/1 604/27/1
f 605/40/1 606/37/1 607/19/1 608/41/1
f 609/37/1 610/38/1 611/20/1 612/19/1
f 613/38/1 614/29/1 615/1/1 616/20/1
f 617/29/1 618/30/1 619/2/1 620/1/1
f 621/30/1 622/31/1 623/5/1 624/2/1
f 625/32/1 626/33/1 627/8/1 628/7/1
f 629/33/1 630/34/1 631/23/1 632/8/1
f 633/34/1 634/35/1 635/25/1 636/23/1
f 637/35/1 638/36/1 639/27/1 640/25/1
f 641/1/1 642/2/1 643/3/1 644/4/1
f 645/2/1 646/5/1 647/6/1 648/3/1
f 649/7/1 650/8/1 651/9/1 652/10/1
f 653/8/1 654/23/1 655/24/1 656/9/1
f 657/23/1 658/25/1 659/26/1 660/24/1
f 661/25/1 662/27/1 663/28/1 664/26/1
f 665/27/1 666/41/1 667/42/1 668/28/1
f 669/41/1 670/19/1 671/22/1 672/42/1
f 673/19/1 674/20/1 675/21/1 676/22/1
f 677/20/1 678/1/1 679/4/1 680/21/1
f 681/1/1 682/2/1 683/3/1 684/4/1
f 685/2/1 686/5/1 687/6/1 688/3/1
f 689/7/1 690/8/1 691/9/1 692/10/1
f 693/8/1 694/23/1 695/24/1 696/9/1
f 697/23/1 698/25/1 699/26/1 700/24/1
f 701/25/1 702/27/1 703/28/1 704/26/1
f 705/29/1 706/30/1 707/2/1 708/1/1
f 709/30/1 710/31/1 711/5/1 712/2/1
f 713/32/1 714/33/1 715/8/1 716/7/1
f 717/33/1 718/34/1 719/23/1 720/8/1
f 721/34/1 722/35/1 723/25/1 724/23/1
f 725/35/1 726/36/1 727/27/1 728/25/1
f 729/36/1 730/40/1 731/41/1 732/27/1
f 733/40/1 734/37/1 735/19/1 736/41/1
f 737/37/1 738/38/1 739/20/1 740/19/1
f 741/38/1 742/29/1 743/1/1 744/20/1
f 745/29/1 746/30/1 747/2/1 748/1/1
f 749/30/1 750/31/1 751/5/1 752/2/1
f 753/32/1 754/33/1 755/8/1 756/7/1
f 757/33/1 758/34/1 759/23/1 760/8/1
f 761/34/1 762/35/1 763/25/1 764/23/1
f 765/35/1 766/36/1 767/27/1 768/25/1
f 769/1/1 770/2/1 771/3/1 772/4/1
f 773/2/1 774/5/1 775/6/1 776/3/1
f 777/7/1 778/8/1 779/9/1 780/10/1
f 781/8/1 782/23/1 783/24/1 784/9/1
f 785/23/1 786/25/1 787/26/1 788/24/1
f 789/25/1 790/27/1 791/28/1 792/26/1
f 793/27/1 794/41/1 795/42/1 796/28/1
f 797/41/1 798/19/1 799/22/1 800/42/1
f 801/19/1 802/20/1 803/21/1 804/22/1
f 805/20/1 806/1/1 807/4/1 808/21/1
f 809/1/1 810/2/1 811/3/1 812/4/1
f 813/2/1 814/5/1 815/6/1 816/3/1
f 817/7/1 818/8/1 819/9/1 820/10/1
f 821/8/1 822/23/1 823/24/1 824/9/1
f 825/23/1 826/25/1 827/26/1 828/24/1
f 829/25/1 830/27/1 831/28/1 832/26/1
f 833/29/1 834/30/1 835/2/1 836/1/1
f 837/30/1 838/31/1 839/5/1 840/2/1
f 841/32/1 842/33/1 843/8/1 844/7/1
f 845/33/1 846/34/1 847/23/1 848/8/1
f 849/34/1 850/35/1 851/25/1 852/23/1
f 853/35/1 854/36/1 855/27/1 856/25/1
f 857/36/1 858/40/1 859/41/1 860/27/1
f 861/40/1 862/37/1 863/19/1 864/41/1
f 865/37/1 866/38/1 867/20/1 868/19/1
f 869/38/1 870/29/1 871/1/1 872/20/1
f 873/29/1 874/30/1 875/2/1 876/1/1
f 877/30/1 878/31/1 879/5/1 880/2/1
f 881/32/1 882/33/1 883/8/1 884/7/1
f 885/33/1 886/34/1 887/23/1 888/8/1
f 889/34/1 890/35/1 891/25/1 892/23/1
f 893/35/1 894/36/1 895/27/1 896/25/1
f 897/1/1 898/2/1 899/3/1 900/4/1
f 901/2/1 902/5/1 903/6/1 904/3/1
f 905/7/1 906/8/1 907/9/1 908/10/1
f 909/8/1 910/23/1 911/24/1 912/9/1
f 913/23/1 914/25/1 915/26/1 916/24/1
f 917/25/1 918/27/1 919/28/1 920/26/1
f 921/27/1 922/41/1 923/42/1 924/28/1
f 925/41/1 926/19/1 927/22/1 928/42/1
f 929/19/1 930/20/1 931/21/1 932/22/1
f 933/20/1 934/1/1 935/4/1 936/21/1
f 937/1/1 938/2/1 939/3/1 940/4/1
f 941/2/1 942/5/1 943/6/1 944/3/1
f 945/7/1 946/8/1 947/9/1 948/10/1
f 949/8/1 950/23/1 951/24/1 952/9/1
f 953/23/1 954/25/1 955/26/1 956/24/1
f 957/25/1 958/27/1 959/28/1 960/26/1
f 961/29/1 962/30/1 963/2/1 964/1/1
f 965/30/1 966/31/1 967/5/1 968/2/1
f 969/32/1 970/33/1 971/8/1 972/7/1
f 973/33/1 974/34/1 975/23/1 976/8/1
f 977/34/1 978/35/1 979/25/1 980/23/1
f 981/35/1 982/36/1 983/27/1 984/25/1
f 985/36/1 986/40/1 987/41/1 988/27/1
f 989/40/1 990/37/1 991/19/1 992/41/1
f 993/37/1 994/38/1 995/20/1 996/19/1
f 997/38/1 998/29/1 999/1/1 1000/20/1
f 1001/29/1 1002/30/1 1003/2/1 1004/1/1
f 1005/30/1 1006/31/1 1007/5/1 1008/2/1
f 1009/32/1 1010/33/1 1011/8/1 1012/7/1
f 1013/33/1 1014/34/1 1015/23/1 1016/8/1
f 1017/34/1 1018/35/1 1019/25/1 1020/23/1
f 1021/35/1 1022/36/1 1023/27/1 1024/25/1

