# Tiled2Unity generated file. Do not modify by hand.
# Wavefront file for '2ScenarioPlataforma_mesh_0897.obj'

# Vertices (Count = 676)
v 0 -16 0
v -16 -16 0
v -16 0 0
v 0 0 0
v -16 -16 0
v -32 -16 0
v -32 0 0
v -16 0 0
v -32 -16 0
v -48 -16 0
v -48 0 0
v -32 0 0
v -48 -16 0
v -64 -16 0
v -64 0 0
v -48 0 0
v -64 -16 0
v -80 -16 0
v -80 0 0
v -64 0 0
v -80 -16 0
v -96 -16 0
v -96 0 0
v -80 0 0
v -96 -16 0
v -112 -16 0
v -112 0 0
v -96 0 0
v -112 -16 0
v -128 -16 0
v -128 0 0
v -112 0 0
v -128 -16 0
v -144 -16 0
v -144 0 0
v -128 0 0
v -144 -16 0
v -160 -16 0
v -160 0 0
v -144 0 0
v -160 -16 0
v -176 -16 0
v -176 0 0
v -160 0 0
v -176 -16 0
v -192 -16 0
v -192 0 0
v -176 0 0
v -192 -16 0
v -208 -16 0
v -208 0 0
v -192 0 0
v -208 -16 0
v -224 -16 0
v -224 0 0
v -208 0 0
v -224 -16 0
v -240 -16 0
v -240 0 0
v -224 0 0
v -240 -16 0
v -256 -16 0
v -256 0 0
v -240 0 0
v 0 -32 0
v -16 -32 0
v -16 -16 0
v 0 -16 0
v -16 -32 0
v -32 -32 0
v -32 -16 0
v -16 -16 0
v -32 -32 0
v -48 -32 0
v -48 -16 0
v -32 -16 0
v -48 -32 0
v -64 -32 0
v -64 -16 0
v -48 -16 0
v -64 -32 0
v -80 -32 0
v -80 -16 0
v -64 -16 0
v -80 -32 0
v -96 -32 0
v -96 -16 0
v -80 -16 0
v -96 -32 0
v -112 -32 0
v -112 -16 0
v -96 -16 0
v -112 -32 0
v -128 -32 0
v -128 -16 0
v -112 -16 0
v -128 -32 0
v -144 -32 0
v -144 -16 0
v -128 -16 0
v -144 -32 0
v -160 -32 0
v -160 -16 0
v -144 -16 0
v -160 -32 0
v -176 -32 0
v -176 -16 0
v -160 -16 0
v -176 -32 0
v -192 -32 0
v -192 -16 0
v -176 -16 0
v -192 -32 0
v -208 -32 0
v -208 -16 0
v -192 -16 0
v -208 -32 0
v -224 -32 0
v -224 -16 0
v -208 -16 0
v -224 -32 0
v -240 -32 0
v -240 -16 0
v -224 -16 0
v -240 -32 0
v -256 -32 0
v -256 -16 0
v -240 -16 0
v 0 -48 0
v -16 -48 0
v -16 -32 0
v 0 -32 0
v -16 -48 0
v -32 -48 0
v -32 -32 0
v -16 -32 0
v -32 -48 0
v -48 -48 0
v -48 -32 0
v -32 -32 0
v -48 -48 0
v -64 -48 0
v -64 -32 0
v -48 -32 0
v -64 -48 0
v -80 -48 0
v -80 -32 0
v -64 -32 0
v -80 -48 0
v -96 -48 0
v -96 -32 0
v -80 -32 0
v -96 -48 0
v -112 -48 0
v -112 -32 0
v -96 -32 0
v -112 -48 0
v -128 -48 0
v -128 -32 0
v -112 -32 0
v -128 -48 0
v -144 -48 0
v -144 -32 0
v -128 -32 0
v -144 -48 0
v -160 -48 0
v -160 -32 0
v -144 -32 0
v -160 -48 0
v -176 -48 0
v -176 -32 0
v -160 -32 0
v -176 -48 0
v -192 -48 0
v -192 -32 0
v -176 -32 0
v -192 -48 0
v -208 -48 0
v -208 -32 0
v -192 -32 0
v -208 -48 0
v -224 -48 0
v -224 -32 0
v -208 -32 0
v -224 -48 0
v -240 -48 0
v -240 -32 0
v -224 -32 0
v -240 -48 0
v -256 -48 0
v -256 -32 0
v -240 -32 0
v 0 -64 0
v -16 -64 0
v -16 -48 0
v 0 -48 0
v -16 -64 0
v -32 -64 0
v -32 -48 0
v -16 -48 0
v -32 -64 0
v -48 -64 0
v -48 -48 0
v -32 -48 0
v -48 -64 0
v -64 -64 0
v -64 -48 0
v -48 -48 0
v -64 -64 0
v -80 -64 0
v -80 -48 0
v -64 -48 0
v -80 -64 0
v -96 -64 0
v -96 -48 0
v -80 -48 0
v -96 -64 0
v -112 -64 0
v -112 -48 0
v -96 -48 0
v -112 -64 0
v -128 -64 0
v -128 -48 0
v -112 -48 0
v -128 -64 0
v -144 -64 0
v -144 -48 0
v -128 -48 0
v -144 -64 0
v -160 -64 0
v -160 -48 0
v -144 -48 0
v -160 -64 0
v -176 -64 0
v -176 -48 0
v -160 -48 0
v -176 -64 0
v -192 -64 0
v -192 -48 0
v -176 -48 0
v -192 -64 0
v -208 -64 0
v -208 -48 0
v -192 -48 0
v -208 -64 0
v -224 -64 0
v -224 -48 0
v -208 -48 0
v -224 -64 0
v -240 -64 0
v -240 -48 0
v -224 -48 0
v -240 -64 0
v -256 -64 0
v -256 -48 0
v -240 -48 0
v 0 -80 0
v -16 -80 0
v -16 -64 0
v 0 -64 0
v -16 -80 0
v -32 -80 0
v -32 -64 0
v -16 -64 0
v -32 -80 0
v -48 -80 0
v -48 -64 0
v -32 -64 0
v -48 -80 0
v -64 -80 0
v -64 -64 0
v -48 -64 0
v -64 -80 0
v -80 -80 0
v -80 -64 0
v -64 -64 0
v -80 -80 0
v -96 -80 0
v -96 -64 0
v -80 -64 0
v -96 -80 0
v -112 -80 0
v -112 -64 0
v -96 -64 0
v -112 -80 0
v -128 -80 0
v -128 -64 0
v -112 -64 0
v -128 -80 0
v -144 -80 0
v -144 -64 0
v -128 -64 0
v -144 -80 0
v -160 -80 0
v -160 -64 0
v -144 -64 0
v -160 -80 0
v -176 -80 0
v -176 -64 0
v -160 -64 0
v -176 -80 0
v -192 -80 0
v -192 -64 0
v -176 -64 0
v -192 -80 0
v -208 -80 0
v -208 -64 0
v -192 -64 0
v -208 -80 0
v -224 -80 0
v -224 -64 0
v -208 -64 0
v -224 -80 0
v -240 -80 0
v -240 -64 0
v -224 -64 0
v -240 -80 0
v -256 -80 0
v -256 -64 0
v -240 -64 0
v 0 -96 0
v -16 -96 0
v -16 -80 0
v 0 -80 0
v -16 -96 0
v -32 -96 0
v -32 -80 0
v -16 -80 0
v -32 -96 0
v -48 -96 0
v -48 -80 0
v -32 -80 0
v -48 -96 0
v -64 -96 0
v -64 -80 0
v -48 -80 0
v -64 -96 0
v -80 -96 0
v -80 -80 0
v -64 -80 0
v -80 -96 0
v -96 -96 0
v -96 -80 0
v -80 -80 0
v -96 -96 0
v -112 -96 0
v -112 -80 0
v -96 -80 0
v -112 -96 0
v -128 -96 0
v -128 -80 0
v -112 -80 0
v -128 -96 0
v -144 -96 0
v -144 -80 0
v -128 -80 0
v -144 -96 0
v -160 -96 0
v -160 -80 0
v -144 -80 0
v -160 -96 0
v -176 -96 0
v -176 -80 0
v -160 -80 0
v -176 -96 0
v -192 -96 0
v -192 -80 0
v -176 -80 0
v -192 -96 0
v -208 -96 0
v -208 -80 0
v -192 -80 0
v -208 -96 0
v -224 -96 0
v -224 -80 0
v -208 -80 0
v -224 -96 0
v -240 -96 0
v -240 -80 0
v -224 -80 0
v -240 -96 0
v -256 -96 0
v -256 -80 0
v -240 -80 0
v 0 -112 0
v -16 -112 0
v -16 -96 0
v 0 -96 0
v -16 -112 0
v -32 -112 0
v -32 -96 0
v -16 -96 0
v -32 -112 0
v -48 -112 0
v -48 -96 0
v -32 -96 0
v -48 -112 0
v -64 -112 0
v -64 -96 0
v -48 -96 0
v -64 -112 0
v -80 -112 0
v -80 -96 0
v -64 -96 0
v -80 -112 0
v -96 -112 0
v -96 -96 0
v -80 -96 0
v -96 -112 0
v -112 -112 0
v -112 -96 0
v -96 -96 0
v -112 -112 0
v -128 -112 0
v -128 -96 0
v -112 -96 0
v -128 -112 0
v -144 -112 0
v -144 -96 0
v -128 -96 0
v -144 -112 0
v -160 -112 0
v -160 -96 0
v -144 -96 0
v -160 -112 0
v -176 -112 0
v -176 -96 0
v -160 -96 0
v -176 -112 0
v -192 -112 0
v -192 -96 0
v -176 -96 0
v -192 -112 0
v -208 -112 0
v -208 -96 0
v -192 -96 0
v -208 -112 0
v -224 -112 0
v -224 -96 0
v -208 -96 0
v -224 -112 0
v -240 -112 0
v -240 -96 0
v -224 -96 0
v -240 -112 0
v -256 -112 0
v -256 -96 0
v -240 -96 0
v 0 -128 0
v -16 -128 0
v -16 -112 0
v 0 -112 0
v -16 -128 0
v -32 -128 0
v -32 -112 0
v -16 -112 0
v -32 -128 0
v -48 -128 0
v -48 -112 0
v -32 -112 0
v -48 -128 0
v -64 -128 0
v -64 -112 0
v -48 -112 0
v -64 -128 0
v -80 -128 0
v -80 -112 0
v -64 -112 0
v -80 -128 0
v -96 -128 0
v -96 -112 0
v -80 -112 0
v -96 -128 0
v -112 -128 0
v -112 -112 0
v -96 -112 0
v -112 -128 0
v -128 -128 0
v -128 -112 0
v -112 -112 0
v -128 -128 0
v -144 -128 0
v -144 -112 0
v -128 -112 0
v -144 -128 0
v -160 -128 0
v -160 -112 0
v -144 -112 0
v -160 -128 0
v -176 -128 0
v -176 -112 0
v -160 -112 0
v -176 -128 0
v -192 -128 0
v -192 -112 0
v -176 -112 0
v -192 -128 0
v -208 -128 0
v -208 -112 0
v -192 -112 0
v -208 -128 0
v -224 -128 0
v -224 -112 0
v -208 -112 0
v -224 -128 0
v -240 -128 0
v -240 -112 0
v -224 -112 0
v -240 -128 0
v -256 -128 0
v -256 -112 0
v -240 -112 0
v -80 -144 0
v -96 -144 0
v -96 -128 0
v -80 -128 0
v -96 -144 0
v -112 -144 0
v -112 -128 0
v -96 -128 0
v -112 -144 0
v -128 -144 0
v -128 -128 0
v -112 -128 0
v -128 -144 0
v -144 -144 0
v -144 -128 0
v -128 -128 0
v -144 -144 0
v -160 -144 0
v -160 -128 0
v -144 -128 0
v -160 -144 0
v -176 -144 0
v -176 -128 0
v -160 -128 0
v -176 -144 0
v -192 -144 0
v -192 -128 0
v -176 -128 0
v -192 -144 0
v -208 -144 0
v -208 -128 0
v -192 -128 0
v -208 -144 0
v -224 -144 0
v -224 -128 0
v -208 -128 0
v -224 -144 0
v -240 -144 0
v -240 -128 0
v -224 -128 0
v -240 -144 0
v -256 -144 0
v -256 -128 0
v -240 -128 0
v -96 -160 0
v -112 -160 0
v -112 -144 0
v -96 -144 0
v -112 -160 0
v -128 -160 0
v -128 -144 0
v -112 -144 0
v -128 -160 0
v -144 -160 0
v -144 -144 0
v -128 -144 0
v -144 -160 0
v -160 -160 0
v -160 -144 0
v -144 -144 0
v -160 -160 0
v -176 -160 0
v -176 -144 0
v -160 -144 0
v -176 -160 0
v -192 -160 0
v -192 -144 0
v -176 -144 0
v -192 -160 0
v -208 -160 0
v -208 -144 0
v -192 -144 0
v -208 -160 0
v -224 -160 0
v -224 -144 0
v -208 -144 0
v -224 -160 0
v -240 -160 0
v -240 -144 0
v -224 -144 0
v -240 -160 0
v -256 -160 0
v -256 -144 0
v -240 -144 0
v -128 -176 0
v -144 -176 0
v -144 -160 0
v -128 -160 0
v -144 -176 0
v -160 -176 0
v -160 -160 0
v -144 -160 0
v -160 -176 0
v -176 -176 0
v -176 -160 0
v -160 -160 0
v -176 -176 0
v -192 -176 0
v -192 -160 0
v -176 -160 0
v -192 -176 0
v -208 -176 0
v -208 -160 0
v -192 -160 0
v -208 -176 0
v -224 -176 0
v -224 -160 0
v -208 -160 0
v -224 -176 0
v -240 -176 0
v -240 -160 0
v -224 -160 0
v -240 -176 0
v -256 -176 0
v -256 -160 0
v -240 -160 0
v -144 -192 0
v -160 -192 0
v -160 -176 0
v -144 -176 0
v -160 -192 0
v -176 -192 0
v -176 -176 0
v -160 -176 0
v -176 -192 0
v -192 -192 0
v -192 -176 0
v -176 -176 0
v -192 -192 0
v -208 -192 0
v -208 -176 0
v -192 -176 0
v -208 -192 0
v -224 -192 0
v -224 -176 0
v -208 -176 0
v -224 -192 0
v -240 -192 0
v -240 -176 0
v -224 -176 0
v -240 -192 0
v -256 -192 0
v -256 -176 0
v -240 -176 0
v -176 -208 0
v -192 -208 0
v -192 -192 0
v -176 -192 0
v -192 -208 0
v -208 -208 0
v -208 -192 0
v -192 -192 0
v -208 -208 0
v -224 -208 0
v -224 -192 0
v -208 -192 0
v -224 -208 0
v -240 -208 0
v -240 -192 0
v -224 -192 0
v -240 -208 0
v -256 -208 0
v -256 -192 0
v -240 -192 0

# Texture cooridinates (Count = 62)
vt 0.606383 0.625
vt 0.6170213 0.625
vt 0.6170213 0.6875
vt 0.606383 0.6875
vt 0.6276596 0.625
vt 0.6276596 0.6875
vt 0.6382979 0.625
vt 0.6382979 0.6875
vt 0.606383 0.8125
vt 0.6170213 0.8125
vt 0.6170213 0.875
vt 0.606383 0.875
vt 0.6276596 0.8125
vt 0.6276596 0.875
vt 0.6382979 0.8125
vt 0.6382979 0.875
vt 0.606383 0.75
vt 0.6170213 0.75
vt 0.6276596 0.75
vt 0.6382979 0.75
vt 0.6702127 0.25
vt 0.6595744 0.25
vt 0.6595744 0.1875
vt 0.6702127 0.1875
vt 0.5957447 0.25
vt 0.5851064 0.25
vt 0.5851064 0.1875
vt 0.5957447 0.1875
vt 0.7127659 0.25
vt 0.7021276 0.25
vt 0.7021276 0.1875
vt 0.7127659 0.1875
vt 0.606383 0.25
vt 0.606383 0.1875
vt 0.4468085 0.6875
vt 0.4361702 0.6875
vt 0.4361702 0.625
vt 0.4468085 0.625
vt 0.393617 0.6875
vt 0.3829787 0.6875
vt 0.3829787 0.625
vt 0.393617 0.625
vt 0.6914893 0.25
vt 0.6914893 0.1875
vt 0.680851 0.25
vt 0.680851 0.1875
vt 0.5531915 0.25
vt 0.5425532 0.25
vt 0.5425532 0.1875
vt 0.5531915 0.1875
vt 0.4148936 0.6875
vt 0.4042553 0.6875
vt 0.4042553 0.625
vt 0.4148936 0.625
vt 0.6276596 0.25
vt 0.6170213 0.25
vt 0.6170213 0.1875
vt 0.6276596 0.1875
vt 0.5744681 0.25
vt 0.5638298 0.25
vt 0.5638298 0.1875
vt 0.5744681 0.1875

# Normal
vn 0 0 -1

# Mesh description
g 2ScenarioPlataforma_mesh_0897

# Faces
f 1/1/1 2/2/1 3/3/1 4/4/1
f 5/2/1 6/5/1 7/6/1 8/3/1
f 9/5/1 10/7/1 11/8/1 12/6/1
f 13/1/1 14/2/1 15/3/1 16/4/1
f 17/2/1 18/5/1 19/6/1 20/3/1
f 21/5/1 22/7/1 23/8/1 24/6/1
f 25/1/1 26/2/1 27/3/1 28/4/1
f 29/2/1 30/5/1 31/6/1 32/3/1
f 33/5/1 34/7/1 35/8/1 36/6/1
f 37/1/1 38/2/1 39/3/1 40/4/1
f 41/2/1 42/5/1 43/6/1 44/3/1
f 45/5/1 46/7/1 47/8/1 48/6/1
f 49/1/1 50/2/1 51/3/1 52/4/1
f 53/2/1 54/5/1 55/6/1 56/3/1
f 57/5/1 58/7/1 59/8/1 60/6/1
f 61/1/1 62/2/1 63/3/1 64/4/1
f 65/9/1 66/10/1 67/11/1 68/12/1
f 69/10/1 70/13/1 71/14/1 72/11/1
f 73/13/1 74/15/1 75/16/1 76/14/1
f 77/9/1 78/10/1 79/11/1 80/12/1
f 81/10/1 82/13/1 83/14/1 84/11/1
f 85/13/1 86/15/1 87/16/1 88/14/1
f 89/9/1 90/10/1 91/11/1 92/12/1
f 93/10/1 94/13/1 95/14/1 96/11/1
f 97/13/1 98/15/1 99/16/1 100/14/1
f 101/9/1 102/10/1 103/11/1 104/12/1
f 105/10/1 106/13/1 107/14/1 108/11/1
f 109/13/1 110/15/1 111/16/1 112/14/1
f 113/9/1 114/10/1 115/11/1 116/12/1
f 117/10/1 118/13/1 119/14/1 120/11/1
f 121/13/1 122/15/1 123/16/1 124/14/1
f 125/9/1 126/10/1 127/11/1 128/12/1
f 129/17/1 130/18/1 131/10/1 132/9/1
f 133/18/1 134/19/1 135/13/1 136/10/1
f 137/19/1 138/20/1 139/15/1 140/13/1
f 141/17/1 142/18/1 143/10/1 144/9/1
f 145/18/1 146/19/1 147/13/1 148/10/1
f 149/19/1 150/20/1 151/15/1 152/13/1
f 153/17/1 154/18/1 155/10/1 156/9/1
f 157/18/1 158/19/1 159/13/1 160/10/1
f 161/19/1 162/20/1 163/15/1 164/13/1
f 165/17/1 166/18/1 167/10/1 168/9/1
f 169/18/1 170/19/1 171/13/1 172/10/1
f 173/19/1 174/20/1 175/15/1 176/13/1
f 177/17/1 178/18/1 179/10/1 180/9/1
f 181/18/1 182/19/1 183/13/1 184/10/1
f 185/19/1 186/20/1 187/15/1 188/13/1
f 189/17/1 190/18/1 191/10/1 192/9/1
f 193/4/1 194/3/1 195/18/1 196/17/1
f 197/3/1 198/6/1 199/19/1 200/18/1
f 201/6/1 202/8/1 203/20/1 204/19/1
f 205/4/1 206/3/1 207/18/1 208/17/1
f 209/3/1 210/6/1 211/19/1 212/18/1
f 213/6/1 214/8/1 215/20/1 216/19/1
f 217/4/1 218/3/1 219/18/1 220/17/1
f 221/3/1 222/6/1 223/19/1 224/18/1
f 225/6/1 226/8/1 227/20/1 228/19/1
f 229/4/1 230/3/1 231/18/1 232/17/1
f 233/3/1 234/6/1 235/19/1 236/18/1
f 237/6/1 238/8/1 239/20/1 240/19/1
f 241/4/1 242/3/1 243/18/1 244/17/1
f 245/3/1 246/6/1 247/19/1 248/18/1
f 249/6/1 250/8/1 251/20/1 252/19/1
f 253/4/1 254/3/1 255/18/1 256/17/1
f 257/1/1 258/2/1 259/3/1 260/4/1
f 261/2/1 262/5/1 263/6/1 264/3/1
f 265/5/1 266/7/1 267/8/1 268/6/1
f 269/1/1 270/2/1 271/3/1 272/4/1
f 273/2/1 274/5/1 275/6/1 276/3/1
f 277/5/1 278/7/1 279/8/1 280/6/1
f 281/1/1 282/2/1 283/3/1 284/4/1
f 285/2/1 286/5/1 287/6/1 288/3/1
f 289/5/1 290/7/1 291/8/1 292/6/1
f 293/1/1 294/2/1 295/3/1 296/4/1
f 297/2/1 298/5/1 299/6/1 300/3/1
f 301/5/1 302/7/1 303/8/1 304/6/1
f 305/1/1 306/2/1 307/3/1 308/4/1
f 309/2/1 310/5/1 311/6/1 312/3/1
f 313/5/1 314/7/1 315/8/1 316/6/1
f 317/1/1 318/2/1 319/3/1 320/4/1
f 321/9/1 322/10/1 323/11/1 324/12/1
f 325/10/1 326/13/1 327/14/1 328/11/1
f 329/13/1 330/15/1 331/16/1 332/14/1
f 333/9/1 334/10/1 335/11/1 336/12/1
f 337/10/1 338/13/1 339/14/1 340/11/1
f 341/13/1 342/15/1 343/16/1 344/14/1
f 345/9/1 346/10/1 347/11/1 348/12/1
f 349/10/1 350/13/1 351/14/1 352/11/1
f 353/13/1 354/15/1 355/16/1 356/14/1
f 357/9/1 358/10/1 359/11/1 360/12/1
f 361/10/1 362/13/1 363/14/1 364/11/1
f 365/13/1 366/15/1 367/16/1 368/14/1
f 369/9/1 370/10/1 371/11/1 372/12/1
f 373/10/1 374/13/1 375/14/1 376/11/1
f 377/13/1 378/15/1 379/16/1 380/14/1
f 381/9/1 382/10/1 383/11/1 384/12/1
f 385/17/1 386/18/1 387/10/1 388/9/1
f 389/18/1 390/19/1 391/13/1 392/10/1
f 393/19/1 394/20/1 395/15/1 396/13/1
f 397/17/1 398/18/1 399/10/1 400/9/1
f 401/18/1 402/19/1 403/13/1 404/10/1
f 405/19/1 406/20/1 407/15/1 408/13/1
f 409/17/1 410/18/1 411/10/1 412/9/1
f 413/18/1 414/19/1 415/13/1 416/10/1
f 417/19/1 418/20/1 419/15/1 420/13/1
f 421/17/1 422/18/1 423/10/1 424/9/1
f 425/18/1 426/19/1 427/13/1 428/10/1
f 429/19/1 430/20/1 431/15/1 432/13/1
f 433/17/1 434/18/1 435/10/1 436/9/1
f 437/18/1 438/19/1 439/13/1 440/10/1
f 441/19/1 442/20/1 443/15/1 444/13/1
f 445/17/1 446/18/1 447/10/1 448/9/1
f 449/21/1 450/22/1 451/23/1 452/24/1
f 453/25/1 454/26/1 455/27/1 456/28/1
f 457/29/1 458/30/1 459/31/1 460/32/1
f 461/21/1 462/22/1 463/23/1 464/24/1
f 465/33/1 466/25/1 467/28/1 468/34/1
f 469/6/1 470/8/1 471/20/1 472/19/1
f 473/4/1 474/3/1 475/18/1 476/17/1
f 477/3/1 478/6/1 479/19/1 480/18/1
f 481/6/1 482/8/1 483/20/1 484/19/1
f 485/4/1 486/3/1 487/18/1 488/17/1
f 489/3/1 490/6/1 491/19/1 492/18/1
f 493/6/1 494/8/1 495/20/1 496/19/1
f 497/4/1 498/3/1 499/18/1 500/17/1
f 501/3/1 502/6/1 503/19/1 504/18/1
f 505/6/1 506/8/1 507/20/1 508/19/1
f 509/4/1 510/3/1 511/18/1 512/17/1
f 513/35/1 514/36/1 515/37/1 516/38/1
f 517/39/1 518/40/1 519/41/1 520/42/1
f 521/2/1 522/5/1 523/6/1 524/3/1
f 525/5/1 526/7/1 527/8/1 528/6/1
f 529/1/1 530/2/1 531/3/1 532/4/1
f 533/2/1 534/5/1 535/6/1 536/3/1
f 537/5/1 538/7/1 539/8/1 540/6/1
f 541/1/1 542/2/1 543/3/1 544/4/1
f 545/2/1 546/5/1 547/6/1 548/3/1
f 549/5/1 550/7/1 551/8/1 552/6/1
f 553/1/1 554/2/1 555/3/1 556/4/1
f 557/30/1 558/43/1 559/44/1 560/31/1
f 561/45/1 562/21/1 563/24/1 564/46/1
f 565/25/1 566/26/1 567/27/1 568/28/1
f 569/9/1 570/10/1 571/11/1 572/12/1
f 573/10/1 574/13/1 575/14/1 576/11/1
f 577/13/1 578/15/1 579/16/1 580/14/1
f 581/9/1 582/10/1 583/11/1 584/12/1
f 585/10/1 586/13/1 587/14/1 588/11/1
f 589/13/1 590/15/1 591/16/1 592/14/1
f 593/9/1 594/10/1 595/11/1 596/12/1
f 597/47/1 598/48/1 599/49/1 600/50/1
f 601/30/1 602/43/1 603/44/1 604/31/1
f 605/18/1 606/19/1 607/13/1 608/10/1
f 609/19/1 610/20/1 611/15/1 612/13/1
f 613/17/1 614/18/1 615/10/1 616/9/1
f 617/18/1 618/19/1 619/13/1 620/10/1
f 621/19/1 622/20/1 623/15/1 624/13/1
f 625/17/1 626/18/1 627/10/1 628/9/1
f 629/51/1 630/52/1 631/53/1 632/54/1
f 633/45/1 634/21/1 635/24/1 636/46/1
f 637/39/1 638/40/1 639/41/1 640/42/1
f 641/4/1 642/3/1 643/18/1 644/17/1
f 645/3/1 646/6/1 647/19/1 648/18/1
f 649/6/1 650/8/1 651/20/1 652/19/1
f 653/55/1 654/56/1 655/57/1 656/58/1
f 657/30/1 658/43/1 659/44/1 660/31/1
f 661/59/1 662/60/1 663/61/1 664/62/1
f 665/55/1 666/56/1 667/57/1 668/58/1
f 669/29/1 670/30/1 671/31/1 672/32/1
f 673/56/1 674/33/1 675/34/1 676/57/1

