# Tiled2Unity generated file. Do not modify by hand.
# Wavefront file for '2ScenarioPlataforma_mesh_0959.obj'

# Vertices (Count = 772)
v 0 -64 0
v -16 -64 0
v -16 -48 0
v 0 -48 0
v -16 -64 0
v -32 -64 0
v -32 -48 0
v -16 -48 0
v -32 -64 0
v -48 -64 0
v -48 -48 0
v -32 -48 0
v -48 -64 0
v -64 -64 0
v -64 -48 0
v -48 -48 0
v -64 -64 0
v -80 -64 0
v -80 -48 0
v -64 -48 0
v -80 -64 0
v -96 -64 0
v -96 -48 0
v -80 -48 0
v -96 -64 0
v -112 -64 0
v -112 -48 0
v -96 -48 0
v -112 -64 0
v -128 -64 0
v -128 -48 0
v -112 -48 0
v -128 -64 0
v -144 -64 0
v -144 -48 0
v -128 -48 0
v -144 -64 0
v -160 -64 0
v -160 -48 0
v -144 -48 0
v -160 -64 0
v -176 -64 0
v -176 -48 0
v -160 -48 0
v -176 -64 0
v -192 -64 0
v -192 -48 0
v -176 -48 0
v -192 -64 0
v -208 -64 0
v -208 -48 0
v -192 -48 0
v -208 -64 0
v -224 -64 0
v -224 -48 0
v -208 -48 0
v -224 -64 0
v -240 -64 0
v -240 -48 0
v -224 -48 0
v -240 -64 0
v -256 -64 0
v -256 -48 0
v -240 -48 0
v 0 -80 0
v -16 -80 0
v -16 -64 0
v 0 -64 0
v -16 -80 0
v -32 -80 0
v -32 -64 0
v -16 -64 0
v -32 -80 0
v -48 -80 0
v -48 -64 0
v -32 -64 0
v -48 -80 0
v -64 -80 0
v -64 -64 0
v -48 -64 0
v -64 -80 0
v -80 -80 0
v -80 -64 0
v -64 -64 0
v -80 -80 0
v -96 -80 0
v -96 -64 0
v -80 -64 0
v -96 -80 0
v -112 -80 0
v -112 -64 0
v -96 -64 0
v -112 -80 0
v -128 -80 0
v -128 -64 0
v -112 -64 0
v -128 -80 0
v -144 -80 0
v -144 -64 0
v -128 -64 0
v -144 -80 0
v -160 -80 0
v -160 -64 0
v -144 -64 0
v -160 -80 0
v -176 -80 0
v -176 -64 0
v -160 -64 0
v -176 -80 0
v -192 -80 0
v -192 -64 0
v -176 -64 0
v -192 -80 0
v -208 -80 0
v -208 -64 0
v -192 -64 0
v -208 -80 0
v -224 -80 0
v -224 -64 0
v -208 -64 0
v -224 -80 0
v -240 -80 0
v -240 -64 0
v -224 -64 0
v -240 -80 0
v -256 -80 0
v -256 -64 0
v -240 -64 0
v 0 -96 0
v -16 -96 0
v -16 -80 0
v 0 -80 0
v -16 -96 0
v -32 -96 0
v -32 -80 0
v -16 -80 0
v -32 -96 0
v -48 -96 0
v -48 -80 0
v -32 -80 0
v -48 -96 0
v -64 -96 0
v -64 -80 0
v -48 -80 0
v -64 -96 0
v -80 -96 0
v -80 -80 0
v -64 -80 0
v -80 -96 0
v -96 -96 0
v -96 -80 0
v -80 -80 0
v -96 -96 0
v -112 -96 0
v -112 -80 0
v -96 -80 0
v -112 -96 0
v -128 -96 0
v -128 -80 0
v -112 -80 0
v -128 -96 0
v -144 -96 0
v -144 -80 0
v -128 -80 0
v -144 -96 0
v -160 -96 0
v -160 -80 0
v -144 -80 0
v -160 -96 0
v -176 -96 0
v -176 -80 0
v -160 -80 0
v -176 -96 0
v -192 -96 0
v -192 -80 0
v -176 -80 0
v -192 -96 0
v -208 -96 0
v -208 -80 0
v -192 -80 0
v -208 -96 0
v -224 -96 0
v -224 -80 0
v -208 -80 0
v -224 -96 0
v -240 -96 0
v -240 -80 0
v -224 -80 0
v -240 -96 0
v -256 -96 0
v -256 -80 0
v -240 -80 0
v 0 -112 0
v -16 -112 0
v -16 -96 0
v 0 -96 0
v -16 -112 0
v -32 -112 0
v -32 -96 0
v -16 -96 0
v -32 -112 0
v -48 -112 0
v -48 -96 0
v -32 -96 0
v -48 -112 0
v -64 -112 0
v -64 -96 0
v -48 -96 0
v -64 -112 0
v -80 -112 0
v -80 -96 0
v -64 -96 0
v -80 -112 0
v -96 -112 0
v -96 -96 0
v -80 -96 0
v -96 -112 0
v -112 -112 0
v -112 -96 0
v -96 -96 0
v -112 -112 0
v -128 -112 0
v -128 -96 0
v -112 -96 0
v -128 -112 0
v -144 -112 0
v -144 -96 0
v -128 -96 0
v -144 -112 0
v -160 -112 0
v -160 -96 0
v -144 -96 0
v -160 -112 0
v -176 -112 0
v -176 -96 0
v -160 -96 0
v -176 -112 0
v -192 -112 0
v -192 -96 0
v -176 -96 0
v -192 -112 0
v -208 -112 0
v -208 -96 0
v -192 -96 0
v -208 -112 0
v -224 -112 0
v -224 -96 0
v -208 -96 0
v -224 -112 0
v -240 -112 0
v -240 -96 0
v -224 -96 0
v -240 -112 0
v -256 -112 0
v -256 -96 0
v -240 -96 0
v 0 -128 0
v -16 -128 0
v -16 -112 0
v 0 -112 0
v -16 -128 0
v -32 -128 0
v -32 -112 0
v -16 -112 0
v -32 -128 0
v -48 -128 0
v -48 -112 0
v -32 -112 0
v -48 -128 0
v -64 -128 0
v -64 -112 0
v -48 -112 0
v -64 -128 0
v -80 -128 0
v -80 -112 0
v -64 -112 0
v -80 -128 0
v -96 -128 0
v -96 -112 0
v -80 -112 0
v -96 -128 0
v -112 -128 0
v -112 -112 0
v -96 -112 0
v -112 -128 0
v -128 -128 0
v -128 -112 0
v -112 -112 0
v -128 -128 0
v -144 -128 0
v -144 -112 0
v -128 -112 0
v -144 -128 0
v -160 -128 0
v -160 -112 0
v -144 -112 0
v -160 -128 0
v -176 -128 0
v -176 -112 0
v -160 -112 0
v -176 -128 0
v -192 -128 0
v -192 -112 0
v -176 -112 0
v -192 -128 0
v -208 -128 0
v -208 -112 0
v -192 -112 0
v -208 -128 0
v -224 -128 0
v -224 -112 0
v -208 -112 0
v -224 -128 0
v -240 -128 0
v -240 -112 0
v -224 -112 0
v -240 -128 0
v -256 -128 0
v -256 -112 0
v -240 -112 0
v 0 -144 0
v -16 -144 0
v -16 -128 0
v 0 -128 0
v -16 -144 0
v -32 -144 0
v -32 -128 0
v -16 -128 0
v -32 -144 0
v -48 -144 0
v -48 -128 0
v -32 -128 0
v -48 -144 0
v -64 -144 0
v -64 -128 0
v -48 -128 0
v -64 -144 0
v -80 -144 0
v -80 -128 0
v -64 -128 0
v -80 -144 0
v -96 -144 0
v -96 -128 0
v -80 -128 0
v -96 -144 0
v -112 -144 0
v -112 -128 0
v -96 -128 0
v -112 -144 0
v -128 -144 0
v -128 -128 0
v -112 -128 0
v -128 -144 0
v -144 -144 0
v -144 -128 0
v -128 -128 0
v -144 -144 0
v -160 -144 0
v -160 -128 0
v -144 -128 0
v -160 -144 0
v -176 -144 0
v -176 -128 0
v -160 -128 0
v -176 -144 0
v -192 -144 0
v -192 -128 0
v -176 -128 0
v -192 -144 0
v -208 -144 0
v -208 -128 0
v -192 -128 0
v -208 -144 0
v -224 -144 0
v -224 -128 0
v -208 -128 0
v -224 -144 0
v -240 -144 0
v -240 -128 0
v -224 -128 0
v -240 -144 0
v -256 -144 0
v -256 -128 0
v -240 -128 0
v 0 -160 0
v -16 -160 0
v -16 -144 0
v 0 -144 0
v -16 -160 0
v -32 -160 0
v -32 -144 0
v -16 -144 0
v -32 -160 0
v -48 -160 0
v -48 -144 0
v -32 -144 0
v -48 -160 0
v -64 -160 0
v -64 -144 0
v -48 -144 0
v -64 -160 0
v -80 -160 0
v -80 -144 0
v -64 -144 0
v -80 -160 0
v -96 -160 0
v -96 -144 0
v -80 -144 0
v -96 -160 0
v -112 -160 0
v -112 -144 0
v -96 -144 0
v -112 -160 0
v -128 -160 0
v -128 -144 0
v -112 -144 0
v -128 -160 0
v -144 -160 0
v -144 -144 0
v -128 -144 0
v -144 -160 0
v -160 -160 0
v -160 -144 0
v -144 -144 0
v -160 -160 0
v -176 -160 0
v -176 -144 0
v -160 -144 0
v -176 -160 0
v -192 -160 0
v -192 -144 0
v -176 -144 0
v -192 -160 0
v -208 -160 0
v -208 -144 0
v -192 -144 0
v -208 -160 0
v -224 -160 0
v -224 -144 0
v -208 -144 0
v -224 -160 0
v -240 -160 0
v -240 -144 0
v -224 -144 0
v -240 -160 0
v -256 -160 0
v -256 -144 0
v -240 -144 0
v 0 -176 0
v -16 -176 0
v -16 -160 0
v 0 -160 0
v -16 -176 0
v -32 -176 0
v -32 -160 0
v -16 -160 0
v -32 -176 0
v -48 -176 0
v -48 -160 0
v -32 -160 0
v -48 -176 0
v -64 -176 0
v -64 -160 0
v -48 -160 0
v -64 -176 0
v -80 -176 0
v -80 -160 0
v -64 -160 0
v -80 -176 0
v -96 -176 0
v -96 -160 0
v -80 -160 0
v -96 -176 0
v -112 -176 0
v -112 -160 0
v -96 -160 0
v -112 -176 0
v -128 -176 0
v -128 -160 0
v -112 -160 0
v -128 -176 0
v -144 -176 0
v -144 -160 0
v -128 -160 0
v -144 -176 0
v -160 -176 0
v -160 -160 0
v -144 -160 0
v -160 -176 0
v -176 -176 0
v -176 -160 0
v -160 -160 0
v -176 -176 0
v -192 -176 0
v -192 -160 0
v -176 -160 0
v -192 -176 0
v -208 -176 0
v -208 -160 0
v -192 -160 0
v -208 -176 0
v -224 -176 0
v -224 -160 0
v -208 -160 0
v -224 -176 0
v -240 -176 0
v -240 -160 0
v -224 -160 0
v -240 -176 0
v -256 -176 0
v -256 -160 0
v -240 -160 0
v 0 -192 0
v -16 -192 0
v -16 -176 0
v 0 -176 0
v -16 -192 0
v -32 -192 0
v -32 -176 0
v -16 -176 0
v -32 -192 0
v -48 -192 0
v -48 -176 0
v -32 -176 0
v -48 -192 0
v -64 -192 0
v -64 -176 0
v -48 -176 0
v -64 -192 0
v -80 -192 0
v -80 -176 0
v -64 -176 0
v -80 -192 0
v -96 -192 0
v -96 -176 0
v -80 -176 0
v -96 -192 0
v -112 -192 0
v -112 -176 0
v -96 -176 0
v -112 -192 0
v -128 -192 0
v -128 -176 0
v -112 -176 0
v -128 -192 0
v -144 -192 0
v -144 -176 0
v -128 -176 0
v -144 -192 0
v -160 -192 0
v -160 -176 0
v -144 -176 0
v -160 -192 0
v -176 -192 0
v -176 -176 0
v -160 -176 0
v -176 -192 0
v -192 -192 0
v -192 -176 0
v -176 -176 0
v -192 -192 0
v -208 -192 0
v -208 -176 0
v -192 -176 0
v -208 -192 0
v -224 -192 0
v -224 -176 0
v -208 -176 0
v -224 -192 0
v -240 -192 0
v -240 -176 0
v -224 -176 0
v -240 -192 0
v -256 -192 0
v -256 -176 0
v -240 -176 0
v 0 -208 0
v -16 -208 0
v -16 -192 0
v 0 -192 0
v -16 -208 0
v -32 -208 0
v -32 -192 0
v -16 -192 0
v -32 -208 0
v -48 -208 0
v -48 -192 0
v -32 -192 0
v -48 -208 0
v -64 -208 0
v -64 -192 0
v -48 -192 0
v -64 -208 0
v -80 -208 0
v -80 -192 0
v -64 -192 0
v -80 -208 0
v -96 -208 0
v -96 -192 0
v -80 -192 0
v -96 -208 0
v -112 -208 0
v -112 -192 0
v -96 -192 0
v -112 -208 0
v -128 -208 0
v -128 -192 0
v -112 -192 0
v -128 -208 0
v -144 -208 0
v -144 -192 0
v -128 -192 0
v -144 -208 0
v -160 -208 0
v -160 -192 0
v -144 -192 0
v -160 -208 0
v -176 -208 0
v -176 -192 0
v -160 -192 0
v -176 -208 0
v -192 -208 0
v -192 -192 0
v -176 -192 0
v -192 -208 0
v -208 -208 0
v -208 -192 0
v -192 -192 0
v -208 -208 0
v -224 -208 0
v -224 -192 0
v -208 -192 0
v -224 -208 0
v -240 -208 0
v -240 -192 0
v -224 -192 0
v -240 -208 0
v -256 -208 0
v -256 -192 0
v -240 -192 0
v 0 -224 0
v -16 -224 0
v -16 -208 0
v 0 -208 0
v -16 -224 0
v -32 -224 0
v -32 -208 0
v -16 -208 0
v -32 -224 0
v -48 -224 0
v -48 -208 0
v -32 -208 0
v -48 -224 0
v -64 -224 0
v -64 -208 0
v -48 -208 0
v -64 -224 0
v -80 -224 0
v -80 -208 0
v -64 -208 0
v -80 -224 0
v -96 -224 0
v -96 -208 0
v -80 -208 0
v -96 -224 0
v -112 -224 0
v -112 -208 0
v -96 -208 0
v -112 -224 0
v -128 -224 0
v -128 -208 0
v -112 -208 0
v -128 -224 0
v -144 -224 0
v -144 -208 0
v -128 -208 0
v -144 -224 0
v -160 -224 0
v -160 -208 0
v -144 -208 0
v -160 -224 0
v -176 -224 0
v -176 -208 0
v -160 -208 0
v -176 -224 0
v -192 -224 0
v -192 -208 0
v -176 -208 0
v -192 -224 0
v -208 -224 0
v -208 -208 0
v -192 -208 0
v -208 -224 0
v -224 -224 0
v -224 -208 0
v -208 -208 0
v -224 -224 0
v -240 -224 0
v -240 -208 0
v -224 -208 0
v -240 -224 0
v -256 -224 0
v -256 -208 0
v -240 -208 0
v 0 -240 0
v -16 -240 0
v -16 -224 0
v 0 -224 0
v -16 -240 0
v -32 -240 0
v -32 -224 0
v -16 -224 0
v -32 -240 0
v -48 -240 0
v -48 -224 0
v -32 -224 0
v -48 -240 0
v -64 -240 0
v -64 -224 0
v -48 -224 0
v -64 -240 0
v -80 -240 0
v -80 -224 0
v -64 -224 0
v -80 -240 0
v -96 -240 0
v -96 -224 0
v -80 -224 0
v -96 -240 0
v -112 -240 0
v -112 -224 0
v -96 -224 0
v -112 -240 0
v -128 -240 0
v -128 -224 0
v -112 -224 0
v -128 -240 0
v -144 -240 0
v -144 -224 0
v -128 -224 0
v -144 -240 0
v -160 -240 0
v -160 -224 0
v -144 -224 0
v -160 -240 0
v -176 -240 0
v -176 -224 0
v -160 -224 0
v -176 -240 0
v -192 -240 0
v -192 -224 0
v -176 -224 0
v -192 -240 0
v -208 -240 0
v -208 -224 0
v -192 -224 0
v -208 -240 0
v -224 -240 0
v -224 -224 0
v -208 -224 0
v -224 -240 0
v -240 -240 0
v -240 -224 0
v -224 -224 0
v -240 -240 0
v -256 -240 0
v -256 -224 0
v -240 -224 0
v -144 -256 0
v -160 -256 0
v -160 -240 0
v -144 -240 0

# Texture cooridinates (Count = 70)
vt 0.5638298 0.1875
vt 0.5744681 0.1875
vt 0.5744681 0.25
vt 0.5638298 0.25
vt 0.5425532 0.1875
vt 0.5531915 0.1875
vt 0.5531915 0.25
vt 0.5425532 0.25
vt 0.3723404 0.625
vt 0.3829787 0.625
vt 0.3829787 0.6875
vt 0.3723404 0.6875
vt 0.6276596 0.1875
vt 0.6382979 0.1875
vt 0.6382979 0.25
vt 0.6276596 0.25
vt 0.4042553 0.625
vt 0.4042553 0.6875
vt 0.393617 0.6875
vt 0.393617 0.625
vt 0.680851 0.1875
vt 0.680851 0.25
vt 0.6702127 0.25
vt 0.6702127 0.1875
vt 0.6595744 0.1875
vt 0.6595744 0.25
vt 0.6489362 0.25
vt 0.6489362 0.1875
vt 0.6170213 0.25
vt 0.6170213 0.1875
vt 0.7021276 0.1875
vt 0.7021276 0.25
vt 0.6914893 0.25
vt 0.6914893 0.1875
vt 0.7127659 0.1875
vt 0.7127659 0.25
vt 0.5851064 0.1875
vt 0.5851064 0.25
vt 0.4361702 0.625
vt 0.4361702 0.6875
vt 0.4255319 0.6875
vt 0.4255319 0.625
vt 0.6170213 0.625
vt 0.6276596 0.625
vt 0.6276596 0.6875
vt 0.6170213 0.6875
vt 0.6382979 0.625
vt 0.6382979 0.6875
vt 0.606383 0.625
vt 0.606383 0.6875
vt 0.6170213 0.8125
vt 0.6276596 0.8125
vt 0.6276596 0.875
vt 0.6170213 0.875
vt 0.6382979 0.8125
vt 0.6382979 0.875
vt 0.606383 0.8125
vt 0.606383 0.875
vt 0.6170213 0.75
vt 0.6276596 0.75
vt 0.6382979 0.75
vt 0.606383 0.75
vt 0.4468085 0.625
vt 0.4468085 0.6875
vt 0.5957447 0.1875
vt 0.5957447 0.25
vt 0.4148936 0.625
vt 0.4148936 0.6875
vt 0.606383 0.25
vt 0.606383 0.1875

# Normal
vn 0 0 -1

# Mesh description
g 2ScenarioPlataforma_mesh_0959

# Faces
f 1/1/1 2/2/1 3/3/1 4/4/1
f 5/5/1 6/6/1 7/7/1 8/8/1
f 9/9/1 10/10/1 11/11/1 12/12/1
f 13/13/1 14/14/1 15/15/1 16/16/1
f 17/17/1 18/18/1 19/19/1 20/20/1
f 21/21/1 22/22/1 23/23/1 24/24/1
f 25/25/1 26/26/1 27/27/1 28/28/1
f 29/25/1 30/26/1 31/27/1 32/28/1
f 33/13/1 34/16/1 35/29/1 36/30/1
f 37/31/1 38/32/1 39/33/1 40/34/1
f 41/35/1 42/36/1 43/32/1 44/31/1
f 45/37/1 46/38/1 47/3/1 48/2/1
f 49/20/1 50/19/1 51/11/1 52/10/1
f 53/37/1 54/38/1 55/3/1 56/2/1
f 57/25/1 58/26/1 59/27/1 60/28/1
f 61/39/1 62/40/1 63/41/1 64/42/1
f 65/43/1 66/44/1 67/45/1 68/46/1
f 69/44/1 70/47/1 71/48/1 72/45/1
f 73/49/1 74/43/1 75/46/1 76/50/1
f 77/43/1 78/44/1 79/45/1 80/46/1
f 81/44/1 82/47/1 83/48/1 84/45/1
f 85/49/1 86/43/1 87/46/1 88/50/1
f 89/43/1 90/44/1 91/45/1 92/46/1
f 93/44/1 94/47/1 95/48/1 96/45/1
f 97/49/1 98/43/1 99/46/1 100/50/1
f 101/43/1 102/44/1 103/45/1 104/46/1
f 105/44/1 106/47/1 107/48/1 108/45/1
f 109/49/1 110/43/1 111/46/1 112/50/1
f 113/43/1 114/44/1 115/45/1 116/46/1
f 117/44/1 118/47/1 119/48/1 120/45/1
f 121/49/1 122/43/1 123/46/1 124/50/1
f 125/43/1 126/44/1 127/45/1 128/46/1
f 129/51/1 130/52/1 131/53/1 132/54/1
f 133/52/1 134/55/1 135/56/1 136/53/1
f 137/57/1 138/51/1 139/54/1 140/58/1
f 141/51/1 142/52/1 143/53/1 144/54/1
f 145/52/1 146/55/1 147/56/1 148/53/1
f 149/57/1 150/51/1 151/54/1 152/58/1
f 153/51/1 154/52/1 155/53/1 156/54/1
f 157/52/1 158/55/1 159/56/1 160/53/1
f 161/57/1 162/51/1 163/54/1 164/58/1
f 165/51/1 166/52/1 167/53/1 168/54/1
f 169/52/1 170/55/1 171/56/1 172/53/1
f 173/57/1 174/51/1 175/54/1 176/58/1
f 177/51/1 178/52/1 179/53/1 180/54/1
f 181/52/1 182/55/1 183/56/1 184/53/1
f 185/57/1 186/51/1 187/54/1 188/58/1
f 189/51/1 190/52/1 191/53/1 192/54/1
f 193/59/1 194/60/1 195/52/1 196/51/1
f 197/60/1 198/61/1 199/55/1 200/52/1
f 201/62/1 202/59/1 203/51/1 204/57/1
f 205/59/1 206/60/1 207/52/1 208/51/1
f 209/60/1 210/61/1 211/55/1 212/52/1
f 213/62/1 214/59/1 215/51/1 216/57/1
f 217/59/1 218/60/1 219/52/1 220/51/1
f 221/60/1 222/61/1 223/55/1 224/52/1
f 225/62/1 226/59/1 227/51/1 228/57/1
f 229/59/1 230/60/1 231/52/1 232/51/1
f 233/60/1 234/61/1 235/55/1 236/52/1
f 237/62/1 238/59/1 239/51/1 240/57/1
f 241/59/1 242/60/1 243/52/1 244/51/1
f 245/60/1 246/61/1 247/55/1 248/52/1
f 249/62/1 250/59/1 251/51/1 252/57/1
f 253/59/1 254/60/1 255/52/1 256/51/1
f 257/46/1 258/45/1 259/60/1 260/59/1
f 261/45/1 262/48/1 263/61/1 264/60/1
f 265/50/1 266/46/1 267/59/1 268/62/1
f 269/46/1 270/45/1 271/60/1 272/59/1
f 273/45/1 274/48/1 275/61/1 276/60/1
f 277/50/1 278/46/1 279/59/1 280/62/1
f 281/46/1 282/45/1 283/60/1 284/59/1
f 285/45/1 286/48/1 287/61/1 288/60/1
f 289/50/1 290/46/1 291/59/1 292/62/1
f 293/46/1 294/45/1 295/60/1 296/59/1
f 297/45/1 298/48/1 299/61/1 300/60/1
f 301/50/1 302/46/1 303/59/1 304/62/1
f 305/46/1 306/45/1 307/60/1 308/59/1
f 309/45/1 310/48/1 311/61/1 312/60/1
f 313/50/1 314/46/1 315/59/1 316/62/1
f 317/46/1 318/45/1 319/60/1 320/59/1
f 321/43/1 322/44/1 323/45/1 324/46/1
f 325/44/1 326/47/1 327/48/1 328/45/1
f 329/49/1 330/43/1 331/46/1 332/50/1
f 333/43/1 334/44/1 335/45/1 336/46/1
f 337/44/1 338/47/1 339/48/1 340/45/1
f 341/49/1 342/43/1 343/46/1 344/50/1
f 345/43/1 346/44/1 347/45/1 348/46/1
f 349/44/1 350/47/1 351/48/1 352/45/1
f 353/49/1 354/43/1 355/46/1 356/50/1
f 357/43/1 358/44/1 359/45/1 360/46/1
f 361/44/1 362/47/1 363/48/1 364/45/1
f 365/49/1 366/43/1 367/46/1 368/50/1
f 369/43/1 370/44/1 371/45/1 372/46/1
f 373/44/1 374/47/1 375/48/1 376/45/1
f 377/49/1 378/43/1 379/46/1 380/50/1
f 381/43/1 382/44/1 383/45/1 384/46/1
f 385/51/1 386/52/1 387/53/1 388/54/1
f 389/52/1 390/55/1 391/56/1 392/53/1
f 393/57/1 394/51/1 395/54/1 396/58/1
f 397/51/1 398/52/1 399/53/1 400/54/1
f 401/52/1 402/55/1 403/56/1 404/53/1
f 405/57/1 406/51/1 407/54/1 408/58/1
f 409/51/1 410/52/1 411/53/1 412/54/1
f 413/52/1 414/55/1 415/56/1 416/53/1
f 417/57/1 418/51/1 419/54/1 420/58/1
f 421/51/1 422/52/1 423/53/1 424/54/1
f 425/52/1 426/55/1 427/56/1 428/53/1
f 429/57/1 430/51/1 431/54/1 432/58/1
f 433/51/1 434/52/1 435/53/1 436/54/1
f 437/52/1 438/55/1 439/56/1 440/53/1
f 441/57/1 442/51/1 443/54/1 444/58/1
f 445/51/1 446/52/1 447/53/1 448/54/1
f 449/59/1 450/60/1 451/52/1 452/51/1
f 453/60/1 454/61/1 455/55/1 456/52/1
f 457/62/1 458/59/1 459/51/1 460/57/1
f 461/59/1 462/60/1 463/52/1 464/51/1
f 465/60/1 466/61/1 467/55/1 468/52/1
f 469/62/1 470/59/1 471/51/1 472/57/1
f 473/59/1 474/60/1 475/52/1 476/51/1
f 477/60/1 478/61/1 479/55/1 480/52/1
f 481/62/1 482/59/1 483/51/1 484/57/1
f 485/59/1 486/60/1 487/52/1 488/51/1
f 489/60/1 490/61/1 491/55/1 492/52/1
f 493/62/1 494/59/1 495/51/1 496/57/1
f 497/59/1 498/60/1 499/52/1 500/51/1
f 501/60/1 502/61/1 503/55/1 504/52/1
f 505/62/1 506/59/1 507/51/1 508/57/1
f 509/59/1 510/60/1 511/52/1 512/51/1
f 513/46/1 514/45/1 515/60/1 516/59/1
f 517/45/1 518/48/1 519/61/1 520/60/1
f 521/50/1 522/46/1 523/59/1 524/62/1
f 525/46/1 526/45/1 527/60/1 528/59/1
f 529/45/1 530/48/1 531/61/1 532/60/1
f 533/50/1 534/46/1 535/59/1 536/62/1
f 537/46/1 538/45/1 539/60/1 540/59/1
f 541/45/1 542/48/1 543/61/1 544/60/1
f 545/50/1 546/46/1 547/59/1 548/62/1
f 549/46/1 550/45/1 551/60/1 552/59/1
f 553/45/1 554/48/1 555/61/1 556/60/1
f 557/50/1 558/46/1 559/59/1 560/62/1
f 561/46/1 562/45/1 563/60/1 564/59/1
f 565/45/1 566/48/1 567/61/1 568/60/1
f 569/50/1 570/46/1 571/59/1 572/62/1
f 573/46/1 574/45/1 575/60/1 576/59/1
f 577/43/1 578/44/1 579/45/1 580/46/1
f 581/44/1 582/47/1 583/48/1 584/45/1
f 585/49/1 586/43/1 587/46/1 588/50/1
f 589/43/1 590/44/1 591/45/1 592/46/1
f 593/44/1 594/47/1 595/48/1 596/45/1
f 597/49/1 598/43/1 599/46/1 600/50/1
f 601/43/1 602/44/1 603/45/1 604/46/1
f 605/44/1 606/47/1 607/48/1 608/45/1
f 609/49/1 610/43/1 611/46/1 612/50/1
f 613/43/1 614/44/1 615/45/1 616/46/1
f 617/44/1 618/47/1 619/48/1 620/45/1
f 621/49/1 622/43/1 623/46/1 624/50/1
f 625/43/1 626/44/1 627/45/1 628/46/1
f 629/44/1 630/47/1 631/48/1 632/45/1
f 633/49/1 634/43/1 635/46/1 636/50/1
f 637/43/1 638/44/1 639/45/1 640/46/1
f 641/51/1 642/52/1 643/53/1 644/54/1
f 645/52/1 646/55/1 647/56/1 648/53/1
f 649/57/1 650/51/1 651/54/1 652/58/1
f 653/51/1 654/52/1 655/53/1 656/54/1
f 657/52/1 658/55/1 659/56/1 660/53/1
f 661/57/1 662/51/1 663/54/1 664/58/1
f 665/51/1 666/52/1 667/53/1 668/54/1
f 669/52/1 670/55/1 671/56/1 672/53/1
f 673/57/1 674/51/1 675/54/1 676/58/1
f 677/51/1 678/52/1 679/53/1 680/54/1
f 681/52/1 682/55/1 683/56/1 684/53/1
f 685/57/1 686/51/1 687/54/1 688/58/1
f 689/51/1 690/52/1 691/53/1 692/54/1
f 693/52/1 694/55/1 695/56/1 696/53/1
f 697/57/1 698/51/1 699/54/1 700/58/1
f 701/51/1 702/52/1 703/53/1 704/54/1
f 705/21/1 706/34/1 707/33/1 708/22/1
f 709/39/1 710/63/1 711/64/1 712/40/1
f 713/14/1 714/28/1 715/27/1 716/15/1
f 717/37/1 718/65/1 719/66/1 720/38/1
f 721/67/1 722/42/1 723/41/1 724/68/1
f 725/13/1 726/14/1 727/15/1 728/16/1
f 729/28/1 730/25/1 731/26/1 732/27/1
f 733/21/1 734/34/1 735/33/1 736/22/1
f 737/28/1 738/25/1 739/26/1 740/27/1
f 741/63/1 742/64/1 743/40/1 744/39/1
f 745/28/1 746/27/1 747/15/1 748/14/1
f 749/37/1 750/38/1 751/3/1 752/2/1
f 753/10/1 754/11/1 755/12/1 756/9/1
f 757/30/1 758/29/1 759/69/1 760/70/1
f 761/1/1 762/4/1 763/7/1 764/6/1
f 765/42/1 766/41/1 767/68/1 768/67/1
f 769/13/1 770/16/1 771/29/1 772/30/1

