# Tiled2Unity generated file. Do not modify by hand.
# Wavefront file for '2ScenarioPlataforma_mesh_0912.obj'

# Vertices (Count = 584)
v 0 -16 0
v -16 -16 0
v -16 0 0
v 0 0 0
v -16 -16 0
v -32 -16 0
v -32 0 0
v -16 0 0
v -32 -16 0
v -48 -16 0
v -48 0 0
v -32 0 0
v 0 -32 0
v -16 -32 0
v -16 -16 0
v 0 -16 0
v -16 -32 0
v -32 -32 0
v -32 -16 0
v -16 -16 0
v -32 -32 0
v -48 -32 0
v -48 -16 0
v -32 -16 0
v 0 -48 0
v -16 -48 0
v -16 -32 0
v 0 -32 0
v -16 -48 0
v -32 -48 0
v -32 -32 0
v -16 -32 0
v 0 -64 0
v -16 -64 0
v -16 -48 0
v 0 -48 0
v -16 -64 0
v -32 -64 0
v -32 -48 0
v -16 -48 0
v 0 -80 0
v -16 -80 0
v -16 -64 0
v 0 -64 0
v -16 -80 0
v -32 -80 0
v -32 -64 0
v -16 -64 0
v 0 -96 0
v -16 -96 0
v -16 -80 0
v 0 -80 0
v -16 -96 0
v -32 -96 0
v -32 -80 0
v -16 -80 0
v 0 -112 0
v -16 -112 0
v -16 -96 0
v 0 -96 0
v -16 -112 0
v -32 -112 0
v -32 -96 0
v -16 -96 0
v 0 -128 0
v -16 -128 0
v -16 -112 0
v 0 -112 0
v -16 -128 0
v -32 -128 0
v -32 -112 0
v -16 -112 0
v 0 -144 0
v -16 -144 0
v -16 -128 0
v 0 -128 0
v -16 -144 0
v -32 -144 0
v -32 -128 0
v -16 -128 0
v -32 -144 0
v -48 -144 0
v -48 -128 0
v -32 -128 0
v -48 -144 0
v -64 -144 0
v -64 -128 0
v -48 -128 0
v -64 -144 0
v -80 -144 0
v -80 -128 0
v -64 -128 0
v -80 -144 0
v -96 -144 0
v -96 -128 0
v -80 -128 0
v -96 -144 0
v -112 -144 0
v -112 -128 0
v -96 -128 0
v -112 -144 0
v -128 -144 0
v -128 -128 0
v -112 -128 0
v -128 -144 0
v -144 -144 0
v -144 -128 0
v -128 -128 0
v -144 -144 0
v -160 -144 0
v -160 -128 0
v -144 -128 0
v -160 -144 0
v -176 -144 0
v -176 -128 0
v -160 -128 0
v -176 -144 0
v -192 -144 0
v -192 -128 0
v -176 -128 0
v -192 -144 0
v -208 -144 0
v -208 -128 0
v -192 -128 0
v -208 -144 0
v -224 -144 0
v -224 -128 0
v -208 -128 0
v -224 -144 0
v -240 -144 0
v -240 -128 0
v -224 -128 0
v -240 -144 0
v -256 -144 0
v -256 -128 0
v -240 -128 0
v 0 -160 0
v -16 -160 0
v -16 -144 0
v 0 -144 0
v -16 -160 0
v -32 -160 0
v -32 -144 0
v -16 -144 0
v -32 -160 0
v -48 -160 0
v -48 -144 0
v -32 -144 0
v -48 -160 0
v -64 -160 0
v -64 -144 0
v -48 -144 0
v -64 -160 0
v -80 -160 0
v -80 -144 0
v -64 -144 0
v -80 -160 0
v -96 -160 0
v -96 -144 0
v -80 -144 0
v -96 -160 0
v -112 -160 0
v -112 -144 0
v -96 -144 0
v -112 -160 0
v -128 -160 0
v -128 -144 0
v -112 -144 0
v -128 -160 0
v -144 -160 0
v -144 -144 0
v -128 -144 0
v -144 -160 0
v -160 -160 0
v -160 -144 0
v -144 -144 0
v -160 -160 0
v -176 -160 0
v -176 -144 0
v -160 -144 0
v -176 -160 0
v -192 -160 0
v -192 -144 0
v -176 -144 0
v -192 -160 0
v -208 -160 0
v -208 -144 0
v -192 -144 0
v -208 -160 0
v -224 -160 0
v -224 -144 0
v -208 -144 0
v -224 -160 0
v -240 -160 0
v -240 -144 0
v -224 -144 0
v -240 -160 0
v -256 -160 0
v -256 -144 0
v -240 -144 0
v 0 -176 0
v -16 -176 0
v -16 -160 0
v 0 -160 0
v -16 -176 0
v -32 -176 0
v -32 -160 0
v -16 -160 0
v -32 -176 0
v -48 -176 0
v -48 -160 0
v -32 -160 0
v -48 -176 0
v -64 -176 0
v -64 -160 0
v -48 -160 0
v -64 -176 0
v -80 -176 0
v -80 -160 0
v -64 -160 0
v -80 -176 0
v -96 -176 0
v -96 -160 0
v -80 -160 0
v -96 -176 0
v -112 -176 0
v -112 -160 0
v -96 -160 0
v -112 -176 0
v -128 -176 0
v -128 -160 0
v -112 -160 0
v -128 -176 0
v -144 -176 0
v -144 -160 0
v -128 -160 0
v -144 -176 0
v -160 -176 0
v -160 -160 0
v -144 -160 0
v -160 -176 0
v -176 -176 0
v -176 -160 0
v -160 -160 0
v -176 -176 0
v -192 -176 0
v -192 -160 0
v -176 -160 0
v -192 -176 0
v -208 -176 0
v -208 -160 0
v -192 -160 0
v -208 -176 0
v -224 -176 0
v -224 -160 0
v -208 -160 0
v -224 -176 0
v -240 -176 0
v -240 -160 0
v -224 -160 0
v -240 -176 0
v -256 -176 0
v -256 -160 0
v -240 -160 0
v 0 -192 0
v -16 -192 0
v -16 -176 0
v 0 -176 0
v -16 -192 0
v -32 -192 0
v -32 -176 0
v -16 -176 0
v -32 -192 0
v -48 -192 0
v -48 -176 0
v -32 -176 0
v -48 -192 0
v -64 -192 0
v -64 -176 0
v -48 -176 0
v -64 -192 0
v -80 -192 0
v -80 -176 0
v -64 -176 0
v -80 -192 0
v -96 -192 0
v -96 -176 0
v -80 -176 0
v -96 -192 0
v -112 -192 0
v -112 -176 0
v -96 -176 0
v -112 -192 0
v -128 -192 0
v -128 -176 0
v -112 -176 0
v -128 -192 0
v -144 -192 0
v -144 -176 0
v -128 -176 0
v -144 -192 0
v -160 -192 0
v -160 -176 0
v -144 -176 0
v -160 -192 0
v -176 -192 0
v -176 -176 0
v -160 -176 0
v -176 -192 0
v -192 -192 0
v -192 -176 0
v -176 -176 0
v -192 -192 0
v -208 -192 0
v -208 -176 0
v -192 -176 0
v -208 -192 0
v -224 -192 0
v -224 -176 0
v -208 -176 0
v -224 -192 0
v -240 -192 0
v -240 -176 0
v -224 -176 0
v -240 -192 0
v -256 -192 0
v -256 -176 0
v -240 -176 0
v 0 -208 0
v -16 -208 0
v -16 -192 0
v 0 -192 0
v -16 -208 0
v -32 -208 0
v -32 -192 0
v -16 -192 0
v -32 -208 0
v -48 -208 0
v -48 -192 0
v -32 -192 0
v -48 -208 0
v -64 -208 0
v -64 -192 0
v -48 -192 0
v -64 -208 0
v -80 -208 0
v -80 -192 0
v -64 -192 0
v -80 -208 0
v -96 -208 0
v -96 -192 0
v -80 -192 0
v -96 -208 0
v -112 -208 0
v -112 -192 0
v -96 -192 0
v -112 -208 0
v -128 -208 0
v -128 -192 0
v -112 -192 0
v -128 -208 0
v -144 -208 0
v -144 -192 0
v -128 -192 0
v -144 -208 0
v -160 -208 0
v -160 -192 0
v -144 -192 0
v -160 -208 0
v -176 -208 0
v -176 -192 0
v -160 -192 0
v -176 -208 0
v -192 -208 0
v -192 -192 0
v -176 -192 0
v -192 -208 0
v -208 -208 0
v -208 -192 0
v -192 -192 0
v -208 -208 0
v -224 -208 0
v -224 -192 0
v -208 -192 0
v -224 -208 0
v -240 -208 0
v -240 -192 0
v -224 -192 0
v -240 -208 0
v -256 -208 0
v -256 -192 0
v -240 -192 0
v 0 -224 0
v -16 -224 0
v -16 -208 0
v 0 -208 0
v -16 -224 0
v -32 -224 0
v -32 -208 0
v -16 -208 0
v -32 -224 0
v -48 -224 0
v -48 -208 0
v -32 -208 0
v -48 -224 0
v -64 -224 0
v -64 -208 0
v -48 -208 0
v -64 -224 0
v -80 -224 0
v -80 -208 0
v -64 -208 0
v -80 -224 0
v -96 -224 0
v -96 -208 0
v -80 -208 0
v -96 -224 0
v -112 -224 0
v -112 -208 0
v -96 -208 0
v -112 -224 0
v -128 -224 0
v -128 -208 0
v -112 -208 0
v -128 -224 0
v -144 -224 0
v -144 -208 0
v -128 -208 0
v -144 -224 0
v -160 -224 0
v -160 -208 0
v -144 -208 0
v -160 -224 0
v -176 -224 0
v -176 -208 0
v -160 -208 0
v -176 -224 0
v -192 -224 0
v -192 -208 0
v -176 -208 0
v -192 -224 0
v -208 -224 0
v -208 -208 0
v -192 -208 0
v -208 -224 0
v -224 -224 0
v -224 -208 0
v -208 -208 0
v -224 -224 0
v -240 -224 0
v -240 -208 0
v -224 -208 0
v -240 -224 0
v -256 -224 0
v -256 -208 0
v -240 -208 0
v 0 -240 0
v -16 -240 0
v -16 -224 0
v 0 -224 0
v -16 -240 0
v -32 -240 0
v -32 -224 0
v -16 -224 0
v -32 -240 0
v -48 -240 0
v -48 -224 0
v -32 -224 0
v -48 -240 0
v -64 -240 0
v -64 -224 0
v -48 -224 0
v -64 -240 0
v -80 -240 0
v -80 -224 0
v -64 -224 0
v -80 -240 0
v -96 -240 0
v -96 -224 0
v -80 -224 0
v -96 -240 0
v -112 -240 0
v -112 -224 0
v -96 -224 0
v -112 -240 0
v -128 -240 0
v -128 -224 0
v -112 -224 0
v -128 -240 0
v -144 -240 0
v -144 -224 0
v -128 -224 0
v -144 -240 0
v -160 -240 0
v -160 -224 0
v -144 -224 0
v -160 -240 0
v -176 -240 0
v -176 -224 0
v -160 -224 0
v -176 -240 0
v -192 -240 0
v -192 -224 0
v -176 -224 0
v -192 -240 0
v -208 -240 0
v -208 -224 0
v -192 -224 0
v -208 -240 0
v -224 -240 0
v -224 -224 0
v -208 -224 0
v -224 -240 0
v -240 -240 0
v -240 -224 0
v -224 -224 0
v -240 -240 0
v -256 -240 0
v -256 -224 0
v -240 -224 0
v 0 -256 0
v -16 -256 0
v -16 -240 0
v 0 -240 0
v -16 -256 0
v -32 -256 0
v -32 -240 0
v -16 -240 0
v -32 -256 0
v -48 -256 0
v -48 -240 0
v -32 -240 0
v -48 -256 0
v -64 -256 0
v -64 -240 0
v -48 -240 0
v -64 -256 0
v -80 -256 0
v -80 -240 0
v -64 -240 0
v -80 -256 0
v -96 -256 0
v -96 -240 0
v -80 -240 0
v -96 -256 0
v -112 -256 0
v -112 -240 0
v -96 -240 0
v -112 -256 0
v -128 -256 0
v -128 -240 0
v -112 -240 0
v -128 -256 0
v -144 -256 0
v -144 -240 0
v -128 -240 0
v -144 -256 0
v -160 -256 0
v -160 -240 0
v -144 -240 0
v -160 -256 0
v -176 -256 0
v -176 -240 0
v -160 -240 0
v -176 -256 0
v -192 -256 0
v -192 -240 0
v -176 -240 0
v -192 -256 0
v -208 -256 0
v -208 -240 0
v -192 -240 0
v -208 -256 0
v -224 -256 0
v -224 -240 0
v -208 -240 0
v -224 -256 0
v -240 -256 0
v -240 -240 0
v -224 -240 0
v -240 -256 0
v -256 -256 0
v -256 -240 0
v -240 -240 0

# Texture cooridinates (Count = 58)
vt 0.6170213 0.625
vt 0.6276596 0.625
vt 0.6276596 0.6875
vt 0.6170213 0.6875
vt 0.6382979 0.625
vt 0.6382979 0.6875
vt 0.3617021 0.125
vt 0.3617021 0.1875
vt 0.3510638 0.1875
vt 0.3510638 0.125
vt 0.3829787 0.125
vt 0.3829787 0.1875
vt 0.3723404 0.1875
vt 0.3723404 0.125
vt 0.3191489 0.125
vt 0.3191489 0.1875
vt 0.3085106 0.1875
vt 0.3085106 0.125
vt 0.3829787 0.625
vt 0.3829787 0.6875
vt 0.3723404 0.6875
vt 0.3723404 0.625
vt 0.4468085 0.625
vt 0.4468085 0.6875
vt 0.4361702 0.6875
vt 0.4361702 0.625
vt 0.393617 0.125
vt 0.393617 0.1875
vt 0.4255319 0.625
vt 0.4255319 0.6875
vt 0.4148936 0.6875
vt 0.4148936 0.625
vt 0.3297872 0.125
vt 0.3297872 0.1875
vt 0.393617 0.625
vt 0.393617 0.6875
vt 0.2978723 0.125
vt 0.2978723 0.1875
vt 0.3404255 0.125
vt 0.3404255 0.1875
vt 0.4574468 0.625
vt 0.4680851 0.625
vt 0.4680851 0.6875
vt 0.4574468 0.6875
vt 0.6276596 0.8125
vt 0.6382979 0.8125
vt 0.6382979 0.875
vt 0.6276596 0.875
vt 0.606383 0.8125
vt 0.6170213 0.8125
vt 0.6170213 0.875
vt 0.606383 0.875
vt 0.6276596 0.75
vt 0.6382979 0.75
vt 0.606383 0.75
vt 0.6170213 0.75
vt 0.606383 0.6875
vt 0.606383 0.625

# Normal
vn 0 0 -1

# Mesh description
g 2ScenarioPlataforma_mesh_0912

# Faces
f 1/1/1 2/2/1 3/3/1 4/4/1
f 5/2/1 6/5/1 7/6/1 8/3/1
f 9/7/1 10/8/1 11/9/1 12/10/1
f 13/2/1 14/5/1 15/6/1 16/3/1
f 17/11/1 18/12/1 19/13/1 20/14/1
f 21/15/1 22/16/1 23/17/1 24/18/1
f 25/2/1 26/5/1 27/6/1 28/3/1
f 29/19/1 30/20/1 31/21/1 32/22/1
f 33/2/1 34/5/1 35/6/1 36/3/1
f 37/23/1 38/24/1 39/25/1 40/26/1
f 41/2/1 42/5/1 43/6/1 44/3/1
f 45/27/1 46/28/1 47/12/1 48/11/1
f 49/2/1 50/5/1 51/6/1 52/3/1
f 53/19/1 54/20/1 55/21/1 56/22/1
f 57/2/1 58/5/1 59/6/1 60/3/1
f 61/29/1 62/30/1 63/31/1 64/32/1
f 65/2/1 66/5/1 67/6/1 68/3/1
f 69/33/1 70/34/1 71/16/1 72/15/1
f 73/2/1 74/5/1 75/6/1 76/3/1
f 77/19/1 78/35/1 79/36/1 80/20/1
f 81/22/1 82/19/1 83/20/1 84/21/1
f 85/37/1 86/18/1 87/17/1 88/38/1
f 89/10/1 90/7/1 91/8/1 92/9/1
f 93/33/1 94/39/1 95/40/1 96/34/1
f 97/7/1 98/14/1 99/13/1 100/8/1
f 101/29/1 102/26/1 103/25/1 104/30/1
f 105/37/1 106/18/1 107/17/1 108/38/1
f 109/41/1 110/42/1 111/43/1 112/44/1
f 113/7/1 114/14/1 115/13/1 116/8/1
f 117/26/1 118/23/1 119/24/1 120/25/1
f 121/19/1 122/35/1 123/36/1 124/20/1
f 125/26/1 126/23/1 127/24/1 128/25/1
f 129/19/1 130/35/1 131/36/1 132/20/1
f 133/29/1 134/26/1 135/25/1 136/30/1
f 137/45/1 138/46/1 139/47/1 140/48/1
f 141/49/1 142/50/1 143/51/1 144/52/1
f 145/49/1 146/50/1 147/51/1 148/52/1
f 149/49/1 150/50/1 151/51/1 152/52/1
f 153/49/1 154/50/1 155/51/1 156/52/1
f 157/49/1 158/50/1 159/51/1 160/52/1
f 161/49/1 162/50/1 163/51/1 164/52/1
f 165/49/1 166/50/1 167/51/1 168/52/1
f 169/49/1 170/50/1 171/51/1 172/52/1
f 173/49/1 174/50/1 175/51/1 176/52/1
f 177/49/1 178/50/1 179/51/1 180/52/1
f 181/49/1 182/50/1 183/51/1 184/52/1
f 185/49/1 186/50/1 187/51/1 188/52/1
f 189/49/1 190/50/1 191/51/1 192/52/1
f 193/49/1 194/50/1 195/51/1 196/52/1
f 197/49/1 198/50/1 199/51/1 200/52/1
f 201/53/1 202/54/1 203/46/1 204/45/1
f 205/55/1 206/56/1 207/50/1 208/49/1
f 209/55/1 210/56/1 211/50/1 212/49/1
f 213/55/1 214/56/1 215/50/1 216/49/1
f 217/55/1 218/56/1 219/50/1 220/49/1
f 221/55/1 222/56/1 223/50/1 224/49/1
f 225/55/1 226/56/1 227/50/1 228/49/1
f 229/55/1 230/56/1 231/50/1 232/49/1
f 233/55/1 234/56/1 235/50/1 236/49/1
f 237/55/1 238/56/1 239/50/1 240/49/1
f 241/55/1 242/56/1 243/50/1 244/49/1
f 245/55/1 246/56/1 247/50/1 248/49/1
f 249/55/1 250/56/1 251/50/1 252/49/1
f 253/55/1 254/56/1 255/50/1 256/49/1
f 257/55/1 258/56/1 259/50/1 260/49/1
f 261/55/1 262/56/1 263/50/1 264/49/1
f 265/3/1 266/6/1 267/54/1 268/53/1
f 269/57/1 270/4/1 271/56/1 272/55/1
f 273/57/1 274/4/1 275/56/1 276/55/1
f 277/57/1 278/4/1 279/56/1 280/55/1
f 281/57/1 282/4/1 283/56/1 284/55/1
f 285/57/1 286/4/1 287/56/1 288/55/1
f 289/57/1 290/4/1 291/56/1 292/55/1
f 293/57/1 294/4/1 295/56/1 296/55/1
f 297/57/1 298/4/1 299/56/1 300/55/1
f 301/57/1 302/4/1 303/56/1 304/55/1
f 305/57/1 306/4/1 307/56/1 308/55/1
f 309/57/1 310/4/1 311/56/1 312/55/1
f 313/57/1 314/4/1 315/56/1 316/55/1
f 317/57/1 318/4/1 319/56/1 320/55/1
f 321/57/1 322/4/1 323/56/1 324/55/1
f 325/57/1 326/4/1 327/56/1 328/55/1
f 329/2/1 330/5/1 331/6/1 332/3/1
f 333/58/1 334/1/1 335/4/1 336/57/1
f 337/58/1 338/1/1 339/4/1 340/57/1
f 341/58/1 342/1/1 343/4/1 344/57/1
f 345/58/1 346/1/1 347/4/1 348/57/1
f 349/58/1 350/1/1 351/4/1 352/57/1
f 353/58/1 354/1/1 355/4/1 356/57/1
f 357/58/1 358/1/1 359/4/1 360/57/1
f 361/58/1 362/1/1 363/4/1 364/57/1
f 365/58/1 366/1/1 367/4/1 368/57/1
f 369/58/1 370/1/1 371/4/1 372/57/1
f 373/58/1 374/1/1 375/4/1 376/57/1
f 377/58/1 378/1/1 379/4/1 380/57/1
f 381/58/1 382/1/1 383/4/1 384/57/1
f 385/58/1 386/1/1 387/4/1 388/57/1
f 389/58/1 390/1/1 391/4/1 392/57/1
f 393/2/1 394/5/1 395/6/1 396/3/1
f 397/49/1 398/50/1 399/51/1 400/52/1
f 401/50/1 402/45/1 403/48/1 404/51/1
f 405/45/1 406/46/1 407/47/1 408/48/1
f 409/49/1 410/50/1 411/51/1 412/52/1
f 413/50/1 414/45/1 415/48/1 416/51/1
f 417/45/1 418/46/1 419/47/1 420/48/1
f 421/49/1 422/50/1 423/51/1 424/52/1
f 425/50/1 426/45/1 427/48/1 428/51/1
f 429/45/1 430/46/1 431/47/1 432/48/1
f 433/49/1 434/50/1 435/51/1 436/52/1
f 437/50/1 438/45/1 439/48/1 440/51/1
f 441/45/1 442/46/1 443/47/1 444/48/1
f 445/49/1 446/50/1 447/51/1 448/52/1
f 449/50/1 450/45/1 451/48/1 452/51/1
f 453/45/1 454/46/1 455/47/1 456/48/1
f 457/53/1 458/54/1 459/46/1 460/45/1
f 461/55/1 462/56/1 463/50/1 464/49/1
f 465/56/1 466/53/1 467/45/1 468/50/1
f 469/53/1 470/54/1 471/46/1 472/45/1
f 473/55/1 474/56/1 475/50/1 476/49/1
f 477/56/1 478/53/1 479/45/1 480/50/1
f 481/53/1 482/54/1 483/46/1 484/45/1
f 485/55/1 486/56/1 487/50/1 488/49/1
f 489/56/1 490/53/1 491/45/1 492/50/1
f 493/53/1 494/54/1 495/46/1 496/45/1
f 497/55/1 498/56/1 499/50/1 500/49/1
f 501/56/1 502/53/1 503/45/1 504/50/1
f 505/53/1 506/54/1 507/46/1 508/45/1
f 509/55/1 510/56/1 511/50/1 512/49/1
f 513/56/1 514/53/1 515/45/1 516/50/1
f 517/53/1 518/54/1 519/46/1 520/45/1
f 521/3/1 522/6/1 523/54/1 524/53/1
f 525/57/1 526/4/1 527/56/1 528/55/1
f 529/4/1 530/3/1 531/53/1 532/56/1
f 533/3/1 534/6/1 535/54/1 536/53/1
f 537/57/1 538/4/1 539/56/1 540/55/1
f 541/4/1 542/3/1 543/53/1 544/56/1
f 545/3/1 546/6/1 547/54/1 548/53/1
f 549/57/1 550/4/1 551/56/1 552/55/1
f 553/4/1 554/3/1 555/53/1 556/56/1
f 557/3/1 558/6/1 559/54/1 560/53/1
f 561/57/1 562/4/1 563/56/1 564/55/1
f 565/4/1 566/3/1 567/53/1 568/56/1
f 569/3/1 570/6/1 571/54/1 572/53/1
f 573/57/1 574/4/1 575/56/1 576/55/1
f 577/4/1 578/3/1 579/53/1 580/56/1
f 581/3/1 582/6/1 583/54/1 584/53/1

