# Tiled2Unity generated file. Do not modify by hand.
# Wavefront file for '2ScenarioPlataforma_mesh_0971.obj'

# Vertices (Count = 1024)
v 0 -16 0
v -16 -16 0
v -16 0 0
v 0 0 0
v -16 -16 0
v -32 -16 0
v -32 0 0
v -16 0 0
v -32 -16 0
v -48 -16 0
v -48 0 0
v -32 0 0
v -48 -16 0
v -64 -16 0
v -64 0 0
v -48 0 0
v -64 -16 0
v -80 -16 0
v -80 0 0
v -64 0 0
v -80 -16 0
v -96 -16 0
v -96 0 0
v -80 0 0
v -96 -16 0
v -112 -16 0
v -112 0 0
v -96 0 0
v -112 -16 0
v -128 -16 0
v -128 0 0
v -112 0 0
v -128 -16 0
v -144 -16 0
v -144 0 0
v -128 0 0
v -144 -16 0
v -160 -16 0
v -160 0 0
v -144 0 0
v -160 -16 0
v -176 -16 0
v -176 0 0
v -160 0 0
v -176 -16 0
v -192 -16 0
v -192 0 0
v -176 0 0
v -192 -16 0
v -208 -16 0
v -208 0 0
v -192 0 0
v -208 -16 0
v -224 -16 0
v -224 0 0
v -208 0 0
v -224 -16 0
v -240 -16 0
v -240 0 0
v -224 0 0
v -240 -16 0
v -256 -16 0
v -256 0 0
v -240 0 0
v 0 -32 0
v -16 -32 0
v -16 -16 0
v 0 -16 0
v -16 -32 0
v -32 -32 0
v -32 -16 0
v -16 -16 0
v -32 -32 0
v -48 -32 0
v -48 -16 0
v -32 -16 0
v -48 -32 0
v -64 -32 0
v -64 -16 0
v -48 -16 0
v -64 -32 0
v -80 -32 0
v -80 -16 0
v -64 -16 0
v -80 -32 0
v -96 -32 0
v -96 -16 0
v -80 -16 0
v -96 -32 0
v -112 -32 0
v -112 -16 0
v -96 -16 0
v -112 -32 0
v -128 -32 0
v -128 -16 0
v -112 -16 0
v -128 -32 0
v -144 -32 0
v -144 -16 0
v -128 -16 0
v -144 -32 0
v -160 -32 0
v -160 -16 0
v -144 -16 0
v -160 -32 0
v -176 -32 0
v -176 -16 0
v -160 -16 0
v -176 -32 0
v -192 -32 0
v -192 -16 0
v -176 -16 0
v -192 -32 0
v -208 -32 0
v -208 -16 0
v -192 -16 0
v -208 -32 0
v -224 -32 0
v -224 -16 0
v -208 -16 0
v -224 -32 0
v -240 -32 0
v -240 -16 0
v -224 -16 0
v -240 -32 0
v -256 -32 0
v -256 -16 0
v -240 -16 0
v 0 -48 0
v -16 -48 0
v -16 -32 0
v 0 -32 0
v -16 -48 0
v -32 -48 0
v -32 -32 0
v -16 -32 0
v -32 -48 0
v -48 -48 0
v -48 -32 0
v -32 -32 0
v -48 -48 0
v -64 -48 0
v -64 -32 0
v -48 -32 0
v -64 -48 0
v -80 -48 0
v -80 -32 0
v -64 -32 0
v -80 -48 0
v -96 -48 0
v -96 -32 0
v -80 -32 0
v -96 -48 0
v -112 -48 0
v -112 -32 0
v -96 -32 0
v -112 -48 0
v -128 -48 0
v -128 -32 0
v -112 -32 0
v -128 -48 0
v -144 -48 0
v -144 -32 0
v -128 -32 0
v -144 -48 0
v -160 -48 0
v -160 -32 0
v -144 -32 0
v -160 -48 0
v -176 -48 0
v -176 -32 0
v -160 -32 0
v -176 -48 0
v -192 -48 0
v -192 -32 0
v -176 -32 0
v -192 -48 0
v -208 -48 0
v -208 -32 0
v -192 -32 0
v -208 -48 0
v -224 -48 0
v -224 -32 0
v -208 -32 0
v -224 -48 0
v -240 -48 0
v -240 -32 0
v -224 -32 0
v -240 -48 0
v -256 -48 0
v -256 -32 0
v -240 -32 0
v 0 -64 0
v -16 -64 0
v -16 -48 0
v 0 -48 0
v -16 -64 0
v -32 -64 0
v -32 -48 0
v -16 -48 0
v -32 -64 0
v -48 -64 0
v -48 -48 0
v -32 -48 0
v -48 -64 0
v -64 -64 0
v -64 -48 0
v -48 -48 0
v -64 -64 0
v -80 -64 0
v -80 -48 0
v -64 -48 0
v -80 -64 0
v -96 -64 0
v -96 -48 0
v -80 -48 0
v -96 -64 0
v -112 -64 0
v -112 -48 0
v -96 -48 0
v -112 -64 0
v -128 -64 0
v -128 -48 0
v -112 -48 0
v -128 -64 0
v -144 -64 0
v -144 -48 0
v -128 -48 0
v -144 -64 0
v -160 -64 0
v -160 -48 0
v -144 -48 0
v -160 -64 0
v -176 -64 0
v -176 -48 0
v -160 -48 0
v -176 -64 0
v -192 -64 0
v -192 -48 0
v -176 -48 0
v -192 -64 0
v -208 -64 0
v -208 -48 0
v -192 -48 0
v -208 -64 0
v -224 -64 0
v -224 -48 0
v -208 -48 0
v -224 -64 0
v -240 -64 0
v -240 -48 0
v -224 -48 0
v -240 -64 0
v -256 -64 0
v -256 -48 0
v -240 -48 0
v 0 -80 0
v -16 -80 0
v -16 -64 0
v 0 -64 0
v -16 -80 0
v -32 -80 0
v -32 -64 0
v -16 -64 0
v -32 -80 0
v -48 -80 0
v -48 -64 0
v -32 -64 0
v -48 -80 0
v -64 -80 0
v -64 -64 0
v -48 -64 0
v -64 -80 0
v -80 -80 0
v -80 -64 0
v -64 -64 0
v -80 -80 0
v -96 -80 0
v -96 -64 0
v -80 -64 0
v -96 -80 0
v -112 -80 0
v -112 -64 0
v -96 -64 0
v -112 -80 0
v -128 -80 0
v -128 -64 0
v -112 -64 0
v -128 -80 0
v -144 -80 0
v -144 -64 0
v -128 -64 0
v -144 -80 0
v -160 -80 0
v -160 -64 0
v -144 -64 0
v -160 -80 0
v -176 -80 0
v -176 -64 0
v -160 -64 0
v -176 -80 0
v -192 -80 0
v -192 -64 0
v -176 -64 0
v -192 -80 0
v -208 -80 0
v -208 -64 0
v -192 -64 0
v -208 -80 0
v -224 -80 0
v -224 -64 0
v -208 -64 0
v -224 -80 0
v -240 -80 0
v -240 -64 0
v -224 -64 0
v -240 -80 0
v -256 -80 0
v -256 -64 0
v -240 -64 0
v 0 -96 0
v -16 -96 0
v -16 -80 0
v 0 -80 0
v -16 -96 0
v -32 -96 0
v -32 -80 0
v -16 -80 0
v -32 -96 0
v -48 -96 0
v -48 -80 0
v -32 -80 0
v -48 -96 0
v -64 -96 0
v -64 -80 0
v -48 -80 0
v -64 -96 0
v -80 -96 0
v -80 -80 0
v -64 -80 0
v -80 -96 0
v -96 -96 0
v -96 -80 0
v -80 -80 0
v -96 -96 0
v -112 -96 0
v -112 -80 0
v -96 -80 0
v -112 -96 0
v -128 -96 0
v -128 -80 0
v -112 -80 0
v -128 -96 0
v -144 -96 0
v -144 -80 0
v -128 -80 0
v -144 -96 0
v -160 -96 0
v -160 -80 0
v -144 -80 0
v -160 -96 0
v -176 -96 0
v -176 -80 0
v -160 -80 0
v -176 -96 0
v -192 -96 0
v -192 -80 0
v -176 -80 0
v -192 -96 0
v -208 -96 0
v -208 -80 0
v -192 -80 0
v -208 -96 0
v -224 -96 0
v -224 -80 0
v -208 -80 0
v -224 -96 0
v -240 -96 0
v -240 -80 0
v -224 -80 0
v -240 -96 0
v -256 -96 0
v -256 -80 0
v -240 -80 0
v 0 -112 0
v -16 -112 0
v -16 -96 0
v 0 -96 0
v -16 -112 0
v -32 -112 0
v -32 -96 0
v -16 -96 0
v -32 -112 0
v -48 -112 0
v -48 -96 0
v -32 -96 0
v -48 -112 0
v -64 -112 0
v -64 -96 0
v -48 -96 0
v -64 -112 0
v -80 -112 0
v -80 -96 0
v -64 -96 0
v -80 -112 0
v -96 -112 0
v -96 -96 0
v -80 -96 0
v -96 -112 0
v -112 -112 0
v -112 -96 0
v -96 -96 0
v -112 -112 0
v -128 -112 0
v -128 -96 0
v -112 -96 0
v -128 -112 0
v -144 -112 0
v -144 -96 0
v -128 -96 0
v -144 -112 0
v -160 -112 0
v -160 -96 0
v -144 -96 0
v -160 -112 0
v -176 -112 0
v -176 -96 0
v -160 -96 0
v -176 -112 0
v -192 -112 0
v -192 -96 0
v -176 -96 0
v -192 -112 0
v -208 -112 0
v -208 -96 0
v -192 -96 0
v -208 -112 0
v -224 -112 0
v -224 -96 0
v -208 -96 0
v -224 -112 0
v -240 -112 0
v -240 -96 0
v -224 -96 0
v -240 -112 0
v -256 -112 0
v -256 -96 0
v -240 -96 0
v 0 -128 0
v -16 -128 0
v -16 -112 0
v 0 -112 0
v -16 -128 0
v -32 -128 0
v -32 -112 0
v -16 -112 0
v -32 -128 0
v -48 -128 0
v -48 -112 0
v -32 -112 0
v -48 -128 0
v -64 -128 0
v -64 -112 0
v -48 -112 0
v -64 -128 0
v -80 -128 0
v -80 -112 0
v -64 -112 0
v -80 -128 0
v -96 -128 0
v -96 -112 0
v -80 -112 0
v -96 -128 0
v -112 -128 0
v -112 -112 0
v -96 -112 0
v -112 -128 0
v -128 -128 0
v -128 -112 0
v -112 -112 0
v -128 -128 0
v -144 -128 0
v -144 -112 0
v -128 -112 0
v -144 -128 0
v -160 -128 0
v -160 -112 0
v -144 -112 0
v -160 -128 0
v -176 -128 0
v -176 -112 0
v -160 -112 0
v -176 -128 0
v -192 -128 0
v -192 -112 0
v -176 -112 0
v -192 -128 0
v -208 -128 0
v -208 -112 0
v -192 -112 0
v -208 -128 0
v -224 -128 0
v -224 -112 0
v -208 -112 0
v -224 -128 0
v -240 -128 0
v -240 -112 0
v -224 -112 0
v -240 -128 0
v -256 -128 0
v -256 -112 0
v -240 -112 0
v 0 -144 0
v -16 -144 0
v -16 -128 0
v 0 -128 0
v -16 -144 0
v -32 -144 0
v -32 -128 0
v -16 -128 0
v -32 -144 0
v -48 -144 0
v -48 -128 0
v -32 -128 0
v -48 -144 0
v -64 -144 0
v -64 -128 0
v -48 -128 0
v -64 -144 0
v -80 -144 0
v -80 -128 0
v -64 -128 0
v -80 -144 0
v -96 -144 0
v -96 -128 0
v -80 -128 0
v -96 -144 0
v -112 -144 0
v -112 -128 0
v -96 -128 0
v -112 -144 0
v -128 -144 0
v -128 -128 0
v -112 -128 0
v -128 -144 0
v -144 -144 0
v -144 -128 0
v -128 -128 0
v -144 -144 0
v -160 -144 0
v -160 -128 0
v -144 -128 0
v -160 -144 0
v -176 -144 0
v -176 -128 0
v -160 -128 0
v -176 -144 0
v -192 -144 0
v -192 -128 0
v -176 -128 0
v -192 -144 0
v -208 -144 0
v -208 -128 0
v -192 -128 0
v -208 -144 0
v -224 -144 0
v -224 -128 0
v -208 -128 0
v -224 -144 0
v -240 -144 0
v -240 -128 0
v -224 -128 0
v -240 -144 0
v -256 -144 0
v -256 -128 0
v -240 -128 0
v 0 -160 0
v -16 -160 0
v -16 -144 0
v 0 -144 0
v -16 -160 0
v -32 -160 0
v -32 -144 0
v -16 -144 0
v -32 -160 0
v -48 -160 0
v -48 -144 0
v -32 -144 0
v -48 -160 0
v -64 -160 0
v -64 -144 0
v -48 -144 0
v -64 -160 0
v -80 -160 0
v -80 -144 0
v -64 -144 0
v -80 -160 0
v -96 -160 0
v -96 -144 0
v -80 -144 0
v -96 -160 0
v -112 -160 0
v -112 -144 0
v -96 -144 0
v -112 -160 0
v -128 -160 0
v -128 -144 0
v -112 -144 0
v -128 -160 0
v -144 -160 0
v -144 -144 0
v -128 -144 0
v -144 -160 0
v -160 -160 0
v -160 -144 0
v -144 -144 0
v -160 -160 0
v -176 -160 0
v -176 -144 0
v -160 -144 0
v -176 -160 0
v -192 -160 0
v -192 -144 0
v -176 -144 0
v -192 -160 0
v -208 -160 0
v -208 -144 0
v -192 -144 0
v -208 -160 0
v -224 -160 0
v -224 -144 0
v -208 -144 0
v -224 -160 0
v -240 -160 0
v -240 -144 0
v -224 -144 0
v -240 -160 0
v -256 -160 0
v -256 -144 0
v -240 -144 0
v 0 -176 0
v -16 -176 0
v -16 -160 0
v 0 -160 0
v -16 -176 0
v -32 -176 0
v -32 -160 0
v -16 -160 0
v -32 -176 0
v -48 -176 0
v -48 -160 0
v -32 -160 0
v -48 -176 0
v -64 -176 0
v -64 -160 0
v -48 -160 0
v -64 -176 0
v -80 -176 0
v -80 -160 0
v -64 -160 0
v -80 -176 0
v -96 -176 0
v -96 -160 0
v -80 -160 0
v -96 -176 0
v -112 -176 0
v -112 -160 0
v -96 -160 0
v -112 -176 0
v -128 -176 0
v -128 -160 0
v -112 -160 0
v -128 -176 0
v -144 -176 0
v -144 -160 0
v -128 -160 0
v -144 -176 0
v -160 -176 0
v -160 -160 0
v -144 -160 0
v -160 -176 0
v -176 -176 0
v -176 -160 0
v -160 -160 0
v -176 -176 0
v -192 -176 0
v -192 -160 0
v -176 -160 0
v -192 -176 0
v -208 -176 0
v -208 -160 0
v -192 -160 0
v -208 -176 0
v -224 -176 0
v -224 -160 0
v -208 -160 0
v -224 -176 0
v -240 -176 0
v -240 -160 0
v -224 -160 0
v -240 -176 0
v -256 -176 0
v -256 -160 0
v -240 -160 0
v 0 -192 0
v -16 -192 0
v -16 -176 0
v 0 -176 0
v -16 -192 0
v -32 -192 0
v -32 -176 0
v -16 -176 0
v -32 -192 0
v -48 -192 0
v -48 -176 0
v -32 -176 0
v -48 -192 0
v -64 -192 0
v -64 -176 0
v -48 -176 0
v -64 -192 0
v -80 -192 0
v -80 -176 0
v -64 -176 0
v -80 -192 0
v -96 -192 0
v -96 -176 0
v -80 -176 0
v -96 -192 0
v -112 -192 0
v -112 -176 0
v -96 -176 0
v -112 -192 0
v -128 -192 0
v -128 -176 0
v -112 -176 0
v -128 -192 0
v -144 -192 0
v -144 -176 0
v -128 -176 0
v -144 -192 0
v -160 -192 0
v -160 -176 0
v -144 -176 0
v -160 -192 0
v -176 -192 0
v -176 -176 0
v -160 -176 0
v -176 -192 0
v -192 -192 0
v -192 -176 0
v -176 -176 0
v -192 -192 0
v -208 -192 0
v -208 -176 0
v -192 -176 0
v -208 -192 0
v -224 -192 0
v -224 -176 0
v -208 -176 0
v -224 -192 0
v -240 -192 0
v -240 -176 0
v -224 -176 0
v -240 -192 0
v -256 -192 0
v -256 -176 0
v -240 -176 0
v 0 -208 0
v -16 -208 0
v -16 -192 0
v 0 -192 0
v -16 -208 0
v -32 -208 0
v -32 -192 0
v -16 -192 0
v -32 -208 0
v -48 -208 0
v -48 -192 0
v -32 -192 0
v -48 -208 0
v -64 -208 0
v -64 -192 0
v -48 -192 0
v -64 -208 0
v -80 -208 0
v -80 -192 0
v -64 -192 0
v -80 -208 0
v -96 -208 0
v -96 -192 0
v -80 -192 0
v -96 -208 0
v -112 -208 0
v -112 -192 0
v -96 -192 0
v -112 -208 0
v -128 -208 0
v -128 -192 0
v -112 -192 0
v -128 -208 0
v -144 -208 0
v -144 -192 0
v -128 -192 0
v -144 -208 0
v -160 -208 0
v -160 -192 0
v -144 -192 0
v -160 -208 0
v -176 -208 0
v -176 -192 0
v -160 -192 0
v -176 -208 0
v -192 -208 0
v -192 -192 0
v -176 -192 0
v -192 -208 0
v -208 -208 0
v -208 -192 0
v -192 -192 0
v -208 -208 0
v -224 -208 0
v -224 -192 0
v -208 -192 0
v -224 -208 0
v -240 -208 0
v -240 -192 0
v -224 -192 0
v -240 -208 0
v -256 -208 0
v -256 -192 0
v -240 -192 0
v 0 -224 0
v -16 -224 0
v -16 -208 0
v 0 -208 0
v -16 -224 0
v -32 -224 0
v -32 -208 0
v -16 -208 0
v -32 -224 0
v -48 -224 0
v -48 -208 0
v -32 -208 0
v -48 -224 0
v -64 -224 0
v -64 -208 0
v -48 -208 0
v -64 -224 0
v -80 -224 0
v -80 -208 0
v -64 -208 0
v -80 -224 0
v -96 -224 0
v -96 -208 0
v -80 -208 0
v -96 -224 0
v -112 -224 0
v -112 -208 0
v -96 -208 0
v -112 -224 0
v -128 -224 0
v -128 -208 0
v -112 -208 0
v -128 -224 0
v -144 -224 0
v -144 -208 0
v -128 -208 0
v -144 -224 0
v -160 -224 0
v -160 -208 0
v -144 -208 0
v -160 -224 0
v -176 -224 0
v -176 -208 0
v -160 -208 0
v -176 -224 0
v -192 -224 0
v -192 -208 0
v -176 -208 0
v -192 -224 0
v -208 -224 0
v -208 -208 0
v -192 -208 0
v -208 -224 0
v -224 -224 0
v -224 -208 0
v -208 -208 0
v -224 -224 0
v -240 -224 0
v -240 -208 0
v -224 -208 0
v -240 -224 0
v -256 -224 0
v -256 -208 0
v -240 -208 0
v 0 -240 0
v -16 -240 0
v -16 -224 0
v 0 -224 0
v -16 -240 0
v -32 -240 0
v -32 -224 0
v -16 -224 0
v -32 -240 0
v -48 -240 0
v -48 -224 0
v -32 -224 0
v -48 -240 0
v -64 -240 0
v -64 -224 0
v -48 -224 0
v -64 -240 0
v -80 -240 0
v -80 -224 0
v -64 -224 0
v -80 -240 0
v -96 -240 0
v -96 -224 0
v -80 -224 0
v -96 -240 0
v -112 -240 0
v -112 -224 0
v -96 -224 0
v -112 -240 0
v -128 -240 0
v -128 -224 0
v -112 -224 0
v -128 -240 0
v -144 -240 0
v -144 -224 0
v -128 -224 0
v -144 -240 0
v -160 -240 0
v -160 -224 0
v -144 -224 0
v -160 -240 0
v -176 -240 0
v -176 -224 0
v -160 -224 0
v -176 -240 0
v -192 -240 0
v -192 -224 0
v -176 -224 0
v -192 -240 0
v -208 -240 0
v -208 -224 0
v -192 -224 0
v -208 -240 0
v -224 -240 0
v -224 -224 0
v -208 -224 0
v -224 -240 0
v -240 -240 0
v -240 -224 0
v -224 -224 0
v -240 -240 0
v -256 -240 0
v -256 -224 0
v -240 -224 0
v 0 -256 0
v -16 -256 0
v -16 -240 0
v 0 -240 0
v -16 -256 0
v -32 -256 0
v -32 -240 0
v -16 -240 0
v -32 -256 0
v -48 -256 0
v -48 -240 0
v -32 -240 0
v -48 -256 0
v -64 -256 0
v -64 -240 0
v -48 -240 0
v -64 -256 0
v -80 -256 0
v -80 -240 0
v -64 -240 0
v -80 -256 0
v -96 -256 0
v -96 -240 0
v -80 -240 0
v -96 -256 0
v -112 -256 0
v -112 -240 0
v -96 -240 0
v -112 -256 0
v -128 -256 0
v -128 -240 0
v -112 -240 0
v -128 -256 0
v -144 -256 0
v -144 -240 0
v -128 -240 0
v -144 -256 0
v -160 -256 0
v -160 -240 0
v -144 -240 0
v -160 -256 0
v -176 -256 0
v -176 -240 0
v -160 -240 0
v -176 -256 0
v -192 -256 0
v -192 -240 0
v -176 -240 0
v -192 -256 0
v -208 -256 0
v -208 -240 0
v -192 -240 0
v -208 -256 0
v -224 -256 0
v -224 -240 0
v -208 -240 0
v -224 -256 0
v -240 -256 0
v -240 -240 0
v -224 -240 0
v -240 -256 0
v -256 -256 0
v -256 -240 0
v -240 -240 0

# Texture cooridinates (Count = 20)
vt 0.606383 0.75
vt 0.6170213 0.75
vt 0.6170213 0.8125
vt 0.606383 0.8125
vt 0.6170213 0.875
vt 0.606383 0.875
vt 0.606383 0.6875
vt 0.6170213 0.6875
vt 0.606383 0.625
vt 0.6170213 0.625
vt 0.6276596 0.8125
vt 0.6276596 0.875
vt 0.6382979 0.8125
vt 0.6382979 0.875
vt 0.6276596 0.75
vt 0.6382979 0.75
vt 0.6276596 0.6875
vt 0.6382979 0.6875
vt 0.6276596 0.625
vt 0.6382979 0.625

# Normal
vn 0 0 -1

# Mesh description
g 2ScenarioPlataforma_mesh_0971

# Faces
f 1/1/1 2/2/1 3/3/1 4/4/1
f 5/1/1 6/2/1 7/3/1 8/4/1
f 9/1/1 10/2/1 11/3/1 12/4/1
f 13/1/1 14/2/1 15/3/1 16/4/1
f 17/1/1 18/2/1 19/3/1 20/4/1
f 21/1/1 22/2/1 23/3/1 24/4/1
f 25/1/1 26/2/1 27/3/1 28/4/1
f 29/1/1 30/2/1 31/3/1 32/4/1
f 33/1/1 34/2/1 35/3/1 36/4/1
f 37/1/1 38/2/1 39/3/1 40/4/1
f 41/1/1 42/2/1 43/3/1 44/4/1
f 45/1/1 46/2/1 47/3/1 48/4/1
f 49/1/1 50/2/1 51/3/1 52/4/1
f 53/1/1 54/2/1 55/3/1 56/4/1
f 57/1/1 58/2/1 59/3/1 60/4/1
f 61/1/1 62/2/1 63/3/1 64/4/1
f 65/4/1 66/3/1 67/5/1 68/6/1
f 69/4/1 70/3/1 71/5/1 72/6/1
f 73/4/1 74/3/1 75/5/1 76/6/1
f 77/4/1 78/3/1 79/5/1 80/6/1
f 81/4/1 82/3/1 83/5/1 84/6/1
f 85/4/1 86/3/1 87/5/1 88/6/1
f 89/4/1 90/3/1 91/5/1 92/6/1
f 93/4/1 94/3/1 95/5/1 96/6/1
f 97/4/1 98/3/1 99/5/1 100/6/1
f 101/4/1 102/3/1 103/5/1 104/6/1
f 105/4/1 106/3/1 107/5/1 108/6/1
f 109/4/1 110/3/1 111/5/1 112/6/1
f 113/4/1 114/3/1 115/5/1 116/6/1
f 117/4/1 118/3/1 119/5/1 120/6/1
f 121/4/1 122/3/1 123/5/1 124/6/1
f 125/4/1 126/3/1 127/5/1 128/6/1
f 129/1/1 130/2/1 131/3/1 132/4/1
f 133/1/1 134/2/1 135/3/1 136/4/1
f 137/1/1 138/2/1 139/3/1 140/4/1
f 141/1/1 142/2/1 143/3/1 144/4/1
f 145/1/1 146/2/1 147/3/1 148/4/1
f 149/1/1 150/2/1 151/3/1 152/4/1
f 153/1/1 154/2/1 155/3/1 156/4/1
f 157/1/1 158/2/1 159/3/1 160/4/1
f 161/1/1 162/2/1 163/3/1 164/4/1
f 165/1/1 166/2/1 167/3/1 168/4/1
f 169/1/1 170/2/1 171/3/1 172/4/1
f 173/1/1 174/2/1 175/3/1 176/4/1
f 177/1/1 178/2/1 179/3/1 180/4/1
f 181/1/1 182/2/1 183/3/1 184/4/1
f 185/1/1 186/2/1 187/3/1 188/4/1
f 189/1/1 190/2/1 191/3/1 192/4/1
f 193/7/1 194/8/1 195/2/1 196/1/1
f 197/7/1 198/8/1 199/2/1 200/1/1
f 201/7/1 202/8/1 203/2/1 204/1/1
f 205/7/1 206/8/1 207/2/1 208/1/1
f 209/7/1 210/8/1 211/2/1 212/1/1
f 213/7/1 214/8/1 215/2/1 216/1/1
f 217/7/1 218/8/1 219/2/1 220/1/1
f 221/7/1 222/8/1 223/2/1 224/1/1
f 225/7/1 226/8/1 227/2/1 228/1/1
f 229/7/1 230/8/1 231/2/1 232/1/1
f 233/7/1 234/8/1 235/2/1 236/1/1
f 237/7/1 238/8/1 239/2/1 240/1/1
f 241/7/1 242/8/1 243/2/1 244/1/1
f 245/7/1 246/8/1 247/2/1 248/1/1
f 249/7/1 250/8/1 251/2/1 252/1/1
f 253/7/1 254/8/1 255/2/1 256/1/1
f 257/9/1 258/10/1 259/8/1 260/7/1
f 261/9/1 262/10/1 263/8/1 264/7/1
f 265/9/1 266/10/1 267/8/1 268/7/1
f 269/9/1 270/10/1 271/8/1 272/7/1
f 273/9/1 274/10/1 275/8/1 276/7/1
f 277/9/1 278/10/1 279/8/1 280/7/1
f 281/9/1 282/10/1 283/8/1 284/7/1
f 285/9/1 286/10/1 287/8/1 288/7/1
f 289/9/1 290/10/1 291/8/1 292/7/1
f 293/9/1 294/10/1 295/8/1 296/7/1
f 297/9/1 298/10/1 299/8/1 300/7/1
f 301/9/1 302/10/1 303/8/1 304/7/1
f 305/9/1 306/10/1 307/8/1 308/7/1
f 309/9/1 310/10/1 311/8/1 312/7/1
f 313/9/1 314/10/1 315/8/1 316/7/1
f 317/9/1 318/10/1 319/8/1 320/7/1
f 321/4/1 322/3/1 323/5/1 324/6/1
f 325/3/1 326/11/1 327/12/1 328/5/1
f 329/11/1 330/13/1 331/14/1 332/12/1
f 333/4/1 334/3/1 335/5/1 336/6/1
f 337/3/1 338/11/1 339/12/1 340/5/1
f 341/11/1 342/13/1 343/14/1 344/12/1
f 345/4/1 346/3/1 347/5/1 348/6/1
f 349/3/1 350/11/1 351/12/1 352/5/1
f 353/11/1 354/13/1 355/14/1 356/12/1
f 357/4/1 358/3/1 359/5/1 360/6/1
f 361/3/1 362/11/1 363/12/1 364/5/1
f 365/11/1 366/13/1 367/14/1 368/12/1
f 369/4/1 370/3/1 371/5/1 372/6/1
f 373/3/1 374/11/1 375/12/1 376/5/1
f 377/11/1 378/13/1 379/14/1 380/12/1
f 381/4/1 382/3/1 383/5/1 384/6/1
f 385/1/1 386/2/1 387/3/1 388/4/1
f 389/2/1 390/15/1 391/11/1 392/3/1
f 393/15/1 394/16/1 395/13/1 396/11/1
f 397/1/1 398/2/1 399/3/1 400/4/1
f 401/2/1 402/15/1 403/11/1 404/3/1
f 405/15/1 406/16/1 407/13/1 408/11/1
f 409/1/1 410/2/1 411/3/1 412/4/1
f 413/2/1 414/15/1 415/11/1 416/3/1
f 417/15/1 418/16/1 419/13/1 420/11/1
f 421/1/1 422/2/1 423/3/1 424/4/1
f 425/2/1 426/15/1 427/11/1 428/3/1
f 429/15/1 430/16/1 431/13/1 432/11/1
f 433/1/1 434/2/1 435/3/1 436/4/1
f 437/2/1 438/15/1 439/11/1 440/3/1
f 441/15/1 442/16/1 443/13/1 444/11/1
f 445/1/1 446/2/1 447/3/1 448/4/1
f 449/7/1 450/8/1 451/2/1 452/1/1
f 453/8/1 454/17/1 455/15/1 456/2/1
f 457/17/1 458/18/1 459/16/1 460/15/1
f 461/7/1 462/8/1 463/2/1 464/1/1
f 465/8/1 466/17/1 467/15/1 468/2/1
f 469/17/1 470/18/1 471/16/1 472/15/1
f 473/7/1 474/8/1 475/2/1 476/1/1
f 477/8/1 478/17/1 479/15/1 480/2/1
f 481/17/1 482/18/1 483/16/1 484/15/1
f 485/7/1 486/8/1 487/2/1 488/1/1
f 489/8/1 490/17/1 491/15/1 492/2/1
f 493/17/1 494/18/1 495/16/1 496/15/1
f 497/7/1 498/8/1 499/2/1 500/1/1
f 501/8/1 502/17/1 503/15/1 504/2/1
f 505/17/1 506/18/1 507/16/1 508/15/1
f 509/7/1 510/8/1 511/2/1 512/1/1
f 513/9/1 514/10/1 515/8/1 516/7/1
f 517/10/1 518/19/1 519/17/1 520/8/1
f 521/19/1 522/20/1 523/18/1 524/17/1
f 525/9/1 526/10/1 527/8/1 528/7/1
f 529/10/1 530/19/1 531/17/1 532/8/1
f 533/19/1 534/20/1 535/18/1 536/17/1
f 537/9/1 538/10/1 539/8/1 540/7/1
f 541/10/1 542/19/1 543/17/1 544/8/1
f 545/19/1 546/20/1 547/18/1 548/17/1
f 549/9/1 550/10/1 551/8/1 552/7/1
f 553/10/1 554/19/1 555/17/1 556/8/1
f 557/19/1 558/20/1 559/18/1 560/17/1
f 561/9/1 562/10/1 563/8/1 564/7/1
f 565/10/1 566/19/1 567/17/1 568/8/1
f 569/19/1 570/20/1 571/18/1 572/17/1
f 573/9/1 574/10/1 575/8/1 576/7/1
f 577/4/1 578/3/1 579/5/1 580/6/1
f 581/3/1 582/11/1 583/12/1 584/5/1
f 585/11/1 586/13/1 587/14/1 588/12/1
f 589/4/1 590/3/1 591/5/1 592/6/1
f 593/3/1 594/11/1 595/12/1 596/5/1
f 597/11/1 598/13/1 599/14/1 600/12/1
f 601/4/1 602/3/1 603/5/1 604/6/1
f 605/3/1 606/11/1 607/12/1 608/5/1
f 609/11/1 610/13/1 611/14/1 612/12/1
f 613/4/1 614/3/1 615/5/1 616/6/1
f 617/3/1 618/11/1 619/12/1 620/5/1
f 621/11/1 622/13/1 623/14/1 624/12/1
f 625/4/1 626/3/1 627/5/1 628/6/1
f 629/3/1 630/11/1 631/12/1 632/5/1
f 633/11/1 634/13/1 635/14/1 636/12/1
f 637/4/1 638/3/1 639/5/1 640/6/1
f 641/1/1 642/2/1 643/3/1 644/4/1
f 645/2/1 646/15/1 647/11/1 648/3/1
f 649/15/1 650/16/1 651/13/1 652/11/1
f 653/1/1 654/2/1 655/3/1 656/4/1
f 657/2/1 658/15/1 659/11/1 660/3/1
f 661/15/1 662/16/1 663/13/1 664/11/1
f 665/1/1 666/2/1 667/3/1 668/4/1
f 669/2/1 670/15/1 671/11/1 672/3/1
f 673/15/1 674/16/1 675/13/1 676/11/1
f 677/1/1 678/2/1 679/3/1 680/4/1
f 681/2/1 682/15/1 683/11/1 684/3/1
f 685/15/1 686/16/1 687/13/1 688/11/1
f 689/1/1 690/2/1 691/3/1 692/4/1
f 693/2/1 694/15/1 695/11/1 696/3/1
f 697/15/1 698/16/1 699/13/1 700/11/1
f 701/1/1 702/2/1 703/3/1 704/4/1
f 705/7/1 706/8/1 707/2/1 708/1/1
f 709/8/1 710/17/1 711/15/1 712/2/1
f 713/17/1 714/18/1 715/16/1 716/15/1
f 717/7/1 718/8/1 719/2/1 720/1/1
f 721/8/1 722/17/1 723/15/1 724/2/1
f 725/17/1 726/18/1 727/16/1 728/15/1
f 729/7/1 730/8/1 731/2/1 732/1/1
f 733/8/1 734/17/1 735/15/1 736/2/1
f 737/17/1 738/18/1 739/16/1 740/15/1
f 741/7/1 742/8/1 743/2/1 744/1/1
f 745/8/1 746/17/1 747/15/1 748/2/1
f 749/17/1 750/18/1 751/16/1 752/15/1
f 753/7/1 754/8/1 755/2/1 756/1/1
f 757/8/1 758/17/1 759/15/1 760/2/1
f 761/17/1 762/18/1 763/16/1 764/15/1
f 765/7/1 766/8/1 767/2/1 768/1/1
f 769/9/1 770/10/1 771/8/1 772/7/1
f 773/10/1 774/19/1 775/17/1 776/8/1
f 777/19/1 778/20/1 779/18/1 780/17/1
f 781/9/1 782/10/1 783/8/1 784/7/1
f 785/10/1 786/19/1 787/17/1 788/8/1
f 789/19/1 790/20/1 791/18/1 792/17/1
f 793/9/1 794/10/1 795/8/1 796/7/1
f 797/10/1 798/19/1 799/17/1 800/8/1
f 801/19/1 802/20/1 803/18/1 804/17/1
f 805/9/1 806/10/1 807/8/1 808/7/1
f 809/10/1 810/19/1 811/17/1 812/8/1
f 813/19/1 814/20/1 815/18/1 816/17/1
f 817/9/1 818/10/1 819/8/1 820/7/1
f 821/10/1 822/19/1 823/17/1 824/8/1
f 825/19/1 826/20/1 827/18/1 828/17/1
f 829/9/1 830/10/1 831/8/1 832/7/1
f 833/4/1 834/3/1 835/5/1 836/6/1
f 837/3/1 838/11/1 839/12/1 840/5/1
f 841/11/1 842/13/1 843/14/1 844/12/1
f 845/4/1 846/3/1 847/5/1 848/6/1
f 849/3/1 850/11/1 851/12/1 852/5/1
f 853/11/1 854/13/1 855/14/1 856/12/1
f 857/4/1 858/3/1 859/5/1 860/6/1
f 861/3/1 862/11/1 863/12/1 864/5/1
f 865/11/1 866/13/1 867/14/1 868/12/1
f 869/4/1 870/3/1 871/5/1 872/6/1
f 873/3/1 874/11/1 875/12/1 876/5/1
f 877/11/1 878/13/1 879/14/1 880/12/1
f 881/4/1 882/3/1 883/5/1 884/6/1
f 885/3/1 886/11/1 887/12/1 888/5/1
f 889/11/1 890/13/1 891/14/1 892/12/1
f 893/4/1 894/3/1 895/5/1 896/6/1
f 897/1/1 898/2/1 899/3/1 900/4/1
f 901/2/1 902/15/1 903/11/1 904/3/1
f 905/15/1 906/16/1 907/13/1 908/11/1
f 909/1/1 910/2/1 911/3/1 912/4/1
f 913/2/1 914/15/1 915/11/1 916/3/1
f 917/15/1 918/16/1 919/13/1 920/11/1
f 921/1/1 922/2/1 923/3/1 924/4/1
f 925/2/1 926/15/1 927/11/1 928/3/1
f 929/15/1 930/16/1 931/13/1 932/11/1
f 933/1/1 934/2/1 935/3/1 936/4/1
f 937/2/1 938/15/1 939/11/1 940/3/1
f 941/15/1 942/16/1 943/13/1 944/11/1
f 945/1/1 946/2/1 947/3/1 948/4/1
f 949/2/1 950/15/1 951/11/1 952/3/1
f 953/4/1 954/3/1 955/5/1 956/6/1
f 957/4/1 958/3/1 959/5/1 960/6/1
f 961/4/1 962/3/1 963/5/1 964/6/1
f 965/4/1 966/3/1 967/5/1 968/6/1
f 969/4/1 970/3/1 971/5/1 972/6/1
f 973/4/1 974/3/1 975/5/1 976/6/1
f 977/4/1 978/3/1 979/5/1 980/6/1
f 981/4/1 982/3/1 983/5/1 984/6/1
f 985/4/1 986/3/1 987/5/1 988/6/1
f 989/4/1 990/3/1 991/5/1 992/6/1
f 993/4/1 994/3/1 995/5/1 996/6/1
f 997/4/1 998/3/1 999/5/1 1000/6/1
f 1001/4/1 1002/3/1 1003/5/1 1004/6/1
f 1005/4/1 1006/3/1 1007/5/1 1008/6/1
f 1009/4/1 1010/3/1 1011/5/1 1012/6/1
f 1013/4/1 1014/3/1 1015/5/1 1016/6/1
f 1017/1/1 1018/2/1 1019/3/1 1020/4/1
f 1021/1/1 1022/2/1 1023/3/1 1024/4/1

