# Tiled2Unity generated file. Do not modify by hand.
# Wavefront file for '2ScenarioPlataforma_mesh_0981.obj'

# Vertices (Count = 1024)
v 0 -16 0
v -16 -16 0
v -16 0 0
v 0 0 0
v -16 -16 0
v -32 -16 0
v -32 0 0
v -16 0 0
v -32 -16 0
v -48 -16 0
v -48 0 0
v -32 0 0
v -48 -16 0
v -64 -16 0
v -64 0 0
v -48 0 0
v -64 -16 0
v -80 -16 0
v -80 0 0
v -64 0 0
v -80 -16 0
v -96 -16 0
v -96 0 0
v -80 0 0
v -96 -16 0
v -112 -16 0
v -112 0 0
v -96 0 0
v -112 -16 0
v -128 -16 0
v -128 0 0
v -112 0 0
v -128 -16 0
v -144 -16 0
v -144 0 0
v -128 0 0
v -144 -16 0
v -160 -16 0
v -160 0 0
v -144 0 0
v -160 -16 0
v -176 -16 0
v -176 0 0
v -160 0 0
v -176 -16 0
v -192 -16 0
v -192 0 0
v -176 0 0
v -192 -16 0
v -208 -16 0
v -208 0 0
v -192 0 0
v -208 -16 0
v -224 -16 0
v -224 0 0
v -208 0 0
v -224 -16 0
v -240 -16 0
v -240 0 0
v -224 0 0
v -240 -16 0
v -256 -16 0
v -256 0 0
v -240 0 0
v 0 -32 0
v -16 -32 0
v -16 -16 0
v 0 -16 0
v -16 -32 0
v -32 -32 0
v -32 -16 0
v -16 -16 0
v -32 -32 0
v -48 -32 0
v -48 -16 0
v -32 -16 0
v -48 -32 0
v -64 -32 0
v -64 -16 0
v -48 -16 0
v -64 -32 0
v -80 -32 0
v -80 -16 0
v -64 -16 0
v -80 -32 0
v -96 -32 0
v -96 -16 0
v -80 -16 0
v -96 -32 0
v -112 -32 0
v -112 -16 0
v -96 -16 0
v -112 -32 0
v -128 -32 0
v -128 -16 0
v -112 -16 0
v -128 -32 0
v -144 -32 0
v -144 -16 0
v -128 -16 0
v -144 -32 0
v -160 -32 0
v -160 -16 0
v -144 -16 0
v -160 -32 0
v -176 -32 0
v -176 -16 0
v -160 -16 0
v -176 -32 0
v -192 -32 0
v -192 -16 0
v -176 -16 0
v -192 -32 0
v -208 -32 0
v -208 -16 0
v -192 -16 0
v -208 -32 0
v -224 -32 0
v -224 -16 0
v -208 -16 0
v -224 -32 0
v -240 -32 0
v -240 -16 0
v -224 -16 0
v -240 -32 0
v -256 -32 0
v -256 -16 0
v -240 -16 0
v 0 -48 0
v -16 -48 0
v -16 -32 0
v 0 -32 0
v -16 -48 0
v -32 -48 0
v -32 -32 0
v -16 -32 0
v -32 -48 0
v -48 -48 0
v -48 -32 0
v -32 -32 0
v -48 -48 0
v -64 -48 0
v -64 -32 0
v -48 -32 0
v -64 -48 0
v -80 -48 0
v -80 -32 0
v -64 -32 0
v -80 -48 0
v -96 -48 0
v -96 -32 0
v -80 -32 0
v -96 -48 0
v -112 -48 0
v -112 -32 0
v -96 -32 0
v -112 -48 0
v -128 -48 0
v -128 -32 0
v -112 -32 0
v -128 -48 0
v -144 -48 0
v -144 -32 0
v -128 -32 0
v -144 -48 0
v -160 -48 0
v -160 -32 0
v -144 -32 0
v -160 -48 0
v -176 -48 0
v -176 -32 0
v -160 -32 0
v -176 -48 0
v -192 -48 0
v -192 -32 0
v -176 -32 0
v -192 -48 0
v -208 -48 0
v -208 -32 0
v -192 -32 0
v -208 -48 0
v -224 -48 0
v -224 -32 0
v -208 -32 0
v -224 -48 0
v -240 -48 0
v -240 -32 0
v -224 -32 0
v -240 -48 0
v -256 -48 0
v -256 -32 0
v -240 -32 0
v 0 -64 0
v -16 -64 0
v -16 -48 0
v 0 -48 0
v -16 -64 0
v -32 -64 0
v -32 -48 0
v -16 -48 0
v -32 -64 0
v -48 -64 0
v -48 -48 0
v -32 -48 0
v -48 -64 0
v -64 -64 0
v -64 -48 0
v -48 -48 0
v -64 -64 0
v -80 -64 0
v -80 -48 0
v -64 -48 0
v -80 -64 0
v -96 -64 0
v -96 -48 0
v -80 -48 0
v -96 -64 0
v -112 -64 0
v -112 -48 0
v -96 -48 0
v -112 -64 0
v -128 -64 0
v -128 -48 0
v -112 -48 0
v -128 -64 0
v -144 -64 0
v -144 -48 0
v -128 -48 0
v -144 -64 0
v -160 -64 0
v -160 -48 0
v -144 -48 0
v -160 -64 0
v -176 -64 0
v -176 -48 0
v -160 -48 0
v -176 -64 0
v -192 -64 0
v -192 -48 0
v -176 -48 0
v -192 -64 0
v -208 -64 0
v -208 -48 0
v -192 -48 0
v -208 -64 0
v -224 -64 0
v -224 -48 0
v -208 -48 0
v -224 -64 0
v -240 -64 0
v -240 -48 0
v -224 -48 0
v -240 -64 0
v -256 -64 0
v -256 -48 0
v -240 -48 0
v 0 -80 0
v -16 -80 0
v -16 -64 0
v 0 -64 0
v -16 -80 0
v -32 -80 0
v -32 -64 0
v -16 -64 0
v -32 -80 0
v -48 -80 0
v -48 -64 0
v -32 -64 0
v -48 -80 0
v -64 -80 0
v -64 -64 0
v -48 -64 0
v -64 -80 0
v -80 -80 0
v -80 -64 0
v -64 -64 0
v -80 -80 0
v -96 -80 0
v -96 -64 0
v -80 -64 0
v -96 -80 0
v -112 -80 0
v -112 -64 0
v -96 -64 0
v -112 -80 0
v -128 -80 0
v -128 -64 0
v -112 -64 0
v -128 -80 0
v -144 -80 0
v -144 -64 0
v -128 -64 0
v -144 -80 0
v -160 -80 0
v -160 -64 0
v -144 -64 0
v -160 -80 0
v -176 -80 0
v -176 -64 0
v -160 -64 0
v -176 -80 0
v -192 -80 0
v -192 -64 0
v -176 -64 0
v -192 -80 0
v -208 -80 0
v -208 -64 0
v -192 -64 0
v -208 -80 0
v -224 -80 0
v -224 -64 0
v -208 -64 0
v -224 -80 0
v -240 -80 0
v -240 -64 0
v -224 -64 0
v -240 -80 0
v -256 -80 0
v -256 -64 0
v -240 -64 0
v 0 -96 0
v -16 -96 0
v -16 -80 0
v 0 -80 0
v -16 -96 0
v -32 -96 0
v -32 -80 0
v -16 -80 0
v -32 -96 0
v -48 -96 0
v -48 -80 0
v -32 -80 0
v -48 -96 0
v -64 -96 0
v -64 -80 0
v -48 -80 0
v -64 -96 0
v -80 -96 0
v -80 -80 0
v -64 -80 0
v -80 -96 0
v -96 -96 0
v -96 -80 0
v -80 -80 0
v -96 -96 0
v -112 -96 0
v -112 -80 0
v -96 -80 0
v -112 -96 0
v -128 -96 0
v -128 -80 0
v -112 -80 0
v -128 -96 0
v -144 -96 0
v -144 -80 0
v -128 -80 0
v -144 -96 0
v -160 -96 0
v -160 -80 0
v -144 -80 0
v -160 -96 0
v -176 -96 0
v -176 -80 0
v -160 -80 0
v -176 -96 0
v -192 -96 0
v -192 -80 0
v -176 -80 0
v -192 -96 0
v -208 -96 0
v -208 -80 0
v -192 -80 0
v -208 -96 0
v -224 -96 0
v -224 -80 0
v -208 -80 0
v -224 -96 0
v -240 -96 0
v -240 -80 0
v -224 -80 0
v -240 -96 0
v -256 -96 0
v -256 -80 0
v -240 -80 0
v 0 -112 0
v -16 -112 0
v -16 -96 0
v 0 -96 0
v -16 -112 0
v -32 -112 0
v -32 -96 0
v -16 -96 0
v -32 -112 0
v -48 -112 0
v -48 -96 0
v -32 -96 0
v -48 -112 0
v -64 -112 0
v -64 -96 0
v -48 -96 0
v -64 -112 0
v -80 -112 0
v -80 -96 0
v -64 -96 0
v -80 -112 0
v -96 -112 0
v -96 -96 0
v -80 -96 0
v -96 -112 0
v -112 -112 0
v -112 -96 0
v -96 -96 0
v -112 -112 0
v -128 -112 0
v -128 -96 0
v -112 -96 0
v -128 -112 0
v -144 -112 0
v -144 -96 0
v -128 -96 0
v -144 -112 0
v -160 -112 0
v -160 -96 0
v -144 -96 0
v -160 -112 0
v -176 -112 0
v -176 -96 0
v -160 -96 0
v -176 -112 0
v -192 -112 0
v -192 -96 0
v -176 -96 0
v -192 -112 0
v -208 -112 0
v -208 -96 0
v -192 -96 0
v -208 -112 0
v -224 -112 0
v -224 -96 0
v -208 -96 0
v -224 -112 0
v -240 -112 0
v -240 -96 0
v -224 -96 0
v -240 -112 0
v -256 -112 0
v -256 -96 0
v -240 -96 0
v 0 -128 0
v -16 -128 0
v -16 -112 0
v 0 -112 0
v -16 -128 0
v -32 -128 0
v -32 -112 0
v -16 -112 0
v -32 -128 0
v -48 -128 0
v -48 -112 0
v -32 -112 0
v -48 -128 0
v -64 -128 0
v -64 -112 0
v -48 -112 0
v -64 -128 0
v -80 -128 0
v -80 -112 0
v -64 -112 0
v -80 -128 0
v -96 -128 0
v -96 -112 0
v -80 -112 0
v -96 -128 0
v -112 -128 0
v -112 -112 0
v -96 -112 0
v -112 -128 0
v -128 -128 0
v -128 -112 0
v -112 -112 0
v -128 -128 0
v -144 -128 0
v -144 -112 0
v -128 -112 0
v -144 -128 0
v -160 -128 0
v -160 -112 0
v -144 -112 0
v -160 -128 0
v -176 -128 0
v -176 -112 0
v -160 -112 0
v -176 -128 0
v -192 -128 0
v -192 -112 0
v -176 -112 0
v -192 -128 0
v -208 -128 0
v -208 -112 0
v -192 -112 0
v -208 -128 0
v -224 -128 0
v -224 -112 0
v -208 -112 0
v -224 -128 0
v -240 -128 0
v -240 -112 0
v -224 -112 0
v -240 -128 0
v -256 -128 0
v -256 -112 0
v -240 -112 0
v 0 -144 0
v -16 -144 0
v -16 -128 0
v 0 -128 0
v -16 -144 0
v -32 -144 0
v -32 -128 0
v -16 -128 0
v -32 -144 0
v -48 -144 0
v -48 -128 0
v -32 -128 0
v -48 -144 0
v -64 -144 0
v -64 -128 0
v -48 -128 0
v -64 -144 0
v -80 -144 0
v -80 -128 0
v -64 -128 0
v -80 -144 0
v -96 -144 0
v -96 -128 0
v -80 -128 0
v -96 -144 0
v -112 -144 0
v -112 -128 0
v -96 -128 0
v -112 -144 0
v -128 -144 0
v -128 -128 0
v -112 -128 0
v -128 -144 0
v -144 -144 0
v -144 -128 0
v -128 -128 0
v -144 -144 0
v -160 -144 0
v -160 -128 0
v -144 -128 0
v -160 -144 0
v -176 -144 0
v -176 -128 0
v -160 -128 0
v -176 -144 0
v -192 -144 0
v -192 -128 0
v -176 -128 0
v -192 -144 0
v -208 -144 0
v -208 -128 0
v -192 -128 0
v -208 -144 0
v -224 -144 0
v -224 -128 0
v -208 -128 0
v -224 -144 0
v -240 -144 0
v -240 -128 0
v -224 -128 0
v -240 -144 0
v -256 -144 0
v -256 -128 0
v -240 -128 0
v 0 -160 0
v -16 -160 0
v -16 -144 0
v 0 -144 0
v -16 -160 0
v -32 -160 0
v -32 -144 0
v -16 -144 0
v -32 -160 0
v -48 -160 0
v -48 -144 0
v -32 -144 0
v -48 -160 0
v -64 -160 0
v -64 -144 0
v -48 -144 0
v -64 -160 0
v -80 -160 0
v -80 -144 0
v -64 -144 0
v -80 -160 0
v -96 -160 0
v -96 -144 0
v -80 -144 0
v -96 -160 0
v -112 -160 0
v -112 -144 0
v -96 -144 0
v -112 -160 0
v -128 -160 0
v -128 -144 0
v -112 -144 0
v -128 -160 0
v -144 -160 0
v -144 -144 0
v -128 -144 0
v -144 -160 0
v -160 -160 0
v -160 -144 0
v -144 -144 0
v -160 -160 0
v -176 -160 0
v -176 -144 0
v -160 -144 0
v -176 -160 0
v -192 -160 0
v -192 -144 0
v -176 -144 0
v -192 -160 0
v -208 -160 0
v -208 -144 0
v -192 -144 0
v -208 -160 0
v -224 -160 0
v -224 -144 0
v -208 -144 0
v -224 -160 0
v -240 -160 0
v -240 -144 0
v -224 -144 0
v -240 -160 0
v -256 -160 0
v -256 -144 0
v -240 -144 0
v 0 -176 0
v -16 -176 0
v -16 -160 0
v 0 -160 0
v -16 -176 0
v -32 -176 0
v -32 -160 0
v -16 -160 0
v -32 -176 0
v -48 -176 0
v -48 -160 0
v -32 -160 0
v -48 -176 0
v -64 -176 0
v -64 -160 0
v -48 -160 0
v -64 -176 0
v -80 -176 0
v -80 -160 0
v -64 -160 0
v -80 -176 0
v -96 -176 0
v -96 -160 0
v -80 -160 0
v -96 -176 0
v -112 -176 0
v -112 -160 0
v -96 -160 0
v -112 -176 0
v -128 -176 0
v -128 -160 0
v -112 -160 0
v -128 -176 0
v -144 -176 0
v -144 -160 0
v -128 -160 0
v -144 -176 0
v -160 -176 0
v -160 -160 0
v -144 -160 0
v -160 -176 0
v -176 -176 0
v -176 -160 0
v -160 -160 0
v -176 -176 0
v -192 -176 0
v -192 -160 0
v -176 -160 0
v -192 -176 0
v -208 -176 0
v -208 -160 0
v -192 -160 0
v -208 -176 0
v -224 -176 0
v -224 -160 0
v -208 -160 0
v -224 -176 0
v -240 -176 0
v -240 -160 0
v -224 -160 0
v -240 -176 0
v -256 -176 0
v -256 -160 0
v -240 -160 0
v 0 -192 0
v -16 -192 0
v -16 -176 0
v 0 -176 0
v -16 -192 0
v -32 -192 0
v -32 -176 0
v -16 -176 0
v -32 -192 0
v -48 -192 0
v -48 -176 0
v -32 -176 0
v -48 -192 0
v -64 -192 0
v -64 -176 0
v -48 -176 0
v -64 -192 0
v -80 -192 0
v -80 -176 0
v -64 -176 0
v -80 -192 0
v -96 -192 0
v -96 -176 0
v -80 -176 0
v -96 -192 0
v -112 -192 0
v -112 -176 0
v -96 -176 0
v -112 -192 0
v -128 -192 0
v -128 -176 0
v -112 -176 0
v -128 -192 0
v -144 -192 0
v -144 -176 0
v -128 -176 0
v -144 -192 0
v -160 -192 0
v -160 -176 0
v -144 -176 0
v -160 -192 0
v -176 -192 0
v -176 -176 0
v -160 -176 0
v -176 -192 0
v -192 -192 0
v -192 -176 0
v -176 -176 0
v -192 -192 0
v -208 -192 0
v -208 -176 0
v -192 -176 0
v -208 -192 0
v -224 -192 0
v -224 -176 0
v -208 -176 0
v -224 -192 0
v -240 -192 0
v -240 -176 0
v -224 -176 0
v -240 -192 0
v -256 -192 0
v -256 -176 0
v -240 -176 0
v 0 -208 0
v -16 -208 0
v -16 -192 0
v 0 -192 0
v -16 -208 0
v -32 -208 0
v -32 -192 0
v -16 -192 0
v -32 -208 0
v -48 -208 0
v -48 -192 0
v -32 -192 0
v -48 -208 0
v -64 -208 0
v -64 -192 0
v -48 -192 0
v -64 -208 0
v -80 -208 0
v -80 -192 0
v -64 -192 0
v -80 -208 0
v -96 -208 0
v -96 -192 0
v -80 -192 0
v -96 -208 0
v -112 -208 0
v -112 -192 0
v -96 -192 0
v -112 -208 0
v -128 -208 0
v -128 -192 0
v -112 -192 0
v -128 -208 0
v -144 -208 0
v -144 -192 0
v -128 -192 0
v -144 -208 0
v -160 -208 0
v -160 -192 0
v -144 -192 0
v -160 -208 0
v -176 -208 0
v -176 -192 0
v -160 -192 0
v -176 -208 0
v -192 -208 0
v -192 -192 0
v -176 -192 0
v -192 -208 0
v -208 -208 0
v -208 -192 0
v -192 -192 0
v -208 -208 0
v -224 -208 0
v -224 -192 0
v -208 -192 0
v -224 -208 0
v -240 -208 0
v -240 -192 0
v -224 -192 0
v -240 -208 0
v -256 -208 0
v -256 -192 0
v -240 -192 0
v 0 -224 0
v -16 -224 0
v -16 -208 0
v 0 -208 0
v -16 -224 0
v -32 -224 0
v -32 -208 0
v -16 -208 0
v -32 -224 0
v -48 -224 0
v -48 -208 0
v -32 -208 0
v -48 -224 0
v -64 -224 0
v -64 -208 0
v -48 -208 0
v -64 -224 0
v -80 -224 0
v -80 -208 0
v -64 -208 0
v -80 -224 0
v -96 -224 0
v -96 -208 0
v -80 -208 0
v -96 -224 0
v -112 -224 0
v -112 -208 0
v -96 -208 0
v -112 -224 0
v -128 -224 0
v -128 -208 0
v -112 -208 0
v -128 -224 0
v -144 -224 0
v -144 -208 0
v -128 -208 0
v -144 -224 0
v -160 -224 0
v -160 -208 0
v -144 -208 0
v -160 -224 0
v -176 -224 0
v -176 -208 0
v -160 -208 0
v -176 -224 0
v -192 -224 0
v -192 -208 0
v -176 -208 0
v -192 -224 0
v -208 -224 0
v -208 -208 0
v -192 -208 0
v -208 -224 0
v -224 -224 0
v -224 -208 0
v -208 -208 0
v -224 -224 0
v -240 -224 0
v -240 -208 0
v -224 -208 0
v -240 -224 0
v -256 -224 0
v -256 -208 0
v -240 -208 0
v 0 -240 0
v -16 -240 0
v -16 -224 0
v 0 -224 0
v -16 -240 0
v -32 -240 0
v -32 -224 0
v -16 -224 0
v -32 -240 0
v -48 -240 0
v -48 -224 0
v -32 -224 0
v -48 -240 0
v -64 -240 0
v -64 -224 0
v -48 -224 0
v -64 -240 0
v -80 -240 0
v -80 -224 0
v -64 -224 0
v -80 -240 0
v -96 -240 0
v -96 -224 0
v -80 -224 0
v -96 -240 0
v -112 -240 0
v -112 -224 0
v -96 -224 0
v -112 -240 0
v -128 -240 0
v -128 -224 0
v -112 -224 0
v -128 -240 0
v -144 -240 0
v -144 -224 0
v -128 -224 0
v -144 -240 0
v -160 -240 0
v -160 -224 0
v -144 -224 0
v -160 -240 0
v -176 -240 0
v -176 -224 0
v -160 -224 0
v -176 -240 0
v -192 -240 0
v -192 -224 0
v -176 -224 0
v -192 -240 0
v -208 -240 0
v -208 -224 0
v -192 -224 0
v -208 -240 0
v -224 -240 0
v -224 -224 0
v -208 -224 0
v -224 -240 0
v -240 -240 0
v -240 -224 0
v -224 -224 0
v -240 -240 0
v -256 -240 0
v -256 -224 0
v -240 -224 0
v 0 -256 0
v -16 -256 0
v -16 -240 0
v 0 -240 0
v -16 -256 0
v -32 -256 0
v -32 -240 0
v -16 -240 0
v -32 -256 0
v -48 -256 0
v -48 -240 0
v -32 -240 0
v -48 -256 0
v -64 -256 0
v -64 -240 0
v -48 -240 0
v -64 -256 0
v -80 -256 0
v -80 -240 0
v -64 -240 0
v -80 -256 0
v -96 -256 0
v -96 -240 0
v -80 -240 0
v -96 -256 0
v -112 -256 0
v -112 -240 0
v -96 -240 0
v -112 -256 0
v -128 -256 0
v -128 -240 0
v -112 -240 0
v -128 -256 0
v -144 -256 0
v -144 -240 0
v -128 -240 0
v -144 -256 0
v -160 -256 0
v -160 -240 0
v -144 -240 0
v -160 -256 0
v -176 -256 0
v -176 -240 0
v -160 -240 0
v -176 -256 0
v -192 -256 0
v -192 -240 0
v -176 -240 0
v -192 -256 0
v -208 -256 0
v -208 -240 0
v -192 -240 0
v -208 -256 0
v -224 -256 0
v -224 -240 0
v -208 -240 0
v -224 -256 0
v -240 -256 0
v -240 -240 0
v -224 -240 0
v -240 -256 0
v -256 -256 0
v -256 -240 0
v -240 -240 0

# Texture cooridinates (Count = 20)
vt 0.606383 0.75
vt 0.6170213 0.75
vt 0.6170213 0.8125
vt 0.606383 0.8125
vt 0.6276596 0.75
vt 0.6276596 0.8125
vt 0.6170213 0.875
vt 0.606383 0.875
vt 0.606383 0.6875
vt 0.6170213 0.6875
vt 0.6276596 0.6875
vt 0.6382979 0.8125
vt 0.6382979 0.875
vt 0.6276596 0.875
vt 0.6382979 0.75
vt 0.6382979 0.6875
vt 0.6276596 0.625
vt 0.6382979 0.625
vt 0.6170213 0.625
vt 0.606383 0.625

# Normal
vn 0 0 -1

# Mesh description
g 2ScenarioPlataforma_mesh_0981

# Faces
f 1/1/1 2/2/1 3/3/1 4/4/1
f 5/1/1 6/2/1 7/3/1 8/4/1
f 9/1/1 10/2/1 11/3/1 12/4/1
f 13/1/1 14/2/1 15/3/1 16/4/1
f 17/1/1 18/2/1 19/3/1 20/4/1
f 21/1/1 22/2/1 23/3/1 24/4/1
f 25/1/1 26/2/1 27/3/1 28/4/1
f 29/1/1 30/2/1 31/3/1 32/4/1
f 33/1/1 34/2/1 35/3/1 36/4/1
f 37/1/1 38/2/1 39/3/1 40/4/1
f 41/1/1 42/2/1 43/3/1 44/4/1
f 45/1/1 46/2/1 47/3/1 48/4/1
f 49/1/1 50/2/1 51/3/1 52/4/1
f 53/1/1 54/2/1 55/3/1 56/4/1
f 57/2/1 58/5/1 59/6/1 60/3/1
f 61/4/1 62/3/1 63/7/1 64/8/1
f 65/9/1 66/10/1 67/2/1 68/1/1
f 69/9/1 70/10/1 71/2/1 72/1/1
f 73/9/1 74/10/1 75/2/1 76/1/1
f 77/9/1 78/10/1 79/2/1 80/1/1
f 81/9/1 82/10/1 83/2/1 84/1/1
f 85/9/1 86/10/1 87/2/1 88/1/1
f 89/9/1 90/10/1 91/2/1 92/1/1
f 93/9/1 94/10/1 95/2/1 96/1/1
f 97/9/1 98/10/1 99/2/1 100/1/1
f 101/9/1 102/10/1 103/2/1 104/1/1
f 105/9/1 106/10/1 107/2/1 108/1/1
f 109/9/1 110/10/1 111/2/1 112/1/1
f 113/9/1 114/10/1 115/2/1 116/1/1
f 117/9/1 118/10/1 119/2/1 120/1/1
f 121/10/1 122/11/1 123/5/1 124/2/1
f 125/1/1 126/2/1 127/3/1 128/4/1
f 129/6/1 130/12/1 131/13/1 132/14/1
f 133/6/1 134/12/1 135/13/1 136/14/1
f 137/6/1 138/12/1 139/13/1 140/14/1
f 141/6/1 142/12/1 143/13/1 144/14/1
f 145/6/1 146/12/1 147/13/1 148/14/1
f 149/6/1 150/12/1 151/13/1 152/14/1
f 153/6/1 154/12/1 155/13/1 156/14/1
f 157/6/1 158/12/1 159/13/1 160/14/1
f 161/6/1 162/12/1 163/13/1 164/14/1
f 165/6/1 166/12/1 167/13/1 168/14/1
f 169/6/1 170/12/1 171/13/1 172/14/1
f 173/6/1 174/12/1 175/13/1 176/14/1
f 177/6/1 178/12/1 179/13/1 180/14/1
f 181/6/1 182/12/1 183/13/1 184/14/1
f 185/6/1 186/12/1 187/13/1 188/14/1
f 189/6/1 190/12/1 191/13/1 192/14/1
f 193/5/1 194/15/1 195/12/1 196/6/1
f 197/5/1 198/15/1 199/12/1 200/6/1
f 201/5/1 202/15/1 203/12/1 204/6/1
f 205/5/1 206/15/1 207/12/1 208/6/1
f 209/5/1 210/15/1 211/12/1 212/6/1
f 213/5/1 214/15/1 215/12/1 216/6/1
f 217/5/1 218/15/1 219/12/1 220/6/1
f 221/5/1 222/15/1 223/12/1 224/6/1
f 225/5/1 226/15/1 227/12/1 228/6/1
f 229/5/1 230/15/1 231/12/1 232/6/1
f 233/5/1 234/15/1 235/12/1 236/6/1
f 237/5/1 238/15/1 239/12/1 240/6/1
f 241/5/1 242/15/1 243/12/1 244/6/1
f 245/5/1 246/15/1 247/12/1 248/6/1
f 249/5/1 250/15/1 251/12/1 252/6/1
f 253/5/1 254/15/1 255/12/1 256/6/1
f 257/11/1 258/16/1 259/15/1 260/5/1
f 261/11/1 262/16/1 263/15/1 264/5/1
f 265/11/1 266/16/1 267/15/1 268/5/1
f 269/11/1 270/16/1 271/15/1 272/5/1
f 273/11/1 274/16/1 275/15/1 276/5/1
f 277/11/1 278/16/1 279/15/1 280/5/1
f 281/11/1 282/16/1 283/15/1 284/5/1
f 285/11/1 286/16/1 287/15/1 288/5/1
f 289/11/1 290/16/1 291/15/1 292/5/1
f 293/11/1 294/16/1 295/15/1 296/5/1
f 297/11/1 298/16/1 299/15/1 300/5/1
f 301/11/1 302/16/1 303/15/1 304/5/1
f 305/11/1 306/16/1 307/15/1 308/5/1
f 309/11/1 310/16/1 311/15/1 312/5/1
f 313/11/1 314/16/1 315/15/1 316/5/1
f 317/11/1 318/16/1 319/15/1 320/5/1
f 321/17/1 322/18/1 323/16/1 324/11/1
f 325/17/1 326/18/1 327/16/1 328/11/1
f 329/17/1 330/18/1 331/16/1 332/11/1
f 333/17/1 334/18/1 335/16/1 336/11/1
f 337/17/1 338/18/1 339/16/1 340/11/1
f 341/17/1 342/18/1 343/16/1 344/11/1
f 345/17/1 346/18/1 347/16/1 348/11/1
f 349/17/1 350/18/1 351/16/1 352/11/1
f 353/17/1 354/18/1 355/16/1 356/11/1
f 357/17/1 358/18/1 359/16/1 360/11/1
f 361/17/1 362/18/1 363/16/1 364/11/1
f 365/17/1 366/18/1 367/16/1 368/11/1
f 369/17/1 370/18/1 371/16/1 372/11/1
f 373/17/1 374/18/1 375/16/1 376/11/1
f 377/17/1 378/18/1 379/16/1 380/11/1
f 381/17/1 382/18/1 383/16/1 384/11/1
f 385/2/1 386/5/1 387/6/1 388/3/1
f 389/5/1 390/15/1 391/12/1 392/6/1
f 393/1/1 394/2/1 395/3/1 396/4/1
f 397/2/1 398/5/1 399/6/1 400/3/1
f 401/5/1 402/15/1 403/12/1 404/6/1
f 405/1/1 406/2/1 407/3/1 408/4/1
f 409/2/1 410/5/1 411/6/1 412/3/1
f 413/5/1 414/15/1 415/12/1 416/6/1
f 417/1/1 418/2/1 419/3/1 420/4/1
f 421/2/1 422/5/1 423/6/1 424/3/1
f 425/5/1 426/15/1 427/12/1 428/6/1
f 429/1/1 430/2/1 431/3/1 432/4/1
f 433/2/1 434/5/1 435/6/1 436/3/1
f 437/5/1 438/15/1 439/12/1 440/6/1
f 441/1/1 442/2/1 443/3/1 444/4/1
f 445/2/1 446/5/1 447/6/1 448/3/1
f 449/10/1 450/11/1 451/5/1 452/2/1
f 453/11/1 454/16/1 455/15/1 456/5/1
f 457/9/1 458/10/1 459/2/1 460/1/1
f 461/10/1 462/11/1 463/5/1 464/2/1
f 465/11/1 466/16/1 467/15/1 468/5/1
f 469/9/1 470/10/1 471/2/1 472/1/1
f 473/10/1 474/11/1 475/5/1 476/2/1
f 477/11/1 478/16/1 479/15/1 480/5/1
f 481/9/1 482/10/1 483/2/1 484/1/1
f 485/10/1 486/11/1 487/5/1 488/2/1
f 489/11/1 490/16/1 491/15/1 492/5/1
f 493/9/1 494/10/1 495/2/1 496/1/1
f 497/10/1 498/11/1 499/5/1 500/2/1
f 501/11/1 502/16/1 503/15/1 504/5/1
f 505/9/1 506/10/1 507/2/1 508/1/1
f 509/4/1 510/3/1 511/7/1 512/8/1
f 513/19/1 514/17/1 515/11/1 516/10/1
f 517/17/1 518/18/1 519/16/1 520/11/1
f 521/20/1 522/19/1 523/10/1 524/9/1
f 525/19/1 526/17/1 527/11/1 528/10/1
f 529/17/1 530/18/1 531/16/1 532/11/1
f 533/20/1 534/19/1 535/10/1 536/9/1
f 537/19/1 538/17/1 539/11/1 540/10/1
f 541/17/1 542/18/1 543/16/1 544/11/1
f 545/20/1 546/19/1 547/10/1 548/9/1
f 549/19/1 550/17/1 551/11/1 552/10/1
f 553/17/1 554/18/1 555/16/1 556/11/1
f 557/20/1 558/19/1 559/10/1 560/9/1
f 561/19/1 562/17/1 563/11/1 564/10/1
f 565/17/1 566/18/1 567/16/1 568/11/1
f 569/20/1 570/19/1 571/10/1 572/9/1
f 573/19/1 574/17/1 575/11/1 576/10/1
f 577/3/1 578/6/1 579/14/1 580/7/1
f 581/6/1 582/12/1 583/13/1 584/14/1
f 585/4/1 586/3/1 587/7/1 588/8/1
f 589/3/1 590/6/1 591/14/1 592/7/1
f 593/6/1 594/12/1 595/13/1 596/14/1
f 597/4/1 598/3/1 599/7/1 600/8/1
f 601/3/1 602/6/1 603/14/1 604/7/1
f 605/6/1 606/12/1 607/13/1 608/14/1
f 609/4/1 610/3/1 611/7/1 612/8/1
f 613/3/1 614/6/1 615/14/1 616/7/1
f 617/6/1 618/12/1 619/13/1 620/14/1
f 621/4/1 622/3/1 623/7/1 624/8/1
f 625/3/1 626/6/1 627/14/1 628/7/1
f 629/6/1 630/12/1 631/13/1 632/14/1
f 633/4/1 634/3/1 635/7/1 636/8/1
f 637/3/1 638/6/1 639/14/1 640/7/1
f 641/2/1 642/5/1 643/6/1 644/3/1
f 645/5/1 646/15/1 647/12/1 648/6/1
f 649/1/1 650/2/1 651/3/1 652/4/1
f 653/2/1 654/5/1 655/6/1 656/3/1
f 657/5/1 658/15/1 659/12/1 660/6/1
f 661/1/1 662/2/1 663/3/1 664/4/1
f 665/2/1 666/5/1 667/6/1 668/3/1
f 669/5/1 670/15/1 671/12/1 672/6/1
f 673/1/1 674/2/1 675/3/1 676/4/1
f 677/2/1 678/5/1 679/6/1 680/3/1
f 681/5/1 682/15/1 683/12/1 684/6/1
f 685/1/1 686/2/1 687/3/1 688/4/1
f 689/2/1 690/5/1 691/6/1 692/3/1
f 693/5/1 694/15/1 695/12/1 696/6/1
f 697/1/1 698/2/1 699/3/1 700/4/1
f 701/2/1 702/5/1 703/6/1 704/3/1
f 705/10/1 706/11/1 707/5/1 708/2/1
f 709/11/1 710/16/1 711/15/1 712/5/1
f 713/9/1 714/10/1 715/2/1 716/1/1
f 717/10/1 718/11/1 719/5/1 720/2/1
f 721/11/1 722/16/1 723/15/1 724/5/1
f 725/9/1 726/10/1 727/2/1 728/1/1
f 729/10/1 730/11/1 731/5/1 732/2/1
f 733/11/1 734/16/1 735/15/1 736/5/1
f 737/9/1 738/10/1 739/2/1 740/1/1
f 741/10/1 742/11/1 743/5/1 744/2/1
f 745/11/1 746/16/1 747/15/1 748/5/1
f 749/9/1 750/10/1 751/2/1 752/1/1
f 753/10/1 754/11/1 755/5/1 756/2/1
f 757/11/1 758/16/1 759/15/1 760/5/1
f 761/9/1 762/10/1 763/2/1 764/1/1
f 765/10/1 766/11/1 767/5/1 768/2/1
f 769/19/1 770/17/1 771/11/1 772/10/1
f 773/17/1 774/18/1 775/16/1 776/11/1
f 777/20/1 778/19/1 779/10/1 780/9/1
f 781/19/1 782/17/1 783/11/1 784/10/1
f 785/17/1 786/18/1 787/16/1 788/11/1
f 789/20/1 790/19/1 791/10/1 792/9/1
f 793/19/1 794/17/1 795/11/1 796/10/1
f 797/17/1 798/18/1 799/16/1 800/11/1
f 801/20/1 802/19/1 803/10/1 804/9/1
f 805/19/1 806/17/1 807/11/1 808/10/1
f 809/17/1 810/18/1 811/16/1 812/11/1
f 813/20/1 814/19/1 815/10/1 816/9/1
f 817/19/1 818/17/1 819/11/1 820/10/1
f 821/17/1 822/18/1 823/16/1 824/11/1
f 825/20/1 826/19/1 827/10/1 828/9/1
f 829/19/1 830/17/1 831/11/1 832/10/1
f 833/4/1 834/3/1 835/7/1 836/8/1
f 837/4/1 838/3/1 839/7/1 840/8/1
f 841/4/1 842/3/1 843/7/1 844/8/1
f 845/4/1 846/3/1 847/7/1 848/8/1
f 849/4/1 850/3/1 851/7/1 852/8/1
f 853/4/1 854/3/1 855/7/1 856/8/1
f 857/4/1 858/3/1 859/7/1 860/8/1
f 861/4/1 862/3/1 863/7/1 864/8/1
f 865/4/1 866/3/1 867/7/1 868/8/1
f 869/4/1 870/3/1 871/7/1 872/8/1
f 873/4/1 874/3/1 875/7/1 876/8/1
f 877/4/1 878/3/1 879/7/1 880/8/1
f 881/4/1 882/3/1 883/7/1 884/8/1
f 885/4/1 886/3/1 887/7/1 888/8/1
f 889/4/1 890/3/1 891/7/1 892/8/1
f 893/4/1 894/3/1 895/7/1 896/8/1
f 897/1/1 898/2/1 899/3/1 900/4/1
f 901/1/1 902/2/1 903/3/1 904/4/1
f 905/1/1 906/2/1 907/3/1 908/4/1
f 909/1/1 910/2/1 911/3/1 912/4/1
f 913/1/1 914/2/1 915/3/1 916/4/1
f 917/1/1 918/2/1 919/3/1 920/4/1
f 921/1/1 922/2/1 923/3/1 924/4/1
f 925/1/1 926/2/1 927/3/1 928/4/1
f 929/1/1 930/2/1 931/3/1 932/4/1
f 933/1/1 934/2/1 935/3/1 936/4/1
f 937/1/1 938/2/1 939/3/1 940/4/1
f 941/1/1 942/2/1 943/3/1 944/4/1
f 945/1/1 946/2/1 947/3/1 948/4/1
f 949/1/1 950/2/1 951/3/1 952/4/1
f 953/1/1 954/2/1 955/3/1 956/4/1
f 957/1/1 958/2/1 959/3/1 960/4/1
f 961/9/1 962/10/1 963/2/1 964/1/1
f 965/9/1 966/10/1 967/2/1 968/1/1
f 969/9/1 970/10/1 971/2/1 972/1/1
f 973/9/1 974/10/1 975/2/1 976/1/1
f 977/9/1 978/10/1 979/2/1 980/1/1
f 981/9/1 982/10/1 983/2/1 984/1/1
f 985/9/1 986/10/1 987/2/1 988/1/1
f 989/9/1 990/10/1 991/2/1 992/1/1
f 993/9/1 994/10/1 995/2/1 996/1/1
f 997/9/1 998/10/1 999/2/1 1000/1/1
f 1001/9/1 1002/10/1 1003/2/1 1004/1/1
f 1005/9/1 1006/10/1 1007/2/1 1008/1/1
f 1009/9/1 1010/10/1 1011/2/1 1012/1/1
f 1013/9/1 1014/10/1 1015/2/1 1016/1/1
f 1017/9/1 1018/10/1 1019/2/1 1020/1/1
f 1021/9/1 1022/10/1 1023/2/1 1024/1/1

