# Tiled2Unity generated file. Do not modify by hand.
# Wavefront file for '2ScenarioPlataforma_mesh_0169.obj'

# Vertices (Count = 1024)
v 0 -16 0
v -16 -16 0
v -16 0 0
v 0 0 0
v -16 -16 0
v -32 -16 0
v -32 0 0
v -16 0 0
v -32 -16 0
v -48 -16 0
v -48 0 0
v -32 0 0
v -48 -16 0
v -64 -16 0
v -64 0 0
v -48 0 0
v -64 -16 0
v -80 -16 0
v -80 0 0
v -64 0 0
v -80 -16 0
v -96 -16 0
v -96 0 0
v -80 0 0
v -96 -16 0
v -112 -16 0
v -112 0 0
v -96 0 0
v -112 -16 0
v -128 -16 0
v -128 0 0
v -112 0 0
v -128 -16 0
v -144 -16 0
v -144 0 0
v -128 0 0
v -144 -16 0
v -160 -16 0
v -160 0 0
v -144 0 0
v -160 -16 0
v -176 -16 0
v -176 0 0
v -160 0 0
v -176 -16 0
v -192 -16 0
v -192 0 0
v -176 0 0
v -192 -16 0
v -208 -16 0
v -208 0 0
v -192 0 0
v -208 -16 0
v -224 -16 0
v -224 0 0
v -208 0 0
v -224 -16 0
v -240 -16 0
v -240 0 0
v -224 0 0
v -240 -16 0
v -256 -16 0
v -256 0 0
v -240 0 0
v 0 -32 0
v -16 -32 0
v -16 -16 0
v 0 -16 0
v -16 -32 0
v -32 -32 0
v -32 -16 0
v -16 -16 0
v -32 -32 0
v -48 -32 0
v -48 -16 0
v -32 -16 0
v -48 -32 0
v -64 -32 0
v -64 -16 0
v -48 -16 0
v -64 -32 0
v -80 -32 0
v -80 -16 0
v -64 -16 0
v -80 -32 0
v -96 -32 0
v -96 -16 0
v -80 -16 0
v -96 -32 0
v -112 -32 0
v -112 -16 0
v -96 -16 0
v -112 -32 0
v -128 -32 0
v -128 -16 0
v -112 -16 0
v -128 -32 0
v -144 -32 0
v -144 -16 0
v -128 -16 0
v -144 -32 0
v -160 -32 0
v -160 -16 0
v -144 -16 0
v -160 -32 0
v -176 -32 0
v -176 -16 0
v -160 -16 0
v -176 -32 0
v -192 -32 0
v -192 -16 0
v -176 -16 0
v -192 -32 0
v -208 -32 0
v -208 -16 0
v -192 -16 0
v -208 -32 0
v -224 -32 0
v -224 -16 0
v -208 -16 0
v -224 -32 0
v -240 -32 0
v -240 -16 0
v -224 -16 0
v -240 -32 0
v -256 -32 0
v -256 -16 0
v -240 -16 0
v 0 -48 0
v -16 -48 0
v -16 -32 0
v 0 -32 0
v -16 -48 0
v -32 -48 0
v -32 -32 0
v -16 -32 0
v -32 -48 0
v -48 -48 0
v -48 -32 0
v -32 -32 0
v -48 -48 0
v -64 -48 0
v -64 -32 0
v -48 -32 0
v -64 -48 0
v -80 -48 0
v -80 -32 0
v -64 -32 0
v -80 -48 0
v -96 -48 0
v -96 -32 0
v -80 -32 0
v -96 -48 0
v -112 -48 0
v -112 -32 0
v -96 -32 0
v -112 -48 0
v -128 -48 0
v -128 -32 0
v -112 -32 0
v -128 -48 0
v -144 -48 0
v -144 -32 0
v -128 -32 0
v -144 -48 0
v -160 -48 0
v -160 -32 0
v -144 -32 0
v -160 -48 0
v -176 -48 0
v -176 -32 0
v -160 -32 0
v -176 -48 0
v -192 -48 0
v -192 -32 0
v -176 -32 0
v -192 -48 0
v -208 -48 0
v -208 -32 0
v -192 -32 0
v -208 -48 0
v -224 -48 0
v -224 -32 0
v -208 -32 0
v -224 -48 0
v -240 -48 0
v -240 -32 0
v -224 -32 0
v -240 -48 0
v -256 -48 0
v -256 -32 0
v -240 -32 0
v 0 -64 0
v -16 -64 0
v -16 -48 0
v 0 -48 0
v -16 -64 0
v -32 -64 0
v -32 -48 0
v -16 -48 0
v -32 -64 0
v -48 -64 0
v -48 -48 0
v -32 -48 0
v -48 -64 0
v -64 -64 0
v -64 -48 0
v -48 -48 0
v -64 -64 0
v -80 -64 0
v -80 -48 0
v -64 -48 0
v -80 -64 0
v -96 -64 0
v -96 -48 0
v -80 -48 0
v -96 -64 0
v -112 -64 0
v -112 -48 0
v -96 -48 0
v -112 -64 0
v -128 -64 0
v -128 -48 0
v -112 -48 0
v -128 -64 0
v -144 -64 0
v -144 -48 0
v -128 -48 0
v -144 -64 0
v -160 -64 0
v -160 -48 0
v -144 -48 0
v -160 -64 0
v -176 -64 0
v -176 -48 0
v -160 -48 0
v -176 -64 0
v -192 -64 0
v -192 -48 0
v -176 -48 0
v -192 -64 0
v -208 -64 0
v -208 -48 0
v -192 -48 0
v -208 -64 0
v -224 -64 0
v -224 -48 0
v -208 -48 0
v -224 -64 0
v -240 -64 0
v -240 -48 0
v -224 -48 0
v -240 -64 0
v -256 -64 0
v -256 -48 0
v -240 -48 0
v 0 -80 0
v -16 -80 0
v -16 -64 0
v 0 -64 0
v -16 -80 0
v -32 -80 0
v -32 -64 0
v -16 -64 0
v -32 -80 0
v -48 -80 0
v -48 -64 0
v -32 -64 0
v -48 -80 0
v -64 -80 0
v -64 -64 0
v -48 -64 0
v -64 -80 0
v -80 -80 0
v -80 -64 0
v -64 -64 0
v -80 -80 0
v -96 -80 0
v -96 -64 0
v -80 -64 0
v -96 -80 0
v -112 -80 0
v -112 -64 0
v -96 -64 0
v -112 -80 0
v -128 -80 0
v -128 -64 0
v -112 -64 0
v -128 -80 0
v -144 -80 0
v -144 -64 0
v -128 -64 0
v -144 -80 0
v -160 -80 0
v -160 -64 0
v -144 -64 0
v -160 -80 0
v -176 -80 0
v -176 -64 0
v -160 -64 0
v -176 -80 0
v -192 -80 0
v -192 -64 0
v -176 -64 0
v -192 -80 0
v -208 -80 0
v -208 -64 0
v -192 -64 0
v -208 -80 0
v -224 -80 0
v -224 -64 0
v -208 -64 0
v -224 -80 0
v -240 -80 0
v -240 -64 0
v -224 -64 0
v -240 -80 0
v -256 -80 0
v -256 -64 0
v -240 -64 0
v 0 -96 0
v -16 -96 0
v -16 -80 0
v 0 -80 0
v -16 -96 0
v -32 -96 0
v -32 -80 0
v -16 -80 0
v -32 -96 0
v -48 -96 0
v -48 -80 0
v -32 -80 0
v -48 -96 0
v -64 -96 0
v -64 -80 0
v -48 -80 0
v -64 -96 0
v -80 -96 0
v -80 -80 0
v -64 -80 0
v -80 -96 0
v -96 -96 0
v -96 -80 0
v -80 -80 0
v -96 -96 0
v -112 -96 0
v -112 -80 0
v -96 -80 0
v -112 -96 0
v -128 -96 0
v -128 -80 0
v -112 -80 0
v -128 -96 0
v -144 -96 0
v -144 -80 0
v -128 -80 0
v -144 -96 0
v -160 -96 0
v -160 -80 0
v -144 -80 0
v -160 -96 0
v -176 -96 0
v -176 -80 0
v -160 -80 0
v -176 -96 0
v -192 -96 0
v -192 -80 0
v -176 -80 0
v -192 -96 0
v -208 -96 0
v -208 -80 0
v -192 -80 0
v -208 -96 0
v -224 -96 0
v -224 -80 0
v -208 -80 0
v -224 -96 0
v -240 -96 0
v -240 -80 0
v -224 -80 0
v -240 -96 0
v -256 -96 0
v -256 -80 0
v -240 -80 0
v 0 -112 0
v -16 -112 0
v -16 -96 0
v 0 -96 0
v -16 -112 0
v -32 -112 0
v -32 -96 0
v -16 -96 0
v -32 -112 0
v -48 -112 0
v -48 -96 0
v -32 -96 0
v -48 -112 0
v -64 -112 0
v -64 -96 0
v -48 -96 0
v -64 -112 0
v -80 -112 0
v -80 -96 0
v -64 -96 0
v -80 -112 0
v -96 -112 0
v -96 -96 0
v -80 -96 0
v -96 -112 0
v -112 -112 0
v -112 -96 0
v -96 -96 0
v -112 -112 0
v -128 -112 0
v -128 -96 0
v -112 -96 0
v -128 -112 0
v -144 -112 0
v -144 -96 0
v -128 -96 0
v -144 -112 0
v -160 -112 0
v -160 -96 0
v -144 -96 0
v -160 -112 0
v -176 -112 0
v -176 -96 0
v -160 -96 0
v -176 -112 0
v -192 -112 0
v -192 -96 0
v -176 -96 0
v -192 -112 0
v -208 -112 0
v -208 -96 0
v -192 -96 0
v -208 -112 0
v -224 -112 0
v -224 -96 0
v -208 -96 0
v -224 -112 0
v -240 -112 0
v -240 -96 0
v -224 -96 0
v -240 -112 0
v -256 -112 0
v -256 -96 0
v -240 -96 0
v 0 -128 0
v -16 -128 0
v -16 -112 0
v 0 -112 0
v -16 -128 0
v -32 -128 0
v -32 -112 0
v -16 -112 0
v -32 -128 0
v -48 -128 0
v -48 -112 0
v -32 -112 0
v -48 -128 0
v -64 -128 0
v -64 -112 0
v -48 -112 0
v -64 -128 0
v -80 -128 0
v -80 -112 0
v -64 -112 0
v -80 -128 0
v -96 -128 0
v -96 -112 0
v -80 -112 0
v -96 -128 0
v -112 -128 0
v -112 -112 0
v -96 -112 0
v -112 -128 0
v -128 -128 0
v -128 -112 0
v -112 -112 0
v -128 -128 0
v -144 -128 0
v -144 -112 0
v -128 -112 0
v -144 -128 0
v -160 -128 0
v -160 -112 0
v -144 -112 0
v -160 -128 0
v -176 -128 0
v -176 -112 0
v -160 -112 0
v -176 -128 0
v -192 -128 0
v -192 -112 0
v -176 -112 0
v -192 -128 0
v -208 -128 0
v -208 -112 0
v -192 -112 0
v -208 -128 0
v -224 -128 0
v -224 -112 0
v -208 -112 0
v -224 -128 0
v -240 -128 0
v -240 -112 0
v -224 -112 0
v -240 -128 0
v -256 -128 0
v -256 -112 0
v -240 -112 0
v 0 -144 0
v -16 -144 0
v -16 -128 0
v 0 -128 0
v -16 -144 0
v -32 -144 0
v -32 -128 0
v -16 -128 0
v -32 -144 0
v -48 -144 0
v -48 -128 0
v -32 -128 0
v -48 -144 0
v -64 -144 0
v -64 -128 0
v -48 -128 0
v -64 -144 0
v -80 -144 0
v -80 -128 0
v -64 -128 0
v -80 -144 0
v -96 -144 0
v -96 -128 0
v -80 -128 0
v -96 -144 0
v -112 -144 0
v -112 -128 0
v -96 -128 0
v -112 -144 0
v -128 -144 0
v -128 -128 0
v -112 -128 0
v -128 -144 0
v -144 -144 0
v -144 -128 0
v -128 -128 0
v -144 -144 0
v -160 -144 0
v -160 -128 0
v -144 -128 0
v -160 -144 0
v -176 -144 0
v -176 -128 0
v -160 -128 0
v -176 -144 0
v -192 -144 0
v -192 -128 0
v -176 -128 0
v -192 -144 0
v -208 -144 0
v -208 -128 0
v -192 -128 0
v -208 -144 0
v -224 -144 0
v -224 -128 0
v -208 -128 0
v -224 -144 0
v -240 -144 0
v -240 -128 0
v -224 -128 0
v -240 -144 0
v -256 -144 0
v -256 -128 0
v -240 -128 0
v 0 -160 0
v -16 -160 0
v -16 -144 0
v 0 -144 0
v -16 -160 0
v -32 -160 0
v -32 -144 0
v -16 -144 0
v -32 -160 0
v -48 -160 0
v -48 -144 0
v -32 -144 0
v -48 -160 0
v -64 -160 0
v -64 -144 0
v -48 -144 0
v -64 -160 0
v -80 -160 0
v -80 -144 0
v -64 -144 0
v -80 -160 0
v -96 -160 0
v -96 -144 0
v -80 -144 0
v -96 -160 0
v -112 -160 0
v -112 -144 0
v -96 -144 0
v -112 -160 0
v -128 -160 0
v -128 -144 0
v -112 -144 0
v -128 -160 0
v -144 -160 0
v -144 -144 0
v -128 -144 0
v -144 -160 0
v -160 -160 0
v -160 -144 0
v -144 -144 0
v -160 -160 0
v -176 -160 0
v -176 -144 0
v -160 -144 0
v -176 -160 0
v -192 -160 0
v -192 -144 0
v -176 -144 0
v -192 -160 0
v -208 -160 0
v -208 -144 0
v -192 -144 0
v -208 -160 0
v -224 -160 0
v -224 -144 0
v -208 -144 0
v -224 -160 0
v -240 -160 0
v -240 -144 0
v -224 -144 0
v -240 -160 0
v -256 -160 0
v -256 -144 0
v -240 -144 0
v 0 -176 0
v -16 -176 0
v -16 -160 0
v 0 -160 0
v -16 -176 0
v -32 -176 0
v -32 -160 0
v -16 -160 0
v -32 -176 0
v -48 -176 0
v -48 -160 0
v -32 -160 0
v -48 -176 0
v -64 -176 0
v -64 -160 0
v -48 -160 0
v -64 -176 0
v -80 -176 0
v -80 -160 0
v -64 -160 0
v -80 -176 0
v -96 -176 0
v -96 -160 0
v -80 -160 0
v -96 -176 0
v -112 -176 0
v -112 -160 0
v -96 -160 0
v -112 -176 0
v -128 -176 0
v -128 -160 0
v -112 -160 0
v -128 -176 0
v -144 -176 0
v -144 -160 0
v -128 -160 0
v -144 -176 0
v -160 -176 0
v -160 -160 0
v -144 -160 0
v -160 -176 0
v -176 -176 0
v -176 -160 0
v -160 -160 0
v -176 -176 0
v -192 -176 0
v -192 -160 0
v -176 -160 0
v -192 -176 0
v -208 -176 0
v -208 -160 0
v -192 -160 0
v -208 -176 0
v -224 -176 0
v -224 -160 0
v -208 -160 0
v -224 -176 0
v -240 -176 0
v -240 -160 0
v -224 -160 0
v -240 -176 0
v -256 -176 0
v -256 -160 0
v -240 -160 0
v 0 -192 0
v -16 -192 0
v -16 -176 0
v 0 -176 0
v -16 -192 0
v -32 -192 0
v -32 -176 0
v -16 -176 0
v -32 -192 0
v -48 -192 0
v -48 -176 0
v -32 -176 0
v -48 -192 0
v -64 -192 0
v -64 -176 0
v -48 -176 0
v -64 -192 0
v -80 -192 0
v -80 -176 0
v -64 -176 0
v -80 -192 0
v -96 -192 0
v -96 -176 0
v -80 -176 0
v -96 -192 0
v -112 -192 0
v -112 -176 0
v -96 -176 0
v -112 -192 0
v -128 -192 0
v -128 -176 0
v -112 -176 0
v -128 -192 0
v -144 -192 0
v -144 -176 0
v -128 -176 0
v -144 -192 0
v -160 -192 0
v -160 -176 0
v -144 -176 0
v -160 -192 0
v -176 -192 0
v -176 -176 0
v -160 -176 0
v -176 -192 0
v -192 -192 0
v -192 -176 0
v -176 -176 0
v -192 -192 0
v -208 -192 0
v -208 -176 0
v -192 -176 0
v -208 -192 0
v -224 -192 0
v -224 -176 0
v -208 -176 0
v -224 -192 0
v -240 -192 0
v -240 -176 0
v -224 -176 0
v -240 -192 0
v -256 -192 0
v -256 -176 0
v -240 -176 0
v 0 -208 0
v -16 -208 0
v -16 -192 0
v 0 -192 0
v -16 -208 0
v -32 -208 0
v -32 -192 0
v -16 -192 0
v -32 -208 0
v -48 -208 0
v -48 -192 0
v -32 -192 0
v -48 -208 0
v -64 -208 0
v -64 -192 0
v -48 -192 0
v -64 -208 0
v -80 -208 0
v -80 -192 0
v -64 -192 0
v -80 -208 0
v -96 -208 0
v -96 -192 0
v -80 -192 0
v -96 -208 0
v -112 -208 0
v -112 -192 0
v -96 -192 0
v -112 -208 0
v -128 -208 0
v -128 -192 0
v -112 -192 0
v -128 -208 0
v -144 -208 0
v -144 -192 0
v -128 -192 0
v -144 -208 0
v -160 -208 0
v -160 -192 0
v -144 -192 0
v -160 -208 0
v -176 -208 0
v -176 -192 0
v -160 -192 0
v -176 -208 0
v -192 -208 0
v -192 -192 0
v -176 -192 0
v -192 -208 0
v -208 -208 0
v -208 -192 0
v -192 -192 0
v -208 -208 0
v -224 -208 0
v -224 -192 0
v -208 -192 0
v -224 -208 0
v -240 -208 0
v -240 -192 0
v -224 -192 0
v -240 -208 0
v -256 -208 0
v -256 -192 0
v -240 -192 0
v 0 -224 0
v -16 -224 0
v -16 -208 0
v 0 -208 0
v -16 -224 0
v -32 -224 0
v -32 -208 0
v -16 -208 0
v -32 -224 0
v -48 -224 0
v -48 -208 0
v -32 -208 0
v -48 -224 0
v -64 -224 0
v -64 -208 0
v -48 -208 0
v -64 -224 0
v -80 -224 0
v -80 -208 0
v -64 -208 0
v -80 -224 0
v -96 -224 0
v -96 -208 0
v -80 -208 0
v -96 -224 0
v -112 -224 0
v -112 -208 0
v -96 -208 0
v -112 -224 0
v -128 -224 0
v -128 -208 0
v -112 -208 0
v -128 -224 0
v -144 -224 0
v -144 -208 0
v -128 -208 0
v -144 -224 0
v -160 -224 0
v -160 -208 0
v -144 -208 0
v -160 -224 0
v -176 -224 0
v -176 -208 0
v -160 -208 0
v -176 -224 0
v -192 -224 0
v -192 -208 0
v -176 -208 0
v -192 -224 0
v -208 -224 0
v -208 -208 0
v -192 -208 0
v -208 -224 0
v -224 -224 0
v -224 -208 0
v -208 -208 0
v -224 -224 0
v -240 -224 0
v -240 -208 0
v -224 -208 0
v -240 -224 0
v -256 -224 0
v -256 -208 0
v -240 -208 0
v 0 -240 0
v -16 -240 0
v -16 -224 0
v 0 -224 0
v -16 -240 0
v -32 -240 0
v -32 -224 0
v -16 -224 0
v -32 -240 0
v -48 -240 0
v -48 -224 0
v -32 -224 0
v -48 -240 0
v -64 -240 0
v -64 -224 0
v -48 -224 0
v -64 -240 0
v -80 -240 0
v -80 -224 0
v -64 -224 0
v -80 -240 0
v -96 -240 0
v -96 -224 0
v -80 -224 0
v -96 -240 0
v -112 -240 0
v -112 -224 0
v -96 -224 0
v -112 -240 0
v -128 -240 0
v -128 -224 0
v -112 -224 0
v -128 -240 0
v -144 -240 0
v -144 -224 0
v -128 -224 0
v -144 -240 0
v -160 -240 0
v -160 -224 0
v -144 -224 0
v -160 -240 0
v -176 -240 0
v -176 -224 0
v -160 -224 0
v -176 -240 0
v -192 -240 0
v -192 -224 0
v -176 -224 0
v -192 -240 0
v -208 -240 0
v -208 -224 0
v -192 -224 0
v -208 -240 0
v -224 -240 0
v -224 -224 0
v -208 -224 0
v -224 -240 0
v -240 -240 0
v -240 -224 0
v -224 -224 0
v -240 -240 0
v -256 -240 0
v -256 -224 0
v -240 -224 0
v 0 -256 0
v -16 -256 0
v -16 -240 0
v 0 -240 0
v -16 -256 0
v -32 -256 0
v -32 -240 0
v -16 -240 0
v -32 -256 0
v -48 -256 0
v -48 -240 0
v -32 -240 0
v -48 -256 0
v -64 -256 0
v -64 -240 0
v -48 -240 0
v -64 -256 0
v -80 -256 0
v -80 -240 0
v -64 -240 0
v -80 -256 0
v -96 -256 0
v -96 -240 0
v -80 -240 0
v -96 -256 0
v -112 -256 0
v -112 -240 0
v -96 -240 0
v -112 -256 0
v -128 -256 0
v -128 -240 0
v -112 -240 0
v -128 -256 0
v -144 -256 0
v -144 -240 0
v -128 -240 0
v -144 -256 0
v -160 -256 0
v -160 -240 0
v -144 -240 0
v -160 -256 0
v -176 -256 0
v -176 -240 0
v -160 -240 0
v -176 -256 0
v -192 -256 0
v -192 -240 0
v -176 -240 0
v -192 -256 0
v -208 -256 0
v -208 -240 0
v -192 -240 0
v -208 -256 0
v -224 -256 0
v -224 -240 0
v -208 -240 0
v -224 -256 0
v -240 -256 0
v -240 -240 0
v -224 -240 0
v -240 -256 0
v -256 -256 0
v -256 -240 0
v -240 -240 0

# Texture cooridinates (Count = 43)
vt 0.9787234 0.75
vt 0.9893617 0.75
vt 0.9893617 0.8125
vt 0.9787234 0.8125
vt 1 0.75
vt 1 0.8125
vt 0.9468085 0.75
vt 0.9574468 0.75
vt 0.9574468 0.8125
vt 0.9468085 0.8125
vt 0.9680851 0.75
vt 0.9680851 0.8125
vt 0.9787234 0.6875
vt 0.9893617 0.6875
vt 1 0.6875
vt 0.9468085 0.6875
vt 0.9574468 0.6875
vt 0.9680851 0.6875
vt 0.3404255 0.75
vt 0.3510638 0.75
vt 0.3510638 0.8125
vt 0.3404255 0.8125
vt 0.9574468 0.625
vt 0.9680851 0.625
vt 0.9574468 0.5625
vt 0.9680851 0.5625
vt 0.1170213 0.4375
vt 0.106383 0.4375
vt 0.106383 0.5
vt 0.1170213 0.5
vt 0.1170213 0.375
vt 0.106383 0.375
vt 0.6702127 0.375
vt 0.680851 0.375
vt 0.680851 0.4375
vt 0.6702127 0.4375
vt 0.1276596 0.4375
vt 0.1276596 0.5
vt 0.1276596 0.375
vt 0.6702127 0.3125
vt 0.680851 0.3125
vt 0.6702127 0.25
vt 0.680851 0.25

# Normal
vn 0 0 -1

# Mesh description
g 2ScenarioPlataforma_mesh_0169

# Faces
f 1/1/1 2/2/1 3/3/1 4/4/1
f 5/2/1 6/5/1 7/6/1 8/3/1
f 9/7/1 10/8/1 11/9/1 12/10/1
f 13/8/1 14/11/1 15/12/1 16/9/1
f 17/11/1 18/1/1 19/4/1 20/12/1
f 21/1/1 22/2/1 23/3/1 24/4/1
f 25/2/1 26/5/1 27/6/1 28/3/1
f 29/7/1 30/8/1 31/9/1 32/10/1
f 33/8/1 34/11/1 35/12/1 36/9/1
f 37/11/1 38/1/1 39/4/1 40/12/1
f 41/1/1 42/2/1 43/3/1 44/4/1
f 45/2/1 46/5/1 47/6/1 48/3/1
f 49/7/1 50/8/1 51/9/1 52/10/1
f 53/8/1 54/11/1 55/12/1 56/9/1
f 57/11/1 58/1/1 59/4/1 60/12/1
f 61/1/1 62/2/1 63/3/1 64/4/1
f 65/13/1 66/14/1 67/2/1 68/1/1
f 69/14/1 70/15/1 71/5/1 72/2/1
f 73/16/1 74/17/1 75/8/1 76/7/1
f 77/17/1 78/18/1 79/11/1 80/8/1
f 81/18/1 82/13/1 83/1/1 84/11/1
f 85/13/1 86/14/1 87/2/1 88/1/1
f 89/14/1 90/15/1 91/5/1 92/2/1
f 93/16/1 94/17/1 95/8/1 96/7/1
f 97/17/1 98/18/1 99/11/1 100/8/1
f 101/18/1 102/13/1 103/1/1 104/11/1
f 105/13/1 106/14/1 107/2/1 108/1/1
f 109/14/1 110/15/1 111/5/1 112/2/1
f 113/16/1 114/17/1 115/8/1 116/7/1
f 117/17/1 118/18/1 119/11/1 120/8/1
f 121/18/1 122/13/1 123/1/1 124/11/1
f 125/13/1 126/14/1 127/2/1 128/1/1
f 129/19/1 130/20/1 131/21/1 132/22/1
f 133/19/1 134/20/1 135/21/1 136/22/1
f 137/19/1 138/20/1 139/21/1 140/22/1
f 141/19/1 142/20/1 143/21/1 144/22/1
f 145/23/1 146/24/1 147/18/1 148/17/1
f 149/19/1 150/20/1 151/21/1 152/22/1
f 153/19/1 154/20/1 155/21/1 156/22/1
f 157/19/1 158/20/1 159/21/1 160/22/1
f 161/19/1 162/20/1 163/21/1 164/22/1
f 165/19/1 166/20/1 167/21/1 168/22/1
f 169/19/1 170/20/1 171/21/1 172/22/1
f 173/23/1 174/24/1 175/18/1 176/17/1
f 177/19/1 178/20/1 179/21/1 180/22/1
f 181/19/1 182/20/1 183/21/1 184/22/1
f 185/19/1 186/20/1 187/21/1 188/22/1
f 189/19/1 190/20/1 191/21/1 192/22/1
f 193/19/1 194/20/1 195/21/1 196/22/1
f 197/19/1 198/20/1 199/21/1 200/22/1
f 201/19/1 202/20/1 203/21/1 204/22/1
f 205/19/1 206/20/1 207/21/1 208/22/1
f 209/25/1 210/26/1 211/24/1 212/23/1
f 213/19/1 214/20/1 215/21/1 216/22/1
f 217/19/1 218/20/1 219/21/1 220/22/1
f 221/19/1 222/20/1 223/21/1 224/22/1
f 225/19/1 226/20/1 227/21/1 228/22/1
f 229/19/1 230/20/1 231/21/1 232/22/1
f 233/19/1 234/20/1 235/21/1 236/22/1
f 237/25/1 238/26/1 239/24/1 240/23/1
f 241/19/1 242/20/1 243/21/1 244/22/1
f 245/19/1 246/20/1 247/21/1 248/22/1
f 249/27/1 250/28/1 251/29/1 252/30/1
f 253/31/1 254/32/1 255/28/1 256/27/1
f 257/19/1 258/20/1 259/21/1 260/22/1
f 261/19/1 262/20/1 263/21/1 264/22/1
f 265/19/1 266/20/1 267/21/1 268/22/1
f 269/19/1 270/20/1 271/21/1 272/22/1
f 273/33/1 274/34/1 275/35/1 276/36/1
f 277/19/1 278/20/1 279/21/1 280/22/1
f 281/19/1 282/20/1 283/21/1 284/22/1
f 285/19/1 286/20/1 287/21/1 288/22/1
f 289/19/1 290/20/1 291/21/1 292/22/1
f 293/19/1 294/20/1 295/21/1 296/22/1
f 297/19/1 298/20/1 299/21/1 300/22/1
f 301/33/1 302/34/1 303/35/1 304/36/1
f 305/19/1 306/20/1 307/21/1 308/22/1
f 309/19/1 310/20/1 311/21/1 312/22/1
f 313/19/1 314/20/1 315/21/1 316/22/1
f 317/19/1 318/20/1 319/21/1 320/22/1
f 321/37/1 322/27/1 323/30/1 324/38/1
f 325/27/1 326/28/1 327/29/1 328/30/1
f 329/19/1 330/20/1 331/21/1 332/22/1
f 333/19/1 334/20/1 335/21/1 336/22/1
f 337/33/1 338/34/1 339/35/1 340/36/1
f 341/19/1 342/20/1 343/21/1 344/22/1
f 345/19/1 346/20/1 347/21/1 348/22/1
f 349/19/1 350/20/1 351/21/1 352/22/1
f 353/19/1 354/20/1 355/21/1 356/22/1
f 357/19/1 358/20/1 359/21/1 360/22/1
f 361/19/1 362/20/1 363/21/1 364/22/1
f 365/33/1 366/34/1 367/35/1 368/36/1
f 369/19/1 370/20/1 371/21/1 372/22/1
f 373/19/1 374/20/1 375/21/1 376/22/1
f 377/19/1 378/20/1 379/21/1 380/22/1
f 381/19/1 382/20/1 383/21/1 384/22/1
f 385/27/1 386/28/1 387/29/1 388/30/1
f 389/27/1 390/28/1 391/29/1 392/30/1
f 393/19/1 394/20/1 395/21/1 396/22/1
f 397/19/1 398/20/1 399/21/1 400/22/1
f 401/33/1 402/34/1 403/35/1 404/36/1
f 405/19/1 406/20/1 407/21/1 408/22/1
f 409/19/1 410/20/1 411/21/1 412/22/1
f 413/19/1 414/20/1 415/21/1 416/22/1
f 417/19/1 418/20/1 419/21/1 420/22/1
f 421/19/1 422/20/1 423/21/1 424/22/1
f 425/19/1 426/20/1 427/21/1 428/22/1
f 429/33/1 430/34/1 431/35/1 432/36/1
f 433/19/1 434/20/1 435/21/1 436/22/1
f 437/19/1 438/20/1 439/21/1 440/22/1
f 441/19/1 442/20/1 443/21/1 444/22/1
f 445/19/1 446/20/1 447/21/1 448/22/1
f 449/27/1 450/28/1 451/29/1 452/30/1
f 453/31/1 454/32/1 455/28/1 456/27/1
f 457/19/1 458/20/1 459/21/1 460/22/1
f 461/19/1 462/20/1 463/21/1 464/22/1
f 465/33/1 466/34/1 467/35/1 468/36/1
f 469/19/1 470/20/1 471/21/1 472/22/1
f 473/37/1 474/27/1 475/30/1 476/38/1
f 477/27/1 478/28/1 479/29/1 480/30/1
f 481/19/1 482/20/1 483/21/1 484/22/1
f 485/19/1 486/20/1 487/21/1 488/22/1
f 489/19/1 490/20/1 491/21/1 492/22/1
f 493/33/1 494/34/1 495/35/1 496/36/1
f 497/19/1 498/20/1 499/21/1 500/22/1
f 501/19/1 502/20/1 503/21/1 504/22/1
f 505/19/1 506/20/1 507/21/1 508/22/1
f 509/19/1 510/20/1 511/21/1 512/22/1
f 513/31/1 514/32/1 515/28/1 516/27/1
f 517/19/1 518/20/1 519/21/1 520/22/1
f 521/19/1 522/20/1 523/21/1 524/22/1
f 525/19/1 526/20/1 527/21/1 528/22/1
f 529/33/1 530/34/1 531/35/1 532/36/1
f 533/19/1 534/20/1 535/21/1 536/22/1
f 537/37/1 538/27/1 539/30/1 540/38/1
f 541/37/1 542/27/1 543/30/1 544/38/1
f 545/27/1 546/28/1 547/29/1 548/30/1
f 549/19/1 550/20/1 551/21/1 552/22/1
f 553/19/1 554/20/1 555/21/1 556/22/1
f 557/33/1 558/34/1 559/35/1 560/36/1
f 561/19/1 562/20/1 563/21/1 564/22/1
f 565/19/1 566/20/1 567/21/1 568/22/1
f 569/19/1 570/20/1 571/21/1 572/22/1
f 573/19/1 574/20/1 575/21/1 576/22/1
f 577/19/1 578/20/1 579/21/1 580/22/1
f 581/19/1 582/20/1 583/21/1 584/22/1
f 585/19/1 586/20/1 587/21/1 588/22/1
f 589/19/1 590/20/1 591/21/1 592/22/1
f 593/33/1 594/34/1 595/35/1 596/36/1
f 597/19/1 598/20/1 599/21/1 600/22/1
f 601/39/1 602/31/1 603/27/1 604/37/1
f 605/37/1 606/27/1 607/30/1 608/38/1
f 609/27/1 610/28/1 611/29/1 612/30/1
f 613/19/1 614/20/1 615/21/1 616/22/1
f 617/19/1 618/20/1 619/21/1 620/22/1
f 621/33/1 622/34/1 623/35/1 624/36/1
f 625/19/1 626/20/1 627/21/1 628/22/1
f 629/19/1 630/20/1 631/21/1 632/22/1
f 633/19/1 634/20/1 635/21/1 636/22/1
f 637/19/1 638/20/1 639/21/1 640/22/1
f 641/19/1 642/20/1 643/21/1 644/22/1
f 645/19/1 646/20/1 647/21/1 648/22/1
f 649/19/1 650/20/1 651/21/1 652/22/1
f 653/19/1 654/20/1 655/21/1 656/22/1
f 657/33/1 658/34/1 659/35/1 660/36/1
f 661/37/1 662/27/1 663/30/1 664/38/1
f 665/27/1 666/28/1 667/29/1 668/30/1
f 669/27/1 670/28/1 671/29/1 672/30/1
f 673/27/1 674/28/1 675/29/1 676/30/1
f 677/19/1 678/20/1 679/21/1 680/22/1
f 681/19/1 682/20/1 683/21/1 684/22/1
f 685/33/1 686/34/1 687/35/1 688/36/1
f 689/19/1 690/20/1 691/21/1 692/22/1
f 693/19/1 694/20/1 695/21/1 696/22/1
f 697/19/1 698/20/1 699/21/1 700/22/1
f 701/19/1 702/20/1 703/21/1 704/22/1
f 705/19/1 706/20/1 707/21/1 708/22/1
f 709/19/1 710/20/1 711/21/1 712/22/1
f 713/19/1 714/20/1 715/21/1 716/22/1
f 717/19/1 718/20/1 719/21/1 720/22/1
f 721/33/1 722/34/1 723/35/1 724/36/1
f 725/39/1 726/31/1 727/27/1 728/37/1
f 729/31/1 730/32/1 731/28/1 732/27/1
f 733/31/1 734/32/1 735/28/1 736/27/1
f 737/31/1 738/32/1 739/28/1 740/27/1
f 741/19/1 742/20/1 743/21/1 744/22/1
f 745/19/1 746/20/1 747/21/1 748/22/1
f 749/33/1 750/34/1 751/35/1 752/36/1
f 753/19/1 754/20/1 755/21/1 756/22/1
f 757/19/1 758/20/1 759/21/1 760/22/1
f 761/19/1 762/20/1 763/21/1 764/22/1
f 765/19/1 766/20/1 767/21/1 768/22/1
f 769/19/1 770/20/1 771/21/1 772/22/1
f 773/19/1 774/20/1 775/21/1 776/22/1
f 777/19/1 778/20/1 779/21/1 780/22/1
f 781/19/1 782/20/1 783/21/1 784/22/1
f 785/33/1 786/34/1 787/35/1 788/36/1
f 789/19/1 790/20/1 791/21/1 792/22/1
f 793/19/1 794/20/1 795/21/1 796/22/1
f 797/19/1 798/20/1 799/21/1 800/22/1
f 801/19/1 802/20/1 803/21/1 804/22/1
f 805/19/1 806/20/1 807/21/1 808/22/1
f 809/19/1 810/20/1 811/21/1 812/22/1
f 813/33/1 814/34/1 815/35/1 816/36/1
f 817/19/1 818/20/1 819/21/1 820/22/1
f 821/19/1 822/20/1 823/21/1 824/22/1
f 825/19/1 826/20/1 827/21/1 828/22/1
f 829/19/1 830/20/1 831/21/1 832/22/1
f 833/19/1 834/20/1 835/21/1 836/22/1
f 837/19/1 838/20/1 839/21/1 840/22/1
f 841/19/1 842/20/1 843/21/1 844/22/1
f 845/19/1 846/20/1 847/21/1 848/22/1
f 849/40/1 850/41/1 851/34/1 852/33/1
f 853/19/1 854/20/1 855/21/1 856/22/1
f 857/19/1 858/20/1 859/21/1 860/22/1
f 861/19/1 862/20/1 863/21/1 864/22/1
f 865/19/1 866/20/1 867/21/1 868/22/1
f 869/19/1 870/20/1 871/21/1 872/22/1
f 873/19/1 874/20/1 875/21/1 876/22/1
f 877/40/1 878/41/1 879/34/1 880/33/1
f 881/19/1 882/20/1 883/21/1 884/22/1
f 885/19/1 886/20/1 887/21/1 888/22/1
f 889/19/1 890/20/1 891/21/1 892/22/1
f 893/19/1 894/20/1 895/21/1 896/22/1
f 897/19/1 898/20/1 899/21/1 900/22/1
f 901/19/1 902/20/1 903/21/1 904/22/1
f 905/19/1 906/20/1 907/21/1 908/22/1
f 909/19/1 910/20/1 911/21/1 912/22/1
f 913/42/1 914/43/1 915/41/1 916/40/1
f 917/19/1 918/20/1 919/21/1 920/22/1
f 921/19/1 922/20/1 923/21/1 924/22/1
f 925/19/1 926/20/1 927/21/1 928/22/1
f 929/19/1 930/20/1 931/21/1 932/22/1
f 933/19/1 934/20/1 935/21/1 936/22/1
f 937/19/1 938/20/1 939/21/1 940/22/1
f 941/42/1 942/43/1 943/41/1 944/40/1
f 945/19/1 946/20/1 947/21/1 948/22/1
f 949/19/1 950/20/1 951/21/1 952/22/1
f 953/19/1 954/20/1 955/21/1 956/22/1
f 957/19/1 958/20/1 959/21/1 960/22/1
f 961/19/1 962/20/1 963/21/1 964/22/1
f 965/19/1 966/20/1 967/21/1 968/22/1
f 969/19/1 970/20/1 971/21/1 972/22/1
f 973/19/1 974/20/1 975/21/1 976/22/1
f 977/19/1 978/20/1 979/21/1 980/22/1
f 981/19/1 982/20/1 983/21/1 984/22/1
f 985/19/1 986/20/1 987/21/1 988/22/1
f 989/19/1 990/20/1 991/21/1 992/22/1
f 993/19/1 994/20/1 995/21/1 996/22/1
f 997/19/1 998/20/1 999/21/1 1000/22/1
f 1001/19/1 1002/20/1 1003/21/1 1004/22/1
f 1005/19/1 1006/20/1 1007/21/1 1008/22/1
f 1009/39/1 1010/31/1 1011/27/1 1012/37/1
f 1013/19/1 1014/20/1 1015/21/1 1016/22/1
f 1017/19/1 1018/20/1 1019/21/1 1020/22/1
f 1021/19/1 1022/20/1 1023/21/1 1024/22/1

