# Tiled2Unity generated file. Do not modify by hand.
# Wavefront file for '2ScenarioPlataforma_mesh_0600.obj'

# Vertices (Count = 84)
v 0 -16 0
v -16 -16 0
v -16 0 0
v 0 0 0
v -16 -16 0
v -32 -16 0
v -32 0 0
v -16 0 0
v -32 -16 0
v -48 -16 0
v -48 0 0
v -32 0 0
v -48 -16 0
v -64 -16 0
v -64 0 0
v -48 0 0
v -64 -16 0
v -80 -16 0
v -80 0 0
v -64 0 0
v -80 -16 0
v -96 -16 0
v -96 0 0
v -80 0 0
v -96 -16 0
v -112 -16 0
v -112 0 0
v -96 0 0
v -144 -16 0
v -160 -16 0
v -160 0 0
v -144 0 0
v -160 -16 0
v -176 -16 0
v -176 0 0
v -160 0 0
v -176 -16 0
v -192 -16 0
v -192 0 0
v -176 0 0
v 0 -64 0
v -16 -64 0
v -16 -48 0
v 0 -48 0
v -16 -64 0
v -32 -64 0
v -32 -48 0
v -16 -48 0
v -32 -64 0
v -48 -64 0
v -48 -48 0
v -32 -48 0
v -48 -64 0
v -64 -64 0
v -64 -48 0
v -48 -48 0
v -144 -64 0
v -160 -64 0
v -160 -48 0
v -144 -48 0
v -160 -64 0
v -176 -64 0
v -176 -48 0
v -160 -48 0
v -176 -64 0
v -192 -64 0
v -192 -48 0
v -176 -48 0
v -192 -64 0
v -208 -64 0
v -208 -48 0
v -192 -48 0
v -208 -64 0
v -224 -64 0
v -224 -48 0
v -208 -48 0
v -224 -64 0
v -240 -64 0
v -240 -48 0
v -224 -48 0
v -240 -64 0
v -256 -64 0
v -256 -48 0
v -240 -48 0

# Texture cooridinates (Count = 22)
vt 0.5952381 0.875
vt 0.5714286 0.875
vt 0.5714286 0.8125
vt 0.5952381 0.8125
vt 0.1190476 0.25
vt 0.0952381 0.25
vt 0.0952381 0.1875
vt 0.1190476 0.1875
vt 0.5 0.3125
vt 0.4761905 0.3125
vt 0.4761905 0.25
vt 0.5 0.25
vt 0.547619 0.3125
vt 0.5238096 0.3125
vt 0.5238096 0.25
vt 0.547619 0.25
vt 0.547619 0.875
vt 0.5238096 0.875
vt 0.5238096 0.8125
vt 0.547619 0.8125
vt 0.1428571 0.25
vt 0.1428571 0.1875

# Normal
vn 0 0 -1

# Mesh description
g 2ScenarioPlataforma_mesh_0600

# Faces
f 1/1/1 2/2/1 3/3/1 4/4/1
f 5/5/1 6/6/1 7/7/1 8/8/1
f 9/5/1 10/6/1 11/7/1 12/8/1
f 13/9/1 14/10/1 15/11/1 16/12/1
f 17/13/1 18/14/1 19/15/1 20/16/1
f 21/17/1 22/18/1 23/19/1 24/20/1
f 25/9/1 26/10/1 27/11/1 28/12/1
f 29/13/1 30/14/1 31/15/1 32/16/1
f 33/13/1 34/14/1 35/15/1 36/16/1
f 37/21/1 38/5/1 39/8/1 40/22/1
f 41/19/1 42/20/1 43/17/1 44/18/1
f 45/7/1 46/8/1 47/5/1 48/6/1
f 49/15/1 50/16/1 51/13/1 52/14/1
f 53/3/1 54/4/1 55/1/1 56/2/1
f 57/7/1 58/8/1 59/5/1 60/6/1
f 61/8/1 62/22/1 63/21/1 64/5/1
f 65/7/1 66/8/1 67/5/1 68/6/1
f 69/11/1 70/12/1 71/9/1 72/10/1
f 73/3/1 74/4/1 75/1/1 76/2/1
f 77/19/1 78/20/1 79/17/1 80/18/1
f 81/3/1 82/4/1 83/1/1 84/2/1

