# Tiled2Unity generated file. Do not modify by hand.
# Wavefront file for '2ScenarioPlataforma_mesh_0333.obj'

# Vertices (Count = 16)
v -16 -48 0
v -32 -48 0
v -32 -32 0
v -16 -32 0
v -64 -48 0
v -80 -48 0
v -80 -32 0
v -64 -32 0
v -112 -48 0
v -128 -48 0
v -128 -32 0
v -112 -32 0
v -176 -48 0
v -192 -48 0
v -192 -32 0
v -176 -32 0

# Texture cooridinates (Count = 6)
vt 0.1190476 0.1875
vt 0.1428571 0.1875
vt 0.1428571 0.25
vt 0.1190476 0.25
vt 0.0952381 0.1875
vt 0.0952381 0.25

# Normal
vn 0 0 -1

# Mesh description
g 2ScenarioPlataforma_mesh_0333

# Faces
f 1/1/1 2/2/1 3/3/1 4/4/1
f 5/1/1 6/2/1 7/3/1 8/4/1
f 9/5/1 10/1/1 11/4/1 12/6/1
f 13/5/1 14/1/1 15/4/1 16/6/1

