# Tiled2Unity generated file. Do not modify by hand.
# Wavefront file for '2ScenarioPlataforma_mesh_0315.obj'

# Vertices (Count = 20)
v 0 -128 0
v -16 -128 0
v -16 -112 0
v 0 -112 0
v -16 -128 0
v -32 -128 0
v -32 -112 0
v -16 -112 0
v -160 -128 0
v -176 -128 0
v -176 -112 0
v -160 -112 0
v -176 -128 0
v -192 -128 0
v -192 -112 0
v -176 -112 0
v -208 -128 0
v -224 -128 0
v -224 -112 0
v -208 -112 0

# Texture cooridinates (Count = 8)
vt 0.1428571 0.25
vt 0.1190476 0.25
vt 0.1190476 0.1875
vt 0.1428571 0.1875
vt 0.5 0.3125
vt 0.4761905 0.3125
vt 0.4761905 0.25
vt 0.5 0.25

# Normal
vn 0 0 -1

# Mesh description
g 2ScenarioPlataforma_mesh_0315

# Faces
f 1/1/1 2/2/1 3/3/1 4/4/1
f 5/1/1 6/2/1 7/3/1 8/4/1
f 9/1/1 10/2/1 11/3/1 12/4/1
f 13/1/1 14/2/1 15/3/1 16/4/1
f 17/5/1 18/6/1 19/7/1 20/8/1

