# Tiled2Unity generated file. Do not modify by hand.
# Wavefront file for '2ScenarioPlataforma_mesh_0986.obj'

# Vertices (Count = 768)
v 0 -80 0
v -16 -80 0
v -16 -64 0
v 0 -64 0
v -16 -80 0
v -32 -80 0
v -32 -64 0
v -16 -64 0
v -32 -80 0
v -48 -80 0
v -48 -64 0
v -32 -64 0
v -48 -80 0
v -64 -80 0
v -64 -64 0
v -48 -64 0
v -64 -80 0
v -80 -80 0
v -80 -64 0
v -64 -64 0
v -80 -80 0
v -96 -80 0
v -96 -64 0
v -80 -64 0
v -96 -80 0
v -112 -80 0
v -112 -64 0
v -96 -64 0
v -112 -80 0
v -128 -80 0
v -128 -64 0
v -112 -64 0
v -128 -80 0
v -144 -80 0
v -144 -64 0
v -128 -64 0
v -144 -80 0
v -160 -80 0
v -160 -64 0
v -144 -64 0
v -160 -80 0
v -176 -80 0
v -176 -64 0
v -160 -64 0
v -176 -80 0
v -192 -80 0
v -192 -64 0
v -176 -64 0
v -192 -80 0
v -208 -80 0
v -208 -64 0
v -192 -64 0
v -208 -80 0
v -224 -80 0
v -224 -64 0
v -208 -64 0
v -224 -80 0
v -240 -80 0
v -240 -64 0
v -224 -64 0
v -240 -80 0
v -256 -80 0
v -256 -64 0
v -240 -64 0
v 0 -96 0
v -16 -96 0
v -16 -80 0
v 0 -80 0
v -16 -96 0
v -32 -96 0
v -32 -80 0
v -16 -80 0
v -32 -96 0
v -48 -96 0
v -48 -80 0
v -32 -80 0
v -48 -96 0
v -64 -96 0
v -64 -80 0
v -48 -80 0
v -64 -96 0
v -80 -96 0
v -80 -80 0
v -64 -80 0
v -80 -96 0
v -96 -96 0
v -96 -80 0
v -80 -80 0
v -96 -96 0
v -112 -96 0
v -112 -80 0
v -96 -80 0
v -112 -96 0
v -128 -96 0
v -128 -80 0
v -112 -80 0
v -128 -96 0
v -144 -96 0
v -144 -80 0
v -128 -80 0
v -144 -96 0
v -160 -96 0
v -160 -80 0
v -144 -80 0
v -160 -96 0
v -176 -96 0
v -176 -80 0
v -160 -80 0
v -176 -96 0
v -192 -96 0
v -192 -80 0
v -176 -80 0
v -192 -96 0
v -208 -96 0
v -208 -80 0
v -192 -80 0
v -208 -96 0
v -224 -96 0
v -224 -80 0
v -208 -80 0
v -224 -96 0
v -240 -96 0
v -240 -80 0
v -224 -80 0
v -240 -96 0
v -256 -96 0
v -256 -80 0
v -240 -80 0
v 0 -112 0
v -16 -112 0
v -16 -96 0
v 0 -96 0
v -16 -112 0
v -32 -112 0
v -32 -96 0
v -16 -96 0
v -32 -112 0
v -48 -112 0
v -48 -96 0
v -32 -96 0
v -48 -112 0
v -64 -112 0
v -64 -96 0
v -48 -96 0
v -64 -112 0
v -80 -112 0
v -80 -96 0
v -64 -96 0
v -80 -112 0
v -96 -112 0
v -96 -96 0
v -80 -96 0
v -96 -112 0
v -112 -112 0
v -112 -96 0
v -96 -96 0
v -112 -112 0
v -128 -112 0
v -128 -96 0
v -112 -96 0
v -128 -112 0
v -144 -112 0
v -144 -96 0
v -128 -96 0
v -144 -112 0
v -160 -112 0
v -160 -96 0
v -144 -96 0
v -160 -112 0
v -176 -112 0
v -176 -96 0
v -160 -96 0
v -176 -112 0
v -192 -112 0
v -192 -96 0
v -176 -96 0
v -192 -112 0
v -208 -112 0
v -208 -96 0
v -192 -96 0
v -208 -112 0
v -224 -112 0
v -224 -96 0
v -208 -96 0
v -224 -112 0
v -240 -112 0
v -240 -96 0
v -224 -96 0
v -240 -112 0
v -256 -112 0
v -256 -96 0
v -240 -96 0
v 0 -128 0
v -16 -128 0
v -16 -112 0
v 0 -112 0
v -16 -128 0
v -32 -128 0
v -32 -112 0
v -16 -112 0
v -32 -128 0
v -48 -128 0
v -48 -112 0
v -32 -112 0
v -48 -128 0
v -64 -128 0
v -64 -112 0
v -48 -112 0
v -64 -128 0
v -80 -128 0
v -80 -112 0
v -64 -112 0
v -80 -128 0
v -96 -128 0
v -96 -112 0
v -80 -112 0
v -96 -128 0
v -112 -128 0
v -112 -112 0
v -96 -112 0
v -112 -128 0
v -128 -128 0
v -128 -112 0
v -112 -112 0
v -128 -128 0
v -144 -128 0
v -144 -112 0
v -128 -112 0
v -144 -128 0
v -160 -128 0
v -160 -112 0
v -144 -112 0
v -160 -128 0
v -176 -128 0
v -176 -112 0
v -160 -112 0
v -176 -128 0
v -192 -128 0
v -192 -112 0
v -176 -112 0
v -192 -128 0
v -208 -128 0
v -208 -112 0
v -192 -112 0
v -208 -128 0
v -224 -128 0
v -224 -112 0
v -208 -112 0
v -224 -128 0
v -240 -128 0
v -240 -112 0
v -224 -112 0
v -240 -128 0
v -256 -128 0
v -256 -112 0
v -240 -112 0
v 0 -144 0
v -16 -144 0
v -16 -128 0
v 0 -128 0
v -16 -144 0
v -32 -144 0
v -32 -128 0
v -16 -128 0
v -32 -144 0
v -48 -144 0
v -48 -128 0
v -32 -128 0
v -48 -144 0
v -64 -144 0
v -64 -128 0
v -48 -128 0
v -64 -144 0
v -80 -144 0
v -80 -128 0
v -64 -128 0
v -80 -144 0
v -96 -144 0
v -96 -128 0
v -80 -128 0
v -96 -144 0
v -112 -144 0
v -112 -128 0
v -96 -128 0
v -112 -144 0
v -128 -144 0
v -128 -128 0
v -112 -128 0
v -128 -144 0
v -144 -144 0
v -144 -128 0
v -128 -128 0
v -144 -144 0
v -160 -144 0
v -160 -128 0
v -144 -128 0
v -160 -144 0
v -176 -144 0
v -176 -128 0
v -160 -128 0
v -176 -144 0
v -192 -144 0
v -192 -128 0
v -176 -128 0
v -192 -144 0
v -208 -144 0
v -208 -128 0
v -192 -128 0
v -208 -144 0
v -224 -144 0
v -224 -128 0
v -208 -128 0
v -224 -144 0
v -240 -144 0
v -240 -128 0
v -224 -128 0
v -240 -144 0
v -256 -144 0
v -256 -128 0
v -240 -128 0
v 0 -160 0
v -16 -160 0
v -16 -144 0
v 0 -144 0
v -16 -160 0
v -32 -160 0
v -32 -144 0
v -16 -144 0
v -32 -160 0
v -48 -160 0
v -48 -144 0
v -32 -144 0
v -48 -160 0
v -64 -160 0
v -64 -144 0
v -48 -144 0
v -64 -160 0
v -80 -160 0
v -80 -144 0
v -64 -144 0
v -80 -160 0
v -96 -160 0
v -96 -144 0
v -80 -144 0
v -96 -160 0
v -112 -160 0
v -112 -144 0
v -96 -144 0
v -112 -160 0
v -128 -160 0
v -128 -144 0
v -112 -144 0
v -128 -160 0
v -144 -160 0
v -144 -144 0
v -128 -144 0
v -144 -160 0
v -160 -160 0
v -160 -144 0
v -144 -144 0
v -160 -160 0
v -176 -160 0
v -176 -144 0
v -160 -144 0
v -176 -160 0
v -192 -160 0
v -192 -144 0
v -176 -144 0
v -192 -160 0
v -208 -160 0
v -208 -144 0
v -192 -144 0
v -208 -160 0
v -224 -160 0
v -224 -144 0
v -208 -144 0
v -224 -160 0
v -240 -160 0
v -240 -144 0
v -224 -144 0
v -240 -160 0
v -256 -160 0
v -256 -144 0
v -240 -144 0
v 0 -176 0
v -16 -176 0
v -16 -160 0
v 0 -160 0
v -16 -176 0
v -32 -176 0
v -32 -160 0
v -16 -160 0
v -32 -176 0
v -48 -176 0
v -48 -160 0
v -32 -160 0
v -48 -176 0
v -64 -176 0
v -64 -160 0
v -48 -160 0
v -64 -176 0
v -80 -176 0
v -80 -160 0
v -64 -160 0
v -80 -176 0
v -96 -176 0
v -96 -160 0
v -80 -160 0
v -96 -176 0
v -112 -176 0
v -112 -160 0
v -96 -160 0
v -112 -176 0
v -128 -176 0
v -128 -160 0
v -112 -160 0
v -128 -176 0
v -144 -176 0
v -144 -160 0
v -128 -160 0
v -144 -176 0
v -160 -176 0
v -160 -160 0
v -144 -160 0
v -160 -176 0
v -176 -176 0
v -176 -160 0
v -160 -160 0
v -176 -176 0
v -192 -176 0
v -192 -160 0
v -176 -160 0
v -192 -176 0
v -208 -176 0
v -208 -160 0
v -192 -160 0
v -208 -176 0
v -224 -176 0
v -224 -160 0
v -208 -160 0
v -224 -176 0
v -240 -176 0
v -240 -160 0
v -224 -160 0
v -240 -176 0
v -256 -176 0
v -256 -160 0
v -240 -160 0
v 0 -192 0
v -16 -192 0
v -16 -176 0
v 0 -176 0
v -16 -192 0
v -32 -192 0
v -32 -176 0
v -16 -176 0
v -32 -192 0
v -48 -192 0
v -48 -176 0
v -32 -176 0
v -48 -192 0
v -64 -192 0
v -64 -176 0
v -48 -176 0
v -64 -192 0
v -80 -192 0
v -80 -176 0
v -64 -176 0
v -80 -192 0
v -96 -192 0
v -96 -176 0
v -80 -176 0
v -96 -192 0
v -112 -192 0
v -112 -176 0
v -96 -176 0
v -112 -192 0
v -128 -192 0
v -128 -176 0
v -112 -176 0
v -128 -192 0
v -144 -192 0
v -144 -176 0
v -128 -176 0
v -144 -192 0
v -160 -192 0
v -160 -176 0
v -144 -176 0
v -160 -192 0
v -176 -192 0
v -176 -176 0
v -160 -176 0
v -176 -192 0
v -192 -192 0
v -192 -176 0
v -176 -176 0
v -192 -192 0
v -208 -192 0
v -208 -176 0
v -192 -176 0
v -208 -192 0
v -224 -192 0
v -224 -176 0
v -208 -176 0
v -224 -192 0
v -240 -192 0
v -240 -176 0
v -224 -176 0
v -240 -192 0
v -256 -192 0
v -256 -176 0
v -240 -176 0
v 0 -208 0
v -16 -208 0
v -16 -192 0
v 0 -192 0
v -16 -208 0
v -32 -208 0
v -32 -192 0
v -16 -192 0
v -32 -208 0
v -48 -208 0
v -48 -192 0
v -32 -192 0
v -48 -208 0
v -64 -208 0
v -64 -192 0
v -48 -192 0
v -64 -208 0
v -80 -208 0
v -80 -192 0
v -64 -192 0
v -80 -208 0
v -96 -208 0
v -96 -192 0
v -80 -192 0
v -96 -208 0
v -112 -208 0
v -112 -192 0
v -96 -192 0
v -112 -208 0
v -128 -208 0
v -128 -192 0
v -112 -192 0
v -128 -208 0
v -144 -208 0
v -144 -192 0
v -128 -192 0
v -144 -208 0
v -160 -208 0
v -160 -192 0
v -144 -192 0
v -160 -208 0
v -176 -208 0
v -176 -192 0
v -160 -192 0
v -176 -208 0
v -192 -208 0
v -192 -192 0
v -176 -192 0
v -192 -208 0
v -208 -208 0
v -208 -192 0
v -192 -192 0
v -208 -208 0
v -224 -208 0
v -224 -192 0
v -208 -192 0
v -224 -208 0
v -240 -208 0
v -240 -192 0
v -224 -192 0
v -240 -208 0
v -256 -208 0
v -256 -192 0
v -240 -192 0
v 0 -224 0
v -16 -224 0
v -16 -208 0
v 0 -208 0
v -16 -224 0
v -32 -224 0
v -32 -208 0
v -16 -208 0
v -32 -224 0
v -48 -224 0
v -48 -208 0
v -32 -208 0
v -48 -224 0
v -64 -224 0
v -64 -208 0
v -48 -208 0
v -64 -224 0
v -80 -224 0
v -80 -208 0
v -64 -208 0
v -80 -224 0
v -96 -224 0
v -96 -208 0
v -80 -208 0
v -96 -224 0
v -112 -224 0
v -112 -208 0
v -96 -208 0
v -112 -224 0
v -128 -224 0
v -128 -208 0
v -112 -208 0
v -128 -224 0
v -144 -224 0
v -144 -208 0
v -128 -208 0
v -144 -224 0
v -160 -224 0
v -160 -208 0
v -144 -208 0
v -160 -224 0
v -176 -224 0
v -176 -208 0
v -160 -208 0
v -176 -224 0
v -192 -224 0
v -192 -208 0
v -176 -208 0
v -192 -224 0
v -208 -224 0
v -208 -208 0
v -192 -208 0
v -208 -224 0
v -224 -224 0
v -224 -208 0
v -208 -208 0
v -224 -224 0
v -240 -224 0
v -240 -208 0
v -224 -208 0
v -240 -224 0
v -256 -224 0
v -256 -208 0
v -240 -208 0
v 0 -240 0
v -16 -240 0
v -16 -224 0
v 0 -224 0
v -16 -240 0
v -32 -240 0
v -32 -224 0
v -16 -224 0
v -32 -240 0
v -48 -240 0
v -48 -224 0
v -32 -224 0
v -48 -240 0
v -64 -240 0
v -64 -224 0
v -48 -224 0
v -64 -240 0
v -80 -240 0
v -80 -224 0
v -64 -224 0
v -80 -240 0
v -96 -240 0
v -96 -224 0
v -80 -224 0
v -96 -240 0
v -112 -240 0
v -112 -224 0
v -96 -224 0
v -112 -240 0
v -128 -240 0
v -128 -224 0
v -112 -224 0
v -128 -240 0
v -144 -240 0
v -144 -224 0
v -128 -224 0
v -144 -240 0
v -160 -240 0
v -160 -224 0
v -144 -224 0
v -160 -240 0
v -176 -240 0
v -176 -224 0
v -160 -224 0
v -176 -240 0
v -192 -240 0
v -192 -224 0
v -176 -224 0
v -192 -240 0
v -208 -240 0
v -208 -224 0
v -192 -224 0
v -208 -240 0
v -224 -240 0
v -224 -224 0
v -208 -224 0
v -224 -240 0
v -240 -240 0
v -240 -224 0
v -224 -224 0
v -240 -240 0
v -256 -240 0
v -256 -224 0
v -240 -224 0
v 0 -256 0
v -16 -256 0
v -16 -240 0
v 0 -240 0
v -16 -256 0
v -32 -256 0
v -32 -240 0
v -16 -240 0
v -32 -256 0
v -48 -256 0
v -48 -240 0
v -32 -240 0
v -48 -256 0
v -64 -256 0
v -64 -240 0
v -48 -240 0
v -64 -256 0
v -80 -256 0
v -80 -240 0
v -64 -240 0
v -80 -256 0
v -96 -256 0
v -96 -240 0
v -80 -240 0
v -96 -256 0
v -112 -256 0
v -112 -240 0
v -96 -240 0
v -112 -256 0
v -128 -256 0
v -128 -240 0
v -112 -240 0
v -128 -256 0
v -144 -256 0
v -144 -240 0
v -128 -240 0
v -144 -256 0
v -160 -256 0
v -160 -240 0
v -144 -240 0
v -160 -256 0
v -176 -256 0
v -176 -240 0
v -160 -240 0
v -176 -256 0
v -192 -256 0
v -192 -240 0
v -176 -240 0
v -192 -256 0
v -208 -256 0
v -208 -240 0
v -192 -240 0
v -208 -256 0
v -224 -256 0
v -224 -240 0
v -208 -240 0
v -224 -256 0
v -240 -256 0
v -240 -240 0
v -224 -240 0
v -240 -256 0
v -256 -256 0
v -256 -240 0
v -240 -240 0

# Texture cooridinates (Count = 64)
vt 0.6595744 0.1875
vt 0.6702127 0.1875
vt 0.6702127 0.25
vt 0.6595744 0.25
vt 0.5425532 0.1875
vt 0.5531915 0.1875
vt 0.5531915 0.25
vt 0.5425532 0.25
vt 0.606383 0.1875
vt 0.6170213 0.1875
vt 0.6170213 0.25
vt 0.606383 0.25
vt 0.3723404 0.625
vt 0.3829787 0.625
vt 0.3829787 0.6875
vt 0.3723404 0.6875
vt 0.680851 0.1875
vt 0.6914893 0.1875
vt 0.6914893 0.25
vt 0.680851 0.25
vt 0.6489362 0.1875
vt 0.6489362 0.25
vt 0.5851064 0.1875
vt 0.5957447 0.1875
vt 0.5957447 0.25
vt 0.5851064 0.25
vt 0.4148936 0.625
vt 0.4255319 0.625
vt 0.4255319 0.6875
vt 0.4148936 0.6875
vt 0.4361702 0.625
vt 0.4468085 0.625
vt 0.4468085 0.6875
vt 0.4361702 0.6875
vt 0.393617 0.625
vt 0.4042553 0.625
vt 0.4042553 0.6875
vt 0.393617 0.6875
vt 0.7021276 0.1875
vt 0.7021276 0.25
vt 0.5638298 0.1875
vt 0.5744681 0.1875
vt 0.5744681 0.25
vt 0.5638298 0.25
vt 0.606383 0.8125
vt 0.6170213 0.8125
vt 0.6170213 0.875
vt 0.606383 0.875
vt 0.606383 0.75
vt 0.6170213 0.75
vt 0.606383 0.6875
vt 0.6170213 0.6875
vt 0.606383 0.625
vt 0.6170213 0.625
vt 0.6276596 0.8125
vt 0.6276596 0.875
vt 0.6382979 0.8125
vt 0.6382979 0.875
vt 0.6276596 0.75
vt 0.6382979 0.75
vt 0.6276596 0.6875
vt 0.6382979 0.6875
vt 0.6276596 0.625
vt 0.6382979 0.625

# Normal
vn 0 0 -1

# Mesh description
g 2ScenarioPlataforma_mesh_0986

# Faces
f 1/1/1 2/2/1 3/3/1 4/4/1
f 5/5/1 6/6/1 7/7/1 8/8/1
f 9/9/1 10/10/1 11/11/1 12/12/1
f 13/13/1 14/14/1 15/15/1 16/16/1
f 17/17/1 18/18/1 19/19/1 20/20/1
f 21/21/1 22/1/1 23/4/1 24/22/1
f 25/23/1 26/24/1 27/25/1 28/26/1
f 29/27/1 30/28/1 31/29/1 32/30/1
f 33/31/1 34/32/1 35/33/1 36/34/1
f 37/35/1 38/36/1 39/37/1 40/38/1
f 41/18/1 42/39/1 43/40/1 44/19/1
f 45/9/1 46/10/1 47/11/1 48/12/1
f 49/23/1 50/24/1 51/25/1 52/26/1
f 53/31/1 54/32/1 55/33/1 56/34/1
f 57/1/1 58/2/1 59/3/1 60/4/1
f 61/41/1 62/42/1 63/43/1 64/44/1
f 65/45/1 66/46/1 67/47/1 68/48/1
f 69/45/1 70/46/1 71/47/1 72/48/1
f 73/45/1 74/46/1 75/47/1 76/48/1
f 77/45/1 78/46/1 79/47/1 80/48/1
f 81/45/1 82/46/1 83/47/1 84/48/1
f 85/45/1 86/46/1 87/47/1 88/48/1
f 89/45/1 90/46/1 91/47/1 92/48/1
f 93/45/1 94/46/1 95/47/1 96/48/1
f 97/45/1 98/46/1 99/47/1 100/48/1
f 101/45/1 102/46/1 103/47/1 104/48/1
f 105/45/1 106/46/1 107/47/1 108/48/1
f 109/45/1 110/46/1 111/47/1 112/48/1
f 113/45/1 114/46/1 115/47/1 116/48/1
f 117/45/1 118/46/1 119/47/1 120/48/1
f 121/45/1 122/46/1 123/47/1 124/48/1
f 125/45/1 126/46/1 127/47/1 128/48/1
f 129/49/1 130/50/1 131/46/1 132/45/1
f 133/49/1 134/50/1 135/46/1 136/45/1
f 137/49/1 138/50/1 139/46/1 140/45/1
f 141/49/1 142/50/1 143/46/1 144/45/1
f 145/49/1 146/50/1 147/46/1 148/45/1
f 149/49/1 150/50/1 151/46/1 152/45/1
f 153/49/1 154/50/1 155/46/1 156/45/1
f 157/49/1 158/50/1 159/46/1 160/45/1
f 161/49/1 162/50/1 163/46/1 164/45/1
f 165/49/1 166/50/1 167/46/1 168/45/1
f 169/49/1 170/50/1 171/46/1 172/45/1
f 173/49/1 174/50/1 175/46/1 176/45/1
f 177/49/1 178/50/1 179/46/1 180/45/1
f 181/49/1 182/50/1 183/46/1 184/45/1
f 185/49/1 186/50/1 187/46/1 188/45/1
f 189/49/1 190/50/1 191/46/1 192/45/1
f 193/51/1 194/52/1 195/50/1 196/49/1
f 197/51/1 198/52/1 199/50/1 200/49/1
f 201/51/1 202/52/1 203/50/1 204/49/1
f 205/51/1 206/52/1 207/50/1 208/49/1
f 209/51/1 210/52/1 211/50/1 212/49/1
f 213/51/1 214/52/1 215/50/1 216/49/1
f 217/51/1 218/52/1 219/50/1 220/49/1
f 221/51/1 222/52/1 223/50/1 224/49/1
f 225/51/1 226/52/1 227/50/1 228/49/1
f 229/51/1 230/52/1 231/50/1 232/49/1
f 233/51/1 234/52/1 235/50/1 236/49/1
f 237/51/1 238/52/1 239/50/1 240/49/1
f 241/51/1 242/52/1 243/50/1 244/49/1
f 245/51/1 246/52/1 247/50/1 248/49/1
f 249/51/1 250/52/1 251/50/1 252/49/1
f 253/51/1 254/52/1 255/50/1 256/49/1
f 257/53/1 258/54/1 259/52/1 260/51/1
f 261/53/1 262/54/1 263/52/1 264/51/1
f 265/53/1 266/54/1 267/52/1 268/51/1
f 269/53/1 270/54/1 271/52/1 272/51/1
f 273/53/1 274/54/1 275/52/1 276/51/1
f 277/53/1 278/54/1 279/52/1 280/51/1
f 281/53/1 282/54/1 283/52/1 284/51/1
f 285/53/1 286/54/1 287/52/1 288/51/1
f 289/53/1 290/54/1 291/52/1 292/51/1
f 293/53/1 294/54/1 295/52/1 296/51/1
f 297/53/1 298/54/1 299/52/1 300/51/1
f 301/53/1 302/54/1 303/52/1 304/51/1
f 305/53/1 306/54/1 307/52/1 308/51/1
f 309/53/1 310/54/1 311/52/1 312/51/1
f 313/53/1 314/54/1 315/52/1 316/51/1
f 317/53/1 318/54/1 319/52/1 320/51/1
f 321/45/1 322/46/1 323/47/1 324/48/1
f 325/46/1 326/55/1 327/56/1 328/47/1
f 329/55/1 330/57/1 331/58/1 332/56/1
f 333/45/1 334/46/1 335/47/1 336/48/1
f 337/46/1 338/55/1 339/56/1 340/47/1
f 341/55/1 342/57/1 343/58/1 344/56/1
f 345/45/1 346/46/1 347/47/1 348/48/1
f 349/46/1 350/55/1 351/56/1 352/47/1
f 353/55/1 354/57/1 355/58/1 356/56/1
f 357/45/1 358/46/1 359/47/1 360/48/1
f 361/46/1 362/55/1 363/56/1 364/47/1
f 365/55/1 366/57/1 367/58/1 368/56/1
f 369/45/1 370/46/1 371/47/1 372/48/1
f 373/46/1 374/55/1 375/56/1 376/47/1
f 377/55/1 378/57/1 379/58/1 380/56/1
f 381/45/1 382/46/1 383/47/1 384/48/1
f 385/49/1 386/50/1 387/46/1 388/45/1
f 389/50/1 390/59/1 391/55/1 392/46/1
f 393/59/1 394/60/1 395/57/1 396/55/1
f 397/49/1 398/50/1 399/46/1 400/45/1
f 401/50/1 402/59/1 403/55/1 404/46/1
f 405/59/1 406/60/1 407/57/1 408/55/1
f 409/49/1 410/50/1 411/46/1 412/45/1
f 413/50/1 414/59/1 415/55/1 416/46/1
f 417/59/1 418/60/1 419/57/1 420/55/1
f 421/49/1 422/50/1 423/46/1 424/45/1
f 425/50/1 426/59/1 427/55/1 428/46/1
f 429/59/1 430/60/1 431/57/1 432/55/1
f 433/49/1 434/50/1 435/46/1 436/45/1
f 437/50/1 438/59/1 439/55/1 440/46/1
f 441/59/1 442/60/1 443/57/1 444/55/1
f 445/49/1 446/50/1 447/46/1 448/45/1
f 449/51/1 450/52/1 451/50/1 452/49/1
f 453/52/1 454/61/1 455/59/1 456/50/1
f 457/61/1 458/62/1 459/60/1 460/59/1
f 461/51/1 462/52/1 463/50/1 464/49/1
f 465/52/1 466/61/1 467/59/1 468/50/1
f 469/61/1 470/62/1 471/60/1 472/59/1
f 473/51/1 474/52/1 475/50/1 476/49/1
f 477/52/1 478/61/1 479/59/1 480/50/1
f 481/61/1 482/62/1 483/60/1 484/59/1
f 485/51/1 486/52/1 487/50/1 488/49/1
f 489/52/1 490/61/1 491/59/1 492/50/1
f 493/61/1 494/62/1 495/60/1 496/59/1
f 497/51/1 498/52/1 499/50/1 500/49/1
f 501/52/1 502/61/1 503/59/1 504/50/1
f 505/61/1 506/62/1 507/60/1 508/59/1
f 509/51/1 510/52/1 511/50/1 512/49/1
f 513/53/1 514/54/1 515/52/1 516/51/1
f 517/54/1 518/63/1 519/61/1 520/52/1
f 521/63/1 522/64/1 523/62/1 524/61/1
f 525/53/1 526/54/1 527/52/1 528/51/1
f 529/54/1 530/63/1 531/61/1 532/52/1
f 533/63/1 534/64/1 535/62/1 536/61/1
f 537/53/1 538/54/1 539/52/1 540/51/1
f 541/54/1 542/63/1 543/61/1 544/52/1
f 545/63/1 546/64/1 547/62/1 548/61/1
f 549/53/1 550/54/1 551/52/1 552/51/1
f 553/54/1 554/63/1 555/61/1 556/52/1
f 557/63/1 558/64/1 559/62/1 560/61/1
f 561/53/1 562/54/1 563/52/1 564/51/1
f 565/54/1 566/63/1 567/61/1 568/52/1
f 569/63/1 570/64/1 571/62/1 572/61/1
f 573/53/1 574/54/1 575/52/1 576/51/1
f 577/45/1 578/46/1 579/47/1 580/48/1
f 581/46/1 582/55/1 583/56/1 584/47/1
f 585/55/1 586/57/1 587/58/1 588/56/1
f 589/45/1 590/46/1 591/47/1 592/48/1
f 593/46/1 594/55/1 595/56/1 596/47/1
f 597/55/1 598/57/1 599/58/1 600/56/1
f 601/45/1 602/46/1 603/47/1 604/48/1
f 605/46/1 606/55/1 607/56/1 608/47/1
f 609/55/1 610/57/1 611/58/1 612/56/1
f 613/45/1 614/46/1 615/47/1 616/48/1
f 617/46/1 618/55/1 619/56/1 620/47/1
f 621/55/1 622/57/1 623/58/1 624/56/1
f 625/45/1 626/46/1 627/47/1 628/48/1
f 629/46/1 630/55/1 631/56/1 632/47/1
f 633/55/1 634/57/1 635/58/1 636/56/1
f 637/45/1 638/46/1 639/47/1 640/48/1
f 641/49/1 642/50/1 643/46/1 644/45/1
f 645/50/1 646/59/1 647/55/1 648/46/1
f 649/59/1 650/60/1 651/57/1 652/55/1
f 653/49/1 654/50/1 655/46/1 656/45/1
f 657/50/1 658/59/1 659/55/1 660/46/1
f 661/59/1 662/60/1 663/57/1 664/55/1
f 665/49/1 666/50/1 667/46/1 668/45/1
f 669/50/1 670/59/1 671/55/1 672/46/1
f 673/59/1 674/60/1 675/57/1 676/55/1
f 677/49/1 678/50/1 679/46/1 680/45/1
f 681/50/1 682/59/1 683/55/1 684/46/1
f 685/59/1 686/60/1 687/57/1 688/55/1
f 689/49/1 690/50/1 691/46/1 692/45/1
f 693/50/1 694/59/1 695/55/1 696/46/1
f 697/59/1 698/60/1 699/57/1 700/55/1
f 701/49/1 702/50/1 703/46/1 704/45/1
f 705/45/1 706/46/1 707/47/1 708/48/1
f 709/45/1 710/46/1 711/47/1 712/48/1
f 713/45/1 714/46/1 715/47/1 716/48/1
f 717/45/1 718/46/1 719/47/1 720/48/1
f 721/45/1 722/46/1 723/47/1 724/48/1
f 725/45/1 726/46/1 727/47/1 728/48/1
f 729/45/1 730/46/1 731/47/1 732/48/1
f 733/45/1 734/46/1 735/47/1 736/48/1
f 737/45/1 738/46/1 739/47/1 740/48/1
f 741/45/1 742/46/1 743/47/1 744/48/1
f 745/45/1 746/46/1 747/47/1 748/48/1
f 749/45/1 750/46/1 751/47/1 752/48/1
f 753/45/1 754/46/1 755/47/1 756/48/1
f 757/45/1 758/46/1 759/47/1 760/48/1
f 761/45/1 762/46/1 763/47/1 764/48/1
f 765/45/1 766/46/1 767/47/1 768/48/1

