# Tiled2Unity generated file. Do not modify by hand.
# Wavefront file for '2ScenarioPlataforma_mesh_0647.obj'

# Vertices (Count = 12)
v -96 -224 0
v -112 -224 0
v -112 -208 0
v -96 -208 0
v -96 -240 0
v -112 -240 0
v -112 -224 0
v -96 -224 0
v -96 -256 0
v -112 -256 0
v -112 -240 0
v -96 -240 0

# Texture cooridinates (Count = 8)
vt 0.893617 0.3125
vt 0.893617 0.375
vt 0.8829787 0.375
vt 0.8829787 0.3125
vt 0.9042553 0.3125
vt 0.9042553 0.375
vt 0.9148936 0.3125
vt 0.9148936 0.375

# Normal
vn 0 0 -1

# Mesh description
g 2ScenarioPlataforma_mesh_0647

# Faces
f 1/1/1 2/2/1 3/3/1 4/4/1
f 5/5/1 6/6/1 7/2/1 8/1/1
f 9/7/1 10/8/1 11/6/1 12/5/1

