# Tiled2Unity generated file. Do not modify by hand.
# Wavefront file for '2ScenarioPlataforma_mesh_0975.obj'

# Vertices (Count = 1024)
v 0 -16 0
v -16 -16 0
v -16 0 0
v 0 0 0
v -16 -16 0
v -32 -16 0
v -32 0 0
v -16 0 0
v -32 -16 0
v -48 -16 0
v -48 0 0
v -32 0 0
v -48 -16 0
v -64 -16 0
v -64 0 0
v -48 0 0
v -64 -16 0
v -80 -16 0
v -80 0 0
v -64 0 0
v -80 -16 0
v -96 -16 0
v -96 0 0
v -80 0 0
v -96 -16 0
v -112 -16 0
v -112 0 0
v -96 0 0
v -112 -16 0
v -128 -16 0
v -128 0 0
v -112 0 0
v -128 -16 0
v -144 -16 0
v -144 0 0
v -128 0 0
v -144 -16 0
v -160 -16 0
v -160 0 0
v -144 0 0
v -160 -16 0
v -176 -16 0
v -176 0 0
v -160 0 0
v -176 -16 0
v -192 -16 0
v -192 0 0
v -176 0 0
v -192 -16 0
v -208 -16 0
v -208 0 0
v -192 0 0
v -208 -16 0
v -224 -16 0
v -224 0 0
v -208 0 0
v -224 -16 0
v -240 -16 0
v -240 0 0
v -224 0 0
v -240 -16 0
v -256 -16 0
v -256 0 0
v -240 0 0
v 0 -32 0
v -16 -32 0
v -16 -16 0
v 0 -16 0
v -16 -32 0
v -32 -32 0
v -32 -16 0
v -16 -16 0
v -32 -32 0
v -48 -32 0
v -48 -16 0
v -32 -16 0
v -48 -32 0
v -64 -32 0
v -64 -16 0
v -48 -16 0
v -64 -32 0
v -80 -32 0
v -80 -16 0
v -64 -16 0
v -80 -32 0
v -96 -32 0
v -96 -16 0
v -80 -16 0
v -96 -32 0
v -112 -32 0
v -112 -16 0
v -96 -16 0
v -112 -32 0
v -128 -32 0
v -128 -16 0
v -112 -16 0
v -128 -32 0
v -144 -32 0
v -144 -16 0
v -128 -16 0
v -144 -32 0
v -160 -32 0
v -160 -16 0
v -144 -16 0
v -160 -32 0
v -176 -32 0
v -176 -16 0
v -160 -16 0
v -176 -32 0
v -192 -32 0
v -192 -16 0
v -176 -16 0
v -192 -32 0
v -208 -32 0
v -208 -16 0
v -192 -16 0
v -208 -32 0
v -224 -32 0
v -224 -16 0
v -208 -16 0
v -224 -32 0
v -240 -32 0
v -240 -16 0
v -224 -16 0
v -240 -32 0
v -256 -32 0
v -256 -16 0
v -240 -16 0
v 0 -48 0
v -16 -48 0
v -16 -32 0
v 0 -32 0
v -16 -48 0
v -32 -48 0
v -32 -32 0
v -16 -32 0
v -32 -48 0
v -48 -48 0
v -48 -32 0
v -32 -32 0
v -48 -48 0
v -64 -48 0
v -64 -32 0
v -48 -32 0
v -64 -48 0
v -80 -48 0
v -80 -32 0
v -64 -32 0
v -80 -48 0
v -96 -48 0
v -96 -32 0
v -80 -32 0
v -96 -48 0
v -112 -48 0
v -112 -32 0
v -96 -32 0
v -112 -48 0
v -128 -48 0
v -128 -32 0
v -112 -32 0
v -128 -48 0
v -144 -48 0
v -144 -32 0
v -128 -32 0
v -144 -48 0
v -160 -48 0
v -160 -32 0
v -144 -32 0
v -160 -48 0
v -176 -48 0
v -176 -32 0
v -160 -32 0
v -176 -48 0
v -192 -48 0
v -192 -32 0
v -176 -32 0
v -192 -48 0
v -208 -48 0
v -208 -32 0
v -192 -32 0
v -208 -48 0
v -224 -48 0
v -224 -32 0
v -208 -32 0
v -224 -48 0
v -240 -48 0
v -240 -32 0
v -224 -32 0
v -240 -48 0
v -256 -48 0
v -256 -32 0
v -240 -32 0
v 0 -64 0
v -16 -64 0
v -16 -48 0
v 0 -48 0
v -16 -64 0
v -32 -64 0
v -32 -48 0
v -16 -48 0
v -32 -64 0
v -48 -64 0
v -48 -48 0
v -32 -48 0
v -48 -64 0
v -64 -64 0
v -64 -48 0
v -48 -48 0
v -64 -64 0
v -80 -64 0
v -80 -48 0
v -64 -48 0
v -80 -64 0
v -96 -64 0
v -96 -48 0
v -80 -48 0
v -96 -64 0
v -112 -64 0
v -112 -48 0
v -96 -48 0
v -112 -64 0
v -128 -64 0
v -128 -48 0
v -112 -48 0
v -128 -64 0
v -144 -64 0
v -144 -48 0
v -128 -48 0
v -144 -64 0
v -160 -64 0
v -160 -48 0
v -144 -48 0
v -160 -64 0
v -176 -64 0
v -176 -48 0
v -160 -48 0
v -176 -64 0
v -192 -64 0
v -192 -48 0
v -176 -48 0
v -192 -64 0
v -208 -64 0
v -208 -48 0
v -192 -48 0
v -208 -64 0
v -224 -64 0
v -224 -48 0
v -208 -48 0
v -224 -64 0
v -240 -64 0
v -240 -48 0
v -224 -48 0
v -240 -64 0
v -256 -64 0
v -256 -48 0
v -240 -48 0
v 0 -80 0
v -16 -80 0
v -16 -64 0
v 0 -64 0
v -16 -80 0
v -32 -80 0
v -32 -64 0
v -16 -64 0
v -32 -80 0
v -48 -80 0
v -48 -64 0
v -32 -64 0
v -48 -80 0
v -64 -80 0
v -64 -64 0
v -48 -64 0
v -64 -80 0
v -80 -80 0
v -80 -64 0
v -64 -64 0
v -80 -80 0
v -96 -80 0
v -96 -64 0
v -80 -64 0
v -96 -80 0
v -112 -80 0
v -112 -64 0
v -96 -64 0
v -112 -80 0
v -128 -80 0
v -128 -64 0
v -112 -64 0
v -128 -80 0
v -144 -80 0
v -144 -64 0
v -128 -64 0
v -144 -80 0
v -160 -80 0
v -160 -64 0
v -144 -64 0
v -160 -80 0
v -176 -80 0
v -176 -64 0
v -160 -64 0
v -176 -80 0
v -192 -80 0
v -192 -64 0
v -176 -64 0
v -192 -80 0
v -208 -80 0
v -208 -64 0
v -192 -64 0
v -208 -80 0
v -224 -80 0
v -224 -64 0
v -208 -64 0
v -224 -80 0
v -240 -80 0
v -240 -64 0
v -224 -64 0
v -240 -80 0
v -256 -80 0
v -256 -64 0
v -240 -64 0
v 0 -96 0
v -16 -96 0
v -16 -80 0
v 0 -80 0
v -16 -96 0
v -32 -96 0
v -32 -80 0
v -16 -80 0
v -32 -96 0
v -48 -96 0
v -48 -80 0
v -32 -80 0
v -48 -96 0
v -64 -96 0
v -64 -80 0
v -48 -80 0
v -64 -96 0
v -80 -96 0
v -80 -80 0
v -64 -80 0
v -80 -96 0
v -96 -96 0
v -96 -80 0
v -80 -80 0
v -96 -96 0
v -112 -96 0
v -112 -80 0
v -96 -80 0
v -112 -96 0
v -128 -96 0
v -128 -80 0
v -112 -80 0
v -128 -96 0
v -144 -96 0
v -144 -80 0
v -128 -80 0
v -144 -96 0
v -160 -96 0
v -160 -80 0
v -144 -80 0
v -160 -96 0
v -176 -96 0
v -176 -80 0
v -160 -80 0
v -176 -96 0
v -192 -96 0
v -192 -80 0
v -176 -80 0
v -192 -96 0
v -208 -96 0
v -208 -80 0
v -192 -80 0
v -208 -96 0
v -224 -96 0
v -224 -80 0
v -208 -80 0
v -224 -96 0
v -240 -96 0
v -240 -80 0
v -224 -80 0
v -240 -96 0
v -256 -96 0
v -256 -80 0
v -240 -80 0
v 0 -112 0
v -16 -112 0
v -16 -96 0
v 0 -96 0
v -16 -112 0
v -32 -112 0
v -32 -96 0
v -16 -96 0
v -32 -112 0
v -48 -112 0
v -48 -96 0
v -32 -96 0
v -48 -112 0
v -64 -112 0
v -64 -96 0
v -48 -96 0
v -64 -112 0
v -80 -112 0
v -80 -96 0
v -64 -96 0
v -80 -112 0
v -96 -112 0
v -96 -96 0
v -80 -96 0
v -96 -112 0
v -112 -112 0
v -112 -96 0
v -96 -96 0
v -112 -112 0
v -128 -112 0
v -128 -96 0
v -112 -96 0
v -128 -112 0
v -144 -112 0
v -144 -96 0
v -128 -96 0
v -144 -112 0
v -160 -112 0
v -160 -96 0
v -144 -96 0
v -160 -112 0
v -176 -112 0
v -176 -96 0
v -160 -96 0
v -176 -112 0
v -192 -112 0
v -192 -96 0
v -176 -96 0
v -192 -112 0
v -208 -112 0
v -208 -96 0
v -192 -96 0
v -208 -112 0
v -224 -112 0
v -224 -96 0
v -208 -96 0
v -224 -112 0
v -240 -112 0
v -240 -96 0
v -224 -96 0
v -240 -112 0
v -256 -112 0
v -256 -96 0
v -240 -96 0
v 0 -128 0
v -16 -128 0
v -16 -112 0
v 0 -112 0
v -16 -128 0
v -32 -128 0
v -32 -112 0
v -16 -112 0
v -32 -128 0
v -48 -128 0
v -48 -112 0
v -32 -112 0
v -48 -128 0
v -64 -128 0
v -64 -112 0
v -48 -112 0
v -64 -128 0
v -80 -128 0
v -80 -112 0
v -64 -112 0
v -80 -128 0
v -96 -128 0
v -96 -112 0
v -80 -112 0
v -96 -128 0
v -112 -128 0
v -112 -112 0
v -96 -112 0
v -112 -128 0
v -128 -128 0
v -128 -112 0
v -112 -112 0
v -128 -128 0
v -144 -128 0
v -144 -112 0
v -128 -112 0
v -144 -128 0
v -160 -128 0
v -160 -112 0
v -144 -112 0
v -160 -128 0
v -176 -128 0
v -176 -112 0
v -160 -112 0
v -176 -128 0
v -192 -128 0
v -192 -112 0
v -176 -112 0
v -192 -128 0
v -208 -128 0
v -208 -112 0
v -192 -112 0
v -208 -128 0
v -224 -128 0
v -224 -112 0
v -208 -112 0
v -224 -128 0
v -240 -128 0
v -240 -112 0
v -224 -112 0
v -240 -128 0
v -256 -128 0
v -256 -112 0
v -240 -112 0
v 0 -144 0
v -16 -144 0
v -16 -128 0
v 0 -128 0
v -16 -144 0
v -32 -144 0
v -32 -128 0
v -16 -128 0
v -32 -144 0
v -48 -144 0
v -48 -128 0
v -32 -128 0
v -48 -144 0
v -64 -144 0
v -64 -128 0
v -48 -128 0
v -64 -144 0
v -80 -144 0
v -80 -128 0
v -64 -128 0
v -80 -144 0
v -96 -144 0
v -96 -128 0
v -80 -128 0
v -96 -144 0
v -112 -144 0
v -112 -128 0
v -96 -128 0
v -112 -144 0
v -128 -144 0
v -128 -128 0
v -112 -128 0
v -128 -144 0
v -144 -144 0
v -144 -128 0
v -128 -128 0
v -144 -144 0
v -160 -144 0
v -160 -128 0
v -144 -128 0
v -160 -144 0
v -176 -144 0
v -176 -128 0
v -160 -128 0
v -176 -144 0
v -192 -144 0
v -192 -128 0
v -176 -128 0
v -192 -144 0
v -208 -144 0
v -208 -128 0
v -192 -128 0
v -208 -144 0
v -224 -144 0
v -224 -128 0
v -208 -128 0
v -224 -144 0
v -240 -144 0
v -240 -128 0
v -224 -128 0
v -240 -144 0
v -256 -144 0
v -256 -128 0
v -240 -128 0
v 0 -160 0
v -16 -160 0
v -16 -144 0
v 0 -144 0
v -16 -160 0
v -32 -160 0
v -32 -144 0
v -16 -144 0
v -32 -160 0
v -48 -160 0
v -48 -144 0
v -32 -144 0
v -48 -160 0
v -64 -160 0
v -64 -144 0
v -48 -144 0
v -64 -160 0
v -80 -160 0
v -80 -144 0
v -64 -144 0
v -80 -160 0
v -96 -160 0
v -96 -144 0
v -80 -144 0
v -96 -160 0
v -112 -160 0
v -112 -144 0
v -96 -144 0
v -112 -160 0
v -128 -160 0
v -128 -144 0
v -112 -144 0
v -128 -160 0
v -144 -160 0
v -144 -144 0
v -128 -144 0
v -144 -160 0
v -160 -160 0
v -160 -144 0
v -144 -144 0
v -160 -160 0
v -176 -160 0
v -176 -144 0
v -160 -144 0
v -176 -160 0
v -192 -160 0
v -192 -144 0
v -176 -144 0
v -192 -160 0
v -208 -160 0
v -208 -144 0
v -192 -144 0
v -208 -160 0
v -224 -160 0
v -224 -144 0
v -208 -144 0
v -224 -160 0
v -240 -160 0
v -240 -144 0
v -224 -144 0
v -240 -160 0
v -256 -160 0
v -256 -144 0
v -240 -144 0
v 0 -176 0
v -16 -176 0
v -16 -160 0
v 0 -160 0
v -16 -176 0
v -32 -176 0
v -32 -160 0
v -16 -160 0
v -32 -176 0
v -48 -176 0
v -48 -160 0
v -32 -160 0
v -48 -176 0
v -64 -176 0
v -64 -160 0
v -48 -160 0
v -64 -176 0
v -80 -176 0
v -80 -160 0
v -64 -160 0
v -80 -176 0
v -96 -176 0
v -96 -160 0
v -80 -160 0
v -96 -176 0
v -112 -176 0
v -112 -160 0
v -96 -160 0
v -112 -176 0
v -128 -176 0
v -128 -160 0
v -112 -160 0
v -128 -176 0
v -144 -176 0
v -144 -160 0
v -128 -160 0
v -144 -176 0
v -160 -176 0
v -160 -160 0
v -144 -160 0
v -160 -176 0
v -176 -176 0
v -176 -160 0
v -160 -160 0
v -176 -176 0
v -192 -176 0
v -192 -160 0
v -176 -160 0
v -192 -176 0
v -208 -176 0
v -208 -160 0
v -192 -160 0
v -208 -176 0
v -224 -176 0
v -224 -160 0
v -208 -160 0
v -224 -176 0
v -240 -176 0
v -240 -160 0
v -224 -160 0
v -240 -176 0
v -256 -176 0
v -256 -160 0
v -240 -160 0
v 0 -192 0
v -16 -192 0
v -16 -176 0
v 0 -176 0
v -16 -192 0
v -32 -192 0
v -32 -176 0
v -16 -176 0
v -32 -192 0
v -48 -192 0
v -48 -176 0
v -32 -176 0
v -48 -192 0
v -64 -192 0
v -64 -176 0
v -48 -176 0
v -64 -192 0
v -80 -192 0
v -80 -176 0
v -64 -176 0
v -80 -192 0
v -96 -192 0
v -96 -176 0
v -80 -176 0
v -96 -192 0
v -112 -192 0
v -112 -176 0
v -96 -176 0
v -112 -192 0
v -128 -192 0
v -128 -176 0
v -112 -176 0
v -128 -192 0
v -144 -192 0
v -144 -176 0
v -128 -176 0
v -144 -192 0
v -160 -192 0
v -160 -176 0
v -144 -176 0
v -160 -192 0
v -176 -192 0
v -176 -176 0
v -160 -176 0
v -176 -192 0
v -192 -192 0
v -192 -176 0
v -176 -176 0
v -192 -192 0
v -208 -192 0
v -208 -176 0
v -192 -176 0
v -208 -192 0
v -224 -192 0
v -224 -176 0
v -208 -176 0
v -224 -192 0
v -240 -192 0
v -240 -176 0
v -224 -176 0
v -240 -192 0
v -256 -192 0
v -256 -176 0
v -240 -176 0
v 0 -208 0
v -16 -208 0
v -16 -192 0
v 0 -192 0
v -16 -208 0
v -32 -208 0
v -32 -192 0
v -16 -192 0
v -32 -208 0
v -48 -208 0
v -48 -192 0
v -32 -192 0
v -48 -208 0
v -64 -208 0
v -64 -192 0
v -48 -192 0
v -64 -208 0
v -80 -208 0
v -80 -192 0
v -64 -192 0
v -80 -208 0
v -96 -208 0
v -96 -192 0
v -80 -192 0
v -96 -208 0
v -112 -208 0
v -112 -192 0
v -96 -192 0
v -112 -208 0
v -128 -208 0
v -128 -192 0
v -112 -192 0
v -128 -208 0
v -144 -208 0
v -144 -192 0
v -128 -192 0
v -144 -208 0
v -160 -208 0
v -160 -192 0
v -144 -192 0
v -160 -208 0
v -176 -208 0
v -176 -192 0
v -160 -192 0
v -176 -208 0
v -192 -208 0
v -192 -192 0
v -176 -192 0
v -192 -208 0
v -208 -208 0
v -208 -192 0
v -192 -192 0
v -208 -208 0
v -224 -208 0
v -224 -192 0
v -208 -192 0
v -224 -208 0
v -240 -208 0
v -240 -192 0
v -224 -192 0
v -240 -208 0
v -256 -208 0
v -256 -192 0
v -240 -192 0
v 0 -224 0
v -16 -224 0
v -16 -208 0
v 0 -208 0
v -16 -224 0
v -32 -224 0
v -32 -208 0
v -16 -208 0
v -32 -224 0
v -48 -224 0
v -48 -208 0
v -32 -208 0
v -48 -224 0
v -64 -224 0
v -64 -208 0
v -48 -208 0
v -64 -224 0
v -80 -224 0
v -80 -208 0
v -64 -208 0
v -80 -224 0
v -96 -224 0
v -96 -208 0
v -80 -208 0
v -96 -224 0
v -112 -224 0
v -112 -208 0
v -96 -208 0
v -112 -224 0
v -128 -224 0
v -128 -208 0
v -112 -208 0
v -128 -224 0
v -144 -224 0
v -144 -208 0
v -128 -208 0
v -144 -224 0
v -160 -224 0
v -160 -208 0
v -144 -208 0
v -160 -224 0
v -176 -224 0
v -176 -208 0
v -160 -208 0
v -176 -224 0
v -192 -224 0
v -192 -208 0
v -176 -208 0
v -192 -224 0
v -208 -224 0
v -208 -208 0
v -192 -208 0
v -208 -224 0
v -224 -224 0
v -224 -208 0
v -208 -208 0
v -224 -224 0
v -240 -224 0
v -240 -208 0
v -224 -208 0
v -240 -224 0
v -256 -224 0
v -256 -208 0
v -240 -208 0
v 0 -240 0
v -16 -240 0
v -16 -224 0
v 0 -224 0
v -16 -240 0
v -32 -240 0
v -32 -224 0
v -16 -224 0
v -32 -240 0
v -48 -240 0
v -48 -224 0
v -32 -224 0
v -48 -240 0
v -64 -240 0
v -64 -224 0
v -48 -224 0
v -64 -240 0
v -80 -240 0
v -80 -224 0
v -64 -224 0
v -80 -240 0
v -96 -240 0
v -96 -224 0
v -80 -224 0
v -96 -240 0
v -112 -240 0
v -112 -224 0
v -96 -224 0
v -112 -240 0
v -128 -240 0
v -128 -224 0
v -112 -224 0
v -128 -240 0
v -144 -240 0
v -144 -224 0
v -128 -224 0
v -144 -240 0
v -160 -240 0
v -160 -224 0
v -144 -224 0
v -160 -240 0
v -176 -240 0
v -176 -224 0
v -160 -224 0
v -176 -240 0
v -192 -240 0
v -192 -224 0
v -176 -224 0
v -192 -240 0
v -208 -240 0
v -208 -224 0
v -192 -224 0
v -208 -240 0
v -224 -240 0
v -224 -224 0
v -208 -224 0
v -224 -240 0
v -240 -240 0
v -240 -224 0
v -224 -224 0
v -240 -240 0
v -256 -240 0
v -256 -224 0
v -240 -224 0
v 0 -256 0
v -16 -256 0
v -16 -240 0
v 0 -240 0
v -16 -256 0
v -32 -256 0
v -32 -240 0
v -16 -240 0
v -32 -256 0
v -48 -256 0
v -48 -240 0
v -32 -240 0
v -48 -256 0
v -64 -256 0
v -64 -240 0
v -48 -240 0
v -64 -256 0
v -80 -256 0
v -80 -240 0
v -64 -240 0
v -80 -256 0
v -96 -256 0
v -96 -240 0
v -80 -240 0
v -96 -256 0
v -112 -256 0
v -112 -240 0
v -96 -240 0
v -112 -256 0
v -128 -256 0
v -128 -240 0
v -112 -240 0
v -128 -256 0
v -144 -256 0
v -144 -240 0
v -128 -240 0
v -144 -256 0
v -160 -256 0
v -160 -240 0
v -144 -240 0
v -160 -256 0
v -176 -256 0
v -176 -240 0
v -160 -240 0
v -176 -256 0
v -192 -256 0
v -192 -240 0
v -176 -240 0
v -192 -256 0
v -208 -256 0
v -208 -240 0
v -192 -240 0
v -208 -256 0
v -224 -256 0
v -224 -240 0
v -208 -240 0
v -224 -256 0
v -240 -256 0
v -240 -240 0
v -224 -240 0
v -240 -256 0
v -256 -256 0
v -256 -240 0
v -240 -240 0

# Texture cooridinates (Count = 20)
vt 0.606383 0.75
vt 0.6170213 0.75
vt 0.6170213 0.8125
vt 0.606383 0.8125
vt 0.606383 0.6875
vt 0.6170213 0.6875
vt 0.606383 0.625
vt 0.6170213 0.625
vt 0.6276596 0.6875
vt 0.6276596 0.75
vt 0.6382979 0.6875
vt 0.6382979 0.75
vt 0.6276596 0.625
vt 0.6382979 0.625
vt 0.6276596 0.8125
vt 0.6276596 0.875
vt 0.6170213 0.875
vt 0.6382979 0.8125
vt 0.6382979 0.875
vt 0.606383 0.875

# Normal
vn 0 0 -1

# Mesh description
g 2ScenarioPlataforma_mesh_0975

# Faces
f 1/1/1 2/2/1 3/3/1 4/4/1
f 5/1/1 6/2/1 7/3/1 8/4/1
f 9/1/1 10/2/1 11/3/1 12/4/1
f 13/1/1 14/2/1 15/3/1 16/4/1
f 17/1/1 18/2/1 19/3/1 20/4/1
f 21/1/1 22/2/1 23/3/1 24/4/1
f 25/1/1 26/2/1 27/3/1 28/4/1
f 29/1/1 30/2/1 31/3/1 32/4/1
f 33/1/1 34/2/1 35/3/1 36/4/1
f 37/1/1 38/2/1 39/3/1 40/4/1
f 41/1/1 42/2/1 43/3/1 44/4/1
f 45/1/1 46/2/1 47/3/1 48/4/1
f 49/1/1 50/2/1 51/3/1 52/4/1
f 53/1/1 54/2/1 55/3/1 56/4/1
f 57/1/1 58/2/1 59/3/1 60/4/1
f 61/1/1 62/2/1 63/3/1 64/4/1
f 65/5/1 66/6/1 67/2/1 68/1/1
f 69/5/1 70/6/1 71/2/1 72/1/1
f 73/5/1 74/6/1 75/2/1 76/1/1
f 77/5/1 78/6/1 79/2/1 80/1/1
f 81/5/1 82/6/1 83/2/1 84/1/1
f 85/5/1 86/6/1 87/2/1 88/1/1
f 89/5/1 90/6/1 91/2/1 92/1/1
f 93/5/1 94/6/1 95/2/1 96/1/1
f 97/5/1 98/6/1 99/2/1 100/1/1
f 101/5/1 102/6/1 103/2/1 104/1/1
f 105/5/1 106/6/1 107/2/1 108/1/1
f 109/5/1 110/6/1 111/2/1 112/1/1
f 113/5/1 114/6/1 115/2/1 116/1/1
f 117/5/1 118/6/1 119/2/1 120/1/1
f 121/5/1 122/6/1 123/2/1 124/1/1
f 125/5/1 126/6/1 127/2/1 128/1/1
f 129/7/1 130/8/1 131/6/1 132/5/1
f 133/7/1 134/8/1 135/6/1 136/5/1
f 137/7/1 138/8/1 139/6/1 140/5/1
f 141/7/1 142/8/1 143/6/1 144/5/1
f 145/7/1 146/8/1 147/6/1 148/5/1
f 149/7/1 150/8/1 151/6/1 152/5/1
f 153/7/1 154/8/1 155/6/1 156/5/1
f 157/7/1 158/8/1 159/6/1 160/5/1
f 161/7/1 162/8/1 163/6/1 164/5/1
f 165/7/1 166/8/1 167/6/1 168/5/1
f 169/7/1 170/8/1 171/6/1 172/5/1
f 173/7/1 174/8/1 175/6/1 176/5/1
f 177/7/1 178/8/1 179/6/1 180/5/1
f 181/7/1 182/8/1 183/6/1 184/5/1
f 185/7/1 186/8/1 187/6/1 188/5/1
f 189/7/1 190/8/1 191/6/1 192/5/1
f 193/6/1 194/9/1 195/10/1 196/2/1
f 197/9/1 198/11/1 199/12/1 200/10/1
f 201/5/1 202/6/1 203/2/1 204/1/1
f 205/6/1 206/9/1 207/10/1 208/2/1
f 209/9/1 210/11/1 211/12/1 212/10/1
f 213/5/1 214/6/1 215/2/1 216/1/1
f 217/6/1 218/9/1 219/10/1 220/2/1
f 221/9/1 222/11/1 223/12/1 224/10/1
f 225/5/1 226/6/1 227/2/1 228/1/1
f 229/6/1 230/9/1 231/10/1 232/2/1
f 233/9/1 234/11/1 235/12/1 236/10/1
f 237/5/1 238/6/1 239/2/1 240/1/1
f 241/6/1 242/9/1 243/10/1 244/2/1
f 245/9/1 246/11/1 247/12/1 248/10/1
f 249/5/1 250/6/1 251/2/1 252/1/1
f 253/6/1 254/9/1 255/10/1 256/2/1
f 257/8/1 258/13/1 259/9/1 260/6/1
f 261/13/1 262/14/1 263/11/1 264/9/1
f 265/7/1 266/8/1 267/6/1 268/5/1
f 269/8/1 270/13/1 271/9/1 272/6/1
f 273/13/1 274/14/1 275/11/1 276/9/1
f 277/7/1 278/8/1 279/6/1 280/5/1
f 281/8/1 282/13/1 283/9/1 284/6/1
f 285/13/1 286/14/1 287/11/1 288/9/1
f 289/7/1 290/8/1 291/6/1 292/5/1
f 293/8/1 294/13/1 295/9/1 296/6/1
f 297/13/1 298/14/1 299/11/1 300/9/1
f 301/7/1 302/8/1 303/6/1 304/5/1
f 305/8/1 306/13/1 307/9/1 308/6/1
f 309/13/1 310/14/1 311/11/1 312/9/1
f 313/7/1 314/8/1 315/6/1 316/5/1
f 317/8/1 318/13/1 319/9/1 320/6/1
f 321/3/1 322/15/1 323/16/1 324/17/1
f 325/15/1 326/18/1 327/19/1 328/16/1
f 329/4/1 330/3/1 331/17/1 332/20/1
f 333/3/1 334/15/1 335/16/1 336/17/1
f 337/15/1 338/18/1 339/19/1 340/16/1
f 341/4/1 342/3/1 343/17/1 344/20/1
f 345/3/1 346/15/1 347/16/1 348/17/1
f 349/15/1 350/18/1 351/19/1 352/16/1
f 353/4/1 354/3/1 355/17/1 356/20/1
f 357/3/1 358/15/1 359/16/1 360/17/1
f 361/15/1 362/18/1 363/19/1 364/16/1
f 365/4/1 366/3/1 367/17/1 368/20/1
f 369/3/1 370/15/1 371/16/1 372/17/1
f 373/15/1 374/18/1 375/19/1 376/16/1
f 377/4/1 378/3/1 379/17/1 380/20/1
f 381/3/1 382/15/1 383/16/1 384/17/1
f 385/2/1 386/10/1 387/15/1 388/3/1
f 389/10/1 390/12/1 391/18/1 392/15/1
f 393/1/1 394/2/1 395/3/1 396/4/1
f 397/2/1 398/10/1 399/15/1 400/3/1
f 401/10/1 402/12/1 403/18/1 404/15/1
f 405/1/1 406/2/1 407/3/1 408/4/1
f 409/2/1 410/10/1 411/15/1 412/3/1
f 413/10/1 414/12/1 415/18/1 416/15/1
f 417/1/1 418/2/1 419/3/1 420/4/1
f 421/2/1 422/10/1 423/15/1 424/3/1
f 425/10/1 426/12/1 427/18/1 428/15/1
f 429/1/1 430/2/1 431/3/1 432/4/1
f 433/2/1 434/10/1 435/15/1 436/3/1
f 437/10/1 438/12/1 439/18/1 440/15/1
f 441/1/1 442/2/1 443/3/1 444/4/1
f 445/2/1 446/10/1 447/15/1 448/3/1
f 449/6/1 450/9/1 451/10/1 452/2/1
f 453/9/1 454/11/1 455/12/1 456/10/1
f 457/5/1 458/6/1 459/2/1 460/1/1
f 461/6/1 462/9/1 463/10/1 464/2/1
f 465/9/1 466/11/1 467/12/1 468/10/1
f 469/5/1 470/6/1 471/2/1 472/1/1
f 473/6/1 474/9/1 475/10/1 476/2/1
f 477/9/1 478/11/1 479/12/1 480/10/1
f 481/5/1 482/6/1 483/2/1 484/1/1
f 485/6/1 486/9/1 487/10/1 488/2/1
f 489/9/1 490/11/1 491/12/1 492/10/1
f 493/5/1 494/6/1 495/2/1 496/1/1
f 497/6/1 498/9/1 499/10/1 500/2/1
f 501/9/1 502/11/1 503/12/1 504/10/1
f 505/5/1 506/6/1 507/2/1 508/1/1
f 509/6/1 510/9/1 511/10/1 512/2/1
f 513/8/1 514/13/1 515/9/1 516/6/1
f 517/13/1 518/14/1 519/11/1 520/9/1
f 521/7/1 522/8/1 523/6/1 524/5/1
f 525/8/1 526/13/1 527/9/1 528/6/1
f 529/13/1 530/14/1 531/11/1 532/9/1
f 533/7/1 534/8/1 535/6/1 536/5/1
f 537/8/1 538/13/1 539/9/1 540/6/1
f 541/13/1 542/14/1 543/11/1 544/9/1
f 545/7/1 546/8/1 547/6/1 548/5/1
f 549/8/1 550/13/1 551/9/1 552/6/1
f 553/13/1 554/14/1 555/11/1 556/9/1
f 557/7/1 558/8/1 559/6/1 560/5/1
f 561/8/1 562/13/1 563/9/1 564/6/1
f 565/13/1 566/14/1 567/11/1 568/9/1
f 569/7/1 570/8/1 571/6/1 572/5/1
f 573/8/1 574/13/1 575/9/1 576/6/1
f 577/3/1 578/15/1 579/16/1 580/17/1
f 581/15/1 582/18/1 583/19/1 584/16/1
f 585/4/1 586/3/1 587/17/1 588/20/1
f 589/3/1 590/15/1 591/16/1 592/17/1
f 593/15/1 594/18/1 595/19/1 596/16/1
f 597/4/1 598/3/1 599/17/1 600/20/1
f 601/3/1 602/15/1 603/16/1 604/17/1
f 605/15/1 606/18/1 607/19/1 608/16/1
f 609/4/1 610/3/1 611/17/1 612/20/1
f 613/3/1 614/15/1 615/16/1 616/17/1
f 617/15/1 618/18/1 619/19/1 620/16/1
f 621/4/1 622/3/1 623/17/1 624/20/1
f 625/3/1 626/15/1 627/16/1 628/17/1
f 629/15/1 630/18/1 631/19/1 632/16/1
f 633/4/1 634/3/1 635/17/1 636/20/1
f 637/3/1 638/15/1 639/16/1 640/17/1
f 641/2/1 642/10/1 643/15/1 644/3/1
f 645/10/1 646/12/1 647/18/1 648/15/1
f 649/1/1 650/2/1 651/3/1 652/4/1
f 653/2/1 654/10/1 655/15/1 656/3/1
f 657/10/1 658/12/1 659/18/1 660/15/1
f 661/1/1 662/2/1 663/3/1 664/4/1
f 665/2/1 666/10/1 667/15/1 668/3/1
f 669/10/1 670/12/1 671/18/1 672/15/1
f 673/1/1 674/2/1 675/3/1 676/4/1
f 677/2/1 678/10/1 679/15/1 680/3/1
f 681/10/1 682/12/1 683/18/1 684/15/1
f 685/1/1 686/2/1 687/3/1 688/4/1
f 689/2/1 690/10/1 691/15/1 692/3/1
f 693/10/1 694/12/1 695/18/1 696/15/1
f 697/1/1 698/2/1 699/3/1 700/4/1
f 701/2/1 702/10/1 703/15/1 704/3/1
f 705/6/1 706/9/1 707/10/1 708/2/1
f 709/9/1 710/11/1 711/12/1 712/10/1
f 713/5/1 714/6/1 715/2/1 716/1/1
f 717/6/1 718/9/1 719/10/1 720/2/1
f 721/9/1 722/11/1 723/12/1 724/10/1
f 725/5/1 726/6/1 727/2/1 728/1/1
f 729/6/1 730/9/1 731/10/1 732/2/1
f 733/9/1 734/11/1 735/12/1 736/10/1
f 737/5/1 738/6/1 739/2/1 740/1/1
f 741/6/1 742/9/1 743/10/1 744/2/1
f 745/9/1 746/11/1 747/12/1 748/10/1
f 749/5/1 750/6/1 751/2/1 752/1/1
f 753/6/1 754/9/1 755/10/1 756/2/1
f 757/9/1 758/11/1 759/12/1 760/10/1
f 761/5/1 762/6/1 763/2/1 764/1/1
f 765/6/1 766/9/1 767/10/1 768/2/1
f 769/4/1 770/3/1 771/17/1 772/20/1
f 773/4/1 774/3/1 775/17/1 776/20/1
f 777/4/1 778/3/1 779/17/1 780/20/1
f 781/4/1 782/3/1 783/17/1 784/20/1
f 785/4/1 786/3/1 787/17/1 788/20/1
f 789/4/1 790/3/1 791/17/1 792/20/1
f 793/4/1 794/3/1 795/17/1 796/20/1
f 797/4/1 798/3/1 799/17/1 800/20/1
f 801/4/1 802/3/1 803/17/1 804/20/1
f 805/4/1 806/3/1 807/17/1 808/20/1
f 809/4/1 810/3/1 811/17/1 812/20/1
f 813/4/1 814/3/1 815/17/1 816/20/1
f 817/4/1 818/3/1 819/17/1 820/20/1
f 821/4/1 822/3/1 823/17/1 824/20/1
f 825/4/1 826/3/1 827/17/1 828/20/1
f 829/4/1 830/3/1 831/17/1 832/20/1
f 833/1/1 834/2/1 835/3/1 836/4/1
f 837/1/1 838/2/1 839/3/1 840/4/1
f 841/1/1 842/2/1 843/3/1 844/4/1
f 845/1/1 846/2/1 847/3/1 848/4/1
f 849/1/1 850/2/1 851/3/1 852/4/1
f 853/1/1 854/2/1 855/3/1 856/4/1
f 857/1/1 858/2/1 859/3/1 860/4/1
f 861/1/1 862/2/1 863/3/1 864/4/1
f 865/1/1 866/2/1 867/3/1 868/4/1
f 869/1/1 870/2/1 871/3/1 872/4/1
f 873/1/1 874/2/1 875/3/1 876/4/1
f 877/1/1 878/2/1 879/3/1 880/4/1
f 881/1/1 882/2/1 883/3/1 884/4/1
f 885/1/1 886/2/1 887/3/1 888/4/1
f 889/1/1 890/2/1 891/3/1 892/4/1
f 893/1/1 894/2/1 895/3/1 896/4/1
f 897/5/1 898/6/1 899/2/1 900/1/1
f 901/5/1 902/6/1 903/2/1 904/1/1
f 905/5/1 906/6/1 907/2/1 908/1/1
f 909/5/1 910/6/1 911/2/1 912/1/1
f 913/5/1 914/6/1 915/2/1 916/1/1
f 917/5/1 918/6/1 919/2/1 920/1/1
f 921/5/1 922/6/1 923/2/1 924/1/1
f 925/5/1 926/6/1 927/2/1 928/1/1
f 929/5/1 930/6/1 931/2/1 932/1/1
f 933/5/1 934/6/1 935/2/1 936/1/1
f 937/5/1 938/6/1 939/2/1 940/1/1
f 941/5/1 942/6/1 943/2/1 944/1/1
f 945/5/1 946/6/1 947/2/1 948/1/1
f 949/5/1 950/6/1 951/2/1 952/1/1
f 953/5/1 954/6/1 955/2/1 956/1/1
f 957/5/1 958/6/1 959/2/1 960/1/1
f 961/7/1 962/8/1 963/6/1 964/5/1
f 965/7/1 966/8/1 967/6/1 968/5/1
f 969/7/1 970/8/1 971/6/1 972/5/1
f 973/7/1 974/8/1 975/6/1 976/5/1
f 977/7/1 978/8/1 979/6/1 980/5/1
f 981/7/1 982/8/1 983/6/1 984/5/1
f 985/7/1 986/8/1 987/6/1 988/5/1
f 989/7/1 990/8/1 991/6/1 992/5/1
f 993/7/1 994/8/1 995/6/1 996/5/1
f 997/7/1 998/8/1 999/6/1 1000/5/1
f 1001/7/1 1002/8/1 1003/6/1 1004/5/1
f 1005/7/1 1006/8/1 1007/6/1 1008/5/1
f 1009/7/1 1010/8/1 1011/6/1 1012/5/1
f 1013/7/1 1014/8/1 1015/6/1 1016/5/1
f 1017/7/1 1018/8/1 1019/6/1 1020/5/1
f 1021/7/1 1022/8/1 1023/6/1 1024/5/1

