# Tiled2Unity generated file. Do not modify by hand.
# Wavefront file for '2ScenarioPlataforma_mesh_0932.obj'

# Vertices (Count = 664)
v 0 -16 0
v -16 -16 0
v -16 0 0
v 0 0 0
v -16 -16 0
v -32 -16 0
v -32 0 0
v -16 0 0
v -32 -16 0
v -48 -16 0
v -48 0 0
v -32 0 0
v -48 -16 0
v -64 -16 0
v -64 0 0
v -48 0 0
v -64 -16 0
v -80 -16 0
v -80 0 0
v -64 0 0
v -80 -16 0
v -96 -16 0
v -96 0 0
v -80 0 0
v -96 -16 0
v -112 -16 0
v -112 0 0
v -96 0 0
v -112 -16 0
v -128 -16 0
v -128 0 0
v -112 0 0
v -128 -16 0
v -144 -16 0
v -144 0 0
v -128 0 0
v -144 -16 0
v -160 -16 0
v -160 0 0
v -144 0 0
v -160 -16 0
v -176 -16 0
v -176 0 0
v -160 0 0
v -176 -16 0
v -192 -16 0
v -192 0 0
v -176 0 0
v -192 -16 0
v -208 -16 0
v -208 0 0
v -192 0 0
v -208 -16 0
v -224 -16 0
v -224 0 0
v -208 0 0
v -224 -16 0
v -240 -16 0
v -240 0 0
v -224 0 0
v -240 -16 0
v -256 -16 0
v -256 0 0
v -240 0 0
v 0 -32 0
v -16 -32 0
v -16 -16 0
v 0 -16 0
v -16 -32 0
v -32 -32 0
v -32 -16 0
v -16 -16 0
v -32 -32 0
v -48 -32 0
v -48 -16 0
v -32 -16 0
v -48 -32 0
v -64 -32 0
v -64 -16 0
v -48 -16 0
v -64 -32 0
v -80 -32 0
v -80 -16 0
v -64 -16 0
v -80 -32 0
v -96 -32 0
v -96 -16 0
v -80 -16 0
v -96 -32 0
v -112 -32 0
v -112 -16 0
v -96 -16 0
v -112 -32 0
v -128 -32 0
v -128 -16 0
v -112 -16 0
v -128 -32 0
v -144 -32 0
v -144 -16 0
v -128 -16 0
v -144 -32 0
v -160 -32 0
v -160 -16 0
v -144 -16 0
v -160 -32 0
v -176 -32 0
v -176 -16 0
v -160 -16 0
v -176 -32 0
v -192 -32 0
v -192 -16 0
v -176 -16 0
v -192 -32 0
v -208 -32 0
v -208 -16 0
v -192 -16 0
v -208 -32 0
v -224 -32 0
v -224 -16 0
v -208 -16 0
v -224 -32 0
v -240 -32 0
v -240 -16 0
v -224 -16 0
v -240 -32 0
v -256 -32 0
v -256 -16 0
v -240 -16 0
v 0 -48 0
v -16 -48 0
v -16 -32 0
v 0 -32 0
v -16 -48 0
v -32 -48 0
v -32 -32 0
v -16 -32 0
v -32 -48 0
v -48 -48 0
v -48 -32 0
v -32 -32 0
v -48 -48 0
v -64 -48 0
v -64 -32 0
v -48 -32 0
v -64 -48 0
v -80 -48 0
v -80 -32 0
v -64 -32 0
v -80 -48 0
v -96 -48 0
v -96 -32 0
v -80 -32 0
v -96 -48 0
v -112 -48 0
v -112 -32 0
v -96 -32 0
v -112 -48 0
v -128 -48 0
v -128 -32 0
v -112 -32 0
v -128 -48 0
v -144 -48 0
v -144 -32 0
v -128 -32 0
v -144 -48 0
v -160 -48 0
v -160 -32 0
v -144 -32 0
v -160 -48 0
v -176 -48 0
v -176 -32 0
v -160 -32 0
v -176 -48 0
v -192 -48 0
v -192 -32 0
v -176 -32 0
v -192 -48 0
v -208 -48 0
v -208 -32 0
v -192 -32 0
v -208 -48 0
v -224 -48 0
v -224 -32 0
v -208 -32 0
v -224 -48 0
v -240 -48 0
v -240 -32 0
v -224 -32 0
v -240 -48 0
v -256 -48 0
v -256 -32 0
v -240 -32 0
v 0 -64 0
v -16 -64 0
v -16 -48 0
v 0 -48 0
v -16 -64 0
v -32 -64 0
v -32 -48 0
v -16 -48 0
v -32 -64 0
v -48 -64 0
v -48 -48 0
v -32 -48 0
v -48 -64 0
v -64 -64 0
v -64 -48 0
v -48 -48 0
v -64 -64 0
v -80 -64 0
v -80 -48 0
v -64 -48 0
v -80 -64 0
v -96 -64 0
v -96 -48 0
v -80 -48 0
v -96 -64 0
v -112 -64 0
v -112 -48 0
v -96 -48 0
v -112 -64 0
v -128 -64 0
v -128 -48 0
v -112 -48 0
v -128 -64 0
v -144 -64 0
v -144 -48 0
v -128 -48 0
v -144 -64 0
v -160 -64 0
v -160 -48 0
v -144 -48 0
v -160 -64 0
v -176 -64 0
v -176 -48 0
v -160 -48 0
v -176 -64 0
v -192 -64 0
v -192 -48 0
v -176 -48 0
v -192 -64 0
v -208 -64 0
v -208 -48 0
v -192 -48 0
v -208 -64 0
v -224 -64 0
v -224 -48 0
v -208 -48 0
v -224 -64 0
v -240 -64 0
v -240 -48 0
v -224 -48 0
v -240 -64 0
v -256 -64 0
v -256 -48 0
v -240 -48 0
v 0 -80 0
v -16 -80 0
v -16 -64 0
v 0 -64 0
v -16 -80 0
v -32 -80 0
v -32 -64 0
v -16 -64 0
v -32 -80 0
v -48 -80 0
v -48 -64 0
v -32 -64 0
v -48 -80 0
v -64 -80 0
v -64 -64 0
v -48 -64 0
v -64 -80 0
v -80 -80 0
v -80 -64 0
v -64 -64 0
v -80 -80 0
v -96 -80 0
v -96 -64 0
v -80 -64 0
v -96 -80 0
v -112 -80 0
v -112 -64 0
v -96 -64 0
v -112 -80 0
v -128 -80 0
v -128 -64 0
v -112 -64 0
v -128 -80 0
v -144 -80 0
v -144 -64 0
v -128 -64 0
v -144 -80 0
v -160 -80 0
v -160 -64 0
v -144 -64 0
v -160 -80 0
v -176 -80 0
v -176 -64 0
v -160 -64 0
v -176 -80 0
v -192 -80 0
v -192 -64 0
v -176 -64 0
v -192 -80 0
v -208 -80 0
v -208 -64 0
v -192 -64 0
v -208 -80 0
v -224 -80 0
v -224 -64 0
v -208 -64 0
v -224 -80 0
v -240 -80 0
v -240 -64 0
v -224 -64 0
v -240 -80 0
v -256 -80 0
v -256 -64 0
v -240 -64 0
v 0 -96 0
v -16 -96 0
v -16 -80 0
v 0 -80 0
v -16 -96 0
v -32 -96 0
v -32 -80 0
v -16 -80 0
v -32 -96 0
v -48 -96 0
v -48 -80 0
v -32 -80 0
v -48 -96 0
v -64 -96 0
v -64 -80 0
v -48 -80 0
v -64 -96 0
v -80 -96 0
v -80 -80 0
v -64 -80 0
v -80 -96 0
v -96 -96 0
v -96 -80 0
v -80 -80 0
v -96 -96 0
v -112 -96 0
v -112 -80 0
v -96 -80 0
v -112 -96 0
v -128 -96 0
v -128 -80 0
v -112 -80 0
v -128 -96 0
v -144 -96 0
v -144 -80 0
v -128 -80 0
v -144 -96 0
v -160 -96 0
v -160 -80 0
v -144 -80 0
v -160 -96 0
v -176 -96 0
v -176 -80 0
v -160 -80 0
v -176 -96 0
v -192 -96 0
v -192 -80 0
v -176 -80 0
v -192 -96 0
v -208 -96 0
v -208 -80 0
v -192 -80 0
v -208 -96 0
v -224 -96 0
v -224 -80 0
v -208 -80 0
v -224 -96 0
v -240 -96 0
v -240 -80 0
v -224 -80 0
v -240 -96 0
v -256 -96 0
v -256 -80 0
v -240 -80 0
v 0 -112 0
v -16 -112 0
v -16 -96 0
v 0 -96 0
v -16 -112 0
v -32 -112 0
v -32 -96 0
v -16 -96 0
v -32 -112 0
v -48 -112 0
v -48 -96 0
v -32 -96 0
v -48 -112 0
v -64 -112 0
v -64 -96 0
v -48 -96 0
v -64 -112 0
v -80 -112 0
v -80 -96 0
v -64 -96 0
v -80 -112 0
v -96 -112 0
v -96 -96 0
v -80 -96 0
v -96 -112 0
v -112 -112 0
v -112 -96 0
v -96 -96 0
v -112 -112 0
v -128 -112 0
v -128 -96 0
v -112 -96 0
v -128 -112 0
v -144 -112 0
v -144 -96 0
v -128 -96 0
v -144 -112 0
v -160 -112 0
v -160 -96 0
v -144 -96 0
v -160 -112 0
v -176 -112 0
v -176 -96 0
v -160 -96 0
v -176 -112 0
v -192 -112 0
v -192 -96 0
v -176 -96 0
v -192 -112 0
v -208 -112 0
v -208 -96 0
v -192 -96 0
v -208 -112 0
v -224 -112 0
v -224 -96 0
v -208 -96 0
v -224 -112 0
v -240 -112 0
v -240 -96 0
v -224 -96 0
v -240 -112 0
v -256 -112 0
v -256 -96 0
v -240 -96 0
v -96 -128 0
v -112 -128 0
v -112 -112 0
v -96 -112 0
v -112 -128 0
v -128 -128 0
v -128 -112 0
v -112 -112 0
v -128 -128 0
v -144 -128 0
v -144 -112 0
v -128 -112 0
v -144 -128 0
v -160 -128 0
v -160 -112 0
v -144 -112 0
v -160 -128 0
v -176 -128 0
v -176 -112 0
v -160 -112 0
v -176 -128 0
v -192 -128 0
v -192 -112 0
v -176 -112 0
v -192 -128 0
v -208 -128 0
v -208 -112 0
v -192 -112 0
v -208 -128 0
v -224 -128 0
v -224 -112 0
v -208 -112 0
v -224 -128 0
v -240 -128 0
v -240 -112 0
v -224 -112 0
v -240 -128 0
v -256 -128 0
v -256 -112 0
v -240 -112 0
v -128 -144 0
v -144 -144 0
v -144 -128 0
v -128 -128 0
v -144 -144 0
v -160 -144 0
v -160 -128 0
v -144 -128 0
v -160 -144 0
v -176 -144 0
v -176 -128 0
v -160 -128 0
v -176 -144 0
v -192 -144 0
v -192 -128 0
v -176 -128 0
v -192 -144 0
v -208 -144 0
v -208 -128 0
v -192 -128 0
v -208 -144 0
v -224 -144 0
v -224 -128 0
v -208 -128 0
v -224 -144 0
v -240 -144 0
v -240 -128 0
v -224 -128 0
v -240 -144 0
v -256 -144 0
v -256 -128 0
v -240 -128 0
v -160 -160 0
v -176 -160 0
v -176 -144 0
v -160 -144 0
v -176 -160 0
v -192 -160 0
v -192 -144 0
v -176 -144 0
v -192 -160 0
v -208 -160 0
v -208 -144 0
v -192 -144 0
v -208 -160 0
v -224 -160 0
v -224 -144 0
v -208 -144 0
v -224 -160 0
v -240 -160 0
v -240 -144 0
v -224 -144 0
v -240 -160 0
v -256 -160 0
v -256 -144 0
v -240 -144 0
v -176 -176 0
v -192 -176 0
v -192 -160 0
v -176 -160 0
v -192 -176 0
v -208 -176 0
v -208 -160 0
v -192 -160 0
v -208 -176 0
v -224 -176 0
v -224 -160 0
v -208 -160 0
v -224 -176 0
v -240 -176 0
v -240 -160 0
v -224 -160 0
v -240 -176 0
v -256 -176 0
v -256 -160 0
v -240 -160 0
v -192 -192 0
v -208 -192 0
v -208 -176 0
v -192 -176 0
v -208 -192 0
v -224 -192 0
v -224 -176 0
v -208 -176 0
v -224 -192 0
v -240 -192 0
v -240 -176 0
v -224 -176 0
v -240 -192 0
v -256 -192 0
v -256 -176 0
v -240 -176 0
v -176 -208 0
v -192 -208 0
v -192 -192 0
v -176 -192 0
v -192 -208 0
v -208 -208 0
v -208 -192 0
v -192 -192 0
v -208 -208 0
v -224 -208 0
v -224 -192 0
v -208 -192 0
v -224 -208 0
v -240 -208 0
v -240 -192 0
v -224 -192 0
v -240 -208 0
v -256 -208 0
v -256 -192 0
v -240 -192 0
v -176 -224 0
v -192 -224 0
v -192 -208 0
v -176 -208 0
v -192 -224 0
v -208 -224 0
v -208 -208 0
v -192 -208 0
v -208 -224 0
v -224 -224 0
v -224 -208 0
v -208 -208 0
v -224 -224 0
v -240 -224 0
v -240 -208 0
v -224 -208 0
v -240 -224 0
v -256 -224 0
v -256 -208 0
v -240 -208 0
v -176 -240 0
v -192 -240 0
v -192 -224 0
v -176 -224 0
v -192 -240 0
v -208 -240 0
v -208 -224 0
v -192 -224 0
v -208 -240 0
v -224 -240 0
v -224 -224 0
v -208 -224 0
v -224 -240 0
v -240 -240 0
v -240 -224 0
v -224 -224 0
v -240 -240 0
v -256 -240 0
v -256 -224 0
v -240 -224 0
v -160 -256 0
v -176 -256 0
v -176 -240 0
v -160 -240 0
v -176 -256 0
v -192 -256 0
v -192 -240 0
v -176 -240 0
v -192 -256 0
v -208 -256 0
v -208 -240 0
v -192 -240 0
v -208 -256 0
v -224 -256 0
v -224 -240 0
v -208 -240 0
v -224 -256 0
v -240 -256 0
v -240 -240 0
v -224 -240 0
v -240 -256 0
v -256 -256 0
v -256 -240 0
v -240 -240 0

# Texture cooridinates (Count = 62)
vt 0.6276596 0.625
vt 0.6382979 0.625
vt 0.6382979 0.6875
vt 0.6276596 0.6875
vt 0.606383 0.625
vt 0.6170213 0.625
vt 0.6170213 0.6875
vt 0.606383 0.6875
vt 0.6382979 0.75
vt 0.6276596 0.75
vt 0.6382979 0.8125
vt 0.6276596 0.8125
vt 0.6382979 0.875
vt 0.6276596 0.875
vt 0.606383 0.8125
vt 0.6170213 0.8125
vt 0.6170213 0.875
vt 0.606383 0.875
vt 0.606383 0.75
vt 0.6170213 0.75
vt 0.393617 0.625
vt 0.393617 0.6875
vt 0.3829787 0.6875
vt 0.3829787 0.625
vt 0.6702127 0.1875
vt 0.6702127 0.25
vt 0.6595744 0.25
vt 0.6595744 0.1875
vt 0.5851064 0.1875
vt 0.5851064 0.25
vt 0.5744681 0.25
vt 0.5744681 0.1875
vt 0.6382979 0.1875
vt 0.6382979 0.25
vt 0.6276596 0.25
vt 0.6276596 0.1875
vt 0.4468085 0.625
vt 0.4468085 0.6875
vt 0.4361702 0.6875
vt 0.4361702 0.625
vt 0.7127659 0.1875
vt 0.7127659 0.25
vt 0.7021276 0.25
vt 0.7021276 0.1875
vt 0.5638298 0.1875
vt 0.5638298 0.25
vt 0.5531915 0.25
vt 0.5531915 0.1875
vt 0.6170213 0.25
vt 0.6170213 0.1875
vt 0.6914893 0.1875
vt 0.6914893 0.25
vt 0.680851 0.25
vt 0.680851 0.1875
vt 0.5957447 0.1875
vt 0.5957447 0.25
vt 0.606383 0.25
vt 0.606383 0.1875
vt 0.4255319 0.6875
vt 0.4255319 0.625
vt 0.6489362 0.25
vt 0.6489362 0.1875

# Normal
vn 0 0 -1

# Mesh description
g 2ScenarioPlataforma_mesh_0932

# Faces
f 1/1/1 2/2/1 3/3/1 4/4/1
f 5/5/1 6/6/1 7/7/1 8/8/1
f 9/6/1 10/1/1 11/4/1 12/7/1
f 13/1/1 14/2/1 15/3/1 16/4/1
f 17/5/1 18/6/1 19/7/1 20/8/1
f 21/6/1 22/1/1 23/4/1 24/7/1
f 25/1/1 26/2/1 27/3/1 28/4/1
f 29/5/1 30/6/1 31/7/1 32/8/1
f 33/5/1 34/6/1 35/7/1 36/8/1
f 37/6/1 38/1/1 39/4/1 40/7/1
f 41/1/1 42/2/1 43/3/1 44/4/1
f 45/4/1 46/3/1 47/9/1 48/10/1
f 49/10/1 50/9/1 51/11/1 52/12/1
f 53/12/1 54/11/1 55/13/1 56/14/1
f 57/6/1 58/1/1 59/4/1 60/7/1
f 61/1/1 62/2/1 63/3/1 64/4/1
f 65/12/1 66/11/1 67/13/1 68/14/1
f 69/15/1 70/16/1 71/17/1 72/18/1
f 73/16/1 74/12/1 75/14/1 76/17/1
f 77/12/1 78/11/1 79/13/1 80/14/1
f 81/15/1 82/16/1 83/17/1 84/18/1
f 85/16/1 86/12/1 87/14/1 88/17/1
f 89/12/1 90/11/1 91/13/1 92/14/1
f 93/15/1 94/16/1 95/17/1 96/18/1
f 97/5/1 98/6/1 99/7/1 100/8/1
f 101/6/1 102/1/1 103/4/1 104/7/1
f 105/1/1 106/2/1 107/3/1 108/4/1
f 109/1/1 110/2/1 111/3/1 112/4/1
f 113/4/1 114/3/1 115/9/1 116/10/1
f 117/10/1 118/9/1 119/11/1 120/12/1
f 121/16/1 122/12/1 123/14/1 124/17/1
f 125/12/1 126/11/1 127/13/1 128/14/1
f 129/10/1 130/9/1 131/11/1 132/12/1
f 133/19/1 134/20/1 135/16/1 136/15/1
f 137/20/1 138/10/1 139/12/1 140/16/1
f 141/10/1 142/9/1 143/11/1 144/12/1
f 145/19/1 146/20/1 147/16/1 148/15/1
f 149/20/1 150/10/1 151/12/1 152/16/1
f 153/10/1 154/9/1 155/11/1 156/12/1
f 157/19/1 158/20/1 159/16/1 160/15/1
f 161/20/1 162/10/1 163/12/1 164/16/1
f 165/5/1 166/6/1 167/7/1 168/8/1
f 169/6/1 170/1/1 171/4/1 172/7/1
f 173/1/1 174/2/1 175/3/1 176/4/1
f 177/1/1 178/2/1 179/3/1 180/4/1
f 181/4/1 182/3/1 183/9/1 184/10/1
f 185/12/1 186/11/1 187/13/1 188/14/1
f 189/10/1 190/9/1 191/11/1 192/12/1
f 193/4/1 194/3/1 195/9/1 196/10/1
f 197/8/1 198/7/1 199/20/1 200/19/1
f 201/7/1 202/4/1 203/10/1 204/20/1
f 205/4/1 206/3/1 207/9/1 208/10/1
f 209/8/1 210/7/1 211/20/1 212/19/1
f 213/7/1 214/4/1 215/10/1 216/20/1
f 217/4/1 218/3/1 219/9/1 220/10/1
f 221/8/1 222/7/1 223/20/1 224/19/1
f 225/7/1 226/4/1 227/10/1 228/20/1
f 229/4/1 230/3/1 231/9/1 232/10/1
f 233/5/1 234/6/1 235/7/1 236/8/1
f 237/6/1 238/1/1 239/4/1 240/7/1
f 241/1/1 242/2/1 243/3/1 244/4/1
f 245/1/1 246/2/1 247/3/1 248/4/1
f 249/10/1 250/9/1 251/11/1 252/12/1
f 253/12/1 254/11/1 255/13/1 256/14/1
f 257/1/1 258/2/1 259/3/1 260/4/1
f 261/5/1 262/6/1 263/7/1 264/8/1
f 265/6/1 266/1/1 267/4/1 268/7/1
f 269/1/1 270/2/1 271/3/1 272/4/1
f 273/5/1 274/6/1 275/7/1 276/8/1
f 277/6/1 278/1/1 279/4/1 280/7/1
f 281/1/1 282/2/1 283/3/1 284/4/1
f 285/5/1 286/6/1 287/7/1 288/8/1
f 289/6/1 290/1/1 291/4/1 292/7/1
f 293/1/1 294/2/1 295/3/1 296/4/1
f 297/5/1 298/6/1 299/7/1 300/8/1
f 301/5/1 302/6/1 303/7/1 304/8/1
f 305/6/1 306/1/1 307/4/1 308/7/1
f 309/1/1 310/2/1 311/3/1 312/4/1
f 313/4/1 314/3/1 315/9/1 316/10/1
f 317/10/1 318/9/1 319/11/1 320/12/1
f 321/12/1 322/11/1 323/13/1 324/14/1
f 325/15/1 326/16/1 327/17/1 328/18/1
f 329/16/1 330/12/1 331/14/1 332/17/1
f 333/12/1 334/11/1 335/13/1 336/14/1
f 337/15/1 338/16/1 339/17/1 340/18/1
f 341/16/1 342/12/1 343/14/1 344/17/1
f 345/12/1 346/11/1 347/13/1 348/14/1
f 349/15/1 350/16/1 351/17/1 352/18/1
f 353/16/1 354/12/1 355/14/1 356/17/1
f 357/12/1 358/11/1 359/13/1 360/14/1
f 361/15/1 362/16/1 363/17/1 364/18/1
f 365/16/1 366/12/1 367/14/1 368/17/1
f 369/5/1 370/6/1 371/7/1 372/8/1
f 373/6/1 374/1/1 375/4/1 376/7/1
f 377/1/1 378/2/1 379/3/1 380/4/1
f 381/4/1 382/3/1 383/9/1 384/10/1
f 385/21/1 386/22/1 387/23/1 388/24/1
f 389/25/1 390/26/1 391/27/1 392/28/1
f 393/29/1 394/30/1 395/31/1 396/32/1
f 397/33/1 398/34/1 399/35/1 400/36/1
f 401/37/1 402/38/1 403/39/1 404/40/1
f 405/41/1 406/42/1 407/43/1 408/44/1
f 409/25/1 410/26/1 411/27/1 412/28/1
f 413/19/1 414/20/1 415/16/1 416/15/1
f 417/20/1 418/10/1 419/12/1 420/16/1
f 421/10/1 422/9/1 423/11/1 424/12/1
f 425/19/1 426/20/1 427/16/1 428/15/1
f 429/20/1 430/10/1 431/12/1 432/16/1
f 433/10/1 434/9/1 435/11/1 436/12/1
f 437/5/1 438/6/1 439/7/1 440/8/1
f 441/6/1 442/1/1 443/4/1 444/7/1
f 445/1/1 446/2/1 447/3/1 448/4/1
f 449/45/1 450/46/1 451/47/1 452/48/1
f 453/36/1 454/35/1 455/49/1 456/50/1
f 457/51/1 458/52/1 459/53/1 460/54/1
f 461/4/1 462/3/1 463/9/1 464/10/1
f 465/8/1 466/7/1 467/20/1 468/19/1
f 469/7/1 470/4/1 471/10/1 472/20/1
f 473/4/1 474/3/1 475/9/1 476/10/1
f 477/5/1 478/6/1 479/7/1 480/8/1
f 481/6/1 482/1/1 483/4/1 484/7/1
f 485/1/1 486/2/1 487/3/1 488/4/1
f 489/33/1 490/34/1 491/35/1 492/36/1
f 493/55/1 494/56/1 495/30/1 496/29/1
f 497/50/1 498/49/1 499/57/1 500/58/1
f 501/6/1 502/1/1 503/4/1 504/7/1
f 505/1/1 506/2/1 507/3/1 508/4/1
f 509/5/1 510/6/1 511/7/1 512/8/1
f 513/5/1 514/6/1 515/7/1 516/8/1
f 517/6/1 518/1/1 519/4/1 520/7/1
f 521/21/1 522/22/1 523/23/1 524/24/1
f 525/25/1 526/26/1 527/27/1 528/28/1
f 529/12/1 530/11/1 531/13/1 532/14/1
f 533/15/1 534/16/1 535/17/1 536/18/1
f 537/5/1 538/6/1 539/7/1 540/8/1
f 541/6/1 542/1/1 543/4/1 544/7/1
f 545/29/1 546/30/1 547/31/1 548/32/1
f 549/40/1 550/39/1 551/59/1 552/60/1
f 553/19/1 554/20/1 555/16/1 556/15/1
f 557/20/1 558/10/1 559/12/1 560/16/1
f 561/5/1 562/6/1 563/7/1 564/8/1
f 565/51/1 566/52/1 567/53/1 568/54/1
f 569/8/1 570/7/1 571/20/1 572/19/1
f 573/7/1 574/4/1 575/10/1 576/20/1
f 577/5/1 578/6/1 579/7/1 580/8/1
f 581/28/1 582/27/1 583/61/1 584/62/1
f 585/54/1 586/53/1 587/26/1 588/25/1
f 589/5/1 590/6/1 591/7/1 592/8/1
f 593/6/1 594/1/1 595/4/1 596/7/1
f 597/1/1 598/2/1 599/3/1 600/4/1
f 601/51/1 602/52/1 603/53/1 604/54/1
f 605/12/1 606/11/1 607/13/1 608/14/1
f 609/15/1 610/16/1 611/17/1 612/18/1
f 613/16/1 614/12/1 615/14/1 616/17/1
f 617/12/1 618/11/1 619/13/1 620/14/1
f 621/54/1 622/53/1 623/26/1 624/25/1
f 625/10/1 626/9/1 627/11/1 628/12/1
f 629/19/1 630/20/1 631/16/1 632/15/1
f 633/20/1 634/10/1 635/12/1 636/16/1
f 637/10/1 638/9/1 639/11/1 640/12/1
f 641/37/1 642/38/1 643/39/1 644/40/1
f 645/33/1 646/34/1 647/35/1 648/36/1
f 649/4/1 650/3/1 651/9/1 652/10/1
f 653/8/1 654/7/1 655/20/1 656/19/1
f 657/7/1 658/4/1 659/10/1 660/20/1
f 661/4/1 662/3/1 663/9/1 664/10/1

