# Tiled2Unity generated file. Do not modify by hand.
# Wavefront file for '2ScenarioPlataforma_mesh_0373.obj'

# Vertices (Count = 1024)
v 0 -16 0
v -16 -16 0
v -16 0 0
v 0 0 0
v -16 -16 0
v -32 -16 0
v -32 0 0
v -16 0 0
v -32 -16 0
v -48 -16 0
v -48 0 0
v -32 0 0
v -48 -16 0
v -64 -16 0
v -64 0 0
v -48 0 0
v -64 -16 0
v -80 -16 0
v -80 0 0
v -64 0 0
v -80 -16 0
v -96 -16 0
v -96 0 0
v -80 0 0
v -96 -16 0
v -112 -16 0
v -112 0 0
v -96 0 0
v -112 -16 0
v -128 -16 0
v -128 0 0
v -112 0 0
v -128 -16 0
v -144 -16 0
v -144 0 0
v -128 0 0
v -144 -16 0
v -160 -16 0
v -160 0 0
v -144 0 0
v -160 -16 0
v -176 -16 0
v -176 0 0
v -160 0 0
v -176 -16 0
v -192 -16 0
v -192 0 0
v -176 0 0
v -192 -16 0
v -208 -16 0
v -208 0 0
v -192 0 0
v -208 -16 0
v -224 -16 0
v -224 0 0
v -208 0 0
v -224 -16 0
v -240 -16 0
v -240 0 0
v -224 0 0
v -240 -16 0
v -256 -16 0
v -256 0 0
v -240 0 0
v 0 -32 0
v -16 -32 0
v -16 -16 0
v 0 -16 0
v -16 -32 0
v -32 -32 0
v -32 -16 0
v -16 -16 0
v -32 -32 0
v -48 -32 0
v -48 -16 0
v -32 -16 0
v -48 -32 0
v -64 -32 0
v -64 -16 0
v -48 -16 0
v -64 -32 0
v -80 -32 0
v -80 -16 0
v -64 -16 0
v -80 -32 0
v -96 -32 0
v -96 -16 0
v -80 -16 0
v -96 -32 0
v -112 -32 0
v -112 -16 0
v -96 -16 0
v -112 -32 0
v -128 -32 0
v -128 -16 0
v -112 -16 0
v -128 -32 0
v -144 -32 0
v -144 -16 0
v -128 -16 0
v -144 -32 0
v -160 -32 0
v -160 -16 0
v -144 -16 0
v -160 -32 0
v -176 -32 0
v -176 -16 0
v -160 -16 0
v -176 -32 0
v -192 -32 0
v -192 -16 0
v -176 -16 0
v -192 -32 0
v -208 -32 0
v -208 -16 0
v -192 -16 0
v -208 -32 0
v -224 -32 0
v -224 -16 0
v -208 -16 0
v -224 -32 0
v -240 -32 0
v -240 -16 0
v -224 -16 0
v -240 -32 0
v -256 -32 0
v -256 -16 0
v -240 -16 0
v 0 -48 0
v -16 -48 0
v -16 -32 0
v 0 -32 0
v -16 -48 0
v -32 -48 0
v -32 -32 0
v -16 -32 0
v -32 -48 0
v -48 -48 0
v -48 -32 0
v -32 -32 0
v -48 -48 0
v -64 -48 0
v -64 -32 0
v -48 -32 0
v -64 -48 0
v -80 -48 0
v -80 -32 0
v -64 -32 0
v -80 -48 0
v -96 -48 0
v -96 -32 0
v -80 -32 0
v -96 -48 0
v -112 -48 0
v -112 -32 0
v -96 -32 0
v -112 -48 0
v -128 -48 0
v -128 -32 0
v -112 -32 0
v -128 -48 0
v -144 -48 0
v -144 -32 0
v -128 -32 0
v -144 -48 0
v -160 -48 0
v -160 -32 0
v -144 -32 0
v -160 -48 0
v -176 -48 0
v -176 -32 0
v -160 -32 0
v -176 -48 0
v -192 -48 0
v -192 -32 0
v -176 -32 0
v -192 -48 0
v -208 -48 0
v -208 -32 0
v -192 -32 0
v -208 -48 0
v -224 -48 0
v -224 -32 0
v -208 -32 0
v -224 -48 0
v -240 -48 0
v -240 -32 0
v -224 -32 0
v -240 -48 0
v -256 -48 0
v -256 -32 0
v -240 -32 0
v 0 -64 0
v -16 -64 0
v -16 -48 0
v 0 -48 0
v -16 -64 0
v -32 -64 0
v -32 -48 0
v -16 -48 0
v -32 -64 0
v -48 -64 0
v -48 -48 0
v -32 -48 0
v -48 -64 0
v -64 -64 0
v -64 -48 0
v -48 -48 0
v -64 -64 0
v -80 -64 0
v -80 -48 0
v -64 -48 0
v -80 -64 0
v -96 -64 0
v -96 -48 0
v -80 -48 0
v -96 -64 0
v -112 -64 0
v -112 -48 0
v -96 -48 0
v -112 -64 0
v -128 -64 0
v -128 -48 0
v -112 -48 0
v -128 -64 0
v -144 -64 0
v -144 -48 0
v -128 -48 0
v -144 -64 0
v -160 -64 0
v -160 -48 0
v -144 -48 0
v -160 -64 0
v -176 -64 0
v -176 -48 0
v -160 -48 0
v -176 -64 0
v -192 -64 0
v -192 -48 0
v -176 -48 0
v -192 -64 0
v -208 -64 0
v -208 -48 0
v -192 -48 0
v -208 -64 0
v -224 -64 0
v -224 -48 0
v -208 -48 0
v -224 -64 0
v -240 -64 0
v -240 -48 0
v -224 -48 0
v -240 -64 0
v -256 -64 0
v -256 -48 0
v -240 -48 0
v 0 -80 0
v -16 -80 0
v -16 -64 0
v 0 -64 0
v -16 -80 0
v -32 -80 0
v -32 -64 0
v -16 -64 0
v -32 -80 0
v -48 -80 0
v -48 -64 0
v -32 -64 0
v -48 -80 0
v -64 -80 0
v -64 -64 0
v -48 -64 0
v -64 -80 0
v -80 -80 0
v -80 -64 0
v -64 -64 0
v -80 -80 0
v -96 -80 0
v -96 -64 0
v -80 -64 0
v -96 -80 0
v -112 -80 0
v -112 -64 0
v -96 -64 0
v -112 -80 0
v -128 -80 0
v -128 -64 0
v -112 -64 0
v -128 -80 0
v -144 -80 0
v -144 -64 0
v -128 -64 0
v -144 -80 0
v -160 -80 0
v -160 -64 0
v -144 -64 0
v -160 -80 0
v -176 -80 0
v -176 -64 0
v -160 -64 0
v -176 -80 0
v -192 -80 0
v -192 -64 0
v -176 -64 0
v -192 -80 0
v -208 -80 0
v -208 -64 0
v -192 -64 0
v -208 -80 0
v -224 -80 0
v -224 -64 0
v -208 -64 0
v -224 -80 0
v -240 -80 0
v -240 -64 0
v -224 -64 0
v -240 -80 0
v -256 -80 0
v -256 -64 0
v -240 -64 0
v 0 -96 0
v -16 -96 0
v -16 -80 0
v 0 -80 0
v -16 -96 0
v -32 -96 0
v -32 -80 0
v -16 -80 0
v -32 -96 0
v -48 -96 0
v -48 -80 0
v -32 -80 0
v -48 -96 0
v -64 -96 0
v -64 -80 0
v -48 -80 0
v -64 -96 0
v -80 -96 0
v -80 -80 0
v -64 -80 0
v -80 -96 0
v -96 -96 0
v -96 -80 0
v -80 -80 0
v -96 -96 0
v -112 -96 0
v -112 -80 0
v -96 -80 0
v -112 -96 0
v -128 -96 0
v -128 -80 0
v -112 -80 0
v -128 -96 0
v -144 -96 0
v -144 -80 0
v -128 -80 0
v -144 -96 0
v -160 -96 0
v -160 -80 0
v -144 -80 0
v -160 -96 0
v -176 -96 0
v -176 -80 0
v -160 -80 0
v -176 -96 0
v -192 -96 0
v -192 -80 0
v -176 -80 0
v -192 -96 0
v -208 -96 0
v -208 -80 0
v -192 -80 0
v -208 -96 0
v -224 -96 0
v -224 -80 0
v -208 -80 0
v -224 -96 0
v -240 -96 0
v -240 -80 0
v -224 -80 0
v -240 -96 0
v -256 -96 0
v -256 -80 0
v -240 -80 0
v 0 -112 0
v -16 -112 0
v -16 -96 0
v 0 -96 0
v -16 -112 0
v -32 -112 0
v -32 -96 0
v -16 -96 0
v -32 -112 0
v -48 -112 0
v -48 -96 0
v -32 -96 0
v -48 -112 0
v -64 -112 0
v -64 -96 0
v -48 -96 0
v -64 -112 0
v -80 -112 0
v -80 -96 0
v -64 -96 0
v -80 -112 0
v -96 -112 0
v -96 -96 0
v -80 -96 0
v -96 -112 0
v -112 -112 0
v -112 -96 0
v -96 -96 0
v -112 -112 0
v -128 -112 0
v -128 -96 0
v -112 -96 0
v -128 -112 0
v -144 -112 0
v -144 -96 0
v -128 -96 0
v -144 -112 0
v -160 -112 0
v -160 -96 0
v -144 -96 0
v -160 -112 0
v -176 -112 0
v -176 -96 0
v -160 -96 0
v -176 -112 0
v -192 -112 0
v -192 -96 0
v -176 -96 0
v -192 -112 0
v -208 -112 0
v -208 -96 0
v -192 -96 0
v -208 -112 0
v -224 -112 0
v -224 -96 0
v -208 -96 0
v -224 -112 0
v -240 -112 0
v -240 -96 0
v -224 -96 0
v -240 -112 0
v -256 -112 0
v -256 -96 0
v -240 -96 0
v 0 -128 0
v -16 -128 0
v -16 -112 0
v 0 -112 0
v -16 -128 0
v -32 -128 0
v -32 -112 0
v -16 -112 0
v -32 -128 0
v -48 -128 0
v -48 -112 0
v -32 -112 0
v -48 -128 0
v -64 -128 0
v -64 -112 0
v -48 -112 0
v -64 -128 0
v -80 -128 0
v -80 -112 0
v -64 -112 0
v -80 -128 0
v -96 -128 0
v -96 -112 0
v -80 -112 0
v -96 -128 0
v -112 -128 0
v -112 -112 0
v -96 -112 0
v -112 -128 0
v -128 -128 0
v -128 -112 0
v -112 -112 0
v -128 -128 0
v -144 -128 0
v -144 -112 0
v -128 -112 0
v -144 -128 0
v -160 -128 0
v -160 -112 0
v -144 -112 0
v -160 -128 0
v -176 -128 0
v -176 -112 0
v -160 -112 0
v -176 -128 0
v -192 -128 0
v -192 -112 0
v -176 -112 0
v -192 -128 0
v -208 -128 0
v -208 -112 0
v -192 -112 0
v -208 -128 0
v -224 -128 0
v -224 -112 0
v -208 -112 0
v -224 -128 0
v -240 -128 0
v -240 -112 0
v -224 -112 0
v -240 -128 0
v -256 -128 0
v -256 -112 0
v -240 -112 0
v 0 -144 0
v -16 -144 0
v -16 -128 0
v 0 -128 0
v -16 -144 0
v -32 -144 0
v -32 -128 0
v -16 -128 0
v -32 -144 0
v -48 -144 0
v -48 -128 0
v -32 -128 0
v -48 -144 0
v -64 -144 0
v -64 -128 0
v -48 -128 0
v -64 -144 0
v -80 -144 0
v -80 -128 0
v -64 -128 0
v -80 -144 0
v -96 -144 0
v -96 -128 0
v -80 -128 0
v -96 -144 0
v -112 -144 0
v -112 -128 0
v -96 -128 0
v -112 -144 0
v -128 -144 0
v -128 -128 0
v -112 -128 0
v -128 -144 0
v -144 -144 0
v -144 -128 0
v -128 -128 0
v -144 -144 0
v -160 -144 0
v -160 -128 0
v -144 -128 0
v -160 -144 0
v -176 -144 0
v -176 -128 0
v -160 -128 0
v -176 -144 0
v -192 -144 0
v -192 -128 0
v -176 -128 0
v -192 -144 0
v -208 -144 0
v -208 -128 0
v -192 -128 0
v -208 -144 0
v -224 -144 0
v -224 -128 0
v -208 -128 0
v -224 -144 0
v -240 -144 0
v -240 -128 0
v -224 -128 0
v -240 -144 0
v -256 -144 0
v -256 -128 0
v -240 -128 0
v 0 -160 0
v -16 -160 0
v -16 -144 0
v 0 -144 0
v -16 -160 0
v -32 -160 0
v -32 -144 0
v -16 -144 0
v -32 -160 0
v -48 -160 0
v -48 -144 0
v -32 -144 0
v -48 -160 0
v -64 -160 0
v -64 -144 0
v -48 -144 0
v -64 -160 0
v -80 -160 0
v -80 -144 0
v -64 -144 0
v -80 -160 0
v -96 -160 0
v -96 -144 0
v -80 -144 0
v -96 -160 0
v -112 -160 0
v -112 -144 0
v -96 -144 0
v -112 -160 0
v -128 -160 0
v -128 -144 0
v -112 -144 0
v -128 -160 0
v -144 -160 0
v -144 -144 0
v -128 -144 0
v -144 -160 0
v -160 -160 0
v -160 -144 0
v -144 -144 0
v -160 -160 0
v -176 -160 0
v -176 -144 0
v -160 -144 0
v -176 -160 0
v -192 -160 0
v -192 -144 0
v -176 -144 0
v -192 -160 0
v -208 -160 0
v -208 -144 0
v -192 -144 0
v -208 -160 0
v -224 -160 0
v -224 -144 0
v -208 -144 0
v -224 -160 0
v -240 -160 0
v -240 -144 0
v -224 -144 0
v -240 -160 0
v -256 -160 0
v -256 -144 0
v -240 -144 0
v 0 -176 0
v -16 -176 0
v -16 -160 0
v 0 -160 0
v -16 -176 0
v -32 -176 0
v -32 -160 0
v -16 -160 0
v -32 -176 0
v -48 -176 0
v -48 -160 0
v -32 -160 0
v -48 -176 0
v -64 -176 0
v -64 -160 0
v -48 -160 0
v -64 -176 0
v -80 -176 0
v -80 -160 0
v -64 -160 0
v -80 -176 0
v -96 -176 0
v -96 -160 0
v -80 -160 0
v -96 -176 0
v -112 -176 0
v -112 -160 0
v -96 -160 0
v -112 -176 0
v -128 -176 0
v -128 -160 0
v -112 -160 0
v -128 -176 0
v -144 -176 0
v -144 -160 0
v -128 -160 0
v -144 -176 0
v -160 -176 0
v -160 -160 0
v -144 -160 0
v -160 -176 0
v -176 -176 0
v -176 -160 0
v -160 -160 0
v -176 -176 0
v -192 -176 0
v -192 -160 0
v -176 -160 0
v -192 -176 0
v -208 -176 0
v -208 -160 0
v -192 -160 0
v -208 -176 0
v -224 -176 0
v -224 -160 0
v -208 -160 0
v -224 -176 0
v -240 -176 0
v -240 -160 0
v -224 -160 0
v -240 -176 0
v -256 -176 0
v -256 -160 0
v -240 -160 0
v 0 -192 0
v -16 -192 0
v -16 -176 0
v 0 -176 0
v -16 -192 0
v -32 -192 0
v -32 -176 0
v -16 -176 0
v -32 -192 0
v -48 -192 0
v -48 -176 0
v -32 -176 0
v -48 -192 0
v -64 -192 0
v -64 -176 0
v -48 -176 0
v -64 -192 0
v -80 -192 0
v -80 -176 0
v -64 -176 0
v -80 -192 0
v -96 -192 0
v -96 -176 0
v -80 -176 0
v -96 -192 0
v -112 -192 0
v -112 -176 0
v -96 -176 0
v -112 -192 0
v -128 -192 0
v -128 -176 0
v -112 -176 0
v -128 -192 0
v -144 -192 0
v -144 -176 0
v -128 -176 0
v -144 -192 0
v -160 -192 0
v -160 -176 0
v -144 -176 0
v -160 -192 0
v -176 -192 0
v -176 -176 0
v -160 -176 0
v -176 -192 0
v -192 -192 0
v -192 -176 0
v -176 -176 0
v -192 -192 0
v -208 -192 0
v -208 -176 0
v -192 -176 0
v -208 -192 0
v -224 -192 0
v -224 -176 0
v -208 -176 0
v -224 -192 0
v -240 -192 0
v -240 -176 0
v -224 -176 0
v -240 -192 0
v -256 -192 0
v -256 -176 0
v -240 -176 0
v 0 -208 0
v -16 -208 0
v -16 -192 0
v 0 -192 0
v -16 -208 0
v -32 -208 0
v -32 -192 0
v -16 -192 0
v -32 -208 0
v -48 -208 0
v -48 -192 0
v -32 -192 0
v -48 -208 0
v -64 -208 0
v -64 -192 0
v -48 -192 0
v -64 -208 0
v -80 -208 0
v -80 -192 0
v -64 -192 0
v -80 -208 0
v -96 -208 0
v -96 -192 0
v -80 -192 0
v -96 -208 0
v -112 -208 0
v -112 -192 0
v -96 -192 0
v -112 -208 0
v -128 -208 0
v -128 -192 0
v -112 -192 0
v -128 -208 0
v -144 -208 0
v -144 -192 0
v -128 -192 0
v -144 -208 0
v -160 -208 0
v -160 -192 0
v -144 -192 0
v -160 -208 0
v -176 -208 0
v -176 -192 0
v -160 -192 0
v -176 -208 0
v -192 -208 0
v -192 -192 0
v -176 -192 0
v -192 -208 0
v -208 -208 0
v -208 -192 0
v -192 -192 0
v -208 -208 0
v -224 -208 0
v -224 -192 0
v -208 -192 0
v -224 -208 0
v -240 -208 0
v -240 -192 0
v -224 -192 0
v -240 -208 0
v -256 -208 0
v -256 -192 0
v -240 -192 0
v 0 -224 0
v -16 -224 0
v -16 -208 0
v 0 -208 0
v -16 -224 0
v -32 -224 0
v -32 -208 0
v -16 -208 0
v -32 -224 0
v -48 -224 0
v -48 -208 0
v -32 -208 0
v -48 -224 0
v -64 -224 0
v -64 -208 0
v -48 -208 0
v -64 -224 0
v -80 -224 0
v -80 -208 0
v -64 -208 0
v -80 -224 0
v -96 -224 0
v -96 -208 0
v -80 -208 0
v -96 -224 0
v -112 -224 0
v -112 -208 0
v -96 -208 0
v -112 -224 0
v -128 -224 0
v -128 -208 0
v -112 -208 0
v -128 -224 0
v -144 -224 0
v -144 -208 0
v -128 -208 0
v -144 -224 0
v -160 -224 0
v -160 -208 0
v -144 -208 0
v -160 -224 0
v -176 -224 0
v -176 -208 0
v -160 -208 0
v -176 -224 0
v -192 -224 0
v -192 -208 0
v -176 -208 0
v -192 -224 0
v -208 -224 0
v -208 -208 0
v -192 -208 0
v -208 -224 0
v -224 -224 0
v -224 -208 0
v -208 -208 0
v -224 -224 0
v -240 -224 0
v -240 -208 0
v -224 -208 0
v -240 -224 0
v -256 -224 0
v -256 -208 0
v -240 -208 0
v 0 -240 0
v -16 -240 0
v -16 -224 0
v 0 -224 0
v -16 -240 0
v -32 -240 0
v -32 -224 0
v -16 -224 0
v -32 -240 0
v -48 -240 0
v -48 -224 0
v -32 -224 0
v -48 -240 0
v -64 -240 0
v -64 -224 0
v -48 -224 0
v -64 -240 0
v -80 -240 0
v -80 -224 0
v -64 -224 0
v -80 -240 0
v -96 -240 0
v -96 -224 0
v -80 -224 0
v -96 -240 0
v -112 -240 0
v -112 -224 0
v -96 -224 0
v -112 -240 0
v -128 -240 0
v -128 -224 0
v -112 -224 0
v -128 -240 0
v -144 -240 0
v -144 -224 0
v -128 -224 0
v -144 -240 0
v -160 -240 0
v -160 -224 0
v -144 -224 0
v -160 -240 0
v -176 -240 0
v -176 -224 0
v -160 -224 0
v -176 -240 0
v -192 -240 0
v -192 -224 0
v -176 -224 0
v -192 -240 0
v -208 -240 0
v -208 -224 0
v -192 -224 0
v -208 -240 0
v -224 -240 0
v -224 -224 0
v -208 -224 0
v -224 -240 0
v -240 -240 0
v -240 -224 0
v -224 -224 0
v -240 -240 0
v -256 -240 0
v -256 -224 0
v -240 -224 0
v 0 -256 0
v -16 -256 0
v -16 -240 0
v 0 -240 0
v -16 -256 0
v -32 -256 0
v -32 -240 0
v -16 -240 0
v -32 -256 0
v -48 -256 0
v -48 -240 0
v -32 -240 0
v -48 -256 0
v -64 -256 0
v -64 -240 0
v -48 -240 0
v -64 -256 0
v -80 -256 0
v -80 -240 0
v -64 -240 0
v -80 -256 0
v -96 -256 0
v -96 -240 0
v -80 -240 0
v -96 -256 0
v -112 -256 0
v -112 -240 0
v -96 -240 0
v -112 -256 0
v -128 -256 0
v -128 -240 0
v -112 -240 0
v -128 -256 0
v -144 -256 0
v -144 -240 0
v -128 -240 0
v -144 -256 0
v -160 -256 0
v -160 -240 0
v -144 -240 0
v -160 -256 0
v -176 -256 0
v -176 -240 0
v -160 -240 0
v -176 -256 0
v -192 -256 0
v -192 -240 0
v -176 -240 0
v -192 -256 0
v -208 -256 0
v -208 -240 0
v -192 -240 0
v -208 -256 0
v -224 -256 0
v -224 -240 0
v -208 -240 0
v -224 -256 0
v -240 -256 0
v -240 -240 0
v -224 -240 0
v -240 -256 0
v -256 -256 0
v -256 -240 0
v -240 -240 0

# Texture cooridinates (Count = 42)
vt 0.106383 0.9375
vt 0.09574468 0.9375
vt 0.09574468 0.875
vt 0.106383 0.875
vt 0.08510638 0.9375
vt 0.08510638 0.875
vt 0.1489362 0.3125
vt 0.1595745 0.3125
vt 0.1595745 0.375
vt 0.1489362 0.375
vt 0.1702128 0.3125
vt 0.1702128 0.375
vt 0.1382979 0.9375
vt 0.1276596 0.9375
vt 0.1276596 0.875
vt 0.1382979 0.875
vt 0.1170213 0.9375
vt 0.1170213 0.875
vt 0.07446808 0.9375
vt 0.07446808 0.875
vt 0.06382979 0.9375
vt 0.06382979 0.875
vt 0.05319149 0.9375
vt 0.05319149 0.875
vt 0.04255319 0.9375
vt 0.04255319 0.875
vt 0.106383 1
vt 0.09574468 1
vt 0.08510638 1
vt 0.07446808 1
vt 0.06382979 1
vt 0.05319149 1
vt 0.04255319 1
vt 0.1489362 1
vt 0.1382979 1
vt 0.1489362 0.9375
vt 0.1276596 1
vt 0.1170213 1
vt 0.1489362 0.875
vt 0.1595745 0.4375
vt 0.1489362 0.4375
vt 0.1702128 0.4375

# Normal
vn 0 0 -1

# Mesh description
g 2ScenarioPlataforma_mesh_0373

# Faces
f 1/1/1 2/2/1 3/3/1 4/4/1
f 5/2/1 6/5/1 7/6/1 8/3/1
f 9/7/1 10/8/1 11/9/1 12/10/1
f 13/7/1 14/8/1 15/9/1 16/10/1
f 17/7/1 18/8/1 19/9/1 20/10/1
f 21/7/1 22/8/1 23/9/1 24/10/1
f 25/8/1 26/11/1 27/12/1 28/9/1
f 29/13/1 30/14/1 31/15/1 32/16/1
f 33/14/1 34/17/1 35/18/1 36/15/1
f 37/17/1 38/1/1 39/4/1 40/18/1
f 41/1/1 42/2/1 43/3/1 44/4/1
f 45/2/1 46/5/1 47/6/1 48/3/1
f 49/5/1 50/19/1 51/20/1 52/6/1
f 53/19/1 54/21/1 55/22/1 56/20/1
f 57/21/1 58/23/1 59/24/1 60/22/1
f 61/23/1 62/25/1 63/26/1 64/24/1
f 65/27/1 66/28/1 67/2/1 68/1/1
f 69/28/1 70/29/1 71/5/1 72/2/1
f 73/29/1 74/30/1 75/19/1 76/5/1
f 77/30/1 78/31/1 79/21/1 80/19/1
f 81/31/1 82/32/1 83/23/1 84/21/1
f 85/32/1 86/33/1 87/25/1 88/23/1
f 89/34/1 90/35/1 91/13/1 92/36/1
f 93/35/1 94/37/1 95/14/1 96/13/1
f 97/37/1 98/38/1 99/17/1 100/14/1
f 101/38/1 102/27/1 103/1/1 104/17/1
f 105/27/1 106/28/1 107/2/1 108/1/1
f 109/28/1 110/29/1 111/5/1 112/2/1
f 113/29/1 114/30/1 115/19/1 116/5/1
f 117/30/1 118/31/1 119/21/1 120/19/1
f 121/31/1 122/32/1 123/23/1 124/21/1
f 125/32/1 126/33/1 127/25/1 128/23/1
f 129/1/1 130/2/1 131/3/1 132/4/1
f 133/2/1 134/5/1 135/6/1 136/3/1
f 137/5/1 138/19/1 139/20/1 140/6/1
f 141/19/1 142/21/1 143/22/1 144/20/1
f 145/21/1 146/23/1 147/24/1 148/22/1
f 149/23/1 150/25/1 151/26/1 152/24/1
f 153/36/1 154/13/1 155/16/1 156/39/1
f 157/13/1 158/14/1 159/15/1 160/16/1
f 161/14/1 162/17/1 163/18/1 164/15/1
f 165/17/1 166/1/1 167/4/1 168/18/1
f 169/1/1 170/2/1 171/3/1 172/4/1
f 173/2/1 174/5/1 175/6/1 176/3/1
f 177/5/1 178/19/1 179/20/1 180/6/1
f 181/19/1 182/21/1 183/22/1 184/20/1
f 185/21/1 186/23/1 187/24/1 188/22/1
f 189/23/1 190/25/1 191/26/1 192/24/1
f 193/27/1 194/28/1 195/2/1 196/1/1
f 197/28/1 198/29/1 199/5/1 200/2/1
f 201/29/1 202/30/1 203/19/1 204/5/1
f 205/30/1 206/31/1 207/21/1 208/19/1
f 209/31/1 210/32/1 211/23/1 212/21/1
f 213/32/1 214/33/1 215/25/1 216/23/1
f 217/34/1 218/35/1 219/13/1 220/36/1
f 221/35/1 222/37/1 223/14/1 224/13/1
f 225/37/1 226/38/1 227/17/1 228/14/1
f 229/38/1 230/27/1 231/1/1 232/17/1
f 233/27/1 234/28/1 235/2/1 236/1/1
f 237/28/1 238/29/1 239/5/1 240/2/1
f 241/29/1 242/30/1 243/19/1 244/5/1
f 245/30/1 246/31/1 247/21/1 248/19/1
f 249/31/1 250/32/1 251/23/1 252/21/1
f 253/32/1 254/33/1 255/25/1 256/23/1
f 257/1/1 258/2/1 259/3/1 260/4/1
f 261/2/1 262/5/1 263/6/1 264/3/1
f 265/5/1 266/19/1 267/20/1 268/6/1
f 269/19/1 270/21/1 271/22/1 272/20/1
f 273/21/1 274/23/1 275/24/1 276/22/1
f 277/23/1 278/25/1 279/26/1 280/24/1
f 281/36/1 282/13/1 283/16/1 284/39/1
f 285/13/1 286/14/1 287/15/1 288/16/1
f 289/14/1 290/17/1 291/18/1 292/15/1
f 293/17/1 294/1/1 295/4/1 296/18/1
f 297/1/1 298/2/1 299/3/1 300/4/1
f 301/2/1 302/5/1 303/6/1 304/3/1
f 305/5/1 306/19/1 307/20/1 308/6/1
f 309/19/1 310/21/1 311/22/1 312/20/1
f 313/21/1 314/23/1 315/24/1 316/22/1
f 317/23/1 318/25/1 319/26/1 320/24/1
f 321/27/1 322/28/1 323/2/1 324/1/1
f 325/28/1 326/29/1 327/5/1 328/2/1
f 329/29/1 330/30/1 331/19/1 332/5/1
f 333/30/1 334/31/1 335/21/1 336/19/1
f 337/31/1 338/32/1 339/23/1 340/21/1
f 341/32/1 342/33/1 343/25/1 344/23/1
f 345/34/1 346/35/1 347/13/1 348/36/1
f 349/35/1 350/37/1 351/14/1 352/13/1
f 353/37/1 354/38/1 355/17/1 356/14/1
f 357/38/1 358/27/1 359/1/1 360/17/1
f 361/27/1 362/28/1 363/2/1 364/1/1
f 365/28/1 366/29/1 367/5/1 368/2/1
f 369/29/1 370/30/1 371/19/1 372/5/1
f 373/30/1 374/31/1 375/21/1 376/19/1
f 377/31/1 378/32/1 379/23/1 380/21/1
f 381/32/1 382/33/1 383/25/1 384/23/1
f 385/1/1 386/2/1 387/3/1 388/4/1
f 389/2/1 390/5/1 391/6/1 392/3/1
f 393/5/1 394/19/1 395/20/1 396/6/1
f 397/19/1 398/21/1 399/22/1 400/20/1
f 401/21/1 402/23/1 403/24/1 404/22/1
f 405/23/1 406/25/1 407/26/1 408/24/1
f 409/36/1 410/13/1 411/16/1 412/39/1
f 413/13/1 414/14/1 415/15/1 416/16/1
f 417/14/1 418/17/1 419/18/1 420/15/1
f 421/17/1 422/1/1 423/4/1 424/18/1
f 425/1/1 426/2/1 427/3/1 428/4/1
f 429/2/1 430/5/1 431/6/1 432/3/1
f 433/5/1 434/19/1 435/20/1 436/6/1
f 437/19/1 438/21/1 439/22/1 440/20/1
f 441/21/1 442/23/1 443/24/1 444/22/1
f 445/23/1 446/25/1 447/26/1 448/24/1
f 449/27/1 450/28/1 451/2/1 452/1/1
f 453/28/1 454/29/1 455/5/1 456/2/1
f 457/29/1 458/30/1 459/19/1 460/5/1
f 461/30/1 462/31/1 463/21/1 464/19/1
f 465/31/1 466/32/1 467/23/1 468/21/1
f 469/32/1 470/33/1 471/25/1 472/23/1
f 473/34/1 474/35/1 475/13/1 476/36/1
f 477/35/1 478/37/1 479/14/1 480/13/1
f 481/37/1 482/38/1 483/17/1 484/14/1
f 485/38/1 486/27/1 487/1/1 488/17/1
f 489/27/1 490/28/1 491/2/1 492/1/1
f 493/28/1 494/29/1 495/5/1 496/2/1
f 497/29/1 498/30/1 499/19/1 500/5/1
f 501/30/1 502/31/1 503/21/1 504/19/1
f 505/31/1 506/32/1 507/23/1 508/21/1
f 509/32/1 510/33/1 511/25/1 512/23/1
f 513/1/1 514/2/1 515/3/1 516/4/1
f 517/2/1 518/5/1 519/6/1 520/3/1
f 521/5/1 522/19/1 523/20/1 524/6/1
f 525/19/1 526/21/1 527/22/1 528/20/1
f 529/21/1 530/23/1 531/24/1 532/22/1
f 533/23/1 534/25/1 535/26/1 536/24/1
f 537/36/1 538/13/1 539/16/1 540/39/1
f 541/13/1 542/14/1 543/15/1 544/16/1
f 545/14/1 546/17/1 547/18/1 548/15/1
f 549/17/1 550/1/1 551/4/1 552/18/1
f 553/1/1 554/2/1 555/3/1 556/4/1
f 557/2/1 558/5/1 559/6/1 560/3/1
f 561/5/1 562/19/1 563/20/1 564/6/1
f 565/19/1 566/21/1 567/22/1 568/20/1
f 569/21/1 570/23/1 571/24/1 572/22/1
f 573/23/1 574/25/1 575/26/1 576/24/1
f 577/27/1 578/28/1 579/2/1 580/1/1
f 581/28/1 582/29/1 583/5/1 584/2/1
f 585/29/1 586/30/1 587/19/1 588/5/1
f 589/30/1 590/31/1 591/21/1 592/19/1
f 593/31/1 594/32/1 595/23/1 596/21/1
f 597/32/1 598/33/1 599/25/1 600/23/1
f 601/34/1 602/35/1 603/13/1 604/36/1
f 605/35/1 606/37/1 607/14/1 608/13/1
f 609/37/1 610/38/1 611/17/1 612/14/1
f 613/38/1 614/27/1 615/1/1 616/17/1
f 617/27/1 618/28/1 619/2/1 620/1/1
f 621/28/1 622/29/1 623/5/1 624/2/1
f 625/29/1 626/30/1 627/19/1 628/5/1
f 629/30/1 630/31/1 631/21/1 632/19/1
f 633/31/1 634/32/1 635/23/1 636/21/1
f 637/32/1 638/33/1 639/25/1 640/23/1
f 641/1/1 642/2/1 643/3/1 644/4/1
f 645/2/1 646/5/1 647/6/1 648/3/1
f 649/5/1 650/19/1 651/20/1 652/6/1
f 653/19/1 654/21/1 655/22/1 656/20/1
f 657/21/1 658/23/1 659/24/1 660/22/1
f 661/23/1 662/25/1 663/26/1 664/24/1
f 665/36/1 666/13/1 667/16/1 668/39/1
f 669/13/1 670/14/1 671/15/1 672/16/1
f 673/14/1 674/17/1 675/18/1 676/15/1
f 677/17/1 678/1/1 679/4/1 680/18/1
f 681/1/1 682/2/1 683/3/1 684/4/1
f 685/2/1 686/5/1 687/6/1 688/3/1
f 689/5/1 690/19/1 691/20/1 692/6/1
f 693/19/1 694/21/1 695/22/1 696/20/1
f 697/21/1 698/23/1 699/24/1 700/22/1
f 701/23/1 702/25/1 703/26/1 704/24/1
f 705/27/1 706/28/1 707/2/1 708/1/1
f 709/28/1 710/29/1 711/5/1 712/2/1
f 713/29/1 714/30/1 715/19/1 716/5/1
f 717/30/1 718/31/1 719/21/1 720/19/1
f 721/31/1 722/32/1 723/23/1 724/21/1
f 725/32/1 726/33/1 727/25/1 728/23/1
f 729/34/1 730/35/1 731/13/1 732/36/1
f 733/35/1 734/37/1 735/14/1 736/13/1
f 737/37/1 738/38/1 739/17/1 740/14/1
f 741/38/1 742/27/1 743/1/1 744/17/1
f 745/27/1 746/28/1 747/2/1 748/1/1
f 749/28/1 750/29/1 751/5/1 752/2/1
f 753/29/1 754/30/1 755/19/1 756/5/1
f 757/30/1 758/31/1 759/21/1 760/19/1
f 761/31/1 762/32/1 763/23/1 764/21/1
f 765/32/1 766/33/1 767/25/1 768/23/1
f 769/1/1 770/2/1 771/3/1 772/4/1
f 773/2/1 774/5/1 775/6/1 776/3/1
f 777/5/1 778/19/1 779/20/1 780/6/1
f 781/19/1 782/21/1 783/22/1 784/20/1
f 785/21/1 786/23/1 787/24/1 788/22/1
f 789/23/1 790/25/1 791/26/1 792/24/1
f 793/36/1 794/13/1 795/16/1 796/39/1
f 797/13/1 798/14/1 799/15/1 800/16/1
f 801/14/1 802/17/1 803/18/1 804/15/1
f 805/17/1 806/1/1 807/4/1 808/18/1
f 809/1/1 810/2/1 811/3/1 812/4/1
f 813/2/1 814/5/1 815/6/1 816/3/1
f 817/5/1 818/19/1 819/20/1 820/6/1
f 821/19/1 822/21/1 823/22/1 824/20/1
f 825/21/1 826/23/1 827/24/1 828/22/1
f 829/23/1 830/25/1 831/26/1 832/24/1
f 833/27/1 834/28/1 835/2/1 836/1/1
f 837/28/1 838/29/1 839/5/1 840/2/1
f 841/29/1 842/30/1 843/19/1 844/5/1
f 845/30/1 846/31/1 847/21/1 848/19/1
f 849/31/1 850/32/1 851/23/1 852/21/1
f 853/32/1 854/33/1 855/25/1 856/23/1
f 857/34/1 858/35/1 859/13/1 860/36/1
f 861/35/1 862/37/1 863/14/1 864/13/1
f 865/37/1 866/38/1 867/17/1 868/14/1
f 869/38/1 870/27/1 871/1/1 872/17/1
f 873/27/1 874/28/1 875/2/1 876/1/1
f 877/28/1 878/29/1 879/5/1 880/2/1
f 881/29/1 882/30/1 883/19/1 884/5/1
f 885/30/1 886/31/1 887/21/1 888/19/1
f 889/31/1 890/32/1 891/23/1 892/21/1
f 893/32/1 894/33/1 895/25/1 896/23/1
f 897/1/1 898/2/1 899/3/1 900/4/1
f 901/2/1 902/5/1 903/6/1 904/3/1
f 905/5/1 906/19/1 907/20/1 908/6/1
f 909/19/1 910/21/1 911/22/1 912/20/1
f 913/21/1 914/23/1 915/24/1 916/22/1
f 917/23/1 918/25/1 919/26/1 920/24/1
f 921/36/1 922/13/1 923/16/1 924/39/1
f 925/13/1 926/14/1 927/15/1 928/16/1
f 929/14/1 930/17/1 931/18/1 932/15/1
f 933/10/1 934/9/1 935/40/1 936/41/1
f 937/10/1 938/9/1 939/40/1 940/41/1
f 941/10/1 942/9/1 943/40/1 944/41/1
f 945/10/1 946/9/1 947/40/1 948/41/1
f 949/9/1 950/12/1 951/42/1 952/40/1
f 953/21/1 954/23/1 955/24/1 956/22/1
f 957/23/1 958/25/1 959/26/1 960/24/1
f 961/27/1 962/28/1 963/2/1 964/1/1
f 965/28/1 966/29/1 967/5/1 968/2/1
f 969/29/1 970/30/1 971/19/1 972/5/1
f 973/30/1 974/31/1 975/21/1 976/19/1
f 977/31/1 978/32/1 979/23/1 980/21/1
f 981/32/1 982/33/1 983/25/1 984/23/1
f 985/34/1 986/35/1 987/13/1 988/36/1
f 989/10/1 990/9/1 991/40/1 992/41/1
f 993/10/1 994/9/1 995/40/1 996/41/1
f 997/7/1 998/8/1 999/9/1 1000/10/1
f 1001/7/1 1002/8/1 1003/9/1 1004/10/1
f 1005/7/1 1006/8/1 1007/9/1 1008/10/1
f 1009/10/1 1010/9/1 1011/40/1 1012/41/1
f 1013/10/1 1014/9/1 1015/40/1 1016/41/1
f 1017/9/1 1018/12/1 1019/42/1 1020/40/1
f 1021/32/1 1022/33/1 1023/25/1 1024/23/1

