# Tiled2Unity generated file. Do not modify by hand.
# Wavefront file for '2ScenarioPlataforma_mesh_0943.obj'

# Vertices (Count = 128)
v 0 -240 0
v -16 -240 0
v -16 -224 0
v 0 -224 0
v -16 -240 0
v -32 -240 0
v -32 -224 0
v -16 -224 0
v -32 -240 0
v -48 -240 0
v -48 -224 0
v -32 -224 0
v -48 -240 0
v -64 -240 0
v -64 -224 0
v -48 -224 0
v -64 -240 0
v -80 -240 0
v -80 -224 0
v -64 -224 0
v -80 -240 0
v -96 -240 0
v -96 -224 0
v -80 -224 0
v -96 -240 0
v -112 -240 0
v -112 -224 0
v -96 -224 0
v -112 -240 0
v -128 -240 0
v -128 -224 0
v -112 -224 0
v -128 -240 0
v -144 -240 0
v -144 -224 0
v -128 -224 0
v -144 -240 0
v -160 -240 0
v -160 -224 0
v -144 -224 0
v -160 -240 0
v -176 -240 0
v -176 -224 0
v -160 -224 0
v -176 -240 0
v -192 -240 0
v -192 -224 0
v -176 -224 0
v -192 -240 0
v -208 -240 0
v -208 -224 0
v -192 -224 0
v -208 -240 0
v -224 -240 0
v -224 -224 0
v -208 -224 0
v -224 -240 0
v -240 -240 0
v -240 -224 0
v -224 -224 0
v -240 -240 0
v -256 -240 0
v -256 -224 0
v -240 -224 0
v 0 -256 0
v -16 -256 0
v -16 -240 0
v 0 -240 0
v -16 -256 0
v -32 -256 0
v -32 -240 0
v -16 -240 0
v -32 -256 0
v -48 -256 0
v -48 -240 0
v -32 -240 0
v -48 -256 0
v -64 -256 0
v -64 -240 0
v -48 -240 0
v -64 -256 0
v -80 -256 0
v -80 -240 0
v -64 -240 0
v -80 -256 0
v -96 -256 0
v -96 -240 0
v -80 -240 0
v -96 -256 0
v -112 -256 0
v -112 -240 0
v -96 -240 0
v -112 -256 0
v -128 -256 0
v -128 -240 0
v -112 -240 0
v -128 -256 0
v -144 -256 0
v -144 -240 0
v -128 -240 0
v -144 -256 0
v -160 -256 0
v -160 -240 0
v -144 -240 0
v -160 -256 0
v -176 -256 0
v -176 -240 0
v -160 -240 0
v -176 -256 0
v -192 -256 0
v -192 -240 0
v -176 -240 0
v -192 -256 0
v -208 -256 0
v -208 -240 0
v -192 -240 0
v -208 -256 0
v -224 -256 0
v -224 -240 0
v -208 -240 0
v -224 -256 0
v -240 -256 0
v -240 -240 0
v -224 -240 0
v -240 -256 0
v -256 -256 0
v -256 -240 0
v -240 -240 0

# Texture cooridinates (Count = 34)
vt 0.3723404 0.625
vt 0.3829787 0.625
vt 0.3829787 0.6875
vt 0.3723404 0.6875
vt 0.4361702 0.625
vt 0.4468085 0.625
vt 0.4468085 0.6875
vt 0.4361702 0.6875
vt 0.3617021 0.125
vt 0.3723404 0.125
vt 0.3723404 0.1875
vt 0.3617021 0.1875
vt 0.393617 0.625
vt 0.393617 0.6875
vt 0.3085106 0.125
vt 0.3191489 0.125
vt 0.3191489 0.1875
vt 0.3085106 0.1875
vt 0.3404255 0.125
vt 0.3510638 0.125
vt 0.3510638 0.1875
vt 0.3404255 0.1875
vt 0.4255319 0.625
vt 0.4255319 0.6875
vt 0.4148936 0.625
vt 0.4148936 0.6875
vt 0.2978723 0.125
vt 0.2978723 0.1875
vt 0.3297872 0.125
vt 0.3297872 0.1875
vt 0.606383 0.8125
vt 0.6170213 0.8125
vt 0.6170213 0.875
vt 0.606383 0.875

# Normal
vn 0 0 -1

# Mesh description
g 2ScenarioPlataforma_mesh_0943

# Faces
f 1/1/1 2/2/1 3/3/1 4/4/1
f 5/1/1 6/2/1 7/3/1 8/4/1
f 9/5/1 10/6/1 11/7/1 12/8/1
f 13/9/1 14/10/1 15/11/1 16/12/1
f 17/2/1 18/13/1 19/14/1 20/3/1
f 21/15/1 22/16/1 23/17/1 24/18/1
f 25/19/1 26/20/1 27/21/1 28/22/1
f 29/23/1 30/5/1 31/8/1 32/24/1
f 33/23/1 34/5/1 35/8/1 36/24/1
f 37/5/1 38/6/1 39/7/1 40/8/1
f 41/23/1 42/5/1 43/8/1 44/24/1
f 45/25/1 46/23/1 47/24/1 48/26/1
f 49/19/1 50/20/1 51/21/1 52/22/1
f 53/23/1 54/5/1 55/8/1 56/24/1
f 57/27/1 58/15/1 59/18/1 60/28/1
f 61/29/1 62/19/1 63/22/1 64/30/1
f 65/31/1 66/32/1 67/33/1 68/34/1
f 69/31/1 70/32/1 71/33/1 72/34/1
f 73/31/1 74/32/1 75/33/1 76/34/1
f 77/31/1 78/32/1 79/33/1 80/34/1
f 81/31/1 82/32/1 83/33/1 84/34/1
f 85/31/1 86/32/1 87/33/1 88/34/1
f 89/31/1 90/32/1 91/33/1 92/34/1
f 93/31/1 94/32/1 95/33/1 96/34/1
f 97/31/1 98/32/1 99/33/1 100/34/1
f 101/31/1 102/32/1 103/33/1 104/34/1
f 105/31/1 106/32/1 107/33/1 108/34/1
f 109/31/1 110/32/1 111/33/1 112/34/1
f 113/31/1 114/32/1 115/33/1 116/34/1
f 117/31/1 118/32/1 119/33/1 120/34/1
f 121/31/1 122/32/1 123/33/1 124/34/1
f 125/31/1 126/32/1 127/33/1 128/34/1

