# Tiled2Unity generated file. Do not modify by hand.
# Wavefront file for '2ScenarioPlataforma_mesh_0322.obj'

# Vertices (Count = 1024)
v 0 -16 0
v -16 -16 0
v -16 0 0
v 0 0 0
v -16 -16 0
v -32 -16 0
v -32 0 0
v -16 0 0
v -32 -16 0
v -48 -16 0
v -48 0 0
v -32 0 0
v -48 -16 0
v -64 -16 0
v -64 0 0
v -48 0 0
v -64 -16 0
v -80 -16 0
v -80 0 0
v -64 0 0
v -80 -16 0
v -96 -16 0
v -96 0 0
v -80 0 0
v -96 -16 0
v -112 -16 0
v -112 0 0
v -96 0 0
v -112 -16 0
v -128 -16 0
v -128 0 0
v -112 0 0
v -128 -16 0
v -144 -16 0
v -144 0 0
v -128 0 0
v -144 -16 0
v -160 -16 0
v -160 0 0
v -144 0 0
v -160 -16 0
v -176 -16 0
v -176 0 0
v -160 0 0
v -176 -16 0
v -192 -16 0
v -192 0 0
v -176 0 0
v -192 -16 0
v -208 -16 0
v -208 0 0
v -192 0 0
v -208 -16 0
v -224 -16 0
v -224 0 0
v -208 0 0
v -224 -16 0
v -240 -16 0
v -240 0 0
v -224 0 0
v -240 -16 0
v -256 -16 0
v -256 0 0
v -240 0 0
v 0 -32 0
v -16 -32 0
v -16 -16 0
v 0 -16 0
v -16 -32 0
v -32 -32 0
v -32 -16 0
v -16 -16 0
v -32 -32 0
v -48 -32 0
v -48 -16 0
v -32 -16 0
v -48 -32 0
v -64 -32 0
v -64 -16 0
v -48 -16 0
v -64 -32 0
v -80 -32 0
v -80 -16 0
v -64 -16 0
v -80 -32 0
v -96 -32 0
v -96 -16 0
v -80 -16 0
v -96 -32 0
v -112 -32 0
v -112 -16 0
v -96 -16 0
v -112 -32 0
v -128 -32 0
v -128 -16 0
v -112 -16 0
v -128 -32 0
v -144 -32 0
v -144 -16 0
v -128 -16 0
v -144 -32 0
v -160 -32 0
v -160 -16 0
v -144 -16 0
v -160 -32 0
v -176 -32 0
v -176 -16 0
v -160 -16 0
v -176 -32 0
v -192 -32 0
v -192 -16 0
v -176 -16 0
v -192 -32 0
v -208 -32 0
v -208 -16 0
v -192 -16 0
v -208 -32 0
v -224 -32 0
v -224 -16 0
v -208 -16 0
v -224 -32 0
v -240 -32 0
v -240 -16 0
v -224 -16 0
v -240 -32 0
v -256 -32 0
v -256 -16 0
v -240 -16 0
v 0 -48 0
v -16 -48 0
v -16 -32 0
v 0 -32 0
v -16 -48 0
v -32 -48 0
v -32 -32 0
v -16 -32 0
v -32 -48 0
v -48 -48 0
v -48 -32 0
v -32 -32 0
v -48 -48 0
v -64 -48 0
v -64 -32 0
v -48 -32 0
v -64 -48 0
v -80 -48 0
v -80 -32 0
v -64 -32 0
v -80 -48 0
v -96 -48 0
v -96 -32 0
v -80 -32 0
v -96 -48 0
v -112 -48 0
v -112 -32 0
v -96 -32 0
v -112 -48 0
v -128 -48 0
v -128 -32 0
v -112 -32 0
v -128 -48 0
v -144 -48 0
v -144 -32 0
v -128 -32 0
v -144 -48 0
v -160 -48 0
v -160 -32 0
v -144 -32 0
v -160 -48 0
v -176 -48 0
v -176 -32 0
v -160 -32 0
v -176 -48 0
v -192 -48 0
v -192 -32 0
v -176 -32 0
v -192 -48 0
v -208 -48 0
v -208 -32 0
v -192 -32 0
v -208 -48 0
v -224 -48 0
v -224 -32 0
v -208 -32 0
v -224 -48 0
v -240 -48 0
v -240 -32 0
v -224 -32 0
v -240 -48 0
v -256 -48 0
v -256 -32 0
v -240 -32 0
v 0 -64 0
v -16 -64 0
v -16 -48 0
v 0 -48 0
v -16 -64 0
v -32 -64 0
v -32 -48 0
v -16 -48 0
v -32 -64 0
v -48 -64 0
v -48 -48 0
v -32 -48 0
v -48 -64 0
v -64 -64 0
v -64 -48 0
v -48 -48 0
v -64 -64 0
v -80 -64 0
v -80 -48 0
v -64 -48 0
v -80 -64 0
v -96 -64 0
v -96 -48 0
v -80 -48 0
v -96 -64 0
v -112 -64 0
v -112 -48 0
v -96 -48 0
v -112 -64 0
v -128 -64 0
v -128 -48 0
v -112 -48 0
v -128 -64 0
v -144 -64 0
v -144 -48 0
v -128 -48 0
v -144 -64 0
v -160 -64 0
v -160 -48 0
v -144 -48 0
v -160 -64 0
v -176 -64 0
v -176 -48 0
v -160 -48 0
v -176 -64 0
v -192 -64 0
v -192 -48 0
v -176 -48 0
v -192 -64 0
v -208 -64 0
v -208 -48 0
v -192 -48 0
v -208 -64 0
v -224 -64 0
v -224 -48 0
v -208 -48 0
v -224 -64 0
v -240 -64 0
v -240 -48 0
v -224 -48 0
v -240 -64 0
v -256 -64 0
v -256 -48 0
v -240 -48 0
v 0 -80 0
v -16 -80 0
v -16 -64 0
v 0 -64 0
v -16 -80 0
v -32 -80 0
v -32 -64 0
v -16 -64 0
v -32 -80 0
v -48 -80 0
v -48 -64 0
v -32 -64 0
v -48 -80 0
v -64 -80 0
v -64 -64 0
v -48 -64 0
v -64 -80 0
v -80 -80 0
v -80 -64 0
v -64 -64 0
v -80 -80 0
v -96 -80 0
v -96 -64 0
v -80 -64 0
v -96 -80 0
v -112 -80 0
v -112 -64 0
v -96 -64 0
v -112 -80 0
v -128 -80 0
v -128 -64 0
v -112 -64 0
v -128 -80 0
v -144 -80 0
v -144 -64 0
v -128 -64 0
v -144 -80 0
v -160 -80 0
v -160 -64 0
v -144 -64 0
v -160 -80 0
v -176 -80 0
v -176 -64 0
v -160 -64 0
v -176 -80 0
v -192 -80 0
v -192 -64 0
v -176 -64 0
v -192 -80 0
v -208 -80 0
v -208 -64 0
v -192 -64 0
v -208 -80 0
v -224 -80 0
v -224 -64 0
v -208 -64 0
v -224 -80 0
v -240 -80 0
v -240 -64 0
v -224 -64 0
v -240 -80 0
v -256 -80 0
v -256 -64 0
v -240 -64 0
v 0 -96 0
v -16 -96 0
v -16 -80 0
v 0 -80 0
v -16 -96 0
v -32 -96 0
v -32 -80 0
v -16 -80 0
v -32 -96 0
v -48 -96 0
v -48 -80 0
v -32 -80 0
v -48 -96 0
v -64 -96 0
v -64 -80 0
v -48 -80 0
v -64 -96 0
v -80 -96 0
v -80 -80 0
v -64 -80 0
v -80 -96 0
v -96 -96 0
v -96 -80 0
v -80 -80 0
v -96 -96 0
v -112 -96 0
v -112 -80 0
v -96 -80 0
v -112 -96 0
v -128 -96 0
v -128 -80 0
v -112 -80 0
v -128 -96 0
v -144 -96 0
v -144 -80 0
v -128 -80 0
v -144 -96 0
v -160 -96 0
v -160 -80 0
v -144 -80 0
v -160 -96 0
v -176 -96 0
v -176 -80 0
v -160 -80 0
v -176 -96 0
v -192 -96 0
v -192 -80 0
v -176 -80 0
v -192 -96 0
v -208 -96 0
v -208 -80 0
v -192 -80 0
v -208 -96 0
v -224 -96 0
v -224 -80 0
v -208 -80 0
v -224 -96 0
v -240 -96 0
v -240 -80 0
v -224 -80 0
v -240 -96 0
v -256 -96 0
v -256 -80 0
v -240 -80 0
v 0 -112 0
v -16 -112 0
v -16 -96 0
v 0 -96 0
v -16 -112 0
v -32 -112 0
v -32 -96 0
v -16 -96 0
v -32 -112 0
v -48 -112 0
v -48 -96 0
v -32 -96 0
v -48 -112 0
v -64 -112 0
v -64 -96 0
v -48 -96 0
v -64 -112 0
v -80 -112 0
v -80 -96 0
v -64 -96 0
v -80 -112 0
v -96 -112 0
v -96 -96 0
v -80 -96 0
v -96 -112 0
v -112 -112 0
v -112 -96 0
v -96 -96 0
v -112 -112 0
v -128 -112 0
v -128 -96 0
v -112 -96 0
v -128 -112 0
v -144 -112 0
v -144 -96 0
v -128 -96 0
v -144 -112 0
v -160 -112 0
v -160 -96 0
v -144 -96 0
v -160 -112 0
v -176 -112 0
v -176 -96 0
v -160 -96 0
v -176 -112 0
v -192 -112 0
v -192 -96 0
v -176 -96 0
v -192 -112 0
v -208 -112 0
v -208 -96 0
v -192 -96 0
v -208 -112 0
v -224 -112 0
v -224 -96 0
v -208 -96 0
v -224 -112 0
v -240 -112 0
v -240 -96 0
v -224 -96 0
v -240 -112 0
v -256 -112 0
v -256 -96 0
v -240 -96 0
v 0 -128 0
v -16 -128 0
v -16 -112 0
v 0 -112 0
v -16 -128 0
v -32 -128 0
v -32 -112 0
v -16 -112 0
v -32 -128 0
v -48 -128 0
v -48 -112 0
v -32 -112 0
v -48 -128 0
v -64 -128 0
v -64 -112 0
v -48 -112 0
v -64 -128 0
v -80 -128 0
v -80 -112 0
v -64 -112 0
v -80 -128 0
v -96 -128 0
v -96 -112 0
v -80 -112 0
v -96 -128 0
v -112 -128 0
v -112 -112 0
v -96 -112 0
v -112 -128 0
v -128 -128 0
v -128 -112 0
v -112 -112 0
v -128 -128 0
v -144 -128 0
v -144 -112 0
v -128 -112 0
v -144 -128 0
v -160 -128 0
v -160 -112 0
v -144 -112 0
v -160 -128 0
v -176 -128 0
v -176 -112 0
v -160 -112 0
v -176 -128 0
v -192 -128 0
v -192 -112 0
v -176 -112 0
v -192 -128 0
v -208 -128 0
v -208 -112 0
v -192 -112 0
v -208 -128 0
v -224 -128 0
v -224 -112 0
v -208 -112 0
v -224 -128 0
v -240 -128 0
v -240 -112 0
v -224 -112 0
v -240 -128 0
v -256 -128 0
v -256 -112 0
v -240 -112 0
v 0 -144 0
v -16 -144 0
v -16 -128 0
v 0 -128 0
v -16 -144 0
v -32 -144 0
v -32 -128 0
v -16 -128 0
v -32 -144 0
v -48 -144 0
v -48 -128 0
v -32 -128 0
v -48 -144 0
v -64 -144 0
v -64 -128 0
v -48 -128 0
v -64 -144 0
v -80 -144 0
v -80 -128 0
v -64 -128 0
v -80 -144 0
v -96 -144 0
v -96 -128 0
v -80 -128 0
v -96 -144 0
v -112 -144 0
v -112 -128 0
v -96 -128 0
v -112 -144 0
v -128 -144 0
v -128 -128 0
v -112 -128 0
v -128 -144 0
v -144 -144 0
v -144 -128 0
v -128 -128 0
v -144 -144 0
v -160 -144 0
v -160 -128 0
v -144 -128 0
v -160 -144 0
v -176 -144 0
v -176 -128 0
v -160 -128 0
v -176 -144 0
v -192 -144 0
v -192 -128 0
v -176 -128 0
v -192 -144 0
v -208 -144 0
v -208 -128 0
v -192 -128 0
v -208 -144 0
v -224 -144 0
v -224 -128 0
v -208 -128 0
v -224 -144 0
v -240 -144 0
v -240 -128 0
v -224 -128 0
v -240 -144 0
v -256 -144 0
v -256 -128 0
v -240 -128 0
v 0 -160 0
v -16 -160 0
v -16 -144 0
v 0 -144 0
v -16 -160 0
v -32 -160 0
v -32 -144 0
v -16 -144 0
v -32 -160 0
v -48 -160 0
v -48 -144 0
v -32 -144 0
v -48 -160 0
v -64 -160 0
v -64 -144 0
v -48 -144 0
v -64 -160 0
v -80 -160 0
v -80 -144 0
v -64 -144 0
v -80 -160 0
v -96 -160 0
v -96 -144 0
v -80 -144 0
v -96 -160 0
v -112 -160 0
v -112 -144 0
v -96 -144 0
v -112 -160 0
v -128 -160 0
v -128 -144 0
v -112 -144 0
v -128 -160 0
v -144 -160 0
v -144 -144 0
v -128 -144 0
v -144 -160 0
v -160 -160 0
v -160 -144 0
v -144 -144 0
v -160 -160 0
v -176 -160 0
v -176 -144 0
v -160 -144 0
v -176 -160 0
v -192 -160 0
v -192 -144 0
v -176 -144 0
v -192 -160 0
v -208 -160 0
v -208 -144 0
v -192 -144 0
v -208 -160 0
v -224 -160 0
v -224 -144 0
v -208 -144 0
v -224 -160 0
v -240 -160 0
v -240 -144 0
v -224 -144 0
v -240 -160 0
v -256 -160 0
v -256 -144 0
v -240 -144 0
v 0 -176 0
v -16 -176 0
v -16 -160 0
v 0 -160 0
v -16 -176 0
v -32 -176 0
v -32 -160 0
v -16 -160 0
v -32 -176 0
v -48 -176 0
v -48 -160 0
v -32 -160 0
v -48 -176 0
v -64 -176 0
v -64 -160 0
v -48 -160 0
v -64 -176 0
v -80 -176 0
v -80 -160 0
v -64 -160 0
v -80 -176 0
v -96 -176 0
v -96 -160 0
v -80 -160 0
v -96 -176 0
v -112 -176 0
v -112 -160 0
v -96 -160 0
v -112 -176 0
v -128 -176 0
v -128 -160 0
v -112 -160 0
v -128 -176 0
v -144 -176 0
v -144 -160 0
v -128 -160 0
v -144 -176 0
v -160 -176 0
v -160 -160 0
v -144 -160 0
v -160 -176 0
v -176 -176 0
v -176 -160 0
v -160 -160 0
v -176 -176 0
v -192 -176 0
v -192 -160 0
v -176 -160 0
v -192 -176 0
v -208 -176 0
v -208 -160 0
v -192 -160 0
v -208 -176 0
v -224 -176 0
v -224 -160 0
v -208 -160 0
v -224 -176 0
v -240 -176 0
v -240 -160 0
v -224 -160 0
v -240 -176 0
v -256 -176 0
v -256 -160 0
v -240 -160 0
v 0 -192 0
v -16 -192 0
v -16 -176 0
v 0 -176 0
v -16 -192 0
v -32 -192 0
v -32 -176 0
v -16 -176 0
v -32 -192 0
v -48 -192 0
v -48 -176 0
v -32 -176 0
v -48 -192 0
v -64 -192 0
v -64 -176 0
v -48 -176 0
v -64 -192 0
v -80 -192 0
v -80 -176 0
v -64 -176 0
v -80 -192 0
v -96 -192 0
v -96 -176 0
v -80 -176 0
v -96 -192 0
v -112 -192 0
v -112 -176 0
v -96 -176 0
v -112 -192 0
v -128 -192 0
v -128 -176 0
v -112 -176 0
v -128 -192 0
v -144 -192 0
v -144 -176 0
v -128 -176 0
v -144 -192 0
v -160 -192 0
v -160 -176 0
v -144 -176 0
v -160 -192 0
v -176 -192 0
v -176 -176 0
v -160 -176 0
v -176 -192 0
v -192 -192 0
v -192 -176 0
v -176 -176 0
v -192 -192 0
v -208 -192 0
v -208 -176 0
v -192 -176 0
v -208 -192 0
v -224 -192 0
v -224 -176 0
v -208 -176 0
v -224 -192 0
v -240 -192 0
v -240 -176 0
v -224 -176 0
v -240 -192 0
v -256 -192 0
v -256 -176 0
v -240 -176 0
v 0 -208 0
v -16 -208 0
v -16 -192 0
v 0 -192 0
v -16 -208 0
v -32 -208 0
v -32 -192 0
v -16 -192 0
v -32 -208 0
v -48 -208 0
v -48 -192 0
v -32 -192 0
v -48 -208 0
v -64 -208 0
v -64 -192 0
v -48 -192 0
v -64 -208 0
v -80 -208 0
v -80 -192 0
v -64 -192 0
v -80 -208 0
v -96 -208 0
v -96 -192 0
v -80 -192 0
v -96 -208 0
v -112 -208 0
v -112 -192 0
v -96 -192 0
v -112 -208 0
v -128 -208 0
v -128 -192 0
v -112 -192 0
v -128 -208 0
v -144 -208 0
v -144 -192 0
v -128 -192 0
v -144 -208 0
v -160 -208 0
v -160 -192 0
v -144 -192 0
v -160 -208 0
v -176 -208 0
v -176 -192 0
v -160 -192 0
v -176 -208 0
v -192 -208 0
v -192 -192 0
v -176 -192 0
v -192 -208 0
v -208 -208 0
v -208 -192 0
v -192 -192 0
v -208 -208 0
v -224 -208 0
v -224 -192 0
v -208 -192 0
v -224 -208 0
v -240 -208 0
v -240 -192 0
v -224 -192 0
v -240 -208 0
v -256 -208 0
v -256 -192 0
v -240 -192 0
v 0 -224 0
v -16 -224 0
v -16 -208 0
v 0 -208 0
v -16 -224 0
v -32 -224 0
v -32 -208 0
v -16 -208 0
v -32 -224 0
v -48 -224 0
v -48 -208 0
v -32 -208 0
v -48 -224 0
v -64 -224 0
v -64 -208 0
v -48 -208 0
v -64 -224 0
v -80 -224 0
v -80 -208 0
v -64 -208 0
v -80 -224 0
v -96 -224 0
v -96 -208 0
v -80 -208 0
v -96 -224 0
v -112 -224 0
v -112 -208 0
v -96 -208 0
v -112 -224 0
v -128 -224 0
v -128 -208 0
v -112 -208 0
v -128 -224 0
v -144 -224 0
v -144 -208 0
v -128 -208 0
v -144 -224 0
v -160 -224 0
v -160 -208 0
v -144 -208 0
v -160 -224 0
v -176 -224 0
v -176 -208 0
v -160 -208 0
v -176 -224 0
v -192 -224 0
v -192 -208 0
v -176 -208 0
v -192 -224 0
v -208 -224 0
v -208 -208 0
v -192 -208 0
v -208 -224 0
v -224 -224 0
v -224 -208 0
v -208 -208 0
v -224 -224 0
v -240 -224 0
v -240 -208 0
v -224 -208 0
v -240 -224 0
v -256 -224 0
v -256 -208 0
v -240 -208 0
v 0 -240 0
v -16 -240 0
v -16 -224 0
v 0 -224 0
v -16 -240 0
v -32 -240 0
v -32 -224 0
v -16 -224 0
v -32 -240 0
v -48 -240 0
v -48 -224 0
v -32 -224 0
v -48 -240 0
v -64 -240 0
v -64 -224 0
v -48 -224 0
v -64 -240 0
v -80 -240 0
v -80 -224 0
v -64 -224 0
v -80 -240 0
v -96 -240 0
v -96 -224 0
v -80 -224 0
v -96 -240 0
v -112 -240 0
v -112 -224 0
v -96 -224 0
v -112 -240 0
v -128 -240 0
v -128 -224 0
v -112 -224 0
v -128 -240 0
v -144 -240 0
v -144 -224 0
v -128 -224 0
v -144 -240 0
v -160 -240 0
v -160 -224 0
v -144 -224 0
v -160 -240 0
v -176 -240 0
v -176 -224 0
v -160 -224 0
v -176 -240 0
v -192 -240 0
v -192 -224 0
v -176 -224 0
v -192 -240 0
v -208 -240 0
v -208 -224 0
v -192 -224 0
v -208 -240 0
v -224 -240 0
v -224 -224 0
v -208 -224 0
v -224 -240 0
v -240 -240 0
v -240 -224 0
v -224 -224 0
v -240 -240 0
v -256 -240 0
v -256 -224 0
v -240 -224 0
v 0 -256 0
v -16 -256 0
v -16 -240 0
v 0 -240 0
v -16 -256 0
v -32 -256 0
v -32 -240 0
v -16 -240 0
v -32 -256 0
v -48 -256 0
v -48 -240 0
v -32 -240 0
v -48 -256 0
v -64 -256 0
v -64 -240 0
v -48 -240 0
v -64 -256 0
v -80 -256 0
v -80 -240 0
v -64 -240 0
v -80 -256 0
v -96 -256 0
v -96 -240 0
v -80 -240 0
v -96 -256 0
v -112 -256 0
v -112 -240 0
v -96 -240 0
v -112 -256 0
v -128 -256 0
v -128 -240 0
v -112 -240 0
v -128 -256 0
v -144 -256 0
v -144 -240 0
v -128 -240 0
v -144 -256 0
v -160 -256 0
v -160 -240 0
v -144 -240 0
v -160 -256 0
v -176 -256 0
v -176 -240 0
v -160 -240 0
v -176 -256 0
v -192 -256 0
v -192 -240 0
v -176 -240 0
v -192 -256 0
v -208 -256 0
v -208 -240 0
v -192 -240 0
v -208 -256 0
v -224 -256 0
v -224 -240 0
v -208 -240 0
v -224 -256 0
v -240 -256 0
v -240 -240 0
v -224 -240 0
v -240 -256 0
v -256 -256 0
v -256 -240 0
v -240 -240 0

# Texture cooridinates (Count = 42)
vt 0.1276596 0.9375
vt 0.1170213 0.9375
vt 0.1170213 0.875
vt 0.1276596 0.875
vt 0.1595745 0.375
vt 0.1702128 0.375
vt 0.1702128 0.4375
vt 0.1595745 0.4375
vt 0.106383 0.9375
vt 0.09574468 0.9375
vt 0.09574468 0.875
vt 0.106383 0.875
vt 0.08510638 0.9375
vt 0.08510638 0.875
vt 0.07446808 0.9375
vt 0.07446808 0.875
vt 0.06382979 0.9375
vt 0.06382979 0.875
vt 0.05319149 0.9375
vt 0.05319149 0.875
vt 0.04255319 0.9375
vt 0.04255319 0.875
vt 0.1489362 0.9375
vt 0.1382979 0.9375
vt 0.1382979 0.875
vt 0.1489362 0.875
vt 0.1489362 0.375
vt 0.1489362 0.4375
vt 0.1489362 0.3125
vt 0.1595745 0.3125
vt 0.106383 1
vt 0.09574468 1
vt 0.08510638 1
vt 0.07446808 1
vt 0.06382979 1
vt 0.05319149 1
vt 0.04255319 1
vt 0.1489362 1
vt 0.1382979 1
vt 0.1276596 1
vt 0.1170213 1
vt 0.1702128 0.3125

# Normal
vn 0 0 -1

# Mesh description
g 2ScenarioPlataforma_mesh_0322

# Faces
f 1/1/1 2/2/1 3/3/1 4/4/1
f 5/5/1 6/6/1 7/7/1 8/8/1
f 9/9/1 10/10/1 11/11/1 12/12/1
f 13/10/1 14/13/1 15/14/1 16/11/1
f 17/13/1 18/15/1 19/16/1 20/14/1
f 21/15/1 22/17/1 23/18/1 24/16/1
f 25/17/1 26/19/1 27/20/1 28/18/1
f 29/19/1 30/21/1 31/22/1 32/20/1
f 33/23/1 34/24/1 35/25/1 36/26/1
f 37/24/1 38/1/1 39/4/1 40/25/1
f 41/1/1 42/2/1 43/3/1 44/4/1
f 45/27/1 46/5/1 47/8/1 48/28/1
f 49/5/1 50/6/1 51/7/1 52/8/1
f 53/5/1 54/6/1 55/7/1 56/8/1
f 57/13/1 58/15/1 59/16/1 60/14/1
f 61/15/1 62/17/1 63/18/1 64/16/1
f 65/5/1 66/6/1 67/7/1 68/8/1
f 69/29/1 70/30/1 71/5/1 72/27/1
f 73/31/1 74/32/1 75/10/1 76/9/1
f 77/32/1 78/33/1 79/13/1 80/10/1
f 81/33/1 82/34/1 83/15/1 84/13/1
f 85/34/1 86/35/1 87/17/1 88/15/1
f 89/35/1 90/36/1 91/19/1 92/17/1
f 93/36/1 94/37/1 95/21/1 96/19/1
f 97/38/1 98/39/1 99/24/1 100/23/1
f 101/39/1 102/40/1 103/1/1 104/24/1
f 105/40/1 106/41/1 107/2/1 108/1/1
f 109/27/1 110/5/1 111/8/1 112/28/1
f 113/5/1 114/6/1 115/7/1 116/8/1
f 117/30/1 118/42/1 119/6/1 120/5/1
f 121/33/1 122/34/1 123/15/1 124/13/1
f 125/27/1 126/5/1 127/8/1 128/28/1
f 129/5/1 130/6/1 131/7/1 132/8/1
f 133/2/1 134/9/1 135/12/1 136/3/1
f 137/9/1 138/10/1 139/11/1 140/12/1
f 141/10/1 142/13/1 143/14/1 144/11/1
f 145/13/1 146/15/1 147/16/1 148/14/1
f 149/15/1 150/17/1 151/18/1 152/16/1
f 153/17/1 154/19/1 155/20/1 156/18/1
f 157/19/1 158/21/1 159/22/1 160/20/1
f 161/23/1 162/24/1 163/25/1 164/26/1
f 165/24/1 166/1/1 167/4/1 168/25/1
f 169/1/1 170/2/1 171/3/1 172/4/1
f 173/27/1 174/5/1 175/8/1 176/28/1
f 177/27/1 178/5/1 179/8/1 180/28/1
f 181/27/1 182/5/1 183/8/1 184/28/1
f 185/27/1 186/5/1 187/8/1 188/28/1
f 189/29/1 190/30/1 191/5/1 192/27/1
f 193/40/1 194/41/1 195/2/1 196/1/1
f 197/41/1 198/31/1 199/9/1 200/2/1
f 201/31/1 202/32/1 203/10/1 204/9/1
f 205/32/1 206/33/1 207/13/1 208/10/1
f 209/33/1 210/34/1 211/15/1 212/13/1
f 213/34/1 214/35/1 215/17/1 216/15/1
f 217/35/1 218/36/1 219/19/1 220/17/1
f 221/36/1 222/37/1 223/21/1 224/19/1
f 225/38/1 226/39/1 227/24/1 228/23/1
f 229/39/1 230/40/1 231/1/1 232/24/1
f 233/40/1 234/41/1 235/2/1 236/1/1
f 237/29/1 238/30/1 239/5/1 240/27/1
f 241/29/1 242/30/1 243/5/1 244/27/1
f 245/29/1 246/30/1 247/5/1 248/27/1
f 249/29/1 250/30/1 251/5/1 252/27/1
f 253/29/1 254/30/1 255/5/1 256/27/1
f 257/1/1 258/2/1 259/3/1 260/4/1
f 261/2/1 262/9/1 263/12/1 264/3/1
f 265/9/1 266/10/1 267/11/1 268/12/1
f 269/10/1 270/13/1 271/14/1 272/11/1
f 273/13/1 274/15/1 275/16/1 276/14/1
f 277/15/1 278/17/1 279/18/1 280/16/1
f 281/17/1 282/19/1 283/20/1 284/18/1
f 285/19/1 286/21/1 287/22/1 288/20/1
f 289/23/1 290/24/1 291/25/1 292/26/1
f 293/24/1 294/1/1 295/4/1 296/25/1
f 297/1/1 298/2/1 299/3/1 300/4/1
f 301/2/1 302/9/1 303/12/1 304/3/1
f 305/9/1 306/10/1 307/11/1 308/12/1
f 309/10/1 310/13/1 311/14/1 312/11/1
f 313/13/1 314/15/1 315/16/1 316/14/1
f 317/15/1 318/17/1 319/18/1 320/16/1
f 321/40/1 322/41/1 323/2/1 324/1/1
f 325/41/1 326/31/1 327/9/1 328/2/1
f 329/31/1 330/32/1 331/10/1 332/9/1
f 333/32/1 334/33/1 335/13/1 336/10/1
f 337/33/1 338/34/1 339/15/1 340/13/1
f 341/34/1 342/35/1 343/17/1 344/15/1
f 345/35/1 346/36/1 347/19/1 348/17/1
f 349/36/1 350/37/1 351/21/1 352/19/1
f 353/38/1 354/39/1 355/24/1 356/23/1
f 357/39/1 358/40/1 359/1/1 360/24/1
f 361/40/1 362/41/1 363/2/1 364/1/1
f 365/41/1 366/31/1 367/9/1 368/2/1
f 369/31/1 370/32/1 371/10/1 372/9/1
f 373/32/1 374/33/1 375/13/1 376/10/1
f 377/33/1 378/34/1 379/15/1 380/13/1
f 381/34/1 382/35/1 383/17/1 384/15/1
f 385/1/1 386/2/1 387/3/1 388/4/1
f 389/2/1 390/9/1 391/12/1 392/3/1
f 393/9/1 394/10/1 395/11/1 396/12/1
f 397/10/1 398/13/1 399/14/1 400/11/1
f 401/13/1 402/15/1 403/16/1 404/14/1
f 405/15/1 406/17/1 407/18/1 408/16/1
f 409/17/1 410/19/1 411/20/1 412/18/1
f 413/19/1 414/21/1 415/22/1 416/20/1
f 417/23/1 418/24/1 419/25/1 420/26/1
f 421/24/1 422/1/1 423/4/1 424/25/1
f 425/1/1 426/2/1 427/3/1 428/4/1
f 429/2/1 430/9/1 431/12/1 432/3/1
f 433/9/1 434/10/1 435/11/1 436/12/1
f 437/10/1 438/13/1 439/14/1 440/11/1
f 441/13/1 442/15/1 443/16/1 444/14/1
f 445/15/1 446/17/1 447/18/1 448/16/1
f 449/40/1 450/41/1 451/2/1 452/1/1
f 453/41/1 454/31/1 455/9/1 456/2/1
f 457/31/1 458/32/1 459/10/1 460/9/1
f 461/32/1 462/33/1 463/13/1 464/10/1
f 465/33/1 466/34/1 467/15/1 468/13/1
f 469/34/1 470/35/1 471/17/1 472/15/1
f 473/35/1 474/36/1 475/19/1 476/17/1
f 477/36/1 478/37/1 479/21/1 480/19/1
f 481/38/1 482/39/1 483/24/1 484/23/1
f 485/39/1 486/40/1 487/1/1 488/24/1
f 489/40/1 490/41/1 491/2/1 492/1/1
f 493/41/1 494/31/1 495/9/1 496/2/1
f 497/31/1 498/32/1 499/10/1 500/9/1
f 501/32/1 502/33/1 503/13/1 504/10/1
f 505/33/1 506/34/1 507/15/1 508/13/1
f 509/34/1 510/35/1 511/17/1 512/15/1
f 513/1/1 514/2/1 515/3/1 516/4/1
f 517/2/1 518/9/1 519/12/1 520/3/1
f 521/9/1 522/10/1 523/11/1 524/12/1
f 525/10/1 526/13/1 527/14/1 528/11/1
f 529/13/1 530/15/1 531/16/1 532/14/1
f 533/15/1 534/17/1 535/18/1 536/16/1
f 537/17/1 538/19/1 539/20/1 540/18/1
f 541/19/1 542/21/1 543/22/1 544/20/1
f 545/23/1 546/24/1 547/25/1 548/26/1
f 549/24/1 550/1/1 551/4/1 552/25/1
f 553/1/1 554/2/1 555/3/1 556/4/1
f 557/2/1 558/9/1 559/12/1 560/3/1
f 561/9/1 562/10/1 563/11/1 564/12/1
f 565/10/1 566/13/1 567/14/1 568/11/1
f 569/13/1 570/15/1 571/16/1 572/14/1
f 573/15/1 574/17/1 575/18/1 576/16/1
f 577/40/1 578/41/1 579/2/1 580/1/1
f 581/41/1 582/31/1 583/9/1 584/2/1
f 585/31/1 586/32/1 587/10/1 588/9/1
f 589/32/1 590/33/1 591/13/1 592/10/1
f 593/33/1 594/34/1 595/15/1 596/13/1
f 597/34/1 598/35/1 599/17/1 600/15/1
f 601/35/1 602/36/1 603/19/1 604/17/1
f 605/36/1 606/37/1 607/21/1 608/19/1
f 609/38/1 610/39/1 611/24/1 612/23/1
f 613/39/1 614/40/1 615/1/1 616/24/1
f 617/40/1 618/41/1 619/2/1 620/1/1
f 621/41/1 622/31/1 623/9/1 624/2/1
f 625/31/1 626/32/1 627/10/1 628/9/1
f 629/32/1 630/33/1 631/13/1 632/10/1
f 633/33/1 634/34/1 635/15/1 636/13/1
f 637/34/1 638/35/1 639/17/1 640/15/1
f 641/1/1 642/2/1 643/3/1 644/4/1
f 645/2/1 646/9/1 647/12/1 648/3/1
f 649/9/1 650/10/1 651/11/1 652/12/1
f 653/10/1 654/13/1 655/14/1 656/11/1
f 657/13/1 658/15/1 659/16/1 660/14/1
f 661/15/1 662/17/1 663/18/1 664/16/1
f 665/17/1 666/19/1 667/20/1 668/18/1
f 669/19/1 670/21/1 671/22/1 672/20/1
f 673/23/1 674/24/1 675/25/1 676/26/1
f 677/24/1 678/1/1 679/4/1 680/25/1
f 681/1/1 682/2/1 683/3/1 684/4/1
f 685/2/1 686/9/1 687/12/1 688/3/1
f 689/9/1 690/10/1 691/11/1 692/12/1
f 693/10/1 694/13/1 695/14/1 696/11/1
f 697/13/1 698/15/1 699/16/1 700/14/1
f 701/15/1 702/17/1 703/18/1 704/16/1
f 705/40/1 706/41/1 707/2/1 708/1/1
f 709/41/1 710/31/1 711/9/1 712/2/1
f 713/31/1 714/32/1 715/10/1 716/9/1
f 717/32/1 718/33/1 719/13/1 720/10/1
f 721/33/1 722/34/1 723/15/1 724/13/1
f 725/34/1 726/35/1 727/17/1 728/15/1
f 729/35/1 730/36/1 731/19/1 732/17/1
f 733/36/1 734/37/1 735/21/1 736/19/1
f 737/38/1 738/39/1 739/24/1 740/23/1
f 741/39/1 742/40/1 743/1/1 744/24/1
f 745/40/1 746/41/1 747/2/1 748/1/1
f 749/41/1 750/31/1 751/9/1 752/2/1
f 753/31/1 754/32/1 755/10/1 756/9/1
f 757/32/1 758/33/1 759/13/1 760/10/1
f 761/33/1 762/34/1 763/15/1 764/13/1
f 765/34/1 766/35/1 767/17/1 768/15/1
f 769/1/1 770/2/1 771/3/1 772/4/1
f 773/2/1 774/9/1 775/12/1 776/3/1
f 777/9/1 778/10/1 779/11/1 780/12/1
f 781/10/1 782/13/1 783/14/1 784/11/1
f 785/13/1 786/15/1 787/16/1 788/14/1
f 789/15/1 790/17/1 791/18/1 792/16/1
f 793/17/1 794/19/1 795/20/1 796/18/1
f 797/19/1 798/21/1 799/22/1 800/20/1
f 801/23/1 802/24/1 803/25/1 804/26/1
f 805/24/1 806/1/1 807/4/1 808/25/1
f 809/1/1 810/2/1 811/3/1 812/4/1
f 813/2/1 814/9/1 815/12/1 816/3/1
f 817/9/1 818/10/1 819/11/1 820/12/1
f 821/10/1 822/13/1 823/14/1 824/11/1
f 825/13/1 826/15/1 827/16/1 828/14/1
f 829/15/1 830/17/1 831/18/1 832/16/1
f 833/40/1 834/41/1 835/2/1 836/1/1
f 837/41/1 838/31/1 839/9/1 840/2/1
f 841/31/1 842/32/1 843/10/1 844/9/1
f 845/32/1 846/33/1 847/13/1 848/10/1
f 849/33/1 850/34/1 851/15/1 852/13/1
f 853/34/1 854/35/1 855/17/1 856/15/1
f 857/35/1 858/36/1 859/19/1 860/17/1
f 861/36/1 862/37/1 863/21/1 864/19/1
f 865/38/1 866/39/1 867/24/1 868/23/1
f 869/39/1 870/40/1 871/1/1 872/24/1
f 873/40/1 874/41/1 875/2/1 876/1/1
f 877/41/1 878/31/1 879/9/1 880/2/1
f 881/31/1 882/32/1 883/10/1 884/9/1
f 885/32/1 886/33/1 887/13/1 888/10/1
f 889/33/1 890/34/1 891/15/1 892/13/1
f 893/34/1 894/35/1 895/17/1 896/15/1
f 897/1/1 898/2/1 899/3/1 900/4/1
f 901/2/1 902/9/1 903/12/1 904/3/1
f 905/9/1 906/10/1 907/11/1 908/12/1
f 909/10/1 910/13/1 911/14/1 912/11/1
f 913/13/1 914/15/1 915/16/1 916/14/1
f 917/15/1 918/17/1 919/18/1 920/16/1
f 921/17/1 922/19/1 923/20/1 924/18/1
f 925/19/1 926/21/1 927/22/1 928/20/1
f 929/23/1 930/24/1 931/25/1 932/26/1
f 933/24/1 934/1/1 935/4/1 936/25/1
f 937/1/1 938/2/1 939/3/1 940/4/1
f 941/2/1 942/9/1 943/12/1 944/3/1
f 945/9/1 946/10/1 947/11/1 948/12/1
f 949/10/1 950/13/1 951/14/1 952/11/1
f 953/13/1 954/15/1 955/16/1 956/14/1
f 957/15/1 958/17/1 959/18/1 960/16/1
f 961/40/1 962/41/1 963/2/1 964/1/1
f 965/41/1 966/31/1 967/9/1 968/2/1
f 969/31/1 970/32/1 971/10/1 972/9/1
f 973/32/1 974/33/1 975/13/1 976/10/1
f 977/33/1 978/34/1 979/15/1 980/13/1
f 981/34/1 982/35/1 983/17/1 984/15/1
f 985/35/1 986/36/1 987/19/1 988/17/1
f 989/36/1 990/37/1 991/21/1 992/19/1
f 993/38/1 994/39/1 995/24/1 996/23/1
f 997/39/1 998/40/1 999/1/1 1000/24/1
f 1001/40/1 1002/41/1 1003/2/1 1004/1/1
f 1005/41/1 1006/31/1 1007/9/1 1008/2/1
f 1009/31/1 1010/32/1 1011/10/1 1012/9/1
f 1013/32/1 1014/33/1 1015/13/1 1016/10/1
f 1017/33/1 1018/34/1 1019/15/1 1020/13/1
f 1021/34/1 1022/35/1 1023/17/1 1024/15/1

