# Tiled2Unity generated file. Do not modify by hand.
# Wavefront file for '2ScenarioPlataforma_mesh_0896.obj'

# Vertices (Count = 320)
v 0 -16 0
v -16 -16 0
v -16 0 0
v 0 0 0
v -16 -16 0
v -32 -16 0
v -32 0 0
v -16 0 0
v -32 -16 0
v -48 -16 0
v -48 0 0
v -32 0 0
v -48 -16 0
v -64 -16 0
v -64 0 0
v -48 0 0
v -64 -16 0
v -80 -16 0
v -80 0 0
v -64 0 0
v -80 -16 0
v -96 -16 0
v -96 0 0
v -80 0 0
v -96 -16 0
v -112 -16 0
v -112 0 0
v -96 0 0
v -112 -16 0
v -128 -16 0
v -128 0 0
v -112 0 0
v -128 -16 0
v -144 -16 0
v -144 0 0
v -128 0 0
v -144 -16 0
v -160 -16 0
v -160 0 0
v -144 0 0
v -160 -16 0
v -176 -16 0
v -176 0 0
v -160 0 0
v -176 -16 0
v -192 -16 0
v -192 0 0
v -176 0 0
v -192 -16 0
v -208 -16 0
v -208 0 0
v -192 0 0
v -208 -16 0
v -224 -16 0
v -224 0 0
v -208 0 0
v -224 -16 0
v -240 -16 0
v -240 0 0
v -224 0 0
v -240 -16 0
v -256 -16 0
v -256 0 0
v -240 0 0
v 0 -32 0
v -16 -32 0
v -16 -16 0
v 0 -16 0
v -16 -32 0
v -32 -32 0
v -32 -16 0
v -16 -16 0
v -32 -32 0
v -48 -32 0
v -48 -16 0
v -32 -16 0
v -48 -32 0
v -64 -32 0
v -64 -16 0
v -48 -16 0
v -64 -32 0
v -80 -32 0
v -80 -16 0
v -64 -16 0
v -80 -32 0
v -96 -32 0
v -96 -16 0
v -80 -16 0
v -96 -32 0
v -112 -32 0
v -112 -16 0
v -96 -16 0
v -112 -32 0
v -128 -32 0
v -128 -16 0
v -112 -16 0
v -128 -32 0
v -144 -32 0
v -144 -16 0
v -128 -16 0
v -144 -32 0
v -160 -32 0
v -160 -16 0
v -144 -16 0
v -160 -32 0
v -176 -32 0
v -176 -16 0
v -160 -16 0
v -176 -32 0
v -192 -32 0
v -192 -16 0
v -176 -16 0
v -192 -32 0
v -208 -32 0
v -208 -16 0
v -192 -16 0
v -208 -32 0
v -224 -32 0
v -224 -16 0
v -208 -16 0
v -224 -32 0
v -240 -32 0
v -240 -16 0
v -224 -16 0
v -240 -32 0
v -256 -32 0
v -256 -16 0
v -240 -16 0
v 0 -48 0
v -16 -48 0
v -16 -32 0
v 0 -32 0
v -16 -48 0
v -32 -48 0
v -32 -32 0
v -16 -32 0
v -32 -48 0
v -48 -48 0
v -48 -32 0
v -32 -32 0
v -48 -48 0
v -64 -48 0
v -64 -32 0
v -48 -32 0
v -64 -48 0
v -80 -48 0
v -80 -32 0
v -64 -32 0
v -80 -48 0
v -96 -48 0
v -96 -32 0
v -80 -32 0
v -96 -48 0
v -112 -48 0
v -112 -32 0
v -96 -32 0
v -112 -48 0
v -128 -48 0
v -128 -32 0
v -112 -32 0
v -128 -48 0
v -144 -48 0
v -144 -32 0
v -128 -32 0
v -144 -48 0
v -160 -48 0
v -160 -32 0
v -144 -32 0
v -160 -48 0
v -176 -48 0
v -176 -32 0
v -160 -32 0
v -176 -48 0
v -192 -48 0
v -192 -32 0
v -176 -32 0
v -192 -48 0
v -208 -48 0
v -208 -32 0
v -192 -32 0
v -208 -48 0
v -224 -48 0
v -224 -32 0
v -208 -32 0
v -224 -48 0
v -240 -48 0
v -240 -32 0
v -224 -32 0
v -240 -48 0
v -256 -48 0
v -256 -32 0
v -240 -32 0
v -48 -64 0
v -64 -64 0
v -64 -48 0
v -48 -48 0
v -64 -64 0
v -80 -64 0
v -80 -48 0
v -64 -48 0
v -80 -64 0
v -96 -64 0
v -96 -48 0
v -80 -48 0
v -96 -64 0
v -112 -64 0
v -112 -48 0
v -96 -48 0
v -112 -64 0
v -128 -64 0
v -128 -48 0
v -112 -48 0
v -128 -64 0
v -144 -64 0
v -144 -48 0
v -128 -48 0
v -144 -64 0
v -160 -64 0
v -160 -48 0
v -144 -48 0
v -160 -64 0
v -176 -64 0
v -176 -48 0
v -160 -48 0
v -176 -64 0
v -192 -64 0
v -192 -48 0
v -176 -48 0
v -192 -64 0
v -208 -64 0
v -208 -48 0
v -192 -48 0
v -208 -64 0
v -224 -64 0
v -224 -48 0
v -208 -48 0
v -224 -64 0
v -240 -64 0
v -240 -48 0
v -224 -48 0
v -240 -64 0
v -256 -64 0
v -256 -48 0
v -240 -48 0
v -176 -80 0
v -192 -80 0
v -192 -64 0
v -176 -64 0
v -192 -80 0
v -208 -80 0
v -208 -64 0
v -192 -64 0
v -208 -80 0
v -224 -80 0
v -224 -64 0
v -208 -64 0
v -224 -80 0
v -240 -80 0
v -240 -64 0
v -224 -64 0
v -240 -80 0
v -256 -80 0
v -256 -64 0
v -240 -64 0
v -176 -96 0
v -192 -96 0
v -192 -80 0
v -176 -80 0
v -192 -96 0
v -208 -96 0
v -208 -80 0
v -192 -80 0
v -208 -96 0
v -224 -96 0
v -224 -80 0
v -208 -80 0
v -224 -96 0
v -240 -96 0
v -240 -80 0
v -224 -80 0
v -240 -96 0
v -256 -96 0
v -256 -80 0
v -240 -80 0
v -176 -112 0
v -192 -112 0
v -192 -96 0
v -176 -96 0
v -192 -112 0
v -208 -112 0
v -208 -96 0
v -192 -96 0
v -208 -112 0
v -224 -112 0
v -224 -96 0
v -208 -96 0
v -224 -112 0
v -240 -112 0
v -240 -96 0
v -224 -96 0
v -240 -112 0
v -256 -112 0
v -256 -96 0
v -240 -96 0
v -192 -128 0
v -208 -128 0
v -208 -112 0
v -192 -112 0
v -208 -128 0
v -224 -128 0
v -224 -112 0
v -208 -112 0
v -224 -128 0
v -240 -128 0
v -240 -112 0
v -224 -112 0
v -240 -128 0
v -256 -128 0
v -256 -112 0
v -240 -112 0

# Texture cooridinates (Count = 70)
vt 0.6276596 0.625
vt 0.6382979 0.625
vt 0.6382979 0.6875
vt 0.6276596 0.6875
vt 0.606383 0.625
vt 0.6170213 0.625
vt 0.6170213 0.6875
vt 0.606383 0.6875
vt 0.6276596 0.8125
vt 0.6382979 0.8125
vt 0.6382979 0.875
vt 0.6276596 0.875
vt 0.606383 0.8125
vt 0.6170213 0.8125
vt 0.6170213 0.875
vt 0.606383 0.875
vt 0.4255319 0.6875
vt 0.4148936 0.6875
vt 0.4148936 0.625
vt 0.4255319 0.625
vt 0.4361702 0.6875
vt 0.4361702 0.625
vt 0.4042553 0.6875
vt 0.4042553 0.625
vt 0.606383 0.75
vt 0.6170213 0.75
vt 0.6276596 0.75
vt 0.6382979 0.75
vt 0.3829787 0.1875
vt 0.3723404 0.1875
vt 0.3723404 0.125
vt 0.3829787 0.125
vt 0.393617 0.1875
vt 0.393617 0.125
vt 0.3404255 0.1875
vt 0.3297872 0.1875
vt 0.3297872 0.125
vt 0.3404255 0.125
vt 0.4468085 0.6875
vt 0.4468085 0.625
vt 0.3510638 0.1875
vt 0.3510638 0.125
vt 0.680851 0.25
vt 0.6702127 0.25
vt 0.6702127 0.1875
vt 0.680851 0.1875
vt 0.6382979 0.25
vt 0.6276596 0.25
vt 0.6276596 0.1875
vt 0.6382979 0.1875
vt 0.7127659 0.25
vt 0.7021276 0.25
vt 0.7021276 0.1875
vt 0.7127659 0.1875
vt 0.6914893 0.25
vt 0.6914893 0.1875
vt 0.5531915 0.25
vt 0.5425532 0.25
vt 0.5425532 0.1875
vt 0.5531915 0.1875
vt 0.606383 0.25
vt 0.5957447 0.25
vt 0.5957447 0.1875
vt 0.606383 0.1875
vt 0.393617 0.6875
vt 0.393617 0.625
vt 0.5744681 0.25
vt 0.5638298 0.25
vt 0.5638298 0.1875
vt 0.5744681 0.1875

# Normal
vn 0 0 -1

# Mesh description
g 2ScenarioPlataforma_mesh_0896

# Faces
f 1/1/1 2/2/1 3/3/1 4/4/1
f 5/5/1 6/6/1 7/7/1 8/8/1
f 9/6/1 10/1/1 11/4/1 12/7/1
f 13/1/1 14/2/1 15/3/1 16/4/1
f 17/5/1 18/6/1 19/7/1 20/8/1
f 21/6/1 22/1/1 23/4/1 24/7/1
f 25/1/1 26/2/1 27/3/1 28/4/1
f 29/5/1 30/6/1 31/7/1 32/8/1
f 33/6/1 34/1/1 35/4/1 36/7/1
f 37/1/1 38/2/1 39/3/1 40/4/1
f 41/5/1 42/6/1 43/7/1 44/8/1
f 45/6/1 46/1/1 47/4/1 48/7/1
f 49/1/1 50/2/1 51/3/1 52/4/1
f 53/5/1 54/6/1 55/7/1 56/8/1
f 57/6/1 58/1/1 59/4/1 60/7/1
f 61/1/1 62/2/1 63/3/1 64/4/1
f 65/9/1 66/10/1 67/11/1 68/12/1
f 69/13/1 70/14/1 71/15/1 72/16/1
f 73/14/1 74/9/1 75/12/1 76/15/1
f 77/9/1 78/10/1 79/11/1 80/12/1
f 81/13/1 82/14/1 83/15/1 84/16/1
f 85/14/1 86/9/1 87/12/1 88/15/1
f 89/9/1 90/10/1 91/11/1 92/12/1
f 93/13/1 94/14/1 95/15/1 96/16/1
f 97/14/1 98/9/1 99/12/1 100/15/1
f 101/9/1 102/10/1 103/11/1 104/12/1
f 105/13/1 106/14/1 107/15/1 108/16/1
f 109/14/1 110/9/1 111/12/1 112/15/1
f 113/9/1 114/10/1 115/11/1 116/12/1
f 117/13/1 118/14/1 119/15/1 120/16/1
f 121/14/1 122/9/1 123/12/1 124/15/1
f 125/9/1 126/10/1 127/11/1 128/12/1
f 129/17/1 130/18/1 131/19/1 132/20/1
f 133/21/1 134/17/1 135/20/1 136/22/1
f 137/17/1 138/18/1 139/19/1 140/20/1
f 141/18/1 142/23/1 143/24/1 144/19/1
f 145/25/1 146/26/1 147/14/1 148/13/1
f 149/26/1 150/27/1 151/9/1 152/14/1
f 153/27/1 154/28/1 155/10/1 156/9/1
f 157/25/1 158/26/1 159/14/1 160/13/1
f 161/26/1 162/27/1 163/9/1 164/14/1
f 165/27/1 166/28/1 167/10/1 168/9/1
f 169/25/1 170/26/1 171/14/1 172/13/1
f 173/26/1 174/27/1 175/9/1 176/14/1
f 177/27/1 178/28/1 179/10/1 180/9/1
f 181/25/1 182/26/1 183/14/1 184/13/1
f 185/26/1 186/27/1 187/9/1 188/14/1
f 189/27/1 190/28/1 191/10/1 192/9/1
f 193/29/1 194/30/1 195/31/1 196/32/1
f 197/18/1 198/23/1 199/24/1 200/19/1
f 201/33/1 202/29/1 203/32/1 204/34/1
f 205/35/1 206/36/1 207/37/1 208/38/1
f 209/21/1 210/17/1 211/20/1 212/22/1
f 213/39/1 214/21/1 215/22/1 216/40/1
f 217/39/1 218/21/1 219/22/1 220/40/1
f 221/41/1 222/35/1 223/38/1 224/42/1
f 225/43/1 226/44/1 227/45/1 228/46/1
f 229/18/1 230/23/1 231/24/1 232/19/1
f 233/8/1 234/7/1 235/26/1 236/25/1
f 237/7/1 238/4/1 239/27/1 240/26/1
f 241/4/1 242/3/1 243/28/1 244/27/1
f 245/47/1 246/48/1 247/49/1 248/50/1
f 249/1/1 250/2/1 251/3/1 252/4/1
f 253/5/1 254/6/1 255/7/1 256/8/1
f 257/6/1 258/1/1 259/4/1 260/7/1
f 261/1/1 262/2/1 263/3/1 264/4/1
f 265/51/1 266/52/1 267/53/1 268/54/1
f 269/9/1 270/10/1 271/11/1 272/12/1
f 273/13/1 274/14/1 275/15/1 276/16/1
f 277/14/1 278/9/1 279/12/1 280/15/1
f 281/9/1 282/10/1 283/11/1 284/12/1
f 285/43/1 286/44/1 287/45/1 288/46/1
f 289/52/1 290/55/1 291/56/1 292/53/1
f 293/25/1 294/26/1 295/14/1 296/13/1
f 297/26/1 298/27/1 299/9/1 300/14/1
f 301/27/1 302/28/1 303/10/1 304/9/1
f 305/57/1 306/58/1 307/59/1 308/60/1
f 309/61/1 310/62/1 311/63/1 312/64/1
f 313/23/1 314/65/1 315/66/1 316/24/1
f 317/67/1 318/68/1 319/69/1 320/70/1

