# Tiled2Unity generated file. Do not modify by hand.
# Wavefront file for '2ScenarioPlataforma_mesh_0954.obj'

# Vertices (Count = 832)
v 0 -64 0
v -16 -64 0
v -16 -48 0
v 0 -48 0
v -16 -64 0
v -32 -64 0
v -32 -48 0
v -16 -48 0
v -32 -64 0
v -48 -64 0
v -48 -48 0
v -32 -48 0
v -48 -64 0
v -64 -64 0
v -64 -48 0
v -48 -48 0
v -64 -64 0
v -80 -64 0
v -80 -48 0
v -64 -48 0
v -80 -64 0
v -96 -64 0
v -96 -48 0
v -80 -48 0
v -96 -64 0
v -112 -64 0
v -112 -48 0
v -96 -48 0
v -112 -64 0
v -128 -64 0
v -128 -48 0
v -112 -48 0
v -128 -64 0
v -144 -64 0
v -144 -48 0
v -128 -48 0
v -144 -64 0
v -160 -64 0
v -160 -48 0
v -144 -48 0
v -160 -64 0
v -176 -64 0
v -176 -48 0
v -160 -48 0
v -176 -64 0
v -192 -64 0
v -192 -48 0
v -176 -48 0
v -192 -64 0
v -208 -64 0
v -208 -48 0
v -192 -48 0
v -208 -64 0
v -224 -64 0
v -224 -48 0
v -208 -48 0
v -224 -64 0
v -240 -64 0
v -240 -48 0
v -224 -48 0
v -240 -64 0
v -256 -64 0
v -256 -48 0
v -240 -48 0
v 0 -80 0
v -16 -80 0
v -16 -64 0
v 0 -64 0
v -16 -80 0
v -32 -80 0
v -32 -64 0
v -16 -64 0
v -32 -80 0
v -48 -80 0
v -48 -64 0
v -32 -64 0
v -48 -80 0
v -64 -80 0
v -64 -64 0
v -48 -64 0
v -64 -80 0
v -80 -80 0
v -80 -64 0
v -64 -64 0
v -80 -80 0
v -96 -80 0
v -96 -64 0
v -80 -64 0
v -96 -80 0
v -112 -80 0
v -112 -64 0
v -96 -64 0
v -112 -80 0
v -128 -80 0
v -128 -64 0
v -112 -64 0
v -128 -80 0
v -144 -80 0
v -144 -64 0
v -128 -64 0
v -144 -80 0
v -160 -80 0
v -160 -64 0
v -144 -64 0
v -160 -80 0
v -176 -80 0
v -176 -64 0
v -160 -64 0
v -176 -80 0
v -192 -80 0
v -192 -64 0
v -176 -64 0
v -192 -80 0
v -208 -80 0
v -208 -64 0
v -192 -64 0
v -208 -80 0
v -224 -80 0
v -224 -64 0
v -208 -64 0
v -224 -80 0
v -240 -80 0
v -240 -64 0
v -224 -64 0
v -240 -80 0
v -256 -80 0
v -256 -64 0
v -240 -64 0
v 0 -96 0
v -16 -96 0
v -16 -80 0
v 0 -80 0
v -16 -96 0
v -32 -96 0
v -32 -80 0
v -16 -80 0
v -32 -96 0
v -48 -96 0
v -48 -80 0
v -32 -80 0
v -48 -96 0
v -64 -96 0
v -64 -80 0
v -48 -80 0
v -64 -96 0
v -80 -96 0
v -80 -80 0
v -64 -80 0
v -80 -96 0
v -96 -96 0
v -96 -80 0
v -80 -80 0
v -96 -96 0
v -112 -96 0
v -112 -80 0
v -96 -80 0
v -112 -96 0
v -128 -96 0
v -128 -80 0
v -112 -80 0
v -128 -96 0
v -144 -96 0
v -144 -80 0
v -128 -80 0
v -144 -96 0
v -160 -96 0
v -160 -80 0
v -144 -80 0
v -160 -96 0
v -176 -96 0
v -176 -80 0
v -160 -80 0
v -176 -96 0
v -192 -96 0
v -192 -80 0
v -176 -80 0
v -192 -96 0
v -208 -96 0
v -208 -80 0
v -192 -80 0
v -208 -96 0
v -224 -96 0
v -224 -80 0
v -208 -80 0
v -224 -96 0
v -240 -96 0
v -240 -80 0
v -224 -80 0
v -240 -96 0
v -256 -96 0
v -256 -80 0
v -240 -80 0
v 0 -112 0
v -16 -112 0
v -16 -96 0
v 0 -96 0
v -16 -112 0
v -32 -112 0
v -32 -96 0
v -16 -96 0
v -32 -112 0
v -48 -112 0
v -48 -96 0
v -32 -96 0
v -48 -112 0
v -64 -112 0
v -64 -96 0
v -48 -96 0
v -64 -112 0
v -80 -112 0
v -80 -96 0
v -64 -96 0
v -80 -112 0
v -96 -112 0
v -96 -96 0
v -80 -96 0
v -96 -112 0
v -112 -112 0
v -112 -96 0
v -96 -96 0
v -112 -112 0
v -128 -112 0
v -128 -96 0
v -112 -96 0
v -128 -112 0
v -144 -112 0
v -144 -96 0
v -128 -96 0
v -144 -112 0
v -160 -112 0
v -160 -96 0
v -144 -96 0
v -160 -112 0
v -176 -112 0
v -176 -96 0
v -160 -96 0
v -176 -112 0
v -192 -112 0
v -192 -96 0
v -176 -96 0
v -192 -112 0
v -208 -112 0
v -208 -96 0
v -192 -96 0
v -208 -112 0
v -224 -112 0
v -224 -96 0
v -208 -96 0
v -224 -112 0
v -240 -112 0
v -240 -96 0
v -224 -96 0
v -240 -112 0
v -256 -112 0
v -256 -96 0
v -240 -96 0
v 0 -128 0
v -16 -128 0
v -16 -112 0
v 0 -112 0
v -16 -128 0
v -32 -128 0
v -32 -112 0
v -16 -112 0
v -32 -128 0
v -48 -128 0
v -48 -112 0
v -32 -112 0
v -48 -128 0
v -64 -128 0
v -64 -112 0
v -48 -112 0
v -64 -128 0
v -80 -128 0
v -80 -112 0
v -64 -112 0
v -80 -128 0
v -96 -128 0
v -96 -112 0
v -80 -112 0
v -96 -128 0
v -112 -128 0
v -112 -112 0
v -96 -112 0
v -112 -128 0
v -128 -128 0
v -128 -112 0
v -112 -112 0
v -128 -128 0
v -144 -128 0
v -144 -112 0
v -128 -112 0
v -144 -128 0
v -160 -128 0
v -160 -112 0
v -144 -112 0
v -160 -128 0
v -176 -128 0
v -176 -112 0
v -160 -112 0
v -176 -128 0
v -192 -128 0
v -192 -112 0
v -176 -112 0
v -192 -128 0
v -208 -128 0
v -208 -112 0
v -192 -112 0
v -208 -128 0
v -224 -128 0
v -224 -112 0
v -208 -112 0
v -224 -128 0
v -240 -128 0
v -240 -112 0
v -224 -112 0
v -240 -128 0
v -256 -128 0
v -256 -112 0
v -240 -112 0
v 0 -144 0
v -16 -144 0
v -16 -128 0
v 0 -128 0
v -16 -144 0
v -32 -144 0
v -32 -128 0
v -16 -128 0
v -32 -144 0
v -48 -144 0
v -48 -128 0
v -32 -128 0
v -48 -144 0
v -64 -144 0
v -64 -128 0
v -48 -128 0
v -64 -144 0
v -80 -144 0
v -80 -128 0
v -64 -128 0
v -80 -144 0
v -96 -144 0
v -96 -128 0
v -80 -128 0
v -96 -144 0
v -112 -144 0
v -112 -128 0
v -96 -128 0
v -112 -144 0
v -128 -144 0
v -128 -128 0
v -112 -128 0
v -128 -144 0
v -144 -144 0
v -144 -128 0
v -128 -128 0
v -144 -144 0
v -160 -144 0
v -160 -128 0
v -144 -128 0
v -160 -144 0
v -176 -144 0
v -176 -128 0
v -160 -128 0
v -176 -144 0
v -192 -144 0
v -192 -128 0
v -176 -128 0
v -192 -144 0
v -208 -144 0
v -208 -128 0
v -192 -128 0
v -208 -144 0
v -224 -144 0
v -224 -128 0
v -208 -128 0
v -224 -144 0
v -240 -144 0
v -240 -128 0
v -224 -128 0
v -240 -144 0
v -256 -144 0
v -256 -128 0
v -240 -128 0
v 0 -160 0
v -16 -160 0
v -16 -144 0
v 0 -144 0
v -16 -160 0
v -32 -160 0
v -32 -144 0
v -16 -144 0
v -32 -160 0
v -48 -160 0
v -48 -144 0
v -32 -144 0
v -48 -160 0
v -64 -160 0
v -64 -144 0
v -48 -144 0
v -64 -160 0
v -80 -160 0
v -80 -144 0
v -64 -144 0
v -80 -160 0
v -96 -160 0
v -96 -144 0
v -80 -144 0
v -96 -160 0
v -112 -160 0
v -112 -144 0
v -96 -144 0
v -112 -160 0
v -128 -160 0
v -128 -144 0
v -112 -144 0
v -128 -160 0
v -144 -160 0
v -144 -144 0
v -128 -144 0
v -144 -160 0
v -160 -160 0
v -160 -144 0
v -144 -144 0
v -160 -160 0
v -176 -160 0
v -176 -144 0
v -160 -144 0
v -176 -160 0
v -192 -160 0
v -192 -144 0
v -176 -144 0
v -192 -160 0
v -208 -160 0
v -208 -144 0
v -192 -144 0
v -208 -160 0
v -224 -160 0
v -224 -144 0
v -208 -144 0
v -224 -160 0
v -240 -160 0
v -240 -144 0
v -224 -144 0
v -240 -160 0
v -256 -160 0
v -256 -144 0
v -240 -144 0
v 0 -176 0
v -16 -176 0
v -16 -160 0
v 0 -160 0
v -16 -176 0
v -32 -176 0
v -32 -160 0
v -16 -160 0
v -32 -176 0
v -48 -176 0
v -48 -160 0
v -32 -160 0
v -48 -176 0
v -64 -176 0
v -64 -160 0
v -48 -160 0
v -64 -176 0
v -80 -176 0
v -80 -160 0
v -64 -160 0
v -80 -176 0
v -96 -176 0
v -96 -160 0
v -80 -160 0
v -96 -176 0
v -112 -176 0
v -112 -160 0
v -96 -160 0
v -112 -176 0
v -128 -176 0
v -128 -160 0
v -112 -160 0
v -128 -176 0
v -144 -176 0
v -144 -160 0
v -128 -160 0
v -144 -176 0
v -160 -176 0
v -160 -160 0
v -144 -160 0
v -160 -176 0
v -176 -176 0
v -176 -160 0
v -160 -160 0
v -176 -176 0
v -192 -176 0
v -192 -160 0
v -176 -160 0
v -192 -176 0
v -208 -176 0
v -208 -160 0
v -192 -160 0
v -208 -176 0
v -224 -176 0
v -224 -160 0
v -208 -160 0
v -224 -176 0
v -240 -176 0
v -240 -160 0
v -224 -160 0
v -240 -176 0
v -256 -176 0
v -256 -160 0
v -240 -160 0
v 0 -192 0
v -16 -192 0
v -16 -176 0
v 0 -176 0
v -16 -192 0
v -32 -192 0
v -32 -176 0
v -16 -176 0
v -32 -192 0
v -48 -192 0
v -48 -176 0
v -32 -176 0
v -48 -192 0
v -64 -192 0
v -64 -176 0
v -48 -176 0
v -64 -192 0
v -80 -192 0
v -80 -176 0
v -64 -176 0
v -80 -192 0
v -96 -192 0
v -96 -176 0
v -80 -176 0
v -96 -192 0
v -112 -192 0
v -112 -176 0
v -96 -176 0
v -112 -192 0
v -128 -192 0
v -128 -176 0
v -112 -176 0
v -128 -192 0
v -144 -192 0
v -144 -176 0
v -128 -176 0
v -144 -192 0
v -160 -192 0
v -160 -176 0
v -144 -176 0
v -160 -192 0
v -176 -192 0
v -176 -176 0
v -160 -176 0
v -176 -192 0
v -192 -192 0
v -192 -176 0
v -176 -176 0
v -192 -192 0
v -208 -192 0
v -208 -176 0
v -192 -176 0
v -208 -192 0
v -224 -192 0
v -224 -176 0
v -208 -176 0
v -224 -192 0
v -240 -192 0
v -240 -176 0
v -224 -176 0
v -240 -192 0
v -256 -192 0
v -256 -176 0
v -240 -176 0
v 0 -208 0
v -16 -208 0
v -16 -192 0
v 0 -192 0
v -16 -208 0
v -32 -208 0
v -32 -192 0
v -16 -192 0
v -32 -208 0
v -48 -208 0
v -48 -192 0
v -32 -192 0
v -48 -208 0
v -64 -208 0
v -64 -192 0
v -48 -192 0
v -64 -208 0
v -80 -208 0
v -80 -192 0
v -64 -192 0
v -80 -208 0
v -96 -208 0
v -96 -192 0
v -80 -192 0
v -96 -208 0
v -112 -208 0
v -112 -192 0
v -96 -192 0
v -112 -208 0
v -128 -208 0
v -128 -192 0
v -112 -192 0
v -128 -208 0
v -144 -208 0
v -144 -192 0
v -128 -192 0
v -144 -208 0
v -160 -208 0
v -160 -192 0
v -144 -192 0
v -160 -208 0
v -176 -208 0
v -176 -192 0
v -160 -192 0
v -176 -208 0
v -192 -208 0
v -192 -192 0
v -176 -192 0
v -192 -208 0
v -208 -208 0
v -208 -192 0
v -192 -192 0
v -208 -208 0
v -224 -208 0
v -224 -192 0
v -208 -192 0
v -224 -208 0
v -240 -208 0
v -240 -192 0
v -224 -192 0
v -240 -208 0
v -256 -208 0
v -256 -192 0
v -240 -192 0
v 0 -224 0
v -16 -224 0
v -16 -208 0
v 0 -208 0
v -16 -224 0
v -32 -224 0
v -32 -208 0
v -16 -208 0
v -32 -224 0
v -48 -224 0
v -48 -208 0
v -32 -208 0
v -48 -224 0
v -64 -224 0
v -64 -208 0
v -48 -208 0
v -64 -224 0
v -80 -224 0
v -80 -208 0
v -64 -208 0
v -80 -224 0
v -96 -224 0
v -96 -208 0
v -80 -208 0
v -96 -224 0
v -112 -224 0
v -112 -208 0
v -96 -208 0
v -112 -224 0
v -128 -224 0
v -128 -208 0
v -112 -208 0
v -128 -224 0
v -144 -224 0
v -144 -208 0
v -128 -208 0
v -144 -224 0
v -160 -224 0
v -160 -208 0
v -144 -208 0
v -160 -224 0
v -176 -224 0
v -176 -208 0
v -160 -208 0
v -176 -224 0
v -192 -224 0
v -192 -208 0
v -176 -208 0
v -192 -224 0
v -208 -224 0
v -208 -208 0
v -192 -208 0
v -208 -224 0
v -224 -224 0
v -224 -208 0
v -208 -208 0
v -224 -224 0
v -240 -224 0
v -240 -208 0
v -224 -208 0
v -240 -224 0
v -256 -224 0
v -256 -208 0
v -240 -208 0
v 0 -240 0
v -16 -240 0
v -16 -224 0
v 0 -224 0
v -16 -240 0
v -32 -240 0
v -32 -224 0
v -16 -224 0
v -32 -240 0
v -48 -240 0
v -48 -224 0
v -32 -224 0
v -48 -240 0
v -64 -240 0
v -64 -224 0
v -48 -224 0
v -64 -240 0
v -80 -240 0
v -80 -224 0
v -64 -224 0
v -80 -240 0
v -96 -240 0
v -96 -224 0
v -80 -224 0
v -96 -240 0
v -112 -240 0
v -112 -224 0
v -96 -224 0
v -112 -240 0
v -128 -240 0
v -128 -224 0
v -112 -224 0
v -128 -240 0
v -144 -240 0
v -144 -224 0
v -128 -224 0
v -144 -240 0
v -160 -240 0
v -160 -224 0
v -144 -224 0
v -160 -240 0
v -176 -240 0
v -176 -224 0
v -160 -224 0
v -176 -240 0
v -192 -240 0
v -192 -224 0
v -176 -224 0
v -192 -240 0
v -208 -240 0
v -208 -224 0
v -192 -224 0
v -208 -240 0
v -224 -240 0
v -224 -224 0
v -208 -224 0
v -224 -240 0
v -240 -240 0
v -240 -224 0
v -224 -224 0
v -240 -240 0
v -256 -240 0
v -256 -224 0
v -240 -224 0
v 0 -256 0
v -16 -256 0
v -16 -240 0
v 0 -240 0
v -16 -256 0
v -32 -256 0
v -32 -240 0
v -16 -240 0
v -32 -256 0
v -48 -256 0
v -48 -240 0
v -32 -240 0
v -48 -256 0
v -64 -256 0
v -64 -240 0
v -48 -240 0
v -64 -256 0
v -80 -256 0
v -80 -240 0
v -64 -240 0
v -80 -256 0
v -96 -256 0
v -96 -240 0
v -80 -240 0
v -96 -256 0
v -112 -256 0
v -112 -240 0
v -96 -240 0
v -112 -256 0
v -128 -256 0
v -128 -240 0
v -112 -240 0
v -128 -256 0
v -144 -256 0
v -144 -240 0
v -128 -240 0
v -144 -256 0
v -160 -256 0
v -160 -240 0
v -144 -240 0
v -160 -256 0
v -176 -256 0
v -176 -240 0
v -160 -240 0
v -176 -256 0
v -192 -256 0
v -192 -240 0
v -176 -240 0
v -192 -256 0
v -208 -256 0
v -208 -240 0
v -192 -240 0
v -208 -256 0
v -224 -256 0
v -224 -240 0
v -208 -240 0
v -224 -256 0
v -240 -256 0
v -240 -240 0
v -224 -240 0
v -240 -256 0
v -256 -256 0
v -256 -240 0
v -240 -240 0

# Texture cooridinates (Count = 62)
vt 0.4255319 0.625
vt 0.4361702 0.625
vt 0.4361702 0.6875
vt 0.4255319 0.6875
vt 0.6276596 0.1875
vt 0.6382979 0.1875
vt 0.6382979 0.25
vt 0.6276596 0.25
vt 0.5851064 0.1875
vt 0.5957447 0.1875
vt 0.5957447 0.25
vt 0.5851064 0.25
vt 0.680851 0.1875
vt 0.6914893 0.1875
vt 0.6914893 0.25
vt 0.680851 0.25
vt 0.7021276 0.1875
vt 0.7021276 0.25
vt 0.4042553 0.625
vt 0.4148936 0.625
vt 0.4148936 0.6875
vt 0.4042553 0.6875
vt 0.6489362 0.1875
vt 0.6595744 0.1875
vt 0.6595744 0.25
vt 0.6489362 0.25
vt 0.5425532 0.1875
vt 0.5531915 0.1875
vt 0.5531915 0.25
vt 0.5425532 0.25
vt 0.606383 0.1875
vt 0.6170213 0.1875
vt 0.6170213 0.25
vt 0.606383 0.25
vt 0.3723404 0.625
vt 0.3829787 0.625
vt 0.3829787 0.6875
vt 0.3723404 0.6875
vt 0.6702127 0.1875
vt 0.6702127 0.25
vt 0.606383 0.8125
vt 0.6170213 0.8125
vt 0.6170213 0.875
vt 0.606383 0.875
vt 0.606383 0.75
vt 0.6170213 0.75
vt 0.606383 0.6875
vt 0.6170213 0.6875
vt 0.6276596 0.8125
vt 0.6276596 0.875
vt 0.6382979 0.8125
vt 0.6382979 0.875
vt 0.6276596 0.75
vt 0.6382979 0.75
vt 0.6276596 0.6875
vt 0.6382979 0.6875
vt 0.6276596 0.625
vt 0.6382979 0.625
vt 0.606383 0.625
vt 0.6170213 0.625
vt 0.7127659 0.1875
vt 0.7127659 0.25

# Normal
vn 0 0 -1

# Mesh description
g 2ScenarioPlataforma_mesh_0954

# Faces
f 1/1/1 2/2/1 3/3/1 4/4/1
f 5/5/1 6/6/1 7/7/1 8/8/1
f 9/9/1 10/10/1 11/11/1 12/12/1
f 13/13/1 14/14/1 15/15/1 16/16/1
f 17/14/1 18/17/1 19/18/1 20/15/1
f 21/19/1 22/20/1 23/21/1 24/22/1
f 25/14/1 26/17/1 27/18/1 28/15/1
f 29/23/1 30/24/1 31/25/1 32/26/1
f 33/27/1 34/28/1 35/29/1 36/30/1
f 37/13/1 38/14/1 39/15/1 40/16/1
f 41/31/1 42/32/1 43/33/1 44/34/1
f 45/35/1 46/36/1 47/37/1 48/38/1
f 49/10/1 50/31/1 51/34/1 52/11/1
f 53/39/1 54/13/1 55/16/1 56/40/1
f 57/20/1 58/1/1 59/4/1 60/21/1
f 61/9/1 62/10/1 63/11/1 64/12/1
f 65/41/1 66/42/1 67/43/1 68/44/1
f 69/41/1 70/42/1 71/43/1 72/44/1
f 73/41/1 74/42/1 75/43/1 76/44/1
f 77/41/1 78/42/1 79/43/1 80/44/1
f 81/41/1 82/42/1 83/43/1 84/44/1
f 85/41/1 86/42/1 87/43/1 88/44/1
f 89/41/1 90/42/1 91/43/1 92/44/1
f 93/41/1 94/42/1 95/43/1 96/44/1
f 97/41/1 98/42/1 99/43/1 100/44/1
f 101/41/1 102/42/1 103/43/1 104/44/1
f 105/41/1 106/42/1 107/43/1 108/44/1
f 109/41/1 110/42/1 111/43/1 112/44/1
f 113/41/1 114/42/1 115/43/1 116/44/1
f 117/41/1 118/42/1 119/43/1 120/44/1
f 121/41/1 122/42/1 123/43/1 124/44/1
f 125/41/1 126/42/1 127/43/1 128/44/1
f 129/45/1 130/46/1 131/42/1 132/41/1
f 133/45/1 134/46/1 135/42/1 136/41/1
f 137/45/1 138/46/1 139/42/1 140/41/1
f 141/45/1 142/46/1 143/42/1 144/41/1
f 145/45/1 146/46/1 147/42/1 148/41/1
f 149/45/1 150/46/1 151/42/1 152/41/1
f 153/45/1 154/46/1 155/42/1 156/41/1
f 157/45/1 158/46/1 159/42/1 160/41/1
f 161/45/1 162/46/1 163/42/1 164/41/1
f 165/45/1 166/46/1 167/42/1 168/41/1
f 169/45/1 170/46/1 171/42/1 172/41/1
f 173/45/1 174/46/1 175/42/1 176/41/1
f 177/45/1 178/46/1 179/42/1 180/41/1
f 181/45/1 182/46/1 183/42/1 184/41/1
f 185/45/1 186/46/1 187/42/1 188/41/1
f 189/45/1 190/46/1 191/42/1 192/41/1
f 193/47/1 194/48/1 195/46/1 196/45/1
f 197/47/1 198/48/1 199/46/1 200/45/1
f 201/47/1 202/48/1 203/46/1 204/45/1
f 205/47/1 206/48/1 207/46/1 208/45/1
f 209/47/1 210/48/1 211/46/1 212/45/1
f 213/47/1 214/48/1 215/46/1 216/45/1
f 217/47/1 218/48/1 219/46/1 220/45/1
f 221/47/1 222/48/1 223/46/1 224/45/1
f 225/47/1 226/48/1 227/46/1 228/45/1
f 229/47/1 230/48/1 231/46/1 232/45/1
f 233/47/1 234/48/1 235/46/1 236/45/1
f 237/47/1 238/48/1 239/46/1 240/45/1
f 241/47/1 242/48/1 243/46/1 244/45/1
f 245/47/1 246/48/1 247/46/1 248/45/1
f 249/47/1 250/48/1 251/46/1 252/45/1
f 253/47/1 254/48/1 255/46/1 256/45/1
f 257/41/1 258/42/1 259/43/1 260/44/1
f 261/42/1 262/49/1 263/50/1 264/43/1
f 265/49/1 266/51/1 267/52/1 268/50/1
f 269/49/1 270/51/1 271/52/1 272/50/1
f 273/49/1 274/51/1 275/52/1 276/50/1
f 277/49/1 278/51/1 279/52/1 280/50/1
f 281/49/1 282/51/1 283/52/1 284/50/1
f 285/49/1 286/51/1 287/52/1 288/50/1
f 289/49/1 290/51/1 291/52/1 292/50/1
f 293/49/1 294/51/1 295/52/1 296/50/1
f 297/49/1 298/51/1 299/52/1 300/50/1
f 301/49/1 302/51/1 303/52/1 304/50/1
f 305/49/1 306/51/1 307/52/1 308/50/1
f 309/49/1 310/51/1 311/52/1 312/50/1
f 313/49/1 314/51/1 315/52/1 316/50/1
f 317/49/1 318/51/1 319/52/1 320/50/1
f 321/41/1 322/42/1 323/43/1 324/44/1
f 325/42/1 326/49/1 327/50/1 328/43/1
f 329/49/1 330/51/1 331/52/1 332/50/1
f 333/53/1 334/54/1 335/51/1 336/49/1
f 337/53/1 338/54/1 339/51/1 340/49/1
f 341/53/1 342/54/1 343/51/1 344/49/1
f 345/53/1 346/54/1 347/51/1 348/49/1
f 349/53/1 350/54/1 351/51/1 352/49/1
f 353/53/1 354/54/1 355/51/1 356/49/1
f 357/53/1 358/54/1 359/51/1 360/49/1
f 361/53/1 362/54/1 363/51/1 364/49/1
f 365/53/1 366/54/1 367/51/1 368/49/1
f 369/41/1 370/42/1 371/43/1 372/44/1
f 373/42/1 374/49/1 375/50/1 376/43/1
f 377/49/1 378/51/1 379/52/1 380/50/1
f 381/49/1 382/51/1 383/52/1 384/50/1
f 385/41/1 386/42/1 387/43/1 388/44/1
f 389/41/1 390/42/1 391/43/1 392/44/1
f 393/42/1 394/49/1 395/50/1 396/43/1
f 397/49/1 398/51/1 399/52/1 400/50/1
f 401/41/1 402/42/1 403/43/1 404/44/1
f 405/42/1 406/49/1 407/50/1 408/43/1
f 409/49/1 410/51/1 411/52/1 412/50/1
f 413/49/1 414/51/1 415/52/1 416/50/1
f 417/49/1 418/51/1 419/52/1 420/50/1
f 421/49/1 422/51/1 423/52/1 424/50/1
f 425/49/1 426/51/1 427/52/1 428/50/1
f 429/41/1 430/42/1 431/43/1 432/44/1
f 433/41/1 434/42/1 435/43/1 436/44/1
f 437/42/1 438/49/1 439/50/1 440/43/1
f 441/49/1 442/51/1 443/52/1 444/50/1
f 445/53/1 446/54/1 447/51/1 448/49/1
f 449/45/1 450/46/1 451/42/1 452/41/1
f 453/41/1 454/42/1 455/43/1 456/44/1
f 457/42/1 458/49/1 459/50/1 460/43/1
f 461/49/1 462/51/1 463/52/1 464/50/1
f 465/41/1 466/42/1 467/43/1 468/44/1
f 469/42/1 470/49/1 471/50/1 472/43/1
f 473/49/1 474/51/1 475/52/1 476/50/1
f 477/53/1 478/54/1 479/51/1 480/49/1
f 481/53/1 482/54/1 483/51/1 484/49/1
f 485/53/1 486/54/1 487/51/1 488/49/1
f 489/49/1 490/51/1 491/52/1 492/50/1
f 493/45/1 494/46/1 495/42/1 496/41/1
f 497/45/1 498/46/1 499/42/1 500/41/1
f 501/46/1 502/53/1 503/49/1 504/42/1
f 505/53/1 506/54/1 507/51/1 508/49/1
f 509/55/1 510/56/1 511/54/1 512/53/1
f 513/47/1 514/48/1 515/46/1 516/45/1
f 517/41/1 518/42/1 519/43/1 520/44/1
f 521/42/1 522/49/1 523/50/1 524/43/1
f 525/49/1 526/51/1 527/52/1 528/50/1
f 529/41/1 530/42/1 531/43/1 532/44/1
f 533/42/1 534/49/1 535/50/1 536/43/1
f 537/49/1 538/51/1 539/52/1 540/50/1
f 541/55/1 542/56/1 543/54/1 544/53/1
f 545/55/1 546/56/1 547/54/1 548/53/1
f 549/55/1 550/56/1 551/54/1 552/53/1
f 553/53/1 554/54/1 555/51/1 556/49/1
f 557/47/1 558/48/1 559/46/1 560/45/1
f 561/47/1 562/48/1 563/46/1 564/45/1
f 565/48/1 566/55/1 567/53/1 568/46/1
f 569/55/1 570/56/1 571/54/1 572/53/1
f 573/57/1 574/58/1 575/56/1 576/55/1
f 577/59/1 578/60/1 579/48/1 580/47/1
f 581/41/1 582/42/1 583/43/1 584/44/1
f 585/42/1 586/49/1 587/50/1 588/43/1
f 589/49/1 590/51/1 591/52/1 592/50/1
f 593/41/1 594/42/1 595/43/1 596/44/1
f 597/42/1 598/49/1 599/50/1 600/43/1
f 601/49/1 602/51/1 603/52/1 604/50/1
f 605/57/1 606/58/1 607/56/1 608/55/1
f 609/57/1 610/58/1 611/56/1 612/55/1
f 613/57/1 614/58/1 615/56/1 616/55/1
f 617/55/1 618/56/1 619/54/1 620/53/1
f 621/59/1 622/60/1 623/48/1 624/47/1
f 625/59/1 626/60/1 627/48/1 628/47/1
f 629/60/1 630/57/1 631/55/1 632/48/1
f 633/57/1 634/58/1 635/56/1 636/55/1
f 637/49/1 638/51/1 639/52/1 640/50/1
f 641/18/1 642/17/1 643/61/1 644/62/1
f 645/41/1 646/42/1 647/43/1 648/44/1
f 649/41/1 650/42/1 651/43/1 652/44/1
f 653/42/1 654/49/1 655/50/1 656/43/1
f 657/41/1 658/42/1 659/43/1 660/44/1
f 661/41/1 662/42/1 663/43/1 664/44/1
f 665/42/1 666/49/1 667/50/1 668/43/1
f 669/49/1 670/51/1 671/52/1 672/50/1
f 673/59/1 674/60/1 675/48/1 676/47/1
f 677/60/1 678/57/1 679/55/1 680/48/1
f 681/57/1 682/58/1 683/56/1 684/55/1
f 685/59/1 686/60/1 687/48/1 688/47/1
f 689/60/1 690/57/1 691/55/1 692/48/1
f 693/57/1 694/58/1 695/56/1 696/55/1
f 697/55/1 698/56/1 699/54/1 700/53/1
f 701/53/1 702/54/1 703/51/1 704/49/1
f 705/25/1 706/24/1 707/39/1 708/40/1
f 709/45/1 710/46/1 711/42/1 712/41/1
f 713/45/1 714/46/1 715/42/1 716/41/1
f 717/41/1 718/42/1 719/43/1 720/44/1
f 721/45/1 722/46/1 723/42/1 724/41/1
f 725/45/1 726/46/1 727/42/1 728/41/1
f 729/41/1 730/42/1 731/43/1 732/44/1
f 733/41/1 734/42/1 735/43/1 736/44/1
f 737/41/1 738/42/1 739/43/1 740/44/1
f 741/41/1 742/42/1 743/43/1 744/44/1
f 745/41/1 746/42/1 747/43/1 748/44/1
f 749/59/1 750/60/1 751/48/1 752/47/1
f 753/60/1 754/57/1 755/55/1 756/48/1
f 757/57/1 758/58/1 759/56/1 760/55/1
f 761/57/1 762/58/1 763/56/1 764/55/1
f 765/55/1 766/56/1 767/54/1 768/53/1
f 769/25/1 770/24/1 771/39/1 772/40/1
f 773/47/1 774/48/1 775/46/1 776/45/1
f 777/47/1 778/48/1 779/46/1 780/45/1
f 781/45/1 782/46/1 783/42/1 784/41/1
f 785/47/1 786/48/1 787/46/1 788/45/1
f 789/47/1 790/48/1 791/46/1 792/45/1
f 793/45/1 794/46/1 795/42/1 796/41/1
f 797/45/1 798/46/1 799/42/1 800/41/1
f 801/45/1 802/46/1 803/42/1 804/41/1
f 805/45/1 806/46/1 807/42/1 808/41/1
f 809/45/1 810/46/1 811/42/1 812/41/1
f 813/45/1 814/46/1 815/42/1 816/41/1
f 817/59/1 818/60/1 819/48/1 820/47/1
f 821/60/1 822/57/1 823/55/1 824/48/1
f 825/57/1 826/58/1 827/56/1 828/55/1
f 829/57/1 830/58/1 831/56/1 832/55/1

