# Tiled2Unity generated file. Do not modify by hand.
# Wavefront file for '2ScenarioPlataforma_mesh_0894.obj'

# Vertices (Count = 536)
v 0 -16 0
v -16 -16 0
v -16 0 0
v 0 0 0
v -16 -16 0
v -32 -16 0
v -32 0 0
v -16 0 0
v -32 -16 0
v -48 -16 0
v -48 0 0
v -32 0 0
v -48 -16 0
v -64 -16 0
v -64 0 0
v -48 0 0
v -64 -16 0
v -80 -16 0
v -80 0 0
v -64 0 0
v -80 -16 0
v -96 -16 0
v -96 0 0
v -80 0 0
v -96 -16 0
v -112 -16 0
v -112 0 0
v -96 0 0
v -112 -16 0
v -128 -16 0
v -128 0 0
v -112 0 0
v -128 -16 0
v -144 -16 0
v -144 0 0
v -128 0 0
v -144 -16 0
v -160 -16 0
v -160 0 0
v -144 0 0
v -160 -16 0
v -176 -16 0
v -176 0 0
v -160 0 0
v -176 -16 0
v -192 -16 0
v -192 0 0
v -176 0 0
v -192 -16 0
v -208 -16 0
v -208 0 0
v -192 0 0
v -208 -16 0
v -224 -16 0
v -224 0 0
v -208 0 0
v -224 -16 0
v -240 -16 0
v -240 0 0
v -224 0 0
v -240 -16 0
v -256 -16 0
v -256 0 0
v -240 0 0
v 0 -32 0
v -16 -32 0
v -16 -16 0
v 0 -16 0
v -16 -32 0
v -32 -32 0
v -32 -16 0
v -16 -16 0
v -32 -32 0
v -48 -32 0
v -48 -16 0
v -32 -16 0
v -48 -32 0
v -64 -32 0
v -64 -16 0
v -48 -16 0
v -64 -32 0
v -80 -32 0
v -80 -16 0
v -64 -16 0
v -80 -32 0
v -96 -32 0
v -96 -16 0
v -80 -16 0
v -96 -32 0
v -112 -32 0
v -112 -16 0
v -96 -16 0
v -112 -32 0
v -128 -32 0
v -128 -16 0
v -112 -16 0
v -128 -32 0
v -144 -32 0
v -144 -16 0
v -128 -16 0
v -144 -32 0
v -160 -32 0
v -160 -16 0
v -144 -16 0
v -160 -32 0
v -176 -32 0
v -176 -16 0
v -160 -16 0
v -176 -32 0
v -192 -32 0
v -192 -16 0
v -176 -16 0
v -192 -32 0
v -208 -32 0
v -208 -16 0
v -192 -16 0
v -208 -32 0
v -224 -32 0
v -224 -16 0
v -208 -16 0
v -224 -32 0
v -240 -32 0
v -240 -16 0
v -224 -16 0
v -240 -32 0
v -256 -32 0
v -256 -16 0
v -240 -16 0
v 0 -48 0
v -16 -48 0
v -16 -32 0
v 0 -32 0
v -16 -48 0
v -32 -48 0
v -32 -32 0
v -16 -32 0
v -32 -48 0
v -48 -48 0
v -48 -32 0
v -32 -32 0
v -48 -48 0
v -64 -48 0
v -64 -32 0
v -48 -32 0
v -64 -48 0
v -80 -48 0
v -80 -32 0
v -64 -32 0
v -80 -48 0
v -96 -48 0
v -96 -32 0
v -80 -32 0
v -96 -48 0
v -112 -48 0
v -112 -32 0
v -96 -32 0
v -112 -48 0
v -128 -48 0
v -128 -32 0
v -112 -32 0
v -128 -48 0
v -144 -48 0
v -144 -32 0
v -128 -32 0
v -144 -48 0
v -160 -48 0
v -160 -32 0
v -144 -32 0
v -160 -48 0
v -176 -48 0
v -176 -32 0
v -160 -32 0
v -176 -48 0
v -192 -48 0
v -192 -32 0
v -176 -32 0
v -192 -48 0
v -208 -48 0
v -208 -32 0
v -192 -32 0
v -208 -48 0
v -224 -48 0
v -224 -32 0
v -208 -32 0
v -224 -48 0
v -240 -48 0
v -240 -32 0
v -224 -32 0
v -240 -48 0
v -256 -48 0
v -256 -32 0
v -240 -32 0
v -80 -64 0
v -96 -64 0
v -96 -48 0
v -80 -48 0
v -96 -64 0
v -112 -64 0
v -112 -48 0
v -96 -48 0
v -112 -64 0
v -128 -64 0
v -128 -48 0
v -112 -48 0
v -128 -64 0
v -144 -64 0
v -144 -48 0
v -128 -48 0
v -144 -64 0
v -160 -64 0
v -160 -48 0
v -144 -48 0
v -160 -64 0
v -176 -64 0
v -176 -48 0
v -160 -48 0
v -176 -64 0
v -192 -64 0
v -192 -48 0
v -176 -48 0
v -192 -64 0
v -208 -64 0
v -208 -48 0
v -192 -48 0
v -208 -64 0
v -224 -64 0
v -224 -48 0
v -208 -48 0
v -224 -64 0
v -240 -64 0
v -240 -48 0
v -224 -48 0
v -240 -64 0
v -256 -64 0
v -256 -48 0
v -240 -48 0
v -96 -80 0
v -112 -80 0
v -112 -64 0
v -96 -64 0
v -112 -80 0
v -128 -80 0
v -128 -64 0
v -112 -64 0
v -128 -80 0
v -144 -80 0
v -144 -64 0
v -128 -64 0
v -144 -80 0
v -160 -80 0
v -160 -64 0
v -144 -64 0
v -160 -80 0
v -176 -80 0
v -176 -64 0
v -160 -64 0
v -176 -80 0
v -192 -80 0
v -192 -64 0
v -176 -64 0
v -192 -80 0
v -208 -80 0
v -208 -64 0
v -192 -64 0
v -208 -80 0
v -224 -80 0
v -224 -64 0
v -208 -64 0
v -224 -80 0
v -240 -80 0
v -240 -64 0
v -224 -64 0
v -240 -80 0
v -256 -80 0
v -256 -64 0
v -240 -64 0
v -112 -96 0
v -128 -96 0
v -128 -80 0
v -112 -80 0
v -128 -96 0
v -144 -96 0
v -144 -80 0
v -128 -80 0
v -144 -96 0
v -160 -96 0
v -160 -80 0
v -144 -80 0
v -160 -96 0
v -176 -96 0
v -176 -80 0
v -160 -80 0
v -176 -96 0
v -192 -96 0
v -192 -80 0
v -176 -80 0
v -192 -96 0
v -208 -96 0
v -208 -80 0
v -192 -80 0
v -208 -96 0
v -224 -96 0
v -224 -80 0
v -208 -80 0
v -224 -96 0
v -240 -96 0
v -240 -80 0
v -224 -80 0
v -240 -96 0
v -256 -96 0
v -256 -80 0
v -240 -80 0
v -128 -112 0
v -144 -112 0
v -144 -96 0
v -128 -96 0
v -144 -112 0
v -160 -112 0
v -160 -96 0
v -144 -96 0
v -160 -112 0
v -176 -112 0
v -176 -96 0
v -160 -96 0
v -176 -112 0
v -192 -112 0
v -192 -96 0
v -176 -96 0
v -192 -112 0
v -208 -112 0
v -208 -96 0
v -192 -96 0
v -208 -112 0
v -224 -112 0
v -224 -96 0
v -208 -96 0
v -224 -112 0
v -240 -112 0
v -240 -96 0
v -224 -96 0
v -240 -112 0
v -256 -112 0
v -256 -96 0
v -240 -96 0
v -144 -128 0
v -160 -128 0
v -160 -112 0
v -144 -112 0
v -160 -128 0
v -176 -128 0
v -176 -112 0
v -160 -112 0
v -176 -128 0
v -192 -128 0
v -192 -112 0
v -176 -112 0
v -192 -128 0
v -208 -128 0
v -208 -112 0
v -192 -112 0
v -208 -128 0
v -224 -128 0
v -224 -112 0
v -208 -112 0
v -224 -128 0
v -240 -128 0
v -240 -112 0
v -224 -112 0
v -240 -128 0
v -256 -128 0
v -256 -112 0
v -240 -112 0
v -144 -144 0
v -160 -144 0
v -160 -128 0
v -144 -128 0
v -160 -144 0
v -176 -144 0
v -176 -128 0
v -160 -128 0
v -176 -144 0
v -192 -144 0
v -192 -128 0
v -176 -128 0
v -192 -144 0
v -208 -144 0
v -208 -128 0
v -192 -128 0
v -208 -144 0
v -224 -144 0
v -224 -128 0
v -208 -128 0
v -224 -144 0
v -240 -144 0
v -240 -128 0
v -224 -128 0
v -240 -144 0
v -256 -144 0
v -256 -128 0
v -240 -128 0
v -160 -160 0
v -176 -160 0
v -176 -144 0
v -160 -144 0
v -176 -160 0
v -192 -160 0
v -192 -144 0
v -176 -144 0
v -192 -160 0
v -208 -160 0
v -208 -144 0
v -192 -144 0
v -208 -160 0
v -224 -160 0
v -224 -144 0
v -208 -144 0
v -224 -160 0
v -240 -160 0
v -240 -144 0
v -224 -144 0
v -240 -160 0
v -256 -160 0
v -256 -144 0
v -240 -144 0
v -176 -176 0
v -192 -176 0
v -192 -160 0
v -176 -160 0
v -192 -176 0
v -208 -176 0
v -208 -160 0
v -192 -160 0
v -208 -176 0
v -224 -176 0
v -224 -160 0
v -208 -160 0
v -224 -176 0
v -240 -176 0
v -240 -160 0
v -224 -160 0
v -240 -176 0
v -256 -176 0
v -256 -160 0
v -240 -160 0
v -176 -192 0
v -192 -192 0
v -192 -176 0
v -176 -176 0
v -192 -192 0
v -208 -192 0
v -208 -176 0
v -192 -176 0
v -208 -192 0
v -224 -192 0
v -224 -176 0
v -208 -176 0
v -224 -192 0
v -240 -192 0
v -240 -176 0
v -224 -176 0
v -240 -192 0
v -256 -192 0
v -256 -176 0
v -240 -176 0
v -176 -208 0
v -192 -208 0
v -192 -192 0
v -176 -192 0
v -192 -208 0
v -208 -208 0
v -208 -192 0
v -192 -192 0
v -208 -208 0
v -224 -208 0
v -224 -192 0
v -208 -192 0
v -224 -208 0
v -240 -208 0
v -240 -192 0
v -224 -192 0
v -240 -208 0
v -256 -208 0
v -256 -192 0
v -240 -192 0
v -176 -224 0
v -192 -224 0
v -192 -208 0
v -176 -208 0
v -192 -224 0
v -208 -224 0
v -208 -208 0
v -192 -208 0
v -208 -224 0
v -224 -224 0
v -224 -208 0
v -208 -208 0
v -224 -224 0
v -240 -224 0
v -240 -208 0
v -224 -208 0
v -240 -224 0
v -256 -224 0
v -256 -208 0
v -240 -208 0
v -192 -240 0
v -208 -240 0
v -208 -224 0
v -192 -224 0
v -208 -240 0
v -224 -240 0
v -224 -224 0
v -208 -224 0
v -224 -240 0
v -240 -240 0
v -240 -224 0
v -224 -224 0
v -240 -240 0
v -256 -240 0
v -256 -224 0
v -240 -224 0
v -192 -256 0
v -208 -256 0
v -208 -240 0
v -192 -240 0
v -208 -256 0
v -224 -256 0
v -224 -240 0
v -208 -240 0
v -224 -256 0
v -240 -256 0
v -240 -240 0
v -224 -240 0
v -240 -256 0
v -256 -256 0
v -256 -240 0
v -240 -240 0

# Texture cooridinates (Count = 56)
vt 0.606383 0.625
vt 0.6170213 0.625
vt 0.6170213 0.6875
vt 0.606383 0.6875
vt 0.6276596 0.625
vt 0.6276596 0.6875
vt 0.6382979 0.625
vt 0.6382979 0.6875
vt 0.606383 0.8125
vt 0.6170213 0.8125
vt 0.6170213 0.875
vt 0.606383 0.875
vt 0.6276596 0.8125
vt 0.6276596 0.875
vt 0.6382979 0.8125
vt 0.6382979 0.875
vt 0.3297872 0.1875
vt 0.3191489 0.1875
vt 0.3191489 0.125
vt 0.3297872 0.125
vt 0.4361702 0.6875
vt 0.4255319 0.6875
vt 0.4255319 0.625
vt 0.4361702 0.625
vt 0.3404255 0.1875
vt 0.3404255 0.125
vt 0.3723404 0.1875
vt 0.3617021 0.1875
vt 0.3617021 0.125
vt 0.3723404 0.125
vt 0.6276596 0.75
vt 0.6382979 0.75
vt 0.606383 0.75
vt 0.6170213 0.75
vt 0.393617 0.1875
vt 0.3829787 0.1875
vt 0.3829787 0.125
vt 0.393617 0.125
vt 0.393617 0.6875
vt 0.3829787 0.6875
vt 0.3829787 0.625
vt 0.393617 0.625
vt 0.3085106 0.1875
vt 0.3085106 0.125
vt 0.3510638 0.1875
vt 0.3510638 0.125
vt 0.2978723 0.1875
vt 0.2978723 0.125
vt 0.4148936 0.6875
vt 0.4148936 0.625
vt 0.3723404 0.6875
vt 0.3723404 0.625
vt 0.4042553 0.6875
vt 0.4042553 0.625
vt 0.4468085 0.6875
vt 0.4468085 0.625

# Normal
vn 0 0 -1

# Mesh description
g 2ScenarioPlataforma_mesh_0894

# Faces
f 1/1/1 2/2/1 3/3/1 4/4/1
f 5/2/1 6/5/1 7/6/1 8/3/1
f 9/5/1 10/7/1 11/8/1 12/6/1
f 13/1/1 14/2/1 15/3/1 16/4/1
f 17/2/1 18/5/1 19/6/1 20/3/1
f 21/5/1 22/7/1 23/8/1 24/6/1
f 25/1/1 26/2/1 27/3/1 28/4/1
f 29/2/1 30/5/1 31/6/1 32/3/1
f 33/5/1 34/7/1 35/8/1 36/6/1
f 37/1/1 38/2/1 39/3/1 40/4/1
f 41/2/1 42/5/1 43/6/1 44/3/1
f 45/5/1 46/7/1 47/8/1 48/6/1
f 49/1/1 50/2/1 51/3/1 52/4/1
f 53/2/1 54/5/1 55/6/1 56/3/1
f 57/5/1 58/7/1 59/8/1 60/6/1
f 61/1/1 62/2/1 63/3/1 64/4/1
f 65/9/1 66/10/1 67/11/1 68/12/1
f 69/10/1 70/13/1 71/14/1 72/11/1
f 73/13/1 74/15/1 75/16/1 76/14/1
f 77/9/1 78/10/1 79/11/1 80/12/1
f 81/10/1 82/13/1 83/14/1 84/11/1
f 85/13/1 86/15/1 87/16/1 88/14/1
f 89/9/1 90/10/1 91/11/1 92/12/1
f 93/10/1 94/13/1 95/14/1 96/11/1
f 97/13/1 98/15/1 99/16/1 100/14/1
f 101/9/1 102/10/1 103/11/1 104/12/1
f 105/10/1 106/13/1 107/14/1 108/11/1
f 109/13/1 110/15/1 111/16/1 112/14/1
f 113/9/1 114/10/1 115/11/1 116/12/1
f 117/10/1 118/13/1 119/14/1 120/11/1
f 121/13/1 122/15/1 123/16/1 124/14/1
f 125/9/1 126/10/1 127/11/1 128/12/1
f 129/17/1 130/18/1 131/19/1 132/20/1
f 133/21/1 134/22/1 135/23/1 136/24/1
f 137/25/1 138/17/1 139/20/1 140/26/1
f 141/27/1 142/28/1 143/29/1 144/30/1
f 145/21/1 146/22/1 147/23/1 148/24/1
f 149/31/1 150/32/1 151/15/1 152/13/1
f 153/33/1 154/34/1 155/10/1 156/9/1
f 157/34/1 158/31/1 159/13/1 160/10/1
f 161/31/1 162/32/1 163/15/1 164/13/1
f 165/33/1 166/34/1 167/10/1 168/9/1
f 169/34/1 170/31/1 171/13/1 172/10/1
f 173/31/1 174/32/1 175/15/1 176/13/1
f 177/33/1 178/34/1 179/10/1 180/9/1
f 181/34/1 182/31/1 183/13/1 184/10/1
f 185/31/1 186/32/1 187/15/1 188/13/1
f 189/33/1 190/34/1 191/10/1 192/9/1
f 193/35/1 194/36/1 195/37/1 196/38/1
f 197/39/1 198/40/1 199/41/1 200/42/1
f 201/3/1 202/6/1 203/31/1 204/34/1
f 205/6/1 206/8/1 207/32/1 208/31/1
f 209/4/1 210/3/1 211/34/1 212/33/1
f 213/3/1 214/6/1 215/31/1 216/34/1
f 217/6/1 218/8/1 219/32/1 220/31/1
f 221/4/1 222/3/1 223/34/1 224/33/1
f 225/3/1 226/6/1 227/31/1 228/34/1
f 229/6/1 230/8/1 231/32/1 232/31/1
f 233/4/1 234/3/1 235/34/1 236/33/1
f 237/21/1 238/22/1 239/23/1 240/24/1
f 241/18/1 242/43/1 243/44/1 244/19/1
f 245/5/1 246/7/1 247/8/1 248/6/1
f 249/1/1 250/2/1 251/3/1 252/4/1
f 253/2/1 254/5/1 255/6/1 256/3/1
f 257/5/1 258/7/1 259/8/1 260/6/1
f 261/1/1 262/2/1 263/3/1 264/4/1
f 265/2/1 266/5/1 267/6/1 268/3/1
f 269/5/1 270/7/1 271/8/1 272/6/1
f 273/1/1 274/2/1 275/3/1 276/4/1
f 277/28/1 278/45/1 279/46/1 280/29/1
f 281/36/1 282/27/1 283/30/1 284/37/1
f 285/9/1 286/10/1 287/11/1 288/12/1
f 289/10/1 290/13/1 291/14/1 292/11/1
f 293/13/1 294/15/1 295/16/1 296/14/1
f 297/9/1 298/10/1 299/11/1 300/12/1
f 301/10/1 302/13/1 303/14/1 304/11/1
f 305/13/1 306/15/1 307/16/1 308/14/1
f 309/9/1 310/10/1 311/11/1 312/12/1
f 313/43/1 314/47/1 315/48/1 316/44/1
f 317/36/1 318/27/1 319/30/1 320/37/1
f 321/34/1 322/31/1 323/13/1 324/10/1
f 325/31/1 326/32/1 327/15/1 328/13/1
f 329/33/1 330/34/1 331/10/1 332/9/1
f 333/34/1 334/31/1 335/13/1 336/10/1
f 337/31/1 338/32/1 339/15/1 340/13/1
f 341/33/1 342/34/1 343/10/1 344/9/1
f 345/22/1 346/49/1 347/50/1 348/23/1
f 349/3/1 350/6/1 351/31/1 352/34/1
f 353/6/1 354/8/1 355/32/1 356/31/1
f 357/4/1 358/3/1 359/34/1 360/33/1
f 361/3/1 362/6/1 363/31/1 364/34/1
f 365/6/1 366/8/1 367/32/1 368/31/1
f 369/4/1 370/3/1 371/34/1 372/33/1
f 373/28/1 374/45/1 375/46/1 376/29/1
f 377/36/1 378/27/1 379/30/1 380/37/1
f 381/5/1 382/7/1 383/8/1 384/6/1
f 385/1/1 386/2/1 387/3/1 388/4/1
f 389/2/1 390/5/1 391/6/1 392/3/1
f 393/5/1 394/7/1 395/8/1 396/6/1
f 397/1/1 398/2/1 399/3/1 400/4/1
f 401/40/1 402/51/1 403/52/1 404/41/1
f 405/45/1 406/25/1 407/26/1 408/46/1
f 409/9/1 410/10/1 411/11/1 412/12/1
f 413/10/1 414/13/1 415/14/1 416/11/1
f 417/13/1 418/15/1 419/16/1 420/14/1
f 421/9/1 422/10/1 423/11/1 424/12/1
f 425/49/1 426/53/1 427/54/1 428/50/1
f 429/33/1 430/34/1 431/10/1 432/9/1
f 433/34/1 434/31/1 435/13/1 436/10/1
f 437/31/1 438/32/1 439/15/1 440/13/1
f 441/33/1 442/34/1 443/10/1 444/9/1
f 445/40/1 446/51/1 447/52/1 448/41/1
f 449/4/1 450/3/1 451/34/1 452/33/1
f 453/3/1 454/6/1 455/31/1 456/34/1
f 457/6/1 458/8/1 459/32/1 460/31/1
f 461/4/1 462/3/1 463/34/1 464/33/1
f 465/55/1 466/21/1 467/24/1 468/56/1
f 469/1/1 470/2/1 471/3/1 472/4/1
f 473/2/1 474/5/1 475/6/1 476/3/1
f 477/5/1 478/7/1 479/8/1 480/6/1
f 481/1/1 482/2/1 483/3/1 484/4/1
f 485/25/1 486/17/1 487/20/1 488/26/1
f 489/36/1 490/27/1 491/30/1 492/37/1
f 493/10/1 494/13/1 495/14/1 496/11/1
f 497/13/1 498/15/1 499/16/1 500/14/1
f 501/9/1 502/10/1 503/11/1 504/12/1
f 505/39/1 506/40/1 507/41/1 508/42/1
f 509/34/1 510/31/1 511/13/1 512/10/1
f 513/31/1 514/32/1 515/15/1 516/13/1
f 517/33/1 518/34/1 519/10/1 520/9/1
f 521/22/1 522/49/1 523/50/1 524/23/1
f 525/39/1 526/40/1 527/41/1 528/42/1
f 529/25/1 530/17/1 531/20/1 532/26/1
f 533/4/1 534/3/1 535/34/1 536/33/1

