# Tiled2Unity generated file. Do not modify by hand.
# Wavefront file for '2ScenarioPlataforma_mesh_0364.obj'

# Vertices (Count = 1024)
v 0 -16 0
v -16 -16 0
v -16 0 0
v 0 0 0
v -16 -16 0
v -32 -16 0
v -32 0 0
v -16 0 0
v -32 -16 0
v -48 -16 0
v -48 0 0
v -32 0 0
v -48 -16 0
v -64 -16 0
v -64 0 0
v -48 0 0
v -64 -16 0
v -80 -16 0
v -80 0 0
v -64 0 0
v -80 -16 0
v -96 -16 0
v -96 0 0
v -80 0 0
v -96 -16 0
v -112 -16 0
v -112 0 0
v -96 0 0
v -112 -16 0
v -128 -16 0
v -128 0 0
v -112 0 0
v -128 -16 0
v -144 -16 0
v -144 0 0
v -128 0 0
v -144 -16 0
v -160 -16 0
v -160 0 0
v -144 0 0
v -160 -16 0
v -176 -16 0
v -176 0 0
v -160 0 0
v -176 -16 0
v -192 -16 0
v -192 0 0
v -176 0 0
v -192 -16 0
v -208 -16 0
v -208 0 0
v -192 0 0
v -208 -16 0
v -224 -16 0
v -224 0 0
v -208 0 0
v -224 -16 0
v -240 -16 0
v -240 0 0
v -224 0 0
v -240 -16 0
v -256 -16 0
v -256 0 0
v -240 0 0
v 0 -32 0
v -16 -32 0
v -16 -16 0
v 0 -16 0
v -16 -32 0
v -32 -32 0
v -32 -16 0
v -16 -16 0
v -32 -32 0
v -48 -32 0
v -48 -16 0
v -32 -16 0
v -48 -32 0
v -64 -32 0
v -64 -16 0
v -48 -16 0
v -64 -32 0
v -80 -32 0
v -80 -16 0
v -64 -16 0
v -80 -32 0
v -96 -32 0
v -96 -16 0
v -80 -16 0
v -96 -32 0
v -112 -32 0
v -112 -16 0
v -96 -16 0
v -112 -32 0
v -128 -32 0
v -128 -16 0
v -112 -16 0
v -128 -32 0
v -144 -32 0
v -144 -16 0
v -128 -16 0
v -144 -32 0
v -160 -32 0
v -160 -16 0
v -144 -16 0
v -160 -32 0
v -176 -32 0
v -176 -16 0
v -160 -16 0
v -176 -32 0
v -192 -32 0
v -192 -16 0
v -176 -16 0
v -192 -32 0
v -208 -32 0
v -208 -16 0
v -192 -16 0
v -208 -32 0
v -224 -32 0
v -224 -16 0
v -208 -16 0
v -224 -32 0
v -240 -32 0
v -240 -16 0
v -224 -16 0
v -240 -32 0
v -256 -32 0
v -256 -16 0
v -240 -16 0
v 0 -48 0
v -16 -48 0
v -16 -32 0
v 0 -32 0
v -16 -48 0
v -32 -48 0
v -32 -32 0
v -16 -32 0
v -32 -48 0
v -48 -48 0
v -48 -32 0
v -32 -32 0
v -48 -48 0
v -64 -48 0
v -64 -32 0
v -48 -32 0
v -64 -48 0
v -80 -48 0
v -80 -32 0
v -64 -32 0
v -80 -48 0
v -96 -48 0
v -96 -32 0
v -80 -32 0
v -96 -48 0
v -112 -48 0
v -112 -32 0
v -96 -32 0
v -112 -48 0
v -128 -48 0
v -128 -32 0
v -112 -32 0
v -128 -48 0
v -144 -48 0
v -144 -32 0
v -128 -32 0
v -144 -48 0
v -160 -48 0
v -160 -32 0
v -144 -32 0
v -160 -48 0
v -176 -48 0
v -176 -32 0
v -160 -32 0
v -176 -48 0
v -192 -48 0
v -192 -32 0
v -176 -32 0
v -192 -48 0
v -208 -48 0
v -208 -32 0
v -192 -32 0
v -208 -48 0
v -224 -48 0
v -224 -32 0
v -208 -32 0
v -224 -48 0
v -240 -48 0
v -240 -32 0
v -224 -32 0
v -240 -48 0
v -256 -48 0
v -256 -32 0
v -240 -32 0
v 0 -64 0
v -16 -64 0
v -16 -48 0
v 0 -48 0
v -16 -64 0
v -32 -64 0
v -32 -48 0
v -16 -48 0
v -32 -64 0
v -48 -64 0
v -48 -48 0
v -32 -48 0
v -48 -64 0
v -64 -64 0
v -64 -48 0
v -48 -48 0
v -64 -64 0
v -80 -64 0
v -80 -48 0
v -64 -48 0
v -80 -64 0
v -96 -64 0
v -96 -48 0
v -80 -48 0
v -96 -64 0
v -112 -64 0
v -112 -48 0
v -96 -48 0
v -112 -64 0
v -128 -64 0
v -128 -48 0
v -112 -48 0
v -128 -64 0
v -144 -64 0
v -144 -48 0
v -128 -48 0
v -144 -64 0
v -160 -64 0
v -160 -48 0
v -144 -48 0
v -160 -64 0
v -176 -64 0
v -176 -48 0
v -160 -48 0
v -176 -64 0
v -192 -64 0
v -192 -48 0
v -176 -48 0
v -192 -64 0
v -208 -64 0
v -208 -48 0
v -192 -48 0
v -208 -64 0
v -224 -64 0
v -224 -48 0
v -208 -48 0
v -224 -64 0
v -240 -64 0
v -240 -48 0
v -224 -48 0
v -240 -64 0
v -256 -64 0
v -256 -48 0
v -240 -48 0
v 0 -80 0
v -16 -80 0
v -16 -64 0
v 0 -64 0
v -16 -80 0
v -32 -80 0
v -32 -64 0
v -16 -64 0
v -32 -80 0
v -48 -80 0
v -48 -64 0
v -32 -64 0
v -48 -80 0
v -64 -80 0
v -64 -64 0
v -48 -64 0
v -64 -80 0
v -80 -80 0
v -80 -64 0
v -64 -64 0
v -80 -80 0
v -96 -80 0
v -96 -64 0
v -80 -64 0
v -96 -80 0
v -112 -80 0
v -112 -64 0
v -96 -64 0
v -112 -80 0
v -128 -80 0
v -128 -64 0
v -112 -64 0
v -128 -80 0
v -144 -80 0
v -144 -64 0
v -128 -64 0
v -144 -80 0
v -160 -80 0
v -160 -64 0
v -144 -64 0
v -160 -80 0
v -176 -80 0
v -176 -64 0
v -160 -64 0
v -176 -80 0
v -192 -80 0
v -192 -64 0
v -176 -64 0
v -192 -80 0
v -208 -80 0
v -208 -64 0
v -192 -64 0
v -208 -80 0
v -224 -80 0
v -224 -64 0
v -208 -64 0
v -224 -80 0
v -240 -80 0
v -240 -64 0
v -224 -64 0
v -240 -80 0
v -256 -80 0
v -256 -64 0
v -240 -64 0
v 0 -96 0
v -16 -96 0
v -16 -80 0
v 0 -80 0
v -16 -96 0
v -32 -96 0
v -32 -80 0
v -16 -80 0
v -32 -96 0
v -48 -96 0
v -48 -80 0
v -32 -80 0
v -48 -96 0
v -64 -96 0
v -64 -80 0
v -48 -80 0
v -64 -96 0
v -80 -96 0
v -80 -80 0
v -64 -80 0
v -80 -96 0
v -96 -96 0
v -96 -80 0
v -80 -80 0
v -96 -96 0
v -112 -96 0
v -112 -80 0
v -96 -80 0
v -112 -96 0
v -128 -96 0
v -128 -80 0
v -112 -80 0
v -128 -96 0
v -144 -96 0
v -144 -80 0
v -128 -80 0
v -144 -96 0
v -160 -96 0
v -160 -80 0
v -144 -80 0
v -160 -96 0
v -176 -96 0
v -176 -80 0
v -160 -80 0
v -176 -96 0
v -192 -96 0
v -192 -80 0
v -176 -80 0
v -192 -96 0
v -208 -96 0
v -208 -80 0
v -192 -80 0
v -208 -96 0
v -224 -96 0
v -224 -80 0
v -208 -80 0
v -224 -96 0
v -240 -96 0
v -240 -80 0
v -224 -80 0
v -240 -96 0
v -256 -96 0
v -256 -80 0
v -240 -80 0
v 0 -112 0
v -16 -112 0
v -16 -96 0
v 0 -96 0
v -16 -112 0
v -32 -112 0
v -32 -96 0
v -16 -96 0
v -32 -112 0
v -48 -112 0
v -48 -96 0
v -32 -96 0
v -48 -112 0
v -64 -112 0
v -64 -96 0
v -48 -96 0
v -64 -112 0
v -80 -112 0
v -80 -96 0
v -64 -96 0
v -80 -112 0
v -96 -112 0
v -96 -96 0
v -80 -96 0
v -96 -112 0
v -112 -112 0
v -112 -96 0
v -96 -96 0
v -112 -112 0
v -128 -112 0
v -128 -96 0
v -112 -96 0
v -128 -112 0
v -144 -112 0
v -144 -96 0
v -128 -96 0
v -144 -112 0
v -160 -112 0
v -160 -96 0
v -144 -96 0
v -160 -112 0
v -176 -112 0
v -176 -96 0
v -160 -96 0
v -176 -112 0
v -192 -112 0
v -192 -96 0
v -176 -96 0
v -192 -112 0
v -208 -112 0
v -208 -96 0
v -192 -96 0
v -208 -112 0
v -224 -112 0
v -224 -96 0
v -208 -96 0
v -224 -112 0
v -240 -112 0
v -240 -96 0
v -224 -96 0
v -240 -112 0
v -256 -112 0
v -256 -96 0
v -240 -96 0
v 0 -128 0
v -16 -128 0
v -16 -112 0
v 0 -112 0
v -16 -128 0
v -32 -128 0
v -32 -112 0
v -16 -112 0
v -32 -128 0
v -48 -128 0
v -48 -112 0
v -32 -112 0
v -48 -128 0
v -64 -128 0
v -64 -112 0
v -48 -112 0
v -64 -128 0
v -80 -128 0
v -80 -112 0
v -64 -112 0
v -80 -128 0
v -96 -128 0
v -96 -112 0
v -80 -112 0
v -96 -128 0
v -112 -128 0
v -112 -112 0
v -96 -112 0
v -112 -128 0
v -128 -128 0
v -128 -112 0
v -112 -112 0
v -128 -128 0
v -144 -128 0
v -144 -112 0
v -128 -112 0
v -144 -128 0
v -160 -128 0
v -160 -112 0
v -144 -112 0
v -160 -128 0
v -176 -128 0
v -176 -112 0
v -160 -112 0
v -176 -128 0
v -192 -128 0
v -192 -112 0
v -176 -112 0
v -192 -128 0
v -208 -128 0
v -208 -112 0
v -192 -112 0
v -208 -128 0
v -224 -128 0
v -224 -112 0
v -208 -112 0
v -224 -128 0
v -240 -128 0
v -240 -112 0
v -224 -112 0
v -240 -128 0
v -256 -128 0
v -256 -112 0
v -240 -112 0
v 0 -144 0
v -16 -144 0
v -16 -128 0
v 0 -128 0
v -16 -144 0
v -32 -144 0
v -32 -128 0
v -16 -128 0
v -32 -144 0
v -48 -144 0
v -48 -128 0
v -32 -128 0
v -48 -144 0
v -64 -144 0
v -64 -128 0
v -48 -128 0
v -64 -144 0
v -80 -144 0
v -80 -128 0
v -64 -128 0
v -80 -144 0
v -96 -144 0
v -96 -128 0
v -80 -128 0
v -96 -144 0
v -112 -144 0
v -112 -128 0
v -96 -128 0
v -112 -144 0
v -128 -144 0
v -128 -128 0
v -112 -128 0
v -128 -144 0
v -144 -144 0
v -144 -128 0
v -128 -128 0
v -144 -144 0
v -160 -144 0
v -160 -128 0
v -144 -128 0
v -160 -144 0
v -176 -144 0
v -176 -128 0
v -160 -128 0
v -176 -144 0
v -192 -144 0
v -192 -128 0
v -176 -128 0
v -192 -144 0
v -208 -144 0
v -208 -128 0
v -192 -128 0
v -208 -144 0
v -224 -144 0
v -224 -128 0
v -208 -128 0
v -224 -144 0
v -240 -144 0
v -240 -128 0
v -224 -128 0
v -240 -144 0
v -256 -144 0
v -256 -128 0
v -240 -128 0
v 0 -160 0
v -16 -160 0
v -16 -144 0
v 0 -144 0
v -16 -160 0
v -32 -160 0
v -32 -144 0
v -16 -144 0
v -32 -160 0
v -48 -160 0
v -48 -144 0
v -32 -144 0
v -48 -160 0
v -64 -160 0
v -64 -144 0
v -48 -144 0
v -64 -160 0
v -80 -160 0
v -80 -144 0
v -64 -144 0
v -80 -160 0
v -96 -160 0
v -96 -144 0
v -80 -144 0
v -96 -160 0
v -112 -160 0
v -112 -144 0
v -96 -144 0
v -112 -160 0
v -128 -160 0
v -128 -144 0
v -112 -144 0
v -128 -160 0
v -144 -160 0
v -144 -144 0
v -128 -144 0
v -144 -160 0
v -160 -160 0
v -160 -144 0
v -144 -144 0
v -160 -160 0
v -176 -160 0
v -176 -144 0
v -160 -144 0
v -176 -160 0
v -192 -160 0
v -192 -144 0
v -176 -144 0
v -192 -160 0
v -208 -160 0
v -208 -144 0
v -192 -144 0
v -208 -160 0
v -224 -160 0
v -224 -144 0
v -208 -144 0
v -224 -160 0
v -240 -160 0
v -240 -144 0
v -224 -144 0
v -240 -160 0
v -256 -160 0
v -256 -144 0
v -240 -144 0
v 0 -176 0
v -16 -176 0
v -16 -160 0
v 0 -160 0
v -16 -176 0
v -32 -176 0
v -32 -160 0
v -16 -160 0
v -32 -176 0
v -48 -176 0
v -48 -160 0
v -32 -160 0
v -48 -176 0
v -64 -176 0
v -64 -160 0
v -48 -160 0
v -64 -176 0
v -80 -176 0
v -80 -160 0
v -64 -160 0
v -80 -176 0
v -96 -176 0
v -96 -160 0
v -80 -160 0
v -96 -176 0
v -112 -176 0
v -112 -160 0
v -96 -160 0
v -112 -176 0
v -128 -176 0
v -128 -160 0
v -112 -160 0
v -128 -176 0
v -144 -176 0
v -144 -160 0
v -128 -160 0
v -144 -176 0
v -160 -176 0
v -160 -160 0
v -144 -160 0
v -160 -176 0
v -176 -176 0
v -176 -160 0
v -160 -160 0
v -176 -176 0
v -192 -176 0
v -192 -160 0
v -176 -160 0
v -192 -176 0
v -208 -176 0
v -208 -160 0
v -192 -160 0
v -208 -176 0
v -224 -176 0
v -224 -160 0
v -208 -160 0
v -224 -176 0
v -240 -176 0
v -240 -160 0
v -224 -160 0
v -240 -176 0
v -256 -176 0
v -256 -160 0
v -240 -160 0
v 0 -192 0
v -16 -192 0
v -16 -176 0
v 0 -176 0
v -16 -192 0
v -32 -192 0
v -32 -176 0
v -16 -176 0
v -32 -192 0
v -48 -192 0
v -48 -176 0
v -32 -176 0
v -48 -192 0
v -64 -192 0
v -64 -176 0
v -48 -176 0
v -64 -192 0
v -80 -192 0
v -80 -176 0
v -64 -176 0
v -80 -192 0
v -96 -192 0
v -96 -176 0
v -80 -176 0
v -96 -192 0
v -112 -192 0
v -112 -176 0
v -96 -176 0
v -112 -192 0
v -128 -192 0
v -128 -176 0
v -112 -176 0
v -128 -192 0
v -144 -192 0
v -144 -176 0
v -128 -176 0
v -144 -192 0
v -160 -192 0
v -160 -176 0
v -144 -176 0
v -160 -192 0
v -176 -192 0
v -176 -176 0
v -160 -176 0
v -176 -192 0
v -192 -192 0
v -192 -176 0
v -176 -176 0
v -192 -192 0
v -208 -192 0
v -208 -176 0
v -192 -176 0
v -208 -192 0
v -224 -192 0
v -224 -176 0
v -208 -176 0
v -224 -192 0
v -240 -192 0
v -240 -176 0
v -224 -176 0
v -240 -192 0
v -256 -192 0
v -256 -176 0
v -240 -176 0
v 0 -208 0
v -16 -208 0
v -16 -192 0
v 0 -192 0
v -16 -208 0
v -32 -208 0
v -32 -192 0
v -16 -192 0
v -32 -208 0
v -48 -208 0
v -48 -192 0
v -32 -192 0
v -48 -208 0
v -64 -208 0
v -64 -192 0
v -48 -192 0
v -64 -208 0
v -80 -208 0
v -80 -192 0
v -64 -192 0
v -80 -208 0
v -96 -208 0
v -96 -192 0
v -80 -192 0
v -96 -208 0
v -112 -208 0
v -112 -192 0
v -96 -192 0
v -112 -208 0
v -128 -208 0
v -128 -192 0
v -112 -192 0
v -128 -208 0
v -144 -208 0
v -144 -192 0
v -128 -192 0
v -144 -208 0
v -160 -208 0
v -160 -192 0
v -144 -192 0
v -160 -208 0
v -176 -208 0
v -176 -192 0
v -160 -192 0
v -176 -208 0
v -192 -208 0
v -192 -192 0
v -176 -192 0
v -192 -208 0
v -208 -208 0
v -208 -192 0
v -192 -192 0
v -208 -208 0
v -224 -208 0
v -224 -192 0
v -208 -192 0
v -224 -208 0
v -240 -208 0
v -240 -192 0
v -224 -192 0
v -240 -208 0
v -256 -208 0
v -256 -192 0
v -240 -192 0
v 0 -224 0
v -16 -224 0
v -16 -208 0
v 0 -208 0
v -16 -224 0
v -32 -224 0
v -32 -208 0
v -16 -208 0
v -32 -224 0
v -48 -224 0
v -48 -208 0
v -32 -208 0
v -48 -224 0
v -64 -224 0
v -64 -208 0
v -48 -208 0
v -64 -224 0
v -80 -224 0
v -80 -208 0
v -64 -208 0
v -80 -224 0
v -96 -224 0
v -96 -208 0
v -80 -208 0
v -96 -224 0
v -112 -224 0
v -112 -208 0
v -96 -208 0
v -112 -224 0
v -128 -224 0
v -128 -208 0
v -112 -208 0
v -128 -224 0
v -144 -224 0
v -144 -208 0
v -128 -208 0
v -144 -224 0
v -160 -224 0
v -160 -208 0
v -144 -208 0
v -160 -224 0
v -176 -224 0
v -176 -208 0
v -160 -208 0
v -176 -224 0
v -192 -224 0
v -192 -208 0
v -176 -208 0
v -192 -224 0
v -208 -224 0
v -208 -208 0
v -192 -208 0
v -208 -224 0
v -224 -224 0
v -224 -208 0
v -208 -208 0
v -224 -224 0
v -240 -224 0
v -240 -208 0
v -224 -208 0
v -240 -224 0
v -256 -224 0
v -256 -208 0
v -240 -208 0
v 0 -240 0
v -16 -240 0
v -16 -224 0
v 0 -224 0
v -16 -240 0
v -32 -240 0
v -32 -224 0
v -16 -224 0
v -32 -240 0
v -48 -240 0
v -48 -224 0
v -32 -224 0
v -48 -240 0
v -64 -240 0
v -64 -224 0
v -48 -224 0
v -64 -240 0
v -80 -240 0
v -80 -224 0
v -64 -224 0
v -80 -240 0
v -96 -240 0
v -96 -224 0
v -80 -224 0
v -96 -240 0
v -112 -240 0
v -112 -224 0
v -96 -224 0
v -112 -240 0
v -128 -240 0
v -128 -224 0
v -112 -224 0
v -128 -240 0
v -144 -240 0
v -144 -224 0
v -128 -224 0
v -144 -240 0
v -160 -240 0
v -160 -224 0
v -144 -224 0
v -160 -240 0
v -176 -240 0
v -176 -224 0
v -160 -224 0
v -176 -240 0
v -192 -240 0
v -192 -224 0
v -176 -224 0
v -192 -240 0
v -208 -240 0
v -208 -224 0
v -192 -224 0
v -208 -240 0
v -224 -240 0
v -224 -224 0
v -208 -224 0
v -224 -240 0
v -240 -240 0
v -240 -224 0
v -224 -224 0
v -240 -240 0
v -256 -240 0
v -256 -224 0
v -240 -224 0
v 0 -256 0
v -16 -256 0
v -16 -240 0
v 0 -240 0
v -16 -256 0
v -32 -256 0
v -32 -240 0
v -16 -240 0
v -32 -256 0
v -48 -256 0
v -48 -240 0
v -32 -240 0
v -48 -256 0
v -64 -256 0
v -64 -240 0
v -48 -240 0
v -64 -256 0
v -80 -256 0
v -80 -240 0
v -64 -240 0
v -80 -256 0
v -96 -256 0
v -96 -240 0
v -80 -240 0
v -96 -256 0
v -112 -256 0
v -112 -240 0
v -96 -240 0
v -112 -256 0
v -128 -256 0
v -128 -240 0
v -112 -240 0
v -128 -256 0
v -144 -256 0
v -144 -240 0
v -128 -240 0
v -144 -256 0
v -160 -256 0
v -160 -240 0
v -144 -240 0
v -160 -256 0
v -176 -256 0
v -176 -240 0
v -160 -240 0
v -176 -256 0
v -192 -256 0
v -192 -240 0
v -176 -240 0
v -192 -256 0
v -208 -256 0
v -208 -240 0
v -192 -240 0
v -208 -256 0
v -224 -256 0
v -224 -240 0
v -208 -240 0
v -224 -256 0
v -240 -256 0
v -240 -240 0
v -224 -240 0
v -240 -256 0
v -256 -256 0
v -256 -240 0
v -240 -240 0

# Texture cooridinates (Count = 42)
vt 0.1489362 0.9375
vt 0.1382979 0.9375
vt 0.1382979 0.875
vt 0.1489362 0.875
vt 0.1276596 0.9375
vt 0.1276596 0.875
vt 0.1170213 0.9375
vt 0.1170213 0.875
vt 0.106383 0.9375
vt 0.106383 0.875
vt 0.09574468 0.9375
vt 0.09574468 0.875
vt 0.08510638 0.9375
vt 0.08510638 0.875
vt 0.07446808 0.9375
vt 0.07446808 0.875
vt 0.06382979 0.9375
vt 0.06382979 0.875
vt 0.05319149 0.9375
vt 0.05319149 0.875
vt 0.04255319 0.9375
vt 0.04255319 0.875
vt 0.1489362 1
vt 0.1382979 1
vt 0.1276596 1
vt 0.1170213 1
vt 0.106383 1
vt 0.09574468 1
vt 0.08510638 1
vt 0.07446808 1
vt 0.06382979 1
vt 0.05319149 1
vt 0.04255319 1
vt 0.1489362 0.375
vt 0.1595745 0.375
vt 0.1595745 0.4375
vt 0.1489362 0.4375
vt 0.1702128 0.375
vt 0.1702128 0.4375
vt 0.1489362 0.3125
vt 0.1595745 0.3125
vt 0.1702128 0.3125

# Normal
vn 0 0 -1

# Mesh description
g 2ScenarioPlataforma_mesh_0364

# Faces
f 1/1/1 2/2/1 3/3/1 4/4/1
f 5/2/1 6/5/1 7/6/1 8/3/1
f 9/5/1 10/7/1 11/8/1 12/6/1
f 13/7/1 14/9/1 15/10/1 16/8/1
f 17/9/1 18/11/1 19/12/1 20/10/1
f 21/11/1 22/13/1 23/14/1 24/12/1
f 25/13/1 26/15/1 27/16/1 28/14/1
f 29/15/1 30/17/1 31/18/1 32/16/1
f 33/17/1 34/19/1 35/20/1 36/18/1
f 37/19/1 38/21/1 39/22/1 40/20/1
f 41/1/1 42/2/1 43/3/1 44/4/1
f 45/2/1 46/5/1 47/6/1 48/3/1
f 49/5/1 50/7/1 51/8/1 52/6/1
f 53/7/1 54/9/1 55/10/1 56/8/1
f 57/9/1 58/11/1 59/12/1 60/10/1
f 61/11/1 62/13/1 63/14/1 64/12/1
f 65/23/1 66/24/1 67/2/1 68/1/1
f 69/24/1 70/25/1 71/5/1 72/2/1
f 73/25/1 74/26/1 75/7/1 76/5/1
f 77/26/1 78/27/1 79/9/1 80/7/1
f 81/27/1 82/28/1 83/11/1 84/9/1
f 85/28/1 86/29/1 87/13/1 88/11/1
f 89/29/1 90/30/1 91/15/1 92/13/1
f 93/30/1 94/31/1 95/17/1 96/15/1
f 97/31/1 98/32/1 99/19/1 100/17/1
f 101/32/1 102/33/1 103/21/1 104/19/1
f 105/23/1 106/24/1 107/2/1 108/1/1
f 109/24/1 110/25/1 111/5/1 112/2/1
f 113/25/1 114/26/1 115/7/1 116/5/1
f 117/26/1 118/27/1 119/9/1 120/7/1
f 121/27/1 122/28/1 123/11/1 124/9/1
f 125/28/1 126/29/1 127/13/1 128/11/1
f 129/1/1 130/2/1 131/3/1 132/4/1
f 133/2/1 134/5/1 135/6/1 136/3/1
f 137/5/1 138/7/1 139/8/1 140/6/1
f 141/7/1 142/9/1 143/10/1 144/8/1
f 145/9/1 146/11/1 147/12/1 148/10/1
f 149/11/1 150/13/1 151/14/1 152/12/1
f 153/13/1 154/15/1 155/16/1 156/14/1
f 157/15/1 158/17/1 159/18/1 160/16/1
f 161/17/1 162/19/1 163/20/1 164/18/1
f 165/19/1 166/21/1 167/22/1 168/20/1
f 169/1/1 170/2/1 171/3/1 172/4/1
f 173/2/1 174/5/1 175/6/1 176/3/1
f 177/5/1 178/7/1 179/8/1 180/6/1
f 181/7/1 182/9/1 183/10/1 184/8/1
f 185/9/1 186/11/1 187/12/1 188/10/1
f 189/11/1 190/13/1 191/14/1 192/12/1
f 193/23/1 194/24/1 195/2/1 196/1/1
f 197/24/1 198/25/1 199/5/1 200/2/1
f 201/25/1 202/26/1 203/7/1 204/5/1
f 205/26/1 206/27/1 207/9/1 208/7/1
f 209/27/1 210/28/1 211/11/1 212/9/1
f 213/28/1 214/29/1 215/13/1 216/11/1
f 217/29/1 218/30/1 219/15/1 220/13/1
f 221/30/1 222/31/1 223/17/1 224/15/1
f 225/31/1 226/32/1 227/19/1 228/17/1
f 229/32/1 230/33/1 231/21/1 232/19/1
f 233/23/1 234/24/1 235/2/1 236/1/1
f 237/24/1 238/25/1 239/5/1 240/2/1
f 241/25/1 242/26/1 243/7/1 244/5/1
f 245/26/1 246/27/1 247/9/1 248/7/1
f 249/27/1 250/28/1 251/11/1 252/9/1
f 253/28/1 254/29/1 255/13/1 256/11/1
f 257/1/1 258/2/1 259/3/1 260/4/1
f 261/2/1 262/5/1 263/6/1 264/3/1
f 265/5/1 266/7/1 267/8/1 268/6/1
f 269/7/1 270/9/1 271/10/1 272/8/1
f 273/9/1 274/11/1 275/12/1 276/10/1
f 277/11/1 278/13/1 279/14/1 280/12/1
f 281/13/1 282/15/1 283/16/1 284/14/1
f 285/15/1 286/17/1 287/18/1 288/16/1
f 289/17/1 290/19/1 291/20/1 292/18/1
f 293/19/1 294/21/1 295/22/1 296/20/1
f 297/1/1 298/2/1 299/3/1 300/4/1
f 301/2/1 302/5/1 303/6/1 304/3/1
f 305/5/1 306/7/1 307/8/1 308/6/1
f 309/7/1 310/9/1 311/10/1 312/8/1
f 313/9/1 314/11/1 315/12/1 316/10/1
f 317/11/1 318/13/1 319/14/1 320/12/1
f 321/23/1 322/24/1 323/2/1 324/1/1
f 325/24/1 326/25/1 327/5/1 328/2/1
f 329/25/1 330/26/1 331/7/1 332/5/1
f 333/26/1 334/27/1 335/9/1 336/7/1
f 337/27/1 338/28/1 339/11/1 340/9/1
f 341/28/1 342/29/1 343/13/1 344/11/1
f 345/29/1 346/30/1 347/15/1 348/13/1
f 349/30/1 350/31/1 351/17/1 352/15/1
f 353/31/1 354/32/1 355/19/1 356/17/1
f 357/32/1 358/33/1 359/21/1 360/19/1
f 361/23/1 362/24/1 363/2/1 364/1/1
f 365/24/1 366/25/1 367/5/1 368/2/1
f 369/25/1 370/26/1 371/7/1 372/5/1
f 373/26/1 374/27/1 375/9/1 376/7/1
f 377/27/1 378/28/1 379/11/1 380/9/1
f 381/28/1 382/29/1 383/13/1 384/11/1
f 385/1/1 386/2/1 387/3/1 388/4/1
f 389/2/1 390/5/1 391/6/1 392/3/1
f 393/5/1 394/7/1 395/8/1 396/6/1
f 397/7/1 398/9/1 399/10/1 400/8/1
f 401/9/1 402/11/1 403/12/1 404/10/1
f 405/11/1 406/13/1 407/14/1 408/12/1
f 409/13/1 410/15/1 411/16/1 412/14/1
f 413/15/1 414/17/1 415/18/1 416/16/1
f 417/17/1 418/19/1 419/20/1 420/18/1
f 421/19/1 422/21/1 423/22/1 424/20/1
f 425/1/1 426/2/1 427/3/1 428/4/1
f 429/2/1 430/5/1 431/6/1 432/3/1
f 433/5/1 434/7/1 435/8/1 436/6/1
f 437/7/1 438/9/1 439/10/1 440/8/1
f 441/9/1 442/11/1 443/12/1 444/10/1
f 445/11/1 446/13/1 447/14/1 448/12/1
f 449/34/1 450/35/1 451/36/1 452/37/1
f 453/35/1 454/38/1 455/39/1 456/36/1
f 457/25/1 458/26/1 459/7/1 460/5/1
f 461/26/1 462/27/1 463/9/1 464/7/1
f 465/27/1 466/28/1 467/11/1 468/9/1
f 469/28/1 470/29/1 471/13/1 472/11/1
f 473/29/1 474/30/1 475/15/1 476/13/1
f 477/30/1 478/31/1 479/17/1 480/15/1
f 481/31/1 482/32/1 483/19/1 484/17/1
f 485/32/1 486/33/1 487/21/1 488/19/1
f 489/23/1 490/24/1 491/2/1 492/1/1
f 493/24/1 494/25/1 495/5/1 496/2/1
f 497/25/1 498/26/1 499/7/1 500/5/1
f 501/26/1 502/27/1 503/9/1 504/7/1
f 505/27/1 506/28/1 507/11/1 508/9/1
f 509/28/1 510/29/1 511/13/1 512/11/1
f 513/40/1 514/41/1 515/35/1 516/34/1
f 517/41/1 518/42/1 519/38/1 520/35/1
f 521/5/1 522/7/1 523/8/1 524/6/1
f 525/7/1 526/9/1 527/10/1 528/8/1
f 529/9/1 530/11/1 531/12/1 532/10/1
f 533/34/1 534/35/1 535/36/1 536/37/1
f 537/35/1 538/38/1 539/39/1 540/36/1
f 541/35/1 542/38/1 543/39/1 544/36/1
f 545/35/1 546/38/1 547/39/1 548/36/1
f 549/35/1 550/38/1 551/39/1 552/36/1
f 553/35/1 554/38/1 555/39/1 556/36/1
f 557/35/1 558/38/1 559/39/1 560/36/1
f 561/5/1 562/7/1 563/8/1 564/6/1
f 565/7/1 566/9/1 567/10/1 568/8/1
f 569/9/1 570/11/1 571/12/1 572/10/1
f 573/11/1 574/13/1 575/14/1 576/12/1
f 577/23/1 578/24/1 579/2/1 580/1/1
f 581/24/1 582/25/1 583/5/1 584/2/1
f 585/25/1 586/26/1 587/7/1 588/5/1
f 589/34/1 590/35/1 591/36/1 592/37/1
f 593/35/1 594/38/1 595/39/1 596/36/1
f 597/35/1 598/38/1 599/39/1 600/36/1
f 601/41/1 602/42/1 603/38/1 604/35/1
f 605/41/1 606/42/1 607/38/1 608/35/1
f 609/41/1 610/42/1 611/38/1 612/35/1
f 613/41/1 614/42/1 615/38/1 616/35/1
f 617/41/1 618/42/1 619/38/1 620/35/1
f 621/41/1 622/42/1 623/38/1 624/35/1
f 625/25/1 626/26/1 627/7/1 628/5/1
f 629/26/1 630/27/1 631/9/1 632/7/1
f 633/27/1 634/28/1 635/11/1 636/9/1
f 637/28/1 638/29/1 639/13/1 640/11/1
f 641/34/1 642/35/1 643/36/1 644/37/1
f 645/35/1 646/38/1 647/39/1 648/36/1
f 649/5/1 650/7/1 651/8/1 652/6/1
f 653/40/1 654/41/1 655/35/1 656/34/1
f 657/41/1 658/42/1 659/38/1 660/35/1
f 661/41/1 662/42/1 663/38/1 664/35/1
f 665/13/1 666/15/1 667/16/1 668/14/1
f 669/15/1 670/17/1 671/18/1 672/16/1
f 673/17/1 674/19/1 675/20/1 676/18/1
f 677/40/1 678/41/1 679/35/1 680/34/1
f 681/40/1 682/41/1 683/35/1 684/34/1
f 685/41/1 686/42/1 687/38/1 688/35/1
f 689/5/1 690/7/1 691/8/1 692/6/1
f 693/7/1 694/9/1 695/10/1 696/8/1
f 697/9/1 698/11/1 699/12/1 700/10/1
f 701/11/1 702/13/1 703/14/1 704/12/1
f 705/35/1 706/38/1 707/39/1 708/36/1
f 709/35/1 710/38/1 711/39/1 712/36/1
f 713/25/1 714/26/1 715/7/1 716/5/1
f 717/26/1 718/27/1 719/9/1 720/7/1
f 721/27/1 722/28/1 723/11/1 724/9/1
f 725/28/1 726/29/1 727/13/1 728/11/1
f 729/29/1 730/30/1 731/15/1 732/13/1
f 733/30/1 734/31/1 735/17/1 736/15/1
f 737/34/1 738/35/1 739/36/1 740/37/1
f 741/35/1 742/38/1 743/39/1 744/36/1
f 745/23/1 746/24/1 747/2/1 748/1/1
f 749/24/1 750/25/1 751/5/1 752/2/1
f 753/25/1 754/26/1 755/7/1 756/5/1
f 757/26/1 758/27/1 759/9/1 760/7/1
f 761/27/1 762/28/1 763/11/1 764/9/1
f 765/28/1 766/29/1 767/13/1 768/11/1
f 769/35/1 770/38/1 771/39/1 772/36/1
f 773/41/1 774/42/1 775/38/1 776/35/1
f 777/5/1 778/7/1 779/8/1 780/6/1
f 781/7/1 782/9/1 783/10/1 784/8/1
f 785/9/1 786/11/1 787/12/1 788/10/1
f 789/11/1 790/13/1 791/14/1 792/12/1
f 793/13/1 794/15/1 795/16/1 796/14/1
f 797/15/1 798/17/1 799/18/1 800/16/1
f 801/34/1 802/35/1 803/36/1 804/37/1
f 805/34/1 806/35/1 807/36/1 808/37/1
f 809/34/1 810/35/1 811/36/1 812/37/1
f 813/34/1 814/35/1 815/36/1 816/37/1
f 817/35/1 818/38/1 819/39/1 820/36/1
f 821/7/1 822/9/1 823/10/1 824/8/1
f 825/9/1 826/11/1 827/12/1 828/10/1
f 829/11/1 830/13/1 831/14/1 832/12/1
f 833/41/1 834/42/1 835/38/1 836/35/1
f 837/24/1 838/25/1 839/5/1 840/2/1
f 841/25/1 842/26/1 843/7/1 844/5/1
f 845/26/1 846/27/1 847/9/1 848/7/1
f 849/27/1 850/28/1 851/11/1 852/9/1
f 853/28/1 854/29/1 855/13/1 856/11/1
f 857/29/1 858/30/1 859/15/1 860/13/1
f 861/30/1 862/31/1 863/17/1 864/15/1
f 865/40/1 866/41/1 867/35/1 868/34/1
f 869/40/1 870/41/1 871/35/1 872/34/1
f 873/40/1 874/41/1 875/35/1 876/34/1
f 877/40/1 878/41/1 879/35/1 880/34/1
f 881/41/1 882/42/1 883/38/1 884/35/1
f 885/26/1 886/27/1 887/9/1 888/7/1
f 889/27/1 890/28/1 891/11/1 892/9/1
f 893/28/1 894/29/1 895/13/1 896/11/1
f 897/1/1 898/2/1 899/3/1 900/4/1
f 901/2/1 902/5/1 903/6/1 904/3/1
f 905/5/1 906/7/1 907/8/1 908/6/1
f 909/7/1 910/9/1 911/10/1 912/8/1
f 913/9/1 914/11/1 915/12/1 916/10/1
f 917/11/1 918/13/1 919/14/1 920/12/1
f 921/13/1 922/15/1 923/16/1 924/14/1
f 925/15/1 926/17/1 927/18/1 928/16/1
f 929/17/1 930/19/1 931/20/1 932/18/1
f 933/19/1 934/21/1 935/22/1 936/20/1
f 937/1/1 938/2/1 939/3/1 940/4/1
f 941/2/1 942/5/1 943/6/1 944/3/1
f 945/5/1 946/7/1 947/8/1 948/6/1
f 949/7/1 950/9/1 951/10/1 952/8/1
f 953/9/1 954/11/1 955/12/1 956/10/1
f 957/11/1 958/13/1 959/14/1 960/12/1
f 961/23/1 962/24/1 963/2/1 964/1/1
f 965/24/1 966/25/1 967/5/1 968/2/1
f 969/25/1 970/26/1 971/7/1 972/5/1
f 973/26/1 974/27/1 975/9/1 976/7/1
f 977/27/1 978/28/1 979/11/1 980/9/1
f 981/28/1 982/29/1 983/13/1 984/11/1
f 985/29/1 986/30/1 987/15/1 988/13/1
f 989/30/1 990/31/1 991/17/1 992/15/1
f 993/31/1 994/32/1 995/19/1 996/17/1
f 997/32/1 998/33/1 999/21/1 1000/19/1
f 1001/23/1 1002/24/1 1003/2/1 1004/1/1
f 1005/24/1 1006/25/1 1007/5/1 1008/2/1
f 1009/25/1 1010/26/1 1011/7/1 1012/5/1
f 1013/26/1 1014/27/1 1015/9/1 1016/7/1
f 1017/27/1 1018/28/1 1019/11/1 1020/9/1
f 1021/28/1 1022/29/1 1023/13/1 1024/11/1

