# Tiled2Unity generated file. Do not modify by hand.
# Wavefront file for '2ScenarioPlataforma_mesh_0362.obj'

# Vertices (Count = 16)
v -112 -16 0
v -128 -16 0
v -128 0 0
v -112 0 0
v -128 -16 0
v -144 -16 0
v -144 0 0
v -128 0 0
v -112 -32 0
v -128 -32 0
v -128 -16 0
v -112 -16 0
v -128 -32 0
v -144 -32 0
v -144 -16 0
v -128 -16 0

# Texture cooridinates (Count = 9)
vt 0.5319149 0.625
vt 0.5319149 0.5625
vt 0.5425532 0.5625
vt 0.5425532 0.625
vt 0.5319149 0.5
vt 0.5425532 0.5
vt 0.5212766 0.625
vt 0.5212766 0.5625
vt 0.5212766 0.5

# Normal
vn 0 0 -1

# Mesh description
g 2ScenarioPlataforma_mesh_0362

# Faces
f 1/1/1 2/2/1 3/3/1 4/4/1
f 5/2/1 6/5/1 7/6/1 8/3/1
f 9/7/1 10/8/1 11/2/1 12/1/1
f 13/8/1 14/9/1 15/5/1 16/2/1

