# Tiled2Unity generated file. Do not modify by hand.
# Wavefront file for '2ScenarioPlataforma_mesh_0629.obj'

# Vertices (Count = 192)
v 0 -144 0
v -16 -144 0
v -16 -128 0
v 0 -128 0
v -16 -144 0
v -32 -144 0
v -32 -128 0
v -16 -128 0
v -32 -144 0
v -48 -144 0
v -48 -128 0
v -32 -128 0
v -48 -144 0
v -64 -144 0
v -64 -128 0
v -48 -128 0
v -64 -144 0
v -80 -144 0
v -80 -128 0
v -64 -128 0
v -80 -144 0
v -96 -144 0
v -96 -128 0
v -80 -128 0
v 0 -160 0
v -16 -160 0
v -16 -144 0
v 0 -144 0
v -16 -160 0
v -32 -160 0
v -32 -144 0
v -16 -144 0
v -32 -160 0
v -48 -160 0
v -48 -144 0
v -32 -144 0
v -48 -160 0
v -64 -160 0
v -64 -144 0
v -48 -144 0
v -64 -160 0
v -80 -160 0
v -80 -144 0
v -64 -144 0
v -80 -160 0
v -96 -160 0
v -96 -144 0
v -80 -144 0
v 0 -176 0
v -16 -176 0
v -16 -160 0
v 0 -160 0
v -16 -176 0
v -32 -176 0
v -32 -160 0
v -16 -160 0
v -32 -176 0
v -48 -176 0
v -48 -160 0
v -32 -160 0
v -48 -176 0
v -64 -176 0
v -64 -160 0
v -48 -160 0
v -64 -176 0
v -80 -176 0
v -80 -160 0
v -64 -160 0
v -80 -176 0
v -96 -176 0
v -96 -160 0
v -80 -160 0
v 0 -192 0
v -16 -192 0
v -16 -176 0
v 0 -176 0
v -16 -192 0
v -32 -192 0
v -32 -176 0
v -16 -176 0
v -32 -192 0
v -48 -192 0
v -48 -176 0
v -32 -176 0
v -48 -192 0
v -64 -192 0
v -64 -176 0
v -48 -176 0
v -64 -192 0
v -80 -192 0
v -80 -176 0
v -64 -176 0
v -80 -192 0
v -96 -192 0
v -96 -176 0
v -80 -176 0
v 0 -208 0
v -16 -208 0
v -16 -192 0
v 0 -192 0
v -16 -208 0
v -32 -208 0
v -32 -192 0
v -16 -192 0
v -32 -208 0
v -48 -208 0
v -48 -192 0
v -32 -192 0
v -48 -208 0
v -64 -208 0
v -64 -192 0
v -48 -192 0
v -64 -208 0
v -80 -208 0
v -80 -192 0
v -64 -192 0
v -80 -208 0
v -96 -208 0
v -96 -192 0
v -80 -192 0
v 0 -224 0
v -16 -224 0
v -16 -208 0
v 0 -208 0
v -16 -224 0
v -32 -224 0
v -32 -208 0
v -16 -208 0
v -32 -224 0
v -48 -224 0
v -48 -208 0
v -32 -208 0
v -48 -224 0
v -64 -224 0
v -64 -208 0
v -48 -208 0
v -64 -224 0
v -80 -224 0
v -80 -208 0
v -64 -208 0
v -80 -224 0
v -96 -224 0
v -96 -208 0
v -80 -208 0
v 0 -240 0
v -16 -240 0
v -16 -224 0
v 0 -224 0
v -16 -240 0
v -32 -240 0
v -32 -224 0
v -16 -224 0
v -32 -240 0
v -48 -240 0
v -48 -224 0
v -32 -224 0
v -48 -240 0
v -64 -240 0
v -64 -224 0
v -48 -224 0
v -64 -240 0
v -80 -240 0
v -80 -224 0
v -64 -224 0
v -80 -240 0
v -96 -240 0
v -96 -224 0
v -80 -224 0
v 0 -256 0
v -16 -256 0
v -16 -240 0
v 0 -240 0
v -16 -256 0
v -32 -256 0
v -32 -240 0
v -16 -240 0
v -32 -256 0
v -48 -256 0
v -48 -240 0
v -32 -240 0
v -48 -256 0
v -64 -256 0
v -64 -240 0
v -48 -240 0
v -64 -256 0
v -80 -256 0
v -80 -240 0
v -64 -240 0
v -80 -256 0
v -96 -256 0
v -96 -240 0
v -80 -240 0

# Texture cooridinates (Count = 32)
vt 0.212766 0.125
vt 0.2234043 0.125
vt 0.2234043 0.1875
vt 0.212766 0.1875
vt 0.2340426 0.125
vt 0.2340426 0.1875
vt 0.2446809 0.125
vt 0.2446809 0.1875
vt 0.2553191 0.125
vt 0.2553191 0.1875
vt 0.2659574 0.125
vt 0.2659574 0.1875
vt 0.2765957 0.125
vt 0.2765957 0.1875
vt 0.212766 0.0625
vt 0.2234043 0.0625
vt 0.2340426 0.0625
vt 0.2446809 0.0625
vt 0.2553191 0.0625
vt 0.2659574 0.0625
vt 0.2765957 0.0625
vt 0.212766 0
vt 0.2234043 0
vt 0.2340426 0
vt 0.2446809 0
vt 0.2553191 0
vt 0.2659574 0
vt 0.2765957 0
vt 0.1914894 0
vt 0.2021277 0
vt 0.2021277 0.0625
vt 0.1914894 0.0625

# Normal
vn 0 0 -1

# Mesh description
g 2ScenarioPlataforma_mesh_0629

# Faces
f 1/1/1 2/2/1 3/3/1 4/4/1
f 5/2/1 6/5/1 7/6/1 8/3/1
f 9/5/1 10/7/1 11/8/1 12/6/1
f 13/7/1 14/9/1 15/10/1 16/8/1
f 17/9/1 18/11/1 19/12/1 20/10/1
f 21/11/1 22/13/1 23/14/1 24/12/1
f 25/15/1 26/16/1 27/2/1 28/1/1
f 29/16/1 30/17/1 31/5/1 32/2/1
f 33/17/1 34/18/1 35/7/1 36/5/1
f 37/18/1 38/19/1 39/9/1 40/7/1
f 41/19/1 42/20/1 43/11/1 44/9/1
f 45/20/1 46/21/1 47/13/1 48/11/1
f 49/22/1 50/23/1 51/16/1 52/15/1
f 53/23/1 54/24/1 55/17/1 56/16/1
f 57/24/1 58/25/1 59/18/1 60/17/1
f 61/25/1 62/26/1 63/19/1 64/18/1
f 65/26/1 66/27/1 67/20/1 68/19/1
f 69/27/1 70/28/1 71/21/1 72/20/1
f 73/29/1 74/30/1 75/31/1 76/32/1
f 77/30/1 78/22/1 79/15/1 80/31/1
f 81/22/1 82/23/1 83/16/1 84/15/1
f 85/23/1 86/24/1 87/17/1 88/16/1
f 89/24/1 90/25/1 91/18/1 92/17/1
f 93/25/1 94/26/1 95/19/1 96/18/1
f 97/29/1 98/30/1 99/31/1 100/32/1
f 101/30/1 102/22/1 103/15/1 104/31/1
f 105/22/1 106/23/1 107/16/1 108/15/1
f 109/23/1 110/24/1 111/17/1 112/16/1
f 113/24/1 114/25/1 115/18/1 116/17/1
f 117/25/1 118/26/1 119/19/1 120/18/1
f 121/29/1 122/30/1 123/31/1 124/32/1
f 125/30/1 126/22/1 127/15/1 128/31/1
f 129/22/1 130/23/1 131/16/1 132/15/1
f 133/23/1 134/24/1 135/17/1 136/16/1
f 137/24/1 138/25/1 139/18/1 140/17/1
f 141/25/1 142/26/1 143/19/1 144/18/1
f 145/29/1 146/30/1 147/31/1 148/32/1
f 149/30/1 150/22/1 151/15/1 152/31/1
f 153/22/1 154/23/1 155/16/1 156/15/1
f 157/23/1 158/24/1 159/17/1 160/16/1
f 161/24/1 162/25/1 163/18/1 164/17/1
f 165/25/1 166/26/1 167/19/1 168/18/1
f 169/29/1 170/30/1 171/31/1 172/32/1
f 173/30/1 174/22/1 175/15/1 176/31/1
f 177/22/1 178/23/1 179/16/1 180/15/1
f 181/23/1 182/24/1 183/17/1 184/16/1
f 185/24/1 186/25/1 187/18/1 188/17/1
f 189/25/1 190/26/1 191/19/1 192/18/1

