# Tiled2Unity generated file. Do not modify by hand.
# Wavefront file for '2ScenarioPlataforma_mesh_0930.obj'

# Vertices (Count = 236)
v -192 -16 0
v -208 -16 0
v -208 0 0
v -192 0 0
v -208 -16 0
v -224 -16 0
v -224 0 0
v -208 0 0
v -224 -16 0
v -240 -16 0
v -240 0 0
v -224 0 0
v -240 -16 0
v -256 -16 0
v -256 0 0
v -240 0 0
v -192 -32 0
v -208 -32 0
v -208 -16 0
v -192 -16 0
v -208 -32 0
v -224 -32 0
v -224 -16 0
v -208 -16 0
v -224 -32 0
v -240 -32 0
v -240 -16 0
v -224 -16 0
v -240 -32 0
v -256 -32 0
v -256 -16 0
v -240 -16 0
v -192 -48 0
v -208 -48 0
v -208 -32 0
v -192 -32 0
v -208 -48 0
v -224 -48 0
v -224 -32 0
v -208 -32 0
v -224 -48 0
v -240 -48 0
v -240 -32 0
v -224 -32 0
v -240 -48 0
v -256 -48 0
v -256 -32 0
v -240 -32 0
v -192 -64 0
v -208 -64 0
v -208 -48 0
v -192 -48 0
v -208 -64 0
v -224 -64 0
v -224 -48 0
v -208 -48 0
v -224 -64 0
v -240 -64 0
v -240 -48 0
v -224 -48 0
v -240 -64 0
v -256 -64 0
v -256 -48 0
v -240 -48 0
v -192 -80 0
v -208 -80 0
v -208 -64 0
v -192 -64 0
v -208 -80 0
v -224 -80 0
v -224 -64 0
v -208 -64 0
v -224 -80 0
v -240 -80 0
v -240 -64 0
v -224 -64 0
v -240 -80 0
v -256 -80 0
v -256 -64 0
v -240 -64 0
v 0 -96 0
v -16 -96 0
v -16 -80 0
v 0 -80 0
v -16 -96 0
v -32 -96 0
v -32 -80 0
v -16 -80 0
v -32 -96 0
v -48 -96 0
v -48 -80 0
v -32 -80 0
v -48 -96 0
v -64 -96 0
v -64 -80 0
v -48 -80 0
v -64 -96 0
v -80 -96 0
v -80 -80 0
v -64 -80 0
v -192 -96 0
v -208 -96 0
v -208 -80 0
v -192 -80 0
v -208 -96 0
v -224 -96 0
v -224 -80 0
v -208 -80 0
v -224 -96 0
v -240 -96 0
v -240 -80 0
v -224 -80 0
v -240 -96 0
v -256 -96 0
v -256 -80 0
v -240 -80 0
v -64 -112 0
v -80 -112 0
v -80 -96 0
v -64 -96 0
v -192 -112 0
v -208 -112 0
v -208 -96 0
v -192 -96 0
v -208 -112 0
v -224 -112 0
v -224 -96 0
v -208 -96 0
v -224 -112 0
v -240 -112 0
v -240 -96 0
v -224 -96 0
v -240 -112 0
v -256 -112 0
v -256 -96 0
v -240 -96 0
v -64 -128 0
v -80 -128 0
v -80 -112 0
v -64 -112 0
v -192 -128 0
v -208 -128 0
v -208 -112 0
v -192 -112 0
v -208 -128 0
v -224 -128 0
v -224 -112 0
v -208 -112 0
v -224 -128 0
v -240 -128 0
v -240 -112 0
v -224 -112 0
v -240 -128 0
v -256 -128 0
v -256 -112 0
v -240 -112 0
v -64 -144 0
v -80 -144 0
v -80 -128 0
v -64 -128 0
v -192 -144 0
v -208 -144 0
v -208 -128 0
v -192 -128 0
v -208 -144 0
v -224 -144 0
v -224 -128 0
v -208 -128 0
v -224 -144 0
v -240 -144 0
v -240 -128 0
v -224 -128 0
v -240 -144 0
v -256 -144 0
v -256 -128 0
v -240 -128 0
v -64 -160 0
v -80 -160 0
v -80 -144 0
v -64 -144 0
v -192 -160 0
v -208 -160 0
v -208 -144 0
v -192 -144 0
v -208 -160 0
v -224 -160 0
v -224 -144 0
v -208 -144 0
v -224 -160 0
v -240 -160 0
v -240 -144 0
v -224 -144 0
v -240 -160 0
v -256 -160 0
v -256 -144 0
v -240 -144 0
v -64 -176 0
v -80 -176 0
v -80 -160 0
v -64 -160 0
v -192 -176 0
v -208 -176 0
v -208 -160 0
v -192 -160 0
v -208 -176 0
v -224 -176 0
v -224 -160 0
v -208 -160 0
v -224 -176 0
v -240 -176 0
v -240 -160 0
v -224 -160 0
v -240 -176 0
v -256 -176 0
v -256 -160 0
v -240 -160 0
v -64 -192 0
v -80 -192 0
v -80 -176 0
v -64 -176 0
v -64 -208 0
v -80 -208 0
v -80 -192 0
v -64 -192 0
v -64 -224 0
v -80 -224 0
v -80 -208 0
v -64 -208 0
v -64 -240 0
v -80 -240 0
v -80 -224 0
v -64 -224 0
v -64 -256 0
v -80 -256 0
v -80 -240 0
v -64 -240 0

# Texture cooridinates (Count = 64)
vt 0.680851 0.25
vt 0.680851 0.1875
vt 0.6914893 0.1875
vt 0.6914893 0.25
vt 0.6170213 0.625
vt 0.6276596 0.625
vt 0.6276596 0.6875
vt 0.6170213 0.6875
vt 0.6382979 0.625
vt 0.6382979 0.6875
vt 0.606383 0.625
vt 0.606383 0.6875
vt 0.6489362 0.25
vt 0.6489362 0.1875
vt 0.6595744 0.1875
vt 0.6595744 0.25
vt 0.6170213 0.8125
vt 0.6276596 0.8125
vt 0.6276596 0.875
vt 0.6170213 0.875
vt 0.6382979 0.8125
vt 0.6382979 0.875
vt 0.606383 0.8125
vt 0.606383 0.875
vt 0.6170213 0.75
vt 0.6276596 0.75
vt 0.6382979 0.75
vt 0.606383 0.75
vt 0.5957447 0.25
vt 0.5957447 0.1875
vt 0.606383 0.1875
vt 0.606383 0.25
vt 0.4042553 0.6875
vt 0.4042553 0.625
vt 0.4148936 0.625
vt 0.4148936 0.6875
vt 0.5851064 0.1875
vt 0.5851064 0.25
vt 0.7021276 0.1875
vt 0.7021276 0.25
vt 0.5425532 0.1875
vt 0.5531915 0.1875
vt 0.5531915 0.25
vt 0.5425532 0.25
vt 0.6170213 0.1875
vt 0.6170213 0.25
vt 0.393617 0.625
vt 0.393617 0.6875
vt 0.3829787 0.6875
vt 0.3829787 0.625
vt 0.4255319 0.625
vt 0.4255319 0.6875
vt 0.6276596 0.1875
vt 0.6276596 0.25
vt 0.5638298 0.25
vt 0.5638298 0.1875
vt 0.5744681 0.1875
vt 0.5744681 0.25
vt 0.7127659 0.1875
vt 0.7127659 0.25
vt 0.3723404 0.6875
vt 0.3723404 0.625
vt 0.6382979 0.25
vt 0.6382979 0.1875

# Normal
vn 0 0 -1

# Mesh description
g 2ScenarioPlataforma_mesh_0930

# Faces
f 1/1/1 2/2/1 3/3/1 4/4/1
f 5/5/1 6/6/1 7/7/1 8/8/1
f 9/6/1 10/9/1 11/10/1 12/7/1
f 13/11/1 14/5/1 15/8/1 16/12/1
f 17/13/1 18/14/1 19/15/1 20/16/1
f 21/17/1 22/18/1 23/19/1 24/20/1
f 25/18/1 26/21/1 27/22/1 28/19/1
f 29/23/1 30/17/1 31/20/1 32/24/1
f 33/13/1 34/14/1 35/15/1 36/16/1
f 37/25/1 38/26/1 39/18/1 40/17/1
f 41/26/1 42/27/1 43/21/1 44/18/1
f 45/28/1 46/25/1 47/17/1 48/23/1
f 49/29/1 50/30/1 51/31/1 52/32/1
f 53/8/1 54/7/1 55/26/1 56/25/1
f 57/7/1 58/10/1 59/27/1 60/26/1
f 61/12/1 62/8/1 63/25/1 64/28/1
f 65/33/1 66/34/1 67/35/1 68/36/1
f 69/5/1 70/6/1 71/7/1 72/8/1
f 73/6/1 74/9/1 75/10/1 76/7/1
f 77/11/1 78/5/1 79/8/1 80/12/1
f 81/37/1 82/30/1 83/29/1 84/38/1
f 85/14/1 86/15/1 87/16/1 88/13/1
f 89/3/1 90/39/1 91/40/1 92/4/1
f 93/41/1 94/42/1 95/43/1 96/44/1
f 97/14/1 98/15/1 99/16/1 100/13/1
f 101/32/1 102/31/1 103/45/1 104/46/1
f 105/17/1 106/18/1 107/19/1 108/20/1
f 109/18/1 110/21/1 111/22/1 112/19/1
f 113/23/1 114/17/1 115/20/1 116/24/1
f 117/47/1 118/48/1 119/49/1 120/50/1
f 121/48/1 122/47/1 123/34/1 124/33/1
f 125/25/1 126/26/1 127/18/1 128/17/1
f 129/26/1 130/27/1 131/21/1 132/18/1
f 133/28/1 134/25/1 135/17/1 136/23/1
f 137/51/1 138/52/1 139/36/1 140/35/1
f 141/32/1 142/31/1 143/45/1 144/46/1
f 145/8/1 146/7/1 147/26/1 148/25/1
f 149/7/1 150/10/1 151/27/1 152/26/1
f 153/12/1 154/8/1 155/25/1 156/28/1
f 157/39/1 158/40/1 159/4/1 160/3/1
f 161/13/1 162/14/1 163/15/1 164/16/1
f 165/5/1 166/6/1 167/7/1 168/8/1
f 169/6/1 170/9/1 171/10/1 172/7/1
f 173/11/1 174/5/1 175/8/1 176/12/1
f 177/53/1 178/54/1 179/46/1 180/45/1
f 181/55/1 182/56/1 183/57/1 184/58/1
f 185/17/1 186/18/1 187/19/1 188/20/1
f 189/18/1 190/21/1 191/22/1 192/19/1
f 193/23/1 194/17/1 195/20/1 196/24/1
f 197/35/1 198/36/1 199/33/1 200/34/1
f 201/39/1 202/59/1 203/60/1 204/40/1
f 205/33/1 206/48/1 207/47/1 208/34/1
f 209/29/1 210/38/1 211/37/1 212/30/1
f 213/36/1 214/33/1 215/34/1 216/35/1
f 217/30/1 218/29/1 219/38/1 220/37/1
f 221/47/1 222/48/1 223/49/1 224/50/1
f 225/15/1 226/16/1 227/13/1 228/14/1
f 229/50/1 230/49/1 231/61/1 232/62/1
f 233/14/1 234/13/1 235/63/1 236/64/1

