# Tiled2Unity generated file. Do not modify by hand.
# Wavefront file for '2ScenarioPlataforma_mesh_0969.obj'

# Vertices (Count = 1024)
v 0 -16 0
v -16 -16 0
v -16 0 0
v 0 0 0
v -16 -16 0
v -32 -16 0
v -32 0 0
v -16 0 0
v -32 -16 0
v -48 -16 0
v -48 0 0
v -32 0 0
v -48 -16 0
v -64 -16 0
v -64 0 0
v -48 0 0
v -64 -16 0
v -80 -16 0
v -80 0 0
v -64 0 0
v -80 -16 0
v -96 -16 0
v -96 0 0
v -80 0 0
v -96 -16 0
v -112 -16 0
v -112 0 0
v -96 0 0
v -112 -16 0
v -128 -16 0
v -128 0 0
v -112 0 0
v -128 -16 0
v -144 -16 0
v -144 0 0
v -128 0 0
v -144 -16 0
v -160 -16 0
v -160 0 0
v -144 0 0
v -160 -16 0
v -176 -16 0
v -176 0 0
v -160 0 0
v -176 -16 0
v -192 -16 0
v -192 0 0
v -176 0 0
v -192 -16 0
v -208 -16 0
v -208 0 0
v -192 0 0
v -208 -16 0
v -224 -16 0
v -224 0 0
v -208 0 0
v -224 -16 0
v -240 -16 0
v -240 0 0
v -224 0 0
v -240 -16 0
v -256 -16 0
v -256 0 0
v -240 0 0
v 0 -32 0
v -16 -32 0
v -16 -16 0
v 0 -16 0
v -16 -32 0
v -32 -32 0
v -32 -16 0
v -16 -16 0
v -32 -32 0
v -48 -32 0
v -48 -16 0
v -32 -16 0
v -48 -32 0
v -64 -32 0
v -64 -16 0
v -48 -16 0
v -64 -32 0
v -80 -32 0
v -80 -16 0
v -64 -16 0
v -80 -32 0
v -96 -32 0
v -96 -16 0
v -80 -16 0
v -96 -32 0
v -112 -32 0
v -112 -16 0
v -96 -16 0
v -112 -32 0
v -128 -32 0
v -128 -16 0
v -112 -16 0
v -128 -32 0
v -144 -32 0
v -144 -16 0
v -128 -16 0
v -144 -32 0
v -160 -32 0
v -160 -16 0
v -144 -16 0
v -160 -32 0
v -176 -32 0
v -176 -16 0
v -160 -16 0
v -176 -32 0
v -192 -32 0
v -192 -16 0
v -176 -16 0
v -192 -32 0
v -208 -32 0
v -208 -16 0
v -192 -16 0
v -208 -32 0
v -224 -32 0
v -224 -16 0
v -208 -16 0
v -224 -32 0
v -240 -32 0
v -240 -16 0
v -224 -16 0
v -240 -32 0
v -256 -32 0
v -256 -16 0
v -240 -16 0
v 0 -48 0
v -16 -48 0
v -16 -32 0
v 0 -32 0
v -16 -48 0
v -32 -48 0
v -32 -32 0
v -16 -32 0
v -32 -48 0
v -48 -48 0
v -48 -32 0
v -32 -32 0
v -48 -48 0
v -64 -48 0
v -64 -32 0
v -48 -32 0
v -64 -48 0
v -80 -48 0
v -80 -32 0
v -64 -32 0
v -80 -48 0
v -96 -48 0
v -96 -32 0
v -80 -32 0
v -96 -48 0
v -112 -48 0
v -112 -32 0
v -96 -32 0
v -112 -48 0
v -128 -48 0
v -128 -32 0
v -112 -32 0
v -128 -48 0
v -144 -48 0
v -144 -32 0
v -128 -32 0
v -144 -48 0
v -160 -48 0
v -160 -32 0
v -144 -32 0
v -160 -48 0
v -176 -48 0
v -176 -32 0
v -160 -32 0
v -176 -48 0
v -192 -48 0
v -192 -32 0
v -176 -32 0
v -192 -48 0
v -208 -48 0
v -208 -32 0
v -192 -32 0
v -208 -48 0
v -224 -48 0
v -224 -32 0
v -208 -32 0
v -224 -48 0
v -240 -48 0
v -240 -32 0
v -224 -32 0
v -240 -48 0
v -256 -48 0
v -256 -32 0
v -240 -32 0
v 0 -64 0
v -16 -64 0
v -16 -48 0
v 0 -48 0
v -16 -64 0
v -32 -64 0
v -32 -48 0
v -16 -48 0
v -32 -64 0
v -48 -64 0
v -48 -48 0
v -32 -48 0
v -48 -64 0
v -64 -64 0
v -64 -48 0
v -48 -48 0
v -64 -64 0
v -80 -64 0
v -80 -48 0
v -64 -48 0
v -80 -64 0
v -96 -64 0
v -96 -48 0
v -80 -48 0
v -96 -64 0
v -112 -64 0
v -112 -48 0
v -96 -48 0
v -112 -64 0
v -128 -64 0
v -128 -48 0
v -112 -48 0
v -128 -64 0
v -144 -64 0
v -144 -48 0
v -128 -48 0
v -144 -64 0
v -160 -64 0
v -160 -48 0
v -144 -48 0
v -160 -64 0
v -176 -64 0
v -176 -48 0
v -160 -48 0
v -176 -64 0
v -192 -64 0
v -192 -48 0
v -176 -48 0
v -192 -64 0
v -208 -64 0
v -208 -48 0
v -192 -48 0
v -208 -64 0
v -224 -64 0
v -224 -48 0
v -208 -48 0
v -224 -64 0
v -240 -64 0
v -240 -48 0
v -224 -48 0
v -240 -64 0
v -256 -64 0
v -256 -48 0
v -240 -48 0
v 0 -80 0
v -16 -80 0
v -16 -64 0
v 0 -64 0
v -16 -80 0
v -32 -80 0
v -32 -64 0
v -16 -64 0
v -32 -80 0
v -48 -80 0
v -48 -64 0
v -32 -64 0
v -48 -80 0
v -64 -80 0
v -64 -64 0
v -48 -64 0
v -64 -80 0
v -80 -80 0
v -80 -64 0
v -64 -64 0
v -80 -80 0
v -96 -80 0
v -96 -64 0
v -80 -64 0
v -96 -80 0
v -112 -80 0
v -112 -64 0
v -96 -64 0
v -112 -80 0
v -128 -80 0
v -128 -64 0
v -112 -64 0
v -128 -80 0
v -144 -80 0
v -144 -64 0
v -128 -64 0
v -144 -80 0
v -160 -80 0
v -160 -64 0
v -144 -64 0
v -160 -80 0
v -176 -80 0
v -176 -64 0
v -160 -64 0
v -176 -80 0
v -192 -80 0
v -192 -64 0
v -176 -64 0
v -192 -80 0
v -208 -80 0
v -208 -64 0
v -192 -64 0
v -208 -80 0
v -224 -80 0
v -224 -64 0
v -208 -64 0
v -224 -80 0
v -240 -80 0
v -240 -64 0
v -224 -64 0
v -240 -80 0
v -256 -80 0
v -256 -64 0
v -240 -64 0
v 0 -96 0
v -16 -96 0
v -16 -80 0
v 0 -80 0
v -16 -96 0
v -32 -96 0
v -32 -80 0
v -16 -80 0
v -32 -96 0
v -48 -96 0
v -48 -80 0
v -32 -80 0
v -48 -96 0
v -64 -96 0
v -64 -80 0
v -48 -80 0
v -64 -96 0
v -80 -96 0
v -80 -80 0
v -64 -80 0
v -80 -96 0
v -96 -96 0
v -96 -80 0
v -80 -80 0
v -96 -96 0
v -112 -96 0
v -112 -80 0
v -96 -80 0
v -112 -96 0
v -128 -96 0
v -128 -80 0
v -112 -80 0
v -128 -96 0
v -144 -96 0
v -144 -80 0
v -128 -80 0
v -144 -96 0
v -160 -96 0
v -160 -80 0
v -144 -80 0
v -160 -96 0
v -176 -96 0
v -176 -80 0
v -160 -80 0
v -176 -96 0
v -192 -96 0
v -192 -80 0
v -176 -80 0
v -192 -96 0
v -208 -96 0
v -208 -80 0
v -192 -80 0
v -208 -96 0
v -224 -96 0
v -224 -80 0
v -208 -80 0
v -224 -96 0
v -240 -96 0
v -240 -80 0
v -224 -80 0
v -240 -96 0
v -256 -96 0
v -256 -80 0
v -240 -80 0
v 0 -112 0
v -16 -112 0
v -16 -96 0
v 0 -96 0
v -16 -112 0
v -32 -112 0
v -32 -96 0
v -16 -96 0
v -32 -112 0
v -48 -112 0
v -48 -96 0
v -32 -96 0
v -48 -112 0
v -64 -112 0
v -64 -96 0
v -48 -96 0
v -64 -112 0
v -80 -112 0
v -80 -96 0
v -64 -96 0
v -80 -112 0
v -96 -112 0
v -96 -96 0
v -80 -96 0
v -96 -112 0
v -112 -112 0
v -112 -96 0
v -96 -96 0
v -112 -112 0
v -128 -112 0
v -128 -96 0
v -112 -96 0
v -128 -112 0
v -144 -112 0
v -144 -96 0
v -128 -96 0
v -144 -112 0
v -160 -112 0
v -160 -96 0
v -144 -96 0
v -160 -112 0
v -176 -112 0
v -176 -96 0
v -160 -96 0
v -176 -112 0
v -192 -112 0
v -192 -96 0
v -176 -96 0
v -192 -112 0
v -208 -112 0
v -208 -96 0
v -192 -96 0
v -208 -112 0
v -224 -112 0
v -224 -96 0
v -208 -96 0
v -224 -112 0
v -240 -112 0
v -240 -96 0
v -224 -96 0
v -240 -112 0
v -256 -112 0
v -256 -96 0
v -240 -96 0
v 0 -128 0
v -16 -128 0
v -16 -112 0
v 0 -112 0
v -16 -128 0
v -32 -128 0
v -32 -112 0
v -16 -112 0
v -32 -128 0
v -48 -128 0
v -48 -112 0
v -32 -112 0
v -48 -128 0
v -64 -128 0
v -64 -112 0
v -48 -112 0
v -64 -128 0
v -80 -128 0
v -80 -112 0
v -64 -112 0
v -80 -128 0
v -96 -128 0
v -96 -112 0
v -80 -112 0
v -96 -128 0
v -112 -128 0
v -112 -112 0
v -96 -112 0
v -112 -128 0
v -128 -128 0
v -128 -112 0
v -112 -112 0
v -128 -128 0
v -144 -128 0
v -144 -112 0
v -128 -112 0
v -144 -128 0
v -160 -128 0
v -160 -112 0
v -144 -112 0
v -160 -128 0
v -176 -128 0
v -176 -112 0
v -160 -112 0
v -176 -128 0
v -192 -128 0
v -192 -112 0
v -176 -112 0
v -192 -128 0
v -208 -128 0
v -208 -112 0
v -192 -112 0
v -208 -128 0
v -224 -128 0
v -224 -112 0
v -208 -112 0
v -224 -128 0
v -240 -128 0
v -240 -112 0
v -224 -112 0
v -240 -128 0
v -256 -128 0
v -256 -112 0
v -240 -112 0
v 0 -144 0
v -16 -144 0
v -16 -128 0
v 0 -128 0
v -16 -144 0
v -32 -144 0
v -32 -128 0
v -16 -128 0
v -32 -144 0
v -48 -144 0
v -48 -128 0
v -32 -128 0
v -48 -144 0
v -64 -144 0
v -64 -128 0
v -48 -128 0
v -64 -144 0
v -80 -144 0
v -80 -128 0
v -64 -128 0
v -80 -144 0
v -96 -144 0
v -96 -128 0
v -80 -128 0
v -96 -144 0
v -112 -144 0
v -112 -128 0
v -96 -128 0
v -112 -144 0
v -128 -144 0
v -128 -128 0
v -112 -128 0
v -128 -144 0
v -144 -144 0
v -144 -128 0
v -128 -128 0
v -144 -144 0
v -160 -144 0
v -160 -128 0
v -144 -128 0
v -160 -144 0
v -176 -144 0
v -176 -128 0
v -160 -128 0
v -176 -144 0
v -192 -144 0
v -192 -128 0
v -176 -128 0
v -192 -144 0
v -208 -144 0
v -208 -128 0
v -192 -128 0
v -208 -144 0
v -224 -144 0
v -224 -128 0
v -208 -128 0
v -224 -144 0
v -240 -144 0
v -240 -128 0
v -224 -128 0
v -240 -144 0
v -256 -144 0
v -256 -128 0
v -240 -128 0
v 0 -160 0
v -16 -160 0
v -16 -144 0
v 0 -144 0
v -16 -160 0
v -32 -160 0
v -32 -144 0
v -16 -144 0
v -32 -160 0
v -48 -160 0
v -48 -144 0
v -32 -144 0
v -48 -160 0
v -64 -160 0
v -64 -144 0
v -48 -144 0
v -64 -160 0
v -80 -160 0
v -80 -144 0
v -64 -144 0
v -80 -160 0
v -96 -160 0
v -96 -144 0
v -80 -144 0
v -96 -160 0
v -112 -160 0
v -112 -144 0
v -96 -144 0
v -112 -160 0
v -128 -160 0
v -128 -144 0
v -112 -144 0
v -128 -160 0
v -144 -160 0
v -144 -144 0
v -128 -144 0
v -144 -160 0
v -160 -160 0
v -160 -144 0
v -144 -144 0
v -160 -160 0
v -176 -160 0
v -176 -144 0
v -160 -144 0
v -176 -160 0
v -192 -160 0
v -192 -144 0
v -176 -144 0
v -192 -160 0
v -208 -160 0
v -208 -144 0
v -192 -144 0
v -208 -160 0
v -224 -160 0
v -224 -144 0
v -208 -144 0
v -224 -160 0
v -240 -160 0
v -240 -144 0
v -224 -144 0
v -240 -160 0
v -256 -160 0
v -256 -144 0
v -240 -144 0
v 0 -176 0
v -16 -176 0
v -16 -160 0
v 0 -160 0
v -16 -176 0
v -32 -176 0
v -32 -160 0
v -16 -160 0
v -32 -176 0
v -48 -176 0
v -48 -160 0
v -32 -160 0
v -48 -176 0
v -64 -176 0
v -64 -160 0
v -48 -160 0
v -64 -176 0
v -80 -176 0
v -80 -160 0
v -64 -160 0
v -80 -176 0
v -96 -176 0
v -96 -160 0
v -80 -160 0
v -96 -176 0
v -112 -176 0
v -112 -160 0
v -96 -160 0
v -112 -176 0
v -128 -176 0
v -128 -160 0
v -112 -160 0
v -128 -176 0
v -144 -176 0
v -144 -160 0
v -128 -160 0
v -144 -176 0
v -160 -176 0
v -160 -160 0
v -144 -160 0
v -160 -176 0
v -176 -176 0
v -176 -160 0
v -160 -160 0
v -176 -176 0
v -192 -176 0
v -192 -160 0
v -176 -160 0
v -192 -176 0
v -208 -176 0
v -208 -160 0
v -192 -160 0
v -208 -176 0
v -224 -176 0
v -224 -160 0
v -208 -160 0
v -224 -176 0
v -240 -176 0
v -240 -160 0
v -224 -160 0
v -240 -176 0
v -256 -176 0
v -256 -160 0
v -240 -160 0
v 0 -192 0
v -16 -192 0
v -16 -176 0
v 0 -176 0
v -16 -192 0
v -32 -192 0
v -32 -176 0
v -16 -176 0
v -32 -192 0
v -48 -192 0
v -48 -176 0
v -32 -176 0
v -48 -192 0
v -64 -192 0
v -64 -176 0
v -48 -176 0
v -64 -192 0
v -80 -192 0
v -80 -176 0
v -64 -176 0
v -80 -192 0
v -96 -192 0
v -96 -176 0
v -80 -176 0
v -96 -192 0
v -112 -192 0
v -112 -176 0
v -96 -176 0
v -112 -192 0
v -128 -192 0
v -128 -176 0
v -112 -176 0
v -128 -192 0
v -144 -192 0
v -144 -176 0
v -128 -176 0
v -144 -192 0
v -160 -192 0
v -160 -176 0
v -144 -176 0
v -160 -192 0
v -176 -192 0
v -176 -176 0
v -160 -176 0
v -176 -192 0
v -192 -192 0
v -192 -176 0
v -176 -176 0
v -192 -192 0
v -208 -192 0
v -208 -176 0
v -192 -176 0
v -208 -192 0
v -224 -192 0
v -224 -176 0
v -208 -176 0
v -224 -192 0
v -240 -192 0
v -240 -176 0
v -224 -176 0
v -240 -192 0
v -256 -192 0
v -256 -176 0
v -240 -176 0
v 0 -208 0
v -16 -208 0
v -16 -192 0
v 0 -192 0
v -16 -208 0
v -32 -208 0
v -32 -192 0
v -16 -192 0
v -32 -208 0
v -48 -208 0
v -48 -192 0
v -32 -192 0
v -48 -208 0
v -64 -208 0
v -64 -192 0
v -48 -192 0
v -64 -208 0
v -80 -208 0
v -80 -192 0
v -64 -192 0
v -80 -208 0
v -96 -208 0
v -96 -192 0
v -80 -192 0
v -96 -208 0
v -112 -208 0
v -112 -192 0
v -96 -192 0
v -112 -208 0
v -128 -208 0
v -128 -192 0
v -112 -192 0
v -128 -208 0
v -144 -208 0
v -144 -192 0
v -128 -192 0
v -144 -208 0
v -160 -208 0
v -160 -192 0
v -144 -192 0
v -160 -208 0
v -176 -208 0
v -176 -192 0
v -160 -192 0
v -176 -208 0
v -192 -208 0
v -192 -192 0
v -176 -192 0
v -192 -208 0
v -208 -208 0
v -208 -192 0
v -192 -192 0
v -208 -208 0
v -224 -208 0
v -224 -192 0
v -208 -192 0
v -224 -208 0
v -240 -208 0
v -240 -192 0
v -224 -192 0
v -240 -208 0
v -256 -208 0
v -256 -192 0
v -240 -192 0
v 0 -224 0
v -16 -224 0
v -16 -208 0
v 0 -208 0
v -16 -224 0
v -32 -224 0
v -32 -208 0
v -16 -208 0
v -32 -224 0
v -48 -224 0
v -48 -208 0
v -32 -208 0
v -48 -224 0
v -64 -224 0
v -64 -208 0
v -48 -208 0
v -64 -224 0
v -80 -224 0
v -80 -208 0
v -64 -208 0
v -80 -224 0
v -96 -224 0
v -96 -208 0
v -80 -208 0
v -96 -224 0
v -112 -224 0
v -112 -208 0
v -96 -208 0
v -112 -224 0
v -128 -224 0
v -128 -208 0
v -112 -208 0
v -128 -224 0
v -144 -224 0
v -144 -208 0
v -128 -208 0
v -144 -224 0
v -160 -224 0
v -160 -208 0
v -144 -208 0
v -160 -224 0
v -176 -224 0
v -176 -208 0
v -160 -208 0
v -176 -224 0
v -192 -224 0
v -192 -208 0
v -176 -208 0
v -192 -224 0
v -208 -224 0
v -208 -208 0
v -192 -208 0
v -208 -224 0
v -224 -224 0
v -224 -208 0
v -208 -208 0
v -224 -224 0
v -240 -224 0
v -240 -208 0
v -224 -208 0
v -240 -224 0
v -256 -224 0
v -256 -208 0
v -240 -208 0
v 0 -240 0
v -16 -240 0
v -16 -224 0
v 0 -224 0
v -16 -240 0
v -32 -240 0
v -32 -224 0
v -16 -224 0
v -32 -240 0
v -48 -240 0
v -48 -224 0
v -32 -224 0
v -48 -240 0
v -64 -240 0
v -64 -224 0
v -48 -224 0
v -64 -240 0
v -80 -240 0
v -80 -224 0
v -64 -224 0
v -80 -240 0
v -96 -240 0
v -96 -224 0
v -80 -224 0
v -96 -240 0
v -112 -240 0
v -112 -224 0
v -96 -224 0
v -112 -240 0
v -128 -240 0
v -128 -224 0
v -112 -224 0
v -128 -240 0
v -144 -240 0
v -144 -224 0
v -128 -224 0
v -144 -240 0
v -160 -240 0
v -160 -224 0
v -144 -224 0
v -160 -240 0
v -176 -240 0
v -176 -224 0
v -160 -224 0
v -176 -240 0
v -192 -240 0
v -192 -224 0
v -176 -224 0
v -192 -240 0
v -208 -240 0
v -208 -224 0
v -192 -224 0
v -208 -240 0
v -224 -240 0
v -224 -224 0
v -208 -224 0
v -224 -240 0
v -240 -240 0
v -240 -224 0
v -224 -224 0
v -240 -240 0
v -256 -240 0
v -256 -224 0
v -240 -224 0
v 0 -256 0
v -16 -256 0
v -16 -240 0
v 0 -240 0
v -16 -256 0
v -32 -256 0
v -32 -240 0
v -16 -240 0
v -32 -256 0
v -48 -256 0
v -48 -240 0
v -32 -240 0
v -48 -256 0
v -64 -256 0
v -64 -240 0
v -48 -240 0
v -64 -256 0
v -80 -256 0
v -80 -240 0
v -64 -240 0
v -80 -256 0
v -96 -256 0
v -96 -240 0
v -80 -240 0
v -96 -256 0
v -112 -256 0
v -112 -240 0
v -96 -240 0
v -112 -256 0
v -128 -256 0
v -128 -240 0
v -112 -240 0
v -128 -256 0
v -144 -256 0
v -144 -240 0
v -128 -240 0
v -144 -256 0
v -160 -256 0
v -160 -240 0
v -144 -240 0
v -160 -256 0
v -176 -256 0
v -176 -240 0
v -160 -240 0
v -176 -256 0
v -192 -256 0
v -192 -240 0
v -176 -240 0
v -192 -256 0
v -208 -256 0
v -208 -240 0
v -192 -240 0
v -208 -256 0
v -224 -256 0
v -224 -240 0
v -208 -240 0
v -224 -256 0
v -240 -256 0
v -240 -240 0
v -224 -240 0
v -240 -256 0
v -256 -256 0
v -256 -240 0
v -240 -240 0

# Texture cooridinates (Count = 20)
vt 0.6170213 0.625
vt 0.6276596 0.625
vt 0.6276596 0.6875
vt 0.6170213 0.6875
vt 0.6382979 0.625
vt 0.6382979 0.6875
vt 0.606383 0.625
vt 0.606383 0.6875
vt 0.6170213 0.8125
vt 0.6276596 0.8125
vt 0.6276596 0.875
vt 0.6170213 0.875
vt 0.6382979 0.8125
vt 0.6382979 0.875
vt 0.606383 0.8125
vt 0.606383 0.875
vt 0.6170213 0.75
vt 0.6276596 0.75
vt 0.6382979 0.75
vt 0.606383 0.75

# Normal
vn 0 0 -1

# Mesh description
g 2ScenarioPlataforma_mesh_0969

# Faces
f 1/1/1 2/2/1 3/3/1 4/4/1
f 5/2/1 6/5/1 7/6/1 8/3/1
f 9/7/1 10/1/1 11/4/1 12/8/1
f 13/1/1 14/2/1 15/3/1 16/4/1
f 17/2/1 18/5/1 19/6/1 20/3/1
f 21/7/1 22/1/1 23/4/1 24/8/1
f 25/1/1 26/2/1 27/3/1 28/4/1
f 29/2/1 30/5/1 31/6/1 32/3/1
f 33/7/1 34/1/1 35/4/1 36/8/1
f 37/1/1 38/2/1 39/3/1 40/4/1
f 41/2/1 42/5/1 43/6/1 44/3/1
f 45/7/1 46/1/1 47/4/1 48/8/1
f 49/1/1 50/2/1 51/3/1 52/4/1
f 53/2/1 54/5/1 55/6/1 56/3/1
f 57/7/1 58/1/1 59/4/1 60/8/1
f 61/1/1 62/2/1 63/3/1 64/4/1
f 65/9/1 66/10/1 67/11/1 68/12/1
f 69/10/1 70/13/1 71/14/1 72/11/1
f 73/15/1 74/9/1 75/12/1 76/16/1
f 77/9/1 78/10/1 79/11/1 80/12/1
f 81/10/1 82/13/1 83/14/1 84/11/1
f 85/15/1 86/9/1 87/12/1 88/16/1
f 89/9/1 90/10/1 91/11/1 92/12/1
f 93/10/1 94/13/1 95/14/1 96/11/1
f 97/15/1 98/9/1 99/12/1 100/16/1
f 101/9/1 102/10/1 103/11/1 104/12/1
f 105/10/1 106/13/1 107/14/1 108/11/1
f 109/15/1 110/9/1 111/12/1 112/16/1
f 113/9/1 114/10/1 115/11/1 116/12/1
f 117/10/1 118/13/1 119/14/1 120/11/1
f 121/15/1 122/9/1 123/12/1 124/16/1
f 125/9/1 126/10/1 127/11/1 128/12/1
f 129/17/1 130/18/1 131/10/1 132/9/1
f 133/18/1 134/19/1 135/13/1 136/10/1
f 137/20/1 138/17/1 139/9/1 140/15/1
f 141/17/1 142/18/1 143/10/1 144/9/1
f 145/18/1 146/19/1 147/13/1 148/10/1
f 149/20/1 150/17/1 151/9/1 152/15/1
f 153/17/1 154/18/1 155/10/1 156/9/1
f 157/18/1 158/19/1 159/13/1 160/10/1
f 161/20/1 162/17/1 163/9/1 164/15/1
f 165/17/1 166/18/1 167/10/1 168/9/1
f 169/18/1 170/19/1 171/13/1 172/10/1
f 173/20/1 174/17/1 175/9/1 176/15/1
f 177/17/1 178/18/1 179/10/1 180/9/1
f 181/18/1 182/19/1 183/13/1 184/10/1
f 185/20/1 186/17/1 187/9/1 188/15/1
f 189/17/1 190/18/1 191/10/1 192/9/1
f 193/4/1 194/3/1 195/18/1 196/17/1
f 197/3/1 198/6/1 199/19/1 200/18/1
f 201/8/1 202/4/1 203/17/1 204/20/1
f 205/4/1 206/3/1 207/18/1 208/17/1
f 209/3/1 210/6/1 211/19/1 212/18/1
f 213/8/1 214/4/1 215/17/1 216/20/1
f 217/4/1 218/3/1 219/18/1 220/17/1
f 221/3/1 222/6/1 223/19/1 224/18/1
f 225/8/1 226/4/1 227/17/1 228/20/1
f 229/4/1 230/3/1 231/18/1 232/17/1
f 233/3/1 234/6/1 235/19/1 236/18/1
f 237/8/1 238/4/1 239/17/1 240/20/1
f 241/4/1 242/3/1 243/18/1 244/17/1
f 245/3/1 246/6/1 247/19/1 248/18/1
f 249/8/1 250/4/1 251/17/1 252/20/1
f 253/4/1 254/3/1 255/18/1 256/17/1
f 257/1/1 258/2/1 259/3/1 260/4/1
f 261/2/1 262/5/1 263/6/1 264/3/1
f 265/7/1 266/1/1 267/4/1 268/8/1
f 269/1/1 270/2/1 271/3/1 272/4/1
f 273/2/1 274/5/1 275/6/1 276/3/1
f 277/7/1 278/1/1 279/4/1 280/8/1
f 281/1/1 282/2/1 283/3/1 284/4/1
f 285/2/1 286/5/1 287/6/1 288/3/1
f 289/7/1 290/1/1 291/4/1 292/8/1
f 293/1/1 294/2/1 295/3/1 296/4/1
f 297/2/1 298/5/1 299/6/1 300/3/1
f 301/7/1 302/1/1 303/4/1 304/8/1
f 305/1/1 306/2/1 307/3/1 308/4/1
f 309/2/1 310/5/1 311/6/1 312/3/1
f 313/7/1 314/1/1 315/4/1 316/8/1
f 317/1/1 318/2/1 319/3/1 320/4/1
f 321/9/1 322/10/1 323/11/1 324/12/1
f 325/10/1 326/13/1 327/14/1 328/11/1
f 329/15/1 330/9/1 331/12/1 332/16/1
f 333/9/1 334/10/1 335/11/1 336/12/1
f 337/10/1 338/13/1 339/14/1 340/11/1
f 341/15/1 342/9/1 343/12/1 344/16/1
f 345/9/1 346/10/1 347/11/1 348/12/1
f 349/10/1 350/13/1 351/14/1 352/11/1
f 353/15/1 354/9/1 355/12/1 356/16/1
f 357/9/1 358/10/1 359/11/1 360/12/1
f 361/10/1 362/13/1 363/14/1 364/11/1
f 365/15/1 366/9/1 367/12/1 368/16/1
f 369/9/1 370/10/1 371/11/1 372/12/1
f 373/10/1 374/13/1 375/14/1 376/11/1
f 377/15/1 378/9/1 379/12/1 380/16/1
f 381/9/1 382/10/1 383/11/1 384/12/1
f 385/17/1 386/18/1 387/10/1 388/9/1
f 389/18/1 390/19/1 391/13/1 392/10/1
f 393/20/1 394/17/1 395/9/1 396/15/1
f 397/17/1 398/18/1 399/10/1 400/9/1
f 401/18/1 402/19/1 403/13/1 404/10/1
f 405/20/1 406/17/1 407/9/1 408/15/1
f 409/17/1 410/18/1 411/10/1 412/9/1
f 413/18/1 414/19/1 415/13/1 416/10/1
f 417/20/1 418/17/1 419/9/1 420/15/1
f 421/17/1 422/18/1 423/10/1 424/9/1
f 425/18/1 426/19/1 427/13/1 428/10/1
f 429/20/1 430/17/1 431/9/1 432/15/1
f 433/17/1 434/18/1 435/10/1 436/9/1
f 437/18/1 438/19/1 439/13/1 440/10/1
f 441/20/1 442/17/1 443/9/1 444/15/1
f 445/17/1 446/18/1 447/10/1 448/9/1
f 449/4/1 450/3/1 451/18/1 452/17/1
f 453/3/1 454/6/1 455/19/1 456/18/1
f 457/8/1 458/4/1 459/17/1 460/20/1
f 461/4/1 462/3/1 463/18/1 464/17/1
f 465/3/1 466/6/1 467/19/1 468/18/1
f 469/8/1 470/4/1 471/17/1 472/20/1
f 473/4/1 474/3/1 475/18/1 476/17/1
f 477/3/1 478/6/1 479/19/1 480/18/1
f 481/8/1 482/4/1 483/17/1 484/20/1
f 485/4/1 486/3/1 487/18/1 488/17/1
f 489/3/1 490/6/1 491/19/1 492/18/1
f 493/8/1 494/4/1 495/17/1 496/20/1
f 497/4/1 498/3/1 499/18/1 500/17/1
f 501/3/1 502/6/1 503/19/1 504/18/1
f 505/8/1 506/4/1 507/17/1 508/20/1
f 509/4/1 510/3/1 511/18/1 512/17/1
f 513/1/1 514/2/1 515/3/1 516/4/1
f 517/2/1 518/5/1 519/6/1 520/3/1
f 521/7/1 522/1/1 523/4/1 524/8/1
f 525/1/1 526/2/1 527/3/1 528/4/1
f 529/2/1 530/5/1 531/6/1 532/3/1
f 533/7/1 534/1/1 535/4/1 536/8/1
f 537/1/1 538/2/1 539/3/1 540/4/1
f 541/2/1 542/5/1 543/6/1 544/3/1
f 545/7/1 546/1/1 547/4/1 548/8/1
f 549/1/1 550/2/1 551/3/1 552/4/1
f 553/2/1 554/5/1 555/6/1 556/3/1
f 557/7/1 558/1/1 559/4/1 560/8/1
f 561/1/1 562/2/1 563/3/1 564/4/1
f 565/2/1 566/5/1 567/6/1 568/3/1
f 569/7/1 570/1/1 571/4/1 572/8/1
f 573/1/1 574/2/1 575/3/1 576/4/1
f 577/9/1 578/10/1 579/11/1 580/12/1
f 581/10/1 582/13/1 583/14/1 584/11/1
f 585/15/1 586/9/1 587/12/1 588/16/1
f 589/9/1 590/10/1 591/11/1 592/12/1
f 593/10/1 594/13/1 595/14/1 596/11/1
f 597/15/1 598/9/1 599/12/1 600/16/1
f 601/9/1 602/10/1 603/11/1 604/12/1
f 605/10/1 606/13/1 607/14/1 608/11/1
f 609/15/1 610/9/1 611/12/1 612/16/1
f 613/9/1 614/10/1 615/11/1 616/12/1
f 617/10/1 618/13/1 619/14/1 620/11/1
f 621/15/1 622/9/1 623/12/1 624/16/1
f 625/9/1 626/10/1 627/11/1 628/12/1
f 629/10/1 630/13/1 631/14/1 632/11/1
f 633/15/1 634/9/1 635/12/1 636/16/1
f 637/9/1 638/10/1 639/11/1 640/12/1
f 641/17/1 642/18/1 643/10/1 644/9/1
f 645/18/1 646/19/1 647/13/1 648/10/1
f 649/20/1 650/17/1 651/9/1 652/15/1
f 653/17/1 654/18/1 655/10/1 656/9/1
f 657/18/1 658/19/1 659/13/1 660/10/1
f 661/20/1 662/17/1 663/9/1 664/15/1
f 665/17/1 666/18/1 667/10/1 668/9/1
f 669/18/1 670/19/1 671/13/1 672/10/1
f 673/20/1 674/17/1 675/9/1 676/15/1
f 677/17/1 678/18/1 679/10/1 680/9/1
f 681/18/1 682/19/1 683/13/1 684/10/1
f 685/20/1 686/17/1 687/9/1 688/15/1
f 689/17/1 690/18/1 691/10/1 692/9/1
f 693/18/1 694/19/1 695/13/1 696/10/1
f 697/20/1 698/17/1 699/9/1 700/15/1
f 701/17/1 702/18/1 703/10/1 704/9/1
f 705/4/1 706/3/1 707/18/1 708/17/1
f 709/3/1 710/6/1 711/19/1 712/18/1
f 713/8/1 714/4/1 715/17/1 716/20/1
f 717/4/1 718/3/1 719/18/1 720/17/1
f 721/3/1 722/6/1 723/19/1 724/18/1
f 725/8/1 726/4/1 727/17/1 728/20/1
f 729/4/1 730/3/1 731/18/1 732/17/1
f 733/3/1 734/6/1 735/19/1 736/18/1
f 737/8/1 738/4/1 739/17/1 740/20/1
f 741/4/1 742/3/1 743/18/1 744/17/1
f 745/3/1 746/6/1 747/19/1 748/18/1
f 749/8/1 750/4/1 751/17/1 752/20/1
f 753/4/1 754/3/1 755/18/1 756/17/1
f 757/3/1 758/6/1 759/19/1 760/18/1
f 761/8/1 762/4/1 763/17/1 764/20/1
f 765/4/1 766/3/1 767/18/1 768/17/1
f 769/1/1 770/2/1 771/3/1 772/4/1
f 773/2/1 774/5/1 775/6/1 776/3/1
f 777/7/1 778/1/1 779/4/1 780/8/1
f 781/1/1 782/2/1 783/3/1 784/4/1
f 785/2/1 786/5/1 787/6/1 788/3/1
f 789/7/1 790/1/1 791/4/1 792/8/1
f 793/1/1 794/2/1 795/3/1 796/4/1
f 797/2/1 798/5/1 799/6/1 800/3/1
f 801/7/1 802/1/1 803/4/1 804/8/1
f 805/1/1 806/2/1 807/3/1 808/4/1
f 809/2/1 810/5/1 811/6/1 812/3/1
f 813/7/1 814/1/1 815/4/1 816/8/1
f 817/1/1 818/2/1 819/3/1 820/4/1
f 821/2/1 822/5/1 823/6/1 824/3/1
f 825/7/1 826/1/1 827/4/1 828/8/1
f 829/1/1 830/2/1 831/3/1 832/4/1
f 833/9/1 834/10/1 835/11/1 836/12/1
f 837/10/1 838/13/1 839/14/1 840/11/1
f 841/15/1 842/9/1 843/12/1 844/16/1
f 845/9/1 846/10/1 847/11/1 848/12/1
f 849/10/1 850/13/1 851/14/1 852/11/1
f 853/15/1 854/9/1 855/12/1 856/16/1
f 857/9/1 858/10/1 859/11/1 860/12/1
f 861/10/1 862/13/1 863/14/1 864/11/1
f 865/15/1 866/9/1 867/12/1 868/16/1
f 869/9/1 870/10/1 871/11/1 872/12/1
f 873/10/1 874/13/1 875/14/1 876/11/1
f 877/15/1 878/9/1 879/12/1 880/16/1
f 881/9/1 882/10/1 883/11/1 884/12/1
f 885/10/1 886/13/1 887/14/1 888/11/1
f 889/15/1 890/9/1 891/12/1 892/16/1
f 893/9/1 894/10/1 895/11/1 896/12/1
f 897/15/1 898/9/1 899/12/1 900/16/1
f 901/15/1 902/9/1 903/12/1 904/16/1
f 905/15/1 906/9/1 907/12/1 908/16/1
f 909/9/1 910/10/1 911/11/1 912/12/1
f 913/10/1 914/13/1 915/14/1 916/11/1
f 917/20/1 918/17/1 919/9/1 920/15/1
f 921/17/1 922/18/1 923/10/1 924/9/1
f 925/18/1 926/19/1 927/13/1 928/10/1
f 929/20/1 930/17/1 931/9/1 932/15/1
f 933/17/1 934/18/1 935/10/1 936/9/1
f 937/18/1 938/19/1 939/13/1 940/10/1
f 941/20/1 942/17/1 943/9/1 944/15/1
f 945/17/1 946/18/1 947/10/1 948/9/1
f 949/18/1 950/19/1 951/13/1 952/10/1
f 953/20/1 954/17/1 955/9/1 956/15/1
f 957/17/1 958/18/1 959/10/1 960/9/1
f 961/20/1 962/17/1 963/9/1 964/15/1
f 965/20/1 966/17/1 967/9/1 968/15/1
f 969/20/1 970/17/1 971/9/1 972/15/1
f 973/15/1 974/9/1 975/12/1 976/16/1
f 977/15/1 978/9/1 979/12/1 980/16/1
f 981/15/1 982/9/1 983/12/1 984/16/1
f 985/15/1 986/9/1 987/12/1 988/16/1
f 989/15/1 990/9/1 991/12/1 992/16/1
f 993/15/1 994/9/1 995/12/1 996/16/1
f 997/15/1 998/9/1 999/12/1 1000/16/1
f 1001/15/1 1002/9/1 1003/12/1 1004/16/1
f 1005/15/1 1006/9/1 1007/12/1 1008/16/1
f 1009/15/1 1010/9/1 1011/12/1 1012/16/1
f 1013/15/1 1014/9/1 1015/12/1 1016/16/1
f 1017/15/1 1018/9/1 1019/12/1 1020/16/1
f 1021/15/1 1022/9/1 1023/12/1 1024/16/1

