# Tiled2Unity generated file. Do not modify by hand.
# Wavefront file for '2ScenarioPlataforma_mesh_0988.obj'

# Vertices (Count = 988)
v -80 -16 0
v -96 -16 0
v -96 0 0
v -80 0 0
v -96 -16 0
v -112 -16 0
v -112 0 0
v -96 0 0
v -112 -16 0
v -128 -16 0
v -128 0 0
v -112 0 0
v -128 -16 0
v -144 -16 0
v -144 0 0
v -128 0 0
v -144 -16 0
v -160 -16 0
v -160 0 0
v -144 0 0
v -160 -16 0
v -176 -16 0
v -176 0 0
v -160 0 0
v -176 -16 0
v -192 -16 0
v -192 0 0
v -176 0 0
v -192 -16 0
v -208 -16 0
v -208 0 0
v -192 0 0
v -208 -16 0
v -224 -16 0
v -224 0 0
v -208 0 0
v -224 -16 0
v -240 -16 0
v -240 0 0
v -224 0 0
v -240 -16 0
v -256 -16 0
v -256 0 0
v -240 0 0
v -64 -32 0
v -80 -32 0
v -80 -16 0
v -64 -16 0
v -80 -32 0
v -96 -32 0
v -96 -16 0
v -80 -16 0
v -96 -32 0
v -112 -32 0
v -112 -16 0
v -96 -16 0
v -112 -32 0
v -128 -32 0
v -128 -16 0
v -112 -16 0
v -128 -32 0
v -144 -32 0
v -144 -16 0
v -128 -16 0
v -144 -32 0
v -160 -32 0
v -160 -16 0
v -144 -16 0
v -160 -32 0
v -176 -32 0
v -176 -16 0
v -160 -16 0
v -176 -32 0
v -192 -32 0
v -192 -16 0
v -176 -16 0
v -192 -32 0
v -208 -32 0
v -208 -16 0
v -192 -16 0
v -208 -32 0
v -224 -32 0
v -224 -16 0
v -208 -16 0
v -224 -32 0
v -240 -32 0
v -240 -16 0
v -224 -16 0
v -240 -32 0
v -256 -32 0
v -256 -16 0
v -240 -16 0
v 0 -48 0
v -16 -48 0
v -16 -32 0
v 0 -32 0
v -16 -48 0
v -32 -48 0
v -32 -32 0
v -16 -32 0
v -32 -48 0
v -48 -48 0
v -48 -32 0
v -32 -32 0
v -48 -48 0
v -64 -48 0
v -64 -32 0
v -48 -32 0
v -64 -48 0
v -80 -48 0
v -80 -32 0
v -64 -32 0
v -80 -48 0
v -96 -48 0
v -96 -32 0
v -80 -32 0
v -96 -48 0
v -112 -48 0
v -112 -32 0
v -96 -32 0
v -112 -48 0
v -128 -48 0
v -128 -32 0
v -112 -32 0
v -128 -48 0
v -144 -48 0
v -144 -32 0
v -128 -32 0
v -144 -48 0
v -160 -48 0
v -160 -32 0
v -144 -32 0
v -160 -48 0
v -176 -48 0
v -176 -32 0
v -160 -32 0
v -176 -48 0
v -192 -48 0
v -192 -32 0
v -176 -32 0
v -192 -48 0
v -208 -48 0
v -208 -32 0
v -192 -32 0
v -208 -48 0
v -224 -48 0
v -224 -32 0
v -208 -32 0
v -224 -48 0
v -240 -48 0
v -240 -32 0
v -224 -32 0
v -240 -48 0
v -256 -48 0
v -256 -32 0
v -240 -32 0
v 0 -64 0
v -16 -64 0
v -16 -48 0
v 0 -48 0
v -16 -64 0
v -32 -64 0
v -32 -48 0
v -16 -48 0
v -32 -64 0
v -48 -64 0
v -48 -48 0
v -32 -48 0
v -48 -64 0
v -64 -64 0
v -64 -48 0
v -48 -48 0
v -64 -64 0
v -80 -64 0
v -80 -48 0
v -64 -48 0
v -80 -64 0
v -96 -64 0
v -96 -48 0
v -80 -48 0
v -96 -64 0
v -112 -64 0
v -112 -48 0
v -96 -48 0
v -112 -64 0
v -128 -64 0
v -128 -48 0
v -112 -48 0
v -128 -64 0
v -144 -64 0
v -144 -48 0
v -128 -48 0
v -144 -64 0
v -160 -64 0
v -160 -48 0
v -144 -48 0
v -160 -64 0
v -176 -64 0
v -176 -48 0
v -160 -48 0
v -176 -64 0
v -192 -64 0
v -192 -48 0
v -176 -48 0
v -192 -64 0
v -208 -64 0
v -208 -48 0
v -192 -48 0
v -208 -64 0
v -224 -64 0
v -224 -48 0
v -208 -48 0
v -224 -64 0
v -240 -64 0
v -240 -48 0
v -224 -48 0
v -240 -64 0
v -256 -64 0
v -256 -48 0
v -240 -48 0
v 0 -80 0
v -16 -80 0
v -16 -64 0
v 0 -64 0
v -16 -80 0
v -32 -80 0
v -32 -64 0
v -16 -64 0
v -32 -80 0
v -48 -80 0
v -48 -64 0
v -32 -64 0
v -48 -80 0
v -64 -80 0
v -64 -64 0
v -48 -64 0
v -64 -80 0
v -80 -80 0
v -80 -64 0
v -64 -64 0
v -80 -80 0
v -96 -80 0
v -96 -64 0
v -80 -64 0
v -96 -80 0
v -112 -80 0
v -112 -64 0
v -96 -64 0
v -112 -80 0
v -128 -80 0
v -128 -64 0
v -112 -64 0
v -128 -80 0
v -144 -80 0
v -144 -64 0
v -128 -64 0
v -144 -80 0
v -160 -80 0
v -160 -64 0
v -144 -64 0
v -160 -80 0
v -176 -80 0
v -176 -64 0
v -160 -64 0
v -176 -80 0
v -192 -80 0
v -192 -64 0
v -176 -64 0
v -192 -80 0
v -208 -80 0
v -208 -64 0
v -192 -64 0
v -208 -80 0
v -224 -80 0
v -224 -64 0
v -208 -64 0
v -224 -80 0
v -240 -80 0
v -240 -64 0
v -224 -64 0
v -240 -80 0
v -256 -80 0
v -256 -64 0
v -240 -64 0
v 0 -96 0
v -16 -96 0
v -16 -80 0
v 0 -80 0
v -16 -96 0
v -32 -96 0
v -32 -80 0
v -16 -80 0
v -32 -96 0
v -48 -96 0
v -48 -80 0
v -32 -80 0
v -48 -96 0
v -64 -96 0
v -64 -80 0
v -48 -80 0
v -64 -96 0
v -80 -96 0
v -80 -80 0
v -64 -80 0
v -80 -96 0
v -96 -96 0
v -96 -80 0
v -80 -80 0
v -96 -96 0
v -112 -96 0
v -112 -80 0
v -96 -80 0
v -112 -96 0
v -128 -96 0
v -128 -80 0
v -112 -80 0
v -128 -96 0
v -144 -96 0
v -144 -80 0
v -128 -80 0
v -144 -96 0
v -160 -96 0
v -160 -80 0
v -144 -80 0
v -160 -96 0
v -176 -96 0
v -176 -80 0
v -160 -80 0
v -176 -96 0
v -192 -96 0
v -192 -80 0
v -176 -80 0
v -192 -96 0
v -208 -96 0
v -208 -80 0
v -192 -80 0
v -208 -96 0
v -224 -96 0
v -224 -80 0
v -208 -80 0
v -224 -96 0
v -240 -96 0
v -240 -80 0
v -224 -80 0
v -240 -96 0
v -256 -96 0
v -256 -80 0
v -240 -80 0
v 0 -112 0
v -16 -112 0
v -16 -96 0
v 0 -96 0
v -16 -112 0
v -32 -112 0
v -32 -96 0
v -16 -96 0
v -32 -112 0
v -48 -112 0
v -48 -96 0
v -32 -96 0
v -48 -112 0
v -64 -112 0
v -64 -96 0
v -48 -96 0
v -64 -112 0
v -80 -112 0
v -80 -96 0
v -64 -96 0
v -80 -112 0
v -96 -112 0
v -96 -96 0
v -80 -96 0
v -96 -112 0
v -112 -112 0
v -112 -96 0
v -96 -96 0
v -112 -112 0
v -128 -112 0
v -128 -96 0
v -112 -96 0
v -128 -112 0
v -144 -112 0
v -144 -96 0
v -128 -96 0
v -144 -112 0
v -160 -112 0
v -160 -96 0
v -144 -96 0
v -160 -112 0
v -176 -112 0
v -176 -96 0
v -160 -96 0
v -176 -112 0
v -192 -112 0
v -192 -96 0
v -176 -96 0
v -192 -112 0
v -208 -112 0
v -208 -96 0
v -192 -96 0
v -208 -112 0
v -224 -112 0
v -224 -96 0
v -208 -96 0
v -224 -112 0
v -240 -112 0
v -240 -96 0
v -224 -96 0
v -240 -112 0
v -256 -112 0
v -256 -96 0
v -240 -96 0
v 0 -128 0
v -16 -128 0
v -16 -112 0
v 0 -112 0
v -16 -128 0
v -32 -128 0
v -32 -112 0
v -16 -112 0
v -32 -128 0
v -48 -128 0
v -48 -112 0
v -32 -112 0
v -48 -128 0
v -64 -128 0
v -64 -112 0
v -48 -112 0
v -64 -128 0
v -80 -128 0
v -80 -112 0
v -64 -112 0
v -80 -128 0
v -96 -128 0
v -96 -112 0
v -80 -112 0
v -96 -128 0
v -112 -128 0
v -112 -112 0
v -96 -112 0
v -112 -128 0
v -128 -128 0
v -128 -112 0
v -112 -112 0
v -128 -128 0
v -144 -128 0
v -144 -112 0
v -128 -112 0
v -144 -128 0
v -160 -128 0
v -160 -112 0
v -144 -112 0
v -160 -128 0
v -176 -128 0
v -176 -112 0
v -160 -112 0
v -176 -128 0
v -192 -128 0
v -192 -112 0
v -176 -112 0
v -192 -128 0
v -208 -128 0
v -208 -112 0
v -192 -112 0
v -208 -128 0
v -224 -128 0
v -224 -112 0
v -208 -112 0
v -224 -128 0
v -240 -128 0
v -240 -112 0
v -224 -112 0
v -240 -128 0
v -256 -128 0
v -256 -112 0
v -240 -112 0
v 0 -144 0
v -16 -144 0
v -16 -128 0
v 0 -128 0
v -16 -144 0
v -32 -144 0
v -32 -128 0
v -16 -128 0
v -32 -144 0
v -48 -144 0
v -48 -128 0
v -32 -128 0
v -48 -144 0
v -64 -144 0
v -64 -128 0
v -48 -128 0
v -64 -144 0
v -80 -144 0
v -80 -128 0
v -64 -128 0
v -80 -144 0
v -96 -144 0
v -96 -128 0
v -80 -128 0
v -96 -144 0
v -112 -144 0
v -112 -128 0
v -96 -128 0
v -112 -144 0
v -128 -144 0
v -128 -128 0
v -112 -128 0
v -128 -144 0
v -144 -144 0
v -144 -128 0
v -128 -128 0
v -144 -144 0
v -160 -144 0
v -160 -128 0
v -144 -128 0
v -160 -144 0
v -176 -144 0
v -176 -128 0
v -160 -128 0
v -176 -144 0
v -192 -144 0
v -192 -128 0
v -176 -128 0
v -192 -144 0
v -208 -144 0
v -208 -128 0
v -192 -128 0
v -208 -144 0
v -224 -144 0
v -224 -128 0
v -208 -128 0
v -224 -144 0
v -240 -144 0
v -240 -128 0
v -224 -128 0
v -240 -144 0
v -256 -144 0
v -256 -128 0
v -240 -128 0
v 0 -160 0
v -16 -160 0
v -16 -144 0
v 0 -144 0
v -16 -160 0
v -32 -160 0
v -32 -144 0
v -16 -144 0
v -32 -160 0
v -48 -160 0
v -48 -144 0
v -32 -144 0
v -48 -160 0
v -64 -160 0
v -64 -144 0
v -48 -144 0
v -64 -160 0
v -80 -160 0
v -80 -144 0
v -64 -144 0
v -80 -160 0
v -96 -160 0
v -96 -144 0
v -80 -144 0
v -96 -160 0
v -112 -160 0
v -112 -144 0
v -96 -144 0
v -112 -160 0
v -128 -160 0
v -128 -144 0
v -112 -144 0
v -128 -160 0
v -144 -160 0
v -144 -144 0
v -128 -144 0
v -144 -160 0
v -160 -160 0
v -160 -144 0
v -144 -144 0
v -160 -160 0
v -176 -160 0
v -176 -144 0
v -160 -144 0
v -176 -160 0
v -192 -160 0
v -192 -144 0
v -176 -144 0
v -192 -160 0
v -208 -160 0
v -208 -144 0
v -192 -144 0
v -208 -160 0
v -224 -160 0
v -224 -144 0
v -208 -144 0
v -224 -160 0
v -240 -160 0
v -240 -144 0
v -224 -144 0
v -240 -160 0
v -256 -160 0
v -256 -144 0
v -240 -144 0
v 0 -176 0
v -16 -176 0
v -16 -160 0
v 0 -160 0
v -16 -176 0
v -32 -176 0
v -32 -160 0
v -16 -160 0
v -32 -176 0
v -48 -176 0
v -48 -160 0
v -32 -160 0
v -48 -176 0
v -64 -176 0
v -64 -160 0
v -48 -160 0
v -64 -176 0
v -80 -176 0
v -80 -160 0
v -64 -160 0
v -80 -176 0
v -96 -176 0
v -96 -160 0
v -80 -160 0
v -96 -176 0
v -112 -176 0
v -112 -160 0
v -96 -160 0
v -112 -176 0
v -128 -176 0
v -128 -160 0
v -112 -160 0
v -128 -176 0
v -144 -176 0
v -144 -160 0
v -128 -160 0
v -144 -176 0
v -160 -176 0
v -160 -160 0
v -144 -160 0
v -160 -176 0
v -176 -176 0
v -176 -160 0
v -160 -160 0
v -176 -176 0
v -192 -176 0
v -192 -160 0
v -176 -160 0
v -192 -176 0
v -208 -176 0
v -208 -160 0
v -192 -160 0
v -208 -176 0
v -224 -176 0
v -224 -160 0
v -208 -160 0
v -224 -176 0
v -240 -176 0
v -240 -160 0
v -224 -160 0
v -240 -176 0
v -256 -176 0
v -256 -160 0
v -240 -160 0
v 0 -192 0
v -16 -192 0
v -16 -176 0
v 0 -176 0
v -16 -192 0
v -32 -192 0
v -32 -176 0
v -16 -176 0
v -32 -192 0
v -48 -192 0
v -48 -176 0
v -32 -176 0
v -48 -192 0
v -64 -192 0
v -64 -176 0
v -48 -176 0
v -64 -192 0
v -80 -192 0
v -80 -176 0
v -64 -176 0
v -80 -192 0
v -96 -192 0
v -96 -176 0
v -80 -176 0
v -96 -192 0
v -112 -192 0
v -112 -176 0
v -96 -176 0
v -112 -192 0
v -128 -192 0
v -128 -176 0
v -112 -176 0
v -128 -192 0
v -144 -192 0
v -144 -176 0
v -128 -176 0
v -144 -192 0
v -160 -192 0
v -160 -176 0
v -144 -176 0
v -160 -192 0
v -176 -192 0
v -176 -176 0
v -160 -176 0
v -176 -192 0
v -192 -192 0
v -192 -176 0
v -176 -176 0
v -192 -192 0
v -208 -192 0
v -208 -176 0
v -192 -176 0
v -208 -192 0
v -224 -192 0
v -224 -176 0
v -208 -176 0
v -224 -192 0
v -240 -192 0
v -240 -176 0
v -224 -176 0
v -240 -192 0
v -256 -192 0
v -256 -176 0
v -240 -176 0
v 0 -208 0
v -16 -208 0
v -16 -192 0
v 0 -192 0
v -16 -208 0
v -32 -208 0
v -32 -192 0
v -16 -192 0
v -32 -208 0
v -48 -208 0
v -48 -192 0
v -32 -192 0
v -48 -208 0
v -64 -208 0
v -64 -192 0
v -48 -192 0
v -64 -208 0
v -80 -208 0
v -80 -192 0
v -64 -192 0
v -80 -208 0
v -96 -208 0
v -96 -192 0
v -80 -192 0
v -96 -208 0
v -112 -208 0
v -112 -192 0
v -96 -192 0
v -112 -208 0
v -128 -208 0
v -128 -192 0
v -112 -192 0
v -128 -208 0
v -144 -208 0
v -144 -192 0
v -128 -192 0
v -144 -208 0
v -160 -208 0
v -160 -192 0
v -144 -192 0
v -160 -208 0
v -176 -208 0
v -176 -192 0
v -160 -192 0
v -176 -208 0
v -192 -208 0
v -192 -192 0
v -176 -192 0
v -192 -208 0
v -208 -208 0
v -208 -192 0
v -192 -192 0
v -208 -208 0
v -224 -208 0
v -224 -192 0
v -208 -192 0
v -224 -208 0
v -240 -208 0
v -240 -192 0
v -224 -192 0
v -240 -208 0
v -256 -208 0
v -256 -192 0
v -240 -192 0
v 0 -224 0
v -16 -224 0
v -16 -208 0
v 0 -208 0
v -16 -224 0
v -32 -224 0
v -32 -208 0
v -16 -208 0
v -32 -224 0
v -48 -224 0
v -48 -208 0
v -32 -208 0
v -48 -224 0
v -64 -224 0
v -64 -208 0
v -48 -208 0
v -64 -224 0
v -80 -224 0
v -80 -208 0
v -64 -208 0
v -80 -224 0
v -96 -224 0
v -96 -208 0
v -80 -208 0
v -96 -224 0
v -112 -224 0
v -112 -208 0
v -96 -208 0
v -112 -224 0
v -128 -224 0
v -128 -208 0
v -112 -208 0
v -128 -224 0
v -144 -224 0
v -144 -208 0
v -128 -208 0
v -144 -224 0
v -160 -224 0
v -160 -208 0
v -144 -208 0
v -160 -224 0
v -176 -224 0
v -176 -208 0
v -160 -208 0
v -176 -224 0
v -192 -224 0
v -192 -208 0
v -176 -208 0
v -192 -224 0
v -208 -224 0
v -208 -208 0
v -192 -208 0
v -208 -224 0
v -224 -224 0
v -224 -208 0
v -208 -208 0
v -224 -224 0
v -240 -224 0
v -240 -208 0
v -224 -208 0
v -240 -224 0
v -256 -224 0
v -256 -208 0
v -240 -208 0
v 0 -240 0
v -16 -240 0
v -16 -224 0
v 0 -224 0
v -16 -240 0
v -32 -240 0
v -32 -224 0
v -16 -224 0
v -32 -240 0
v -48 -240 0
v -48 -224 0
v -32 -224 0
v -48 -240 0
v -64 -240 0
v -64 -224 0
v -48 -224 0
v -64 -240 0
v -80 -240 0
v -80 -224 0
v -64 -224 0
v -80 -240 0
v -96 -240 0
v -96 -224 0
v -80 -224 0
v -96 -240 0
v -112 -240 0
v -112 -224 0
v -96 -224 0
v -112 -240 0
v -128 -240 0
v -128 -224 0
v -112 -224 0
v -128 -240 0
v -144 -240 0
v -144 -224 0
v -128 -224 0
v -144 -240 0
v -160 -240 0
v -160 -224 0
v -144 -224 0
v -160 -240 0
v -176 -240 0
v -176 -224 0
v -160 -224 0
v -176 -240 0
v -192 -240 0
v -192 -224 0
v -176 -224 0
v -192 -240 0
v -208 -240 0
v -208 -224 0
v -192 -224 0
v -208 -240 0
v -224 -240 0
v -224 -224 0
v -208 -224 0
v -224 -240 0
v -240 -240 0
v -240 -224 0
v -224 -224 0
v -240 -240 0
v -256 -240 0
v -256 -224 0
v -240 -224 0
v 0 -256 0
v -16 -256 0
v -16 -240 0
v 0 -240 0
v -16 -256 0
v -32 -256 0
v -32 -240 0
v -16 -240 0
v -32 -256 0
v -48 -256 0
v -48 -240 0
v -32 -240 0
v -48 -256 0
v -64 -256 0
v -64 -240 0
v -48 -240 0
v -64 -256 0
v -80 -256 0
v -80 -240 0
v -64 -240 0
v -80 -256 0
v -96 -256 0
v -96 -240 0
v -80 -240 0
v -96 -256 0
v -112 -256 0
v -112 -240 0
v -96 -240 0
v -112 -256 0
v -128 -256 0
v -128 -240 0
v -112 -240 0
v -128 -256 0
v -144 -256 0
v -144 -240 0
v -128 -240 0
v -144 -256 0
v -160 -256 0
v -160 -240 0
v -144 -240 0
v -160 -256 0
v -176 -256 0
v -176 -240 0
v -160 -240 0
v -176 -256 0
v -192 -256 0
v -192 -240 0
v -176 -240 0
v -192 -256 0
v -208 -256 0
v -208 -240 0
v -192 -240 0
v -208 -256 0
v -224 -256 0
v -224 -240 0
v -208 -240 0
v -224 -256 0
v -240 -256 0
v -240 -240 0
v -224 -240 0
v -240 -256 0
v -256 -256 0
v -256 -240 0
v -240 -240 0

# Texture cooridinates (Count = 44)
vt 0.606383 0.1875
vt 0.606383 0.25
vt 0.5957447 0.25
vt 0.5957447 0.1875
vt 0.606383 0.625
vt 0.6170213 0.625
vt 0.6170213 0.6875
vt 0.606383 0.6875
vt 0.6276596 0.625
vt 0.6276596 0.6875
vt 0.6382979 0.625
vt 0.6382979 0.6875
vt 0.4468085 0.625
vt 0.4468085 0.6875
vt 0.4361702 0.6875
vt 0.4361702 0.625
vt 0.6170213 0.1875
vt 0.6170213 0.25
vt 0.6382979 0.75
vt 0.6276596 0.75
vt 0.606383 0.8125
vt 0.6170213 0.8125
vt 0.6170213 0.875
vt 0.606383 0.875
vt 0.6276596 0.8125
vt 0.6276596 0.875
vt 0.6382979 0.8125
vt 0.6382979 0.875
vt 0.5744681 0.1875
vt 0.5744681 0.25
vt 0.5638298 0.25
vt 0.5638298 0.1875
vt 0.7021276 0.1875
vt 0.7021276 0.25
vt 0.6914893 0.25
vt 0.6914893 0.1875
vt 0.7127659 0.1875
vt 0.7127659 0.25
vt 0.5531915 0.1875
vt 0.5531915 0.25
vt 0.5425532 0.25
vt 0.5425532 0.1875
vt 0.606383 0.75
vt 0.6170213 0.75

# Normal
vn 0 0 -1

# Mesh description
g 2ScenarioPlataforma_mesh_0988

# Faces
f 1/1/1 2/2/1 3/3/1 4/4/1
f 5/5/1 6/6/1 7/7/1 8/8/1
f 9/5/1 10/6/1 11/7/1 12/8/1
f 13/5/1 14/6/1 15/7/1 16/8/1
f 17/5/1 18/6/1 19/7/1 20/8/1
f 21/5/1 22/6/1 23/7/1 24/8/1
f 25/6/1 26/9/1 27/10/1 28/7/1
f 29/9/1 30/11/1 31/12/1 32/10/1
f 33/5/1 34/6/1 35/7/1 36/8/1
f 37/6/1 38/9/1 39/10/1 40/7/1
f 41/9/1 42/11/1 43/12/1 44/10/1
f 45/13/1 46/14/1 47/15/1 48/16/1
f 49/17/1 50/18/1 51/2/1 52/1/1
f 53/5/1 54/6/1 55/7/1 56/8/1
f 57/6/1 58/9/1 59/10/1 60/7/1
f 61/9/1 62/11/1 63/12/1 64/10/1
f 65/10/1 66/12/1 67/19/1 68/20/1
f 69/21/1 70/22/1 71/23/1 72/24/1
f 73/22/1 74/25/1 75/26/1 76/23/1
f 77/25/1 78/27/1 79/28/1 80/26/1
f 81/21/1 82/22/1 83/23/1 84/24/1
f 85/22/1 86/25/1 87/26/1 88/23/1
f 89/25/1 90/27/1 91/28/1 92/26/1
f 93/29/1 94/30/1 95/31/1 96/32/1
f 97/33/1 98/34/1 99/35/1 100/36/1
f 101/37/1 102/38/1 103/34/1 104/33/1
f 105/39/1 106/40/1 107/41/1 108/42/1
f 109/21/1 110/22/1 111/23/1 112/24/1
f 113/21/1 114/22/1 115/23/1 116/24/1
f 117/5/1 118/6/1 119/7/1 120/8/1
f 121/6/1 122/9/1 123/10/1 124/7/1
f 125/9/1 126/11/1 127/12/1 128/10/1
f 129/9/1 130/11/1 131/12/1 132/10/1
f 133/43/1 134/44/1 135/22/1 136/21/1
f 137/44/1 138/20/1 139/25/1 140/22/1
f 141/20/1 142/19/1 143/27/1 144/25/1
f 145/43/1 146/44/1 147/22/1 148/21/1
f 149/44/1 150/20/1 151/25/1 152/22/1
f 153/20/1 154/19/1 155/27/1 156/25/1
f 157/29/1 158/30/1 159/31/1 160/32/1
f 161/21/1 162/22/1 163/23/1 164/24/1
f 165/21/1 166/22/1 167/23/1 168/24/1
f 169/21/1 170/22/1 171/23/1 172/24/1
f 173/43/1 174/44/1 175/22/1 176/21/1
f 177/43/1 178/44/1 179/22/1 180/21/1
f 181/43/1 182/44/1 183/22/1 184/21/1
f 185/5/1 186/6/1 187/7/1 188/8/1
f 189/6/1 190/9/1 191/10/1 192/7/1
f 193/9/1 194/11/1 195/12/1 196/10/1
f 197/8/1 198/7/1 199/44/1 200/43/1
f 201/7/1 202/10/1 203/20/1 204/44/1
f 205/10/1 206/12/1 207/19/1 208/20/1
f 209/8/1 210/7/1 211/44/1 212/43/1
f 213/7/1 214/10/1 215/20/1 216/44/1
f 217/10/1 218/12/1 219/19/1 220/20/1
f 221/21/1 222/22/1 223/23/1 224/24/1
f 225/43/1 226/44/1 227/22/1 228/21/1
f 229/43/1 230/44/1 231/22/1 232/21/1
f 233/43/1 234/44/1 235/22/1 236/21/1
f 237/8/1 238/7/1 239/44/1 240/43/1
f 241/8/1 242/7/1 243/44/1 244/43/1
f 245/8/1 246/7/1 247/44/1 248/43/1
f 249/5/1 250/6/1 251/7/1 252/8/1
f 253/6/1 254/9/1 255/10/1 256/7/1
f 257/9/1 258/11/1 259/12/1 260/10/1
f 261/5/1 262/6/1 263/7/1 264/8/1
f 265/6/1 266/9/1 267/10/1 268/7/1
f 269/9/1 270/11/1 271/12/1 272/10/1
f 273/5/1 274/6/1 275/7/1 276/8/1
f 277/6/1 278/9/1 279/10/1 280/7/1
f 281/9/1 282/11/1 283/12/1 284/10/1
f 285/43/1 286/44/1 287/22/1 288/21/1
f 289/8/1 290/7/1 291/44/1 292/43/1
f 293/8/1 294/7/1 295/44/1 296/43/1
f 297/8/1 298/7/1 299/44/1 300/43/1
f 301/5/1 302/6/1 303/7/1 304/8/1
f 305/5/1 306/6/1 307/7/1 308/8/1
f 309/5/1 310/6/1 311/7/1 312/8/1
f 313/5/1 314/6/1 315/7/1 316/8/1
f 317/6/1 318/9/1 319/10/1 320/7/1
f 321/9/1 322/11/1 323/12/1 324/10/1
f 325/21/1 326/22/1 327/23/1 328/24/1
f 329/22/1 330/25/1 331/26/1 332/23/1
f 333/25/1 334/27/1 335/28/1 336/26/1
f 337/21/1 338/22/1 339/23/1 340/24/1
f 341/22/1 342/25/1 343/26/1 344/23/1
f 345/25/1 346/27/1 347/28/1 348/26/1
f 349/8/1 350/7/1 351/44/1 352/43/1
f 353/5/1 354/6/1 355/7/1 356/8/1
f 357/5/1 358/6/1 359/7/1 360/8/1
f 361/5/1 362/6/1 363/7/1 364/8/1
f 365/5/1 366/6/1 367/7/1 368/8/1
f 369/5/1 370/6/1 371/7/1 372/8/1
f 373/5/1 374/6/1 375/7/1 376/8/1
f 377/6/1 378/9/1 379/10/1 380/7/1
f 381/9/1 382/11/1 383/12/1 384/10/1
f 385/20/1 386/19/1 387/27/1 388/25/1
f 389/43/1 390/44/1 391/22/1 392/21/1
f 393/44/1 394/20/1 395/25/1 396/22/1
f 397/20/1 398/19/1 399/27/1 400/25/1
f 401/43/1 402/44/1 403/22/1 404/21/1
f 405/44/1 406/20/1 407/25/1 408/22/1
f 409/20/1 410/19/1 411/27/1 412/25/1
f 413/5/1 414/6/1 415/7/1 416/8/1
f 417/5/1 418/6/1 419/7/1 420/8/1
f 421/5/1 422/6/1 423/7/1 424/8/1
f 425/6/1 426/9/1 427/10/1 428/7/1
f 429/9/1 430/11/1 431/12/1 432/10/1
f 433/7/1 434/10/1 435/20/1 436/44/1
f 437/10/1 438/12/1 439/19/1 440/20/1
f 441/8/1 442/7/1 443/44/1 444/43/1
f 445/7/1 446/10/1 447/20/1 448/44/1
f 449/10/1 450/12/1 451/19/1 452/20/1
f 453/8/1 454/7/1 455/44/1 456/43/1
f 457/7/1 458/10/1 459/20/1 460/44/1
f 461/10/1 462/12/1 463/19/1 464/20/1
f 465/8/1 466/7/1 467/44/1 468/43/1
f 469/7/1 470/10/1 471/20/1 472/44/1
f 473/10/1 474/12/1 475/19/1 476/20/1
f 477/9/1 478/11/1 479/12/1 480/10/1
f 481/9/1 482/11/1 483/12/1 484/10/1
f 485/9/1 486/11/1 487/12/1 488/10/1
f 489/9/1 490/11/1 491/12/1 492/10/1
f 493/5/1 494/6/1 495/7/1 496/8/1
f 497/6/1 498/9/1 499/10/1 500/7/1
f 501/9/1 502/11/1 503/12/1 504/10/1
f 505/5/1 506/6/1 507/7/1 508/8/1
f 509/6/1 510/9/1 511/10/1 512/7/1
f 513/9/1 514/11/1 515/12/1 516/10/1
f 517/5/1 518/6/1 519/7/1 520/8/1
f 521/6/1 522/9/1 523/10/1 524/7/1
f 525/9/1 526/11/1 527/12/1 528/10/1
f 529/5/1 530/6/1 531/7/1 532/8/1
f 533/6/1 534/9/1 535/10/1 536/7/1
f 537/9/1 538/11/1 539/12/1 540/10/1
f 541/25/1 542/27/1 543/28/1 544/26/1
f 545/21/1 546/22/1 547/23/1 548/24/1
f 549/22/1 550/25/1 551/26/1 552/23/1
f 553/25/1 554/27/1 555/28/1 556/26/1
f 557/21/1 558/22/1 559/23/1 560/24/1
f 561/22/1 562/25/1 563/26/1 564/23/1
f 565/25/1 566/27/1 567/28/1 568/26/1
f 569/21/1 570/22/1 571/23/1 572/24/1
f 573/22/1 574/25/1 575/26/1 576/23/1
f 577/25/1 578/27/1 579/28/1 580/26/1
f 581/21/1 582/22/1 583/23/1 584/24/1
f 585/22/1 586/25/1 587/26/1 588/23/1
f 589/25/1 590/27/1 591/28/1 592/26/1
f 593/21/1 594/22/1 595/23/1 596/24/1
f 597/22/1 598/25/1 599/26/1 600/23/1
f 601/25/1 602/27/1 603/28/1 604/26/1
f 605/20/1 606/19/1 607/27/1 608/25/1
f 609/43/1 610/44/1 611/22/1 612/21/1
f 613/44/1 614/20/1 615/25/1 616/22/1
f 617/20/1 618/19/1 619/27/1 620/25/1
f 621/43/1 622/44/1 623/22/1 624/21/1
f 625/44/1 626/20/1 627/25/1 628/22/1
f 629/20/1 630/19/1 631/27/1 632/25/1
f 633/43/1 634/44/1 635/22/1 636/21/1
f 637/44/1 638/20/1 639/25/1 640/22/1
f 641/20/1 642/19/1 643/27/1 644/25/1
f 645/43/1 646/44/1 647/22/1 648/21/1
f 649/44/1 650/20/1 651/25/1 652/22/1
f 653/20/1 654/19/1 655/27/1 656/25/1
f 657/43/1 658/44/1 659/22/1 660/21/1
f 661/44/1 662/20/1 663/25/1 664/22/1
f 665/20/1 666/19/1 667/27/1 668/25/1
f 669/10/1 670/12/1 671/19/1 672/20/1
f 673/8/1 674/7/1 675/44/1 676/43/1
f 677/7/1 678/10/1 679/20/1 680/44/1
f 681/10/1 682/12/1 683/19/1 684/20/1
f 685/8/1 686/7/1 687/44/1 688/43/1
f 689/7/1 690/10/1 691/20/1 692/44/1
f 693/10/1 694/12/1 695/19/1 696/20/1
f 697/8/1 698/7/1 699/44/1 700/43/1
f 701/7/1 702/10/1 703/20/1 704/44/1
f 705/10/1 706/12/1 707/19/1 708/20/1
f 709/8/1 710/7/1 711/44/1 712/43/1
f 713/7/1 714/10/1 715/20/1 716/44/1
f 717/10/1 718/12/1 719/19/1 720/20/1
f 721/8/1 722/7/1 723/44/1 724/43/1
f 725/7/1 726/10/1 727/20/1 728/44/1
f 729/10/1 730/12/1 731/19/1 732/20/1
f 733/9/1 734/11/1 735/12/1 736/10/1
f 737/5/1 738/6/1 739/7/1 740/8/1
f 741/6/1 742/9/1 743/10/1 744/7/1
f 745/9/1 746/11/1 747/12/1 748/10/1
f 749/5/1 750/6/1 751/7/1 752/8/1
f 753/6/1 754/9/1 755/10/1 756/7/1
f 757/9/1 758/11/1 759/12/1 760/10/1
f 761/5/1 762/6/1 763/7/1 764/8/1
f 765/6/1 766/9/1 767/10/1 768/7/1
f 769/9/1 770/11/1 771/12/1 772/10/1
f 773/5/1 774/6/1 775/7/1 776/8/1
f 777/6/1 778/9/1 779/10/1 780/7/1
f 781/9/1 782/11/1 783/12/1 784/10/1
f 785/5/1 786/6/1 787/7/1 788/8/1
f 789/6/1 790/9/1 791/10/1 792/7/1
f 793/9/1 794/11/1 795/12/1 796/10/1
f 797/25/1 798/27/1 799/28/1 800/26/1
f 801/21/1 802/22/1 803/23/1 804/24/1
f 805/22/1 806/25/1 807/26/1 808/23/1
f 809/25/1 810/27/1 811/28/1 812/26/1
f 813/21/1 814/22/1 815/23/1 816/24/1
f 817/22/1 818/25/1 819/26/1 820/23/1
f 821/25/1 822/27/1 823/28/1 824/26/1
f 825/21/1 826/22/1 827/23/1 828/24/1
f 829/22/1 830/25/1 831/26/1 832/23/1
f 833/25/1 834/27/1 835/28/1 836/26/1
f 837/21/1 838/22/1 839/23/1 840/24/1
f 841/22/1 842/25/1 843/26/1 844/23/1
f 845/25/1 846/27/1 847/28/1 848/26/1
f 849/21/1 850/22/1 851/23/1 852/24/1
f 853/22/1 854/25/1 855/26/1 856/23/1
f 857/25/1 858/27/1 859/28/1 860/26/1
f 861/20/1 862/19/1 863/27/1 864/25/1
f 865/43/1 866/44/1 867/22/1 868/21/1
f 869/44/1 870/20/1 871/25/1 872/22/1
f 873/20/1 874/19/1 875/27/1 876/25/1
f 877/43/1 878/44/1 879/22/1 880/21/1
f 881/44/1 882/20/1 883/25/1 884/22/1
f 885/20/1 886/19/1 887/27/1 888/25/1
f 889/43/1 890/44/1 891/22/1 892/21/1
f 893/44/1 894/20/1 895/25/1 896/22/1
f 897/20/1 898/19/1 899/27/1 900/25/1
f 901/43/1 902/44/1 903/22/1 904/21/1
f 905/44/1 906/20/1 907/25/1 908/22/1
f 909/20/1 910/19/1 911/27/1 912/25/1
f 913/43/1 914/44/1 915/22/1 916/21/1
f 917/44/1 918/20/1 919/25/1 920/22/1
f 921/20/1 922/19/1 923/27/1 924/25/1
f 925/21/1 926/22/1 927/23/1 928/24/1
f 929/21/1 930/22/1 931/23/1 932/24/1
f 933/21/1 934/22/1 935/23/1 936/24/1
f 937/21/1 938/22/1 939/23/1 940/24/1
f 941/21/1 942/22/1 943/23/1 944/24/1
f 945/21/1 946/22/1 947/23/1 948/24/1
f 949/21/1 950/22/1 951/23/1 952/24/1
f 953/21/1 954/22/1 955/23/1 956/24/1
f 957/21/1 958/22/1 959/23/1 960/24/1
f 961/21/1 962/22/1 963/23/1 964/24/1
f 965/21/1 966/22/1 967/23/1 968/24/1
f 969/21/1 970/22/1 971/23/1 972/24/1
f 973/21/1 974/22/1 975/23/1 976/24/1
f 977/21/1 978/22/1 979/23/1 980/24/1
f 981/21/1 982/22/1 983/23/1 984/24/1
f 985/21/1 986/22/1 987/23/1 988/24/1

