# Tiled2Unity generated file. Do not modify by hand.
# Wavefront file for '2ScenarioPlataforma_mesh_0963.obj'

# Vertices (Count = 328)
v -112 -16 0
v -128 -16 0
v -128 0 0
v -112 0 0
v -128 -16 0
v -144 -16 0
v -144 0 0
v -128 0 0
v -144 -16 0
v -160 -16 0
v -160 0 0
v -144 0 0
v -160 -16 0
v -176 -16 0
v -176 0 0
v -160 0 0
v -176 -16 0
v -192 -16 0
v -192 0 0
v -176 0 0
v -192 -16 0
v -208 -16 0
v -208 0 0
v -192 0 0
v -208 -16 0
v -224 -16 0
v -224 0 0
v -208 0 0
v -224 -16 0
v -240 -16 0
v -240 0 0
v -224 0 0
v -240 -16 0
v -256 -16 0
v -256 0 0
v -240 0 0
v -112 -32 0
v -128 -32 0
v -128 -16 0
v -112 -16 0
v -128 -32 0
v -144 -32 0
v -144 -16 0
v -128 -16 0
v -144 -32 0
v -160 -32 0
v -160 -16 0
v -144 -16 0
v -160 -32 0
v -176 -32 0
v -176 -16 0
v -160 -16 0
v -176 -32 0
v -192 -32 0
v -192 -16 0
v -176 -16 0
v -192 -32 0
v -208 -32 0
v -208 -16 0
v -192 -16 0
v -208 -32 0
v -224 -32 0
v -224 -16 0
v -208 -16 0
v -224 -32 0
v -240 -32 0
v -240 -16 0
v -224 -16 0
v -240 -32 0
v -256 -32 0
v -256 -16 0
v -240 -16 0
v -112 -48 0
v -128 -48 0
v -128 -32 0
v -112 -32 0
v -128 -48 0
v -144 -48 0
v -144 -32 0
v -128 -32 0
v -144 -48 0
v -160 -48 0
v -160 -32 0
v -144 -32 0
v -160 -48 0
v -176 -48 0
v -176 -32 0
v -160 -32 0
v -176 -48 0
v -192 -48 0
v -192 -32 0
v -176 -32 0
v -192 -48 0
v -208 -48 0
v -208 -32 0
v -192 -32 0
v -208 -48 0
v -224 -48 0
v -224 -32 0
v -208 -32 0
v -224 -48 0
v -240 -48 0
v -240 -32 0
v -224 -32 0
v -240 -48 0
v -256 -48 0
v -256 -32 0
v -240 -32 0
v -128 -64 0
v -144 -64 0
v -144 -48 0
v -128 -48 0
v -144 -64 0
v -160 -64 0
v -160 -48 0
v -144 -48 0
v -160 -64 0
v -176 -64 0
v -176 -48 0
v -160 -48 0
v -176 -64 0
v -192 -64 0
v -192 -48 0
v -176 -48 0
v -192 -64 0
v -208 -64 0
v -208 -48 0
v -192 -48 0
v -208 -64 0
v -224 -64 0
v -224 -48 0
v -208 -48 0
v -224 -64 0
v -240 -64 0
v -240 -48 0
v -224 -48 0
v -240 -64 0
v -256 -64 0
v -256 -48 0
v -240 -48 0
v -128 -80 0
v -144 -80 0
v -144 -64 0
v -128 -64 0
v -144 -80 0
v -160 -80 0
v -160 -64 0
v -144 -64 0
v -160 -80 0
v -176 -80 0
v -176 -64 0
v -160 -64 0
v -176 -80 0
v -192 -80 0
v -192 -64 0
v -176 -64 0
v -192 -80 0
v -208 -80 0
v -208 -64 0
v -192 -64 0
v -208 -80 0
v -224 -80 0
v -224 -64 0
v -208 -64 0
v -224 -80 0
v -240 -80 0
v -240 -64 0
v -224 -64 0
v -240 -80 0
v -256 -80 0
v -256 -64 0
v -240 -64 0
v -144 -96 0
v -160 -96 0
v -160 -80 0
v -144 -80 0
v -160 -96 0
v -176 -96 0
v -176 -80 0
v -160 -80 0
v -176 -96 0
v -192 -96 0
v -192 -80 0
v -176 -80 0
v -192 -96 0
v -208 -96 0
v -208 -80 0
v -192 -80 0
v -208 -96 0
v -224 -96 0
v -224 -80 0
v -208 -80 0
v -224 -96 0
v -240 -96 0
v -240 -80 0
v -224 -80 0
v -240 -96 0
v -256 -96 0
v -256 -80 0
v -240 -80 0
v -144 -112 0
v -160 -112 0
v -160 -96 0
v -144 -96 0
v -160 -112 0
v -176 -112 0
v -176 -96 0
v -160 -96 0
v -176 -112 0
v -192 -112 0
v -192 -96 0
v -176 -96 0
v -192 -112 0
v -208 -112 0
v -208 -96 0
v -192 -96 0
v -208 -112 0
v -224 -112 0
v -224 -96 0
v -208 -96 0
v -224 -112 0
v -240 -112 0
v -240 -96 0
v -224 -96 0
v -240 -112 0
v -256 -112 0
v -256 -96 0
v -240 -96 0
v -144 -128 0
v -160 -128 0
v -160 -112 0
v -144 -112 0
v -160 -128 0
v -176 -128 0
v -176 -112 0
v -160 -112 0
v -176 -128 0
v -192 -128 0
v -192 -112 0
v -176 -112 0
v -192 -128 0
v -208 -128 0
v -208 -112 0
v -192 -112 0
v -208 -128 0
v -224 -128 0
v -224 -112 0
v -208 -112 0
v -224 -128 0
v -240 -128 0
v -240 -112 0
v -224 -112 0
v -240 -128 0
v -256 -128 0
v -256 -112 0
v -240 -112 0
v -160 -144 0
v -176 -144 0
v -176 -128 0
v -160 -128 0
v -176 -144 0
v -192 -144 0
v -192 -128 0
v -176 -128 0
v -192 -144 0
v -208 -144 0
v -208 -128 0
v -192 -128 0
v -208 -144 0
v -224 -144 0
v -224 -128 0
v -208 -128 0
v -224 -144 0
v -240 -144 0
v -240 -128 0
v -224 -128 0
v -240 -144 0
v -256 -144 0
v -256 -128 0
v -240 -128 0
v -176 -160 0
v -192 -160 0
v -192 -144 0
v -176 -144 0
v -192 -160 0
v -208 -160 0
v -208 -144 0
v -192 -144 0
v -208 -160 0
v -224 -160 0
v -224 -144 0
v -208 -144 0
v -224 -160 0
v -240 -160 0
v -240 -144 0
v -224 -144 0
v -240 -160 0
v -256 -160 0
v -256 -144 0
v -240 -144 0
v -192 -176 0
v -208 -176 0
v -208 -160 0
v -192 -160 0
v -208 -176 0
v -224 -176 0
v -224 -160 0
v -208 -160 0
v -224 -176 0
v -240 -176 0
v -240 -160 0
v -224 -160 0
v -240 -176 0
v -256 -176 0
v -256 -160 0
v -240 -160 0
v -224 -192 0
v -240 -192 0
v -240 -176 0
v -224 -176 0
v -240 -192 0
v -256 -192 0
v -256 -176 0
v -240 -176 0
v -240 -208 0
v -256 -208 0
v -256 -192 0
v -240 -192 0

# Texture cooridinates (Count = 20)
vt 0.606383 0.75
vt 0.6170213 0.75
vt 0.6170213 0.8125
vt 0.606383 0.8125
vt 0.6170213 0.875
vt 0.606383 0.875
vt 0.6276596 0.8125
vt 0.6276596 0.875
vt 0.6382979 0.8125
vt 0.6382979 0.875
vt 0.606383 0.625
vt 0.6170213 0.625
vt 0.6170213 0.6875
vt 0.606383 0.6875
vt 0.6276596 0.625
vt 0.6276596 0.6875
vt 0.6382979 0.625
vt 0.6382979 0.6875
vt 0.6276596 0.75
vt 0.6382979 0.75

# Normal
vn 0 0 -1

# Mesh description
g 2ScenarioPlataforma_mesh_0963

# Faces
f 1/1/1 2/2/1 3/3/1 4/4/1
f 5/4/1 6/3/1 7/5/1 8/6/1
f 9/3/1 10/7/1 11/8/1 12/5/1
f 13/7/1 14/9/1 15/10/1 16/8/1
f 17/11/1 18/12/1 19/13/1 20/14/1
f 21/12/1 22/15/1 23/16/1 24/13/1
f 25/15/1 26/17/1 27/18/1 28/16/1
f 29/11/1 30/12/1 31/13/1 32/14/1
f 33/12/1 34/15/1 35/16/1 36/13/1
f 37/14/1 38/13/1 39/2/1 40/1/1
f 41/4/1 42/3/1 43/5/1 44/6/1
f 45/3/1 46/7/1 47/8/1 48/5/1
f 49/7/1 50/9/1 51/10/1 52/8/1
f 53/4/1 54/3/1 55/5/1 56/6/1
f 57/3/1 58/7/1 59/8/1 60/5/1
f 61/7/1 62/9/1 63/10/1 64/8/1
f 65/4/1 66/3/1 67/5/1 68/6/1
f 69/3/1 70/7/1 71/8/1 72/5/1
f 73/11/1 74/12/1 75/13/1 76/14/1
f 77/1/1 78/2/1 79/3/1 80/4/1
f 81/4/1 82/3/1 83/5/1 84/6/1
f 85/3/1 86/7/1 87/8/1 88/5/1
f 89/7/1 90/9/1 91/10/1 92/8/1
f 93/2/1 94/19/1 95/7/1 96/3/1
f 97/19/1 98/20/1 99/9/1 100/7/1
f 101/1/1 102/2/1 103/3/1 104/4/1
f 105/2/1 106/19/1 107/7/1 108/3/1
f 109/14/1 110/13/1 111/2/1 112/1/1
f 113/4/1 114/3/1 115/5/1 116/6/1
f 117/3/1 118/7/1 119/8/1 120/5/1
f 121/7/1 122/9/1 123/10/1 124/8/1
f 125/13/1 126/16/1 127/19/1 128/2/1
f 129/16/1 130/18/1 131/20/1 132/19/1
f 133/14/1 134/13/1 135/2/1 136/1/1
f 137/13/1 138/16/1 139/19/1 140/2/1
f 141/11/1 142/12/1 143/13/1 144/14/1
f 145/4/1 146/3/1 147/5/1 148/6/1
f 149/3/1 150/7/1 151/8/1 152/5/1
f 153/7/1 154/9/1 155/10/1 156/8/1
f 157/12/1 158/15/1 159/16/1 160/13/1
f 161/15/1 162/17/1 163/18/1 164/16/1
f 165/11/1 166/12/1 167/13/1 168/14/1
f 169/12/1 170/15/1 171/16/1 172/13/1
f 173/1/1 174/2/1 175/3/1 176/4/1
f 177/4/1 178/3/1 179/5/1 180/6/1
f 181/4/1 182/3/1 183/5/1 184/6/1
f 185/3/1 186/7/1 187/8/1 188/5/1
f 189/7/1 190/9/1 191/10/1 192/8/1
f 193/4/1 194/3/1 195/5/1 196/6/1
f 197/3/1 198/7/1 199/8/1 200/5/1
f 201/14/1 202/13/1 203/2/1 204/1/1
f 205/1/1 206/2/1 207/3/1 208/4/1
f 209/4/1 210/3/1 211/5/1 212/6/1
f 213/3/1 214/7/1 215/8/1 216/5/1
f 217/7/1 218/9/1 219/10/1 220/8/1
f 221/1/1 222/2/1 223/3/1 224/4/1
f 225/2/1 226/19/1 227/7/1 228/3/1
f 229/11/1 230/12/1 231/13/1 232/14/1
f 233/14/1 234/13/1 235/2/1 236/1/1
f 237/1/1 238/2/1 239/3/1 240/4/1
f 241/4/1 242/3/1 243/5/1 244/6/1
f 245/4/1 246/3/1 247/5/1 248/6/1
f 249/3/1 250/7/1 251/8/1 252/5/1
f 253/7/1 254/9/1 255/10/1 256/8/1
f 257/11/1 258/12/1 259/13/1 260/14/1
f 261/14/1 262/13/1 263/2/1 264/1/1
f 265/1/1 266/2/1 267/3/1 268/4/1
f 269/1/1 270/2/1 271/3/1 272/4/1
f 273/4/1 274/3/1 275/5/1 276/6/1
f 277/3/1 278/7/1 279/8/1 280/5/1
f 281/11/1 282/12/1 283/13/1 284/14/1
f 285/14/1 286/13/1 287/2/1 288/1/1
f 289/14/1 290/13/1 291/2/1 292/1/1
f 293/1/1 294/2/1 295/3/1 296/4/1
f 297/4/1 298/3/1 299/5/1 300/6/1
f 301/11/1 302/12/1 303/13/1 304/14/1
f 305/11/1 306/12/1 307/13/1 308/14/1
f 309/14/1 310/13/1 311/2/1 312/1/1
f 313/1/1 314/2/1 315/3/1 316/4/1
f 317/11/1 318/12/1 319/13/1 320/14/1
f 321/14/1 322/13/1 323/2/1 324/1/1
f 325/11/1 326/12/1 327/13/1 328/14/1

