# Tiled2Unity generated file. Do not modify by hand.
# Wavefront file for '2ScenarioPlataforma_mesh_0370.obj'

# Vertices (Count = 1024)
v 0 -16 0
v -16 -16 0
v -16 0 0
v 0 0 0
v -16 -16 0
v -32 -16 0
v -32 0 0
v -16 0 0
v -32 -16 0
v -48 -16 0
v -48 0 0
v -32 0 0
v -48 -16 0
v -64 -16 0
v -64 0 0
v -48 0 0
v -64 -16 0
v -80 -16 0
v -80 0 0
v -64 0 0
v -80 -16 0
v -96 -16 0
v -96 0 0
v -80 0 0
v -96 -16 0
v -112 -16 0
v -112 0 0
v -96 0 0
v -112 -16 0
v -128 -16 0
v -128 0 0
v -112 0 0
v -128 -16 0
v -144 -16 0
v -144 0 0
v -128 0 0
v -144 -16 0
v -160 -16 0
v -160 0 0
v -144 0 0
v -160 -16 0
v -176 -16 0
v -176 0 0
v -160 0 0
v -176 -16 0
v -192 -16 0
v -192 0 0
v -176 0 0
v -192 -16 0
v -208 -16 0
v -208 0 0
v -192 0 0
v -208 -16 0
v -224 -16 0
v -224 0 0
v -208 0 0
v -224 -16 0
v -240 -16 0
v -240 0 0
v -224 0 0
v -240 -16 0
v -256 -16 0
v -256 0 0
v -240 0 0
v 0 -32 0
v -16 -32 0
v -16 -16 0
v 0 -16 0
v -16 -32 0
v -32 -32 0
v -32 -16 0
v -16 -16 0
v -32 -32 0
v -48 -32 0
v -48 -16 0
v -32 -16 0
v -48 -32 0
v -64 -32 0
v -64 -16 0
v -48 -16 0
v -64 -32 0
v -80 -32 0
v -80 -16 0
v -64 -16 0
v -80 -32 0
v -96 -32 0
v -96 -16 0
v -80 -16 0
v -96 -32 0
v -112 -32 0
v -112 -16 0
v -96 -16 0
v -112 -32 0
v -128 -32 0
v -128 -16 0
v -112 -16 0
v -128 -32 0
v -144 -32 0
v -144 -16 0
v -128 -16 0
v -144 -32 0
v -160 -32 0
v -160 -16 0
v -144 -16 0
v -160 -32 0
v -176 -32 0
v -176 -16 0
v -160 -16 0
v -176 -32 0
v -192 -32 0
v -192 -16 0
v -176 -16 0
v -192 -32 0
v -208 -32 0
v -208 -16 0
v -192 -16 0
v -208 -32 0
v -224 -32 0
v -224 -16 0
v -208 -16 0
v -224 -32 0
v -240 -32 0
v -240 -16 0
v -224 -16 0
v -240 -32 0
v -256 -32 0
v -256 -16 0
v -240 -16 0
v 0 -48 0
v -16 -48 0
v -16 -32 0
v 0 -32 0
v -16 -48 0
v -32 -48 0
v -32 -32 0
v -16 -32 0
v -32 -48 0
v -48 -48 0
v -48 -32 0
v -32 -32 0
v -48 -48 0
v -64 -48 0
v -64 -32 0
v -48 -32 0
v -64 -48 0
v -80 -48 0
v -80 -32 0
v -64 -32 0
v -80 -48 0
v -96 -48 0
v -96 -32 0
v -80 -32 0
v -96 -48 0
v -112 -48 0
v -112 -32 0
v -96 -32 0
v -112 -48 0
v -128 -48 0
v -128 -32 0
v -112 -32 0
v -128 -48 0
v -144 -48 0
v -144 -32 0
v -128 -32 0
v -144 -48 0
v -160 -48 0
v -160 -32 0
v -144 -32 0
v -160 -48 0
v -176 -48 0
v -176 -32 0
v -160 -32 0
v -176 -48 0
v -192 -48 0
v -192 -32 0
v -176 -32 0
v -192 -48 0
v -208 -48 0
v -208 -32 0
v -192 -32 0
v -208 -48 0
v -224 -48 0
v -224 -32 0
v -208 -32 0
v -224 -48 0
v -240 -48 0
v -240 -32 0
v -224 -32 0
v -240 -48 0
v -256 -48 0
v -256 -32 0
v -240 -32 0
v 0 -64 0
v -16 -64 0
v -16 -48 0
v 0 -48 0
v -16 -64 0
v -32 -64 0
v -32 -48 0
v -16 -48 0
v -32 -64 0
v -48 -64 0
v -48 -48 0
v -32 -48 0
v -48 -64 0
v -64 -64 0
v -64 -48 0
v -48 -48 0
v -64 -64 0
v -80 -64 0
v -80 -48 0
v -64 -48 0
v -80 -64 0
v -96 -64 0
v -96 -48 0
v -80 -48 0
v -96 -64 0
v -112 -64 0
v -112 -48 0
v -96 -48 0
v -112 -64 0
v -128 -64 0
v -128 -48 0
v -112 -48 0
v -128 -64 0
v -144 -64 0
v -144 -48 0
v -128 -48 0
v -144 -64 0
v -160 -64 0
v -160 -48 0
v -144 -48 0
v -160 -64 0
v -176 -64 0
v -176 -48 0
v -160 -48 0
v -176 -64 0
v -192 -64 0
v -192 -48 0
v -176 -48 0
v -192 -64 0
v -208 -64 0
v -208 -48 0
v -192 -48 0
v -208 -64 0
v -224 -64 0
v -224 -48 0
v -208 -48 0
v -224 -64 0
v -240 -64 0
v -240 -48 0
v -224 -48 0
v -240 -64 0
v -256 -64 0
v -256 -48 0
v -240 -48 0
v 0 -80 0
v -16 -80 0
v -16 -64 0
v 0 -64 0
v -16 -80 0
v -32 -80 0
v -32 -64 0
v -16 -64 0
v -32 -80 0
v -48 -80 0
v -48 -64 0
v -32 -64 0
v -48 -80 0
v -64 -80 0
v -64 -64 0
v -48 -64 0
v -64 -80 0
v -80 -80 0
v -80 -64 0
v -64 -64 0
v -80 -80 0
v -96 -80 0
v -96 -64 0
v -80 -64 0
v -96 -80 0
v -112 -80 0
v -112 -64 0
v -96 -64 0
v -112 -80 0
v -128 -80 0
v -128 -64 0
v -112 -64 0
v -128 -80 0
v -144 -80 0
v -144 -64 0
v -128 -64 0
v -144 -80 0
v -160 -80 0
v -160 -64 0
v -144 -64 0
v -160 -80 0
v -176 -80 0
v -176 -64 0
v -160 -64 0
v -176 -80 0
v -192 -80 0
v -192 -64 0
v -176 -64 0
v -192 -80 0
v -208 -80 0
v -208 -64 0
v -192 -64 0
v -208 -80 0
v -224 -80 0
v -224 -64 0
v -208 -64 0
v -224 -80 0
v -240 -80 0
v -240 -64 0
v -224 -64 0
v -240 -80 0
v -256 -80 0
v -256 -64 0
v -240 -64 0
v 0 -96 0
v -16 -96 0
v -16 -80 0
v 0 -80 0
v -16 -96 0
v -32 -96 0
v -32 -80 0
v -16 -80 0
v -32 -96 0
v -48 -96 0
v -48 -80 0
v -32 -80 0
v -48 -96 0
v -64 -96 0
v -64 -80 0
v -48 -80 0
v -64 -96 0
v -80 -96 0
v -80 -80 0
v -64 -80 0
v -80 -96 0
v -96 -96 0
v -96 -80 0
v -80 -80 0
v -96 -96 0
v -112 -96 0
v -112 -80 0
v -96 -80 0
v -112 -96 0
v -128 -96 0
v -128 -80 0
v -112 -80 0
v -128 -96 0
v -144 -96 0
v -144 -80 0
v -128 -80 0
v -144 -96 0
v -160 -96 0
v -160 -80 0
v -144 -80 0
v -160 -96 0
v -176 -96 0
v -176 -80 0
v -160 -80 0
v -176 -96 0
v -192 -96 0
v -192 -80 0
v -176 -80 0
v -192 -96 0
v -208 -96 0
v -208 -80 0
v -192 -80 0
v -208 -96 0
v -224 -96 0
v -224 -80 0
v -208 -80 0
v -224 -96 0
v -240 -96 0
v -240 -80 0
v -224 -80 0
v -240 -96 0
v -256 -96 0
v -256 -80 0
v -240 -80 0
v 0 -112 0
v -16 -112 0
v -16 -96 0
v 0 -96 0
v -16 -112 0
v -32 -112 0
v -32 -96 0
v -16 -96 0
v -32 -112 0
v -48 -112 0
v -48 -96 0
v -32 -96 0
v -48 -112 0
v -64 -112 0
v -64 -96 0
v -48 -96 0
v -64 -112 0
v -80 -112 0
v -80 -96 0
v -64 -96 0
v -80 -112 0
v -96 -112 0
v -96 -96 0
v -80 -96 0
v -96 -112 0
v -112 -112 0
v -112 -96 0
v -96 -96 0
v -112 -112 0
v -128 -112 0
v -128 -96 0
v -112 -96 0
v -128 -112 0
v -144 -112 0
v -144 -96 0
v -128 -96 0
v -144 -112 0
v -160 -112 0
v -160 -96 0
v -144 -96 0
v -160 -112 0
v -176 -112 0
v -176 -96 0
v -160 -96 0
v -176 -112 0
v -192 -112 0
v -192 -96 0
v -176 -96 0
v -192 -112 0
v -208 -112 0
v -208 -96 0
v -192 -96 0
v -208 -112 0
v -224 -112 0
v -224 -96 0
v -208 -96 0
v -224 -112 0
v -240 -112 0
v -240 -96 0
v -224 -96 0
v -240 -112 0
v -256 -112 0
v -256 -96 0
v -240 -96 0
v 0 -128 0
v -16 -128 0
v -16 -112 0
v 0 -112 0
v -16 -128 0
v -32 -128 0
v -32 -112 0
v -16 -112 0
v -32 -128 0
v -48 -128 0
v -48 -112 0
v -32 -112 0
v -48 -128 0
v -64 -128 0
v -64 -112 0
v -48 -112 0
v -64 -128 0
v -80 -128 0
v -80 -112 0
v -64 -112 0
v -80 -128 0
v -96 -128 0
v -96 -112 0
v -80 -112 0
v -96 -128 0
v -112 -128 0
v -112 -112 0
v -96 -112 0
v -112 -128 0
v -128 -128 0
v -128 -112 0
v -112 -112 0
v -128 -128 0
v -144 -128 0
v -144 -112 0
v -128 -112 0
v -144 -128 0
v -160 -128 0
v -160 -112 0
v -144 -112 0
v -160 -128 0
v -176 -128 0
v -176 -112 0
v -160 -112 0
v -176 -128 0
v -192 -128 0
v -192 -112 0
v -176 -112 0
v -192 -128 0
v -208 -128 0
v -208 -112 0
v -192 -112 0
v -208 -128 0
v -224 -128 0
v -224 -112 0
v -208 -112 0
v -224 -128 0
v -240 -128 0
v -240 -112 0
v -224 -112 0
v -240 -128 0
v -256 -128 0
v -256 -112 0
v -240 -112 0
v 0 -144 0
v -16 -144 0
v -16 -128 0
v 0 -128 0
v -16 -144 0
v -32 -144 0
v -32 -128 0
v -16 -128 0
v -32 -144 0
v -48 -144 0
v -48 -128 0
v -32 -128 0
v -48 -144 0
v -64 -144 0
v -64 -128 0
v -48 -128 0
v -64 -144 0
v -80 -144 0
v -80 -128 0
v -64 -128 0
v -80 -144 0
v -96 -144 0
v -96 -128 0
v -80 -128 0
v -96 -144 0
v -112 -144 0
v -112 -128 0
v -96 -128 0
v -112 -144 0
v -128 -144 0
v -128 -128 0
v -112 -128 0
v -128 -144 0
v -144 -144 0
v -144 -128 0
v -128 -128 0
v -144 -144 0
v -160 -144 0
v -160 -128 0
v -144 -128 0
v -160 -144 0
v -176 -144 0
v -176 -128 0
v -160 -128 0
v -176 -144 0
v -192 -144 0
v -192 -128 0
v -176 -128 0
v -192 -144 0
v -208 -144 0
v -208 -128 0
v -192 -128 0
v -208 -144 0
v -224 -144 0
v -224 -128 0
v -208 -128 0
v -224 -144 0
v -240 -144 0
v -240 -128 0
v -224 -128 0
v -240 -144 0
v -256 -144 0
v -256 -128 0
v -240 -128 0
v 0 -160 0
v -16 -160 0
v -16 -144 0
v 0 -144 0
v -16 -160 0
v -32 -160 0
v -32 -144 0
v -16 -144 0
v -32 -160 0
v -48 -160 0
v -48 -144 0
v -32 -144 0
v -48 -160 0
v -64 -160 0
v -64 -144 0
v -48 -144 0
v -64 -160 0
v -80 -160 0
v -80 -144 0
v -64 -144 0
v -80 -160 0
v -96 -160 0
v -96 -144 0
v -80 -144 0
v -96 -160 0
v -112 -160 0
v -112 -144 0
v -96 -144 0
v -112 -160 0
v -128 -160 0
v -128 -144 0
v -112 -144 0
v -128 -160 0
v -144 -160 0
v -144 -144 0
v -128 -144 0
v -144 -160 0
v -160 -160 0
v -160 -144 0
v -144 -144 0
v -160 -160 0
v -176 -160 0
v -176 -144 0
v -160 -144 0
v -176 -160 0
v -192 -160 0
v -192 -144 0
v -176 -144 0
v -192 -160 0
v -208 -160 0
v -208 -144 0
v -192 -144 0
v -208 -160 0
v -224 -160 0
v -224 -144 0
v -208 -144 0
v -224 -160 0
v -240 -160 0
v -240 -144 0
v -224 -144 0
v -240 -160 0
v -256 -160 0
v -256 -144 0
v -240 -144 0
v 0 -176 0
v -16 -176 0
v -16 -160 0
v 0 -160 0
v -16 -176 0
v -32 -176 0
v -32 -160 0
v -16 -160 0
v -32 -176 0
v -48 -176 0
v -48 -160 0
v -32 -160 0
v -48 -176 0
v -64 -176 0
v -64 -160 0
v -48 -160 0
v -64 -176 0
v -80 -176 0
v -80 -160 0
v -64 -160 0
v -80 -176 0
v -96 -176 0
v -96 -160 0
v -80 -160 0
v -96 -176 0
v -112 -176 0
v -112 -160 0
v -96 -160 0
v -112 -176 0
v -128 -176 0
v -128 -160 0
v -112 -160 0
v -128 -176 0
v -144 -176 0
v -144 -160 0
v -128 -160 0
v -144 -176 0
v -160 -176 0
v -160 -160 0
v -144 -160 0
v -160 -176 0
v -176 -176 0
v -176 -160 0
v -160 -160 0
v -176 -176 0
v -192 -176 0
v -192 -160 0
v -176 -160 0
v -192 -176 0
v -208 -176 0
v -208 -160 0
v -192 -160 0
v -208 -176 0
v -224 -176 0
v -224 -160 0
v -208 -160 0
v -224 -176 0
v -240 -176 0
v -240 -160 0
v -224 -160 0
v -240 -176 0
v -256 -176 0
v -256 -160 0
v -240 -160 0
v 0 -192 0
v -16 -192 0
v -16 -176 0
v 0 -176 0
v -16 -192 0
v -32 -192 0
v -32 -176 0
v -16 -176 0
v -32 -192 0
v -48 -192 0
v -48 -176 0
v -32 -176 0
v -48 -192 0
v -64 -192 0
v -64 -176 0
v -48 -176 0
v -64 -192 0
v -80 -192 0
v -80 -176 0
v -64 -176 0
v -80 -192 0
v -96 -192 0
v -96 -176 0
v -80 -176 0
v -96 -192 0
v -112 -192 0
v -112 -176 0
v -96 -176 0
v -112 -192 0
v -128 -192 0
v -128 -176 0
v -112 -176 0
v -128 -192 0
v -144 -192 0
v -144 -176 0
v -128 -176 0
v -144 -192 0
v -160 -192 0
v -160 -176 0
v -144 -176 0
v -160 -192 0
v -176 -192 0
v -176 -176 0
v -160 -176 0
v -176 -192 0
v -192 -192 0
v -192 -176 0
v -176 -176 0
v -192 -192 0
v -208 -192 0
v -208 -176 0
v -192 -176 0
v -208 -192 0
v -224 -192 0
v -224 -176 0
v -208 -176 0
v -224 -192 0
v -240 -192 0
v -240 -176 0
v -224 -176 0
v -240 -192 0
v -256 -192 0
v -256 -176 0
v -240 -176 0
v 0 -208 0
v -16 -208 0
v -16 -192 0
v 0 -192 0
v -16 -208 0
v -32 -208 0
v -32 -192 0
v -16 -192 0
v -32 -208 0
v -48 -208 0
v -48 -192 0
v -32 -192 0
v -48 -208 0
v -64 -208 0
v -64 -192 0
v -48 -192 0
v -64 -208 0
v -80 -208 0
v -80 -192 0
v -64 -192 0
v -80 -208 0
v -96 -208 0
v -96 -192 0
v -80 -192 0
v -96 -208 0
v -112 -208 0
v -112 -192 0
v -96 -192 0
v -112 -208 0
v -128 -208 0
v -128 -192 0
v -112 -192 0
v -128 -208 0
v -144 -208 0
v -144 -192 0
v -128 -192 0
v -144 -208 0
v -160 -208 0
v -160 -192 0
v -144 -192 0
v -160 -208 0
v -176 -208 0
v -176 -192 0
v -160 -192 0
v -176 -208 0
v -192 -208 0
v -192 -192 0
v -176 -192 0
v -192 -208 0
v -208 -208 0
v -208 -192 0
v -192 -192 0
v -208 -208 0
v -224 -208 0
v -224 -192 0
v -208 -192 0
v -224 -208 0
v -240 -208 0
v -240 -192 0
v -224 -192 0
v -240 -208 0
v -256 -208 0
v -256 -192 0
v -240 -192 0
v 0 -224 0
v -16 -224 0
v -16 -208 0
v 0 -208 0
v -16 -224 0
v -32 -224 0
v -32 -208 0
v -16 -208 0
v -32 -224 0
v -48 -224 0
v -48 -208 0
v -32 -208 0
v -48 -224 0
v -64 -224 0
v -64 -208 0
v -48 -208 0
v -64 -224 0
v -80 -224 0
v -80 -208 0
v -64 -208 0
v -80 -224 0
v -96 -224 0
v -96 -208 0
v -80 -208 0
v -96 -224 0
v -112 -224 0
v -112 -208 0
v -96 -208 0
v -112 -224 0
v -128 -224 0
v -128 -208 0
v -112 -208 0
v -128 -224 0
v -144 -224 0
v -144 -208 0
v -128 -208 0
v -144 -224 0
v -160 -224 0
v -160 -208 0
v -144 -208 0
v -160 -224 0
v -176 -224 0
v -176 -208 0
v -160 -208 0
v -176 -224 0
v -192 -224 0
v -192 -208 0
v -176 -208 0
v -192 -224 0
v -208 -224 0
v -208 -208 0
v -192 -208 0
v -208 -224 0
v -224 -224 0
v -224 -208 0
v -208 -208 0
v -224 -224 0
v -240 -224 0
v -240 -208 0
v -224 -208 0
v -240 -224 0
v -256 -224 0
v -256 -208 0
v -240 -208 0
v 0 -240 0
v -16 -240 0
v -16 -224 0
v 0 -224 0
v -16 -240 0
v -32 -240 0
v -32 -224 0
v -16 -224 0
v -32 -240 0
v -48 -240 0
v -48 -224 0
v -32 -224 0
v -48 -240 0
v -64 -240 0
v -64 -224 0
v -48 -224 0
v -64 -240 0
v -80 -240 0
v -80 -224 0
v -64 -224 0
v -80 -240 0
v -96 -240 0
v -96 -224 0
v -80 -224 0
v -96 -240 0
v -112 -240 0
v -112 -224 0
v -96 -224 0
v -112 -240 0
v -128 -240 0
v -128 -224 0
v -112 -224 0
v -128 -240 0
v -144 -240 0
v -144 -224 0
v -128 -224 0
v -144 -240 0
v -160 -240 0
v -160 -224 0
v -144 -224 0
v -160 -240 0
v -176 -240 0
v -176 -224 0
v -160 -224 0
v -176 -240 0
v -192 -240 0
v -192 -224 0
v -176 -224 0
v -192 -240 0
v -208 -240 0
v -208 -224 0
v -192 -224 0
v -208 -240 0
v -224 -240 0
v -224 -224 0
v -208 -224 0
v -224 -240 0
v -240 -240 0
v -240 -224 0
v -224 -224 0
v -240 -240 0
v -256 -240 0
v -256 -224 0
v -240 -224 0
v 0 -256 0
v -16 -256 0
v -16 -240 0
v 0 -240 0
v -16 -256 0
v -32 -256 0
v -32 -240 0
v -16 -240 0
v -32 -256 0
v -48 -256 0
v -48 -240 0
v -32 -240 0
v -48 -256 0
v -64 -256 0
v -64 -240 0
v -48 -240 0
v -64 -256 0
v -80 -256 0
v -80 -240 0
v -64 -240 0
v -80 -256 0
v -96 -256 0
v -96 -240 0
v -80 -240 0
v -96 -256 0
v -112 -256 0
v -112 -240 0
v -96 -240 0
v -112 -256 0
v -128 -256 0
v -128 -240 0
v -112 -240 0
v -128 -256 0
v -144 -256 0
v -144 -240 0
v -128 -240 0
v -144 -256 0
v -160 -256 0
v -160 -240 0
v -144 -240 0
v -160 -256 0
v -176 -256 0
v -176 -240 0
v -160 -240 0
v -176 -256 0
v -192 -256 0
v -192 -240 0
v -176 -240 0
v -192 -256 0
v -208 -256 0
v -208 -240 0
v -192 -240 0
v -208 -256 0
v -224 -256 0
v -224 -240 0
v -208 -240 0
v -224 -256 0
v -240 -256 0
v -240 -240 0
v -224 -240 0
v -240 -256 0
v -256 -256 0
v -256 -240 0
v -240 -240 0

# Texture cooridinates (Count = 39)
vt 0.08510638 0.9375
vt 0.07446808 0.9375
vt 0.07446808 0.875
vt 0.08510638 0.875
vt 0.06382979 0.9375
vt 0.06382979 0.875
vt 0.1489362 0.3125
vt 0.1595745 0.3125
vt 0.1595745 0.375
vt 0.1489362 0.375
vt 0.1702128 0.3125
vt 0.1702128 0.375
vt 0.1489362 0.9375
vt 0.1382979 0.9375
vt 0.1382979 0.875
vt 0.1489362 0.875
vt 0.1276596 0.9375
vt 0.1276596 0.875
vt 0.1170213 0.9375
vt 0.1170213 0.875
vt 0.106383 0.9375
vt 0.106383 0.875
vt 0.09574468 0.9375
vt 0.09574468 0.875
vt 0.05319149 0.9375
vt 0.05319149 0.875
vt 0.04255319 0.9375
vt 0.04255319 0.875
vt 0.08510638 1
vt 0.07446808 1
vt 0.06382979 1
vt 0.05319149 1
vt 0.04255319 1
vt 0.1489362 1
vt 0.1382979 1
vt 0.1276596 1
vt 0.1170213 1
vt 0.106383 1
vt 0.09574468 1

# Normal
vn 0 0 -1

# Mesh description
g 2ScenarioPlataforma_mesh_0370

# Faces
f 1/1/1 2/2/1 3/3/1 4/4/1
f 5/2/1 6/5/1 7/6/1 8/3/1
f 9/7/1 10/8/1 11/9/1 12/10/1
f 13/8/1 14/11/1 15/12/1 16/9/1
f 17/13/1 18/14/1 19/15/1 20/16/1
f 21/14/1 22/17/1 23/18/1 24/15/1
f 25/17/1 26/19/1 27/20/1 28/18/1
f 29/19/1 30/21/1 31/22/1 32/20/1
f 33/21/1 34/23/1 35/24/1 36/22/1
f 37/23/1 38/1/1 39/4/1 40/24/1
f 41/1/1 42/2/1 43/3/1 44/4/1
f 45/2/1 46/5/1 47/6/1 48/3/1
f 49/5/1 50/25/1 51/26/1 52/6/1
f 53/25/1 54/27/1 55/28/1 56/26/1
f 57/7/1 58/8/1 59/9/1 60/10/1
f 61/7/1 62/8/1 63/9/1 64/10/1
f 65/29/1 66/30/1 67/2/1 68/1/1
f 69/30/1 70/31/1 71/5/1 72/2/1
f 73/31/1 74/32/1 75/25/1 76/5/1
f 77/32/1 78/33/1 79/27/1 80/25/1
f 81/34/1 82/35/1 83/14/1 84/13/1
f 85/35/1 86/36/1 87/17/1 88/14/1
f 89/36/1 90/37/1 91/19/1 92/17/1
f 93/37/1 94/38/1 95/21/1 96/19/1
f 97/38/1 98/39/1 99/23/1 100/21/1
f 101/39/1 102/29/1 103/1/1 104/23/1
f 105/29/1 106/30/1 107/2/1 108/1/1
f 109/30/1 110/31/1 111/5/1 112/2/1
f 113/31/1 114/32/1 115/25/1 116/5/1
f 117/32/1 118/33/1 119/27/1 120/25/1
f 121/34/1 122/35/1 123/14/1 124/13/1
f 125/35/1 126/36/1 127/17/1 128/14/1
f 129/1/1 130/2/1 131/3/1 132/4/1
f 133/2/1 134/5/1 135/6/1 136/3/1
f 137/5/1 138/25/1 139/26/1 140/6/1
f 141/25/1 142/27/1 143/28/1 144/26/1
f 145/13/1 146/14/1 147/15/1 148/16/1
f 149/14/1 150/17/1 151/18/1 152/15/1
f 153/17/1 154/19/1 155/20/1 156/18/1
f 157/19/1 158/21/1 159/22/1 160/20/1
f 161/21/1 162/23/1 163/24/1 164/22/1
f 165/23/1 166/1/1 167/4/1 168/24/1
f 169/1/1 170/2/1 171/3/1 172/4/1
f 173/2/1 174/5/1 175/6/1 176/3/1
f 177/5/1 178/25/1 179/26/1 180/6/1
f 181/25/1 182/27/1 183/28/1 184/26/1
f 185/13/1 186/14/1 187/15/1 188/16/1
f 189/14/1 190/17/1 191/18/1 192/15/1
f 193/29/1 194/30/1 195/2/1 196/1/1
f 197/30/1 198/31/1 199/5/1 200/2/1
f 201/31/1 202/32/1 203/25/1 204/5/1
f 205/32/1 206/33/1 207/27/1 208/25/1
f 209/34/1 210/35/1 211/14/1 212/13/1
f 213/35/1 214/36/1 215/17/1 216/14/1
f 217/36/1 218/37/1 219/19/1 220/17/1
f 221/37/1 222/38/1 223/21/1 224/19/1
f 225/38/1 226/39/1 227/23/1 228/21/1
f 229/39/1 230/29/1 231/1/1 232/23/1
f 233/29/1 234/30/1 235/2/1 236/1/1
f 237/30/1 238/31/1 239/5/1 240/2/1
f 241/31/1 242/32/1 243/25/1 244/5/1
f 245/32/1 246/33/1 247/27/1 248/25/1
f 249/34/1 250/35/1 251/14/1 252/13/1
f 253/35/1 254/36/1 255/17/1 256/14/1
f 257/1/1 258/2/1 259/3/1 260/4/1
f 261/2/1 262/5/1 263/6/1 264/3/1
f 265/5/1 266/25/1 267/26/1 268/6/1
f 269/25/1 270/27/1 271/28/1 272/26/1
f 273/13/1 274/14/1 275/15/1 276/16/1
f 277/14/1 278/17/1 279/18/1 280/15/1
f 281/17/1 282/19/1 283/20/1 284/18/1
f 285/19/1 286/21/1 287/22/1 288/20/1
f 289/21/1 290/23/1 291/24/1 292/22/1
f 293/23/1 294/1/1 295/4/1 296/24/1
f 297/1/1 298/2/1 299/3/1 300/4/1
f 301/2/1 302/5/1 303/6/1 304/3/1
f 305/5/1 306/25/1 307/26/1 308/6/1
f 309/25/1 310/27/1 311/28/1 312/26/1
f 313/13/1 314/14/1 315/15/1 316/16/1
f 317/14/1 318/17/1 319/18/1 320/15/1
f 321/29/1 322/30/1 323/2/1 324/1/1
f 325/30/1 326/31/1 327/5/1 328/2/1
f 329/31/1 330/32/1 331/25/1 332/5/1
f 333/32/1 334/33/1 335/27/1 336/25/1
f 337/34/1 338/35/1 339/14/1 340/13/1
f 341/35/1 342/36/1 343/17/1 344/14/1
f 345/36/1 346/37/1 347/19/1 348/17/1
f 349/37/1 350/38/1 351/21/1 352/19/1
f 353/38/1 354/39/1 355/23/1 356/21/1
f 357/39/1 358/29/1 359/1/1 360/23/1
f 361/29/1 362/30/1 363/2/1 364/1/1
f 365/30/1 366/31/1 367/5/1 368/2/1
f 369/31/1 370/32/1 371/25/1 372/5/1
f 373/32/1 374/33/1 375/27/1 376/25/1
f 377/34/1 378/35/1 379/14/1 380/13/1
f 381/35/1 382/36/1 383/17/1 384/14/1
f 385/1/1 386/2/1 387/3/1 388/4/1
f 389/2/1 390/5/1 391/6/1 392/3/1
f 393/5/1 394/25/1 395/26/1 396/6/1
f 397/25/1 398/27/1 399/28/1 400/26/1
f 401/13/1 402/14/1 403/15/1 404/16/1
f 405/14/1 406/17/1 407/18/1 408/15/1
f 409/17/1 410/19/1 411/20/1 412/18/1
f 413/19/1 414/21/1 415/22/1 416/20/1
f 417/21/1 418/23/1 419/24/1 420/22/1
f 421/23/1 422/1/1 423/4/1 424/24/1
f 425/1/1 426/2/1 427/3/1 428/4/1
f 429/2/1 430/5/1 431/6/1 432/3/1
f 433/5/1 434/25/1 435/26/1 436/6/1
f 437/25/1 438/27/1 439/28/1 440/26/1
f 441/13/1 442/14/1 443/15/1 444/16/1
f 445/14/1 446/17/1 447/18/1 448/15/1
f 449/29/1 450/30/1 451/2/1 452/1/1
f 453/30/1 454/31/1 455/5/1 456/2/1
f 457/31/1 458/32/1 459/25/1 460/5/1
f 461/32/1 462/33/1 463/27/1 464/25/1
f 465/34/1 466/35/1 467/14/1 468/13/1
f 469/35/1 470/36/1 471/17/1 472/14/1
f 473/36/1 474/37/1 475/19/1 476/17/1
f 477/37/1 478/38/1 479/21/1 480/19/1
f 481/38/1 482/39/1 483/23/1 484/21/1
f 485/39/1 486/29/1 487/1/1 488/23/1
f 489/29/1 490/30/1 491/2/1 492/1/1
f 493/30/1 494/31/1 495/5/1 496/2/1
f 497/31/1 498/32/1 499/25/1 500/5/1
f 501/32/1 502/33/1 503/27/1 504/25/1
f 505/34/1 506/35/1 507/14/1 508/13/1
f 509/35/1 510/36/1 511/17/1 512/14/1
f 513/1/1 514/2/1 515/3/1 516/4/1
f 517/2/1 518/5/1 519/6/1 520/3/1
f 521/5/1 522/25/1 523/26/1 524/6/1
f 525/25/1 526/27/1 527/28/1 528/26/1
f 529/13/1 530/14/1 531/15/1 532/16/1
f 533/14/1 534/17/1 535/18/1 536/15/1
f 537/17/1 538/19/1 539/20/1 540/18/1
f 541/19/1 542/21/1 543/22/1 544/20/1
f 545/21/1 546/23/1 547/24/1 548/22/1
f 549/23/1 550/1/1 551/4/1 552/24/1
f 553/1/1 554/2/1 555/3/1 556/4/1
f 557/2/1 558/5/1 559/6/1 560/3/1
f 561/5/1 562/25/1 563/26/1 564/6/1
f 565/25/1 566/27/1 567/28/1 568/26/1
f 569/13/1 570/14/1 571/15/1 572/16/1
f 573/14/1 574/17/1 575/18/1 576/15/1
f 577/29/1 578/30/1 579/2/1 580/1/1
f 581/30/1 582/31/1 583/5/1 584/2/1
f 585/31/1 586/32/1 587/25/1 588/5/1
f 589/32/1 590/33/1 591/27/1 592/25/1
f 593/34/1 594/35/1 595/14/1 596/13/1
f 597/35/1 598/36/1 599/17/1 600/14/1
f 601/36/1 602/37/1 603/19/1 604/17/1
f 605/37/1 606/38/1 607/21/1 608/19/1
f 609/38/1 610/39/1 611/23/1 612/21/1
f 613/39/1 614/29/1 615/1/1 616/23/1
f 617/29/1 618/30/1 619/2/1 620/1/1
f 621/30/1 622/31/1 623/5/1 624/2/1
f 625/31/1 626/32/1 627/25/1 628/5/1
f 629/32/1 630/33/1 631/27/1 632/25/1
f 633/34/1 634/35/1 635/14/1 636/13/1
f 637/35/1 638/36/1 639/17/1 640/14/1
f 641/1/1 642/2/1 643/3/1 644/4/1
f 645/2/1 646/5/1 647/6/1 648/3/1
f 649/5/1 650/25/1 651/26/1 652/6/1
f 653/25/1 654/27/1 655/28/1 656/26/1
f 657/13/1 658/14/1 659/15/1 660/16/1
f 661/14/1 662/17/1 663/18/1 664/15/1
f 665/17/1 666/19/1 667/20/1 668/18/1
f 669/19/1 670/21/1 671/22/1 672/20/1
f 673/21/1 674/23/1 675/24/1 676/22/1
f 677/23/1 678/1/1 679/4/1 680/24/1
f 681/1/1 682/2/1 683/3/1 684/4/1
f 685/2/1 686/5/1 687/6/1 688/3/1
f 689/5/1 690/25/1 691/26/1 692/6/1
f 693/25/1 694/27/1 695/28/1 696/26/1
f 697/13/1 698/14/1 699/15/1 700/16/1
f 701/14/1 702/17/1 703/18/1 704/15/1
f 705/29/1 706/30/1 707/2/1 708/1/1
f 709/30/1 710/31/1 711/5/1 712/2/1
f 713/31/1 714/32/1 715/25/1 716/5/1
f 717/32/1 718/33/1 719/27/1 720/25/1
f 721/34/1 722/35/1 723/14/1 724/13/1
f 725/35/1 726/36/1 727/17/1 728/14/1
f 729/36/1 730/37/1 731/19/1 732/17/1
f 733/37/1 734/38/1 735/21/1 736/19/1
f 737/38/1 738/39/1 739/23/1 740/21/1
f 741/39/1 742/29/1 743/1/1 744/23/1
f 745/29/1 746/30/1 747/2/1 748/1/1
f 749/30/1 750/31/1 751/5/1 752/2/1
f 753/31/1 754/32/1 755/25/1 756/5/1
f 757/32/1 758/33/1 759/27/1 760/25/1
f 761/34/1 762/35/1 763/14/1 764/13/1
f 765/35/1 766/36/1 767/17/1 768/14/1
f 769/1/1 770/2/1 771/3/1 772/4/1
f 773/2/1 774/5/1 775/6/1 776/3/1
f 777/5/1 778/25/1 779/26/1 780/6/1
f 781/25/1 782/27/1 783/28/1 784/26/1
f 785/13/1 786/14/1 787/15/1 788/16/1
f 789/14/1 790/17/1 791/18/1 792/15/1
f 793/17/1 794/19/1 795/20/1 796/18/1
f 797/19/1 798/21/1 799/22/1 800/20/1
f 801/21/1 802/23/1 803/24/1 804/22/1
f 805/23/1 806/1/1 807/4/1 808/24/1
f 809/1/1 810/2/1 811/3/1 812/4/1
f 813/2/1 814/5/1 815/6/1 816/3/1
f 817/5/1 818/25/1 819/26/1 820/6/1
f 821/25/1 822/27/1 823/28/1 824/26/1
f 825/13/1 826/14/1 827/15/1 828/16/1
f 829/14/1 830/17/1 831/18/1 832/15/1
f 833/29/1 834/30/1 835/2/1 836/1/1
f 837/30/1 838/31/1 839/5/1 840/2/1
f 841/31/1 842/32/1 843/25/1 844/5/1
f 845/32/1 846/33/1 847/27/1 848/25/1
f 849/34/1 850/35/1 851/14/1 852/13/1
f 853/35/1 854/36/1 855/17/1 856/14/1
f 857/36/1 858/37/1 859/19/1 860/17/1
f 861/37/1 862/38/1 863/21/1 864/19/1
f 865/38/1 866/39/1 867/23/1 868/21/1
f 869/39/1 870/29/1 871/1/1 872/23/1
f 873/29/1 874/30/1 875/2/1 876/1/1
f 877/30/1 878/31/1 879/5/1 880/2/1
f 881/31/1 882/32/1 883/25/1 884/5/1
f 885/32/1 886/33/1 887/27/1 888/25/1
f 889/34/1 890/35/1 891/14/1 892/13/1
f 893/35/1 894/36/1 895/17/1 896/14/1
f 897/1/1 898/2/1 899/3/1 900/4/1
f 901/2/1 902/5/1 903/6/1 904/3/1
f 905/5/1 906/25/1 907/26/1 908/6/1
f 909/25/1 910/27/1 911/28/1 912/26/1
f 913/13/1 914/14/1 915/15/1 916/16/1
f 917/14/1 918/17/1 919/18/1 920/15/1
f 921/17/1 922/19/1 923/20/1 924/18/1
f 925/19/1 926/21/1 927/22/1 928/20/1
f 929/21/1 930/23/1 931/24/1 932/22/1
f 933/23/1 934/1/1 935/4/1 936/24/1
f 937/1/1 938/2/1 939/3/1 940/4/1
f 941/2/1 942/5/1 943/6/1 944/3/1
f 945/5/1 946/25/1 947/26/1 948/6/1
f 949/25/1 950/27/1 951/28/1 952/26/1
f 953/13/1 954/14/1 955/15/1 956/16/1
f 957/14/1 958/17/1 959/18/1 960/15/1
f 961/29/1 962/30/1 963/2/1 964/1/1
f 965/30/1 966/31/1 967/5/1 968/2/1
f 969/31/1 970/32/1 971/25/1 972/5/1
f 973/32/1 974/33/1 975/27/1 976/25/1
f 977/34/1 978/35/1 979/14/1 980/13/1
f 981/35/1 982/36/1 983/17/1 984/14/1
f 985/36/1 986/37/1 987/19/1 988/17/1
f 989/37/1 990/38/1 991/21/1 992/19/1
f 993/38/1 994/39/1 995/23/1 996/21/1
f 997/39/1 998/29/1 999/1/1 1000/23/1
f 1001/29/1 1002/30/1 1003/2/1 1004/1/1
f 1005/30/1 1006/31/1 1007/5/1 1008/2/1
f 1009/31/1 1010/32/1 1011/25/1 1012/5/1
f 1013/32/1 1014/33/1 1015/27/1 1016/25/1
f 1017/34/1 1018/35/1 1019/14/1 1020/13/1
f 1021/35/1 1022/36/1 1023/17/1 1024/14/1

