# Tiled2Unity generated file. Do not modify by hand.
# Wavefront file for '2ScenarioPlataforma_mesh_0326.obj'

# Vertices (Count = 1024)
v 0 -16 0
v -16 -16 0
v -16 0 0
v 0 0 0
v -16 -16 0
v -32 -16 0
v -32 0 0
v -16 0 0
v -32 -16 0
v -48 -16 0
v -48 0 0
v -32 0 0
v -48 -16 0
v -64 -16 0
v -64 0 0
v -48 0 0
v -64 -16 0
v -80 -16 0
v -80 0 0
v -64 0 0
v -80 -16 0
v -96 -16 0
v -96 0 0
v -80 0 0
v -96 -16 0
v -112 -16 0
v -112 0 0
v -96 0 0
v -112 -16 0
v -128 -16 0
v -128 0 0
v -112 0 0
v -128 -16 0
v -144 -16 0
v -144 0 0
v -128 0 0
v -144 -16 0
v -160 -16 0
v -160 0 0
v -144 0 0
v -160 -16 0
v -176 -16 0
v -176 0 0
v -160 0 0
v -176 -16 0
v -192 -16 0
v -192 0 0
v -176 0 0
v -192 -16 0
v -208 -16 0
v -208 0 0
v -192 0 0
v -208 -16 0
v -224 -16 0
v -224 0 0
v -208 0 0
v -224 -16 0
v -240 -16 0
v -240 0 0
v -224 0 0
v -240 -16 0
v -256 -16 0
v -256 0 0
v -240 0 0
v 0 -32 0
v -16 -32 0
v -16 -16 0
v 0 -16 0
v -16 -32 0
v -32 -32 0
v -32 -16 0
v -16 -16 0
v -32 -32 0
v -48 -32 0
v -48 -16 0
v -32 -16 0
v -48 -32 0
v -64 -32 0
v -64 -16 0
v -48 -16 0
v -64 -32 0
v -80 -32 0
v -80 -16 0
v -64 -16 0
v -80 -32 0
v -96 -32 0
v -96 -16 0
v -80 -16 0
v -96 -32 0
v -112 -32 0
v -112 -16 0
v -96 -16 0
v -112 -32 0
v -128 -32 0
v -128 -16 0
v -112 -16 0
v -128 -32 0
v -144 -32 0
v -144 -16 0
v -128 -16 0
v -144 -32 0
v -160 -32 0
v -160 -16 0
v -144 -16 0
v -160 -32 0
v -176 -32 0
v -176 -16 0
v -160 -16 0
v -176 -32 0
v -192 -32 0
v -192 -16 0
v -176 -16 0
v -192 -32 0
v -208 -32 0
v -208 -16 0
v -192 -16 0
v -208 -32 0
v -224 -32 0
v -224 -16 0
v -208 -16 0
v -224 -32 0
v -240 -32 0
v -240 -16 0
v -224 -16 0
v -240 -32 0
v -256 -32 0
v -256 -16 0
v -240 -16 0
v 0 -48 0
v -16 -48 0
v -16 -32 0
v 0 -32 0
v -16 -48 0
v -32 -48 0
v -32 -32 0
v -16 -32 0
v -32 -48 0
v -48 -48 0
v -48 -32 0
v -32 -32 0
v -48 -48 0
v -64 -48 0
v -64 -32 0
v -48 -32 0
v -64 -48 0
v -80 -48 0
v -80 -32 0
v -64 -32 0
v -80 -48 0
v -96 -48 0
v -96 -32 0
v -80 -32 0
v -96 -48 0
v -112 -48 0
v -112 -32 0
v -96 -32 0
v -112 -48 0
v -128 -48 0
v -128 -32 0
v -112 -32 0
v -128 -48 0
v -144 -48 0
v -144 -32 0
v -128 -32 0
v -144 -48 0
v -160 -48 0
v -160 -32 0
v -144 -32 0
v -160 -48 0
v -176 -48 0
v -176 -32 0
v -160 -32 0
v -176 -48 0
v -192 -48 0
v -192 -32 0
v -176 -32 0
v -192 -48 0
v -208 -48 0
v -208 -32 0
v -192 -32 0
v -208 -48 0
v -224 -48 0
v -224 -32 0
v -208 -32 0
v -224 -48 0
v -240 -48 0
v -240 -32 0
v -224 -32 0
v -240 -48 0
v -256 -48 0
v -256 -32 0
v -240 -32 0
v 0 -64 0
v -16 -64 0
v -16 -48 0
v 0 -48 0
v -16 -64 0
v -32 -64 0
v -32 -48 0
v -16 -48 0
v -32 -64 0
v -48 -64 0
v -48 -48 0
v -32 -48 0
v -48 -64 0
v -64 -64 0
v -64 -48 0
v -48 -48 0
v -64 -64 0
v -80 -64 0
v -80 -48 0
v -64 -48 0
v -80 -64 0
v -96 -64 0
v -96 -48 0
v -80 -48 0
v -96 -64 0
v -112 -64 0
v -112 -48 0
v -96 -48 0
v -112 -64 0
v -128 -64 0
v -128 -48 0
v -112 -48 0
v -128 -64 0
v -144 -64 0
v -144 -48 0
v -128 -48 0
v -144 -64 0
v -160 -64 0
v -160 -48 0
v -144 -48 0
v -160 -64 0
v -176 -64 0
v -176 -48 0
v -160 -48 0
v -176 -64 0
v -192 -64 0
v -192 -48 0
v -176 -48 0
v -192 -64 0
v -208 -64 0
v -208 -48 0
v -192 -48 0
v -208 -64 0
v -224 -64 0
v -224 -48 0
v -208 -48 0
v -224 -64 0
v -240 -64 0
v -240 -48 0
v -224 -48 0
v -240 -64 0
v -256 -64 0
v -256 -48 0
v -240 -48 0
v 0 -80 0
v -16 -80 0
v -16 -64 0
v 0 -64 0
v -16 -80 0
v -32 -80 0
v -32 -64 0
v -16 -64 0
v -32 -80 0
v -48 -80 0
v -48 -64 0
v -32 -64 0
v -48 -80 0
v -64 -80 0
v -64 -64 0
v -48 -64 0
v -64 -80 0
v -80 -80 0
v -80 -64 0
v -64 -64 0
v -80 -80 0
v -96 -80 0
v -96 -64 0
v -80 -64 0
v -96 -80 0
v -112 -80 0
v -112 -64 0
v -96 -64 0
v -112 -80 0
v -128 -80 0
v -128 -64 0
v -112 -64 0
v -128 -80 0
v -144 -80 0
v -144 -64 0
v -128 -64 0
v -144 -80 0
v -160 -80 0
v -160 -64 0
v -144 -64 0
v -160 -80 0
v -176 -80 0
v -176 -64 0
v -160 -64 0
v -176 -80 0
v -192 -80 0
v -192 -64 0
v -176 -64 0
v -192 -80 0
v -208 -80 0
v -208 -64 0
v -192 -64 0
v -208 -80 0
v -224 -80 0
v -224 -64 0
v -208 -64 0
v -224 -80 0
v -240 -80 0
v -240 -64 0
v -224 -64 0
v -240 -80 0
v -256 -80 0
v -256 -64 0
v -240 -64 0
v 0 -96 0
v -16 -96 0
v -16 -80 0
v 0 -80 0
v -16 -96 0
v -32 -96 0
v -32 -80 0
v -16 -80 0
v -32 -96 0
v -48 -96 0
v -48 -80 0
v -32 -80 0
v -48 -96 0
v -64 -96 0
v -64 -80 0
v -48 -80 0
v -64 -96 0
v -80 -96 0
v -80 -80 0
v -64 -80 0
v -80 -96 0
v -96 -96 0
v -96 -80 0
v -80 -80 0
v -96 -96 0
v -112 -96 0
v -112 -80 0
v -96 -80 0
v -112 -96 0
v -128 -96 0
v -128 -80 0
v -112 -80 0
v -128 -96 0
v -144 -96 0
v -144 -80 0
v -128 -80 0
v -144 -96 0
v -160 -96 0
v -160 -80 0
v -144 -80 0
v -160 -96 0
v -176 -96 0
v -176 -80 0
v -160 -80 0
v -176 -96 0
v -192 -96 0
v -192 -80 0
v -176 -80 0
v -192 -96 0
v -208 -96 0
v -208 -80 0
v -192 -80 0
v -208 -96 0
v -224 -96 0
v -224 -80 0
v -208 -80 0
v -224 -96 0
v -240 -96 0
v -240 -80 0
v -224 -80 0
v -240 -96 0
v -256 -96 0
v -256 -80 0
v -240 -80 0
v 0 -112 0
v -16 -112 0
v -16 -96 0
v 0 -96 0
v -16 -112 0
v -32 -112 0
v -32 -96 0
v -16 -96 0
v -32 -112 0
v -48 -112 0
v -48 -96 0
v -32 -96 0
v -48 -112 0
v -64 -112 0
v -64 -96 0
v -48 -96 0
v -64 -112 0
v -80 -112 0
v -80 -96 0
v -64 -96 0
v -80 -112 0
v -96 -112 0
v -96 -96 0
v -80 -96 0
v -96 -112 0
v -112 -112 0
v -112 -96 0
v -96 -96 0
v -112 -112 0
v -128 -112 0
v -128 -96 0
v -112 -96 0
v -128 -112 0
v -144 -112 0
v -144 -96 0
v -128 -96 0
v -144 -112 0
v -160 -112 0
v -160 -96 0
v -144 -96 0
v -160 -112 0
v -176 -112 0
v -176 -96 0
v -160 -96 0
v -176 -112 0
v -192 -112 0
v -192 -96 0
v -176 -96 0
v -192 -112 0
v -208 -112 0
v -208 -96 0
v -192 -96 0
v -208 -112 0
v -224 -112 0
v -224 -96 0
v -208 -96 0
v -224 -112 0
v -240 -112 0
v -240 -96 0
v -224 -96 0
v -240 -112 0
v -256 -112 0
v -256 -96 0
v -240 -96 0
v 0 -128 0
v -16 -128 0
v -16 -112 0
v 0 -112 0
v -16 -128 0
v -32 -128 0
v -32 -112 0
v -16 -112 0
v -32 -128 0
v -48 -128 0
v -48 -112 0
v -32 -112 0
v -48 -128 0
v -64 -128 0
v -64 -112 0
v -48 -112 0
v -64 -128 0
v -80 -128 0
v -80 -112 0
v -64 -112 0
v -80 -128 0
v -96 -128 0
v -96 -112 0
v -80 -112 0
v -96 -128 0
v -112 -128 0
v -112 -112 0
v -96 -112 0
v -112 -128 0
v -128 -128 0
v -128 -112 0
v -112 -112 0
v -128 -128 0
v -144 -128 0
v -144 -112 0
v -128 -112 0
v -144 -128 0
v -160 -128 0
v -160 -112 0
v -144 -112 0
v -160 -128 0
v -176 -128 0
v -176 -112 0
v -160 -112 0
v -176 -128 0
v -192 -128 0
v -192 -112 0
v -176 -112 0
v -192 -128 0
v -208 -128 0
v -208 -112 0
v -192 -112 0
v -208 -128 0
v -224 -128 0
v -224 -112 0
v -208 -112 0
v -224 -128 0
v -240 -128 0
v -240 -112 0
v -224 -112 0
v -240 -128 0
v -256 -128 0
v -256 -112 0
v -240 -112 0
v 0 -144 0
v -16 -144 0
v -16 -128 0
v 0 -128 0
v -16 -144 0
v -32 -144 0
v -32 -128 0
v -16 -128 0
v -32 -144 0
v -48 -144 0
v -48 -128 0
v -32 -128 0
v -48 -144 0
v -64 -144 0
v -64 -128 0
v -48 -128 0
v -64 -144 0
v -80 -144 0
v -80 -128 0
v -64 -128 0
v -80 -144 0
v -96 -144 0
v -96 -128 0
v -80 -128 0
v -96 -144 0
v -112 -144 0
v -112 -128 0
v -96 -128 0
v -112 -144 0
v -128 -144 0
v -128 -128 0
v -112 -128 0
v -128 -144 0
v -144 -144 0
v -144 -128 0
v -128 -128 0
v -144 -144 0
v -160 -144 0
v -160 -128 0
v -144 -128 0
v -160 -144 0
v -176 -144 0
v -176 -128 0
v -160 -128 0
v -176 -144 0
v -192 -144 0
v -192 -128 0
v -176 -128 0
v -192 -144 0
v -208 -144 0
v -208 -128 0
v -192 -128 0
v -208 -144 0
v -224 -144 0
v -224 -128 0
v -208 -128 0
v -224 -144 0
v -240 -144 0
v -240 -128 0
v -224 -128 0
v -240 -144 0
v -256 -144 0
v -256 -128 0
v -240 -128 0
v 0 -160 0
v -16 -160 0
v -16 -144 0
v 0 -144 0
v -16 -160 0
v -32 -160 0
v -32 -144 0
v -16 -144 0
v -32 -160 0
v -48 -160 0
v -48 -144 0
v -32 -144 0
v -48 -160 0
v -64 -160 0
v -64 -144 0
v -48 -144 0
v -64 -160 0
v -80 -160 0
v -80 -144 0
v -64 -144 0
v -80 -160 0
v -96 -160 0
v -96 -144 0
v -80 -144 0
v -96 -160 0
v -112 -160 0
v -112 -144 0
v -96 -144 0
v -112 -160 0
v -128 -160 0
v -128 -144 0
v -112 -144 0
v -128 -160 0
v -144 -160 0
v -144 -144 0
v -128 -144 0
v -144 -160 0
v -160 -160 0
v -160 -144 0
v -144 -144 0
v -160 -160 0
v -176 -160 0
v -176 -144 0
v -160 -144 0
v -176 -160 0
v -192 -160 0
v -192 -144 0
v -176 -144 0
v -192 -160 0
v -208 -160 0
v -208 -144 0
v -192 -144 0
v -208 -160 0
v -224 -160 0
v -224 -144 0
v -208 -144 0
v -224 -160 0
v -240 -160 0
v -240 -144 0
v -224 -144 0
v -240 -160 0
v -256 -160 0
v -256 -144 0
v -240 -144 0
v 0 -176 0
v -16 -176 0
v -16 -160 0
v 0 -160 0
v -16 -176 0
v -32 -176 0
v -32 -160 0
v -16 -160 0
v -32 -176 0
v -48 -176 0
v -48 -160 0
v -32 -160 0
v -48 -176 0
v -64 -176 0
v -64 -160 0
v -48 -160 0
v -64 -176 0
v -80 -176 0
v -80 -160 0
v -64 -160 0
v -80 -176 0
v -96 -176 0
v -96 -160 0
v -80 -160 0
v -96 -176 0
v -112 -176 0
v -112 -160 0
v -96 -160 0
v -112 -176 0
v -128 -176 0
v -128 -160 0
v -112 -160 0
v -128 -176 0
v -144 -176 0
v -144 -160 0
v -128 -160 0
v -144 -176 0
v -160 -176 0
v -160 -160 0
v -144 -160 0
v -160 -176 0
v -176 -176 0
v -176 -160 0
v -160 -160 0
v -176 -176 0
v -192 -176 0
v -192 -160 0
v -176 -160 0
v -192 -176 0
v -208 -176 0
v -208 -160 0
v -192 -160 0
v -208 -176 0
v -224 -176 0
v -224 -160 0
v -208 -160 0
v -224 -176 0
v -240 -176 0
v -240 -160 0
v -224 -160 0
v -240 -176 0
v -256 -176 0
v -256 -160 0
v -240 -160 0
v 0 -192 0
v -16 -192 0
v -16 -176 0
v 0 -176 0
v -16 -192 0
v -32 -192 0
v -32 -176 0
v -16 -176 0
v -32 -192 0
v -48 -192 0
v -48 -176 0
v -32 -176 0
v -48 -192 0
v -64 -192 0
v -64 -176 0
v -48 -176 0
v -64 -192 0
v -80 -192 0
v -80 -176 0
v -64 -176 0
v -80 -192 0
v -96 -192 0
v -96 -176 0
v -80 -176 0
v -96 -192 0
v -112 -192 0
v -112 -176 0
v -96 -176 0
v -112 -192 0
v -128 -192 0
v -128 -176 0
v -112 -176 0
v -128 -192 0
v -144 -192 0
v -144 -176 0
v -128 -176 0
v -144 -192 0
v -160 -192 0
v -160 -176 0
v -144 -176 0
v -160 -192 0
v -176 -192 0
v -176 -176 0
v -160 -176 0
v -176 -192 0
v -192 -192 0
v -192 -176 0
v -176 -176 0
v -192 -192 0
v -208 -192 0
v -208 -176 0
v -192 -176 0
v -208 -192 0
v -224 -192 0
v -224 -176 0
v -208 -176 0
v -224 -192 0
v -240 -192 0
v -240 -176 0
v -224 -176 0
v -240 -192 0
v -256 -192 0
v -256 -176 0
v -240 -176 0
v 0 -208 0
v -16 -208 0
v -16 -192 0
v 0 -192 0
v -16 -208 0
v -32 -208 0
v -32 -192 0
v -16 -192 0
v -32 -208 0
v -48 -208 0
v -48 -192 0
v -32 -192 0
v -48 -208 0
v -64 -208 0
v -64 -192 0
v -48 -192 0
v -64 -208 0
v -80 -208 0
v -80 -192 0
v -64 -192 0
v -80 -208 0
v -96 -208 0
v -96 -192 0
v -80 -192 0
v -96 -208 0
v -112 -208 0
v -112 -192 0
v -96 -192 0
v -112 -208 0
v -128 -208 0
v -128 -192 0
v -112 -192 0
v -128 -208 0
v -144 -208 0
v -144 -192 0
v -128 -192 0
v -144 -208 0
v -160 -208 0
v -160 -192 0
v -144 -192 0
v -160 -208 0
v -176 -208 0
v -176 -192 0
v -160 -192 0
v -176 -208 0
v -192 -208 0
v -192 -192 0
v -176 -192 0
v -192 -208 0
v -208 -208 0
v -208 -192 0
v -192 -192 0
v -208 -208 0
v -224 -208 0
v -224 -192 0
v -208 -192 0
v -224 -208 0
v -240 -208 0
v -240 -192 0
v -224 -192 0
v -240 -208 0
v -256 -208 0
v -256 -192 0
v -240 -192 0
v 0 -224 0
v -16 -224 0
v -16 -208 0
v 0 -208 0
v -16 -224 0
v -32 -224 0
v -32 -208 0
v -16 -208 0
v -32 -224 0
v -48 -224 0
v -48 -208 0
v -32 -208 0
v -48 -224 0
v -64 -224 0
v -64 -208 0
v -48 -208 0
v -64 -224 0
v -80 -224 0
v -80 -208 0
v -64 -208 0
v -80 -224 0
v -96 -224 0
v -96 -208 0
v -80 -208 0
v -96 -224 0
v -112 -224 0
v -112 -208 0
v -96 -208 0
v -112 -224 0
v -128 -224 0
v -128 -208 0
v -112 -208 0
v -128 -224 0
v -144 -224 0
v -144 -208 0
v -128 -208 0
v -144 -224 0
v -160 -224 0
v -160 -208 0
v -144 -208 0
v -160 -224 0
v -176 -224 0
v -176 -208 0
v -160 -208 0
v -176 -224 0
v -192 -224 0
v -192 -208 0
v -176 -208 0
v -192 -224 0
v -208 -224 0
v -208 -208 0
v -192 -208 0
v -208 -224 0
v -224 -224 0
v -224 -208 0
v -208 -208 0
v -224 -224 0
v -240 -224 0
v -240 -208 0
v -224 -208 0
v -240 -224 0
v -256 -224 0
v -256 -208 0
v -240 -208 0
v 0 -240 0
v -16 -240 0
v -16 -224 0
v 0 -224 0
v -16 -240 0
v -32 -240 0
v -32 -224 0
v -16 -224 0
v -32 -240 0
v -48 -240 0
v -48 -224 0
v -32 -224 0
v -48 -240 0
v -64 -240 0
v -64 -224 0
v -48 -224 0
v -64 -240 0
v -80 -240 0
v -80 -224 0
v -64 -224 0
v -80 -240 0
v -96 -240 0
v -96 -224 0
v -80 -224 0
v -96 -240 0
v -112 -240 0
v -112 -224 0
v -96 -224 0
v -112 -240 0
v -128 -240 0
v -128 -224 0
v -112 -224 0
v -128 -240 0
v -144 -240 0
v -144 -224 0
v -128 -224 0
v -144 -240 0
v -160 -240 0
v -160 -224 0
v -144 -224 0
v -160 -240 0
v -176 -240 0
v -176 -224 0
v -160 -224 0
v -176 -240 0
v -192 -240 0
v -192 -224 0
v -176 -224 0
v -192 -240 0
v -208 -240 0
v -208 -224 0
v -192 -224 0
v -208 -240 0
v -224 -240 0
v -224 -224 0
v -208 -224 0
v -224 -240 0
v -240 -240 0
v -240 -224 0
v -224 -224 0
v -240 -240 0
v -256 -240 0
v -256 -224 0
v -240 -224 0
v 0 -256 0
v -16 -256 0
v -16 -240 0
v 0 -240 0
v -16 -256 0
v -32 -256 0
v -32 -240 0
v -16 -240 0
v -32 -256 0
v -48 -256 0
v -48 -240 0
v -32 -240 0
v -48 -256 0
v -64 -256 0
v -64 -240 0
v -48 -240 0
v -64 -256 0
v -80 -256 0
v -80 -240 0
v -64 -240 0
v -80 -256 0
v -96 -256 0
v -96 -240 0
v -80 -240 0
v -96 -256 0
v -112 -256 0
v -112 -240 0
v -96 -240 0
v -112 -256 0
v -128 -256 0
v -128 -240 0
v -112 -240 0
v -128 -256 0
v -144 -256 0
v -144 -240 0
v -128 -240 0
v -144 -256 0
v -160 -256 0
v -160 -240 0
v -144 -240 0
v -160 -256 0
v -176 -256 0
v -176 -240 0
v -160 -240 0
v -176 -256 0
v -192 -256 0
v -192 -240 0
v -176 -240 0
v -192 -256 0
v -208 -256 0
v -208 -240 0
v -192 -240 0
v -208 -256 0
v -224 -256 0
v -224 -240 0
v -208 -240 0
v -224 -256 0
v -240 -256 0
v -240 -240 0
v -224 -240 0
v -240 -256 0
v -256 -256 0
v -256 -240 0
v -240 -240 0

# Texture cooridinates (Count = 42)
vt 0.08510638 0.9375
vt 0.07446808 0.9375
vt 0.07446808 0.875
vt 0.08510638 0.875
vt 0.06382979 0.9375
vt 0.06382979 0.875
vt 0.05319149 0.9375
vt 0.05319149 0.875
vt 0.04255319 0.9375
vt 0.04255319 0.875
vt 0.1489362 0.9375
vt 0.1382979 0.9375
vt 0.1382979 0.875
vt 0.1489362 0.875
vt 0.1276596 0.9375
vt 0.1276596 0.875
vt 0.1170213 0.9375
vt 0.1170213 0.875
vt 0.106383 0.9375
vt 0.106383 0.875
vt 0.1489362 0.3125
vt 0.1595745 0.3125
vt 0.1595745 0.375
vt 0.1489362 0.375
vt 0.1702128 0.3125
vt 0.1702128 0.375
vt 0.1595745 0.4375
vt 0.1489362 0.4375
vt 0.1702128 0.4375
vt 0.08510638 1
vt 0.07446808 1
vt 0.06382979 1
vt 0.05319149 1
vt 0.04255319 1
vt 0.1489362 1
vt 0.1382979 1
vt 0.1276596 1
vt 0.1170213 1
vt 0.106383 1
vt 0.09574468 0.9375
vt 0.09574468 0.875
vt 0.09574468 1

# Normal
vn 0 0 -1

# Mesh description
g 2ScenarioPlataforma_mesh_0326

# Faces
f 1/1/1 2/2/1 3/3/1 4/4/1
f 5/2/1 6/5/1 7/6/1 8/3/1
f 9/5/1 10/7/1 11/8/1 12/6/1
f 13/7/1 14/9/1 15/10/1 16/8/1
f 17/11/1 18/12/1 19/13/1 20/14/1
f 21/12/1 22/15/1 23/16/1 24/13/1
f 25/15/1 26/17/1 27/18/1 28/16/1
f 29/17/1 30/19/1 31/20/1 32/18/1
f 33/21/1 34/22/1 35/23/1 36/24/1
f 37/21/1 38/22/1 39/23/1 40/24/1
f 41/22/1 42/25/1 43/26/1 44/23/1
f 45/2/1 46/5/1 47/6/1 48/3/1
f 49/5/1 50/7/1 51/8/1 52/6/1
f 53/24/1 54/23/1 55/27/1 56/28/1
f 57/23/1 58/26/1 59/29/1 60/27/1
f 61/12/1 62/15/1 63/16/1 64/13/1
f 65/30/1 66/31/1 67/2/1 68/1/1
f 69/31/1 70/32/1 71/5/1 72/2/1
f 73/32/1 74/33/1 75/7/1 76/5/1
f 77/33/1 78/34/1 79/9/1 80/7/1
f 81/35/1 82/36/1 83/12/1 84/11/1
f 85/36/1 86/37/1 87/15/1 88/12/1
f 89/37/1 90/38/1 91/17/1 92/15/1
f 93/38/1 94/39/1 95/19/1 96/17/1
f 97/21/1 98/22/1 99/23/1 100/24/1
f 101/22/1 102/25/1 103/26/1 104/23/1
f 105/22/1 106/25/1 107/26/1 108/23/1
f 109/23/1 110/26/1 111/29/1 112/27/1
f 113/23/1 114/26/1 115/29/1 116/27/1
f 117/23/1 118/26/1 119/29/1 120/27/1
f 121/23/1 122/26/1 123/29/1 124/27/1
f 125/36/1 126/37/1 127/15/1 128/12/1
f 129/1/1 130/2/1 131/3/1 132/4/1
f 133/2/1 134/5/1 135/6/1 136/3/1
f 137/5/1 138/7/1 139/8/1 140/6/1
f 141/7/1 142/9/1 143/10/1 144/8/1
f 145/11/1 146/12/1 147/13/1 148/14/1
f 149/12/1 150/15/1 151/16/1 152/13/1
f 153/15/1 154/17/1 155/18/1 156/16/1
f 157/17/1 158/19/1 159/20/1 160/18/1
f 161/19/1 162/40/1 163/41/1 164/20/1
f 165/21/1 166/22/1 167/23/1 168/24/1
f 169/22/1 170/25/1 171/26/1 172/23/1
f 173/22/1 174/25/1 175/26/1 176/23/1
f 177/22/1 178/25/1 179/26/1 180/23/1
f 181/22/1 182/25/1 183/26/1 184/23/1
f 185/22/1 186/25/1 187/26/1 188/23/1
f 189/12/1 190/15/1 191/16/1 192/13/1
f 193/30/1 194/31/1 195/2/1 196/1/1
f 197/31/1 198/32/1 199/5/1 200/2/1
f 201/32/1 202/33/1 203/7/1 204/5/1
f 205/33/1 206/34/1 207/9/1 208/7/1
f 209/35/1 210/36/1 211/12/1 212/11/1
f 213/36/1 214/37/1 215/15/1 216/12/1
f 217/37/1 218/38/1 219/17/1 220/15/1
f 221/38/1 222/39/1 223/19/1 224/17/1
f 225/39/1 226/42/1 227/40/1 228/19/1
f 229/42/1 230/30/1 231/1/1 232/40/1
f 233/30/1 234/31/1 235/2/1 236/1/1
f 237/21/1 238/22/1 239/23/1 240/24/1
f 241/22/1 242/25/1 243/26/1 244/23/1
f 245/33/1 246/34/1 247/9/1 248/7/1
f 249/35/1 250/36/1 251/12/1 252/11/1
f 253/36/1 254/37/1 255/15/1 256/12/1
f 257/1/1 258/2/1 259/3/1 260/4/1
f 261/2/1 262/5/1 263/6/1 264/3/1
f 265/5/1 266/7/1 267/8/1 268/6/1
f 269/7/1 270/9/1 271/10/1 272/8/1
f 273/11/1 274/12/1 275/13/1 276/14/1
f 277/12/1 278/15/1 279/16/1 280/13/1
f 281/15/1 282/17/1 283/18/1 284/16/1
f 285/17/1 286/19/1 287/20/1 288/18/1
f 289/19/1 290/40/1 291/41/1 292/20/1
f 293/40/1 294/1/1 295/4/1 296/41/1
f 297/1/1 298/2/1 299/3/1 300/4/1
f 301/2/1 302/5/1 303/6/1 304/3/1
f 305/5/1 306/7/1 307/8/1 308/6/1
f 309/7/1 310/9/1 311/10/1 312/8/1
f 313/11/1 314/12/1 315/13/1 316/14/1
f 317/12/1 318/15/1 319/16/1 320/13/1
f 321/30/1 322/31/1 323/2/1 324/1/1
f 325/31/1 326/32/1 327/5/1 328/2/1
f 329/32/1 330/33/1 331/7/1 332/5/1
f 333/33/1 334/34/1 335/9/1 336/7/1
f 337/35/1 338/36/1 339/12/1 340/11/1
f 341/36/1 342/37/1 343/15/1 344/12/1
f 345/37/1 346/38/1 347/17/1 348/15/1
f 349/38/1 350/39/1 351/19/1 352/17/1
f 353/39/1 354/42/1 355/40/1 356/19/1
f 357/42/1 358/30/1 359/1/1 360/40/1
f 361/30/1 362/31/1 363/2/1 364/1/1
f 365/31/1 366/32/1 367/5/1 368/2/1
f 369/32/1 370/33/1 371/7/1 372/5/1
f 373/33/1 374/34/1 375/9/1 376/7/1
f 377/35/1 378/36/1 379/12/1 380/11/1
f 381/36/1 382/37/1 383/15/1 384/12/1
f 385/1/1 386/2/1 387/3/1 388/4/1
f 389/2/1 390/5/1 391/6/1 392/3/1
f 393/5/1 394/7/1 395/8/1 396/6/1
f 397/7/1 398/9/1 399/10/1 400/8/1
f 401/11/1 402/12/1 403/13/1 404/14/1
f 405/12/1 406/15/1 407/16/1 408/13/1
f 409/15/1 410/17/1 411/18/1 412/16/1
f 413/17/1 414/19/1 415/20/1 416/18/1
f 417/19/1 418/40/1 419/41/1 420/20/1
f 421/40/1 422/1/1 423/4/1 424/41/1
f 425/1/1 426/2/1 427/3/1 428/4/1
f 429/2/1 430/5/1 431/6/1 432/3/1
f 433/5/1 434/7/1 435/8/1 436/6/1
f 437/7/1 438/9/1 439/10/1 440/8/1
f 441/11/1 442/12/1 443/13/1 444/14/1
f 445/12/1 446/15/1 447/16/1 448/13/1
f 449/30/1 450/31/1 451/2/1 452/1/1
f 453/31/1 454/32/1 455/5/1 456/2/1
f 457/32/1 458/33/1 459/7/1 460/5/1
f 461/33/1 462/34/1 463/9/1 464/7/1
f 465/35/1 466/36/1 467/12/1 468/11/1
f 469/36/1 470/37/1 471/15/1 472/12/1
f 473/37/1 474/38/1 475/17/1 476/15/1
f 477/38/1 478/39/1 479/19/1 480/17/1
f 481/39/1 482/42/1 483/40/1 484/19/1
f 485/42/1 486/30/1 487/1/1 488/40/1
f 489/30/1 490/31/1 491/2/1 492/1/1
f 493/31/1 494/32/1 495/5/1 496/2/1
f 497/32/1 498/33/1 499/7/1 500/5/1
f 501/33/1 502/34/1 503/9/1 504/7/1
f 505/35/1 506/36/1 507/12/1 508/11/1
f 509/36/1 510/37/1 511/15/1 512/12/1
f 513/1/1 514/2/1 515/3/1 516/4/1
f 517/2/1 518/5/1 519/6/1 520/3/1
f 521/5/1 522/7/1 523/8/1 524/6/1
f 525/7/1 526/9/1 527/10/1 528/8/1
f 529/11/1 530/12/1 531/13/1 532/14/1
f 533/12/1 534/15/1 535/16/1 536/13/1
f 537/15/1 538/17/1 539/18/1 540/16/1
f 541/17/1 542/19/1 543/20/1 544/18/1
f 545/19/1 546/40/1 547/41/1 548/20/1
f 549/40/1 550/1/1 551/4/1 552/41/1
f 553/1/1 554/2/1 555/3/1 556/4/1
f 557/2/1 558/5/1 559/6/1 560/3/1
f 561/5/1 562/7/1 563/8/1 564/6/1
f 565/7/1 566/9/1 567/10/1 568/8/1
f 569/11/1 570/12/1 571/13/1 572/14/1
f 573/12/1 574/15/1 575/16/1 576/13/1
f 577/30/1 578/31/1 579/2/1 580/1/1
f 581/31/1 582/32/1 583/5/1 584/2/1
f 585/32/1 586/33/1 587/7/1 588/5/1
f 589/33/1 590/34/1 591/9/1 592/7/1
f 593/35/1 594/36/1 595/12/1 596/11/1
f 597/36/1 598/37/1 599/15/1 600/12/1
f 601/37/1 602/38/1 603/17/1 604/15/1
f 605/38/1 606/39/1 607/19/1 608/17/1
f 609/39/1 610/42/1 611/40/1 612/19/1
f 613/42/1 614/30/1 615/1/1 616/40/1
f 617/30/1 618/31/1 619/2/1 620/1/1
f 621/31/1 622/32/1 623/5/1 624/2/1
f 625/32/1 626/33/1 627/7/1 628/5/1
f 629/33/1 630/34/1 631/9/1 632/7/1
f 633/35/1 634/36/1 635/12/1 636/11/1
f 637/36/1 638/37/1 639/15/1 640/12/1
f 641/1/1 642/2/1 643/3/1 644/4/1
f 645/2/1 646/5/1 647/6/1 648/3/1
f 649/5/1 650/7/1 651/8/1 652/6/1
f 653/7/1 654/9/1 655/10/1 656/8/1
f 657/11/1 658/12/1 659/13/1 660/14/1
f 661/12/1 662/15/1 663/16/1 664/13/1
f 665/15/1 666/17/1 667/18/1 668/16/1
f 669/17/1 670/19/1 671/20/1 672/18/1
f 673/19/1 674/40/1 675/41/1 676/20/1
f 677/40/1 678/1/1 679/4/1 680/41/1
f 681/1/1 682/2/1 683/3/1 684/4/1
f 685/2/1 686/5/1 687/6/1 688/3/1
f 689/5/1 690/7/1 691/8/1 692/6/1
f 693/7/1 694/9/1 695/10/1 696/8/1
f 697/11/1 698/12/1 699/13/1 700/14/1
f 701/12/1 702/15/1 703/16/1 704/13/1
f 705/30/1 706/31/1 707/2/1 708/1/1
f 709/31/1 710/32/1 711/5/1 712/2/1
f 713/32/1 714/33/1 715/7/1 716/5/1
f 717/33/1 718/34/1 719/9/1 720/7/1
f 721/35/1 722/36/1 723/12/1 724/11/1
f 725/36/1 726/37/1 727/15/1 728/12/1
f 729/37/1 730/38/1 731/17/1 732/15/1
f 733/38/1 734/39/1 735/19/1 736/17/1
f 737/39/1 738/42/1 739/40/1 740/19/1
f 741/42/1 742/30/1 743/1/1 744/40/1
f 745/30/1 746/31/1 747/2/1 748/1/1
f 749/31/1 750/32/1 751/5/1 752/2/1
f 753/32/1 754/33/1 755/7/1 756/5/1
f 757/33/1 758/34/1 759/9/1 760/7/1
f 761/35/1 762/36/1 763/12/1 764/11/1
f 765/36/1 766/37/1 767/15/1 768/12/1
f 769/1/1 770/2/1 771/3/1 772/4/1
f 773/2/1 774/5/1 775/6/1 776/3/1
f 777/5/1 778/7/1 779/8/1 780/6/1
f 781/7/1 782/9/1 783/10/1 784/8/1
f 785/11/1 786/12/1 787/13/1 788/14/1
f 789/12/1 790/15/1 791/16/1 792/13/1
f 793/15/1 794/17/1 795/18/1 796/16/1
f 797/17/1 798/19/1 799/20/1 800/18/1
f 801/19/1 802/40/1 803/41/1 804/20/1
f 805/40/1 806/1/1 807/4/1 808/41/1
f 809/1/1 810/2/1 811/3/1 812/4/1
f 813/2/1 814/5/1 815/6/1 816/3/1
f 817/5/1 818/7/1 819/8/1 820/6/1
f 821/7/1 822/9/1 823/10/1 824/8/1
f 825/11/1 826/12/1 827/13/1 828/14/1
f 829/12/1 830/15/1 831/16/1 832/13/1
f 833/30/1 834/31/1 835/2/1 836/1/1
f 837/31/1 838/32/1 839/5/1 840/2/1
f 841/32/1 842/33/1 843/7/1 844/5/1
f 845/33/1 846/34/1 847/9/1 848/7/1
f 849/35/1 850/36/1 851/12/1 852/11/1
f 853/36/1 854/37/1 855/15/1 856/12/1
f 857/37/1 858/38/1 859/17/1 860/15/1
f 861/38/1 862/39/1 863/19/1 864/17/1
f 865/39/1 866/42/1 867/40/1 868/19/1
f 869/42/1 870/30/1 871/1/1 872/40/1
f 873/30/1 874/31/1 875/2/1 876/1/1
f 877/31/1 878/32/1 879/5/1 880/2/1
f 881/32/1 882/33/1 883/7/1 884/5/1
f 885/33/1 886/34/1 887/9/1 888/7/1
f 889/35/1 890/36/1 891/12/1 892/11/1
f 893/36/1 894/37/1 895/15/1 896/12/1
f 897/1/1 898/2/1 899/3/1 900/4/1
f 901/2/1 902/5/1 903/6/1 904/3/1
f 905/5/1 906/7/1 907/8/1 908/6/1
f 909/7/1 910/9/1 911/10/1 912/8/1
f 913/11/1 914/12/1 915/13/1 916/14/1
f 917/12/1 918/15/1 919/16/1 920/13/1
f 921/15/1 922/17/1 923/18/1 924/16/1
f 925/17/1 926/19/1 927/20/1 928/18/1
f 929/19/1 930/40/1 931/41/1 932/20/1
f 933/40/1 934/1/1 935/4/1 936/41/1
f 937/1/1 938/2/1 939/3/1 940/4/1
f 941/2/1 942/5/1 943/6/1 944/3/1
f 945/5/1 946/7/1 947/8/1 948/6/1
f 949/7/1 950/9/1 951/10/1 952/8/1
f 953/11/1 954/12/1 955/13/1 956/14/1
f 957/12/1 958/15/1 959/16/1 960/13/1
f 961/30/1 962/31/1 963/2/1 964/1/1
f 965/31/1 966/32/1 967/5/1 968/2/1
f 969/32/1 970/33/1 971/7/1 972/5/1
f 973/33/1 974/34/1 975/9/1 976/7/1
f 977/35/1 978/36/1 979/12/1 980/11/1
f 981/36/1 982/37/1 983/15/1 984/12/1
f 985/37/1 986/38/1 987/17/1 988/15/1
f 989/38/1 990/39/1 991/19/1 992/17/1
f 993/39/1 994/42/1 995/40/1 996/19/1
f 997/42/1 998/30/1 999/1/1 1000/40/1
f 1001/30/1 1002/31/1 1003/2/1 1004/1/1
f 1005/31/1 1006/32/1 1007/5/1 1008/2/1
f 1009/32/1 1010/33/1 1011/7/1 1012/5/1
f 1013/33/1 1014/34/1 1015/9/1 1016/7/1
f 1017/35/1 1018/36/1 1019/12/1 1020/11/1
f 1021/36/1 1022/37/1 1023/15/1 1024/12/1

