# Tiled2Unity generated file. Do not modify by hand.
# Wavefront file for '2ScenarioPlataforma_mesh_0612.obj'

# Vertices (Count = 16)
v -144 -48 0
v -160 -48 0
v -160 -32 0
v -144 -32 0
v -176 -48 0
v -192 -48 0
v -192 -32 0
v -176 -32 0
v -32 -144 0
v -48 -144 0
v -48 -128 0
v -32 -128 0
v -64 -144 0
v -80 -144 0
v -80 -128 0
v -64 -128 0

# Texture cooridinates (Count = 10)
vt 0.5 0.875
vt 0.4761905 0.875
vt 0.4761905 0.8125
vt 0.5 0.8125
vt 0.5714286 0.875
vt 0.547619 0.875
vt 0.547619 0.8125
vt 0.5714286 0.8125
vt 0.5952381 0.875
vt 0.5952381 0.8125

# Normal
vn 0 0 -1

# Mesh description
g 2ScenarioPlataforma_mesh_0612

# Faces
f 1/1/1 2/2/1 3/3/1 4/4/1
f 5/1/1 6/2/1 7/3/1 8/4/1
f 9/5/1 10/6/1 11/7/1 12/8/1
f 13/9/1 14/5/1 15/8/1 16/10/1

