# Tiled2Unity generated file. Do not modify by hand.
# Wavefront file for '2ScenarioPlataforma_mesh_0984.obj'

# Vertices (Count = 768)
v 0 -80 0
v -16 -80 0
v -16 -64 0
v 0 -64 0
v -16 -80 0
v -32 -80 0
v -32 -64 0
v -16 -64 0
v -32 -80 0
v -48 -80 0
v -48 -64 0
v -32 -64 0
v -48 -80 0
v -64 -80 0
v -64 -64 0
v -48 -64 0
v -64 -80 0
v -80 -80 0
v -80 -64 0
v -64 -64 0
v -80 -80 0
v -96 -80 0
v -96 -64 0
v -80 -64 0
v -96 -80 0
v -112 -80 0
v -112 -64 0
v -96 -64 0
v -112 -80 0
v -128 -80 0
v -128 -64 0
v -112 -64 0
v -128 -80 0
v -144 -80 0
v -144 -64 0
v -128 -64 0
v -144 -80 0
v -160 -80 0
v -160 -64 0
v -144 -64 0
v -160 -80 0
v -176 -80 0
v -176 -64 0
v -160 -64 0
v -176 -80 0
v -192 -80 0
v -192 -64 0
v -176 -64 0
v -192 -80 0
v -208 -80 0
v -208 -64 0
v -192 -64 0
v -208 -80 0
v -224 -80 0
v -224 -64 0
v -208 -64 0
v -224 -80 0
v -240 -80 0
v -240 -64 0
v -224 -64 0
v -240 -80 0
v -256 -80 0
v -256 -64 0
v -240 -64 0
v 0 -96 0
v -16 -96 0
v -16 -80 0
v 0 -80 0
v -16 -96 0
v -32 -96 0
v -32 -80 0
v -16 -80 0
v -32 -96 0
v -48 -96 0
v -48 -80 0
v -32 -80 0
v -48 -96 0
v -64 -96 0
v -64 -80 0
v -48 -80 0
v -64 -96 0
v -80 -96 0
v -80 -80 0
v -64 -80 0
v -80 -96 0
v -96 -96 0
v -96 -80 0
v -80 -80 0
v -96 -96 0
v -112 -96 0
v -112 -80 0
v -96 -80 0
v -112 -96 0
v -128 -96 0
v -128 -80 0
v -112 -80 0
v -128 -96 0
v -144 -96 0
v -144 -80 0
v -128 -80 0
v -144 -96 0
v -160 -96 0
v -160 -80 0
v -144 -80 0
v -160 -96 0
v -176 -96 0
v -176 -80 0
v -160 -80 0
v -176 -96 0
v -192 -96 0
v -192 -80 0
v -176 -80 0
v -192 -96 0
v -208 -96 0
v -208 -80 0
v -192 -80 0
v -208 -96 0
v -224 -96 0
v -224 -80 0
v -208 -80 0
v -224 -96 0
v -240 -96 0
v -240 -80 0
v -224 -80 0
v -240 -96 0
v -256 -96 0
v -256 -80 0
v -240 -80 0
v 0 -112 0
v -16 -112 0
v -16 -96 0
v 0 -96 0
v -16 -112 0
v -32 -112 0
v -32 -96 0
v -16 -96 0
v -32 -112 0
v -48 -112 0
v -48 -96 0
v -32 -96 0
v -48 -112 0
v -64 -112 0
v -64 -96 0
v -48 -96 0
v -64 -112 0
v -80 -112 0
v -80 -96 0
v -64 -96 0
v -80 -112 0
v -96 -112 0
v -96 -96 0
v -80 -96 0
v -96 -112 0
v -112 -112 0
v -112 -96 0
v -96 -96 0
v -112 -112 0
v -128 -112 0
v -128 -96 0
v -112 -96 0
v -128 -112 0
v -144 -112 0
v -144 -96 0
v -128 -96 0
v -144 -112 0
v -160 -112 0
v -160 -96 0
v -144 -96 0
v -160 -112 0
v -176 -112 0
v -176 -96 0
v -160 -96 0
v -176 -112 0
v -192 -112 0
v -192 -96 0
v -176 -96 0
v -192 -112 0
v -208 -112 0
v -208 -96 0
v -192 -96 0
v -208 -112 0
v -224 -112 0
v -224 -96 0
v -208 -96 0
v -224 -112 0
v -240 -112 0
v -240 -96 0
v -224 -96 0
v -240 -112 0
v -256 -112 0
v -256 -96 0
v -240 -96 0
v 0 -128 0
v -16 -128 0
v -16 -112 0
v 0 -112 0
v -16 -128 0
v -32 -128 0
v -32 -112 0
v -16 -112 0
v -32 -128 0
v -48 -128 0
v -48 -112 0
v -32 -112 0
v -48 -128 0
v -64 -128 0
v -64 -112 0
v -48 -112 0
v -64 -128 0
v -80 -128 0
v -80 -112 0
v -64 -112 0
v -80 -128 0
v -96 -128 0
v -96 -112 0
v -80 -112 0
v -96 -128 0
v -112 -128 0
v -112 -112 0
v -96 -112 0
v -112 -128 0
v -128 -128 0
v -128 -112 0
v -112 -112 0
v -128 -128 0
v -144 -128 0
v -144 -112 0
v -128 -112 0
v -144 -128 0
v -160 -128 0
v -160 -112 0
v -144 -112 0
v -160 -128 0
v -176 -128 0
v -176 -112 0
v -160 -112 0
v -176 -128 0
v -192 -128 0
v -192 -112 0
v -176 -112 0
v -192 -128 0
v -208 -128 0
v -208 -112 0
v -192 -112 0
v -208 -128 0
v -224 -128 0
v -224 -112 0
v -208 -112 0
v -224 -128 0
v -240 -128 0
v -240 -112 0
v -224 -112 0
v -240 -128 0
v -256 -128 0
v -256 -112 0
v -240 -112 0
v 0 -144 0
v -16 -144 0
v -16 -128 0
v 0 -128 0
v -16 -144 0
v -32 -144 0
v -32 -128 0
v -16 -128 0
v -32 -144 0
v -48 -144 0
v -48 -128 0
v -32 -128 0
v -48 -144 0
v -64 -144 0
v -64 -128 0
v -48 -128 0
v -64 -144 0
v -80 -144 0
v -80 -128 0
v -64 -128 0
v -80 -144 0
v -96 -144 0
v -96 -128 0
v -80 -128 0
v -96 -144 0
v -112 -144 0
v -112 -128 0
v -96 -128 0
v -112 -144 0
v -128 -144 0
v -128 -128 0
v -112 -128 0
v -128 -144 0
v -144 -144 0
v -144 -128 0
v -128 -128 0
v -144 -144 0
v -160 -144 0
v -160 -128 0
v -144 -128 0
v -160 -144 0
v -176 -144 0
v -176 -128 0
v -160 -128 0
v -176 -144 0
v -192 -144 0
v -192 -128 0
v -176 -128 0
v -192 -144 0
v -208 -144 0
v -208 -128 0
v -192 -128 0
v -208 -144 0
v -224 -144 0
v -224 -128 0
v -208 -128 0
v -224 -144 0
v -240 -144 0
v -240 -128 0
v -224 -128 0
v -240 -144 0
v -256 -144 0
v -256 -128 0
v -240 -128 0
v 0 -160 0
v -16 -160 0
v -16 -144 0
v 0 -144 0
v -16 -160 0
v -32 -160 0
v -32 -144 0
v -16 -144 0
v -32 -160 0
v -48 -160 0
v -48 -144 0
v -32 -144 0
v -48 -160 0
v -64 -160 0
v -64 -144 0
v -48 -144 0
v -64 -160 0
v -80 -160 0
v -80 -144 0
v -64 -144 0
v -80 -160 0
v -96 -160 0
v -96 -144 0
v -80 -144 0
v -96 -160 0
v -112 -160 0
v -112 -144 0
v -96 -144 0
v -112 -160 0
v -128 -160 0
v -128 -144 0
v -112 -144 0
v -128 -160 0
v -144 -160 0
v -144 -144 0
v -128 -144 0
v -144 -160 0
v -160 -160 0
v -160 -144 0
v -144 -144 0
v -160 -160 0
v -176 -160 0
v -176 -144 0
v -160 -144 0
v -176 -160 0
v -192 -160 0
v -192 -144 0
v -176 -144 0
v -192 -160 0
v -208 -160 0
v -208 -144 0
v -192 -144 0
v -208 -160 0
v -224 -160 0
v -224 -144 0
v -208 -144 0
v -224 -160 0
v -240 -160 0
v -240 -144 0
v -224 -144 0
v -240 -160 0
v -256 -160 0
v -256 -144 0
v -240 -144 0
v 0 -176 0
v -16 -176 0
v -16 -160 0
v 0 -160 0
v -16 -176 0
v -32 -176 0
v -32 -160 0
v -16 -160 0
v -32 -176 0
v -48 -176 0
v -48 -160 0
v -32 -160 0
v -48 -176 0
v -64 -176 0
v -64 -160 0
v -48 -160 0
v -64 -176 0
v -80 -176 0
v -80 -160 0
v -64 -160 0
v -80 -176 0
v -96 -176 0
v -96 -160 0
v -80 -160 0
v -96 -176 0
v -112 -176 0
v -112 -160 0
v -96 -160 0
v -112 -176 0
v -128 -176 0
v -128 -160 0
v -112 -160 0
v -128 -176 0
v -144 -176 0
v -144 -160 0
v -128 -160 0
v -144 -176 0
v -160 -176 0
v -160 -160 0
v -144 -160 0
v -160 -176 0
v -176 -176 0
v -176 -160 0
v -160 -160 0
v -176 -176 0
v -192 -176 0
v -192 -160 0
v -176 -160 0
v -192 -176 0
v -208 -176 0
v -208 -160 0
v -192 -160 0
v -208 -176 0
v -224 -176 0
v -224 -160 0
v -208 -160 0
v -224 -176 0
v -240 -176 0
v -240 -160 0
v -224 -160 0
v -240 -176 0
v -256 -176 0
v -256 -160 0
v -240 -160 0
v 0 -192 0
v -16 -192 0
v -16 -176 0
v 0 -176 0
v -16 -192 0
v -32 -192 0
v -32 -176 0
v -16 -176 0
v -32 -192 0
v -48 -192 0
v -48 -176 0
v -32 -176 0
v -48 -192 0
v -64 -192 0
v -64 -176 0
v -48 -176 0
v -64 -192 0
v -80 -192 0
v -80 -176 0
v -64 -176 0
v -80 -192 0
v -96 -192 0
v -96 -176 0
v -80 -176 0
v -96 -192 0
v -112 -192 0
v -112 -176 0
v -96 -176 0
v -112 -192 0
v -128 -192 0
v -128 -176 0
v -112 -176 0
v -128 -192 0
v -144 -192 0
v -144 -176 0
v -128 -176 0
v -144 -192 0
v -160 -192 0
v -160 -176 0
v -144 -176 0
v -160 -192 0
v -176 -192 0
v -176 -176 0
v -160 -176 0
v -176 -192 0
v -192 -192 0
v -192 -176 0
v -176 -176 0
v -192 -192 0
v -208 -192 0
v -208 -176 0
v -192 -176 0
v -208 -192 0
v -224 -192 0
v -224 -176 0
v -208 -176 0
v -224 -192 0
v -240 -192 0
v -240 -176 0
v -224 -176 0
v -240 -192 0
v -256 -192 0
v -256 -176 0
v -240 -176 0
v 0 -208 0
v -16 -208 0
v -16 -192 0
v 0 -192 0
v -16 -208 0
v -32 -208 0
v -32 -192 0
v -16 -192 0
v -32 -208 0
v -48 -208 0
v -48 -192 0
v -32 -192 0
v -48 -208 0
v -64 -208 0
v -64 -192 0
v -48 -192 0
v -64 -208 0
v -80 -208 0
v -80 -192 0
v -64 -192 0
v -80 -208 0
v -96 -208 0
v -96 -192 0
v -80 -192 0
v -96 -208 0
v -112 -208 0
v -112 -192 0
v -96 -192 0
v -112 -208 0
v -128 -208 0
v -128 -192 0
v -112 -192 0
v -128 -208 0
v -144 -208 0
v -144 -192 0
v -128 -192 0
v -144 -208 0
v -160 -208 0
v -160 -192 0
v -144 -192 0
v -160 -208 0
v -176 -208 0
v -176 -192 0
v -160 -192 0
v -176 -208 0
v -192 -208 0
v -192 -192 0
v -176 -192 0
v -192 -208 0
v -208 -208 0
v -208 -192 0
v -192 -192 0
v -208 -208 0
v -224 -208 0
v -224 -192 0
v -208 -192 0
v -224 -208 0
v -240 -208 0
v -240 -192 0
v -224 -192 0
v -240 -208 0
v -256 -208 0
v -256 -192 0
v -240 -192 0
v 0 -224 0
v -16 -224 0
v -16 -208 0
v 0 -208 0
v -16 -224 0
v -32 -224 0
v -32 -208 0
v -16 -208 0
v -32 -224 0
v -48 -224 0
v -48 -208 0
v -32 -208 0
v -48 -224 0
v -64 -224 0
v -64 -208 0
v -48 -208 0
v -64 -224 0
v -80 -224 0
v -80 -208 0
v -64 -208 0
v -80 -224 0
v -96 -224 0
v -96 -208 0
v -80 -208 0
v -96 -224 0
v -112 -224 0
v -112 -208 0
v -96 -208 0
v -112 -224 0
v -128 -224 0
v -128 -208 0
v -112 -208 0
v -128 -224 0
v -144 -224 0
v -144 -208 0
v -128 -208 0
v -144 -224 0
v -160 -224 0
v -160 -208 0
v -144 -208 0
v -160 -224 0
v -176 -224 0
v -176 -208 0
v -160 -208 0
v -176 -224 0
v -192 -224 0
v -192 -208 0
v -176 -208 0
v -192 -224 0
v -208 -224 0
v -208 -208 0
v -192 -208 0
v -208 -224 0
v -224 -224 0
v -224 -208 0
v -208 -208 0
v -224 -224 0
v -240 -224 0
v -240 -208 0
v -224 -208 0
v -240 -224 0
v -256 -224 0
v -256 -208 0
v -240 -208 0
v 0 -240 0
v -16 -240 0
v -16 -224 0
v 0 -224 0
v -16 -240 0
v -32 -240 0
v -32 -224 0
v -16 -224 0
v -32 -240 0
v -48 -240 0
v -48 -224 0
v -32 -224 0
v -48 -240 0
v -64 -240 0
v -64 -224 0
v -48 -224 0
v -64 -240 0
v -80 -240 0
v -80 -224 0
v -64 -224 0
v -80 -240 0
v -96 -240 0
v -96 -224 0
v -80 -224 0
v -96 -240 0
v -112 -240 0
v -112 -224 0
v -96 -224 0
v -112 -240 0
v -128 -240 0
v -128 -224 0
v -112 -224 0
v -128 -240 0
v -144 -240 0
v -144 -224 0
v -128 -224 0
v -144 -240 0
v -160 -240 0
v -160 -224 0
v -144 -224 0
v -160 -240 0
v -176 -240 0
v -176 -224 0
v -160 -224 0
v -176 -240 0
v -192 -240 0
v -192 -224 0
v -176 -224 0
v -192 -240 0
v -208 -240 0
v -208 -224 0
v -192 -224 0
v -208 -240 0
v -224 -240 0
v -224 -224 0
v -208 -224 0
v -224 -240 0
v -240 -240 0
v -240 -224 0
v -224 -224 0
v -240 -240 0
v -256 -240 0
v -256 -224 0
v -240 -224 0
v 0 -256 0
v -16 -256 0
v -16 -240 0
v 0 -240 0
v -16 -256 0
v -32 -256 0
v -32 -240 0
v -16 -240 0
v -32 -256 0
v -48 -256 0
v -48 -240 0
v -32 -240 0
v -48 -256 0
v -64 -256 0
v -64 -240 0
v -48 -240 0
v -64 -256 0
v -80 -256 0
v -80 -240 0
v -64 -240 0
v -80 -256 0
v -96 -256 0
v -96 -240 0
v -80 -240 0
v -96 -256 0
v -112 -256 0
v -112 -240 0
v -96 -240 0
v -112 -256 0
v -128 -256 0
v -128 -240 0
v -112 -240 0
v -128 -256 0
v -144 -256 0
v -144 -240 0
v -128 -240 0
v -144 -256 0
v -160 -256 0
v -160 -240 0
v -144 -240 0
v -160 -256 0
v -176 -256 0
v -176 -240 0
v -160 -240 0
v -176 -256 0
v -192 -256 0
v -192 -240 0
v -176 -240 0
v -192 -256 0
v -208 -256 0
v -208 -240 0
v -192 -240 0
v -208 -256 0
v -224 -256 0
v -224 -240 0
v -208 -240 0
v -224 -256 0
v -240 -256 0
v -240 -240 0
v -224 -240 0
v -240 -256 0
v -256 -256 0
v -256 -240 0
v -240 -240 0

# Texture cooridinates (Count = 56)
vt 0.3829787 0.625
vt 0.393617 0.625
vt 0.393617 0.6875
vt 0.3829787 0.6875
vt 0.6595744 0.1875
vt 0.6702127 0.1875
vt 0.6702127 0.25
vt 0.6595744 0.25
vt 0.6914893 0.1875
vt 0.7021276 0.1875
vt 0.7021276 0.25
vt 0.6914893 0.25
vt 0.606383 0.1875
vt 0.6170213 0.1875
vt 0.6170213 0.25
vt 0.606383 0.25
vt 0.5638298 0.1875
vt 0.5744681 0.1875
vt 0.5744681 0.25
vt 0.5638298 0.25
vt 0.6489362 0.1875
vt 0.6489362 0.25
vt 0.4361702 0.625
vt 0.4468085 0.625
vt 0.4468085 0.6875
vt 0.4361702 0.6875
vt 0.6276596 0.1875
vt 0.6276596 0.25
vt 0.5957447 0.1875
vt 0.5957447 0.25
vt 0.5531915 0.1875
vt 0.5531915 0.25
vt 0.3723404 0.625
vt 0.3723404 0.6875
vt 0.6382979 0.1875
vt 0.6382979 0.25
vt 0.606383 0.8125
vt 0.6170213 0.8125
vt 0.6170213 0.875
vt 0.606383 0.875
vt 0.606383 0.75
vt 0.6170213 0.75
vt 0.606383 0.6875
vt 0.6170213 0.6875
vt 0.606383 0.625
vt 0.6170213 0.625
vt 0.6276596 0.8125
vt 0.6276596 0.875
vt 0.6382979 0.8125
vt 0.6382979 0.875
vt 0.6276596 0.75
vt 0.6382979 0.75
vt 0.6276596 0.6875
vt 0.6382979 0.6875
vt 0.6276596 0.625
vt 0.6382979 0.625

# Normal
vn 0 0 -1

# Mesh description
g 2ScenarioPlataforma_mesh_0984

# Faces
f 1/1/1 2/2/1 3/3/1 4/4/1
f 5/5/1 6/6/1 7/7/1 8/8/1
f 9/9/1 10/10/1 11/11/1 12/12/1
f 13/13/1 14/14/1 15/15/1 16/16/1
f 17/17/1 18/18/1 19/19/1 20/20/1
f 21/5/1 22/6/1 23/7/1 24/8/1
f 25/21/1 26/5/1 27/8/1 28/22/1
f 29/23/1 30/24/1 31/25/1 32/26/1
f 33/14/1 34/27/1 35/28/1 36/15/1
f 37/29/1 38/13/1 39/16/1 40/30/1
f 41/23/1 42/24/1 43/25/1 44/26/1
f 45/1/1 46/2/1 47/3/1 48/4/1
f 49/31/1 50/17/1 51/20/1 52/32/1
f 53/9/1 54/10/1 55/11/1 56/12/1
f 57/33/1 58/1/1 59/4/1 60/34/1
f 61/27/1 62/35/1 63/36/1 64/28/1
f 65/37/1 66/38/1 67/39/1 68/40/1
f 69/37/1 70/38/1 71/39/1 72/40/1
f 73/37/1 74/38/1 75/39/1 76/40/1
f 77/37/1 78/38/1 79/39/1 80/40/1
f 81/37/1 82/38/1 83/39/1 84/40/1
f 85/37/1 86/38/1 87/39/1 88/40/1
f 89/37/1 90/38/1 91/39/1 92/40/1
f 93/37/1 94/38/1 95/39/1 96/40/1
f 97/37/1 98/38/1 99/39/1 100/40/1
f 101/37/1 102/38/1 103/39/1 104/40/1
f 105/37/1 106/38/1 107/39/1 108/40/1
f 109/37/1 110/38/1 111/39/1 112/40/1
f 113/37/1 114/38/1 115/39/1 116/40/1
f 117/37/1 118/38/1 119/39/1 120/40/1
f 121/37/1 122/38/1 123/39/1 124/40/1
f 125/37/1 126/38/1 127/39/1 128/40/1
f 129/41/1 130/42/1 131/38/1 132/37/1
f 133/41/1 134/42/1 135/38/1 136/37/1
f 137/41/1 138/42/1 139/38/1 140/37/1
f 141/41/1 142/42/1 143/38/1 144/37/1
f 145/41/1 146/42/1 147/38/1 148/37/1
f 149/41/1 150/42/1 151/38/1 152/37/1
f 153/41/1 154/42/1 155/38/1 156/37/1
f 157/41/1 158/42/1 159/38/1 160/37/1
f 161/41/1 162/42/1 163/38/1 164/37/1
f 165/41/1 166/42/1 167/38/1 168/37/1
f 169/41/1 170/42/1 171/38/1 172/37/1
f 173/41/1 174/42/1 175/38/1 176/37/1
f 177/41/1 178/42/1 179/38/1 180/37/1
f 181/41/1 182/42/1 183/38/1 184/37/1
f 185/41/1 186/42/1 187/38/1 188/37/1
f 189/41/1 190/42/1 191/38/1 192/37/1
f 193/43/1 194/44/1 195/42/1 196/41/1
f 197/43/1 198/44/1 199/42/1 200/41/1
f 201/43/1 202/44/1 203/42/1 204/41/1
f 205/43/1 206/44/1 207/42/1 208/41/1
f 209/43/1 210/44/1 211/42/1 212/41/1
f 213/43/1 214/44/1 215/42/1 216/41/1
f 217/43/1 218/44/1 219/42/1 220/41/1
f 221/43/1 222/44/1 223/42/1 224/41/1
f 225/43/1 226/44/1 227/42/1 228/41/1
f 229/43/1 230/44/1 231/42/1 232/41/1
f 233/43/1 234/44/1 235/42/1 236/41/1
f 237/43/1 238/44/1 239/42/1 240/41/1
f 241/43/1 242/44/1 243/42/1 244/41/1
f 245/43/1 246/44/1 247/42/1 248/41/1
f 249/43/1 250/44/1 251/42/1 252/41/1
f 253/43/1 254/44/1 255/42/1 256/41/1
f 257/45/1 258/46/1 259/44/1 260/43/1
f 261/45/1 262/46/1 263/44/1 264/43/1
f 265/45/1 266/46/1 267/44/1 268/43/1
f 269/45/1 270/46/1 271/44/1 272/43/1
f 273/45/1 274/46/1 275/44/1 276/43/1
f 277/45/1 278/46/1 279/44/1 280/43/1
f 281/45/1 282/46/1 283/44/1 284/43/1
f 285/45/1 286/46/1 287/44/1 288/43/1
f 289/45/1 290/46/1 291/44/1 292/43/1
f 293/45/1 294/46/1 295/44/1 296/43/1
f 297/45/1 298/46/1 299/44/1 300/43/1
f 301/45/1 302/46/1 303/44/1 304/43/1
f 305/45/1 306/46/1 307/44/1 308/43/1
f 309/45/1 310/46/1 311/44/1 312/43/1
f 313/45/1 314/46/1 315/44/1 316/43/1
f 317/45/1 318/46/1 319/44/1 320/43/1
f 321/38/1 322/47/1 323/48/1 324/39/1
f 325/47/1 326/49/1 327/50/1 328/48/1
f 329/37/1 330/38/1 331/39/1 332/40/1
f 333/38/1 334/47/1 335/48/1 336/39/1
f 337/47/1 338/49/1 339/50/1 340/48/1
f 341/37/1 342/38/1 343/39/1 344/40/1
f 345/38/1 346/47/1 347/48/1 348/39/1
f 349/47/1 350/49/1 351/50/1 352/48/1
f 353/37/1 354/38/1 355/39/1 356/40/1
f 357/38/1 358/47/1 359/48/1 360/39/1
f 361/47/1 362/49/1 363/50/1 364/48/1
f 365/37/1 366/38/1 367/39/1 368/40/1
f 369/38/1 370/47/1 371/48/1 372/39/1
f 373/47/1 374/49/1 375/50/1 376/48/1
f 377/37/1 378/38/1 379/39/1 380/40/1
f 381/38/1 382/47/1 383/48/1 384/39/1
f 385/42/1 386/51/1 387/47/1 388/38/1
f 389/51/1 390/52/1 391/49/1 392/47/1
f 393/41/1 394/42/1 395/38/1 396/37/1
f 397/42/1 398/51/1 399/47/1 400/38/1
f 401/51/1 402/52/1 403/49/1 404/47/1
f 405/41/1 406/42/1 407/38/1 408/37/1
f 409/42/1 410/51/1 411/47/1 412/38/1
f 413/51/1 414/52/1 415/49/1 416/47/1
f 417/41/1 418/42/1 419/38/1 420/37/1
f 421/42/1 422/51/1 423/47/1 424/38/1
f 425/51/1 426/52/1 427/49/1 428/47/1
f 429/41/1 430/42/1 431/38/1 432/37/1
f 433/42/1 434/51/1 435/47/1 436/38/1
f 437/51/1 438/52/1 439/49/1 440/47/1
f 441/41/1 442/42/1 443/38/1 444/37/1
f 445/42/1 446/51/1 447/47/1 448/38/1
f 449/44/1 450/53/1 451/51/1 452/42/1
f 453/53/1 454/54/1 455/52/1 456/51/1
f 457/43/1 458/44/1 459/42/1 460/41/1
f 461/44/1 462/53/1 463/51/1 464/42/1
f 465/53/1 466/54/1 467/52/1 468/51/1
f 469/43/1 470/44/1 471/42/1 472/41/1
f 473/44/1 474/53/1 475/51/1 476/42/1
f 477/53/1 478/54/1 479/52/1 480/51/1
f 481/43/1 482/44/1 483/42/1 484/41/1
f 485/44/1 486/53/1 487/51/1 488/42/1
f 489/53/1 490/54/1 491/52/1 492/51/1
f 493/43/1 494/44/1 495/42/1 496/41/1
f 497/44/1 498/53/1 499/51/1 500/42/1
f 501/53/1 502/54/1 503/52/1 504/51/1
f 505/43/1 506/44/1 507/42/1 508/41/1
f 509/44/1 510/53/1 511/51/1 512/42/1
f 513/46/1 514/55/1 515/53/1 516/44/1
f 517/55/1 518/56/1 519/54/1 520/53/1
f 521/45/1 522/46/1 523/44/1 524/43/1
f 525/46/1 526/55/1 527/53/1 528/44/1
f 529/55/1 530/56/1 531/54/1 532/53/1
f 533/45/1 534/46/1 535/44/1 536/43/1
f 537/46/1 538/55/1 539/53/1 540/44/1
f 541/55/1 542/56/1 543/54/1 544/53/1
f 545/45/1 546/46/1 547/44/1 548/43/1
f 549/46/1 550/55/1 551/53/1 552/44/1
f 553/55/1 554/56/1 555/54/1 556/53/1
f 557/45/1 558/46/1 559/44/1 560/43/1
f 561/46/1 562/55/1 563/53/1 564/44/1
f 565/55/1 566/56/1 567/54/1 568/53/1
f 569/45/1 570/46/1 571/44/1 572/43/1
f 573/46/1 574/55/1 575/53/1 576/44/1
f 577/38/1 578/47/1 579/48/1 580/39/1
f 581/47/1 582/49/1 583/50/1 584/48/1
f 585/37/1 586/38/1 587/39/1 588/40/1
f 589/38/1 590/47/1 591/48/1 592/39/1
f 593/47/1 594/49/1 595/50/1 596/48/1
f 597/37/1 598/38/1 599/39/1 600/40/1
f 601/38/1 602/47/1 603/48/1 604/39/1
f 605/47/1 606/49/1 607/50/1 608/48/1
f 609/37/1 610/38/1 611/39/1 612/40/1
f 613/38/1 614/47/1 615/48/1 616/39/1
f 617/47/1 618/49/1 619/50/1 620/48/1
f 621/37/1 622/38/1 623/39/1 624/40/1
f 625/38/1 626/47/1 627/48/1 628/39/1
f 629/47/1 630/49/1 631/50/1 632/48/1
f 633/37/1 634/38/1 635/39/1 636/40/1
f 637/38/1 638/47/1 639/48/1 640/39/1
f 641/37/1 642/38/1 643/39/1 644/40/1
f 645/37/1 646/38/1 647/39/1 648/40/1
f 649/37/1 650/38/1 651/39/1 652/40/1
f 653/37/1 654/38/1 655/39/1 656/40/1
f 657/37/1 658/38/1 659/39/1 660/40/1
f 661/37/1 662/38/1 663/39/1 664/40/1
f 665/37/1 666/38/1 667/39/1 668/40/1
f 669/37/1 670/38/1 671/39/1 672/40/1
f 673/37/1 674/38/1 675/39/1 676/40/1
f 677/37/1 678/38/1 679/39/1 680/40/1
f 681/37/1 682/38/1 683/39/1 684/40/1
f 685/37/1 686/38/1 687/39/1 688/40/1
f 689/37/1 690/38/1 691/39/1 692/40/1
f 693/38/1 694/47/1 695/48/1 696/39/1
f 697/47/1 698/49/1 699/50/1 700/48/1
f 701/42/1 702/51/1 703/47/1 704/38/1
f 705/41/1 706/42/1 707/38/1 708/37/1
f 709/41/1 710/42/1 711/38/1 712/37/1
f 713/41/1 714/42/1 715/38/1 716/37/1
f 717/41/1 718/42/1 719/38/1 720/37/1
f 721/41/1 722/42/1 723/38/1 724/37/1
f 725/41/1 726/42/1 727/38/1 728/37/1
f 729/41/1 730/42/1 731/38/1 732/37/1
f 733/41/1 734/42/1 735/38/1 736/37/1
f 737/41/1 738/42/1 739/38/1 740/37/1
f 741/41/1 742/42/1 743/38/1 744/37/1
f 745/41/1 746/42/1 747/38/1 748/37/1
f 749/41/1 750/42/1 751/38/1 752/37/1
f 753/41/1 754/42/1 755/38/1 756/37/1
f 757/37/1 758/38/1 759/39/1 760/40/1
f 761/37/1 762/38/1 763/39/1 764/40/1
f 765/37/1 766/38/1 767/39/1 768/40/1

