# Tiled2Unity generated file. Do not modify by hand.
# Wavefront file for '2ScenarioPlataforma_mesh_0360.obj'

# Vertices (Count = 1024)
v 0 -16 0
v -16 -16 0
v -16 0 0
v 0 0 0
v -16 -16 0
v -32 -16 0
v -32 0 0
v -16 0 0
v -32 -16 0
v -48 -16 0
v -48 0 0
v -32 0 0
v -48 -16 0
v -64 -16 0
v -64 0 0
v -48 0 0
v -64 -16 0
v -80 -16 0
v -80 0 0
v -64 0 0
v -80 -16 0
v -96 -16 0
v -96 0 0
v -80 0 0
v -96 -16 0
v -112 -16 0
v -112 0 0
v -96 0 0
v -112 -16 0
v -128 -16 0
v -128 0 0
v -112 0 0
v -128 -16 0
v -144 -16 0
v -144 0 0
v -128 0 0
v -144 -16 0
v -160 -16 0
v -160 0 0
v -144 0 0
v -160 -16 0
v -176 -16 0
v -176 0 0
v -160 0 0
v -176 -16 0
v -192 -16 0
v -192 0 0
v -176 0 0
v -192 -16 0
v -208 -16 0
v -208 0 0
v -192 0 0
v -208 -16 0
v -224 -16 0
v -224 0 0
v -208 0 0
v -224 -16 0
v -240 -16 0
v -240 0 0
v -224 0 0
v -240 -16 0
v -256 -16 0
v -256 0 0
v -240 0 0
v 0 -32 0
v -16 -32 0
v -16 -16 0
v 0 -16 0
v -16 -32 0
v -32 -32 0
v -32 -16 0
v -16 -16 0
v -32 -32 0
v -48 -32 0
v -48 -16 0
v -32 -16 0
v -48 -32 0
v -64 -32 0
v -64 -16 0
v -48 -16 0
v -64 -32 0
v -80 -32 0
v -80 -16 0
v -64 -16 0
v -80 -32 0
v -96 -32 0
v -96 -16 0
v -80 -16 0
v -96 -32 0
v -112 -32 0
v -112 -16 0
v -96 -16 0
v -112 -32 0
v -128 -32 0
v -128 -16 0
v -112 -16 0
v -128 -32 0
v -144 -32 0
v -144 -16 0
v -128 -16 0
v -144 -32 0
v -160 -32 0
v -160 -16 0
v -144 -16 0
v -160 -32 0
v -176 -32 0
v -176 -16 0
v -160 -16 0
v -176 -32 0
v -192 -32 0
v -192 -16 0
v -176 -16 0
v -192 -32 0
v -208 -32 0
v -208 -16 0
v -192 -16 0
v -208 -32 0
v -224 -32 0
v -224 -16 0
v -208 -16 0
v -224 -32 0
v -240 -32 0
v -240 -16 0
v -224 -16 0
v -240 -32 0
v -256 -32 0
v -256 -16 0
v -240 -16 0
v 0 -48 0
v -16 -48 0
v -16 -32 0
v 0 -32 0
v -16 -48 0
v -32 -48 0
v -32 -32 0
v -16 -32 0
v -32 -48 0
v -48 -48 0
v -48 -32 0
v -32 -32 0
v -48 -48 0
v -64 -48 0
v -64 -32 0
v -48 -32 0
v -64 -48 0
v -80 -48 0
v -80 -32 0
v -64 -32 0
v -80 -48 0
v -96 -48 0
v -96 -32 0
v -80 -32 0
v -96 -48 0
v -112 -48 0
v -112 -32 0
v -96 -32 0
v -112 -48 0
v -128 -48 0
v -128 -32 0
v -112 -32 0
v -128 -48 0
v -144 -48 0
v -144 -32 0
v -128 -32 0
v -144 -48 0
v -160 -48 0
v -160 -32 0
v -144 -32 0
v -160 -48 0
v -176 -48 0
v -176 -32 0
v -160 -32 0
v -176 -48 0
v -192 -48 0
v -192 -32 0
v -176 -32 0
v -192 -48 0
v -208 -48 0
v -208 -32 0
v -192 -32 0
v -208 -48 0
v -224 -48 0
v -224 -32 0
v -208 -32 0
v -224 -48 0
v -240 -48 0
v -240 -32 0
v -224 -32 0
v -240 -48 0
v -256 -48 0
v -256 -32 0
v -240 -32 0
v 0 -64 0
v -16 -64 0
v -16 -48 0
v 0 -48 0
v -16 -64 0
v -32 -64 0
v -32 -48 0
v -16 -48 0
v -32 -64 0
v -48 -64 0
v -48 -48 0
v -32 -48 0
v -48 -64 0
v -64 -64 0
v -64 -48 0
v -48 -48 0
v -64 -64 0
v -80 -64 0
v -80 -48 0
v -64 -48 0
v -80 -64 0
v -96 -64 0
v -96 -48 0
v -80 -48 0
v -96 -64 0
v -112 -64 0
v -112 -48 0
v -96 -48 0
v -112 -64 0
v -128 -64 0
v -128 -48 0
v -112 -48 0
v -128 -64 0
v -144 -64 0
v -144 -48 0
v -128 -48 0
v -144 -64 0
v -160 -64 0
v -160 -48 0
v -144 -48 0
v -160 -64 0
v -176 -64 0
v -176 -48 0
v -160 -48 0
v -176 -64 0
v -192 -64 0
v -192 -48 0
v -176 -48 0
v -192 -64 0
v -208 -64 0
v -208 -48 0
v -192 -48 0
v -208 -64 0
v -224 -64 0
v -224 -48 0
v -208 -48 0
v -224 -64 0
v -240 -64 0
v -240 -48 0
v -224 -48 0
v -240 -64 0
v -256 -64 0
v -256 -48 0
v -240 -48 0
v 0 -80 0
v -16 -80 0
v -16 -64 0
v 0 -64 0
v -16 -80 0
v -32 -80 0
v -32 -64 0
v -16 -64 0
v -32 -80 0
v -48 -80 0
v -48 -64 0
v -32 -64 0
v -48 -80 0
v -64 -80 0
v -64 -64 0
v -48 -64 0
v -64 -80 0
v -80 -80 0
v -80 -64 0
v -64 -64 0
v -80 -80 0
v -96 -80 0
v -96 -64 0
v -80 -64 0
v -96 -80 0
v -112 -80 0
v -112 -64 0
v -96 -64 0
v -112 -80 0
v -128 -80 0
v -128 -64 0
v -112 -64 0
v -128 -80 0
v -144 -80 0
v -144 -64 0
v -128 -64 0
v -144 -80 0
v -160 -80 0
v -160 -64 0
v -144 -64 0
v -160 -80 0
v -176 -80 0
v -176 -64 0
v -160 -64 0
v -176 -80 0
v -192 -80 0
v -192 -64 0
v -176 -64 0
v -192 -80 0
v -208 -80 0
v -208 -64 0
v -192 -64 0
v -208 -80 0
v -224 -80 0
v -224 -64 0
v -208 -64 0
v -224 -80 0
v -240 -80 0
v -240 -64 0
v -224 -64 0
v -240 -80 0
v -256 -80 0
v -256 -64 0
v -240 -64 0
v 0 -96 0
v -16 -96 0
v -16 -80 0
v 0 -80 0
v -16 -96 0
v -32 -96 0
v -32 -80 0
v -16 -80 0
v -32 -96 0
v -48 -96 0
v -48 -80 0
v -32 -80 0
v -48 -96 0
v -64 -96 0
v -64 -80 0
v -48 -80 0
v -64 -96 0
v -80 -96 0
v -80 -80 0
v -64 -80 0
v -80 -96 0
v -96 -96 0
v -96 -80 0
v -80 -80 0
v -96 -96 0
v -112 -96 0
v -112 -80 0
v -96 -80 0
v -112 -96 0
v -128 -96 0
v -128 -80 0
v -112 -80 0
v -128 -96 0
v -144 -96 0
v -144 -80 0
v -128 -80 0
v -144 -96 0
v -160 -96 0
v -160 -80 0
v -144 -80 0
v -160 -96 0
v -176 -96 0
v -176 -80 0
v -160 -80 0
v -176 -96 0
v -192 -96 0
v -192 -80 0
v -176 -80 0
v -192 -96 0
v -208 -96 0
v -208 -80 0
v -192 -80 0
v -208 -96 0
v -224 -96 0
v -224 -80 0
v -208 -80 0
v -224 -96 0
v -240 -96 0
v -240 -80 0
v -224 -80 0
v -240 -96 0
v -256 -96 0
v -256 -80 0
v -240 -80 0
v 0 -112 0
v -16 -112 0
v -16 -96 0
v 0 -96 0
v -16 -112 0
v -32 -112 0
v -32 -96 0
v -16 -96 0
v -32 -112 0
v -48 -112 0
v -48 -96 0
v -32 -96 0
v -48 -112 0
v -64 -112 0
v -64 -96 0
v -48 -96 0
v -64 -112 0
v -80 -112 0
v -80 -96 0
v -64 -96 0
v -80 -112 0
v -96 -112 0
v -96 -96 0
v -80 -96 0
v -96 -112 0
v -112 -112 0
v -112 -96 0
v -96 -96 0
v -112 -112 0
v -128 -112 0
v -128 -96 0
v -112 -96 0
v -128 -112 0
v -144 -112 0
v -144 -96 0
v -128 -96 0
v -144 -112 0
v -160 -112 0
v -160 -96 0
v -144 -96 0
v -160 -112 0
v -176 -112 0
v -176 -96 0
v -160 -96 0
v -176 -112 0
v -192 -112 0
v -192 -96 0
v -176 -96 0
v -192 -112 0
v -208 -112 0
v -208 -96 0
v -192 -96 0
v -208 -112 0
v -224 -112 0
v -224 -96 0
v -208 -96 0
v -224 -112 0
v -240 -112 0
v -240 -96 0
v -224 -96 0
v -240 -112 0
v -256 -112 0
v -256 -96 0
v -240 -96 0
v 0 -128 0
v -16 -128 0
v -16 -112 0
v 0 -112 0
v -16 -128 0
v -32 -128 0
v -32 -112 0
v -16 -112 0
v -32 -128 0
v -48 -128 0
v -48 -112 0
v -32 -112 0
v -48 -128 0
v -64 -128 0
v -64 -112 0
v -48 -112 0
v -64 -128 0
v -80 -128 0
v -80 -112 0
v -64 -112 0
v -80 -128 0
v -96 -128 0
v -96 -112 0
v -80 -112 0
v -96 -128 0
v -112 -128 0
v -112 -112 0
v -96 -112 0
v -112 -128 0
v -128 -128 0
v -128 -112 0
v -112 -112 0
v -128 -128 0
v -144 -128 0
v -144 -112 0
v -128 -112 0
v -144 -128 0
v -160 -128 0
v -160 -112 0
v -144 -112 0
v -160 -128 0
v -176 -128 0
v -176 -112 0
v -160 -112 0
v -176 -128 0
v -192 -128 0
v -192 -112 0
v -176 -112 0
v -192 -128 0
v -208 -128 0
v -208 -112 0
v -192 -112 0
v -208 -128 0
v -224 -128 0
v -224 -112 0
v -208 -112 0
v -224 -128 0
v -240 -128 0
v -240 -112 0
v -224 -112 0
v -240 -128 0
v -256 -128 0
v -256 -112 0
v -240 -112 0
v 0 -144 0
v -16 -144 0
v -16 -128 0
v 0 -128 0
v -16 -144 0
v -32 -144 0
v -32 -128 0
v -16 -128 0
v -32 -144 0
v -48 -144 0
v -48 -128 0
v -32 -128 0
v -48 -144 0
v -64 -144 0
v -64 -128 0
v -48 -128 0
v -64 -144 0
v -80 -144 0
v -80 -128 0
v -64 -128 0
v -80 -144 0
v -96 -144 0
v -96 -128 0
v -80 -128 0
v -96 -144 0
v -112 -144 0
v -112 -128 0
v -96 -128 0
v -112 -144 0
v -128 -144 0
v -128 -128 0
v -112 -128 0
v -128 -144 0
v -144 -144 0
v -144 -128 0
v -128 -128 0
v -144 -144 0
v -160 -144 0
v -160 -128 0
v -144 -128 0
v -160 -144 0
v -176 -144 0
v -176 -128 0
v -160 -128 0
v -176 -144 0
v -192 -144 0
v -192 -128 0
v -176 -128 0
v -192 -144 0
v -208 -144 0
v -208 -128 0
v -192 -128 0
v -208 -144 0
v -224 -144 0
v -224 -128 0
v -208 -128 0
v -224 -144 0
v -240 -144 0
v -240 -128 0
v -224 -128 0
v -240 -144 0
v -256 -144 0
v -256 -128 0
v -240 -128 0
v 0 -160 0
v -16 -160 0
v -16 -144 0
v 0 -144 0
v -16 -160 0
v -32 -160 0
v -32 -144 0
v -16 -144 0
v -32 -160 0
v -48 -160 0
v -48 -144 0
v -32 -144 0
v -48 -160 0
v -64 -160 0
v -64 -144 0
v -48 -144 0
v -64 -160 0
v -80 -160 0
v -80 -144 0
v -64 -144 0
v -80 -160 0
v -96 -160 0
v -96 -144 0
v -80 -144 0
v -96 -160 0
v -112 -160 0
v -112 -144 0
v -96 -144 0
v -112 -160 0
v -128 -160 0
v -128 -144 0
v -112 -144 0
v -128 -160 0
v -144 -160 0
v -144 -144 0
v -128 -144 0
v -144 -160 0
v -160 -160 0
v -160 -144 0
v -144 -144 0
v -160 -160 0
v -176 -160 0
v -176 -144 0
v -160 -144 0
v -176 -160 0
v -192 -160 0
v -192 -144 0
v -176 -144 0
v -192 -160 0
v -208 -160 0
v -208 -144 0
v -192 -144 0
v -208 -160 0
v -224 -160 0
v -224 -144 0
v -208 -144 0
v -224 -160 0
v -240 -160 0
v -240 -144 0
v -224 -144 0
v -240 -160 0
v -256 -160 0
v -256 -144 0
v -240 -144 0
v 0 -176 0
v -16 -176 0
v -16 -160 0
v 0 -160 0
v -16 -176 0
v -32 -176 0
v -32 -160 0
v -16 -160 0
v -32 -176 0
v -48 -176 0
v -48 -160 0
v -32 -160 0
v -48 -176 0
v -64 -176 0
v -64 -160 0
v -48 -160 0
v -64 -176 0
v -80 -176 0
v -80 -160 0
v -64 -160 0
v -80 -176 0
v -96 -176 0
v -96 -160 0
v -80 -160 0
v -96 -176 0
v -112 -176 0
v -112 -160 0
v -96 -160 0
v -112 -176 0
v -128 -176 0
v -128 -160 0
v -112 -160 0
v -128 -176 0
v -144 -176 0
v -144 -160 0
v -128 -160 0
v -144 -176 0
v -160 -176 0
v -160 -160 0
v -144 -160 0
v -160 -176 0
v -176 -176 0
v -176 -160 0
v -160 -160 0
v -176 -176 0
v -192 -176 0
v -192 -160 0
v -176 -160 0
v -192 -176 0
v -208 -176 0
v -208 -160 0
v -192 -160 0
v -208 -176 0
v -224 -176 0
v -224 -160 0
v -208 -160 0
v -224 -176 0
v -240 -176 0
v -240 -160 0
v -224 -160 0
v -240 -176 0
v -256 -176 0
v -256 -160 0
v -240 -160 0
v 0 -192 0
v -16 -192 0
v -16 -176 0
v 0 -176 0
v -16 -192 0
v -32 -192 0
v -32 -176 0
v -16 -176 0
v -32 -192 0
v -48 -192 0
v -48 -176 0
v -32 -176 0
v -48 -192 0
v -64 -192 0
v -64 -176 0
v -48 -176 0
v -64 -192 0
v -80 -192 0
v -80 -176 0
v -64 -176 0
v -80 -192 0
v -96 -192 0
v -96 -176 0
v -80 -176 0
v -96 -192 0
v -112 -192 0
v -112 -176 0
v -96 -176 0
v -112 -192 0
v -128 -192 0
v -128 -176 0
v -112 -176 0
v -128 -192 0
v -144 -192 0
v -144 -176 0
v -128 -176 0
v -144 -192 0
v -160 -192 0
v -160 -176 0
v -144 -176 0
v -160 -192 0
v -176 -192 0
v -176 -176 0
v -160 -176 0
v -176 -192 0
v -192 -192 0
v -192 -176 0
v -176 -176 0
v -192 -192 0
v -208 -192 0
v -208 -176 0
v -192 -176 0
v -208 -192 0
v -224 -192 0
v -224 -176 0
v -208 -176 0
v -224 -192 0
v -240 -192 0
v -240 -176 0
v -224 -176 0
v -240 -192 0
v -256 -192 0
v -256 -176 0
v -240 -176 0
v 0 -208 0
v -16 -208 0
v -16 -192 0
v 0 -192 0
v -16 -208 0
v -32 -208 0
v -32 -192 0
v -16 -192 0
v -32 -208 0
v -48 -208 0
v -48 -192 0
v -32 -192 0
v -48 -208 0
v -64 -208 0
v -64 -192 0
v -48 -192 0
v -64 -208 0
v -80 -208 0
v -80 -192 0
v -64 -192 0
v -80 -208 0
v -96 -208 0
v -96 -192 0
v -80 -192 0
v -96 -208 0
v -112 -208 0
v -112 -192 0
v -96 -192 0
v -112 -208 0
v -128 -208 0
v -128 -192 0
v -112 -192 0
v -128 -208 0
v -144 -208 0
v -144 -192 0
v -128 -192 0
v -144 -208 0
v -160 -208 0
v -160 -192 0
v -144 -192 0
v -160 -208 0
v -176 -208 0
v -176 -192 0
v -160 -192 0
v -176 -208 0
v -192 -208 0
v -192 -192 0
v -176 -192 0
v -192 -208 0
v -208 -208 0
v -208 -192 0
v -192 -192 0
v -208 -208 0
v -224 -208 0
v -224 -192 0
v -208 -192 0
v -224 -208 0
v -240 -208 0
v -240 -192 0
v -224 -192 0
v -240 -208 0
v -256 -208 0
v -256 -192 0
v -240 -192 0
v 0 -224 0
v -16 -224 0
v -16 -208 0
v 0 -208 0
v -16 -224 0
v -32 -224 0
v -32 -208 0
v -16 -208 0
v -32 -224 0
v -48 -224 0
v -48 -208 0
v -32 -208 0
v -48 -224 0
v -64 -224 0
v -64 -208 0
v -48 -208 0
v -64 -224 0
v -80 -224 0
v -80 -208 0
v -64 -208 0
v -80 -224 0
v -96 -224 0
v -96 -208 0
v -80 -208 0
v -96 -224 0
v -112 -224 0
v -112 -208 0
v -96 -208 0
v -112 -224 0
v -128 -224 0
v -128 -208 0
v -112 -208 0
v -128 -224 0
v -144 -224 0
v -144 -208 0
v -128 -208 0
v -144 -224 0
v -160 -224 0
v -160 -208 0
v -144 -208 0
v -160 -224 0
v -176 -224 0
v -176 -208 0
v -160 -208 0
v -176 -224 0
v -192 -224 0
v -192 -208 0
v -176 -208 0
v -192 -224 0
v -208 -224 0
v -208 -208 0
v -192 -208 0
v -208 -224 0
v -224 -224 0
v -224 -208 0
v -208 -208 0
v -224 -224 0
v -240 -224 0
v -240 -208 0
v -224 -208 0
v -240 -224 0
v -256 -224 0
v -256 -208 0
v -240 -208 0
v 0 -240 0
v -16 -240 0
v -16 -224 0
v 0 -224 0
v -16 -240 0
v -32 -240 0
v -32 -224 0
v -16 -224 0
v -32 -240 0
v -48 -240 0
v -48 -224 0
v -32 -224 0
v -48 -240 0
v -64 -240 0
v -64 -224 0
v -48 -224 0
v -64 -240 0
v -80 -240 0
v -80 -224 0
v -64 -224 0
v -80 -240 0
v -96 -240 0
v -96 -224 0
v -80 -224 0
v -96 -240 0
v -112 -240 0
v -112 -224 0
v -96 -224 0
v -112 -240 0
v -128 -240 0
v -128 -224 0
v -112 -224 0
v -128 -240 0
v -144 -240 0
v -144 -224 0
v -128 -224 0
v -144 -240 0
v -160 -240 0
v -160 -224 0
v -144 -224 0
v -160 -240 0
v -176 -240 0
v -176 -224 0
v -160 -224 0
v -176 -240 0
v -192 -240 0
v -192 -224 0
v -176 -224 0
v -192 -240 0
v -208 -240 0
v -208 -224 0
v -192 -224 0
v -208 -240 0
v -224 -240 0
v -224 -224 0
v -208 -224 0
v -224 -240 0
v -240 -240 0
v -240 -224 0
v -224 -224 0
v -240 -240 0
v -256 -240 0
v -256 -224 0
v -240 -224 0
v 0 -256 0
v -16 -256 0
v -16 -240 0
v 0 -240 0
v -16 -256 0
v -32 -256 0
v -32 -240 0
v -16 -240 0
v -32 -256 0
v -48 -256 0
v -48 -240 0
v -32 -240 0
v -48 -256 0
v -64 -256 0
v -64 -240 0
v -48 -240 0
v -64 -256 0
v -80 -256 0
v -80 -240 0
v -64 -240 0
v -80 -256 0
v -96 -256 0
v -96 -240 0
v -80 -240 0
v -96 -256 0
v -112 -256 0
v -112 -240 0
v -96 -240 0
v -112 -256 0
v -128 -256 0
v -128 -240 0
v -112 -240 0
v -128 -256 0
v -144 -256 0
v -144 -240 0
v -128 -240 0
v -144 -256 0
v -160 -256 0
v -160 -240 0
v -144 -240 0
v -160 -256 0
v -176 -256 0
v -176 -240 0
v -160 -240 0
v -176 -256 0
v -192 -256 0
v -192 -240 0
v -176 -240 0
v -192 -256 0
v -208 -256 0
v -208 -240 0
v -192 -240 0
v -208 -256 0
v -224 -256 0
v -224 -240 0
v -208 -240 0
v -224 -256 0
v -240 -256 0
v -240 -240 0
v -224 -240 0
v -240 -256 0
v -256 -256 0
v -256 -240 0
v -240 -240 0

# Texture cooridinates (Count = 42)
vt 0.08510638 0.9375
vt 0.07446808 0.9375
vt 0.07446808 0.875
vt 0.08510638 0.875
vt 0.06382979 0.9375
vt 0.06382979 0.875
vt 0.05319149 0.9375
vt 0.05319149 0.875
vt 0.04255319 0.9375
vt 0.04255319 0.875
vt 0.1489362 0.9375
vt 0.1382979 0.9375
vt 0.1382979 0.875
vt 0.1489362 0.875
vt 0.1276596 0.9375
vt 0.1276596 0.875
vt 0.1170213 0.9375
vt 0.1170213 0.875
vt 0.106383 0.9375
vt 0.106383 0.875
vt 0.09574468 0.9375
vt 0.09574468 0.875
vt 0.1489362 0.375
vt 0.1595745 0.375
vt 0.1595745 0.4375
vt 0.1489362 0.4375
vt 0.1702128 0.375
vt 0.1702128 0.4375
vt 0.08510638 1
vt 0.07446808 1
vt 0.06382979 1
vt 0.05319149 1
vt 0.04255319 1
vt 0.1489362 1
vt 0.1382979 1
vt 0.1276596 1
vt 0.1170213 1
vt 0.106383 1
vt 0.09574468 1
vt 0.1595745 0.3125
vt 0.1702128 0.3125
vt 0.1489362 0.3125

# Normal
vn 0 0 -1

# Mesh description
g 2ScenarioPlataforma_mesh_0360

# Faces
f 1/1/1 2/2/1 3/3/1 4/4/1
f 5/2/1 6/5/1 7/6/1 8/3/1
f 9/5/1 10/7/1 11/8/1 12/6/1
f 13/7/1 14/9/1 15/10/1 16/8/1
f 17/11/1 18/12/1 19/13/1 20/14/1
f 21/12/1 22/15/1 23/16/1 24/13/1
f 25/15/1 26/17/1 27/18/1 28/16/1
f 29/17/1 30/19/1 31/20/1 32/18/1
f 33/19/1 34/21/1 35/22/1 36/20/1
f 37/21/1 38/1/1 39/4/1 40/22/1
f 41/1/1 42/2/1 43/3/1 44/4/1
f 45/2/1 46/5/1 47/6/1 48/3/1
f 49/5/1 50/7/1 51/8/1 52/6/1
f 53/7/1 54/9/1 55/10/1 56/8/1
f 57/23/1 58/24/1 59/25/1 60/26/1
f 61/24/1 62/27/1 63/28/1 64/25/1
f 65/29/1 66/30/1 67/2/1 68/1/1
f 69/30/1 70/31/1 71/5/1 72/2/1
f 73/31/1 74/32/1 75/7/1 76/5/1
f 77/32/1 78/33/1 79/9/1 80/7/1
f 81/34/1 82/35/1 83/12/1 84/11/1
f 85/35/1 86/36/1 87/15/1 88/12/1
f 89/36/1 90/37/1 91/17/1 92/15/1
f 93/37/1 94/38/1 95/19/1 96/17/1
f 97/38/1 98/39/1 99/21/1 100/19/1
f 101/39/1 102/29/1 103/1/1 104/21/1
f 105/29/1 106/30/1 107/2/1 108/1/1
f 109/30/1 110/31/1 111/5/1 112/2/1
f 113/31/1 114/32/1 115/7/1 116/5/1
f 117/23/1 118/24/1 119/25/1 120/26/1
f 121/24/1 122/27/1 123/28/1 124/25/1
f 125/24/1 126/27/1 127/28/1 128/25/1
f 129/1/1 130/2/1 131/3/1 132/4/1
f 133/2/1 134/5/1 135/6/1 136/3/1
f 137/5/1 138/7/1 139/8/1 140/6/1
f 141/7/1 142/9/1 143/10/1 144/8/1
f 145/11/1 146/12/1 147/13/1 148/14/1
f 149/12/1 150/15/1 151/16/1 152/13/1
f 153/15/1 154/17/1 155/18/1 156/16/1
f 157/17/1 158/19/1 159/20/1 160/18/1
f 161/19/1 162/21/1 163/22/1 164/20/1
f 165/21/1 166/1/1 167/4/1 168/22/1
f 169/1/1 170/2/1 171/3/1 172/4/1
f 173/2/1 174/5/1 175/6/1 176/3/1
f 177/23/1 178/24/1 179/25/1 180/26/1
f 181/24/1 182/27/1 183/28/1 184/25/1
f 185/24/1 186/27/1 187/28/1 188/25/1
f 189/40/1 190/41/1 191/27/1 192/24/1
f 193/29/1 194/30/1 195/2/1 196/1/1
f 197/30/1 198/31/1 199/5/1 200/2/1
f 201/31/1 202/32/1 203/7/1 204/5/1
f 205/32/1 206/33/1 207/9/1 208/7/1
f 209/34/1 210/35/1 211/12/1 212/11/1
f 213/35/1 214/36/1 215/15/1 216/12/1
f 217/36/1 218/37/1 219/17/1 220/15/1
f 221/37/1 222/38/1 223/19/1 224/17/1
f 225/38/1 226/39/1 227/21/1 228/19/1
f 229/39/1 230/29/1 231/1/1 232/21/1
f 233/29/1 234/30/1 235/2/1 236/1/1
f 237/30/1 238/31/1 239/5/1 240/2/1
f 241/23/1 242/24/1 243/25/1 244/26/1
f 245/24/1 246/27/1 247/28/1 248/25/1
f 249/40/1 250/41/1 251/27/1 252/24/1
f 253/35/1 254/36/1 255/15/1 256/12/1
f 257/24/1 258/27/1 259/28/1 260/25/1
f 261/2/1 262/5/1 263/6/1 264/3/1
f 265/5/1 266/7/1 267/8/1 268/6/1
f 269/7/1 270/9/1 271/10/1 272/8/1
f 273/11/1 274/12/1 275/13/1 276/14/1
f 277/12/1 278/15/1 279/16/1 280/13/1
f 281/15/1 282/17/1 283/18/1 284/16/1
f 285/17/1 286/19/1 287/20/1 288/18/1
f 289/19/1 290/21/1 291/22/1 292/20/1
f 293/21/1 294/1/1 295/4/1 296/22/1
f 297/1/1 298/2/1 299/3/1 300/4/1
f 301/23/1 302/24/1 303/25/1 304/26/1
f 305/24/1 306/27/1 307/28/1 308/25/1
f 309/40/1 310/41/1 311/27/1 312/24/1
f 313/11/1 314/12/1 315/13/1 316/14/1
f 317/12/1 318/15/1 319/16/1 320/13/1
f 321/23/1 322/24/1 323/25/1 324/26/1
f 325/23/1 326/24/1 327/25/1 328/26/1
f 329/24/1 330/27/1 331/28/1 332/25/1
f 333/32/1 334/33/1 335/9/1 336/7/1
f 337/34/1 338/35/1 339/12/1 340/11/1
f 341/35/1 342/36/1 343/15/1 344/12/1
f 345/36/1 346/37/1 347/17/1 348/15/1
f 349/37/1 350/38/1 351/19/1 352/17/1
f 353/38/1 354/39/1 355/21/1 356/19/1
f 357/39/1 358/29/1 359/1/1 360/21/1
f 361/23/1 362/24/1 363/25/1 364/26/1
f 365/24/1 366/27/1 367/28/1 368/25/1
f 369/40/1 370/41/1 371/27/1 372/24/1
f 373/32/1 374/33/1 375/9/1 376/7/1
f 377/34/1 378/35/1 379/12/1 380/11/1
f 381/35/1 382/36/1 383/15/1 384/12/1
f 385/42/1 386/40/1 387/24/1 388/23/1
f 389/42/1 390/40/1 391/24/1 392/23/1
f 393/40/1 394/41/1 395/27/1 396/24/1
f 397/7/1 398/9/1 399/10/1 400/8/1
f 401/11/1 402/12/1 403/13/1 404/14/1
f 405/12/1 406/15/1 407/16/1 408/13/1
f 409/15/1 410/17/1 411/18/1 412/16/1
f 413/17/1 414/19/1 415/20/1 416/18/1
f 417/19/1 418/21/1 419/22/1 420/20/1
f 421/23/1 422/24/1 423/25/1 424/26/1
f 425/24/1 426/27/1 427/28/1 428/25/1
f 429/40/1 430/41/1 431/27/1 432/24/1
f 433/5/1 434/7/1 435/8/1 436/6/1
f 437/7/1 438/9/1 439/10/1 440/8/1
f 441/11/1 442/12/1 443/13/1 444/14/1
f 445/12/1 446/15/1 447/16/1 448/13/1
f 449/29/1 450/30/1 451/2/1 452/1/1
f 453/30/1 454/31/1 455/5/1 456/2/1
f 457/23/1 458/24/1 459/25/1 460/26/1
f 461/24/1 462/27/1 463/28/1 464/25/1
f 465/34/1 466/35/1 467/12/1 468/11/1
f 469/35/1 470/36/1 471/15/1 472/12/1
f 473/36/1 474/37/1 475/17/1 476/15/1
f 477/37/1 478/38/1 479/19/1 480/17/1
f 481/23/1 482/24/1 483/25/1 484/26/1
f 485/24/1 486/27/1 487/28/1 488/25/1
f 489/40/1 490/41/1 491/27/1 492/24/1
f 493/30/1 494/31/1 495/5/1 496/2/1
f 497/31/1 498/32/1 499/7/1 500/5/1
f 501/32/1 502/33/1 503/9/1 504/7/1
f 505/34/1 506/35/1 507/12/1 508/11/1
f 509/35/1 510/36/1 511/15/1 512/12/1
f 513/1/1 514/2/1 515/3/1 516/4/1
f 517/2/1 518/5/1 519/6/1 520/3/1
f 521/23/1 522/24/1 523/25/1 524/26/1
f 525/24/1 526/27/1 527/28/1 528/25/1
f 529/11/1 530/12/1 531/13/1 532/14/1
f 533/12/1 534/15/1 535/16/1 536/13/1
f 537/15/1 538/17/1 539/18/1 540/16/1
f 541/23/1 542/24/1 543/25/1 544/26/1
f 545/24/1 546/27/1 547/28/1 548/25/1
f 549/40/1 550/41/1 551/27/1 552/24/1
f 553/1/1 554/2/1 555/3/1 556/4/1
f 557/2/1 558/5/1 559/6/1 560/3/1
f 561/5/1 562/7/1 563/8/1 564/6/1
f 565/7/1 566/9/1 567/10/1 568/8/1
f 569/11/1 570/12/1 571/13/1 572/14/1
f 573/12/1 574/15/1 575/16/1 576/13/1
f 577/29/1 578/30/1 579/2/1 580/1/1
f 581/23/1 582/24/1 583/25/1 584/26/1
f 585/24/1 586/27/1 587/28/1 588/25/1
f 589/24/1 590/27/1 591/28/1 592/25/1
f 593/34/1 594/35/1 595/12/1 596/11/1
f 597/35/1 598/36/1 599/15/1 600/12/1
f 601/36/1 602/37/1 603/17/1 604/15/1
f 605/42/1 606/40/1 607/24/1 608/23/1
f 609/40/1 610/41/1 611/27/1 612/24/1
f 613/39/1 614/29/1 615/1/1 616/21/1
f 617/29/1 618/30/1 619/2/1 620/1/1
f 621/30/1 622/31/1 623/5/1 624/2/1
f 625/31/1 626/32/1 627/7/1 628/5/1
f 629/32/1 630/33/1 631/9/1 632/7/1
f 633/34/1 634/35/1 635/12/1 636/11/1
f 637/35/1 638/36/1 639/15/1 640/12/1
f 641/23/1 642/24/1 643/25/1 644/26/1
f 645/24/1 646/27/1 647/28/1 648/25/1
f 649/24/1 650/27/1 651/28/1 652/25/1
f 653/40/1 654/41/1 655/27/1 656/24/1
f 657/11/1 658/12/1 659/13/1 660/14/1
f 661/12/1 662/15/1 663/16/1 664/13/1
f 665/15/1 666/17/1 667/18/1 668/16/1
f 669/17/1 670/19/1 671/20/1 672/18/1
f 673/19/1 674/21/1 675/22/1 676/20/1
f 677/21/1 678/1/1 679/4/1 680/22/1
f 681/1/1 682/2/1 683/3/1 684/4/1
f 685/2/1 686/5/1 687/6/1 688/3/1
f 689/5/1 690/7/1 691/8/1 692/6/1
f 693/7/1 694/9/1 695/10/1 696/8/1
f 697/11/1 698/12/1 699/13/1 700/14/1
f 701/12/1 702/15/1 703/16/1 704/13/1
f 705/23/1 706/24/1 707/25/1 708/26/1
f 709/23/1 710/24/1 711/25/1 712/26/1
f 713/23/1 714/24/1 715/25/1 716/26/1
f 717/24/1 718/27/1 719/28/1 720/25/1
f 721/34/1 722/35/1 723/12/1 724/11/1
f 725/35/1 726/36/1 727/15/1 728/12/1
f 729/36/1 730/37/1 731/17/1 732/15/1
f 733/37/1 734/38/1 735/19/1 736/17/1
f 737/38/1 738/39/1 739/21/1 740/19/1
f 741/39/1 742/29/1 743/1/1 744/21/1
f 745/29/1 746/30/1 747/2/1 748/1/1
f 749/30/1 750/31/1 751/5/1 752/2/1
f 753/31/1 754/32/1 755/7/1 756/5/1
f 757/32/1 758/33/1 759/9/1 760/7/1
f 761/34/1 762/35/1 763/12/1 764/11/1
f 765/35/1 766/36/1 767/15/1 768/12/1
f 769/23/1 770/24/1 771/25/1 772/26/1
f 773/23/1 774/24/1 775/25/1 776/26/1
f 777/23/1 778/24/1 779/25/1 780/26/1
f 781/23/1 782/24/1 783/25/1 784/26/1
f 785/23/1 786/24/1 787/25/1 788/26/1
f 789/23/1 790/24/1 791/25/1 792/26/1
f 793/23/1 794/24/1 795/25/1 796/26/1
f 797/23/1 798/24/1 799/25/1 800/26/1
f 801/24/1 802/27/1 803/28/1 804/25/1
f 805/21/1 806/1/1 807/4/1 808/22/1
f 809/1/1 810/2/1 811/3/1 812/4/1
f 813/2/1 814/5/1 815/6/1 816/3/1
f 817/5/1 818/7/1 819/8/1 820/6/1
f 821/7/1 822/9/1 823/10/1 824/8/1
f 825/11/1 826/12/1 827/13/1 828/14/1
f 829/23/1 830/24/1 831/25/1 832/26/1
f 833/42/1 834/40/1 835/24/1 836/23/1
f 837/42/1 838/40/1 839/24/1 840/23/1
f 841/42/1 842/40/1 843/24/1 844/23/1
f 845/42/1 846/40/1 847/24/1 848/23/1
f 849/42/1 850/40/1 851/24/1 852/23/1
f 853/42/1 854/40/1 855/24/1 856/23/1
f 857/42/1 858/40/1 859/24/1 860/23/1
f 861/42/1 862/40/1 863/24/1 864/23/1
f 865/40/1 866/41/1 867/27/1 868/24/1
f 869/39/1 870/29/1 871/1/1 872/21/1
f 873/29/1 874/30/1 875/2/1 876/1/1
f 877/30/1 878/31/1 879/5/1 880/2/1
f 881/31/1 882/32/1 883/7/1 884/5/1
f 885/32/1 886/33/1 887/9/1 888/7/1
f 889/34/1 890/35/1 891/12/1 892/11/1
f 893/42/1 894/40/1 895/24/1 896/23/1
f 897/1/1 898/2/1 899/3/1 900/4/1
f 901/2/1 902/5/1 903/6/1 904/3/1
f 905/5/1 906/7/1 907/8/1 908/6/1
f 909/7/1 910/9/1 911/10/1 912/8/1
f 913/11/1 914/12/1 915/13/1 916/14/1
f 917/12/1 918/15/1 919/16/1 920/13/1
f 921/15/1 922/17/1 923/18/1 924/16/1
f 925/17/1 926/19/1 927/20/1 928/18/1
f 929/19/1 930/21/1 931/22/1 932/20/1
f 933/21/1 934/1/1 935/4/1 936/22/1
f 937/1/1 938/2/1 939/3/1 940/4/1
f 941/2/1 942/5/1 943/6/1 944/3/1
f 945/5/1 946/7/1 947/8/1 948/6/1
f 949/7/1 950/9/1 951/10/1 952/8/1
f 953/11/1 954/12/1 955/13/1 956/14/1
f 957/12/1 958/15/1 959/16/1 960/13/1
f 961/29/1 962/30/1 963/2/1 964/1/1
f 965/30/1 966/31/1 967/5/1 968/2/1
f 969/31/1 970/32/1 971/7/1 972/5/1
f 973/32/1 974/33/1 975/9/1 976/7/1
f 977/34/1 978/35/1 979/12/1 980/11/1
f 981/35/1 982/36/1 983/15/1 984/12/1
f 985/36/1 986/37/1 987/17/1 988/15/1
f 989/37/1 990/38/1 991/19/1 992/17/1
f 993/38/1 994/39/1 995/21/1 996/19/1
f 997/39/1 998/29/1 999/1/1 1000/21/1
f 1001/29/1 1002/30/1 1003/2/1 1004/1/1
f 1005/30/1 1006/31/1 1007/5/1 1008/2/1
f 1009/31/1 1010/32/1 1011/7/1 1012/5/1
f 1013/32/1 1014/33/1 1015/9/1 1016/7/1
f 1017/34/1 1018/35/1 1019/12/1 1020/11/1
f 1021/35/1 1022/36/1 1023/15/1 1024/12/1

