# Tiled2Unity generated file. Do not modify by hand.
# Wavefront file for '2ScenarioPlataforma_mesh_0324.obj'

# Vertices (Count = 1024)
v 0 -16 0
v -16 -16 0
v -16 0 0
v 0 0 0
v -16 -16 0
v -32 -16 0
v -32 0 0
v -16 0 0
v -32 -16 0
v -48 -16 0
v -48 0 0
v -32 0 0
v -48 -16 0
v -64 -16 0
v -64 0 0
v -48 0 0
v -64 -16 0
v -80 -16 0
v -80 0 0
v -64 0 0
v -80 -16 0
v -96 -16 0
v -96 0 0
v -80 0 0
v -96 -16 0
v -112 -16 0
v -112 0 0
v -96 0 0
v -112 -16 0
v -128 -16 0
v -128 0 0
v -112 0 0
v -128 -16 0
v -144 -16 0
v -144 0 0
v -128 0 0
v -144 -16 0
v -160 -16 0
v -160 0 0
v -144 0 0
v -160 -16 0
v -176 -16 0
v -176 0 0
v -160 0 0
v -176 -16 0
v -192 -16 0
v -192 0 0
v -176 0 0
v -192 -16 0
v -208 -16 0
v -208 0 0
v -192 0 0
v -208 -16 0
v -224 -16 0
v -224 0 0
v -208 0 0
v -224 -16 0
v -240 -16 0
v -240 0 0
v -224 0 0
v -240 -16 0
v -256 -16 0
v -256 0 0
v -240 0 0
v 0 -32 0
v -16 -32 0
v -16 -16 0
v 0 -16 0
v -16 -32 0
v -32 -32 0
v -32 -16 0
v -16 -16 0
v -32 -32 0
v -48 -32 0
v -48 -16 0
v -32 -16 0
v -48 -32 0
v -64 -32 0
v -64 -16 0
v -48 -16 0
v -64 -32 0
v -80 -32 0
v -80 -16 0
v -64 -16 0
v -80 -32 0
v -96 -32 0
v -96 -16 0
v -80 -16 0
v -96 -32 0
v -112 -32 0
v -112 -16 0
v -96 -16 0
v -112 -32 0
v -128 -32 0
v -128 -16 0
v -112 -16 0
v -128 -32 0
v -144 -32 0
v -144 -16 0
v -128 -16 0
v -144 -32 0
v -160 -32 0
v -160 -16 0
v -144 -16 0
v -160 -32 0
v -176 -32 0
v -176 -16 0
v -160 -16 0
v -176 -32 0
v -192 -32 0
v -192 -16 0
v -176 -16 0
v -192 -32 0
v -208 -32 0
v -208 -16 0
v -192 -16 0
v -208 -32 0
v -224 -32 0
v -224 -16 0
v -208 -16 0
v -224 -32 0
v -240 -32 0
v -240 -16 0
v -224 -16 0
v -240 -32 0
v -256 -32 0
v -256 -16 0
v -240 -16 0
v 0 -48 0
v -16 -48 0
v -16 -32 0
v 0 -32 0
v -16 -48 0
v -32 -48 0
v -32 -32 0
v -16 -32 0
v -32 -48 0
v -48 -48 0
v -48 -32 0
v -32 -32 0
v -48 -48 0
v -64 -48 0
v -64 -32 0
v -48 -32 0
v -64 -48 0
v -80 -48 0
v -80 -32 0
v -64 -32 0
v -80 -48 0
v -96 -48 0
v -96 -32 0
v -80 -32 0
v -96 -48 0
v -112 -48 0
v -112 -32 0
v -96 -32 0
v -112 -48 0
v -128 -48 0
v -128 -32 0
v -112 -32 0
v -128 -48 0
v -144 -48 0
v -144 -32 0
v -128 -32 0
v -144 -48 0
v -160 -48 0
v -160 -32 0
v -144 -32 0
v -160 -48 0
v -176 -48 0
v -176 -32 0
v -160 -32 0
v -176 -48 0
v -192 -48 0
v -192 -32 0
v -176 -32 0
v -192 -48 0
v -208 -48 0
v -208 -32 0
v -192 -32 0
v -208 -48 0
v -224 -48 0
v -224 -32 0
v -208 -32 0
v -224 -48 0
v -240 -48 0
v -240 -32 0
v -224 -32 0
v -240 -48 0
v -256 -48 0
v -256 -32 0
v -240 -32 0
v 0 -64 0
v -16 -64 0
v -16 -48 0
v 0 -48 0
v -16 -64 0
v -32 -64 0
v -32 -48 0
v -16 -48 0
v -32 -64 0
v -48 -64 0
v -48 -48 0
v -32 -48 0
v -48 -64 0
v -64 -64 0
v -64 -48 0
v -48 -48 0
v -64 -64 0
v -80 -64 0
v -80 -48 0
v -64 -48 0
v -80 -64 0
v -96 -64 0
v -96 -48 0
v -80 -48 0
v -96 -64 0
v -112 -64 0
v -112 -48 0
v -96 -48 0
v -112 -64 0
v -128 -64 0
v -128 -48 0
v -112 -48 0
v -128 -64 0
v -144 -64 0
v -144 -48 0
v -128 -48 0
v -144 -64 0
v -160 -64 0
v -160 -48 0
v -144 -48 0
v -160 -64 0
v -176 -64 0
v -176 -48 0
v -160 -48 0
v -176 -64 0
v -192 -64 0
v -192 -48 0
v -176 -48 0
v -192 -64 0
v -208 -64 0
v -208 -48 0
v -192 -48 0
v -208 -64 0
v -224 -64 0
v -224 -48 0
v -208 -48 0
v -224 -64 0
v -240 -64 0
v -240 -48 0
v -224 -48 0
v -240 -64 0
v -256 -64 0
v -256 -48 0
v -240 -48 0
v 0 -80 0
v -16 -80 0
v -16 -64 0
v 0 -64 0
v -16 -80 0
v -32 -80 0
v -32 -64 0
v -16 -64 0
v -32 -80 0
v -48 -80 0
v -48 -64 0
v -32 -64 0
v -48 -80 0
v -64 -80 0
v -64 -64 0
v -48 -64 0
v -64 -80 0
v -80 -80 0
v -80 -64 0
v -64 -64 0
v -80 -80 0
v -96 -80 0
v -96 -64 0
v -80 -64 0
v -96 -80 0
v -112 -80 0
v -112 -64 0
v -96 -64 0
v -112 -80 0
v -128 -80 0
v -128 -64 0
v -112 -64 0
v -128 -80 0
v -144 -80 0
v -144 -64 0
v -128 -64 0
v -144 -80 0
v -160 -80 0
v -160 -64 0
v -144 -64 0
v -160 -80 0
v -176 -80 0
v -176 -64 0
v -160 -64 0
v -176 -80 0
v -192 -80 0
v -192 -64 0
v -176 -64 0
v -192 -80 0
v -208 -80 0
v -208 -64 0
v -192 -64 0
v -208 -80 0
v -224 -80 0
v -224 -64 0
v -208 -64 0
v -224 -80 0
v -240 -80 0
v -240 -64 0
v -224 -64 0
v -240 -80 0
v -256 -80 0
v -256 -64 0
v -240 -64 0
v 0 -96 0
v -16 -96 0
v -16 -80 0
v 0 -80 0
v -16 -96 0
v -32 -96 0
v -32 -80 0
v -16 -80 0
v -32 -96 0
v -48 -96 0
v -48 -80 0
v -32 -80 0
v -48 -96 0
v -64 -96 0
v -64 -80 0
v -48 -80 0
v -64 -96 0
v -80 -96 0
v -80 -80 0
v -64 -80 0
v -80 -96 0
v -96 -96 0
v -96 -80 0
v -80 -80 0
v -96 -96 0
v -112 -96 0
v -112 -80 0
v -96 -80 0
v -112 -96 0
v -128 -96 0
v -128 -80 0
v -112 -80 0
v -128 -96 0
v -144 -96 0
v -144 -80 0
v -128 -80 0
v -144 -96 0
v -160 -96 0
v -160 -80 0
v -144 -80 0
v -160 -96 0
v -176 -96 0
v -176 -80 0
v -160 -80 0
v -176 -96 0
v -192 -96 0
v -192 -80 0
v -176 -80 0
v -192 -96 0
v -208 -96 0
v -208 -80 0
v -192 -80 0
v -208 -96 0
v -224 -96 0
v -224 -80 0
v -208 -80 0
v -224 -96 0
v -240 -96 0
v -240 -80 0
v -224 -80 0
v -240 -96 0
v -256 -96 0
v -256 -80 0
v -240 -80 0
v 0 -112 0
v -16 -112 0
v -16 -96 0
v 0 -96 0
v -16 -112 0
v -32 -112 0
v -32 -96 0
v -16 -96 0
v -32 -112 0
v -48 -112 0
v -48 -96 0
v -32 -96 0
v -48 -112 0
v -64 -112 0
v -64 -96 0
v -48 -96 0
v -64 -112 0
v -80 -112 0
v -80 -96 0
v -64 -96 0
v -80 -112 0
v -96 -112 0
v -96 -96 0
v -80 -96 0
v -96 -112 0
v -112 -112 0
v -112 -96 0
v -96 -96 0
v -112 -112 0
v -128 -112 0
v -128 -96 0
v -112 -96 0
v -128 -112 0
v -144 -112 0
v -144 -96 0
v -128 -96 0
v -144 -112 0
v -160 -112 0
v -160 -96 0
v -144 -96 0
v -160 -112 0
v -176 -112 0
v -176 -96 0
v -160 -96 0
v -176 -112 0
v -192 -112 0
v -192 -96 0
v -176 -96 0
v -192 -112 0
v -208 -112 0
v -208 -96 0
v -192 -96 0
v -208 -112 0
v -224 -112 0
v -224 -96 0
v -208 -96 0
v -224 -112 0
v -240 -112 0
v -240 -96 0
v -224 -96 0
v -240 -112 0
v -256 -112 0
v -256 -96 0
v -240 -96 0
v 0 -128 0
v -16 -128 0
v -16 -112 0
v 0 -112 0
v -16 -128 0
v -32 -128 0
v -32 -112 0
v -16 -112 0
v -32 -128 0
v -48 -128 0
v -48 -112 0
v -32 -112 0
v -48 -128 0
v -64 -128 0
v -64 -112 0
v -48 -112 0
v -64 -128 0
v -80 -128 0
v -80 -112 0
v -64 -112 0
v -80 -128 0
v -96 -128 0
v -96 -112 0
v -80 -112 0
v -96 -128 0
v -112 -128 0
v -112 -112 0
v -96 -112 0
v -112 -128 0
v -128 -128 0
v -128 -112 0
v -112 -112 0
v -128 -128 0
v -144 -128 0
v -144 -112 0
v -128 -112 0
v -144 -128 0
v -160 -128 0
v -160 -112 0
v -144 -112 0
v -160 -128 0
v -176 -128 0
v -176 -112 0
v -160 -112 0
v -176 -128 0
v -192 -128 0
v -192 -112 0
v -176 -112 0
v -192 -128 0
v -208 -128 0
v -208 -112 0
v -192 -112 0
v -208 -128 0
v -224 -128 0
v -224 -112 0
v -208 -112 0
v -224 -128 0
v -240 -128 0
v -240 -112 0
v -224 -112 0
v -240 -128 0
v -256 -128 0
v -256 -112 0
v -240 -112 0
v 0 -144 0
v -16 -144 0
v -16 -128 0
v 0 -128 0
v -16 -144 0
v -32 -144 0
v -32 -128 0
v -16 -128 0
v -32 -144 0
v -48 -144 0
v -48 -128 0
v -32 -128 0
v -48 -144 0
v -64 -144 0
v -64 -128 0
v -48 -128 0
v -64 -144 0
v -80 -144 0
v -80 -128 0
v -64 -128 0
v -80 -144 0
v -96 -144 0
v -96 -128 0
v -80 -128 0
v -96 -144 0
v -112 -144 0
v -112 -128 0
v -96 -128 0
v -112 -144 0
v -128 -144 0
v -128 -128 0
v -112 -128 0
v -128 -144 0
v -144 -144 0
v -144 -128 0
v -128 -128 0
v -144 -144 0
v -160 -144 0
v -160 -128 0
v -144 -128 0
v -160 -144 0
v -176 -144 0
v -176 -128 0
v -160 -128 0
v -176 -144 0
v -192 -144 0
v -192 -128 0
v -176 -128 0
v -192 -144 0
v -208 -144 0
v -208 -128 0
v -192 -128 0
v -208 -144 0
v -224 -144 0
v -224 -128 0
v -208 -128 0
v -224 -144 0
v -240 -144 0
v -240 -128 0
v -224 -128 0
v -240 -144 0
v -256 -144 0
v -256 -128 0
v -240 -128 0
v 0 -160 0
v -16 -160 0
v -16 -144 0
v 0 -144 0
v -16 -160 0
v -32 -160 0
v -32 -144 0
v -16 -144 0
v -32 -160 0
v -48 -160 0
v -48 -144 0
v -32 -144 0
v -48 -160 0
v -64 -160 0
v -64 -144 0
v -48 -144 0
v -64 -160 0
v -80 -160 0
v -80 -144 0
v -64 -144 0
v -80 -160 0
v -96 -160 0
v -96 -144 0
v -80 -144 0
v -96 -160 0
v -112 -160 0
v -112 -144 0
v -96 -144 0
v -112 -160 0
v -128 -160 0
v -128 -144 0
v -112 -144 0
v -128 -160 0
v -144 -160 0
v -144 -144 0
v -128 -144 0
v -144 -160 0
v -160 -160 0
v -160 -144 0
v -144 -144 0
v -160 -160 0
v -176 -160 0
v -176 -144 0
v -160 -144 0
v -176 -160 0
v -192 -160 0
v -192 -144 0
v -176 -144 0
v -192 -160 0
v -208 -160 0
v -208 -144 0
v -192 -144 0
v -208 -160 0
v -224 -160 0
v -224 -144 0
v -208 -144 0
v -224 -160 0
v -240 -160 0
v -240 -144 0
v -224 -144 0
v -240 -160 0
v -256 -160 0
v -256 -144 0
v -240 -144 0
v 0 -176 0
v -16 -176 0
v -16 -160 0
v 0 -160 0
v -16 -176 0
v -32 -176 0
v -32 -160 0
v -16 -160 0
v -32 -176 0
v -48 -176 0
v -48 -160 0
v -32 -160 0
v -48 -176 0
v -64 -176 0
v -64 -160 0
v -48 -160 0
v -64 -176 0
v -80 -176 0
v -80 -160 0
v -64 -160 0
v -80 -176 0
v -96 -176 0
v -96 -160 0
v -80 -160 0
v -96 -176 0
v -112 -176 0
v -112 -160 0
v -96 -160 0
v -112 -176 0
v -128 -176 0
v -128 -160 0
v -112 -160 0
v -128 -176 0
v -144 -176 0
v -144 -160 0
v -128 -160 0
v -144 -176 0
v -160 -176 0
v -160 -160 0
v -144 -160 0
v -160 -176 0
v -176 -176 0
v -176 -160 0
v -160 -160 0
v -176 -176 0
v -192 -176 0
v -192 -160 0
v -176 -160 0
v -192 -176 0
v -208 -176 0
v -208 -160 0
v -192 -160 0
v -208 -176 0
v -224 -176 0
v -224 -160 0
v -208 -160 0
v -224 -176 0
v -240 -176 0
v -240 -160 0
v -224 -160 0
v -240 -176 0
v -256 -176 0
v -256 -160 0
v -240 -160 0
v 0 -192 0
v -16 -192 0
v -16 -176 0
v 0 -176 0
v -16 -192 0
v -32 -192 0
v -32 -176 0
v -16 -176 0
v -32 -192 0
v -48 -192 0
v -48 -176 0
v -32 -176 0
v -48 -192 0
v -64 -192 0
v -64 -176 0
v -48 -176 0
v -64 -192 0
v -80 -192 0
v -80 -176 0
v -64 -176 0
v -80 -192 0
v -96 -192 0
v -96 -176 0
v -80 -176 0
v -96 -192 0
v -112 -192 0
v -112 -176 0
v -96 -176 0
v -112 -192 0
v -128 -192 0
v -128 -176 0
v -112 -176 0
v -128 -192 0
v -144 -192 0
v -144 -176 0
v -128 -176 0
v -144 -192 0
v -160 -192 0
v -160 -176 0
v -144 -176 0
v -160 -192 0
v -176 -192 0
v -176 -176 0
v -160 -176 0
v -176 -192 0
v -192 -192 0
v -192 -176 0
v -176 -176 0
v -192 -192 0
v -208 -192 0
v -208 -176 0
v -192 -176 0
v -208 -192 0
v -224 -192 0
v -224 -176 0
v -208 -176 0
v -224 -192 0
v -240 -192 0
v -240 -176 0
v -224 -176 0
v -240 -192 0
v -256 -192 0
v -256 -176 0
v -240 -176 0
v 0 -208 0
v -16 -208 0
v -16 -192 0
v 0 -192 0
v -16 -208 0
v -32 -208 0
v -32 -192 0
v -16 -192 0
v -32 -208 0
v -48 -208 0
v -48 -192 0
v -32 -192 0
v -48 -208 0
v -64 -208 0
v -64 -192 0
v -48 -192 0
v -64 -208 0
v -80 -208 0
v -80 -192 0
v -64 -192 0
v -80 -208 0
v -96 -208 0
v -96 -192 0
v -80 -192 0
v -96 -208 0
v -112 -208 0
v -112 -192 0
v -96 -192 0
v -112 -208 0
v -128 -208 0
v -128 -192 0
v -112 -192 0
v -128 -208 0
v -144 -208 0
v -144 -192 0
v -128 -192 0
v -144 -208 0
v -160 -208 0
v -160 -192 0
v -144 -192 0
v -160 -208 0
v -176 -208 0
v -176 -192 0
v -160 -192 0
v -176 -208 0
v -192 -208 0
v -192 -192 0
v -176 -192 0
v -192 -208 0
v -208 -208 0
v -208 -192 0
v -192 -192 0
v -208 -208 0
v -224 -208 0
v -224 -192 0
v -208 -192 0
v -224 -208 0
v -240 -208 0
v -240 -192 0
v -224 -192 0
v -240 -208 0
v -256 -208 0
v -256 -192 0
v -240 -192 0
v 0 -224 0
v -16 -224 0
v -16 -208 0
v 0 -208 0
v -16 -224 0
v -32 -224 0
v -32 -208 0
v -16 -208 0
v -32 -224 0
v -48 -224 0
v -48 -208 0
v -32 -208 0
v -48 -224 0
v -64 -224 0
v -64 -208 0
v -48 -208 0
v -64 -224 0
v -80 -224 0
v -80 -208 0
v -64 -208 0
v -80 -224 0
v -96 -224 0
v -96 -208 0
v -80 -208 0
v -96 -224 0
v -112 -224 0
v -112 -208 0
v -96 -208 0
v -112 -224 0
v -128 -224 0
v -128 -208 0
v -112 -208 0
v -128 -224 0
v -144 -224 0
v -144 -208 0
v -128 -208 0
v -144 -224 0
v -160 -224 0
v -160 -208 0
v -144 -208 0
v -160 -224 0
v -176 -224 0
v -176 -208 0
v -160 -208 0
v -176 -224 0
v -192 -224 0
v -192 -208 0
v -176 -208 0
v -192 -224 0
v -208 -224 0
v -208 -208 0
v -192 -208 0
v -208 -224 0
v -224 -224 0
v -224 -208 0
v -208 -208 0
v -224 -224 0
v -240 -224 0
v -240 -208 0
v -224 -208 0
v -240 -224 0
v -256 -224 0
v -256 -208 0
v -240 -208 0
v 0 -240 0
v -16 -240 0
v -16 -224 0
v 0 -224 0
v -16 -240 0
v -32 -240 0
v -32 -224 0
v -16 -224 0
v -32 -240 0
v -48 -240 0
v -48 -224 0
v -32 -224 0
v -48 -240 0
v -64 -240 0
v -64 -224 0
v -48 -224 0
v -64 -240 0
v -80 -240 0
v -80 -224 0
v -64 -224 0
v -80 -240 0
v -96 -240 0
v -96 -224 0
v -80 -224 0
v -96 -240 0
v -112 -240 0
v -112 -224 0
v -96 -224 0
v -112 -240 0
v -128 -240 0
v -128 -224 0
v -112 -224 0
v -128 -240 0
v -144 -240 0
v -144 -224 0
v -128 -224 0
v -144 -240 0
v -160 -240 0
v -160 -224 0
v -144 -224 0
v -160 -240 0
v -176 -240 0
v -176 -224 0
v -160 -224 0
v -176 -240 0
v -192 -240 0
v -192 -224 0
v -176 -224 0
v -192 -240 0
v -208 -240 0
v -208 -224 0
v -192 -224 0
v -208 -240 0
v -224 -240 0
v -224 -224 0
v -208 -224 0
v -224 -240 0
v -240 -240 0
v -240 -224 0
v -224 -224 0
v -240 -240 0
v -256 -240 0
v -256 -224 0
v -240 -224 0
v 0 -256 0
v -16 -256 0
v -16 -240 0
v 0 -240 0
v -16 -256 0
v -32 -256 0
v -32 -240 0
v -16 -240 0
v -32 -256 0
v -48 -256 0
v -48 -240 0
v -32 -240 0
v -48 -256 0
v -64 -256 0
v -64 -240 0
v -48 -240 0
v -64 -256 0
v -80 -256 0
v -80 -240 0
v -64 -240 0
v -80 -256 0
v -96 -256 0
v -96 -240 0
v -80 -240 0
v -96 -256 0
v -112 -256 0
v -112 -240 0
v -96 -240 0
v -112 -256 0
v -128 -256 0
v -128 -240 0
v -112 -240 0
v -128 -256 0
v -144 -256 0
v -144 -240 0
v -128 -240 0
v -144 -256 0
v -160 -256 0
v -160 -240 0
v -144 -240 0
v -160 -256 0
v -176 -256 0
v -176 -240 0
v -160 -240 0
v -176 -256 0
v -192 -256 0
v -192 -240 0
v -176 -240 0
v -192 -256 0
v -208 -256 0
v -208 -240 0
v -192 -240 0
v -208 -256 0
v -224 -256 0
v -224 -240 0
v -208 -240 0
v -224 -256 0
v -240 -256 0
v -240 -240 0
v -224 -240 0
v -240 -256 0
v -256 -256 0
v -256 -240 0
v -240 -240 0

# Texture cooridinates (Count = 42)
vt 0.1489362 0.375
vt 0.1595745 0.375
vt 0.1595745 0.4375
vt 0.1489362 0.4375
vt 0.1702128 0.375
vt 0.1702128 0.4375
vt 0.06382979 0.9375
vt 0.05319149 0.9375
vt 0.05319149 0.875
vt 0.06382979 0.875
vt 0.04255319 0.9375
vt 0.04255319 0.875
vt 0.1489362 0.9375
vt 0.1382979 0.9375
vt 0.1382979 0.875
vt 0.1489362 0.875
vt 0.1276596 0.9375
vt 0.1276596 0.875
vt 0.1170213 0.9375
vt 0.1170213 0.875
vt 0.106383 0.9375
vt 0.106383 0.875
vt 0.09574468 0.9375
vt 0.09574468 0.875
vt 0.08510638 0.9375
vt 0.08510638 0.875
vt 0.07446808 0.9375
vt 0.07446808 0.875
vt 0.1489362 0.3125
vt 0.1595745 0.3125
vt 0.05319149 1
vt 0.04255319 1
vt 0.1489362 1
vt 0.1382979 1
vt 0.1276596 1
vt 0.1170213 1
vt 0.106383 1
vt 0.09574468 1
vt 0.08510638 1
vt 0.07446808 1
vt 0.06382979 1
vt 0.1702128 0.3125

# Normal
vn 0 0 -1

# Mesh description
g 2ScenarioPlataforma_mesh_0324

# Faces
f 1/1/1 2/2/1 3/3/1 4/4/1
f 5/1/1 6/2/1 7/3/1 8/4/1
f 9/1/1 10/2/1 11/3/1 12/4/1
f 13/2/1 14/5/1 15/6/1 16/3/1
f 17/7/1 18/8/1 19/9/1 20/10/1
f 21/8/1 22/11/1 23/12/1 24/9/1
f 25/13/1 26/14/1 27/15/1 28/16/1
f 29/14/1 30/17/1 31/18/1 32/15/1
f 33/17/1 34/19/1 35/20/1 36/18/1
f 37/19/1 38/21/1 39/22/1 40/20/1
f 41/21/1 42/23/1 43/24/1 44/22/1
f 45/23/1 46/25/1 47/26/1 48/24/1
f 49/25/1 50/27/1 51/28/1 52/26/1
f 53/27/1 54/7/1 55/10/1 56/28/1
f 57/7/1 58/8/1 59/9/1 60/10/1
f 61/8/1 62/11/1 63/12/1 64/9/1
f 65/29/1 66/30/1 67/2/1 68/1/1
f 69/29/1 70/30/1 71/2/1 72/1/1
f 73/1/1 74/2/1 75/3/1 76/4/1
f 77/1/1 78/2/1 79/3/1 80/4/1
f 81/2/1 82/5/1 83/6/1 84/3/1
f 85/31/1 86/32/1 87/11/1 88/8/1
f 89/33/1 90/34/1 91/14/1 92/13/1
f 93/34/1 94/35/1 95/17/1 96/14/1
f 97/35/1 98/36/1 99/19/1 100/17/1
f 101/36/1 102/37/1 103/21/1 104/19/1
f 105/37/1 106/38/1 107/23/1 108/21/1
f 109/38/1 110/39/1 111/25/1 112/23/1
f 113/39/1 114/40/1 115/27/1 116/25/1
f 117/40/1 118/41/1 119/7/1 120/27/1
f 121/41/1 122/31/1 123/8/1 124/7/1
f 125/31/1 126/32/1 127/11/1 128/8/1
f 129/21/1 130/23/1 131/24/1 132/22/1
f 133/23/1 134/25/1 135/26/1 136/24/1
f 137/29/1 138/30/1 139/2/1 140/1/1
f 141/1/1 142/2/1 143/3/1 144/4/1
f 145/2/1 146/5/1 147/6/1 148/3/1
f 149/8/1 150/11/1 151/12/1 152/9/1
f 153/13/1 154/14/1 155/15/1 156/16/1
f 157/14/1 158/17/1 159/18/1 160/15/1
f 161/17/1 162/19/1 163/20/1 164/18/1
f 165/19/1 166/21/1 167/22/1 168/20/1
f 169/21/1 170/23/1 171/24/1 172/22/1
f 173/23/1 174/25/1 175/26/1 176/24/1
f 177/25/1 178/27/1 179/28/1 180/26/1
f 181/27/1 182/7/1 183/10/1 184/28/1
f 185/7/1 186/8/1 187/9/1 188/10/1
f 189/8/1 190/11/1 191/12/1 192/9/1
f 193/37/1 194/38/1 195/23/1 196/21/1
f 197/38/1 198/39/1 199/25/1 200/23/1
f 201/39/1 202/40/1 203/27/1 204/25/1
f 205/1/1 206/2/1 207/3/1 208/4/1
f 209/1/1 210/2/1 211/3/1 212/4/1
f 213/1/1 214/2/1 215/3/1 216/4/1
f 217/2/1 218/5/1 219/6/1 220/3/1
f 221/34/1 222/35/1 223/17/1 224/14/1
f 225/35/1 226/36/1 227/19/1 228/17/1
f 229/36/1 230/37/1 231/21/1 232/19/1
f 233/37/1 234/38/1 235/23/1 236/21/1
f 237/38/1 238/39/1 239/25/1 240/23/1
f 241/39/1 242/40/1 243/27/1 244/25/1
f 245/40/1 246/41/1 247/7/1 248/27/1
f 249/41/1 250/31/1 251/8/1 252/7/1
f 253/31/1 254/32/1 255/11/1 256/8/1
f 257/21/1 258/23/1 259/24/1 260/22/1
f 261/23/1 262/25/1 263/26/1 264/24/1
f 265/25/1 266/27/1 267/28/1 268/26/1
f 269/29/1 270/30/1 271/2/1 272/1/1
f 273/29/1 274/30/1 275/2/1 276/1/1
f 277/1/1 278/2/1 279/3/1 280/4/1
f 281/2/1 282/5/1 283/6/1 284/3/1
f 285/14/1 286/17/1 287/18/1 288/15/1
f 289/17/1 290/19/1 291/20/1 292/18/1
f 293/19/1 294/21/1 295/22/1 296/20/1
f 297/21/1 298/23/1 299/24/1 300/22/1
f 301/23/1 302/25/1 303/26/1 304/24/1
f 305/25/1 306/27/1 307/28/1 308/26/1
f 309/27/1 310/7/1 311/10/1 312/28/1
f 313/7/1 314/8/1 315/9/1 316/10/1
f 317/8/1 318/11/1 319/12/1 320/9/1
f 321/37/1 322/38/1 323/23/1 324/21/1
f 325/38/1 326/39/1 327/25/1 328/23/1
f 329/39/1 330/40/1 331/27/1 332/25/1
f 333/40/1 334/41/1 335/7/1 336/27/1
f 337/41/1 338/31/1 339/8/1 340/7/1
f 341/1/1 342/2/1 343/3/1 344/4/1
f 345/2/1 346/5/1 347/6/1 348/3/1
f 349/34/1 350/35/1 351/17/1 352/14/1
f 353/35/1 354/36/1 355/19/1 356/17/1
f 357/36/1 358/37/1 359/21/1 360/19/1
f 361/37/1 362/38/1 363/23/1 364/21/1
f 365/38/1 366/39/1 367/25/1 368/23/1
f 369/39/1 370/40/1 371/27/1 372/25/1
f 373/40/1 374/41/1 375/7/1 376/27/1
f 377/41/1 378/31/1 379/8/1 380/7/1
f 381/31/1 382/32/1 383/11/1 384/8/1
f 385/21/1 386/23/1 387/24/1 388/22/1
f 389/23/1 390/25/1 391/26/1 392/24/1
f 393/25/1 394/27/1 395/28/1 396/26/1
f 397/27/1 398/7/1 399/10/1 400/28/1
f 401/7/1 402/8/1 403/9/1 404/10/1
f 405/1/1 406/2/1 407/3/1 408/4/1
f 409/2/1 410/5/1 411/6/1 412/3/1
f 413/14/1 414/17/1 415/18/1 416/15/1
f 417/17/1 418/19/1 419/20/1 420/18/1
f 421/19/1 422/21/1 423/22/1 424/20/1
f 425/21/1 426/23/1 427/24/1 428/22/1
f 429/23/1 430/25/1 431/26/1 432/24/1
f 433/25/1 434/27/1 435/28/1 436/26/1
f 437/27/1 438/7/1 439/10/1 440/28/1
f 441/7/1 442/8/1 443/9/1 444/10/1
f 445/8/1 446/11/1 447/12/1 448/9/1
f 449/37/1 450/38/1 451/23/1 452/21/1
f 453/38/1 454/39/1 455/25/1 456/23/1
f 457/39/1 458/40/1 459/27/1 460/25/1
f 461/40/1 462/41/1 463/7/1 464/27/1
f 465/41/1 466/31/1 467/8/1 468/7/1
f 469/1/1 470/2/1 471/3/1 472/4/1
f 473/2/1 474/5/1 475/6/1 476/3/1
f 477/34/1 478/35/1 479/17/1 480/14/1
f 481/35/1 482/36/1 483/19/1 484/17/1
f 485/36/1 486/37/1 487/21/1 488/19/1
f 489/37/1 490/38/1 491/23/1 492/21/1
f 493/38/1 494/39/1 495/25/1 496/23/1
f 497/39/1 498/40/1 499/27/1 500/25/1
f 501/40/1 502/41/1 503/7/1 504/27/1
f 505/41/1 506/31/1 507/8/1 508/7/1
f 509/31/1 510/32/1 511/11/1 512/8/1
f 513/21/1 514/23/1 515/24/1 516/22/1
f 517/23/1 518/25/1 519/26/1 520/24/1
f 521/25/1 522/27/1 523/28/1 524/26/1
f 525/27/1 526/7/1 527/10/1 528/28/1
f 529/7/1 530/8/1 531/9/1 532/10/1
f 533/29/1 534/30/1 535/2/1 536/1/1
f 537/30/1 538/42/1 539/5/1 540/2/1
f 541/14/1 542/17/1 543/18/1 544/15/1
f 545/17/1 546/19/1 547/20/1 548/18/1
f 549/19/1 550/21/1 551/22/1 552/20/1
f 553/21/1 554/23/1 555/24/1 556/22/1
f 557/23/1 558/25/1 559/26/1 560/24/1
f 561/25/1 562/27/1 563/28/1 564/26/1
f 565/27/1 566/7/1 567/10/1 568/28/1
f 569/7/1 570/8/1 571/9/1 572/10/1
f 573/8/1 574/11/1 575/12/1 576/9/1
f 577/37/1 578/38/1 579/23/1 580/21/1
f 581/38/1 582/39/1 583/25/1 584/23/1
f 585/39/1 586/40/1 587/27/1 588/25/1
f 589/40/1 590/41/1 591/7/1 592/27/1
f 593/41/1 594/31/1 595/8/1 596/7/1
f 597/31/1 598/32/1 599/11/1 600/8/1
f 601/33/1 602/34/1 603/14/1 604/13/1
f 605/34/1 606/35/1 607/17/1 608/14/1
f 609/35/1 610/36/1 611/19/1 612/17/1
f 613/36/1 614/37/1 615/21/1 616/19/1
f 617/37/1 618/38/1 619/23/1 620/21/1
f 621/38/1 622/39/1 623/25/1 624/23/1
f 625/39/1 626/40/1 627/27/1 628/25/1
f 629/40/1 630/41/1 631/7/1 632/27/1
f 633/41/1 634/31/1 635/8/1 636/7/1
f 637/31/1 638/32/1 639/11/1 640/8/1
f 641/21/1 642/23/1 643/24/1 644/22/1
f 645/23/1 646/25/1 647/26/1 648/24/1
f 649/25/1 650/27/1 651/28/1 652/26/1
f 653/27/1 654/7/1 655/10/1 656/28/1
f 657/7/1 658/8/1 659/9/1 660/10/1
f 661/8/1 662/11/1 663/12/1 664/9/1
f 665/13/1 666/14/1 667/15/1 668/16/1
f 669/14/1 670/17/1 671/18/1 672/15/1
f 673/17/1 674/19/1 675/20/1 676/18/1
f 677/19/1 678/21/1 679/22/1 680/20/1
f 681/21/1 682/23/1 683/24/1 684/22/1
f 685/23/1 686/25/1 687/26/1 688/24/1
f 689/25/1 690/27/1 691/28/1 692/26/1
f 693/27/1 694/7/1 695/10/1 696/28/1
f 697/7/1 698/8/1 699/9/1 700/10/1
f 701/8/1 702/11/1 703/12/1 704/9/1
f 705/37/1 706/38/1 707/23/1 708/21/1
f 709/38/1 710/39/1 711/25/1 712/23/1
f 713/39/1 714/40/1 715/27/1 716/25/1
f 717/40/1 718/41/1 719/7/1 720/27/1
f 721/41/1 722/31/1 723/8/1 724/7/1
f 725/31/1 726/32/1 727/11/1 728/8/1
f 729/33/1 730/34/1 731/14/1 732/13/1
f 733/34/1 734/35/1 735/17/1 736/14/1
f 737/35/1 738/36/1 739/19/1 740/17/1
f 741/36/1 742/37/1 743/21/1 744/19/1
f 745/37/1 746/38/1 747/23/1 748/21/1
f 749/38/1 750/39/1 751/25/1 752/23/1
f 753/39/1 754/40/1 755/27/1 756/25/1
f 757/40/1 758/41/1 759/7/1 760/27/1
f 761/41/1 762/31/1 763/8/1 764/7/1
f 765/31/1 766/32/1 767/11/1 768/8/1
f 769/21/1 770/23/1 771/24/1 772/22/1
f 773/23/1 774/25/1 775/26/1 776/24/1
f 777/25/1 778/27/1 779/28/1 780/26/1
f 781/27/1 782/7/1 783/10/1 784/28/1
f 785/7/1 786/8/1 787/9/1 788/10/1
f 789/8/1 790/11/1 791/12/1 792/9/1
f 793/13/1 794/14/1 795/15/1 796/16/1
f 797/14/1 798/17/1 799/18/1 800/15/1
f 801/17/1 802/19/1 803/20/1 804/18/1
f 805/19/1 806/21/1 807/22/1 808/20/1
f 809/21/1 810/23/1 811/24/1 812/22/1
f 813/23/1 814/25/1 815/26/1 816/24/1
f 817/25/1 818/27/1 819/28/1 820/26/1
f 821/27/1 822/7/1 823/10/1 824/28/1
f 825/7/1 826/8/1 827/9/1 828/10/1
f 829/8/1 830/11/1 831/12/1 832/9/1
f 833/37/1 834/38/1 835/23/1 836/21/1
f 837/38/1 838/39/1 839/25/1 840/23/1
f 841/39/1 842/40/1 843/27/1 844/25/1
f 845/40/1 846/41/1 847/7/1 848/27/1
f 849/41/1 850/31/1 851/8/1 852/7/1
f 853/31/1 854/32/1 855/11/1 856/8/1
f 857/33/1 858/34/1 859/14/1 860/13/1
f 861/34/1 862/35/1 863/17/1 864/14/1
f 865/35/1 866/36/1 867/19/1 868/17/1
f 869/36/1 870/37/1 871/21/1 872/19/1
f 873/37/1 874/38/1 875/23/1 876/21/1
f 877/38/1 878/39/1 879/25/1 880/23/1
f 881/39/1 882/40/1 883/27/1 884/25/1
f 885/40/1 886/41/1 887/7/1 888/27/1
f 889/41/1 890/31/1 891/8/1 892/7/1
f 893/31/1 894/32/1 895/11/1 896/8/1
f 897/21/1 898/23/1 899/24/1 900/22/1
f 901/23/1 902/25/1 903/26/1 904/24/1
f 905/25/1 906/27/1 907/28/1 908/26/1
f 909/27/1 910/7/1 911/10/1 912/28/1
f 913/7/1 914/8/1 915/9/1 916/10/1
f 917/8/1 918/11/1 919/12/1 920/9/1
f 921/13/1 922/14/1 923/15/1 924/16/1
f 925/14/1 926/17/1 927/18/1 928/15/1
f 929/17/1 930/19/1 931/20/1 932/18/1
f 933/19/1 934/21/1 935/22/1 936/20/1
f 937/21/1 938/23/1 939/24/1 940/22/1
f 941/23/1 942/25/1 943/26/1 944/24/1
f 945/25/1 946/27/1 947/28/1 948/26/1
f 949/27/1 950/7/1 951/10/1 952/28/1
f 953/7/1 954/8/1 955/9/1 956/10/1
f 957/8/1 958/11/1 959/12/1 960/9/1
f 961/37/1 962/38/1 963/23/1 964/21/1
f 965/38/1 966/39/1 967/25/1 968/23/1
f 969/39/1 970/40/1 971/27/1 972/25/1
f 973/40/1 974/41/1 975/7/1 976/27/1
f 977/41/1 978/31/1 979/8/1 980/7/1
f 981/31/1 982/32/1 983/11/1 984/8/1
f 985/33/1 986/34/1 987/14/1 988/13/1
f 989/34/1 990/35/1 991/17/1 992/14/1
f 993/35/1 994/36/1 995/19/1 996/17/1
f 997/36/1 998/37/1 999/21/1 1000/19/1
f 1001/37/1 1002/38/1 1003/23/1 1004/21/1
f 1005/38/1 1006/39/1 1007/25/1 1008/23/1
f 1009/39/1 1010/40/1 1011/27/1 1012/25/1
f 1013/40/1 1014/41/1 1015/7/1 1016/27/1
f 1017/41/1 1018/31/1 1019/8/1 1020/7/1
f 1021/31/1 1022/32/1 1023/11/1 1024/8/1

