# Tiled2Unity generated file. Do not modify by hand.
# Wavefront file for '2ScenarioPlataforma_mesh_0287.obj'

# Vertices (Count = 48)
v -16 -144 0
v -32 -144 0
v -32 -128 0
v -16 -128 0
v -144 -144 0
v -160 -144 0
v -160 -128 0
v -144 -128 0
v -240 -144 0
v -256 -144 0
v -256 -128 0
v -240 -128 0
v -32 -160 0
v -48 -160 0
v -48 -144 0
v -32 -144 0
v -80 -160 0
v -96 -160 0
v -96 -144 0
v -80 -144 0
v -96 -160 0
v -112 -160 0
v -112 -144 0
v -96 -144 0
v -112 -160 0
v -128 -160 0
v -128 -144 0
v -112 -144 0
v -128 -160 0
v -144 -160 0
v -144 -144 0
v -128 -144 0
v -144 -160 0
v -160 -160 0
v -160 -144 0
v -144 -144 0
v -176 -160 0
v -192 -160 0
v -192 -144 0
v -176 -144 0
v -192 -160 0
v -208 -160 0
v -208 -144 0
v -192 -144 0
v -240 -160 0
v -256 -160 0
v -256 -144 0
v -240 -144 0

# Texture cooridinates (Count = 20)
vt 0.8333333 0.875
vt 0.8571429 0.875
vt 0.8571429 0.9375
vt 0.8333333 0.9375
vt 0.8333333 0.8125
vt 0.8571429 0.8125
vt 0.1428571 0.25
vt 0.1190476 0.25
vt 0.1190476 0.1875
vt 0.1428571 0.1875
vt 0.5 0.3125
vt 0.4761905 0.3125
vt 0.4761905 0.25
vt 0.5 0.25
vt 0.5238096 0.5
vt 0.547619 0.5
vt 0.547619 0.5625
vt 0.5238096 0.5625
vt 0.5714286 0.5
vt 0.5714286 0.5625

# Normal
vn 0 0 -1

# Mesh description
g 2ScenarioPlataforma_mesh_0287

# Faces
f 1/1/1 2/2/1 3/3/1 4/4/1
f 5/1/1 6/2/1 7/3/1 8/4/1
f 9/1/1 10/2/1 11/3/1 12/4/1
f 13/5/1 14/6/1 15/2/1 16/1/1
f 17/7/1 18/8/1 19/9/1 20/10/1
f 21/11/1 22/12/1 23/13/1 24/14/1
f 25/7/1 26/8/1 27/9/1 28/10/1
f 29/15/1 30/16/1 31/17/1 32/18/1
f 33/16/1 34/19/1 35/20/1 36/17/1
f 37/7/1 38/8/1 39/9/1 40/10/1
f 41/11/1 42/12/1 43/13/1 44/14/1
f 45/5/1 46/6/1 47/2/1 48/1/1

