# Tiled2Unity generated file. Do not modify by hand.
# Wavefront file for '2ScenarioPlataforma_mesh_0983.obj'

# Vertices (Count = 880)
v 0 -16 0
v -16 -16 0
v -16 0 0
v 0 0 0
v -16 -16 0
v -32 -16 0
v -32 0 0
v -16 0 0
v -32 -16 0
v -48 -16 0
v -48 0 0
v -32 0 0
v -48 -16 0
v -64 -16 0
v -64 0 0
v -48 0 0
v -64 -16 0
v -80 -16 0
v -80 0 0
v -64 0 0
v -80 -16 0
v -96 -16 0
v -96 0 0
v -80 0 0
v -96 -16 0
v -112 -16 0
v -112 0 0
v -96 0 0
v 0 -32 0
v -16 -32 0
v -16 -16 0
v 0 -16 0
v -16 -32 0
v -32 -32 0
v -32 -16 0
v -16 -16 0
v -32 -32 0
v -48 -32 0
v -48 -16 0
v -32 -16 0
v -48 -32 0
v -64 -32 0
v -64 -16 0
v -48 -16 0
v -64 -32 0
v -80 -32 0
v -80 -16 0
v -64 -16 0
v -80 -32 0
v -96 -32 0
v -96 -16 0
v -80 -16 0
v -96 -32 0
v -112 -32 0
v -112 -16 0
v -96 -16 0
v 0 -48 0
v -16 -48 0
v -16 -32 0
v 0 -32 0
v -16 -48 0
v -32 -48 0
v -32 -32 0
v -16 -32 0
v -32 -48 0
v -48 -48 0
v -48 -32 0
v -32 -32 0
v -48 -48 0
v -64 -48 0
v -64 -32 0
v -48 -32 0
v -64 -48 0
v -80 -48 0
v -80 -32 0
v -64 -32 0
v -80 -48 0
v -96 -48 0
v -96 -32 0
v -80 -32 0
v -96 -48 0
v -112 -48 0
v -112 -32 0
v -96 -32 0
v 0 -64 0
v -16 -64 0
v -16 -48 0
v 0 -48 0
v -16 -64 0
v -32 -64 0
v -32 -48 0
v -16 -48 0
v -32 -64 0
v -48 -64 0
v -48 -48 0
v -32 -48 0
v -48 -64 0
v -64 -64 0
v -64 -48 0
v -48 -48 0
v -64 -64 0
v -80 -64 0
v -80 -48 0
v -64 -48 0
v -80 -64 0
v -96 -64 0
v -96 -48 0
v -80 -48 0
v -96 -64 0
v -112 -64 0
v -112 -48 0
v -96 -48 0
v 0 -80 0
v -16 -80 0
v -16 -64 0
v 0 -64 0
v -16 -80 0
v -32 -80 0
v -32 -64 0
v -16 -64 0
v -32 -80 0
v -48 -80 0
v -48 -64 0
v -32 -64 0
v -48 -80 0
v -64 -80 0
v -64 -64 0
v -48 -64 0
v -64 -80 0
v -80 -80 0
v -80 -64 0
v -64 -64 0
v -80 -80 0
v -96 -80 0
v -96 -64 0
v -80 -64 0
v -96 -80 0
v -112 -80 0
v -112 -64 0
v -96 -64 0
v -112 -80 0
v -128 -80 0
v -128 -64 0
v -112 -64 0
v -128 -80 0
v -144 -80 0
v -144 -64 0
v -128 -64 0
v -144 -80 0
v -160 -80 0
v -160 -64 0
v -144 -64 0
v -160 -80 0
v -176 -80 0
v -176 -64 0
v -160 -64 0
v -176 -80 0
v -192 -80 0
v -192 -64 0
v -176 -64 0
v -192 -80 0
v -208 -80 0
v -208 -64 0
v -192 -64 0
v -208 -80 0
v -224 -80 0
v -224 -64 0
v -208 -64 0
v -224 -80 0
v -240 -80 0
v -240 -64 0
v -224 -64 0
v -240 -80 0
v -256 -80 0
v -256 -64 0
v -240 -64 0
v 0 -96 0
v -16 -96 0
v -16 -80 0
v 0 -80 0
v -16 -96 0
v -32 -96 0
v -32 -80 0
v -16 -80 0
v -32 -96 0
v -48 -96 0
v -48 -80 0
v -32 -80 0
v -48 -96 0
v -64 -96 0
v -64 -80 0
v -48 -80 0
v -64 -96 0
v -80 -96 0
v -80 -80 0
v -64 -80 0
v -80 -96 0
v -96 -96 0
v -96 -80 0
v -80 -80 0
v -96 -96 0
v -112 -96 0
v -112 -80 0
v -96 -80 0
v -112 -96 0
v -128 -96 0
v -128 -80 0
v -112 -80 0
v -128 -96 0
v -144 -96 0
v -144 -80 0
v -128 -80 0
v -144 -96 0
v -160 -96 0
v -160 -80 0
v -144 -80 0
v -160 -96 0
v -176 -96 0
v -176 -80 0
v -160 -80 0
v -176 -96 0
v -192 -96 0
v -192 -80 0
v -176 -80 0
v -192 -96 0
v -208 -96 0
v -208 -80 0
v -192 -80 0
v -208 -96 0
v -224 -96 0
v -224 -80 0
v -208 -80 0
v -224 -96 0
v -240 -96 0
v -240 -80 0
v -224 -80 0
v -240 -96 0
v -256 -96 0
v -256 -80 0
v -240 -80 0
v 0 -112 0
v -16 -112 0
v -16 -96 0
v 0 -96 0
v -16 -112 0
v -32 -112 0
v -32 -96 0
v -16 -96 0
v -32 -112 0
v -48 -112 0
v -48 -96 0
v -32 -96 0
v -48 -112 0
v -64 -112 0
v -64 -96 0
v -48 -96 0
v -64 -112 0
v -80 -112 0
v -80 -96 0
v -64 -96 0
v -80 -112 0
v -96 -112 0
v -96 -96 0
v -80 -96 0
v -96 -112 0
v -112 -112 0
v -112 -96 0
v -96 -96 0
v -112 -112 0
v -128 -112 0
v -128 -96 0
v -112 -96 0
v -128 -112 0
v -144 -112 0
v -144 -96 0
v -128 -96 0
v -144 -112 0
v -160 -112 0
v -160 -96 0
v -144 -96 0
v -160 -112 0
v -176 -112 0
v -176 -96 0
v -160 -96 0
v -176 -112 0
v -192 -112 0
v -192 -96 0
v -176 -96 0
v -192 -112 0
v -208 -112 0
v -208 -96 0
v -192 -96 0
v -208 -112 0
v -224 -112 0
v -224 -96 0
v -208 -96 0
v -224 -112 0
v -240 -112 0
v -240 -96 0
v -224 -96 0
v -240 -112 0
v -256 -112 0
v -256 -96 0
v -240 -96 0
v 0 -128 0
v -16 -128 0
v -16 -112 0
v 0 -112 0
v -16 -128 0
v -32 -128 0
v -32 -112 0
v -16 -112 0
v -32 -128 0
v -48 -128 0
v -48 -112 0
v -32 -112 0
v -48 -128 0
v -64 -128 0
v -64 -112 0
v -48 -112 0
v -64 -128 0
v -80 -128 0
v -80 -112 0
v -64 -112 0
v -80 -128 0
v -96 -128 0
v -96 -112 0
v -80 -112 0
v -96 -128 0
v -112 -128 0
v -112 -112 0
v -96 -112 0
v -112 -128 0
v -128 -128 0
v -128 -112 0
v -112 -112 0
v -128 -128 0
v -144 -128 0
v -144 -112 0
v -128 -112 0
v -144 -128 0
v -160 -128 0
v -160 -112 0
v -144 -112 0
v -160 -128 0
v -176 -128 0
v -176 -112 0
v -160 -112 0
v -176 -128 0
v -192 -128 0
v -192 -112 0
v -176 -112 0
v -192 -128 0
v -208 -128 0
v -208 -112 0
v -192 -112 0
v -208 -128 0
v -224 -128 0
v -224 -112 0
v -208 -112 0
v -224 -128 0
v -240 -128 0
v -240 -112 0
v -224 -112 0
v -240 -128 0
v -256 -128 0
v -256 -112 0
v -240 -112 0
v 0 -144 0
v -16 -144 0
v -16 -128 0
v 0 -128 0
v -16 -144 0
v -32 -144 0
v -32 -128 0
v -16 -128 0
v -32 -144 0
v -48 -144 0
v -48 -128 0
v -32 -128 0
v -48 -144 0
v -64 -144 0
v -64 -128 0
v -48 -128 0
v -64 -144 0
v -80 -144 0
v -80 -128 0
v -64 -128 0
v -80 -144 0
v -96 -144 0
v -96 -128 0
v -80 -128 0
v -96 -144 0
v -112 -144 0
v -112 -128 0
v -96 -128 0
v -112 -144 0
v -128 -144 0
v -128 -128 0
v -112 -128 0
v -128 -144 0
v -144 -144 0
v -144 -128 0
v -128 -128 0
v -144 -144 0
v -160 -144 0
v -160 -128 0
v -144 -128 0
v -160 -144 0
v -176 -144 0
v -176 -128 0
v -160 -128 0
v -176 -144 0
v -192 -144 0
v -192 -128 0
v -176 -128 0
v -192 -144 0
v -208 -144 0
v -208 -128 0
v -192 -128 0
v -208 -144 0
v -224 -144 0
v -224 -128 0
v -208 -128 0
v -224 -144 0
v -240 -144 0
v -240 -128 0
v -224 -128 0
v -240 -144 0
v -256 -144 0
v -256 -128 0
v -240 -128 0
v 0 -160 0
v -16 -160 0
v -16 -144 0
v 0 -144 0
v -16 -160 0
v -32 -160 0
v -32 -144 0
v -16 -144 0
v -32 -160 0
v -48 -160 0
v -48 -144 0
v -32 -144 0
v -48 -160 0
v -64 -160 0
v -64 -144 0
v -48 -144 0
v -64 -160 0
v -80 -160 0
v -80 -144 0
v -64 -144 0
v -80 -160 0
v -96 -160 0
v -96 -144 0
v -80 -144 0
v -96 -160 0
v -112 -160 0
v -112 -144 0
v -96 -144 0
v -112 -160 0
v -128 -160 0
v -128 -144 0
v -112 -144 0
v -128 -160 0
v -144 -160 0
v -144 -144 0
v -128 -144 0
v -144 -160 0
v -160 -160 0
v -160 -144 0
v -144 -144 0
v -160 -160 0
v -176 -160 0
v -176 -144 0
v -160 -144 0
v -176 -160 0
v -192 -160 0
v -192 -144 0
v -176 -144 0
v -192 -160 0
v -208 -160 0
v -208 -144 0
v -192 -144 0
v -208 -160 0
v -224 -160 0
v -224 -144 0
v -208 -144 0
v -224 -160 0
v -240 -160 0
v -240 -144 0
v -224 -144 0
v -240 -160 0
v -256 -160 0
v -256 -144 0
v -240 -144 0
v 0 -176 0
v -16 -176 0
v -16 -160 0
v 0 -160 0
v -16 -176 0
v -32 -176 0
v -32 -160 0
v -16 -160 0
v -32 -176 0
v -48 -176 0
v -48 -160 0
v -32 -160 0
v -48 -176 0
v -64 -176 0
v -64 -160 0
v -48 -160 0
v -64 -176 0
v -80 -176 0
v -80 -160 0
v -64 -160 0
v -80 -176 0
v -96 -176 0
v -96 -160 0
v -80 -160 0
v -96 -176 0
v -112 -176 0
v -112 -160 0
v -96 -160 0
v -112 -176 0
v -128 -176 0
v -128 -160 0
v -112 -160 0
v -128 -176 0
v -144 -176 0
v -144 -160 0
v -128 -160 0
v -144 -176 0
v -160 -176 0
v -160 -160 0
v -144 -160 0
v -160 -176 0
v -176 -176 0
v -176 -160 0
v -160 -160 0
v -176 -176 0
v -192 -176 0
v -192 -160 0
v -176 -160 0
v -192 -176 0
v -208 -176 0
v -208 -160 0
v -192 -160 0
v -208 -176 0
v -224 -176 0
v -224 -160 0
v -208 -160 0
v -224 -176 0
v -240 -176 0
v -240 -160 0
v -224 -160 0
v -240 -176 0
v -256 -176 0
v -256 -160 0
v -240 -160 0
v 0 -192 0
v -16 -192 0
v -16 -176 0
v 0 -176 0
v -16 -192 0
v -32 -192 0
v -32 -176 0
v -16 -176 0
v -32 -192 0
v -48 -192 0
v -48 -176 0
v -32 -176 0
v -48 -192 0
v -64 -192 0
v -64 -176 0
v -48 -176 0
v -64 -192 0
v -80 -192 0
v -80 -176 0
v -64 -176 0
v -80 -192 0
v -96 -192 0
v -96 -176 0
v -80 -176 0
v -96 -192 0
v -112 -192 0
v -112 -176 0
v -96 -176 0
v -112 -192 0
v -128 -192 0
v -128 -176 0
v -112 -176 0
v -128 -192 0
v -144 -192 0
v -144 -176 0
v -128 -176 0
v -144 -192 0
v -160 -192 0
v -160 -176 0
v -144 -176 0
v -160 -192 0
v -176 -192 0
v -176 -176 0
v -160 -176 0
v -176 -192 0
v -192 -192 0
v -192 -176 0
v -176 -176 0
v -192 -192 0
v -208 -192 0
v -208 -176 0
v -192 -176 0
v -208 -192 0
v -224 -192 0
v -224 -176 0
v -208 -176 0
v -224 -192 0
v -240 -192 0
v -240 -176 0
v -224 -176 0
v -240 -192 0
v -256 -192 0
v -256 -176 0
v -240 -176 0
v 0 -208 0
v -16 -208 0
v -16 -192 0
v 0 -192 0
v -16 -208 0
v -32 -208 0
v -32 -192 0
v -16 -192 0
v -32 -208 0
v -48 -208 0
v -48 -192 0
v -32 -192 0
v -48 -208 0
v -64 -208 0
v -64 -192 0
v -48 -192 0
v -64 -208 0
v -80 -208 0
v -80 -192 0
v -64 -192 0
v -80 -208 0
v -96 -208 0
v -96 -192 0
v -80 -192 0
v -96 -208 0
v -112 -208 0
v -112 -192 0
v -96 -192 0
v -112 -208 0
v -128 -208 0
v -128 -192 0
v -112 -192 0
v -128 -208 0
v -144 -208 0
v -144 -192 0
v -128 -192 0
v -144 -208 0
v -160 -208 0
v -160 -192 0
v -144 -192 0
v -160 -208 0
v -176 -208 0
v -176 -192 0
v -160 -192 0
v -176 -208 0
v -192 -208 0
v -192 -192 0
v -176 -192 0
v -192 -208 0
v -208 -208 0
v -208 -192 0
v -192 -192 0
v -208 -208 0
v -224 -208 0
v -224 -192 0
v -208 -192 0
v -224 -208 0
v -240 -208 0
v -240 -192 0
v -224 -192 0
v -240 -208 0
v -256 -208 0
v -256 -192 0
v -240 -192 0
v 0 -224 0
v -16 -224 0
v -16 -208 0
v 0 -208 0
v -16 -224 0
v -32 -224 0
v -32 -208 0
v -16 -208 0
v -32 -224 0
v -48 -224 0
v -48 -208 0
v -32 -208 0
v -48 -224 0
v -64 -224 0
v -64 -208 0
v -48 -208 0
v -64 -224 0
v -80 -224 0
v -80 -208 0
v -64 -208 0
v -80 -224 0
v -96 -224 0
v -96 -208 0
v -80 -208 0
v -96 -224 0
v -112 -224 0
v -112 -208 0
v -96 -208 0
v -112 -224 0
v -128 -224 0
v -128 -208 0
v -112 -208 0
v -128 -224 0
v -144 -224 0
v -144 -208 0
v -128 -208 0
v -144 -224 0
v -160 -224 0
v -160 -208 0
v -144 -208 0
v -160 -224 0
v -176 -224 0
v -176 -208 0
v -160 -208 0
v -176 -224 0
v -192 -224 0
v -192 -208 0
v -176 -208 0
v -192 -224 0
v -208 -224 0
v -208 -208 0
v -192 -208 0
v -208 -224 0
v -224 -224 0
v -224 -208 0
v -208 -208 0
v -224 -224 0
v -240 -224 0
v -240 -208 0
v -224 -208 0
v -240 -224 0
v -256 -224 0
v -256 -208 0
v -240 -208 0
v 0 -240 0
v -16 -240 0
v -16 -224 0
v 0 -224 0
v -16 -240 0
v -32 -240 0
v -32 -224 0
v -16 -224 0
v -32 -240 0
v -48 -240 0
v -48 -224 0
v -32 -224 0
v -48 -240 0
v -64 -240 0
v -64 -224 0
v -48 -224 0
v -64 -240 0
v -80 -240 0
v -80 -224 0
v -64 -224 0
v -80 -240 0
v -96 -240 0
v -96 -224 0
v -80 -224 0
v -96 -240 0
v -112 -240 0
v -112 -224 0
v -96 -224 0
v -112 -240 0
v -128 -240 0
v -128 -224 0
v -112 -224 0
v -128 -240 0
v -144 -240 0
v -144 -224 0
v -128 -224 0
v -144 -240 0
v -160 -240 0
v -160 -224 0
v -144 -224 0
v -160 -240 0
v -176 -240 0
v -176 -224 0
v -160 -224 0
v -176 -240 0
v -192 -240 0
v -192 -224 0
v -176 -224 0
v -192 -240 0
v -208 -240 0
v -208 -224 0
v -192 -224 0
v -208 -240 0
v -224 -240 0
v -224 -224 0
v -208 -224 0
v -224 -240 0
v -240 -240 0
v -240 -224 0
v -224 -224 0
v -240 -240 0
v -256 -240 0
v -256 -224 0
v -240 -224 0
v 0 -256 0
v -16 -256 0
v -16 -240 0
v 0 -240 0
v -16 -256 0
v -32 -256 0
v -32 -240 0
v -16 -240 0
v -32 -256 0
v -48 -256 0
v -48 -240 0
v -32 -240 0
v -48 -256 0
v -64 -256 0
v -64 -240 0
v -48 -240 0
v -64 -256 0
v -80 -256 0
v -80 -240 0
v -64 -240 0
v -80 -256 0
v -96 -256 0
v -96 -240 0
v -80 -240 0
v -96 -256 0
v -112 -256 0
v -112 -240 0
v -96 -240 0
v -112 -256 0
v -128 -256 0
v -128 -240 0
v -112 -240 0
v -128 -256 0
v -144 -256 0
v -144 -240 0
v -128 -240 0
v -144 -256 0
v -160 -256 0
v -160 -240 0
v -144 -240 0
v -160 -256 0
v -176 -256 0
v -176 -240 0
v -160 -240 0
v -176 -256 0
v -192 -256 0
v -192 -240 0
v -176 -240 0
v -192 -256 0
v -208 -256 0
v -208 -240 0
v -192 -240 0
v -208 -256 0
v -224 -256 0
v -224 -240 0
v -208 -240 0
v -224 -256 0
v -240 -256 0
v -240 -240 0
v -224 -240 0
v -240 -256 0
v -256 -256 0
v -256 -240 0
v -240 -240 0

# Texture cooridinates (Count = 56)
vt 0.6276596 0.625
vt 0.6382979 0.625
vt 0.6382979 0.6875
vt 0.6276596 0.6875
vt 0.606383 0.625
vt 0.6170213 0.625
vt 0.6170213 0.6875
vt 0.606383 0.6875
vt 0.6276596 0.8125
vt 0.6382979 0.8125
vt 0.6382979 0.875
vt 0.6276596 0.875
vt 0.7127659 0.1875
vt 0.7127659 0.25
vt 0.7021276 0.25
vt 0.7021276 0.1875
vt 0.6170213 0.75
vt 0.606383 0.75
vt 0.6276596 0.75
vt 0.6382979 0.75
vt 0.6170213 0.8125
vt 0.6170213 0.875
vt 0.393617 0.625
vt 0.393617 0.6875
vt 0.3829787 0.6875
vt 0.3829787 0.625
vt 0.4148936 0.625
vt 0.4148936 0.6875
vt 0.4042553 0.6875
vt 0.4042553 0.625
vt 0.5425532 0.1875
vt 0.5531915 0.1875
vt 0.5531915 0.25
vt 0.5425532 0.25
vt 0.680851 0.1875
vt 0.6914893 0.1875
vt 0.6914893 0.25
vt 0.680851 0.25
vt 0.4255319 0.625
vt 0.4255319 0.6875
vt 0.6595744 0.1875
vt 0.6702127 0.1875
vt 0.6702127 0.25
vt 0.6595744 0.25
vt 0.5957447 0.1875
vt 0.606383 0.1875
vt 0.606383 0.25
vt 0.5957447 0.25
vt 0.6382979 0.1875
vt 0.6489362 0.1875
vt 0.6489362 0.25
vt 0.6382979 0.25
vt 0.5851064 0.1875
vt 0.5851064 0.25
vt 0.606383 0.8125
vt 0.606383 0.875

# Normal
vn 0 0 -1

# Mesh description
g 2ScenarioPlataforma_mesh_0983

# Faces
f 1/1/1 2/2/1 3/3/1 4/4/1
f 5/5/1 6/6/1 7/7/1 8/8/1
f 9/6/1 10/1/1 11/4/1 12/7/1
f 13/1/1 14/2/1 15/3/1 16/4/1
f 17/9/1 18/10/1 19/11/1 20/12/1
f 21/9/1 22/10/1 23/11/1 24/12/1
f 25/13/1 26/14/1 27/15/1 28/16/1
f 29/8/1 30/7/1 31/17/1 32/18/1
f 33/5/1 34/6/1 35/7/1 36/8/1
f 37/6/1 38/1/1 39/4/1 40/7/1
f 41/1/1 42/2/1 43/3/1 44/4/1
f 45/9/1 46/10/1 47/11/1 48/12/1
f 49/19/1 50/20/1 51/10/1 52/9/1
f 53/13/1 54/14/1 55/15/1 56/16/1
f 57/5/1 58/6/1 59/7/1 60/8/1
f 61/5/1 62/6/1 63/7/1 64/8/1
f 65/6/1 66/1/1 67/4/1 68/7/1
f 69/1/1 70/2/1 71/3/1 72/4/1
f 73/21/1 74/9/1 75/12/1 76/22/1
f 77/9/1 78/10/1 79/11/1 80/12/1
f 81/23/1 82/24/1 83/25/1 84/26/1
f 85/5/1 86/6/1 87/7/1 88/8/1
f 89/6/1 90/1/1 91/4/1 92/7/1
f 93/1/1 94/2/1 95/3/1 96/4/1
f 97/9/1 98/10/1 99/11/1 100/12/1
f 101/21/1 102/9/1 103/12/1 104/22/1
f 105/9/1 106/10/1 107/11/1 108/12/1
f 109/27/1 110/28/1 111/29/1 112/30/1
f 113/5/1 114/6/1 115/7/1 116/8/1
f 117/6/1 118/1/1 119/4/1 120/7/1
f 121/1/1 122/2/1 123/3/1 124/4/1
f 125/19/1 126/20/1 127/10/1 128/9/1
f 129/9/1 130/10/1 131/11/1 132/12/1
f 133/9/1 134/10/1 135/11/1 136/12/1
f 137/9/1 138/10/1 139/11/1 140/12/1
f 141/31/1 142/32/1 143/33/1 144/34/1
f 145/35/1 146/36/1 147/37/1 148/38/1
f 149/27/1 150/39/1 151/40/1 152/28/1
f 153/41/1 154/42/1 155/43/1 156/44/1
f 157/41/1 158/42/1 159/43/1 160/44/1
f 161/27/1 162/39/1 163/40/1 164/28/1
f 165/45/1 166/46/1 167/47/1 168/48/1
f 169/49/1 170/50/1 171/51/1 172/52/1
f 173/53/1 174/45/1 175/48/1 176/54/1
f 177/5/1 178/6/1 179/7/1 180/8/1
f 181/6/1 182/1/1 183/4/1 184/7/1
f 185/1/1 186/2/1 187/3/1 188/4/1
f 189/4/1 190/3/1 191/20/1 192/19/1
f 193/19/1 194/20/1 195/10/1 196/9/1
f 197/19/1 198/20/1 199/10/1 200/9/1
f 201/9/1 202/10/1 203/11/1 204/12/1
f 205/55/1 206/21/1 207/22/1 208/56/1
f 209/55/1 210/21/1 211/22/1 212/56/1
f 213/55/1 214/21/1 215/22/1 216/56/1
f 217/55/1 218/21/1 219/22/1 220/56/1
f 221/55/1 222/21/1 223/22/1 224/56/1
f 225/55/1 226/21/1 227/22/1 228/56/1
f 229/55/1 230/21/1 231/22/1 232/56/1
f 233/55/1 234/21/1 235/22/1 236/56/1
f 237/55/1 238/21/1 239/22/1 240/56/1
f 241/5/1 242/6/1 243/7/1 244/8/1
f 245/6/1 246/1/1 247/4/1 248/7/1
f 249/1/1 250/2/1 251/3/1 252/4/1
f 253/1/1 254/2/1 255/3/1 256/4/1
f 257/4/1 258/3/1 259/20/1 260/19/1
f 261/4/1 262/3/1 263/20/1 264/19/1
f 265/19/1 266/20/1 267/10/1 268/9/1
f 269/18/1 270/17/1 271/21/1 272/55/1
f 273/18/1 274/17/1 275/21/1 276/55/1
f 277/18/1 278/17/1 279/21/1 280/55/1
f 281/18/1 282/17/1 283/21/1 284/55/1
f 285/18/1 286/17/1 287/21/1 288/55/1
f 289/18/1 290/17/1 291/21/1 292/55/1
f 293/18/1 294/17/1 295/21/1 296/55/1
f 297/18/1 298/17/1 299/21/1 300/55/1
f 301/18/1 302/17/1 303/21/1 304/55/1
f 305/8/1 306/7/1 307/17/1 308/18/1
f 309/5/1 310/6/1 311/7/1 312/8/1
f 313/6/1 314/1/1 315/4/1 316/7/1
f 317/1/1 318/2/1 319/3/1 320/4/1
f 321/1/1 322/2/1 323/3/1 324/4/1
f 325/1/1 326/2/1 327/3/1 328/4/1
f 329/4/1 330/3/1 331/20/1 332/19/1
f 333/8/1 334/7/1 335/17/1 336/18/1
f 337/8/1 338/7/1 339/17/1 340/18/1
f 341/8/1 342/7/1 343/17/1 344/18/1
f 345/8/1 346/7/1 347/17/1 348/18/1
f 349/8/1 350/7/1 351/17/1 352/18/1
f 353/8/1 354/7/1 355/17/1 356/18/1
f 357/8/1 358/7/1 359/17/1 360/18/1
f 361/8/1 362/7/1 363/17/1 364/18/1
f 365/8/1 366/7/1 367/17/1 368/18/1
f 369/5/1 370/6/1 371/7/1 372/8/1
f 373/5/1 374/6/1 375/7/1 376/8/1
f 377/5/1 378/6/1 379/7/1 380/8/1
f 381/8/1 382/7/1 383/17/1 384/18/1
f 385/5/1 386/6/1 387/7/1 388/8/1
f 389/6/1 390/1/1 391/4/1 392/7/1
f 393/1/1 394/2/1 395/3/1 396/4/1
f 397/5/1 398/6/1 399/7/1 400/8/1
f 401/5/1 402/6/1 403/7/1 404/8/1
f 405/5/1 406/6/1 407/7/1 408/8/1
f 409/5/1 410/6/1 411/7/1 412/8/1
f 413/5/1 414/6/1 415/7/1 416/8/1
f 417/5/1 418/6/1 419/7/1 420/8/1
f 421/5/1 422/6/1 423/7/1 424/8/1
f 425/5/1 426/6/1 427/7/1 428/8/1
f 429/5/1 430/6/1 431/7/1 432/8/1
f 433/55/1 434/21/1 435/22/1 436/56/1
f 437/21/1 438/9/1 439/12/1 440/22/1
f 441/9/1 442/10/1 443/11/1 444/12/1
f 445/5/1 446/6/1 447/7/1 448/8/1
f 449/5/1 450/6/1 451/7/1 452/8/1
f 453/5/1 454/6/1 455/7/1 456/8/1
f 457/5/1 458/6/1 459/7/1 460/8/1
f 461/6/1 462/1/1 463/4/1 464/7/1
f 465/1/1 466/2/1 467/3/1 468/4/1
f 469/1/1 470/2/1 471/3/1 472/4/1
f 473/1/1 474/2/1 475/3/1 476/4/1
f 477/1/1 478/2/1 479/3/1 480/4/1
f 481/55/1 482/21/1 483/22/1 484/56/1
f 485/21/1 486/9/1 487/12/1 488/22/1
f 489/9/1 490/10/1 491/11/1 492/12/1
f 493/55/1 494/21/1 495/22/1 496/56/1
f 497/18/1 498/17/1 499/21/1 500/55/1
f 501/17/1 502/19/1 503/9/1 504/21/1
f 505/19/1 506/20/1 507/10/1 508/9/1
f 509/18/1 510/17/1 511/21/1 512/55/1
f 513/17/1 514/19/1 515/9/1 516/21/1
f 517/19/1 518/20/1 519/10/1 520/9/1
f 521/18/1 522/17/1 523/21/1 524/55/1
f 525/17/1 526/19/1 527/9/1 528/21/1
f 529/19/1 530/20/1 531/10/1 532/9/1
f 533/18/1 534/17/1 535/21/1 536/55/1
f 537/17/1 538/19/1 539/9/1 540/21/1
f 541/19/1 542/20/1 543/10/1 544/9/1
f 545/18/1 546/17/1 547/21/1 548/55/1
f 549/17/1 550/19/1 551/9/1 552/21/1
f 553/19/1 554/20/1 555/10/1 556/9/1
f 557/18/1 558/17/1 559/21/1 560/55/1
f 561/8/1 562/7/1 563/17/1 564/18/1
f 565/7/1 566/4/1 567/19/1 568/17/1
f 569/4/1 570/3/1 571/20/1 572/19/1
f 573/8/1 574/7/1 575/17/1 576/18/1
f 577/7/1 578/4/1 579/19/1 580/17/1
f 581/4/1 582/3/1 583/20/1 584/19/1
f 585/8/1 586/7/1 587/17/1 588/18/1
f 589/7/1 590/4/1 591/19/1 592/17/1
f 593/4/1 594/3/1 595/20/1 596/19/1
f 597/8/1 598/7/1 599/17/1 600/18/1
f 601/7/1 602/4/1 603/19/1 604/17/1
f 605/4/1 606/3/1 607/20/1 608/19/1
f 609/8/1 610/7/1 611/17/1 612/18/1
f 613/7/1 614/4/1 615/19/1 616/17/1
f 617/4/1 618/3/1 619/20/1 620/19/1
f 621/8/1 622/7/1 623/17/1 624/18/1
f 625/5/1 626/6/1 627/7/1 628/8/1
f 629/6/1 630/1/1 631/4/1 632/7/1
f 633/1/1 634/2/1 635/3/1 636/4/1
f 637/5/1 638/6/1 639/7/1 640/8/1
f 641/6/1 642/1/1 643/4/1 644/7/1
f 645/1/1 646/2/1 647/3/1 648/4/1
f 649/5/1 650/6/1 651/7/1 652/8/1
f 653/6/1 654/1/1 655/4/1 656/7/1
f 657/1/1 658/2/1 659/3/1 660/4/1
f 661/5/1 662/6/1 663/7/1 664/8/1
f 665/6/1 666/1/1 667/4/1 668/7/1
f 669/1/1 670/2/1 671/3/1 672/4/1
f 673/5/1 674/6/1 675/7/1 676/8/1
f 677/6/1 678/1/1 679/4/1 680/7/1
f 681/1/1 682/2/1 683/3/1 684/4/1
f 685/5/1 686/6/1 687/7/1 688/8/1
f 689/55/1 690/21/1 691/22/1 692/56/1
f 693/55/1 694/21/1 695/22/1 696/56/1
f 697/55/1 698/21/1 699/22/1 700/56/1
f 701/21/1 702/9/1 703/12/1 704/22/1
f 705/9/1 706/10/1 707/11/1 708/12/1
f 709/9/1 710/10/1 711/11/1 712/12/1
f 713/55/1 714/21/1 715/22/1 716/56/1
f 717/21/1 718/9/1 719/12/1 720/22/1
f 721/9/1 722/10/1 723/11/1 724/12/1
f 725/55/1 726/21/1 727/22/1 728/56/1
f 729/21/1 730/9/1 731/12/1 732/22/1
f 733/9/1 734/10/1 735/11/1 736/12/1
f 737/55/1 738/21/1 739/22/1 740/56/1
f 741/21/1 742/9/1 743/12/1 744/22/1
f 745/9/1 746/10/1 747/11/1 748/12/1
f 749/55/1 750/21/1 751/22/1 752/56/1
f 753/18/1 754/17/1 755/21/1 756/55/1
f 757/18/1 758/17/1 759/21/1 760/55/1
f 761/18/1 762/17/1 763/21/1 764/55/1
f 765/55/1 766/21/1 767/22/1 768/56/1
f 769/55/1 770/21/1 771/22/1 772/56/1
f 773/55/1 774/21/1 775/22/1 776/56/1
f 777/55/1 778/21/1 779/22/1 780/56/1
f 781/55/1 782/21/1 783/22/1 784/56/1
f 785/55/1 786/21/1 787/22/1 788/56/1
f 789/55/1 790/21/1 791/22/1 792/56/1
f 793/55/1 794/21/1 795/22/1 796/56/1
f 797/55/1 798/21/1 799/22/1 800/56/1
f 801/55/1 802/21/1 803/22/1 804/56/1
f 805/55/1 806/21/1 807/22/1 808/56/1
f 809/55/1 810/21/1 811/22/1 812/56/1
f 813/55/1 814/21/1 815/22/1 816/56/1
f 817/8/1 818/7/1 819/17/1 820/18/1
f 821/8/1 822/7/1 823/17/1 824/18/1
f 825/8/1 826/7/1 827/17/1 828/18/1
f 829/18/1 830/17/1 831/21/1 832/55/1
f 833/18/1 834/17/1 835/21/1 836/55/1
f 837/18/1 838/17/1 839/21/1 840/55/1
f 841/18/1 842/17/1 843/21/1 844/55/1
f 845/18/1 846/17/1 847/21/1 848/55/1
f 849/18/1 850/17/1 851/21/1 852/55/1
f 853/18/1 854/17/1 855/21/1 856/55/1
f 857/18/1 858/17/1 859/21/1 860/55/1
f 861/18/1 862/17/1 863/21/1 864/55/1
f 865/18/1 866/17/1 867/21/1 868/55/1
f 869/18/1 870/17/1 871/21/1 872/55/1
f 873/18/1 874/17/1 875/21/1 876/55/1
f 877/18/1 878/17/1 879/21/1 880/55/1

