# Tiled2Unity generated file. Do not modify by hand.
# Wavefront file for '2ScenarioPlataforma_mesh_0818.obj'

# Vertices (Count = 20)
v -176 -80 0
v -192 -80 0
v -192 -64 0
v -176 -64 0
v -192 -80 0
v -208 -80 0
v -208 -64 0
v -192 -64 0
v -208 -80 0
v -224 -80 0
v -224 -64 0
v -208 -64 0
v -224 -80 0
v -240 -80 0
v -240 -64 0
v -224 -64 0
v -240 -80 0
v -256 -80 0
v -256 -64 0
v -240 -64 0

# Texture cooridinates (Count = 10)
vt 0.2021277 0.25
vt 0.212766 0.25
vt 0.212766 0.3125
vt 0.2021277 0.3125
vt 0.2234043 0.25
vt 0.2234043 0.3125
vt 0.2340426 0.25
vt 0.2340426 0.3125
vt 0.2446809 0.25
vt 0.2446809 0.3125

# Normal
vn 0 0 -1

# Mesh description
g 2ScenarioPlataforma_mesh_0818

# Faces
f 1/1/1 2/2/1 3/3/1 4/4/1
f 5/2/1 6/5/1 7/6/1 8/3/1
f 9/5/1 10/7/1 11/8/1 12/6/1
f 13/7/1 14/9/1 15/10/1 16/8/1
f 17/1/1 18/2/1 19/3/1 20/4/1

